<?xml version="1.0" encoding="UTF-8"?>
<svg width="55px" height="62px" viewBox="0 0 55 62" version="1.1" xmlns="http://www.w3.org/2000/svg" xmlns:xlink="http://www.w3.org/1999/xlink">
    <!-- Generator: Sketch 51.2 (57519) - http://www.bohemiancoding.com/sketch -->
    <title>quality</title>
    <desc>Created with Sketch.</desc>
    <defs></defs>
    <g id="Page-1" stroke="none" stroke-width="1" fill="none" fill-rule="evenodd">
        <g id="sonata" transform="translate(-693.000000, -3353.000000)" fill-rule="nonzero">
            <g id="features" transform="translate(-150.000000, 3137.000000)">
                <g id="1" transform="translate(749.000000, 216.000000)">
                    <g id="quality" transform="translate(94.000000, 0.000000)">
                        <path d="M46.2362313,18.119821 L31.3794919,9.53812287 L16.5228722,0.948275862 L8.77993124,5.42079637 L12.8530146,7.78623987 L8.78795265,5.43697423 L9.8445048,9.35237701 L8.7717901,5.42894522 L0.948275862,15.2701201 L0.956297278,15.2701201 L23.5398151,60.520207 L23.6205081,60.6816262 L23.6205081,60.6896552 L23.6285295,60.6896552 L23.6446921,60.6734773 L31.3794919,56.2089858 L54.0517241,36.9948354 L46.2362313,18.119821 Z M33.7830432,34.241962 L33.7830432,34.249991 L33.7750218,34.241962 L33.7750218,34.233933 L33.7830432,34.241962 Z M33.8959417,34.3147025 L33.9766347,34.1209276 L33.9040828,34.3147025 L33.8959417,34.3147025 Z" id="Shape" fill="#D4E1F4"></path>
                        <polygon id="Shape" fill="#E3E7F2" points="34.1696983 34.137931 34.1696983 34.1701724 34.137931 34.137931"></polygon>
                        <path d="M23.2293578,14.2241369 C23.0431241,14.2242773 22.8743542,14.1139425 22.7989107,13.9428252 C22.7234672,13.771708 22.7557402,13.5719543 22.8809206,13.4335444 C23.0562569,13.2387038 23.3550969,13.2221396 23.5505515,13.3966258 C23.6433191,13.4793067 23.6993428,13.5956777 23.7061886,13.72005 C23.7130344,13.8444223 23.6700037,13.9664082 23.5868761,14.058775 L23.5776553,14.0688821 C23.4887996,14.1679869 23.3620825,14.2244176 23.2293578,14.2241369 Z" id="SVGCleanerId_0" fill="#000000"></path>
                        <polygon id="Shape" fill="#E07585" points="12.3275862 8.53448276 8.54195279 5.70911167 8.53448276 5.68965517"></polygon>
                        <polygon id="Shape" fill="#A4C2F7" points="34.1696983 34.1696983 34.137931 34.1696983 34.137931 34.137931"></polygon>
                        <polygon id="Shape" fill="#E07585" points="34.137931 34.137931 34.1696983 34.1696983 34.1696983 34.2019397 34.137931 34.1696983"></polygon>
                        <polygon id="Shape" fill="#A4C2F7" points="12.3275862 8.53448276 8.54939346 5.70911167 8.53448276 5.69931136 8.54193811 5.68965517"></polygon>
                        <polygon id="Shape" fill="#E3E7F2" points="23.7068966 59.9209208 23.4032348 60.6896552 23.3232863 60.5277405 0.948275862 15.1724138 13.3105133 22.3985167 13.3105133 22.4066845 23.4032348 59.7994848"></polygon>
                        <path d="M23.2293578,14.2241369 C23.0431241,14.2242773 22.8743542,14.1139425 22.7989107,13.9428252 C22.7234672,13.771708 22.7557402,13.5719543 22.8809206,13.4335444 C23.0562569,13.2387038 23.3550969,13.2221396 23.5505515,13.3966258 C23.6433191,13.4793067 23.6993428,13.5956777 23.7061886,13.72005 C23.7130344,13.8444223 23.6700037,13.9664082 23.5868761,14.058775 L23.5776553,14.0688821 C23.4887996,14.1679869 23.3620825,14.2244176 23.2293578,14.2241369 Z" id="SVGCleanerId_0_1_" fill="#000000"></path>
                        <g id="Group" transform="translate(8.534483, 5.689655)" fill="#E3E7F2">
                            <polygon id="Shape" points="37.9173841 36.4636544 37.9173841 36.4717506 15.0657479 55.8303374 15.0494399 55.8466506 15.0413464 55.8466506 15.0413464 55.8385544 15.350593 55.0651873 19.4684054 44.5147684 19.4684054 44.5066722 20.5182737 41.8201882 25.4174171 29.2510395"></polygon>
                            <polygon id="Shape" points="15.0429168 8.78520854 4.79465188 17.3297066 4.76215682 17.3133933 3.38842521 12.3304925 1.82757523 6.58316657 1.1448166 4.08313659 0.0640237206 0.118663514 10.8119152 6.33327232 14.8394904 8.66316154"></polygon>
                        </g>
                        <polygon id="Shape" fill="#A4C2F7" points="33.1896552 34.137931 13.2758621 22.5712503 23.2288275 14.2241379 23.9244567 15.6073582 26.9759312 21.7047611"></polygon>
                        <polygon id="Shape" fill="#E3E7F2" points="38.8793103 22.6477438 38.6403631 23.2339034 37.1229139 26.9632944 34.2040649 34.137931 34.0887491 34.0746832 34.0805559 34.066689 27.6094156 21.6776295 24.4319313 15.6021892 23.7068966 14.2241379 25.1486507 15.0248466 38.1131874 22.2200565"></polygon>
                        <g id="Group" transform="translate(8.534483, 0.948276)" fill="#7FACFA">
                            <polygon id="Shape" points="45.4807315 36.0160464 22.7373633 55.1735534 14.978295 59.6247641 37.6972832 40.4833872 37.7054499 40.4833872"></polygon>
                            <polygon id="Shape" points="45.4807315 36.0160464 37.7054499 40.4833872 37.6972832 40.4833872 37.6972832 40.4753819 32.9642107 29.1177093 32.8024384 28.7313021 32.4140406 27.789539 32.3978273 27.7492733 32.3978273 27.7412679 32.381614 27.7091271 29.8573888 21.6640164 37.640717 17.196556"></polygon>
                            <polygon id="Shape" points="37.640717 17.196556 29.8573888 21.6640164 29.1048531 21.2293381 16.3698735 13.9205778 14.9540351 13.1074976 14.7517896 12.98682 10.7467528 10.6846262 0.0588481485 4.54297345 7.83412974 0.0756325862 22.7373633 8.64015672"></polygon>
                        </g>
                        <polygon id="Shape" fill="#FFFFFF" points="1.42337515 15.1724138 6.04686423 24.6618641 23.7068966 60.9083833 22.2835214 61.637931 4.62348908 25.3914118 0 15.9019615"></polygon>
                        <g id="Group" fill="#428DFF">
                            <path d="M4.4758952,20.7099844 C4.37730349,20.5197839 4.21062227,20.3736792 4.00923581,20.3008671 L3.85732533,20.2680656 C3.80316594,20.2607364 3.74840611,20.2606162 3.69424672,20.2678253 C3.64284934,20.2674649 3.59157205,20.2749143 3.54233624,20.2898131 C3.49045852,20.305553 3.43978166,20.3248975 3.39054585,20.3476062 C3.20032751,20.4461308 3.05418122,20.6127815 2.98164847,20.8145165 C2.89062227,21.0715215 2.93709607,21.3572427 3.10473799,21.5721945 C3.2725,21.7871463 3.53825328,21.9015309 3.80953057,21.8754579 C3.91520742,21.8690899 4.01848253,21.8419355 4.11371179,21.7957972 C4.30717249,21.7013578 4.45451965,21.5331451 4.52260917,21.3288869 C4.59081878,21.1247488 4.57400655,20.9016267 4.4758952,20.7099844 Z" id="Shape"></path>
                            <path d="M0.0738537118,15.4345945 C0.0838209607,15.4795313 0.0976310044,15.5233868 0.115283843,15.5659205 C0.124650655,15.5900711 0.126812227,15.6162642 0.138460699,15.6395737 L0.135578603,15.6410155 L0.144465066,15.6589181 L0.149628821,15.6692512 L1.58203057,18.5373975 C1.78245633,18.9360615 2.26748908,19.0971853 2.66641921,18.8977331 C3.06534934,18.6982809 3.22770742,18.2134679 3.02944323,17.8137225 L2.78662664,17.3274677 L12.6808624,23.0429741 L21.1930131,54.1827452 L5.92246725,23.6062462 C5.72204148,23.2075822 5.23700873,23.0464585 4.8380786,23.2459106 C4.43914847,23.4453628 4.27679039,23.9301758 4.47505459,24.3299212 L22.7930568,61.0082149 L22.7932969,61.0088156 L22.8564629,61.1353356 L22.8606659,61.1436261 L22.8778384,61.1779895 C22.8803603,61.1830359 22.8856441,61.1856792 22.888286,61.1907256 C22.8933297,61.2003378 22.8928493,61.2111514 22.8983734,61.2206434 C22.935,61.2842038 22.9801528,61.3423573 23.0325109,61.3937823 L23.0352729,61.3959451 C23.0531659,61.413247 23.0749017,61.4247815 23.0941157,61.4402811 C23.1066048,61.4503739 23.1186135,61.459145 23.131583,61.4683967 C23.1752948,61.4999966 23.2221288,61.5270308 23.2713646,61.5490186 C23.2830131,61.5543053 23.2905786,61.5645182 23.3024672,61.5692041 C23.3139956,61.5736498 23.3258843,61.5719676 23.3374127,61.5758125 C23.3662336,61.586506 23.3957751,61.5953973 23.4256769,61.6027265 C23.4304803,61.6038079 23.4339629,61.6076528 23.4387664,61.6087341 C23.4899236,61.618947 23.5419214,61.6243539 23.5940393,61.6245942 L23.5960808,61.6248345 L23.5986026,61.6253151 L23.5992031,61.6251949 L23.5998035,61.6253151 L23.600524,61.6251949 L23.6013646,61.6253151 L23.6058079,61.624474 C23.678941,61.6235128 23.7515939,61.612579 23.8217249,61.5919129 C23.8327729,61.5886688 23.8431004,61.5843433 23.8540284,61.5808589 C23.8794869,61.5724482 23.9020633,61.5594718 23.9265611,61.5486582 C23.9526201,61.5395266 23.9781987,61.5289532 24.0030568,61.5170582 L31.7862773,57.0248185 C31.8063319,57.0131638 31.8176201,56.9936992 31.8363537,56.9807228 C31.8598908,56.9687076 31.8827074,56.9554909 31.9048035,56.9410726 L54.6463428,37.6756747 C54.6558297,37.6676245 54.6594323,37.6559698 54.668559,37.6475592 C54.7191157,37.5990178 54.7627074,37.5438681 54.7982533,37.4834316 C54.8992467,37.344536 54.9430786,37.172118 54.9206223,37.0017426 C54.9175,36.9705031 54.9125764,36.9393838 54.9057314,36.908745 C54.8998472,36.8666919 54.8906004,36.8251193 54.8778712,36.784508 C54.873548,36.7726129 54.8757096,36.7602373 54.870786,36.7483422 L47.0287227,17.820451 C47.020917,17.8015872 47.0059061,17.7870488 46.9966594,17.7689059 C46.9895742,17.7548481 46.9900546,17.7393485 46.9821288,17.725531 C46.9712009,17.706547 46.9525873,17.6960938 46.9404585,17.6784315 C46.8822162,17.5969685 46.8114847,17.5252378 46.7306659,17.4660029 C46.7144541,17.4550691 46.7028057,17.4389687 46.6858734,17.4291163 L16.8793559,0.215912986 C16.8484934,0.203176884 16.8167904,0.192483364 16.7844869,0.183952578 C16.73381,0.160643107 16.6807314,0.142740472 16.6262118,0.130605129 C16.5249782,0.116427203 16.4223035,0.116547355 16.32119,0.130845433 C16.2675109,0.142980776 16.2152729,0.160643107 16.1653166,0.183592122 C16.1330131,0.19224306 16.10119,0.20293658 16.0703275,0.215792835 L8.29503275,4.70815269 L8.29022926,4.71247815 C8.27329694,4.72245076 8.2604476,4.73891157 8.24423581,4.7500857 C8.20724891,4.77711988 8.17266376,4.80739816 8.1409607,4.84056009 C8.11478166,4.86074561 8.08980349,4.88249311 8.06638646,4.90580258 L8.05521834,4.91998051 L8.05365721,4.92190294 L0.224082969,14.7741194 C0.209072052,14.7929833 0.205469432,14.8161726 0.192379913,14.8359977 C0.182652838,14.8506562 0.167401747,14.8590668 0.158515284,14.8745664 C0.147947598,14.9009999 0.138820961,14.9281542 0.131255459,14.955669 C0.104716157,15.0117799 0.0847816594,15.0708947 0.0721724891,15.1316915 C0.0650873362,15.1747059 0.0617248908,15.2183211 0.0619650655,15.2619362 C0.0594432314,15.3197293 0.0635262009,15.3776425 0.0738537118,15.4345945 Z M2.07438865,15.0463837 L8.33994541,7.16261595 L12.073941,20.8226869 L2.07438865,15.0463837 Z M16.4749017,1.85190143 L44.6626419,18.1302027 L38.498559,21.6881411 L23.9875655,13.3097079 C23.9778384,13.3044213 23.9690721,13.2981734 23.9591048,13.2932471 L23.8020306,13.2025324 L23.8008297,13.2025324 L10.3173035,5.4094794 L16.4749017,1.85190143 Z M53.1046616,36.713378 L46.7360699,40.3923094 L42.3516812,29.8112514 L41.8066048,28.4785264 C41.8002402,28.4635074 41.7900328,28.4429615 41.7789847,28.4215744 C41.7750218,28.4113615 41.7718996,28.4018695 41.7679367,28.3930984 L39.5182205,22.9688403 L45.8872926,19.2926724 L53.1046616,36.713378 Z M38.5216157,24.7903433 L40.2856987,29.043721 L40.2881004,29.0428799 C40.2975873,29.068232 40.3077948,29.0926228 40.3189629,29.1164129 L44.6818559,39.6589022 L34.9212773,34.0206535 L38.5216157,24.7903433 Z M33.7860917,32.4774224 L25.5376528,16.0739228 L37.4918668,22.9768905 L33.7860917,32.4774224 Z M23.3339301,15.2940168 L31.8619323,32.2534592 L14.8144541,22.4058085 L23.3339301,15.2940168 Z M13.8321397,21.1179001 L9.99919214,7.09497042 L22.1899782,14.1411592 L13.8321397,21.1179001 Z M44.9428057,41.6792566 L25.5139956,58.1353826 L28.7525109,49.8417767 C28.7604367,49.8220718 28.7675218,49.8014057 28.7738865,49.7801388 L34.3260044,35.5463425 L44.9428057,41.6792566 Z M32.9084934,34.7276274 L27.2455349,49.2458233 C27.2376092,49.2655282 27.2308843,49.2861943 27.2246397,49.3067403 L23.8792467,57.874653 L14.6729913,24.1936689 L32.9084934,34.7276274 Z" id="Shape"></path>
                        </g>
                    </g>
                </g>
            </g>
        </g>
    </g>
</svg>