<?xml version="1.0" encoding="UTF-8"?>
<svg width="42px" height="64px" viewBox="0 0 42 64" version="1.1" xmlns="http://www.w3.org/2000/svg" xmlns:xlink="http://www.w3.org/1999/xlink">
    <!-- Generator: sketchtool 50.2 (55047) - http://www.bohemiancoding.com/sketch -->
    <title>70D4B95B-3A23-46CF-AC05-CCCD6E70CD71</title>
    <desc>Created with sketchtool.</desc>
    <defs>
        <linearGradient x1="-17.6515328%" y1="10.3542082%" x2="104.029157%" y2="81.7576187%" id="linearGradient-1">
            <stop stop-color="#D3DFF2" offset="0%"></stop>
            <stop stop-color="#D3DFF2" offset="17.2%"></stop>
            <stop stop-color="#D3DFF2" offset="20%"></stop>
            <stop stop-color="#DAE2F2" offset="20%"></stop>
            <stop stop-color="#EBEAF2" offset="20.1%"></stop>
            <stop stop-color="#F6EFF2" offset="20.1%"></stop>
            <stop stop-color="#FDF2F2" offset="20.2%"></stop>
            <stop stop-color="#FFF3F2" offset="20.5%"></stop>
            <stop stop-color="#FFF3F2" offset="25.2%"></stop>
            <stop stop-color="#FFF3F2" offset="26%"></stop>
            <stop stop-color="#D3DFF2" offset="26%"></stop>
            <stop stop-color="#D3DFF2" offset="39.7%"></stop>
            <stop stop-color="#D3DFF2" offset="42%"></stop>
            <stop stop-color="#DAE2F2" offset="42%"></stop>
            <stop stop-color="#EBEAF2" offset="42.1%"></stop>
            <stop stop-color="#F6EFF2" offset="42.1%"></stop>
            <stop stop-color="#FDF2F2" offset="42.2%"></stop>
            <stop stop-color="#FFF3F2" offset="42.5%"></stop>
            <stop stop-color="#FFF3F2" offset="48.9%"></stop>
            <stop stop-color="#FFF3F2" offset="50%"></stop>
            <stop stop-color="#F8F0F2" offset="50%"></stop>
            <stop stop-color="#E7E8F2" offset="50%"></stop>
            <stop stop-color="#DCE3F2" offset="50%"></stop>
            <stop stop-color="#D5E0F2" offset="50%"></stop>
            <stop stop-color="#D3DFF2" offset="50.1%"></stop>
            <stop stop-color="#D3DFF2" offset="70.6%"></stop>
            <stop stop-color="#D3DFF2" offset="74%"></stop>
            <stop stop-color="#FFF3F2" offset="74.1%"></stop>
            <stop stop-color="#FFF3F2" offset="83.5%"></stop>
            <stop stop-color="#FFF3F2" offset="85%"></stop>
            <stop stop-color="#D3DFF2" offset="85.1%"></stop>
        </linearGradient>
    </defs>
    <g id="Page-1" stroke="none" stroke-width="1" fill="none" fill-rule="evenodd">
        <g id="sonata" transform="translate(-483.000000, -3342.000000)" fill-rule="nonzero">
            <g id="vyhody" transform="translate(-239.000000, 921.000000)">
                <g id="1" transform="translate(635.000000, 2421.000000)">
                    <g id="awards" transform="translate(87.000000, 0.000000)">
                        <path d="M32.586463,18.5804813 C27.9923162,15.8646318 26.4575578,11.3865763 23.3972941,9.58165482 C20.3454082,7.77673333 18.8115251,10.4585873 14.2248807,7.7512051 C11.1578648,5.85605017 8.33267895,3.58896665 5.8114688,1 L5.80309102,1 L1,3.45197359 L1,24.0631104 C1,34.8156756 6.51995348,49.7568921 18.5942031,64 C23.1799721,64 26.8239292,62.7826069 29.5759658,60.662753 C29.5843436,60.662753 29.5843436,60.662753 29.5928464,60.6542857 C37.3811763,58.236434 41,51.0509963 41,42.350294 L41,21.7389044 C38.0237641,21.2306146 35.1699438,20.1588082 32.586463,18.5804813 Z" id="Shape" fill="#7FACFA"></path>
                        <path d="M36,24.559628 L36,44.9758633 C36,51.5731783 33.8933566,57.2931055 29.4396238,60.6845612 C29.431375,60.6929518 29.431375,60.6929518 29.4230031,60.6929518 C26.6860041,62.7936231 23.0615828,64 18.5,64 C6.49049542,49.8859037 1,35.0798908 1,24.424626 L1,4 C3.510588,6.56892032 6.3213336,8.81548891 9.36846252,10.6901132 C13.9384172,13.372871 15.4560721,10.7154104 18.5,12.5039991 C21.5439279,14.2925878 23.0699547,18.7385119 27.6315375,21.4213949 C30.2067615,22.9853143 33.0439771,24.0491751 36,24.559628 Z" id="Shape" fill="#E3E7F2"></path>
                        <path d="M19.950929,61 C9.94090852,48.8877011 4,35.3122959 4,24.4393786 L4,11 C5.16450986,11.8815231 6.37853353,12.6950329 7.63546086,13.4362391 C9.41247023,14.5455247 11.4557566,15.1431333 13.5436928,15.1652155 L13.5445658,15.1652155 C14.1494574,15.1652155 14.6754013,15.1184012 15.1401077,15.0767604 C15.4358186,15.0512712 15.7240463,15.0214917 16.0138954,15.0214917 C16.3214547,15.0087471 16.6263949,15.092912 16.8851888,15.2612418 C17.9471789,16.0602404 18.8730995,17.028452 19.6275303,18.1284 C21.3852081,20.5739768 23.5957439,22.650717 26.135665,24.2436668 C28.295814,25.5076543 30.6012616,26.4988315 32.9999998,27.1942329 L32.9999998,45.1532785 C33.0006234,49.7452492 31.6933092,60.1940613 19.950929,61 Z" id="Shape" fill="url(#linearGradient-1)"></path>
                        <path d="M41,21.5608263 L41,21.5692208 L36.1886717,24 C33.2168378,23.4893121 30.3633376,22.4242096 27.7750979,20.8601965 C23.1889254,18.1762033 21.6546724,13.7281067 18.5943358,11.9386944 C15.5339993,10.149282 14.0081633,12.8080916 9.41357371,10.1239732 C6.35001888,8.24848561 3.52412163,6.00088249 1,3.4307792 L5.80303509,1 L5.81132834,1 C8.33619265,3.57010328 11.1613472,5.8177064 14.2249021,7.69319395 C18.8110746,10.3771872 20.3453276,7.71850282 23.3972471,9.50791515 C26.4574599,11.2973275 27.9918367,15.7369043 32.5863025,18.4294173 C35.1737995,19.9951845 38.0272997,21.0577811 41,21.5608263 Z" id="Shape" fill="#7FACFA"></path>
                        <g id="Group" transform="translate(0.000000, 1.000000)" fill="#FFFFFF">
                            <path d="M21.9759535,62.0450261 C21.2349884,62.1215351 19.4211395,62.8955892 18.6283721,62.8955892 C6.15168605,48.6665531 0.447546512,33.7400982 0.447546512,22.9981563 L0.447546512,2.40738277 C0.447546512,2.40738277 1.3695,3.351499 2.85155814,4.63573948 L2.85155814,22.9981563 C2.85066279,33.7145952 9.5682093,47.8500782 21.9759535,62.0450261 Z" id="Shape"></path>
                            <polygon id="Shape" points="8.05340698 1.6053006 2.51209302 4.34056112 0.00038372093 2.8198497 5.35725581 0.0837054108"></polygon>
                        </g>
                        <g id="Group" fill="#428DFF">
                            <path d="M20.0392189,60.702875 C20.0576095,60.702875 20.0768698,60.702 20.0952604,60.70125 C32.5335976,59.8525 33.8771006,48.8525 33.8771006,44.162125 L33.8771006,26.371625 C33.8771006,25.99525 33.6284556,25.66425 33.2684734,25.5615 C30.9455503,24.8895 28.7122189,23.9355 26.619426,22.7195 C24.1801953,21.191125 22.0573314,19.203 20.3688817,16.862875 C19.5585799,15.687375 18.554929,14.659125 17.4022899,13.82125 C17.0163373,13.580375 16.5693728,13.458375 16.1156982,13.470125 C15.8403373,13.470125 15.5657219,13.49375 15.2852663,13.519 L15.1714438,13.529125 C14.7294497,13.56875 14.2271893,13.613375 13.6545976,13.613375 C11.7209822,13.58975 9.82998817,13.037375 8.18589941,12.01425 C6.96205917,11.296 5.78009467,10.50775 4.64584615,9.653875 C4.27505325,9.376875 3.75017751,9.45425 3.47481657,9.827375 C3.36770414,9.973 3.30992308,10.149 3.30992308,10.330125 L3.30992308,23.64325 C3.30992308,34.539625 9.32437278,48.281375 19.3971657,60.4005 C19.5562189,60.592625 19.7914438,60.702875 20.0392189,60.702875 Z M4.9842071,11.967125 C5.78692899,12.52125 6.57797041,13.02475 7.34987574,13.473625 C9.24757988,14.648375 11.4282249,15.279 13.6564615,15.298375 C14.3018698,15.298375 14.8652663,15.247875 15.318071,15.20825 L15.4343787,15.198125 C15.6637633,15.177875 15.8897929,15.156 16.1158225,15.156 C16.2757456,15.143375 16.4347988,15.188 16.5653964,15.280625 C17.5271716,16.02925 18.3701538,16.91925 19.0666331,17.92225 C20.879716,20.427375 23.1608876,22.552 25.781787,24.178875 C27.8108343,25.356125 29.9647633,26.302625 32.2023195,27.000625 L32.2023195,44.162 C32.2023195,49.32975 30.6562722,58.057 20.4044201,58.986625 C10.7435503,47.24475 4.98445562,34.05875 4.98445562,23.643125 L4.9842071,11.967125 Z" id="Shape"></path>
                            <path d="M8.45392899,17.893625 C7.99180473,17.893625 7.61678698,18.27 7.61678698,18.734875 C7.61678698,18.734875 7.61678698,18.734875 7.61678698,18.73575 L7.61678698,24.400375 C7.61678698,24.86525 7.99180473,25.2425 8.45392899,25.2425 C8.91605325,25.2425 9.29107101,24.86525 9.29107101,24.400375 L9.29107101,18.73575 C9.29094675,18.270875 8.91679882,17.893625 8.45392899,17.893625 C8.45467456,17.893625 8.45392899,17.893625 8.45392899,17.893625 Z" id="Shape"></path>
                            <path d="M11.8022485,24.368375 C11.3401243,24.368375 10.9651065,24.74475 10.9651065,25.209625 C10.9651065,25.209625 10.9651065,25.209625 10.9651065,25.2105 L10.9651065,33.30275 C10.9651065,33.767625 11.3401243,34.144875 11.8022485,34.144875 C12.2643728,34.144875 12.6393905,33.767625 12.6393905,33.30275 L12.6393905,25.2105 C12.6393905,24.74475 12.2651183,24.368375 11.8022485,24.368375 C11.8031183,24.368375 11.8022485,24.368375 11.8022485,24.368375 Z" id="Shape"></path>
                            <path d="M11.8022485,17.084375 C11.3401243,17.084375 10.9651065,17.46075 10.9651065,17.925625 C10.9651065,17.925625 10.9651065,17.925625 10.9651065,17.9265 L10.9651065,21.163375 C10.9651065,21.62825 11.3401243,22.0055 11.8022485,22.0055 C12.2643728,22.0055 12.6393905,21.62825 12.6393905,21.163375 L12.6393905,17.9265 C12.6393905,17.461625 12.2651183,17.084375 11.8022485,17.084375 C11.8031183,17.084375 11.8022485,17.084375 11.8022485,17.084375 Z" id="Shape"></path>
                            <path d="M15.150568,27.604375 C14.6884438,27.604375 14.313426,27.98075 14.313426,28.445625 C14.313426,28.445625 14.313426,28.445625 14.313426,28.4465 L14.313426,44.632 C14.3142959,45.096875 14.6893136,45.47325 15.1513136,45.47325 C15.612568,45.472375 15.986716,45.096875 15.9875858,44.632 L15.9875858,28.4465 C15.9877101,27.981625 15.6135621,27.60525 15.150568,27.604375 C15.1514379,27.604375 15.150568,27.604375 15.150568,27.604375 Z" id="Shape"></path>
                            <path d="M15.150568,16.985875 C14.6884438,16.985875 14.313426,17.36225 14.313426,17.827125 C14.313426,17.827125 14.313426,17.827125 14.313426,17.828 L14.313426,24.400375 C14.3142959,24.86525 14.6893136,25.241625 15.1513136,25.241625 C15.612568,25.24075 15.986716,24.86525 15.9875858,24.400375 L15.9875858,17.828 C15.9877101,17.363125 15.6135621,16.985875 15.150568,16.985875 C15.1514379,16.985875 15.150568,16.985875 15.150568,16.985875 Z" id="Shape"></path>
                            <path d="M0.0939408284,3.3165 L0.0939408284,15.17375 C0.0939408284,15.638625 0.46895858,16.015875 0.93108284,16.015875 C1.3932071,16.015875 1.76822485,15.638625 1.76822485,15.17375 L1.76822485,5.239875 C3.96887574,7.297875 6.37890533,9.11675 8.95966864,10.666125 C10.7677811,11.813875 12.9215858,12.280375 15.0394793,11.9815 C16.1101065,11.770125 17.2209941,11.94525 18.1760592,12.47575 C19.502787,13.401125 20.6538107,14.557375 21.5754497,15.89125 C23.1433669,18.0815 25.118858,19.944125 27.3923254,21.377375 C29.8826272,22.84675 32.5939882,23.899375 35.4200414,24.49475 L35.4200414,44.159625 C35.4200414,55.376875 29.2817041,62.133625 18.975426,62.302875 C8.19459763,49.665875 1.76822485,35.2395 1.76822485,23.645 L1.76822485,21.910375 C1.76822485,21.4455 1.3932071,21.06825 0.93108284,21.06825 C0.46895858,21.06825 0.0939408284,21.4455 0.0939408284,21.910375 L0.0939408284,23.645 C0.0939408284,35.722 6.77305917,50.694875 17.9615858,63.697375 C18.1206391,63.882625 18.3516391,63.98875 18.5944438,63.98875 L18.5953136,63.98875 C22.6844734,64.12175 26.7075266,62.926875 30.0692663,60.58 C37.6021775,58.173375 41.9207219,51.323125 41.9207219,41.73525 L41.9207219,21.350375 C41.9207219,21.3445 41.9173669,21.338625 41.9173669,21.33275 C41.9023314,21.22575 41.8779763,21.11975 41.8454201,21.016125 C41.8395799,21.002625 41.8411953,20.988375 41.8344852,20.97575 C41.8152249,20.947125 41.7943491,20.920125 41.7717337,20.894125 C41.7407929,20.8445 41.7047574,20.798125 41.6646213,20.756 C41.6311953,20.724 41.5942899,20.695375 41.5557692,20.670125 C41.4728876,20.6095 41.3783254,20.5665 41.2786686,20.544625 C41.2477278,20.532875 41.2159172,20.52275 41.1832367,20.51425 C38.3136923,20.012375 35.5588402,18.987625 33.0559882,17.4895 C30.9607101,16.16075 29.1426568,14.43525 27.7028521,12.4085 C26.6573254,10.9105 25.3472485,9.617875 23.8379822,8.5965 C22.5890414,7.884125 21.1333314,7.630625 19.719497,7.879875 C17.9456805,8.146 16.1350828,7.756875 14.6249467,6.7835 C11.6198343,4.94775 8.84572189,2.754125 6.36126036,0.2515 C6.35119527,0.2405 6.33702959,0.237125 6.3269645,0.227875 C6.28260355,0.189125 6.23314793,0.154625 6.18133136,0.126875 C6.14119527,0.099125 6.09931953,0.0755 6.05495858,0.05525 C5.99717751,0.035875 5.93778107,0.02325 5.87751479,0.017375 C5.77288757,-0.010375 5.66242012,-0.0045 5.56114793,0.033375 C5.51678698,0.04175 5.47404142,0.053625 5.43228994,0.06875 C5.41638462,0.0755 5.39886391,0.07375 5.38295858,0.08225 L0.555443787,2.50825 C0.541153846,2.515875 0.532828402,2.52925 0.518662722,2.536875 C0.450071006,2.5765 0.387195266,2.62525 0.332769231,2.6825 C0.312639053,2.70275 0.292633136,2.72375 0.274988166,2.7465 C0.225656805,2.8105 0.186266272,2.88125 0.156940828,2.956125 C0.150230769,2.973 0.139420118,2.9865 0.134325444,3.004125 C0.10835503,3.086625 0.0949349112,3.17175 0.0941893491,3.258375 L0.0941893491,3.3165 L0.0939408284,3.3165 Z M33.5657041,56.9885 C35.8525917,53.7145 37.0932071,49.38625 37.0932071,44.15875 L37.0932071,24.301875 L40.2465621,22.71625 L40.2465621,41.736125 C40.2465621,48.623375 37.8557929,53.952 33.5657041,56.9885 Z M19.8642604,9.557125 C20.9348876,9.344875 22.0456509,9.52175 22.9991006,10.05475 C24.3258284,10.977625 25.4777219,12.133 26.3993609,13.465125 C27.9680237,15.6545 29.9436391,17.516375 32.2179763,18.947875 C34.2219231,20.118375 36.3640473,21.031125 38.5941479,21.664375 L36.1213669,22.908125 C33.3396746,22.375125 30.6701893,21.36375 28.2300888,19.91875 C26.1356805,18.59 24.3183728,16.862875 22.8794379,14.835125 C21.8339112,13.335375 20.5230888,12.041125 19.0129527,11.018 C17.763142,10.3065 16.3066864,10.054625 14.8928521,10.303875 C13.1181657,10.57075 11.3068225,10.180875 9.79581657,9.2075 C7.11378107,7.583125 4.61925444,5.66325 2.35833728,3.48475 L5.5919645,1.85875 C8.06636095,4.301625 10.8171124,6.443875 13.787929,8.241625 C15.5943018,9.38875 17.7481065,9.85525 19.8642604,9.557125 Z" id="Shape"></path>
                            <path d="M0.914183432,19.3925 C1.13598817,19.390875 1.34859763,19.30325 1.50852071,19.14825 C1.54704142,19.110375 1.58046746,19.067375 1.60892308,19.022 C1.63986391,18.973125 1.66757396,18.922625 1.69267456,18.870375 C1.71106509,18.82075 1.72448521,18.770125 1.7345503,18.71875 C1.74884024,18.664 1.75468047,18.607625 1.75207101,18.550375 C1.75294083,18.326375 1.6649645,18.111625 1.50926627,17.9525 C1.17699408,17.640875 0.661313609,17.640875 0.32891716,17.9525 C0.170733728,18.11075 0.0802721893,18.3255 0.0777869822,18.550375 C0.0786568047,18.77525 0.168994083,18.99075 0.32891716,19.14825 C0.484863905,19.30325 0.694863905,19.390875 0.914183432,19.3925 Z" id="Shape"></path>
                        </g>
                    </g>
                </g>
            </g>
        </g>
    </g>
</svg>