<?xml version="1.0" encoding="UTF-8"?>
<svg width="50px" height="69px" viewBox="0 0 50 69" version="1.1" xmlns="http://www.w3.org/2000/svg" xmlns:xlink="http://www.w3.org/1999/xlink">
    <!-- Generator: sketchtool 50.2 (55047) - http://www.bohemiancoding.com/sketch -->
    <title>46E633FB-933C-43D6-A84D-B28BD58B94D0</title>
    <desc>Created with sketchtool.</desc>
    <defs>
        <linearGradient x1="17.6973728%" y1="-3.41718712%" x2="85.9576283%" y2="90.7229573%" id="linearGradient-1">
            <stop stop-color="#D4E1F4" offset="0%"></stop>
            <stop stop-color="#D4E1F4" offset="17.17%"></stop>
            <stop stop-color="#D4E1F4" offset="20%"></stop>
            <stop stop-color="#DAE4F4" offset="20.01%"></stop>
            <stop stop-color="#EBEBF4" offset="20.07%"></stop>
            <stop stop-color="#F6F1F4" offset="20.14%"></stop>
            <stop stop-color="#FDF4F4" offset="20.23%"></stop>
            <stop stop-color="#FFF5F4" offset="20.5%"></stop>
            <stop stop-color="#FFF5F4" offset="25.22%"></stop>
            <stop stop-color="#FFF5F4" offset="26%"></stop>
            <stop stop-color="#D4E1F4" offset="26%"></stop>
            <stop stop-color="#D4E1F4" offset="39.74%"></stop>
            <stop stop-color="#D4E1F4" offset="42%"></stop>
            <stop stop-color="#DAE4F4" offset="42.01%"></stop>
            <stop stop-color="#EBEBF4" offset="42.07%"></stop>
            <stop stop-color="#F6F1F4" offset="42.14%"></stop>
            <stop stop-color="#FDF4F4" offset="42.23%"></stop>
            <stop stop-color="#FFF5F4" offset="42.5%"></stop>
            <stop stop-color="#FFF5F4" offset="48.94%"></stop>
            <stop stop-color="#FFF5F4" offset="50%"></stop>
            <stop stop-color="#F9F2F4" offset="50%"></stop>
            <stop stop-color="#E8EBF4" offset="50.01%"></stop>
            <stop stop-color="#DDE5F4" offset="50.03%"></stop>
            <stop stop-color="#D6E2F4" offset="50.05%"></stop>
            <stop stop-color="#D4E1F4" offset="50.1%"></stop>
            <stop stop-color="#D4E1F4" offset="70.62%"></stop>
            <stop stop-color="#D4E1F4" offset="74%"></stop>
            <stop stop-color="#FFF5F4" offset="74.1%"></stop>
            <stop stop-color="#FFF5F4" offset="83.46%"></stop>
            <stop stop-color="#FFF5F4" offset="85%"></stop>
            <stop stop-color="#D4E1F4" offset="85.1%"></stop>
        </linearGradient>
    </defs>
    <g id="Page-1" stroke="none" stroke-width="1" fill="none" fill-rule="evenodd">
        <g id="sonata" transform="translate(-1153.000000, -3653.000000)" fill-rule="nonzero">
            <g id="vyhody" transform="translate(-239.000000, 921.000000)">
                <g id="1" transform="translate(1306.000000, 2732.000000)">
                    <g id="chat" transform="translate(86.000000, 0.000000)">
                        <path d="M46.101005,42.88534 C44.4277804,39.8487047 42.0215891,37.2894467 39.1064938,35.4457123 L31.4787037,31 L31.4431488,31.0180373 C31.3516454,31.073234 31.2562511,31.1215142 31.1577708,31.1623354 C31.0862586,31.19841 31.0150148,31.2344845 30.9526261,31.2616082 L26.9647135,33.1553859 C26.7719123,33.3238242 26.5627424,33.471784 26.3401556,33.5972312 L26.2956114,33.6152685 C26.1975337,33.6693803 26.1083112,33.7234921 26.0100993,33.7685174 C25.8183714,33.8604668 25.6218135,33.941838 25.4212305,34.0119528 C25.2160857,34.0660646 25.0108067,34.1291272 24.7876833,34.1652017 C24.7169761,34.1809335 24.6454639,34.1930035 24.5735491,34.2012763 C24.115227,34.2633896 23.6516722,34.2754596 23.1908009,34.2373508 C23.0441539,34.2277219 22.8983119,34.209549 22.7536775,34.183239 C22.7383822,34.1839171 22.7230869,34.1807979 22.7091333,34.1742882 C22.6287659,34.1562509 22.5485327,34.1473001 22.4593101,34.1292628 C22.2541653,34.0931883 22.0400312,34.0390765 21.8258971,33.9849647 C21.7633742,33.9669274 21.7098407,33.9488901 21.6384627,33.921902 C21.5660113,33.9050853 21.4944991,33.8839288 21.4243285,33.8588394 C21.1656502,33.7777395 20.9158271,33.6784667 20.6481594,33.5702431 C20.4965482,33.5071805 20.3358134,33.4350314 20.1842022,33.3537959 C19.8897007,33.2185841 19.5953333,33.0651995 19.300966,32.8939133 L18.8548533,32.6324407 C17.0973703,33.6875531 16,35.8969152 16,39.0349933 C16.121289,42.5008614 17.116154,45.8780349 18.8905423,48.8463185 C20.5617544,51.8872936 22.972105,54.4477722 25.8937745,56.2859463 L28.4631157,57.782904 L34.3155783,68 L39.4631157,65.4029044 L39.4631157,62.2646908 C40.0066353,62.1637906 40.5289562,61.9684998 41.0065987,61.6874982 L45.7348572,59.3068498 L45.8507794,59.2437872 C47.7867075,58.2879475 49,56.0153872 49,52.6969365 C48.8801869,49.229441 47.8818335,45.8513181 46.101005,42.88534 Z" id="Shape" fill="#7FACFA"></path>
                        <path d="M43.9952499,55.4259453 C44.0452819,56.9482796 43.6993735,58.4575957 42.9908344,59.8076054 C42.5598312,60.6108472 41.918451,61.2829666 41.1347965,61.7531012 C40.6547053,62.0311825 40.1297067,62.2243095 39.5834007,62.3242953 C37.7884531,62.5723138 35.9624883,62.2005545 34.4094742,61.2712904 L34.4094742,68 L28.5270086,57.8890857 L25.9444956,56.4076852 C23.0077131,54.5884803 20.5851406,52.0547458 18.9053608,49.0453742 C17.1220109,46.1079387 16.1219108,42.7658626 16,39.3360137 C16,36.2304141 17.102996,34.0440129 18.8694888,33 L19.3178886,33.2587552 C19.6138999,33.4282614 19.9097763,33.5800519 20.2056527,33.7138584 C20.3580412,33.7941155 20.5194652,33.8655148 20.6719885,33.9280562 C20.9410284,34.0351551 21.1921323,34.133262 21.4521367,34.2136533 C21.5226669,34.2386162 21.5944109,34.2594186 21.6673686,34.2760605 C21.7391125,34.3027682 21.7929205,34.3207522 21.8557639,34.3384678 C22.0709958,34.3920172 22.2862277,34.4455667 22.4924242,34.4812663 C22.5821041,34.4991161 22.6627487,34.5079739 22.743528,34.5258238 C22.7575532,34.5322658 22.7729269,34.5353526 22.7883006,34.5346816 C22.9336765,34.5607181 23.0802662,34.578568 23.2276649,34.588231 C23.690899,34.626078 24.1568302,34.6139992 24.617502,34.5525314 C24.6897854,34.5443446 24.7616642,34.5324 24.8327339,34.5168317 C25.0568663,34.4811321 25.2631976,34.4187249 25.469529,34.3651754 C25.6711403,34.2956551 25.8687059,34.2152638 26.0614167,34.12427 C26.1599972,34.0797126 26.2496771,34.0261631 26.3483925,33.9726137 L26.3931651,33.9547638 L34.0510241,38.3542738 C36.9851095,40.1738814 39.4047151,42.70775 41.0813931,45.7165848 C42.8709465,48.6516046 43.8742831,51.9946201 43.9952499,55.4259453 Z" id="Shape" fill="url(#linearGradient-1)"></path>
                        <path d="M24.1033819,7.16966871 L16.045361,2.3926164 C13.3057171,0.772831087 10.8339447,0.617169842 9.04030599,1.66055437 C8.88207927,1.75042775 8.73002595,1.85144928 8.58521965,1.96251792 L4.33752349,4.07653801 L3.89129462,4.29619791 C3.70475083,4.4053397 3.52585667,4.52769412 3.35581999,4.66229774 C1.88346605,5.8245959 1,7.93861599 1,10.8122244 C1,17.0993697 5.22984701,24.7318631 10.5305091,28.090485 L10.5305091,35 L15.6795204,31.9891729 L16.3933524,31.5681581 L16.7146372,31.7512081 L18.5172676,32.8310649 L18.9634965,33.0964185 C19.2580746,33.2702471 19.5525186,33.4259083 19.8469625,33.563127 C19.9986132,33.6454306 20.1592556,33.7186506 20.3110405,33.7827869 C20.5787778,33.8926168 20.828666,33.9932255 21.0874116,34.0756667 C21.1576004,34.1012662 21.228997,34.1225991 21.3016015,34.1396654 C21.3729981,34.1671917 21.4265456,34.1854967 21.4890847,34.203664 C21.7032746,34.258579 21.9174644,34.313494 22.1226626,34.350104 C22.2119084,34.368409 22.2921625,34.3774927 22.3725508,34.3957976 C22.386508,34.402404 22.4018073,34.4055695 22.4171066,34.4048813 C22.5616444,34.4321324 22.7076586,34.4504374 22.8543437,34.4597963 C23.3153351,34.4986084 23.7790105,34.4862215 24.2374519,34.4231863 C24.3093853,34.4147908 24.3809162,34.4025416 24.4516418,34.3865763 C24.6746891,34.3499663 24.8800215,34.2859677 25.0853539,34.2310527 C25.2859891,34.1597596 25.4825982,34.0773183 25.674376,33.9840041 C25.7724792,33.9383105 25.861725,33.8833955 25.9599624,33.8284805 L26.0045182,33.8101755 C26.2270287,33.6828664 26.4363872,33.5327104 26.6292386,33.3617721 L30.6181891,31.4398856 C30.6805941,31.4124969 30.7519907,31.3758869 30.8233873,31.3391393 C30.9220274,31.2977122 31.0174465,31.2487154 31.1088396,31.1926994 L31.1444037,31.1743944 C32.9113358,30.1128425 34,27.8706875 34,24.6768105 C33.9998658,18.2340039 29.5736781,10.409377 24.1033819,7.16966871 Z" id="Shape" fill="#A4C2F7"></path>
                        <path d="M28.9954973,27.4002399 C29.0439105,28.9394043 28.7012422,30.4656425 28.0001276,31.8335013 C27.687667,32.4256551 27.2643551,32.9510011 26.7536567,33.3805574 C26.5598691,33.5495499 26.3496291,33.6979965 26.1259036,33.8238564 L26.0811315,33.841953 C25.982552,33.8962428 25.892873,33.9505326 25.7941586,33.9957061 C25.6014499,34.087958 25.4038863,34.1695969 25.2022771,34.2399424 C24.9960828,34.2942322 24.7897536,34.3575023 24.5654886,34.3936955 C24.4944197,34.409479 24.4225416,34.4215888 24.350259,34.4298887 C23.889592,34.4922064 23.4236657,34.5043161 22.9604364,34.466082 C22.8130392,34.4569656 22.6663162,34.4387329 22.5210767,34.4117921 C22.5057031,34.4124724 22.4903296,34.409343 22.4763046,34.4026758 C22.3955261,34.3845792 22.3148824,34.3755989 22.2252033,34.3575023 C22.019009,34.3213091 21.8037794,34.2670192 21.5885497,34.2127294 C21.525707,34.1946328 21.4718996,34.1765362 21.4001564,34.1494593 C21.3273343,34.1325873 21.2554562,34.1113612 21.1849267,34.0861892 C20.924925,34.0048225 20.6738237,33.9052231 20.4047867,33.7966434 C20.2523998,33.7333733 20.0908427,33.6609869 19.9384558,33.5794841 C19.6424476,33.4438276 19.3465742,33.2899383 19.0507009,33.1180886 L18.6023058,32.8557557 L16.7909245,31.7881918 L16.46808,31.6072257 L15.7507827,32.0234477 L10.5767753,35 L10.5767753,28.1691418 C5.2502461,24.8487539 1,17.3031476 1,11.0875741 C1,8.24667839 1.88775486,6.15672396 3.3672564,5.00765722 C3.53811853,4.8745859 3.71788114,4.75362434 3.90533052,4.645725 L4.35372562,4.42856568 C5.23851365,4.05016963 6.20799105,3.91886715 7.16034178,4.04853685 C8.50215568,4.21072602 9.793129,4.66450194 10.9443918,5.3785697 L19.0505661,10.1013769 C24.5479574,13.2953606 28.9954973,21.0398936 28.9954973,27.4002399 Z" id="Shape" fill="#E3E7F2"></path>
                        <g id="Group" transform="translate(0.000000, 3.000000)" fill="#FFFFFF">
                            <path d="M13.3755204,24.3471789 L13.3755204,30.6333089 L10.6676471,32.2047724 L10.6676471,25.2661463 C5.3059276,21.893374 1.02760181,14.2287236 1.02760181,7.91508943 C1.02760181,5.02937398 1.92122172,2.90644715 3.41049774,1.73925203 C3.58248869,1.6040813 3.76343891,1.48134959 3.9521267,1.37160976 L4.40348416,1.15102439 C4.98461538,0.899756098 5.60511312,0.756569106 6.23579186,0.728235772 C6.19886878,0.761682927 6.15963801,0.792365854 6.11850679,0.820146341 C4.62895928,1.98747967 3.73547511,4.1104065 3.73547511,6.99612195 C3.73533937,13.3097561 8.0138009,20.9744065 13.3755204,24.3471789 Z" id="Shape"></path>
                            <path d="M3.89144796,2.70092683 C2.61529412,3.88263415 1.88809955,5.55789431 1.88904977,7.31428455 C1.80746606,9.19630894 2.04923077,11.0784715 2.60348416,12.8759106 C3.61669683,16.2026585 5.3478733,19.256439 7.67036199,21.813626 C8.24579186,22.4431789 8.86357466,23.0312683 9.51923077,23.5736098 C9.84095023,23.846439 10.1767873,24.1013008 10.5253846,24.3373659 L11.4424887,24.968439 C11.5069683,24.99 11.4995023,25.0503984 11.4970588,25.1081707 L11.4970588,30.8543089 L14.011086,29.3952114 L15.1658824,28.7250244 L15.8527602,28.3255935 L16.429819,27.991122 C16.5260633,27.8866341 16.6223077,27.999 16.718552,28.0444715 L17.0072851,28.2114309 L19.5177828,29.6907073 C20.8696833,30.5618537 22.4428507,31.0097967 24.0424887,30.9789756 C25.5395023,30.8661951 26.8555656,29.9274634 27.470905,28.5333252 C28.1231674,27.0229512 28.3706335,25.3635854 28.1884615,23.7242602 C28.0514932,22.0096098 27.6739819,20.3237073 27.0674661,18.7179675 C25.8716742,15.4550732 23.9680995,12.5090976 21.4985973,10.0993821 L20.5451131,9.25504878 C20.2076471,9.00322764 19.879819,8.73468293 19.5361086,8.49447154 C18.8590045,8.04058537 18.0885068,7.58752846 17.3143439,7.13723577 L12.7100905,4.42926016 L10.4146154,3.08086992 C9.71131222,2.66692683 8.96022624,2.34337398 8.17873303,2.1176748 C7.43429864,1.90303252 6.65755656,1.82895122 5.88705882,1.8991626 C5.5240724,1.94034959 5.16800905,2.02977236 4.82782805,2.16535772 C4.71366516,2.20557724 4.43660633,2.35125203 4.31497738,2.4079187 L3.90624434,2.68945528 L2.77819005,1.2544065 L3.4118552,0.816552846 C3.71918552,0.656780488 3.80470588,0.614211382 4.06927602,0.495626016 C4.52470588,0.303235772 5.00199095,0.169723577 5.49,0.0982682927 C5.96633484,0.0283333333 6.44877828,0.0113333333 6.92864253,0.0474065041 C7.39031674,0.080300813 7.84873303,0.149130081 8.3000905,0.253341463 C9.18325792,0.468813008 10.0365611,0.795406504 10.8403167,1.22552033 C11.6499095,1.66406504 12.3052941,2.07676423 13.0453846,2.50369919 L17.3660633,5.04485366 L19.5264706,6.31543089 L20.6428507,7.03399187 L21.6957014,7.83755285 C24.3568778,10.1126504 26.4942081,12.9556585 27.9563348,16.1652033 C29.5502715,19.3638293 30.229276,22.9540081 29.9158371,26.5264959 C29.728371,28.4617317 28.8287783,30.2530894 27.3977376,31.5410813 C25.8251131,32.7407561 23.7993665,33.1406016 21.9002715,32.6261789 C20.2047964,32.1514228 18.5953846,31.4024553 17.1333937,30.4076098 L16.5280995,30.0495041 L15.8676923,30.4333171 L13.6999548,31.6913171 L10.6733484,33.4477073 L10.131448,33.7621382 L9.86049774,33.9194228 C9.76954751,33.9727724 9.6541629,34.0693821 9.69176471,33.8977236 L9.69176471,25.9809756 L9.69597285,25.9844309 L9.48298643,25.8383415 C9.30393665,25.7088374 9.11063348,25.5959187 8.94352941,25.4523171 C8.60334842,25.1725772 8.24782805,24.9085935 7.92176471,24.614065 C7.2681448,24.0302602 6.64778281,23.409 6.0638009,22.753187 C4.90914027,21.4430813 3.8959276,20.0105203 3.04140271,18.4803821 C2.18063348,16.9532846 1.48180995,15.3371789 0.956877828,13.6595691 L0.859140271,13.3575772 L0.827918552,13.2496341 L0.771312217,13.0316748 L0.658235294,12.5957561 C0.491945701,12.0192764 0.397466063,11.4209593 0.281674208,10.8291382 C0.0860633484,9.62296748 0.0213122172,8.39869106 0.0886425339,7.17814634 C0.0969230769,6.97594309 0.126108597,6.77263415 0.144570136,6.56987805 L0.145384615,6.56269106 C0.228325792,5.81593496 0.394751131,5.08120325 0.641809955,4.37300813 C1.05,3.14168293 1.79647059,2.05534146 2.79257919,1.24279675 L3.89144796,2.70092683 Z" id="Shape"></path>
                        </g>
                        <g id="Group" fill="#428DFF">
                            <path d="M1.16449864,8.39672727 C1.62466125,8.49027273 2.08387534,8.23240909 2.24647696,7.78936364 C2.5197832,6.79513636 3.09186992,5.91013636 3.88428184,5.25572727 L3.33631436,4.53709091 L3.89878049,5.24427273 L4.30677507,4.96636364 C4.42818428,4.91045455 4.70474255,4.76672727 4.81869919,4.72704545 C5.15813008,4.59327273 5.51368564,4.50504545 5.87601626,4.46440909 C6.64525745,4.39513636 7.42059621,4.46809091 8.16355014,4.67986364 C8.94376694,4.90254545 9.69336043,5.22177273 10.3955285,5.63018182 L12.6868564,6.96068182 L17.2827913,9.63245455 C18.0555556,10.0768636 18.8246612,10.5237273 19.500542,10.9715455 C19.8436314,11.2085455 20.1708672,11.4735 20.5077236,11.7219545 L21.4594851,12.5551364 C23.9245257,14.9326364 25.8246612,17.8392273 27.0182927,21.0585 C27.6237127,22.6427727 28.000542,24.3061364 28.1372629,25.9978636 C28.3192412,27.6154091 28.0720867,29.2524545 27.4210027,30.7426364 C26.8907859,31.9210909 25.8420054,32.7811364 24.5880759,33.0658636 C24.5650407,33.0707727 24.5425474,33.0758182 24.5178862,33.0807273 C24.4028455,33.1041818 24.2834688,33.1176818 24.1642276,33.1317273 C24.0598916,33.1450909 23.9514905,33.1536818 23.8405149,33.1595455 C23.7514905,33.1639091 23.6620596,33.1665 23.5720867,33.1660909 C23.4719512,33.1658182 23.3677507,33.1610455 23.2623306,33.1549091 C22.9421409,33.1358182 22.6237127,33.0925909 22.3098916,33.0256364 L22.2762873,33.0178636 C21.5506775,32.8491818 20.847561,32.5937727 20.1821138,32.2572273 C19.9960705,32.1640909 19.8094851,32.0676818 19.6211382,31.9607727 C19.5777778,31.9363636 19.5331978,31.914 19.4902439,31.8891818 L19.3101626,31.7845909 L16.9760163,30.4250455 L16.6878049,30.2603182 C16.5917344,30.2155909 16.4955285,30.1047273 16.3995935,30.2078182 L15.8235772,30.5378182 L15.1379404,30.9319091 L13.9852304,31.5931364 L11.4757453,33.0327273 L11.4757453,27.3634091 C11.4783198,27.3064091 11.4856369,27.2468182 11.4212737,27.2255455 L10.5058266,26.6029091 C10.1578591,26.3701364 9.82249322,26.1186818 9.50149051,25.8495 C8.84701897,25.3144091 8.2303523,24.7343182 7.65596206,24.1131818 C5.33766938,21.5901818 3.60948509,18.5772273 2.59823848,15.2949545 C2.51382114,15.0186818 2.44945799,14.7376364 2.37357724,14.4594545 C2.2398374,13.9922727 1.77317073,13.7055 1.29918699,13.7993182 C1.0596206,13.8482727 0.851219512,13.9954091 0.723712737,14.2052727 C0.596205962,14.4151364 0.561246612,14.6689091 0.627100271,14.9057727 C0.709620596,15.2104091 0.781571816,15.519 0.873577236,15.8202273 C1.96422764,19.3688182 3.83211382,22.6258636 6.3395664,25.3515 C6.97073171,26.0338636 7.64837398,26.6710909 8.36747967,27.2588182 C8.72655827,27.5589545 9.10108401,27.8398636 9.48943089,28.1004545 C9.62533875,28.1929091 9.66436314,28.2192273 9.67384824,28.2253636 L9.67384824,36.0762273 C9.67601626,36.1003636 9.66897019,36.1401818 9.67872629,36.1513636 L9.75081301,36.1100455 L9.89485095,36.0274091 L10.4712737,35.6967273 L11.0230352,35.3802273 L16.1735772,32.7890455 L16.1852304,32.7797727 C16.195393,32.7744545 16.2066396,32.7725455 16.2166667,32.7668182 L16.8143631,32.4238636 L17.051897,32.5625455 C15.5085366,34.2879545 14.7162602,36.5635909 14.8520325,38.8809545 C14.9701897,42.5275909 16.0201897,46.0819091 17.900813,49.2012273 C19.6631436,52.3963636 22.2090786,55.0842273 25.296206,57.0084545 L27.6850949,58.3951364 L33.4715447,68.4466364 L33.4719512,68.4473182 L33.4789973,68.4594545 C33.4907859,68.4800455 33.5079946,68.4953182 33.5214092,68.5148182 C33.5495935,68.5591364 33.5815718,68.6008636 33.6169377,68.6394545 C33.6730352,68.6851364 33.7291328,68.7309545 33.7852304,68.7765 L33.7979675,68.7820909 C33.8482385,68.8105909 33.9012195,68.8340455 33.9559621,68.8521818 C33.9779133,68.8600909 33.998374,68.8727727 34.0207317,68.8789091 C34.1749322,68.9221364 34.3379404,68.9229545 34.4925474,68.8809545 C34.5306233,68.8666364 34.5674797,68.8497273 34.603252,68.8302273 C34.6219512,68.8223182 34.6430894,68.8255909 34.6615176,68.8164545 L39.8571816,66.2016818 C40.1623306,66.048 40.3551491,65.7339545 40.3551491,65.3905909 L40.3551491,62.9325 C41.5869919,62.5227273 42.6452575,61.7065909 43.3590786,60.6163636 C43.4364499,60.6188182 43.5163957,60.6293182 43.5930894,60.6293182 C45.0619241,60.6580909 46.4875339,60.1288636 47.5860434,59.1470455 C49.154878,57.7311818 49.9845528,55.4723182 49.9845528,52.6157727 C49.8659892,48.9694091 48.8163957,45.4150909 46.9367209,42.2955 C45.1730352,39.1013182 42.6273713,36.4138636 39.5413279,34.4882727 L32.9846883,30.6804545 C34.5258808,28.9545 35.3154472,26.6791364 35.1771003,24.3628636 C35.1771003,17.7102273 30.4917344,9.57804545 24.7329268,6.23577273 L16.5934959,1.50272727 C13.6441734,-0.2085 10.8153117,-0.471409091 8.5998645,0.7815 C8.44417344,0.877636364 8.28929539,0.973636364 8.14051491,1.08218182 L3.92940379,3.1365 L3.92384824,3.14059091 C3.77398374,3.20931818 3.65840108,3.27136364 3.46544715,3.36122727 C3.19796748,3.52936364 3.01205962,3.66259091 2.78794038,3.81790909 L2.78726287,3.81695455 L2.78157182,3.82227273 L2.77276423,3.82840909 L2.77371274,3.82963636 C1.69376694,4.70986364 0.909214092,5.90331818 0.526693767,7.24786364 C0.442411924,7.48540909 0.464227642,7.74790909 0.586449864,7.968 C0.708672087,8.18822727 0.919376694,8.3445 1.16449864,8.39672727 Z M9.67411924,28.2245455 C9.6699187,28.2215455 9.66598916,28.2186818 9.67411924,28.2245455 Z M38.553523,64.8294545 L35.1598916,66.5375455 L35.1598916,62.583 C35.5050136,62.7175909 35.8569106,62.8335 36.2142276,62.9304545 C36.3151762,62.9584091 36.4149051,62.9805 36.5151762,63.0046364 C36.7787263,63.0681818 37.0390244,63.1185 37.2963415,63.1557273 C37.3878049,63.1689545 37.4794038,63.1846364 37.5700542,63.1945909 C37.896477,63.2334545 38.2250678,63.2494091 38.5536585,63.2425909 L38.553523,64.8294545 Z M39.2811653,61.3460455 C37.6825203,61.5553636 36.0608401,61.2088636 34.6846883,60.3640909 C34.4054201,60.2134091 34.0678862,60.2214545 33.7960705,60.3853636 C33.5241192,60.5492727 33.3577236,60.8447727 33.3578591,61.1637273 L33.3578591,64.6311818 L29.1238482,57.2764091 C29.0448509,57.1389545 28.9314363,57.0246818 28.7947154,56.9451818 L26.19729,55.4372727 C23.3826558,53.6727273 21.0634146,51.2127273 19.4600271,48.2914091 C17.7383469,45.4485 16.7720867,42.2076818 16.654065,38.8805455 C16.654065,36.426 17.3685637,34.5435 18.6769648,33.5101364 C18.7547425,33.5545909 18.8250678,33.5863636 18.9014905,33.6285 C19.0349593,33.7007727 19.1685637,33.7722273 19.304878,33.8409545 C19.3937669,33.8860909 19.4901084,33.9430909 19.5760163,33.9838636 C19.7563686,34.0746818 19.94729,34.1556818 20.1074526,34.2181364 C20.1886179,34.2525 20.2563686,34.2735 20.3345528,34.3045909 C20.4401084,34.3465909 20.5460705,34.3872273 20.653252,34.4260909 C20.7397019,34.4577273 20.8373984,34.5001364 20.9196477,34.5275455 C21.004607,34.5580909 21.0910569,34.5838636 21.1788618,34.6045909 L21.2062331,34.6130455 C21.2680217,34.6341818 21.3283198,34.6527273 21.4,34.6735909 C21.6310298,34.7401364 21.8654472,34.7944091 22.102168,34.8365455 L22.3555556,34.8803182 L22.3555556,34.8799091 C22.3775068,34.8848182 22.398645,34.8891818 22.4207317,34.8927273 L22.4207317,34.8931364 C22.5922764,34.9232727 22.7653117,34.9442727 22.9390244,34.956 C23.048103,34.9658182 23.150542,34.9617273 23.2575881,34.9666364 C23.3341463,34.9703182 23.4109756,34.9730455 23.4883469,34.9744091 C23.6554201,34.9768636 23.8185637,34.9748182 23.9787263,34.9652727 C24.0379404,34.9625455 24.095393,34.9660909 24.1550136,34.962 C24.2184282,34.9551818 24.2807588,34.9408636 24.3439024,34.9326818 C24.4096206,34.9247727 24.4808943,34.9249091 24.5449864,34.9148182 C24.6195122,34.9074545 24.6936314,34.8954545 24.7666667,34.8789545 C24.8109756,34.8721364 24.854878,34.8552273 24.898374,34.8467727 C24.9272358,34.8407727 24.9552846,34.8321818 24.9840108,34.8259091 C25.1712737,34.7856818 25.354336,34.7457273 25.5551491,34.6864091 C25.7628726,34.6179545 25.9665312,34.5372273 26.1647696,34.4446364 L33.4441734,38.6715 C36.2574526,40.4385 38.5765583,42.8982273 40.1822493,45.8181818 C41.9036585,48.6612273 42.8696477,51.9019091 42.9872629,55.2290455 C43.0371274,56.6235 42.7266938,58.0071818 42.0863144,59.2446818 C41.5230352,60.3428182 40.4880759,61.1180455 39.2811653,61.3460455 Z M45.3779133,43.2043636 C47.0993225,46.0474091 48.0653117,49.2880909 48.1829268,52.6152273 C48.1829268,54.9095455 47.5441734,56.7495 46.3827913,57.7970455 C45.7888889,58.3283182 45.0495935,58.6669091 44.2613821,58.7683636 C44.3528455,58.497 44.4310298,58.2148636 44.4987805,57.9242727 C44.5073171,57.8873182 44.5124661,57.8475 44.5207317,57.8102727 C44.5941734,57.4778182 44.6495935,57.1311818 44.6922764,56.7748636 C44.704607,56.6725909 44.7162602,56.5701818 44.7258808,56.466 C44.7635501,56.0657727 44.7892954,55.6568182 44.7892954,55.2290455 C44.6707317,51.5826818 43.6211382,48.0283636 41.7413279,44.9087727 C39.9776423,41.7145909 37.4319783,39.0271364 34.345935,37.1015455 L28.0020325,33.4175455 L31.1704607,31.9131818 C31.2409214,31.8865909 31.3112466,31.8546818 31.3605691,31.8304091 L38.6398374,36.0576818 C41.453523,37.8241364 43.7726287,40.284 45.3779133,43.2043636 Z M15.6925474,3.07309091 L23.8322493,7.80559091 C29.0948509,10.86 33.3754743,18.2870455 33.3754743,24.3623182 C33.3754743,27.0695455 32.5149051,29.0719091 30.9547425,30.0068182 C30.9150407,30.0265909 30.8738482,30.0478636 30.8520325,30.06 C30.7902439,30.0964091 30.7261518,30.1288636 30.6601626,30.1569545 C30.6253388,30.1748182 30.5831978,30.1962273 30.5017615,30.2303182 L30.4990515,30.2308636 L30.4933604,30.2338636 L30.4718157,30.2432727 L29.3631436,30.7688182 C29.901626,29.1951818 30.0966125,27.5232273 29.9346883,25.8669545 C29.7857724,24.003 29.3722222,22.1702727 28.7066396,20.4244091 C27.4162602,16.9422273 25.3594851,13.7990455 22.6902439,11.2307727 L21.6398374,10.3114091 C21.2646341,10.032 20.900542,9.73922727 20.5146341,9.47290909 C19.7117886,8.94163636 18.946477,8.50213636 18.1834688,8.06209091 L13.5875339,5.39031818 L11.2815718,4.0515 C10.4493225,3.56890909 9.56084011,3.19227273 8.63631436,2.93031818 C8.60203252,2.92118182 8.56693767,2.91545455 8.53252033,2.90659091 L9.00284553,2.67722727 L9.00528455,2.67572727 L9.41382114,2.47895455 C9.52330623,2.42631818 9.62100271,2.35172727 9.70094851,2.25995455 C11.2915989,1.46890909 13.4066396,1.74559091 15.6925474,3.07309091 Z" id="Shape"></path>
                            <path d="M0.677371274,11.9663182 C0.790108401,12.0034091 0.909078591,12.0173182 1.02737127,12.0075 C1.26151762,11.9799545 1.47818428,11.8696364 1.63875339,11.6960455 C1.79336043,11.5261364 1.87777778,11.3033182 1.87479675,11.073 C1.85555556,10.8448636 1.75731707,10.6307727 1.59742547,10.4678182 L1.46449864,10.3614545 C1.41463415,10.3270909 1.36056911,10.2991364 1.30379404,10.2782727 C1.25298103,10.2514091 1.19878049,10.2319091 1.14254743,10.2204545 C1.08333333,10.2084545 1.02330623,10.2005455 0.96300813,10.1965909 C0.722764228,10.1907273 0.490379404,10.2825 0.318157182,10.4511818 C0.232926829,10.5405 0.168834688,10.6479545 0.130623306,10.7656364 C0.00799457995,11.1256364 0.0979674797,11.5245 0.363279133,11.7957273 C0.454607046,11.8746818 0.561788618,11.9329091 0.677371274,11.9663182 Z" id="Shape"></path>
                        </g>
                    </g>
                </g>
            </g>
        </g>
    </g>
</svg>