<?xml version="1.0" encoding="UTF-8"?>
<svg width="43px" height="68px" viewBox="0 0 43 68" version="1.1" xmlns="http://www.w3.org/2000/svg" xmlns:xlink="http://www.w3.org/1999/xlink">
    <!-- Generator: sketchtool 50.2 (55047) - http://www.bohemiancoding.com/sketch -->
    <title>17D5D3C0-FA4A-44A8-B072-618860115BDB</title>
    <desc>Created with sketchtool.</desc>
    <defs>
        <linearGradient x1="7.42797165%" y1="-7.45431498%" x2="107.598095%" y2="92.3557257%" id="linearGradient-1">
            <stop stop-color="#D4E1F4" offset="0%"></stop>
            <stop stop-color="#D4E1F4" offset="17.17%"></stop>
            <stop stop-color="#D4E1F4" offset="20%"></stop>
            <stop stop-color="#DAE4F4" offset="20.01%"></stop>
            <stop stop-color="#EBEBF4" offset="20.07%"></stop>
            <stop stop-color="#F6F1F4" offset="20.14%"></stop>
            <stop stop-color="#FDF4F4" offset="20.23%"></stop>
            <stop stop-color="#FFF5F4" offset="20.5%"></stop>
            <stop stop-color="#FFF5F4" offset="25.22%"></stop>
            <stop stop-color="#FFF5F4" offset="26%"></stop>
            <stop stop-color="#D4E1F4" offset="26%"></stop>
            <stop stop-color="#D4E1F4" offset="39.74%"></stop>
            <stop stop-color="#D4E1F4" offset="42%"></stop>
            <stop stop-color="#DAE4F4" offset="42.01%"></stop>
            <stop stop-color="#EBEBF4" offset="42.07%"></stop>
            <stop stop-color="#F6F1F4" offset="42.14%"></stop>
            <stop stop-color="#FDF4F4" offset="42.23%"></stop>
            <stop stop-color="#FFF5F4" offset="42.5%"></stop>
            <stop stop-color="#FFF5F4" offset="48.94%"></stop>
            <stop stop-color="#FFF5F4" offset="50%"></stop>
            <stop stop-color="#F9F2F4" offset="50%"></stop>
            <stop stop-color="#E8EBF4" offset="50.01%"></stop>
            <stop stop-color="#DDE5F4" offset="50.03%"></stop>
            <stop stop-color="#D6E2F4" offset="50.05%"></stop>
            <stop stop-color="#D4E1F4" offset="50.1%"></stop>
            <stop stop-color="#D4E1F4" offset="70.62%"></stop>
            <stop stop-color="#D4E1F4" offset="74%"></stop>
            <stop stop-color="#FFF5F4" offset="74.1%"></stop>
            <stop stop-color="#FFF5F4" offset="83.46%"></stop>
            <stop stop-color="#FFF5F4" offset="85%"></stop>
            <stop stop-color="#D4E1F4" offset="85.1%"></stop>
        </linearGradient>
    </defs>
    <g id="Page-1" stroke="none" stroke-width="1" fill="none" fill-rule="evenodd">
        <g id="sonata" transform="translate(-478.000000, -3651.000000)" fill-rule="nonzero">
            <g id="vyhody" transform="translate(-239.000000, 921.000000)">
                <g id="1" transform="translate(635.000000, 2730.000000)">
                    <g id="analytics" transform="translate(82.000000, 0.000000)">
                        <g id="Group" transform="translate(1.000000, 1.000000)">
                            <path d="M36.743,23.8619862 L32.3030189,26.4041576 L24.7221509,30.7303508 L20.6024528,23.6211419 L16.1624717,26.1544422 L13.6444528,27.5905043 L8.90201887,19.3931931 L8.89316981,19.3931931 L8.89316981,2.65047852 L4.47088679,0.0905648571 L0.0398867925,2.65047852 L0.0398867925,44.8593954 L2.57573585,46.3222032 L36.743,66.0977812 L41.174,63.5377351 L41.174,31.5152462 L36.743,23.8619862 Z M36.743,61.0044348 L4.47101887,42.3262275 L4.47101887,42.2906106 L7.00686792,43.7534184 L36.743,60.9688179 L36.7785283,60.9866926 L36.743,61.0044348 Z" id="Shape" fill="#E3E7F2"></path>
                            <g transform="translate(4.358491, 2.648095)" fill="#7FACFA" id="Shape">
                                <polygon points="36.8159057 55.7964259 36.8159057 60.8896399 32.3847736 63.449686 32.3847736 58.3563396 32.420434 58.3385973"></polygon>
                                <polygon points="4.5349434 0.0113868095 4.5349434 16.7450978 0.112792453 19.3051439 0.112792453 2.57130048"></polygon>
                            </g>
                            <polygon id="Shape" fill="#A4C2F7" points="8.89343396 2.65047852 8.89343396 2.65948205 4.47128302 5.21939571 0.0401509434 2.65047852 4.47128302 0.0905648571"></polygon>
                            <g transform="translate(36.716981, 31.512333)" fill="#7FACFA" id="Shape">
                                <polygon points="4.45741509 6.5590671 4.45741509 26.9321878 0.0619433962 29.4743592 0.0262830189 29.4564846 0.0262830189 9.11911317"></polygon>
                                <polygon points="4.45741509 0.00291290476 4.45741509 6.5590671 0.0262830189 9.11911317 0.0262830189 2.5719625"></polygon>
                            </g>
                            <g transform="translate(4.358491, 19.331095)" fill="#A4C2F7" id="Shape">
                                <polygon points="36.8159057 12.184151 32.3847736 14.7532006 27.9537736 7.09093702 27.9447925 7.07306238 32.3847736 4.53089095"></polygon>
                                <polygon points="27.9537736 7.09093702 15.9329245 13.9593016 11.8222075 6.85009276 11.8043774 6.823347 16.2443585 4.29004669 20.3639245 11.3992556 27.9447925 7.07306238"></polygon>
                                <polygon points="11.8222075 6.85009276 4.85522642 10.8283262 0.112792453 2.63101502 0.112792453 2.6221439 4.5349434 0.0620978333 4.54379245 0.0620978333 9.28635849 8.25940905 11.8043774 6.823347"></polygon>
                                <polygon points="32.3847736 14.7532006 32.3847736 21.3003513 27.9537736 13.6470912 15.9329245 20.5064523 11.8222075 13.3973758 4.85522642 17.3756093 0.112792453 9.16929457 0.112792453 2.6221439 4.85522642 10.8283262 11.8222075 6.85009276 15.9329245 13.9593016 27.9537736 7.09093702"></polygon>
                            </g>
                            <polygon id="Shape" stroke="#D4E1F4" fill="url(#linearGradient-1)" points="36.7432642 40.6314465 36.7432642 60.9688179 7.00713208 43.7534184 4.47128302 42.2906106 4.47128302 28.5003898 9.21371698 36.7067045 16.1806981 32.7284711 20.2914151 39.8375475 32.3122642 32.9781865"></polygon>
                            <g fill="#FFFFFF" id="Shape">
                                <path d="M37.17,60.2997767 L39.9282642,61.8964457 L39.9637925,61.878571 L37.17,60.2997767 Z M5.76113208,47.2143465 L3.22528302,45.7515386 L3.22528302,3.5424894 L6.82883019,1.45526074 L4.47088679,0.0905648571 L0.0398867925,2.65047852 L0.0398867925,44.8593954 L2.57573585,46.3222032 L36.743,66.0977812 L37.5616038,65.6249638 L5.76113208,47.2143465 Z"></path>
                                <polygon points="36.743 60.9688179 7.00686792 43.7534184 4.47101887 42.2906106 4.47101887 42.3262275 36.743 61.0044348 36.7785283 60.9866926"></polygon>
                            </g>
                        </g>
                        <g id="Group">
                            <polygon id="Shape" fill="#FFFFFF" points="1.85203374 3.45910156 1.85203374 15.0906875 1.85203374 42.8713437 0.0749202454 42.8713437 0.0749202454 15.0906875 0.0749202454 3.45910156"></polygon>
                            <g fill="#428DFF" id="Shape">
                                <path d="M0.0751840491,42.8712109 L0.0751840491,45.7904297 C0.0750521472,46.1101094 0.244546012,46.4056172 0.519429448,46.5655234 L37.1716534,67.8731641 L37.1758742,67.8748906 C37.1957914,67.8863125 37.2180828,67.891625 37.2387914,67.9013203 C37.2625337,67.9127422 37.2858804,67.9215078 37.310546,67.9308047 C37.3371902,67.9406328 37.3622515,67.9559062 37.3895552,67.9630781 C37.4650031,67.9729062 37.5404509,67.9828672 37.6158988,67.9928281 L37.6162945,67.9928281 L37.6166902,67.9928281 C37.7210245,67.9904375 37.8241718,67.9694531 37.9212515,67.9308047 C37.9465767,67.921375 37.9704509,67.9119453 37.9947209,67.9003906 C38.0162209,67.8900312 38.0391718,67.8853828 38.0601442,67.8731641 L42.4841319,65.3016484 C42.5131503,65.2790703 42.5405859,65.2547656 42.5664387,65.2286016 C42.6162975,65.1930078 42.6621994,65.1522344 42.7036166,65.1069453 C42.7724693,65.0182266 42.8286595,64.9200781 42.8707362,64.8156875 C42.8892025,64.7564531 42.9014693,64.6954922 42.9071411,64.6336016 C42.916638,64.5984062 42.9237607,64.5626797 42.9286411,64.5266875 L42.9286411,59.4185859 L42.9285092,59.4181875 L42.9286411,59.4177891 L42.9286411,32.4131562 C42.9286411,32.3895156 42.9212546,32.3669375 42.9195399,32.3434297 C42.9174294,32.3158047 42.9134724,32.2896406 42.9088558,32.2620156 C42.8934233,32.1588203 42.8600521,32.0592109 42.8104571,31.9677031 L42.8097975,31.9658437 L42.8095337,31.9654453 L42.8088742,31.9639844 L38.3850184,24.2835703 C38.1395491,23.8589687 37.6004663,23.7124766 37.1762699,23.9549922 L25.9359908,30.4025078 L22.2705706,24.0389297 C22.0251012,23.6144609 21.4860184,23.4679687 21.0618221,23.7103516 L14.8772086,27.2577734 L10.6953926,19.9970469 L10.6953926,3.45910156 C10.6953926,3.44263281 10.6898528,3.42735937 10.6890613,3.41102344 C10.6866871,3.3691875 10.6811472,3.32775 10.6727055,3.28671094 C10.6579325,3.21114062 10.6333988,3.13782812 10.5998957,3.06863281 C10.5909264,3.05017187 10.5913221,3.02985156 10.5809018,3.01178906 C10.5719325,2.99625 10.5565,2.98788281 10.5467393,2.97300781 C10.5012331,2.90354687 10.446362,2.84099219 10.3834448,2.7869375 C10.3569325,2.76369531 10.3289693,2.74204687 10.299819,2.722125 C10.2829356,2.71070312 10.2696135,2.69542969 10.2518067,2.6849375 L5.83639264,0.113554687 C5.79827301,0.09721875 5.75896626,0.0838046875 5.7188681,0.0734453125 C5.66755828,0.0500703125 5.61413804,0.031875 5.55939877,0.0189921875 C5.3891135,-0.019125 5.21091411,0.0006640625 5.05289571,0.075171875 C5.01530368,0.085 4.97837117,0.0976171875 4.94249387,0.112757812 L0.51956135,2.68414062 C0.504260736,2.69303906 0.49595092,2.70844531 0.481309816,2.71814062 C0.431714724,2.75360156 0.385944785,2.79424219 0.344791411,2.83926562 C0.302055215,2.87924219 0.263407975,2.92346875 0.229509202,2.97128125 C0.219352761,2.9866875 0.203392638,2.99558594 0.194027607,3.01178906 C0.180177914,3.04578906 0.16843865,3.08071875 0.15907362,3.1163125 C0.133616564,3.17222656 0.114095092,3.23079687 0.100773006,3.29082812 C0.0914079755,3.34647656 0.0874509202,3.40278906 0.0891656442,3.45923437 L0.0891656442,3.45936719 L0.0749202454,3.45936719 L0.0749202454,7.03826562 C0.0749202454,7.53246094 0.472736196,7.93302344 0.963542945,7.93302344 C1.45434969,7.93302344 1.85216564,7.53246094 1.85216564,7.03826562 L1.85216564,5.00889062 L4.49824847,6.547125 L4.49824847,43.2530469 C4.49811656,43.5727266 4.66747853,43.8682344 4.94249387,44.0281406 L36.727408,62.5056797 L36.727408,65.5481484 L1.85242945,45.2740547 L1.85242945,42.8712109 L1.85216564,42.8698828 L1.85216564,14.1960625 C1.85216564,13.7018672 1.45434969,13.3013047 0.963542945,13.3013047 C0.472736196,13.3013047 0.0749202454,13.7018672 0.0749202454,14.1960625 L0.0749202454,42.8712109 L0.0751840491,42.8712109 Z M32.8666411,28.5213516 L36.727408,35.2249297 L36.727408,38.2263594 L33.9618221,33.4239922 C33.716089,32.9999219 33.1774018,32.8534297 32.7530736,33.0954141 L21.5118712,39.5429297 L17.8472423,33.1784219 C17.6020368,32.7535547 17.0626902,32.6069297 16.6384939,32.8498437 L10.4529571,36.3981953 L6.27984663,29.1526094 L6.27984663,26.1515781 L9.35777607,31.4955547 C9.60284969,31.9205547 10.1423282,32.0671797 10.5665245,31.8241328 L16.7520613,28.2765781 L20.4166902,34.6401562 C20.6618957,35.0650234 21.2012423,35.2116484 21.6254387,34.9687344 L32.8666411,28.5213516 Z M6.27984663,32.72075 L9.35790798,38.0647266 C9.6029816,38.4897266 10.1424601,38.6363516 10.5666564,38.3933047 L16.7521933,34.8449531 L20.4168221,41.2094609 C20.6617638,41.6347266 21.2015061,41.7814844 21.6255706,41.5380391 L32.866773,35.0905234 L36.7275399,41.7941016 L36.7275399,60.40525 L6.27984663,42.7000156 L6.27984663,32.72075 Z M41.1513957,58.9010156 L38.5046534,60.4395156 L38.5046534,42.0703516 L41.1513957,40.5318516 L41.1513957,58.9010156 Z M38.5046534,62.5060781 L41.1513957,60.9675781 L41.1513957,64.0099141 L38.5046534,65.5484141 L38.5046534,62.5060781 Z M41.1513957,38.4652891 L38.5046534,40.0037891 L38.5046534,35.5014453 L41.1513957,33.9629453 L41.1513957,38.4652891 Z M10.4529571,29.8294219 L6.60261043,23.1441719 L9.48690798,21.4675469 L13.3471472,28.1696641 L10.4529571,29.8294219 Z M8.91788344,19.7316875 L6.27984663,21.2651406 L6.27984663,6.54486719 L8.91788344,5.01141406 L8.91788344,19.7316875 Z M37.2897055,25.9499687 L40.8245429,32.0864375 L37.9399816,33.7631953 L34.3961748,27.6098594 L37.2897055,25.9499687 Z M21.1751258,25.7051953 L24.4059294,31.3141328 L21.5118712,32.9740234 L18.281727,27.3648203 L21.1751258,25.7051953 Z M2.74118405,3.45910156 L5.3889816,1.91980469 L8.03229448,3.45963281 L5.38687117,4.99733594 L2.74118405,3.45910156 Z"></path>
                                <path d="M0.963542945,11.5119219 C1.32284356,11.5104609 1.64626687,11.29225 1.78397239,10.9580937 C1.92180982,10.6239375 1.84702147,10.2391797 1.59442945,9.98192187 L1.46120859,9.87447656 C1.4116135,9.84047656 1.35779755,9.81325 1.30107975,9.79359375 C1.25069325,9.76782812 1.1967454,9.74989844 1.14095092,9.74033594 C1.0822546,9.73024219 1.02303067,9.72426562 0.963542945,9.72240625 C0.728230061,9.72572656 0.502941718,9.81842969 0.332656442,9.98192187 C0.117128834,10.1911016 0.0224233129,10.4965703 0.0817791411,10.7919453 C0.141134969,11.0873203 0.346110429,11.3318281 0.625478528,11.4402031 C0.73245092,11.4861562 0.847337423,11.5104609 0.963542945,11.5119219 Z"></path>
                            </g>
                        </g>
                    </g>
                </g>
            </g>
        </g>
    </g>
</svg>