<?xml version="1.0" encoding="UTF-8"?>
<svg width="53px" height="62px" viewBox="0 0 53 62" version="1.1" xmlns="http://www.w3.org/2000/svg" xmlns:xlink="http://www.w3.org/1999/xlink">
    <!-- Generator: sketchtool 50.2 (55047) - http://www.bohemiancoding.com/sketch -->
    <title>A72CB5DC-1948-4B72-AB78-ED5653E5B223</title>
    <desc>Created with sketchtool.</desc>
    <defs>
        <linearGradient x1="23.9333273%" y1="8.87659591%" x2="84.773274%" y2="97.2366632%" id="linearGradient-1">
            <stop stop-color="#D4E1F4" offset="0%"></stop>
            <stop stop-color="#D4E1F4" offset="17.17%"></stop>
            <stop stop-color="#D4E1F4" offset="20%"></stop>
            <stop stop-color="#DAE4F4" offset="20.01%"></stop>
            <stop stop-color="#EBEBF4" offset="20.07%"></stop>
            <stop stop-color="#F6F1F4" offset="20.14%"></stop>
            <stop stop-color="#FDF4F4" offset="20.23%"></stop>
            <stop stop-color="#FFF5F4" offset="20.5%"></stop>
            <stop stop-color="#FFF5F4" offset="25.22%"></stop>
            <stop stop-color="#FFF5F4" offset="26%"></stop>
            <stop stop-color="#D4E1F4" offset="26%"></stop>
            <stop stop-color="#D4E1F4" offset="39.74%"></stop>
            <stop stop-color="#D4E1F4" offset="42%"></stop>
            <stop stop-color="#DAE4F4" offset="42.01%"></stop>
            <stop stop-color="#EBEBF4" offset="42.07%"></stop>
            <stop stop-color="#F6F1F4" offset="42.14%"></stop>
            <stop stop-color="#FDF4F4" offset="42.23%"></stop>
            <stop stop-color="#FFF5F4" offset="42.5%"></stop>
            <stop stop-color="#FFF5F4" offset="48.94%"></stop>
            <stop stop-color="#FFF5F4" offset="50%"></stop>
            <stop stop-color="#F9F2F4" offset="50%"></stop>
            <stop stop-color="#E8EBF4" offset="50.01%"></stop>
            <stop stop-color="#DDE5F4" offset="50.03%"></stop>
            <stop stop-color="#D6E2F4" offset="50.05%"></stop>
            <stop stop-color="#D4E1F4" offset="50.1%"></stop>
            <stop stop-color="#D4E1F4" offset="70.62%"></stop>
            <stop stop-color="#D4E1F4" offset="74%"></stop>
            <stop stop-color="#FFF5F4" offset="74.1%"></stop>
            <stop stop-color="#FFF5F4" offset="83.46%"></stop>
            <stop stop-color="#FFF5F4" offset="85%"></stop>
            <stop stop-color="#D4E1F4" offset="85.1%"></stop>
        </linearGradient>
    </defs>
    <g id="Page-1" stroke="none" stroke-width="1" fill="none" fill-rule="evenodd">
        <g id="sonata" transform="translate(-810.000000, -3657.000000)" fill-rule="nonzero">
            <g id="vyhody" transform="translate(-239.000000, 921.000000)">
                <g id="1" transform="translate(972.000000, 2736.000000)">
                    <g id="analytics-(1)" transform="translate(77.000000, 0.000000)">
                        <g id="Group" transform="translate(1.000000, 1.000000)">
                            <path d="M5.29188599,5.80176 C4.91647268,5.97264 4.55571734,6.17316 4.21289074,6.40164 C3.97775772,6.5538 3.75231591,6.72 3.53765558,6.89928 C2.41347506,7.85124 1.55410689,9.0726 1.04156295,10.44684 L1.03683848,10.46064 C0.897769596,10.80336 0.780627078,11.15448 0.686016627,11.51172 C0.415874109,12.49104 0.255605701,13.49688 0.208118765,14.51112 L0.0483349169,17.3868 L5.845981,20.98224 L7.26659145,21.86112 L8.44480048,22.59468 L4.0830285,24.7962 C3.46073159,36.07812 11.3568884,50.57856 21.5802684,56.91216 C26.7739097,60.12996 31.6242399,60.67056 35.2290071,58.93428 L35.6135059,58.74024 L45.2463278,53.87832 C48.5205036,52.11492 50.6738907,48.39 50.9631734,43.05048 C51.5897102,31.84932 43.6082708,17.346 33.4660546,10.93452 L28.8898646,13.24428 L29.4276057,3.5178 C23.6184513,-0.08136 18.2920404,-0.76896 14.6548076,1.0668 L5.2880095,5.79444 L5.29188599,5.80176 Z M8.11857007,5.019 C8.28428979,4.99896 8.45267458,4.98468 8.62214964,4.97196 C8.45109976,4.98444 8.28380523,5.00052 8.11857007,5.019 Z M5.97414727,5.51988 C6.00128266,5.50992 6.02962945,5.50176 6.05700713,5.49216 C6.02962945,5.50176 6.00128266,5.50968 5.97414727,5.51988 Z M6.69226603,5.292 C6.72739667,5.2824 6.76325416,5.27436 6.79850594,5.26512 C6.76325416,5.27448 6.72727553,5.2824 6.69226603,5.292 Z M7.43691449,5.12124 C7.48209976,5.11272 7.5277696,5.10516 7.57319715,5.09712 C7.5277696,5.10516 7.48209976,5.11272 7.43691449,5.12124 Z M19.1693373,20.11296 L19.3798789,16.2636 L19.4643135,14.68968 L19.4605582,14.68236 L19.8167102,8.36844 C19.429304,8.12724 19.0444418,7.90428 18.660791,7.68864 C19.0439572,7.90332 19.4289406,8.12796 19.8167102,8.36844 L19.1693373,20.11296 Z M8.88199525,4.95456 C9.19550594,4.93848 9.51398337,4.93272 9.8393658,4.9416 C9.51410451,4.9332 9.19490024,4.93752 8.88199525,4.95456 Z M9.93009976,4.94208 C10.2741378,4.95384 10.6252019,4.9812 10.9815962,5.02116 C10.625323,4.98168 10.2737743,4.95336 9.93009976,4.94208 Z M11.3399287,5.06988 C11.568399,5.1012 11.7984442,5.13648 12.0313967,5.1792 C11.7985653,5.13708 11.5680356,5.1006 11.3399287,5.06988 Z M12.5447886,5.28096 C12.7155962,5.31792 12.8880998,5.36016 13.061209,5.40324 C12.888342,5.36076 12.7153539,5.31756 12.5447886,5.28096 Z M15.4956413,6.18252 C15.5603302,6.20772 15.6242922,6.22992 15.6893444,6.25608 C15.6242922,6.22992 15.5604513,6.20784 15.4956413,6.18252 Z M16.4251496,6.57084 C16.5654299,6.63276 16.7055891,6.69492 16.8468385,6.76044 C16.7055891,6.69468 16.5654299,6.633 16.4251496,6.57084 Z M17.5235273,7.08744 C17.7045107,7.17804 17.8865843,7.27392 18.0689002,7.37052 C17.8865843,7.27368 17.7046318,7.17816 17.5235273,7.08744 Z" id="Shape" fill="#7FACFA"></path>
                            <path d="M23.251639,26.6334 L23.855038,15.7854 C33.9972542,22.19688 41.9788147,36.7002 41.3596675,47.89764 C41.059361,53.2518 38.8985843,56.98056 35.6132637,58.74036 L35.2287648,58.9344 C31.6241188,60.67068 26.7737886,60.13008 21.5800261,56.91228 C11.3568884,50.57856 3.46061045,36.07812 4.08290736,24.79632 L15.7305321,32.01612 L15.7342874,32.02344 L22.7175321,36.34884 L23.251639,26.6334 Z" id="Shape" stroke="#D4E1F4" fill="url(#linearGradient-1)"></path>
                            <path d="M5.29188599,5.80176 C6.11685036,5.41884 6.99560095,5.1618 7.89833729,5.03952 C8.18749881,5.00436 8.48780523,4.97256 8.79574347,4.95564 C10.3958836,4.88148 11.9972352,5.0706 13.534867,5.51544 C13.9067672,5.62284 14.2824228,5.73768 14.6655891,5.86716 C16.4722732,6.50592 18.2003373,7.34496 19.8167102,8.36844 L19.4605582,14.68236 L19.4643135,14.68968 L19.3798789,16.2636 L18.9762399,23.64384 L18.8919264,25.21788 L18.6829596,28.93932 L15.3758337,26.89092 L13.9553444,26.01204 L8.44467933,22.5948 L7.26647031,21.86112 L5.84585986,20.98224 L0.0483349169,17.3868 L0.208118765,14.51112 C0.255726841,13.497 0.415995249,12.49116 0.686016627,11.51172 C0.780748219,11.1534 0.898375297,10.80144 1.03792874,10.45788 L1.04531829,10.45416 L1.04156295,10.44684 C1.55410689,9.0726 2.41347506,7.85124 3.53765558,6.89928 C3.75231591,6.71988 3.97775772,6.55368 4.21289074,6.40164 C4.5555962,6.17328 4.91647268,5.97264 5.29188599,5.80176 Z" id="Shape" fill="#A4C2F7"></path>
                            <polygon id="Shape" fill="#7FACFA" points="19.8167102 8.36856 29.4271211 3.51804 28.8892589 13.24416 23.8547957 15.78504 23.251639 26.63328 18.6830808 28.93968"></polygon>
                            <g transform="translate(0.605701, 4.920000)" fill="#FAEDBD" id="Shape">
                                <polygon points="0.435741093 5.52708 6.66101188 16.94112 5.24015914 16.06236 0.0806793349 6.59172"></polygon>
                                <path d="M3.60719002,1.48176 L14.770133,21.97116 L13.3496437,21.09228 L2.93195487,1.97928 C3.1466152,1.8 3.37205701,1.6338 3.60719002,1.48176 Z"></path>
                                <path d="M7.29251544,0.11964 C7.58167696,0.08448 7.88198337,0.05268 8.18992162,0.03576 L18.3705392,18.72396 L18.2862257,20.298 L7.29251544,0.11964 Z"></path>
                                <path d="M12.9291663,0.59556 C13.3010665,0.70296 13.6767221,0.8178 14.0598884,0.94728 L18.8548575,9.76248 L18.8586128,9.7698 L18.7741781,11.34372 L12.9291663,0.59556 Z"></path>
                            </g>
                            <g transform="translate(3.997625, 0.000000)" fill="#7FACFA" id="Shape">
                                <polygon points="0.0854038005 24.79656 4.44753919 22.59432 14.6854561 28.93968 19.2540143 26.63328 18.7202708 36.34884 11.736905 32.0238 11.7327862 32.01576"></polygon>
                                <path d="M1.2903848,5.79444 L10.6570618,1.0668 C14.2942945,-0.76896 19.6207055,-0.08136 25.4296176,3.51768 L15.8189644,8.36844 C10.1442755,4.8492 4.92131829,4.10928 1.29414014,5.80176 L1.2903848,5.79444 Z"></path>
                            </g>
                            <path d="M24.4999881,57.72348 C14.2743064,51.38544 6.3743943,36.89052 7.00286936,25.60488 L11.360886,23.406 L10.1857055,22.67028 L8.90440618,21.87804 L8.76570071,21.78912 L2.96308789,18.19176 L3.12626366,15.32184 C3.17605226,14.30772 3.33753207,13.302 3.60779572,12.32256 C3.69743943,11.96484 3.81191686,11.61372 3.95050119,11.2716 L3.95861758,11.26356 L3.95861758,11.25552 C4.4738266,9.88188 5.33319477,8.66064 6.45592162,7.70652 C6.67130879,7.52856 6.89759857,7.36392 7.13333729,7.21344 C7.47640618,6.9846 7.83655582,6.78192 8.21051544,6.60708 L8.20239905,6.59904 L17.5712565,1.87788 C19.7723729,0.86796 22.2501734,0.612 24.6143444,1.15032 C20.7216271,-0.26448 17.2531425,-0.24024 14.6579572,1.06932 L5.28909976,5.79048 L5.28909976,5.79852 C4.91598812,5.97504 4.55595962,6.17772 4.21192162,6.40488 C3.97751544,6.5574 3.75146793,6.72204 3.53450594,6.89796 C2.4117791,7.8504 1.55471259,9.07236 1.04543943,10.44696 L1.03732304,10.455 L1.03732304,10.46304 C0.899707838,10.80624 0.782565321,11.15712 0.686501188,11.514 C0.41623753,12.49344 0.25475772,13.49916 0.204969121,14.51328 L0.0497885986,17.3832 L5.8441639,20.98068 L7.26416865,21.86184 L8.44746556,22.59756 L4.0812114,24.79656 C3.46097387,36.08208 11.360886,50.57712 21.5784513,56.91516 C23.6696936,58.26468 26.0020048,59.20596 28.4500048,59.688 C27.0710665,59.16396 25.7478527,58.506 24.4999881,57.72348 Z" id="Shape" fill="#FFFFFF"></path>
                        </g>
                        <g id="Group">
                            <path d="M5.80953103,25.7938164 C5.70730805,29.2384492 6.19746667,32.6752109 7.25892874,35.9558828 L7.50309425,36.7680586 L7.79782299,37.5648555 C7.9980046,38.0946406 8.18198161,38.6306016 8.39483448,39.1556641 C8.85757931,40.1911367 9.27707126,41.2461055 9.81754943,42.2463398 C10.833931,44.2774453 12.0112621,46.224875 13.3384552,48.0704648 C14.6623586,49.9131484 16.1342966,51.6461211 17.739892,53.2523086 C19.3588897,54.8266484 21.1296989,56.2387227 23.026977,57.4684297 L22.1561931,58.8515625 C20.1564483,57.5581602 18.2903609,56.07125 16.5854667,54.4122656 C14.9132253,52.7405664 13.3803678,50.9365117 12.0021241,49.0180234 C10.6255862,47.1037734 9.40427126,45.0838086 8.34975402,42.9771406 C7.79051264,41.9397305 7.35250115,40.8441953 6.87330805,39.7685195 C6.65204828,39.22275 6.45966437,38.6648711 6.2518069,38.1135313 L5.94586897,37.2841602 L5.69037241,36.436625 C4.57115862,32.9717695 4.05711954,29.3419844 4.17055172,25.7046914 L5.80953103,25.7938164 Z" id="Shape" fill="#FFFFFF"></path>
                            <g fill="#428DFF" id="Shape">
                                <path d="M6.27934253,32.0935977 C6.24327816,31.886043 6.12801839,31.7004062 5.95756552,31.5754375 L5.82134943,31.5003594 C5.77127356,31.4774727 5.7183954,31.4613672 5.66417701,31.4521641 C5.61446667,31.436543 5.5628069,31.4284297 5.51065977,31.4279453 C5.45571034,31.4274609 5.40088276,31.4307305 5.34629885,31.4376328 C5.1310092,31.4748086 4.93825977,31.5927539 4.80813563,31.76725 C4.74685057,31.8585547 4.7035977,31.9605156 4.68044828,32.0678047 C4.59881609,32.3965742 4.73454483,32.7408437 5.01916092,32.9269648 C5.11212414,32.984 5.21532184,33.0228711 5.32290575,33.0413984 C5.42866207,33.0623477 5.53746437,33.0622266 5.64309885,33.0412773 C5.85314943,32.9938086 6.03773563,32.8700508 6.1607931,32.6943437 C6.26862069,32.5134297 6.31041149,32.3013945 6.27934253,32.0935977 Z"></path>
                                <path d="M31.2894943,4.17652344 C31.279869,4.08885156 31.2557448,4.00335937 31.2182184,3.92331641 C31.2160253,3.91883594 31.2166345,3.91387109 31.2144414,3.90939062 L31.2122483,3.90672656 C31.1660713,3.82062891 31.1046644,3.74361328 31.0309517,3.6793125 C31.0153563,3.66514453 30.9997609,3.65255078 30.983069,3.63971484 C30.9621126,3.62033984 30.9400598,3.60217578 30.917154,3.58510156 C25.1523379,0.0019375 19.5573655,-0.941503906 15.501708,0.963421875 C15.4847724,0.970566406 15.4664966,0.969355469 15.4499264,0.977710937 L15.2890989,1.05896484 C15.2764276,1.06526172 15.2629034,1.07010547 15.250354,1.07640234 L15.2425563,1.08245703 L5.82695402,5.84531641 C5.80916552,5.85427734 5.7988092,5.870625 5.7819954,5.88067578 C5.69768276,5.92087891 5.60995862,5.95466406 5.52722989,5.99741016 C2.37866437,7.62103516 0.510993103,10.9335547 0.268898851,15.325625 L0.109411494,18.2263047 C0.0928413793,18.5228633 0.240022989,18.8048906 0.493326437,18.9624336 L7.71606897,23.4541641 L4.61733563,25.0235391 C4.60113103,25.0316523 4.59162759,25.0467891 4.57627586,25.05575 C4.48514023,25.1170234 4.40326437,25.1911328 4.33345057,25.2756563 C4.3219977,25.2912773 4.30481839,25.2999961 4.29434023,25.316707 C4.28093793,25.3461328 4.26936322,25.3764063 4.25985977,25.4074063 C4.23512644,25.4565703 4.21563218,25.5080352 4.20162069,25.5611953 C4.19065517,25.608543 4.1841977,25.6567383 4.18224828,25.7051758 L4.17018621,25.7045703 C4.12766437,26.8268672 4.15008276,27.9506172 4.2371977,29.0703711 C4.24950345,29.2879766 4.35038621,29.4911719 4.51681839,29.6330938 C4.68325057,29.7750156 4.90061149,29.8433125 5.11894713,29.8223633 C5.56463448,29.7765898 5.8964023,29.3923594 5.87422759,28.9477031 C5.8137954,28.3719023 5.78833103,27.7929531 5.79795632,27.2140039 L16.2650299,33.7236406 C16.2837931,33.73575 16.3018253,33.7483438 16.3214414,33.7587578 L23.299531,38.0985156 C23.545646,38.2515781 23.8548736,38.2639297 24.1125632,38.1310898 C24.3702529,37.9981289 24.5381471,37.7398359 24.5539862,37.4516328 L25.6184943,18.136332 C34.9888943,24.7956406 42.2342989,38.582043 41.6604368,49.0192344 C41.3871517,53.9614336 39.4696483,57.6110781 36.2594322,59.3143828 L36.055108,59.4180391 C32.5566207,61.1530703 27.8182989,60.4490313 23.0263678,57.4689141 L23.0267333,57.4684297 C21.1294552,56.2388438 19.358646,54.8266484 17.7396483,53.2523086 C16.1340529,51.646 14.6621149,49.9130273 13.3382115,48.0704648 C12.0110184,46.2249961 10.8336874,44.2774453 9.81730575,42.2463398 C9.27682759,41.2462266 8.85733563,40.1911367 8.3945908,39.1556641 C8.18173793,38.6307227 7.99776092,38.0946406 7.79757931,37.5648555 L7.50285057,36.7680586 L7.25868506,35.9558828 L7.02865287,35.1910547 C6.89,34.7671055 6.44455632,34.5224961 6.0095908,34.6316016 C5.79771264,34.6860938 5.61763448,34.8247461 5.51175632,35.0152266 C5.40587816,35.2055859 5.38345977,35.4309414 5.44986207,35.6382539 L5.6900069,36.436625 L5.94550345,37.2841602 L6.25144138,38.1135313 C6.45929885,38.6648711 6.65168276,39.22275 6.87294253,39.7685195 C7.35213563,40.8443164 7.79014713,41.9398516 8.34938851,42.9772617 C9.40390575,45.0839297 10.6252207,47.1038945 12.0017586,49.0181445 C13.3800023,50.9366328 14.9128598,52.7406875 16.5851011,54.4123867 C18.289508,56.0706445 20.1548644,57.5573125 22.1538782,58.8503516 L22.1557057,58.8519258 C25.0354943,60.7730781 28.3974,61.8578359 31.8633563,61.9845 C33.4283793,61.9937031 34.9775632,61.6717148 36.4077103,61.0398477 C36.4754529,61.0253164 36.5411241,61.0021875 36.6030184,60.9711875 L36.8432851,60.8494883 C36.8706989,60.8356836 36.9003057,60.8266016 36.9275977,60.8126758 C36.9612253,60.7953594 36.9926598,60.7746523 37.0260437,60.7568516 L46.7612299,55.8270039 L46.7622046,55.8261563 L46.7764598,55.8190117 C50.4684276,53.8233867 52.6656736,49.7022031 52.961377,44.2171406 C53.6074897,32.6375508 45.5428391,17.7701445 34.984508,11.0740234 C34.9596529,11.0630039 34.9343103,11.0533164 34.9084805,11.0448398 C34.8506069,11.014082 34.7890782,10.9904688 34.7254782,10.9747266 C34.6244736,10.9561992 34.5212759,10.9525664 34.4191747,10.9639492 C34.3700736,10.9729102 34.3219471,10.9863516 34.2754046,11.0041523 C34.2399494,11.011418 34.2051034,11.0212266 34.1709885,11.0333359 L30.8374713,12.7213828 L31.3005816,4.32147266 C31.3015563,4.30282422 31.2963172,4.28502344 31.2961954,4.26649609 C31.2959517,4.23634375 31.2935149,4.2063125 31.2894943,4.17652344 Z M28.7807057,4.22665625 L20.8480069,8.24333594 C17.9680966,6.39411328 14.685508,5.25510547 11.2732828,4.92137109 L16.0474253,2.50639844 C19.3116161,0.882894531 23.8930092,1.51560937 28.7807057,4.22665625 Z M16.2498,26.8370391 L5.95208276,7.87448437 C5.91687126,7.81987109 5.87495862,7.76985937 5.82744138,7.72541797 C5.97949655,7.63253906 6.12265747,7.52864062 6.28311954,7.4458125 C7.08201839,7.04257031 7.94134943,6.77047266 8.82785057,6.64017578 C8.83406437,6.65313281 8.83321149,6.66742187 8.84015632,6.68013672 L19.0919402,25.5565937 L18.9296506,28.5032891 L16.2498,26.8370391 Z M19.7609586,13.4082266 L16.8206161,7.99424609 C17.9058368,8.46360547 18.9580391,9.00525781 19.9700345,9.61532812 L19.7609586,13.4082266 Z M14.4972667,7.15022266 L19.5892874,16.5257852 L19.2636115,22.4389141 L10.616692,6.51762891 C11.9330414,6.55335156 13.2384253,6.76611328 14.4972667,7.15022266 Z M4.53753103,8.70409766 L13.4338552,25.0856602 L8.0927954,21.7640586 L2.87235632,12.1493359 C2.80449195,12.0311484 2.70738621,11.9320937 2.59017701,11.8616172 C2.98725057,10.6747773 3.65346667,9.59437891 4.53753103,8.70409766 Z M1.90726897,15.4149922 C1.93309885,14.9459961 1.97976322,14.4945586 2.04409425,14.0586211 L5.27709425,20.0129219 L1.77422069,17.8344453 L1.90726897,15.4149922 Z M22.9910345,35.9825234 L6.65472874,25.8223945 L9.33847816,24.4631172 L19.2381471,30.6194023 L19.2383908,30.6195234 C19.482069,30.7745234 19.7903218,30.7889336 20.0477678,30.657668 L23.377508,28.9715586 L22.9910345,35.9825234 Z M51.3226414,44.1277734 C51.0581287,49.0273477 49.1656023,52.6704531 46.0338506,54.364918 L46.0172805,54.3733945 L46.0161839,54.3736367 L41.1057034,56.8602969 C42.4662805,54.4946094 43.2196115,51.8322422 43.2989287,49.1084805 C43.9131195,37.9567148 36.4604667,23.7661016 26.4897655,16.7536836 L34.486308,12.7044297 C44.2445218,19.1348711 51.9207494,33.4006836 51.3226414,44.1277734 Z M24.5056161,15.9278242 L24.5028138,15.928793 C24.417892,15.9743242 24.3418644,16.0345078 24.2782644,16.1065586 C24.2619379,16.1242383 24.2469517,16.1413125 24.232331,16.1603242 C24.174092,16.2324961 24.128646,16.3139922 24.0979425,16.4013008 L24.0964805,16.4089297 C24.0754023,16.4740781 24.062731,16.5416484 24.0588322,16.6099453 L23.4813149,27.0883086 L20.570092,28.5623828 L21.6097448,9.68822656 L29.5837471,5.65059766 L29.1473195,13.5772734 L24.5056161,15.9278242 Z"></path>
                            </g>
                        </g>
                    </g>
                </g>
            </g>
        </g>
    </g>
</svg>