<?xml version="1.0" encoding="UTF-8"?>
<svg width="60px" height="66px" viewBox="0 0 60 66" version="1.1" xmlns="http://www.w3.org/2000/svg" xmlns:xlink="http://www.w3.org/1999/xlink">
    <!-- Generator: Sketch 51.2 (57519) - http://www.bohemiancoding.com/sketch -->
    <title>analytics</title>
    <desc>Created with Sketch.</desc>
    <defs>
        <linearGradient x1="9.58220279%" y1="13.393811%" x2="90.3623946%" y2="86.5938608%" id="linearGradient-1">
            <stop stop-color="#D4E1F4" offset="0%"></stop>
            <stop stop-color="#D4E1F4" offset="17.17%"></stop>
            <stop stop-color="#D4E1F4" offset="20%"></stop>
            <stop stop-color="#DAE4F4" offset="20.01%"></stop>
            <stop stop-color="#EBEBF4" offset="20.07%"></stop>
            <stop stop-color="#F6F1F4" offset="20.14%"></stop>
            <stop stop-color="#FDF4F4" offset="20.23%"></stop>
            <stop stop-color="#FFF5F4" offset="20.5%"></stop>
            <stop stop-color="#FFF5F4" offset="25.22%"></stop>
            <stop stop-color="#FFF5F4" offset="26%"></stop>
            <stop stop-color="#D4E1F4" offset="26%"></stop>
            <stop stop-color="#D4E1F4" offset="39.74%"></stop>
            <stop stop-color="#D4E1F4" offset="42%"></stop>
            <stop stop-color="#DAE4F4" offset="42.01%"></stop>
            <stop stop-color="#EBEBF4" offset="42.07%"></stop>
            <stop stop-color="#F6F1F4" offset="42.14%"></stop>
            <stop stop-color="#FDF4F4" offset="42.23%"></stop>
            <stop stop-color="#FFF5F4" offset="42.5%"></stop>
            <stop stop-color="#FFF5F4" offset="48.94%"></stop>
            <stop stop-color="#FFF5F4" offset="50%"></stop>
            <stop stop-color="#F9F2F4" offset="50%"></stop>
            <stop stop-color="#E8EBF4" offset="50.01%"></stop>
            <stop stop-color="#DDE5F4" offset="50.03%"></stop>
            <stop stop-color="#D6E2F4" offset="50.05%"></stop>
            <stop stop-color="#D4E1F4" offset="50.1%"></stop>
            <stop stop-color="#D4E1F4" offset="70.62%"></stop>
            <stop stop-color="#D4E1F4" offset="74%"></stop>
            <stop stop-color="#FFF5F4" offset="74.1%"></stop>
            <stop stop-color="#FFF5F4" offset="83.46%"></stop>
            <stop stop-color="#FFF5F4" offset="85%"></stop>
            <stop stop-color="#D4E1F4" offset="85.1%"></stop>
        </linearGradient>
    </defs>
    <g id="Page-1" stroke="none" stroke-width="1" fill="none" fill-rule="evenodd">
        <g id="sonata" transform="translate(-1020.000000, -3663.000000)" fill-rule="nonzero">
            <g id="features" transform="translate(-150.000000, 3137.000000)">
                <g id="1" transform="translate(1098.000000, 526.000000)">
                    <g id="analytics" transform="translate(72.000000, 0.000000)">
                        <g id="Group" transform="translate(1.016949, 1.016949)">
                            <g transform="translate(11.896973, 14.375593)" fill="#3A3E48" id="Shape">
                                <path d="M17.081142,20.7941695 C16.854973,20.7942956 16.6380431,20.7048895 16.4780668,20.5454969 C16.3180904,20.3861044 16.2283569,20.1699661 16.2284835,19.9446224 L16.2284835,5.14520136 C16.2284835,4.67597695 16.6101991,4.29565424 17.081142,4.29565424 C17.552085,4.29565424 17.9338006,4.67597695 17.9338006,5.14520136 L17.9338006,19.9447485 C17.9339272,20.1700922 17.8441936,20.3862305 17.6842173,20.5456231 C17.524241,20.7048895 17.3073111,20.7942956 17.081142,20.7941695 Z"></path>
                                <path d="M0.881008808,12.9642631 C0.530680927,12.9641369 0.216170528,12.7506468 0.0878350973,12.4259349 C-0.0405003331,12.1012231 0.043537858,11.7313668 0.299829028,11.4934129 L12.3482984,0.26784 C12.5707971,0.0604027119 12.8874591,-0.0131145763 13.1790615,0.0751566102 C13.4706639,0.163427797 13.6927829,0.399994576 13.7618866,0.695703051 C13.8309903,0.991411525 13.7364473,1.30149559 13.5139486,1.50893288 L1.46206202,12.7361451 C1.30461698,12.8830536 1.09679964,12.9646414 0.881008808,12.9642631 Z"></path>
                                <path d="M33.2878566,31.6073898 C32.959171,31.6077681 32.6594686,31.4200027 32.5175909,31.1245464 L19.6431678,4.32301831 C19.4402864,3.89969492 19.6200067,3.3927661 20.0447539,3.19024678 C20.4695011,2.98785356 20.9784131,3.16653966 21.1819273,3.58961085 L34.0564769,30.391139 C34.1829139,30.6543132 34.1650685,30.9636407 34.0090156,31.2105478 C33.8530893,31.4574549 33.5807246,31.6073898 33.2878566,31.6073898 Z"></path>
                            </g>
                            <path d="M51.4979454,45.0363376 C50.3674798,44.2783403 48.9749012,44.0142834 47.643959,44.3057044 C47.4973984,44.3468136 47.3546347,44.4009112 47.217693,44.4671146 L47.0897373,44.5350834 C47.0726512,44.5435322 47.0470853,44.5605559 47.0301258,44.5691308 L42.6901354,46.7438807 L42.6986152,46.7609044 C41.1808652,47.2196624 40.2003775,48.7573464 40.2003775,51.118979 C40.4503405,55.5764217 42.8196099,59.6474888 46.5781674,62.0778468 C48.3175302,63.0802292 49.8864118,63.1906942 51.0375072,62.5620773 L51.1824225,62.4856597 L55.5649382,60.2938861 L55.573418,60.2938861 C56.9802983,59.7587105 57.8754822,58.2550739 57.8754822,56.0037803 C57.6217223,51.5452027 55.2537185,47.4731268 51.4979454,45.0363376 Z" id="Shape" fill="#A4C2F7"></path>
                            <path d="M52.9644371,58.4588542 C52.9644371,60.4128 52.290866,61.8059715 51.1824225,62.4856597 L51.0375072,62.5620773 C49.8864118,63.1906942 48.3175302,63.0802292 46.5781674,62.0778468 C42.8196099,59.6474888 40.4503405,55.5762956 40.2003775,51.118979 C40.2003775,48.7573464 41.1808652,47.2196624 42.6986152,46.7609044 C44.0375309,46.4605302 45.4416268,46.7249654 46.5781674,47.4915376 C50.3377374,49.9259308 52.7091585,53.9986373 52.9644371,58.4588542 Z" id="Shape" fill="#E3E7F2"></path>
                            <path d="M31.435346,33.4996719 C29.7555947,32.5397858 28.229365,32.403722 27.0953556,32.9729451 L26.7969188,33.1173315 L22.5593183,35.2411363 L22.5593183,35.2495851 C21.0842203,35.7422644 20.1377781,37.2629247 20.1377781,39.5821871 C20.3896396,44.0411431 22.7621997,48.1125885 26.5240478,50.5410549 C28.3742802,51.6114061 30.0454252,51.6623512 31.2136067,50.8893478 L35.3659033,48.8080393 L35.3999489,48.7995905 C36.875047,48.3069112 37.8214892,46.7862508 37.8214892,44.4669885 C37.8214892,40.4403092 34.9567234,35.5386102 31.435346,33.4996719 Z" id="Shape" fill="#A4C2F7"></path>
                            <path d="M32.9018378,46.9221885 C32.9018378,48.8251892 32.2623122,50.1928881 31.2136067,50.8894739 C30.0455518,51.6626034 28.3742802,51.6115322 26.5240478,50.541181 C22.7621997,48.1127146 20.3896396,44.0412692 20.1377781,39.5823132 C20.1377781,37.2630508 21.0842203,35.7423905 22.5593183,35.2497112 C23.9215217,34.9141546 25.3625742,35.1703932 26.5240478,35.9548719 C30.2814662,38.3902739 32.6499763,42.4631064 32.9018378,46.9221885 Z" id="Shape" fill="#E3E7F2"></path>
                            <path d="M15.2436925,25.6755661 C14.9493058,25.2442983 14.6304922,24.8301803 14.2887706,24.4352298 C13.462817,23.4597071 12.4803042,22.6271837 11.3812264,21.971581 C9.57351935,20.9267024 7.92806676,20.8501586 6.75988528,21.5807919 L6.75140552,21.5807919 L2.53089113,23.7045966 L2.52241137,23.7045966 C1.0473133,24.1888271 0.0839116276,25.7179363 0.0839116276,28.0371986 C0.333368367,32.499181 2.70630819,36.5741573 6.47018133,39.0046414 C8.37154541,40.1004651 10.0768626,40.1345125 11.2449175,39.2935403 L11.2620036,39.2765166 L15.226733,37.2886495 L15.2352128,37.2886495 C15.7703234,37.1375797 16.2537962,36.8438888 16.6334868,36.4391024 C16.6846185,36.3795824 16.7443565,36.3201885 16.7954881,36.2522197 C17.4861454,35.2859024 17.8287529,34.1153003 17.7674961,32.9305749 C17.6538421,30.3187566 16.7766302,27.797101 15.2436925,25.6755661 Z" id="Shape" fill="#A4C2F7"></path>
                            <path d="M12.8477182,35.3856488 C12.8477182,37.2291295 12.2508445,38.5629071 11.2617504,39.2765166 L11.2446643,39.2935403 C10.0766094,40.1346386 8.37129228,40.1005912 6.46992821,39.0046414 C2.70605507,36.5741573 0.333115239,32.499181 0.0836585005,28.0371986 C0.0836585005,25.7179363 1.04706017,24.1888271 2.52215824,23.7045966 L2.530638,23.7045966 C3.88588039,23.3754712 5.31756717,23.6348624 6.46980164,24.4182061 C10.2274732,26.8536081 12.5959833,30.9265668 12.8477182,35.3856488 Z" id="Shape" fill="#E3E7F2"></path>
                            <path d="M31.435346,1.21763797 C29.1075894,-0.124588475 27.0101784,-0.235053559 25.5095145,0.690911186 L25.4839486,0.707934915 L21.331652,2.78924339 C19.4898993,3.4519078 18.3218444,5.38882983 18.3218444,8.31968542 C18.3218444,13.4932597 21.9881371,19.80528 26.5241744,22.4133153 C28.7581474,23.7045966 30.7873407,23.8405342 32.2710451,23.0250346 L32.2795248,23.0334834 L36.7558241,20.7821898 L37.1224787,20.6037559 C38.6827541,19.7967051 39.6462823,17.9532244 39.6462823,15.3026929 C39.6461557,10.1292447 35.9713833,3.81722441 31.435346,1.21763797 Z" id="Shape" stroke="#D4E1F4" fill="url(#linearGradient-1)"></path>
                            <path d="M39.6461557,15.302819 C39.6461557,17.9533505 38.6826275,19.7968312 37.1223522,20.603882 L36.7556976,20.7823159 L32.2793983,23.0336095 L32.2709185,23.0251607 C33.7886685,22.2010861 34.7265043,20.3746292 34.7265043,17.7581451 C34.7265043,12.5759959 31.0516054,6.26410169 26.5241744,3.65594034 C24.5545926,2.52606915 22.7470121,2.27966644 21.331652,2.78936949 L25.4839486,0.708061017 L25.5095145,0.691037288 C27.0101784,-0.234927458 29.1075894,-0.124462373 31.435346,1.21776407 C35.9713833,3.81722441 39.6461557,10.1292447 39.6461557,15.302819 Z" id="Shape" fill="#7FACFA"></path>
                        </g>
                        <g id="Group" transform="translate(1.016949, 1.016949)" fill="#FFFFFF">
                            <path d="M11.4601935,22.1402542 C10.906265,22.1589407 10.3668867,22.3213983 9.89528169,22.6112288 L9.88673025,22.6112288 L5.63054278,24.752161 L5.62199135,24.752161 C4.13442531,25.2402966 3.16288067,26.7817373 3.16288067,29.1197034 C3.41444589,33.6176695 5.80744253,37.7255085 9.60312907,40.1755932 C9.61257394,40.1846186 9.62457147,40.1905932 9.63746243,40.1927542 C8.53637,40.211822 7.45391203,39.9080085 6.52486928,39.3191949 C2.72918274,36.8691102 0.336186098,32.7612712 0.0846208742,28.2633051 C0.0846208742,25.925339 1.05616551,24.3838983 2.54373156,23.8957627 L2.55228299,23.8957627 L6.80847046,21.7548305 L6.81702189,21.7548305 C7.9950772,21.0184322 9.64601386,21.0954661 11.4601935,22.1402542 Z" id="Shape"></path>
                            <path d="M31.1937048,0.953389831 C30.3545159,0.909661017 29.521581,1.11864407 28.8033885,1.55288136 L28.7776065,1.57004237 L24.5902134,3.66813559 C22.7328937,4.33614407 21.554966,6.28868644 21.554966,9.24317797 C21.6898744,12.5009746 22.7482097,15.6541525 24.6074439,18.3378814 L23.2144541,19.6395763 C22.9822892,19.3911864 22.7673547,19.1342797 22.5524202,18.8688559 L16.5162588,24.4952542 C16.1000467,24.0939407 15.6514156,23.7273305 15.1749605,23.3991102 L21.5291841,17.4814831 C19.6736513,14.7959746 18.6156989,11.6438136 18.4767062,8.38677966 C18.4767062,5.43228814 19.6546339,3.47974576 21.5119536,2.81173729 L25.6993467,0.713644068 L25.7251287,0.696483051 C27.1265422,-0.168432203 29.0526563,-0.134110169 31.1937048,0.953389831 Z" id="Shape"></path>
                            <path d="M31.4344212,33.6242797 L31.4344212,33.7869915 C31.0751335,33.8297034 30.7260564,33.9339407 30.4026336,34.0952542 L30.1016743,34.2408051 L25.8282564,36.3817373 L25.8282564,36.3902542 C24.3406903,36.8869068 23.3862485,38.4198305 23.3862485,40.7577966 C23.6402388,45.2527119 26.0328525,49.3569915 29.8264969,51.8050424 C29.8350484,51.8050424 29.8350484,51.8135593 29.8437274,51.8135593 C28.748889,51.8358051 27.6717917,51.5347881 26.7482372,50.9486441 C22.9545927,48.5005932 20.561979,44.3963136 20.3079887,39.9013983 C20.2764633,38.9014831 20.5044164,37.910339 20.9700226,37.0239407 C21.3558581,36.3235169 21.9907061,35.7919068 22.7498689,35.5338559 L22.7498689,35.525339 L27.0232869,33.3844068 L27.3242462,33.2388559 C27.6512427,33.0786864 28.0030001,32.9744492 28.3647128,32.9305932 L28.3647128,23.3391102 C27.8031263,23.1429661 27.2618335,22.8934322 26.7482372,22.5940678 C25.9091759,22.1017373 25.1252522,21.521822 24.4094847,20.8642373 L25.6304248,19.7252542 C26.7837192,21.2166102 28.2068304,22.4800424 29.8264969,23.4504661 C29.9898676,23.544661 30.1532382,23.630339 30.3166088,23.7158898 C30.2391354,23.7172881 30.161662,23.7144915 30.0844438,23.7073729 L30.0844438,33.084661 C30.5517093,33.2183898 31.0040417,33.3991525 31.4344212,33.6242797 Z" id="Shape"></path>
                            <path d="M15.1748329,23.3991102 L14.1515968,24.3582203 C13.3780114,23.4907627 12.4762822,22.7457203 11.477424,22.1487712 C11.4688726,22.1487712 11.4688726,22.1402542 11.4601935,22.1402542 C12.5547766,22.1201695 13.6312358,22.4209322 14.5556838,23.0051695 C14.7620668,23.1250424 14.9684499,23.2535593 15.1748329,23.3991102 Z" id="Shape"></path>
                        </g>
                        <g id="Group">
                            <path d="M20.1446186,9.2551016 C20.1875847,11.0040163 20.5508898,12.7303479 21.2166102,14.3487125 C21.8686017,15.9994291 22.7513136,17.549664 23.8386864,18.9533631 C24.9592373,20.4489166 26.3547458,21.7180057 27.9504661,22.6930082 C29.5094492,23.5889702 31.3834322,24.0694301 32.7854237,23.3546397 C34.2044492,22.6864109 34.8732203,20.8744415 34.8972458,19.0848013 C34.9268644,18.1651145 34.8430932,17.245174 34.647839,16.3457865 C34.4628814,15.4269878 34.1928814,14.5273466 33.8412712,13.6584082 C33.1472034,11.8990901 32.1907627,10.2544633 31.0042373,8.78035088 C30.422161,8.04449995 29.7737288,7.36333036 29.0669492,6.74559619 C28.3813983,6.12849638 27.6237712,5.59627317 26.8104661,5.16021806 C25.2446186,4.28341362 23.335678,3.93540688 22.0240678,4.78975518 C20.6857627,5.61340073 20.1463983,7.46102091 20.1446186,9.2551016 L18.431822,9.2551016 C18.4254661,8.16210923 18.6111864,7.0763485 18.9805932,6.04742591 C19.3787288,4.93730598 20.1286017,3.98691644 21.1165678,3.34038259 C22.1317373,2.72074537 23.3298305,2.46916047 24.5091102,2.62825652 C25.601822,2.76223213 26.6574153,3.110112 27.6153814,3.65172366 C28.5456356,4.14969174 29.4125847,4.75740311 30.1975424,5.46179007 C30.9788136,6.14486272 31.6958898,6.89758747 32.3401271,7.71082962 C33.6344492,9.31879076 34.6777119,11.1128714 35.4348305,13.0320468 C35.823178,13.9939816 36.1217797,14.989664 36.3265678,16.006407 C36.5486441,17.0376132 36.6436017,18.0921637 36.6090254,19.1464605 C36.5980932,20.2483338 36.3652119,21.336632 35.9243644,22.3469045 C35.4555508,23.4424343 34.6170763,24.3394112 33.5546186,24.8821647 C32.4912712,25.386857 31.2940678,25.5387214 30.138178,25.3156824 C29.0655508,25.1101517 28.0357627,24.723703 27.093178,24.1729567 C25.3038559,23.0870691 23.7388983,21.6699217 22.4827119,19.9977639 C21.296822,18.4668134 20.3341525,16.7758787 19.623178,14.9755813 C18.8780085,13.1579027 18.4742797,11.2189355 18.4319492,9.25535534 L20.1446186,9.2551016 Z" id="Shape" fill="#FFFFFF"></path>
                            <g fill="#428DFF" id="Shape">
                                <path d="M20.9914831,16.6927783 C21.1036017,16.6842779 21.2129237,16.6534483 21.3129661,16.6023194 C21.5096186,16.4947329 21.66,16.3190168 21.7356356,16.1081574 C21.8111441,15.9005967 21.800339,15.6714679 21.7056356,15.4717732 C21.6109322,15.2722054 21.440339,15.1185648 21.2316102,15.0451066 L21.0762712,15.0034929 C21.0200847,14.9929626 20.9628814,14.9897909 20.9059322,14.9939776 C20.8519068,14.9905521 20.7976271,14.9949926 20.7448729,15.0074259 C20.6890678,15.0204936 20.6342797,15.0373674 20.5807627,15.0577936 C20.3706356,15.1492675 20.2042373,15.3185132 20.1167797,15.5300069 C20.0783898,15.6383546 20.0637712,15.7536802 20.0740678,15.8681178 C20.0964407,16.2220874 20.3222034,16.5310179 20.652839,16.6606799 C20.7625424,16.6932858 20.8775847,16.7041966 20.9914831,16.6927783 Z"></path>
                                <path d="M53.0394915,45.462139 C51.7085593,44.5807672 50.0735593,44.2835088 48.5167373,44.6400159 C48.4886441,44.647755 48.4630932,44.6628526 48.435,44.671353 C48.4216525,44.6765547 48.4085593,44.6806145 48.3955932,44.6864506 C48.2384746,44.7328853 48.0851695,44.7916265 47.9372034,44.8620398 L47.7950847,44.9354981 C47.7870763,44.9387967 47.7808475,44.9451403 47.7729661,44.9486926 L46.8077542,45.4330855 L36.297839,23.5167807 L38.1825,22.5661374 L38.5713559,22.3758311 C40.4755932,21.3858579 41.5677966,19.1665061 41.5677966,16.2869184 C41.5677966,10.8147249 37.6764407,4.12228764 32.892839,1.36868272 C30.3872034,-0.0746000595 28.0077966,-0.268712459 26.1240254,0.832653385 C26.1142373,0.837347606 26.1033051,0.836966994 26.0936441,0.842041828 L21.9404237,2.92589553 C21.6521186,3.03500446 21.3760169,3.17380117 21.1165678,3.34012885 C20.1286017,3.9866627 19.3787288,4.93705224 18.9805932,6.04729904 C18.6111864,7.0763485 18.4254661,8.16198236 18.431822,9.25497472 C18.4497458,10.4677332 18.6158898,11.6737675 18.9264407,12.8464347 C18.9788136,13.0722648 19.1230932,13.2661235 19.3244492,13.3814491 C19.5258051,13.4967747 19.7663136,13.5234176 19.9881356,13.4547805 C20.4261864,13.3161106 20.6851271,12.8660997 20.5845763,12.4186262 C20.3105085,11.3856438 20.1627966,10.3233541 20.1444915,9.25497472 C20.1462712,7.46102091 20.6856356,5.61327386 22.0239407,4.78988205 C23.335678,3.93553375 25.2446186,4.28354049 26.810339,5.16034493 C27.6236441,5.59627317 28.3812712,6.12862325 29.066822,6.74572306 C29.7734746,7.36345723 30.4220339,8.04449995 31.0041102,8.78035088 C32.1905085,10.2544633 33.1470763,11.8989632 33.8411441,13.6584082 C34.1927542,14.5273466 34.4627542,15.4269878 34.6477119,16.3456596 C34.8429661,17.2450471 34.9267373,18.1648607 34.8971186,19.0846744 C34.8729661,20.8741877 34.2041949,22.6861572 32.7852966,23.3545128 C31.3833051,24.0693032 29.509322,23.5888433 27.950339,22.6928814 C26.3544915,21.7178789 24.9591102,20.4487898 23.8384322,18.9532362 C23.6654237,18.7430112 23.5070339,18.5211141 23.3534746,18.2954108 C23.0767373,17.9273585 22.5630508,17.8333472 22.1734322,18.0793498 C21.9221186,18.242252 21.7812712,18.5301219 21.8069492,18.8281415 L15.6078814,24.6120567 C14.779322,23.6865338 13.8166525,22.8900387 12.7517797,22.2489603 C10.7561441,21.1003985 8.77970339,20.9564 7.30550847,21.8353613 L7.29152542,21.8391674 L3.03838983,23.973262 C2.82088983,24.0511607 2.61063559,24.1478363 2.40991525,24.2622738 C0.933050847,25.1135772 0.119237288,26.8314085 0.119237288,29.1008742 C0.35529661,33.8974804 2.90275424,38.2834057 6.95605932,40.8714441 C7.95228814,41.4866409 9.09266949,41.8305878 10.2636864,41.8689028 C10.998178,41.8766419 11.7214831,41.6891268 12.3594915,41.3255149 C12.4363983,41.2811101 12.5038983,41.2247795 12.5771186,41.1758073 L16.5041949,39.2037268 L16.5113136,39.199667 C17.1552966,39.0017484 17.7364831,38.6397859 18.1976695,38.1495569 C18.2794068,38.0710239 18.3554237,37.9867816 18.4252119,37.8974646 C19.2422034,36.7742769 19.6536864,35.4078779 19.5926695,34.0211795 C19.4834746,31.2197443 18.5500424,28.5123203 16.9089407,26.2370185 C16.8424576,26.1397086 16.7641525,26.0388463 16.6925847,25.9397601 L22.7364407,20.3016196 C23.9425424,21.8437348 25.4183898,23.1551987 27.0926695,24.1724492 C27.7416102,24.5401209 28.427161,24.8394093 29.1382627,25.0654931 L29.1382627,32.9016711 C28.6449153,32.9458222 28.1638983,33.0799247 27.7191102,33.2972544 L27.4230508,33.4449321 L27.4155508,33.4507682 L23.1662288,35.5833403 L23.1638136,35.5852433 C22.9526695,35.6623808 22.7483898,35.7572802 22.5532627,35.8687997 C21.0763983,36.72023 20.2625847,38.4388225 20.2625847,40.7074001 C20.4986441,45.504387 23.0464831,49.8908197 27.1002966,52.4788582 C28.0965254,53.0940549 29.2369068,53.4380018 30.4079237,53.4763168 C31.1427966,53.4838022 31.8663559,53.2959064 32.5044915,52.9321677 C32.5344915,52.9149133 32.5597881,52.8918228 32.5892797,52.8738071 L36.8740678,50.7238537 C38.6632627,50.0420498 39.7319492,48.1587789 39.7319492,45.6278323 C39.4924576,40.8307186 36.9443644,36.4450471 32.891822,33.8547249 C32.2550847,33.4815978 31.5678814,33.2017207 30.8511864,33.0238478 L30.8511864,25.3912975 C31.7815678,25.4618376 32.7139831,25.2859946 33.5543644,24.8814035 L33.5600847,24.8778511 C33.6073729,24.865164 33.6535169,24.8484171 33.6978814,24.8276103 L34.7680932,24.2877748 L45.2763559,46.2010348 L43.3815254,47.1519318 C43.3658898,47.1597978 43.3567373,47.1743879 43.3418644,47.1830152 C43.1187712,47.2615482 42.9030508,47.3597463 42.6975,47.4765943 C41.2206356,48.3280246 40.406822,50.0466171 40.406822,52.3151948 C40.6425,57.1121816 43.1904661,61.4983606 47.2445339,64.0857647 C48.2407627,64.7009614 49.3811441,65.0449083 50.552161,65.0832233 C51.2866525,65.0909624 52.0100847,64.9034473 52.6479661,64.5398355 L52.6586441,64.532477 L57.087839,62.3095728 L57.0978814,62.3017068 C58.8639407,61.5916107 59.8793644,59.7566776 59.8793644,57.2339776 C59.6402542,52.4376251 57.092161,48.0520805 53.0394915,45.462139 Z M7.81283898,39.3907345 C4.2920339,37.1062979 2.07127119,33.2853286 1.83241525,29.1008742 C1.83241525,27.4683001 2.34177966,26.2754604 3.26669492,25.7429834 C3.30127119,25.7230647 3.34258475,25.7162137 3.37817797,25.698198 C3.42279661,25.6861453 3.46639831,25.6704133 3.50847458,25.651129 L3.56110169,25.6247398 C3.86211864,25.4990108 4.18487288,25.4329111 4.51118644,25.4299931 C5.37902542,25.4702111 6.22169492,25.7344831 6.9565678,26.1970542 C10.4781356,28.4808564 12.6994068,32.3020795 12.9378814,36.4869145 C12.9378814,38.1194886 12.4285169,39.3123283 11.5036017,39.8448052 C10.5676271,40.3840063 9.25627119,40.2230072 7.81283898,39.3907345 Z M17.0707627,36.8525562 C17.0389831,36.8902369 17.0049153,36.9258876 16.9686864,36.9593815 C16.7059322,37.2440797 16.3732627,37.4551928 16.0036017,37.5720408 C15.9550424,37.586631 15.9078814,37.6057885 15.8627542,37.6290058 C15.8427966,37.6372525 15.8197881,37.6339538 15.800339,37.6437229 L14.4352119,38.3292061 C14.5801271,37.7258083 14.6523305,37.1073129 14.6502966,36.4869145 C14.4151271,31.6898008 11.8670339,27.3034949 7.81271186,24.7163445 C7.40898305,24.4845515 6.98669492,24.286633 6.55004237,24.1248726 L8.06110169,23.3665656 C8.07432203,23.3599683 8.08182203,23.3476618 8.09440678,23.3404302 C8.10673729,23.3334523 8.12084746,23.3333254 8.13292373,23.3257132 C9.05949153,22.7389355 10.4302119,22.8858519 11.8929661,23.7280206 C12.8127966,24.2844762 13.6436441,24.9756685 14.3575424,25.778761 L13.1398729,26.9148895 C12.9161441,27.1230845 12.8205508,27.4345525 12.889322,27.7320646 C12.9580932,28.0295768 13.1805508,28.2678402 13.4730508,28.3572842 C13.7655508,28.4466012 14.0836017,28.3735236 14.3073305,28.1653286 L15.4322034,27.1159798 C15.4525424,27.1451601 15.4766949,27.1754822 15.4966525,27.2045356 C16.9342373,29.199326 17.762161,31.5669898 17.8801271,34.0213064 C17.9369492,35.0289147 17.6516949,36.0263733 17.0707627,36.8525562 Z M27.9569492,50.998656 C24.4356356,48.7142194 22.2144915,44.8928695 21.9756356,40.7079076 C21.9756356,39.0753335 22.485,37.8824938 23.4099153,37.3500169 C23.7898729,37.1372544 24.219661,37.0292873 24.6551695,37.0370265 C25.5230085,37.0772445 26.365678,37.3415165 27.1005508,37.8040876 C30.6218644,40.0885241 32.8430085,43.9098741 33.0818644,48.094836 C33.0818644,49.6691763 32.6042797,50.8277609 31.7416525,51.3863733 L31.6191102,51.4477788 C31.5976271,51.4585628 31.5847881,51.4782278 31.5645763,51.4905342 C30.6333051,51.9756884 29.3594492,51.8072039 27.9569492,50.998656 Z M32.035678,35.3359421 C35.5558475,37.6226623 37.7771186,41.4433779 38.0194068,45.6283398 C38.0194068,47.4647953 37.3634746,48.7422579 36.2215678,49.1497671 C36.2052966,49.1566181 36.1880085,49.1552225 36.1719915,49.1632154 L36.042839,49.2280464 L36.0313983,49.233375 L36.03,49.2345168 L34.5719492,49.966181 C34.721822,49.3537754 34.7965678,48.7253841 34.7944068,48.0949628 C34.5588559,43.2978491 32.0108898,38.9112895 27.956822,36.3235048 C27.5514407,36.0906968 27.1272458,35.892017 26.6886864,35.7298761 L28.4877966,34.8269363 L28.4899576,34.8252869 C28.6947458,34.7254396 28.9132627,34.6565487 29.1383898,34.620898 L29.1383898,35.4179007 C29.1383898,35.8899871 29.5217797,36.2726296 29.9947881,36.2726296 C30.4677966,36.2726296 30.8511864,35.8899871 30.8511864,35.4179007 L30.8511864,34.8023233 C31.263178,34.9397245 31.6599153,35.1184855 32.035678,35.3359421 Z M32.3401271,7.71057587 C31.6960169,6.8974606 30.9788136,6.14460898 30.1975424,5.46153633 C29.4125847,4.75714937 28.5456356,4.149438 27.6153814,3.65134305 C27.0399153,3.33847953 26.4330508,3.0866409 25.8049576,2.89988701 L26.8738983,2.36347705 C26.9049153,2.3476182 26.9350424,2.32998315 26.9642797,2.31095252 L26.9692373,2.30765388 C28.2584746,1.51788284 30.0569492,1.70882347 32.0365678,2.84926554 C36.3476695,5.33073248 39.8552542,11.3587472 39.8552542,16.2866647 C39.8552542,18.5077926 39.0992797,20.1746219 37.7996186,20.8498285 L37.3452966,21.0783229 C37.1411441,21.0997641 36.9518644,21.1949172 36.813178,21.3460204 L36.1881356,21.6605333 C36.4502542,20.8471642 36.5919915,20.0000476 36.6090254,19.145953 C36.6436017,18.0916563 36.5486441,17.0372326 36.3265678,16.0058995 C36.1217797,14.9891565 35.8233051,13.9934741 35.4348305,13.0315393 C34.677839,11.1126177 33.6344492,9.31853702 32.3401271,7.71057587 Z M48.1010593,62.6055625 C44.5797458,60.3213797 42.3586017,56.5004103 42.1197458,52.3157022 C42.1197458,50.6831282 42.6291102,49.4902884 43.5540254,48.9578115 C43.9338559,48.7450491 44.3637712,48.6369551 44.7992797,48.6448211 C45.6671186,48.6850392 46.5097881,48.9493111 47.244661,49.4118822 C50.7662288,51.6956844 52.9875,55.5169075 53.2259746,59.7017425 C53.2259746,61.3187115 52.725,62.501909 51.8168644,63.0419982 L51.7665254,63.0672455 C51.7615678,63.0696561 51.7588983,63.0744772 51.7540678,63.0770146 C50.8208898,63.5916027 49.5260593,63.4271781 48.1010593,62.6055625 Z M56.4039407,60.7460165 C56.3889407,60.7515988 56.3794068,60.7639052 56.3649153,60.7702488 C56.3497881,60.7767192 56.3335169,60.7753236 56.3186441,60.782809 L54.7118644,61.5892001 C54.8647881,60.9717197 54.9409322,60.3378729 54.9387712,59.7018694 C54.7036017,54.9047557 52.1555085,50.5184498 48.1011864,47.9312994 C47.6945339,47.6977302 47.2690678,47.498543 46.8289831,47.3361483 L48.7033475,46.3955278 L48.7140254,46.3871543 C48.8005932,46.344272 48.8911017,46.30989 48.9844068,46.2845158 C50.0959322,46.0718803 51.2464831,46.3084944 52.1832203,46.9422143 C55.7032627,49.2290614 57.9244068,53.049777 58.1669492,57.234612 C58.166822,59.0498801 57.5246186,60.3302607 56.4039407,60.7460165 Z"></path>
                            </g>
                        </g>
                    </g>
                </g>
            </g>
        </g>
    </g>
</svg>