<?xml version="1.0" encoding="UTF-8"?>
<svg width="4000px" height="4000px" viewBox="0 0 4000 4000" version="1.1" xmlns="http://www.w3.org/2000/svg" xmlns:xlink="http://www.w3.org/1999/xlink">
    <defs></defs>
    <g id="sonata-confirmed-copy" stroke="none" stroke-width="1" fill="none" fill-rule="evenodd" opacity="0.119904891">
        <g id="vlny" transform="translate(-914.000000, 0.000000)">
            <path d="M67.2376602,94.992879 C67.2376602,94.992879 324.7333,271.792482 720.805324,267.809847 C984.725972,265.163667 1225.8801,72.8478233 1577.67052,94.992879 C1815.22599,109.947808 2076.38295,320.212239 2341.66219,317.191851 C2612.60223,314.104641 2896.35928,103.22544 3308.95139,94.992879 C3721.5435,86.7603177 4077.09364,359.998498 4406.94846,366.560491 C4973.637,377.840169 5364.85488,144.682268 5374.23766,169.059203 L5444.47466,3607.83465 L744.740517,3991.20223 L67.2376602,94.992879 Z" id="Fill-1" fill="#B8CEFC" opacity="0.514209692" transform="translate(2755.856162, 2042.209989) rotate(2.000000) translate(-2755.856162, -2042.209989) "></path>
            <path d="M774,706.829966 C774,706.829966 1031.49564,988.688756 1427.56766,982.339529 C1691.48831,978.120916 1932.64244,671.525709 2284.43286,706.829966 C2521.98833,730.671525 2783.14529,1065.88086 3048.42453,1061.06568 C3319.36457,1056.14396 3603.12162,719.954541 4015.71373,706.829966 C4428.30583,693.70539 4783.85598,1129.30921 5113.7108,1139.77052 C5680.39934,1157.7529 6071.61722,786.046156 6081,824.908537 L6081,1643 L774,1643 L774,706.829966 Z" id="Fill-1" fill="#B8CEFC" opacity="0.514209692" transform="translate(3427.500000, 1173.500000) scale(1, -1) rotate(-2.000000) translate(-3427.500000, -1173.500000) "></path>
            <path d="M94,354.575393 C94,354.575393 282.050021,27.447737 949.458341,37.6490311 C1481.02161,45.7783936 1588.66348,256.600739 1897.85638,257.062634 C2152.52162,257.432151 2443.13294,28.6486649 2708.28481,37.6490304 C2971.00254,46.5702139 3209.13824,279.64273 3466.4216,281.437525 C3717.06767,283.179531 3928.3671,21.627852 4329.14167,13.2741401 C4729.91624,4.92042823 4848.2524,189.757843 5022.97299,257.062629 C5294.70554,361.714974 5401,378.950283 5401,378.950283 L5492.71307,3723.17692 L819.488898,3831.27093 L94,354.575393 Z" id="Fill-3" fill="#E2EAFF" opacity="0.514209692"></path>
            <path d="M720,3567.99268 C720,3567.99268 246.59168,624.16241 914,648.931232 C1445.56327,668.669388 2679.29444,708.812349 2988.48734,709.933835 C3243.15258,710.831024 3163.05937,688.080876 3428.21124,709.933835 C3690.92897,731.594539 4920.23684,517.707944 5177.5202,522.065719 C5428.16627,526.295324 5013.67606,2496.49847 5414.45063,2476.2156 C5815.22521,2455.93272 5474.2524,3167.81437 5648.97299,3331.23092 C5920.70554,3585.32764 6027,3627.17511 6027,3627.17511 L6027,3969.64493 L720,3969.64493 L720,3567.99268 Z" id="Fill-3" fill="#E2EAFF" opacity="0.514209692" transform="translate(3292.065293, 2245.822467) scale(1, -1) translate(-3292.065293, -2245.822467) "></path>
            <path d="M6095,119.352576 C5833.5701,119.352576 5795.0059,295.975382 4970.85003,285.443006 C4747.33334,282.591558 4274.13292,32.5760739 4029.71373,24.4455935 C3747.5087,15.0435214 3455.77937,215.338484 3166.99366,214.259558 C2871.93861,213.154943 2606.09329,35.6972536 2330.42648,24.4455935 C2028.13976,12.1021628 1715.62114,260.486413 1467.72056,237.983093 C944.860768,190.536024 788,48.169128 788,48.169128 L788,3700.67408 L5828.89711,3700.67408 L6095,119.352576 Z" id="Fill-5" fill="#CEE0FC" opacity="0.514209692"></path>
            <path d="M6027,2696.49279 C5765.5701,2696.49279 5947.44728,586.751955 5123.29141,543.920293 C4899.77472,532.324404 4266.29598,545.928028 4021.87679,512.864074 C3739.67176,474.628981 3268.93016,404.546146 2980.14445,400.158513 C2685.0894,395.666412 2324.27778,488.509929 2048.61098,442.753178 C1746.32426,392.55656 1225.23467,534.26668 977.334089,442.753178 C454.474297,249.801765 720,2407.01344 720,2407.01344 L720,3833.72565 L6027,3833.72565 L6027,2696.49279 Z" id="Fill-5" fill="#CEE0FC" opacity="0.514209692" transform="translate(3339.791327, 2116.862826) scale(1, -1) translate(-3339.791327, -2116.862826) "></path>
        </g>
    </g>
</svg>