<?xml version="1.0" encoding="UTF-8"?>
<svg width="1440px" height="406px" viewBox="0 0 1440 406" version="1.1" xmlns="http://www.w3.org/2000/svg" xmlns:xlink="http://www.w3.org/1999/xlink">
    <!-- Generator: Sketch 50.2 (55047) - http://www.bohemiancoding.com/sketch -->
    <title>bg</title>
    <desc>Created with Sketch.</desc>
    <defs>
        <path d="M287.308004,5.80478869 C688.821686,48.1027436 971.033669,81.072594 1380.03066,12.2088117 C1822.57363,-62.3031855 1611.08292,241.735786 1670.25983,263.461284 C1768.02208,299.352547 1670.61614,354.558747 1593.45468,377.561958 C1472.17593,413.717323 1435.6124,333.901041 1193.4955,377.561958 C863.327535,437.101117 175.979879,394.530961 63.0306602,329.085648 C-30.2001826,275.065605 -65.3209023,-31.3433391 287.308004,5.80478869 Z" id="path-1"></path>
    </defs>
    <g id="Page-1" stroke="none" stroke-width="1" fill="none" fill-rule="evenodd">
        <g id="sonata" transform="translate(0.000000, -4949.000000)">
            <g id="token-distribuce" transform="translate(-176.000000, 4949.000000)">
                <g id="bg">
                    <mask id="mask-2" fill="white">
                        <use xlink:href="#path-1"></use>
                    </mask>
                    <use id="Mask" fill="#3468FE" transform="translate(855.683299, 203.240090) scale(-1, -1) translate(-855.683299, -203.240090) " xlink:href="#path-1"></use>
                    <g id="vlny" opacity="0.202332428" mask="url(#mask-2)">
                        <g transform="translate(-231.045892, 250.598054)" opacity="0.514209692">
                            <path d="M12.2951971,37.9345603 C12.2951971,37.9345603 115.055505,108.428091 273.118309,106.840134 C378.442682,105.785049 474.681487,29.1048847 615.072568,37.9345604 C709.875235,43.897389 814.096686,127.734014 919.963241,126.529725 C1028.08888,125.298793 1141.32949,41.2170468 1305.98506,37.9345603 C1470.64063,34.6520739 1612.53213,143.597589 1744.16924,146.213987 C1970.32099,150.71142 2126.44663,57.7467113 2130.19106,67.4662819 L2130.19106,272.072834 L12.2951971,272.072834 L12.2951971,37.9345603 Z" id="Fill-1" fill="#B8CEFC" transform="translate(1071.243131, 154.649807) rotate(2.000000) translate(-1071.243131, -154.649807) "></path>
                            <path d="M0.0219279462,141.467424 C0.0219279462,141.467424 75.0681616,10.845548 341.414746,14.9189186 C553.548844,18.1649682 596.50612,102.346204 719.897557,102.530638 C821.52832,102.678186 937.504298,11.3250778 1043.32002,14.9189184 C1148.16434,18.4811415 1243.19856,111.546857 1345.87416,112.263517 C1445.90097,112.959099 1530.22548,8.52167145 1690.16496,5.18603933 C1850.10443,1.8504072 1897.32954,75.6558756 1967.05632,102.530636 C2075.49824,144.318254 2117.9178,151.200303 2117.9178,151.200303 L2117.9178,207.52137 L0.0219279462,207.52137 L0.0219279462,141.467424 Z" id="Fill-3" fill="#E2EAFF"></path>
                            <path d="M2394.84994,47.6299774 C2290.51957,47.6299774 2275.12953,118.035765 1946.22877,113.837325 C1857.02864,112.700674 1668.18575,13.0389295 1570.64394,9.79793881 C1458.02271,6.05006329 1341.60056,85.8921 1226.35314,85.462016 C1108.60378,85.0216918 1002.51131,14.2831013 892.499331,9.79793881 C771.863983,4.87757217 647.145331,103.889071 548.214179,94.9187456 C339.55343,76.0052863 276.954076,19.2546684 276.954076,19.2546684 L276.954076,159.103674 L2394.84994,159.103674 L2394.84994,47.6299774 Z" id="Fill-5" fill="#CEE0FC"></path>
                        </g>
                    </g>
                </g>
            </g>
        </g>
    </g>
</svg>