<?xml version="1.0" encoding="UTF-8"?>
<svg width="1440px" height="80px" viewBox="0 0 1440 80" version="1.1" xmlns="http://www.w3.org/2000/svg" xmlns:xlink="http://www.w3.org/1999/xlink">
    <!-- Generator: sketchtool 50.2 (55047) - http://www.bohemiancoding.com/sketch -->
    <title>3754BAB6-45D1-4212-8AB6-D84916445EA6</title>
    <desc>Created with sketchtool.</desc>
    <defs></defs>
    <g id="Page-1" stroke="none" stroke-width="1" fill="none" fill-rule="evenodd" opacity="0.208389946">
        <g id="sonata-content-page" transform="translate(0.000000, -233.000000)">
            <g id="vlny" transform="translate(-15.000000, 0.000000)">
                <g transform="translate(-408.000000, 218.000000)">
                    <path d="M12,37.5002921 C12,37.5002921 114.76536,87.3283637 272.835936,86.2059232 C378.165488,85.4601406 474.409024,31.259071 614.807008,37.5002921 C709.614336,41.7150939 813.840912,100.974679 919.712672,100.123432 C1027.84363,99.2533523 1141.0898,39.8205046 1305.75347,37.5002921 C1470.41714,35.1800796 1612.31562,112.187784 1743.9592,114.037174 C1970.12206,117.216167 2126.25538,51.5044323 2130,58.3746721 L2130,203 L12,203 L12,37.5002921 Z" id="Fill-1" fill="#B8CEFC" opacity="0.514209692" transform="translate(1071.000000, 120.000000) rotate(2.000000) translate(-1071.000000, -120.000000) "></path>
                    <path d="M0,111.341777 C0,111.341777 75.0499235,19.0750027 341.409604,21.9522908 C553.554132,24.2451879 596.51352,83.7079006 719.911024,83.8381789 C821.546784,83.9424015 937.528464,19.413726 1043.34939,21.9522906 C1148.19886,24.4685219 1243.23776,90.2069239 1345.9184,90.713148 C1445.95013,91.204483 1530.27879,17.4334967 1690.22613,15.0773216 C1850.17347,12.7211464 1897.4009,64.8547762 1967.13111,83.8381775 C2075.57836,113.355505 2118,118.216746 2118,118.216746 L2118,158 L0,158 L0,111.341777 Z" id="Fill-3" fill="#E2EAFF" opacity="0.514209692"></path>
                    <path d="M2395,44.9529948 C2290.6645,44.9529948 2275.2737,94.8783746 1946.35677,91.901223 C1857.15226,91.0952136 1668.30008,20.4241702 1570.75347,18.1259544 C1458.1267,15.468302 1341.69883,72.0850116 1226.44574,71.7800351 C1108.69059,71.4677972 1002.59291,21.3064237 892.57552,18.1259544 C771.93424,14.636878 647.209456,84.846826 548.27344,78.4858875 C339.602432,65.0741827 277,24.8318068 277,24.8318068 L277,124 L2395,124 L2395,44.9529948 Z" id="Fill-5" fill="#CEE0FC" opacity="0.514209692"></path>
                </g>
            </g>
        </g>
    </g>
</svg>