<?xml version="1.0" encoding="UTF-8"?>
<svg width="59px" height="59px" viewBox="0 0 59 59" version="1.1" xmlns="http://www.w3.org/2000/svg" xmlns:xlink="http://www.w3.org/1999/xlink">
    <!-- Generator: sketchtool 50.2 (55047) - http://www.bohemiancoding.com/sketch -->
    <title>C29FA0CC-3E9A-4140-9CC2-4826ADB7922B</title>
    <desc>Created with sketchtool.</desc>
    <defs></defs>
    <g id="Page-1" stroke="none" stroke-width="1" fill="none" fill-rule="evenodd">
        <g id="sonata" transform="translate(-1068.000000, -4219.000000)">
            <g id="whitepaper" transform="translate(539.000000, 4076.000000)">
                <g id="Group-9" transform="translate(0.000000, 127.000000)">
                    <g id="1-copy-2" transform="translate(513.000000, 0.000000)">
                        <g id="Page-1" transform="translate(16.000000, 16.000000)">
                            <path d="M0.871900506,23.0306602 C4.78380962,7.48551805 20.7720329,-1.99034057 36.5795519,1.85615263 C52.3915519,5.70117749 62.0317038,21.4163547 58.1197797,36.9585601 C54.2078557,52.5001635 38.2210962,61.9813229 22.4105899,58.134213 C6.60159215,54.2886154 -3.04450456,38.5727187 0.871900506,23.0306602 Z" id="Fill-1" fill="#EF3D43"></path>
                            <path d="M1.71879696,19.5893443 L57.2728684,19.5893443 C54.0569949,10.5983418 46.5453241,3.33611392 36.5795519,0.870959494 C21.7354506,-2.80347089 6.73306506,5.47281013 1.71879696,19.5893443 Z" id="Fill-2" fill="#FFFFFF"></path>
                            <path d="M58.3542861,35.5574329 C58.3662354,35.4945494 58.3796785,35.4319646 58.3931215,35.369081 C58.4155266,35.2595949 58.436438,35.1498101 58.4573494,35.0403241 C58.4692987,34.9766937 58.4827418,34.9132127 58.4946911,34.8495823 C58.5156025,34.736362 58.5350203,34.622843 58.554438,34.5093241 C58.5648937,34.4521165 58.5753494,34.3947595 58.5843114,34.3377013 C58.6082101,34.1961013 58.6306152,34.0542025 58.6515266,33.9124532 C58.6560076,33.8845215 58.6619823,33.8568886 58.6664633,33.8286582 C58.6918557,33.658081 58.7142608,33.4881013 58.7366658,33.3178228 C58.7426405,33.2727139 58.7486152,33.2276051 58.7545899,33.1826456 C58.7695266,33.0576253 58.785957,32.9327544 58.7994,32.8078835 C58.8068684,32.7482861 58.812843,32.688838 58.8188177,32.6296886 C58.8307671,32.5178127 58.8427165,32.4057873 58.8531722,32.293762 C58.8591468,32.2319241 58.8651215,32.1703848 58.8710962,32.1085468 C58.8815519,31.9953266 58.8905139,31.8822557 58.8994759,31.7694835 C58.903957,31.7121266 58.908438,31.6543215 58.912919,31.5972633 C58.921881,31.4673139 58.930843,31.3376633 58.9383114,31.2080127 C58.9398051,31.168281 58.9427924,31.1289975 58.9457797,31.0898633 C58.9547418,30.9194354 58.9637038,30.749157 58.9696785,30.5791772 C58.9696785,30.5513949 58.9711722,30.5236127 58.9711722,30.4958304 C58.9771468,30.3549772 58.9801342,30.2141241 58.9831215,30.0732709 C58.9846152,30.0197975 58.9846152,29.9666228 58.9861089,29.913 C58.9876025,29.7967924 58.9890962,29.6807342 58.9890962,29.5646759 C58.9905899,29.5062734 58.9890962,29.4478709 58.9890962,29.389319 C58.9890962,29.2758 58.9876025,29.1621316 58.9861089,29.0486127 C58.9861089,28.9926 58.9846152,28.936438 58.9831215,28.8804253 C58.9816278,28.7558532 58.9771468,28.6314304 58.9726658,28.5070076 C58.9711722,28.4639899 58.9711722,28.4208228 58.9696785,28.3778051 C58.9562354,28.0403848 58.9383114,27.7040101 58.9144127,27.3685316 C58.9099316,27.324319 58.9069443,27.2802557 58.903957,27.2361924 C58.8935013,27.1132633 58.8845392,26.9904835 58.8725899,26.8678532 C58.8681089,26.8145291 58.8636278,26.7612051 58.8576532,26.7077316 C58.8471975,26.5921215 58.8352481,26.4765114 58.8232987,26.3612 C58.8173241,26.3084734 58.8113494,26.2555975 58.8068684,26.2028709 C58.7919316,26.0802405 58.7769949,25.9577595 58.7620582,25.8354278 C58.7560835,25.7927089 58.7516025,25.7495418 58.7456278,25.7068228 C58.7023114,25.3725392 58.6530203,25.0396 58.5992481,24.7080051 C58.5947671,24.678281 58.5887924,24.6487063 58.5843114,24.6188329 C58.5619063,24.4847013 58.5380076,24.350719 58.5141089,24.2170354 C58.5051468,24.1714785 58.4961848,24.1259215 58.4872228,24.0803646 C58.4648177,23.9604228 58.4424127,23.8409291 58.4185139,23.7215848 C58.4080582,23.6742354 58.3990962,23.6267367 58.3901342,23.5795367 C58.3647418,23.4570557 58.3393494,23.3348734 58.3124633,23.2128405 C58.3035013,23.1722127 58.2945392,23.1315848 58.2855772,23.090957 C58.2512228,22.9412911 58.2168684,22.7920734 58.1810203,22.6430051 L58.1735519,22.6096962 C58.1362101,22.4536076 58.0973747,22.2976684 58.0570456,22.1421772 C57.8329949,21.2780886 57.5716025,20.4260987 57.2728684,19.5893443 L1.71879696,19.5893443 C1.39319165,20.5058608 1.1093643,21.4464253 0.871900506,22.4107392 C-0.107962532,26.3676228 -0.237896962,30.3352608 0.365516203,34.1224633 C0.368518481,34.1394911 0.371505823,34.1560709 0.374493165,34.1728 C0.396913165,34.311562 0.419303291,34.4494278 0.444695696,34.5871443 C0.449176709,34.6162709 0.453657722,34.6452481 0.459647342,34.6743747 C0.482037468,34.8034278 0.505951139,34.9321823 0.531328608,35.0610861 C0.538811899,35.0990253 0.546280253,35.1374127 0.553718734,35.1755013 C0.577647342,35.2972354 0.601531139,35.4183722 0.626908608,35.5393595 C0.637379241,35.5852152 0.646356203,35.6310709 0.656811899,35.6764785 C0.680695696,35.7916405 0.706088101,35.9060557 0.732989114,36.0207696 C0.744923544,36.074243 0.758381519,36.1274177 0.770330886,36.1808911 C0.795723291,36.2881367 0.819607089,36.3953823 0.846478228,36.5026278 C0.865910886,36.5834354 0.886807342,36.6639443 0.907748608,36.7447519 C0.937607089,36.8658886 0.970467848,36.9868759 1.00182,37.1074152 C1.03318709,37.2263114 1.06607772,37.345357 1.09893848,37.4638051 C1.11384532,37.5163823 1.12879696,37.5682127 1.14521241,37.6204911 C1.17660937,37.7329646 1.20947013,37.8455873 1.24233089,37.957762 C1.25873139,38.0101899 1.27517671,38.0627671 1.29162203,38.1150456 C1.32597646,38.2267722 1.36033089,38.3383494 1.39617899,38.4494785 C1.41257949,38.5011595 1.42903975,38.5523924 1.44544025,38.6040734 C1.48278203,38.7158 1.5201238,38.8276759 1.55746557,38.9391038 C1.57391089,38.9894405 1.59184987,39.0394785 1.60826532,39.0896658 C1.64710076,39.2019899 1.68742987,39.3138658 1.72777392,39.4258911 C1.73673595,39.4520304 1.7456681,39.478319 1.75464506,39.5044582 C1.78002253,39.5736152 1.80544481,39.6430709 1.83082228,39.7117797 L57.1578557,39.7117797 C57.1832481,39.6432203 57.2056532,39.5734658 57.2310456,39.5044582 L57.2355266,39.5044582 C57.2967671,39.3317899 57.3565139,39.1573291 57.4147671,38.9831671 C57.4207418,38.9661392 57.4267165,38.9491114 57.4326911,38.9322329 C57.5088684,38.7047468 57.5835519,38.475319 57.6552481,38.2449949 C57.6642101,38.212881 57.6746658,38.1809165 57.6851215,38.1488025 C57.750843,37.9334152 57.8135772,37.7163848 57.8748177,37.4984582 C57.8882608,37.4527519 57.9017038,37.407643 57.9151468,37.3617873 C57.986843,37.1021873 58.0555519,36.8416911 58.1197797,36.5788051 C58.1630962,36.4094228 58.2034253,36.2391443 58.2422608,36.0694633 C58.2542101,36.015243 58.2646658,35.9607241 58.2781089,35.9065038 C58.3035013,35.7901468 58.3288937,35.6737899 58.3542861,35.5574329 Z" id="Fill-3" fill="#005B95"></path>
                        </g>
                    </g>
                </g>
            </g>
        </g>
    </g>
</svg>