<?xml version="1.0" encoding="UTF-8"?>
<svg width="59px" height="59px" viewBox="0 0 59 59" version="1.1" xmlns="http://www.w3.org/2000/svg" xmlns:xlink="http://www.w3.org/1999/xlink">
    <!-- Generator: sketchtool 50.2 (55047) - http://www.bohemiancoding.com/sketch -->
    <title>15BD57EA-A40C-4FFA-A8FD-F0D117548ECD</title>
    <desc>Created with sketchtool.</desc>
    <defs></defs>
    <g id="Page-1" stroke="none" stroke-width="1" fill="none" fill-rule="evenodd">
        <g id="sonata" transform="translate(-726.000000, -4219.000000)">
            <g id="whitepaper" transform="translate(539.000000, 4076.000000)">
                <g id="Group-9" transform="translate(0.000000, 127.000000)">
                    <g id="1" transform="translate(171.000000, 0.000000)">
                        <g id="Page-1" transform="translate(16.000000, 16.000000)">
                            <path d="M0.871407595,22.4104405 C4.78334658,6.59739494 20.7715848,-3.04186076 36.5805975,0.870810127 C52.3925975,4.78228608 62.0312557,20.7684481 58.1208253,36.5786557 C54.2074076,52.3882658 38.2221418,62.0328689 22.4101418,58.1194661 C6.60114405,54.207542 -3.0435038,38.2204987 0.871407595,22.4104405 Z" id="Fill-1" fill="#FFFFFF"></path>
                            <path d="M41.3020911,27.8239519 C41.8607241,33.9854937 37.3214582,39.4321646 31.1630532,39.9940835 C25.0046481,40.5561519 19.5557367,36.0206203 18.9971038,29.8592278 C18.4339899,23.7008228 22.9732557,18.2507165 29.1316608,17.6920835 C35.2900658,17.1300152 40.7359899,21.6658456 41.3020911,27.8239519 Z" id="Fill-2" fill="#EF3826"></path>
                            <path d="M20.5699392,23.0554076 C18.9702177,25.7023418 19.8081671,29.1407722 22.4504709,30.7400456 C25.0942684,32.3430532 28.5326987,31.4982329 30.1354076,28.8548835 C31.7321418,26.2110861 35.1705722,25.3731367 37.817357,26.9727089 C40.4566734,28.572281 41.3020911,32.010562 39.6993823,34.6507747 C36.4969519,39.9377722 29.6230785,41.6200937 24.3369772,38.4215468 C19.0523696,35.2192658 17.3675089,28.3428532 20.5699392,23.0554076 Z" id="Fill-3" fill="#213C72"></path>
                            <path d="M14.0814478,11.4872253 L12.6325871,10.5063316 L6.34421772,19.8235519 L7.79755949,20.8045949 L14.0814478,11.4872253 Z M10.0350934,22.3140987 L16.3234329,12.9968785 L14.8671187,12.0192709 L8.58173671,21.3366405 L10.0350934,22.3140987 Z M10.8237367,22.8461443 L12.2755997,23.8239013 L18.5579646,14.5065316 L17.1076101,13.5287747 L10.8237367,22.8461443 Z M46.5613063,39.159719 L49.4679899,34.8434582 L48.0176354,33.8591291 L45.1049772,38.1750911 L46.5613063,39.159719 Z M44.6464203,38.860238 L41.733762,43.1764987 L43.1900911,44.1573924 L46.0967747,39.8411316 L44.6464203,38.860238 Z M51.7099899,36.3531114 L50.2596354,35.3722177 L47.3469772,39.6883291 L48.7973316,40.6692228 L51.7099899,36.3531114 Z M46.8839392,40.3731772 L43.975762,44.6859727 L45.4246228,45.6703167 L48.337281,41.3542203 L46.8839392,40.3731772 Z M49.5844962,41.1979823 L51.037838,42.1754405 L53.9504962,37.8629139 L52.4941671,36.885157 L49.5844962,41.1979823 Z M46.213281,46.1984638 L47.6666228,47.1768332 L50.579281,42.8602886 L49.1229519,41.879843 L46.213281,46.1984638 Z M51.7099899,21.3366405 L45.4320911,12.0192709 L43.975762,12.9968785 L50.2596354,22.3108127 L51.7099899,21.3366405 Z M50.579281,14.8222937 L47.6666228,10.5063316 L46.213281,11.4872253 L49.1259392,15.8033367 L50.579281,14.8222937 Z M52.5001418,20.8045949 L53.9504962,19.8235519 L51.037838,15.5075899 L49.5844962,16.4884835 L52.5001418,20.8045949 Z M46.0967747,17.8448861 L43.1900911,13.525638 L41.7367494,14.5065316 L44.6464203,18.8223443 L46.0967747,17.8448861 Z M49.4679899,22.8461443 L46.5613063,18.5267468 L45.1094582,19.5074911 L48.0176354,23.8239013 L49.4679899,22.8461443 Z M10.8237367,34.8434582 L17.1076101,44.1573924 L18.5579646,43.1764987 L12.2755997,33.8591291 L10.8237367,34.8434582 Z M6.34720506,37.8629139 L12.6325871,47.1768332 L14.0814478,46.1984638 L7.79755949,36.885157 L6.34720506,37.8629139 Z M11.4943949,40.6692228 L12.9507241,39.6883291 L10.0380658,35.3722177 L8.58173671,36.3496759 L11.4943949,40.6692228 Z M11.9574478,41.3509342 L14.8671187,45.6634309 L16.3234329,44.6859727 L13.4092959,40.3731772 L11.9574478,41.3509342 Z" id="Fill-4" fill="#3E3D3F"></path>
                        </g>
                    </g>
                </g>
            </g>
        </g>
    </g>
</svg>