<?xml version="1.0" encoding="UTF-8"?>
<svg width="59px" height="59px" viewBox="0 0 59 59" version="1.1" xmlns="http://www.w3.org/2000/svg" xmlns:xlink="http://www.w3.org/1999/xlink">
    <!-- Generator: sketchtool 50.2 (55047) - http://www.bohemiancoding.com/sketch -->
    <title>D830A0A8-1C2E-4276-9E77-7D54168F1B1C</title>
    <desc>Created with sketchtool.</desc>
    <defs>
        <path d="M29.4707241,0.0685353535 L29.4722177,0.0685353535 C31.8187747,0.0685353535 34.2011797,0.348636364 36.5805975,0.937146465 C52.3925975,4.83770202 62.0327494,20.7840909 58.1208253,36.5546717 C54.2089013,52.3239116 38.2221418,61.9440404 22.4116354,58.0390152 C6.60260785,54.1384596 -3.04351873,38.1920707 0.871422532,22.4214899 C4.19484025,9.02282828 16.232319,0.0685353535 29.4707241,0.0685353535 Z" id="path-1"></path>
    </defs>
    <g id="Page-1" stroke="none" stroke-width="1" fill="none" fill-rule="evenodd">
        <g id="sonata" transform="translate(-555.000000, -4219.000000)">
            <g id="whitepaper" transform="translate(539.000000, 4076.000000)">
                <g id="Group-9" transform="translate(0.000000, 127.000000)">
                    <g id="1">
                        <g id="Page-1" transform="translate(16.000000, 16.000000)">
                            <g id="Group-4">
                                <mask id="mask-2" fill="white">
                                    <use xlink:href="#path-1"></use>
                                </mask>
                                <g id="Clip-3"></g>
                                <path d="M29.4707241,0.0685353535 C16.232319,0.0685353535 4.19484025,9.02282828 0.871422532,22.4214899 C-3.04351873,38.1920707 6.60260785,54.1384596 22.4116354,58.0390152 C38.2221418,61.9440404 54.2089013,52.3239116 58.1208253,36.5546717 C62.0327494,20.7840909 52.3925975,4.83770202 36.5805975,0.937146465 C34.2011797,0.348636364 31.8187747,0.0685353535 29.4722177,0.0685353535 L29.4707241,0.0685353535 Z" id="Fill-2" mask="url(#mask-2)"></path>
                            </g>
                            <path d="M0.871544821,22.4137355 C4.78402835,6.59754708 20.7761231,-3.04275366 36.5859632,0.871330942 C52.400285,4.7824277 62.0418525,20.7719115 58.129354,36.5851121 C54.2168555,52.3969681 38.2277486,62.0430952 22.4149207,58.1290106 C6.6020778,54.2164199 -3.04397131,38.2269361 0.871544821,22.4137355 Z" id="Fill-5" fill="#213C72"></path>
                            <path d="M50.4227329,8.70350423 L38.5624628,16.6111703 L38.5624628,1.43377001 C37.9140994,1.22461202 37.2567724,1.03636982 36.5860001,0.870537415 C31.0211297,-0.506917363 25.4353443,-0.203638274 20.3604813,1.45468581 L20.3604813,16.6126643 L8.54650789,8.7378659 C5.84099488,11.4628957 3.64344623,14.7436883 2.14952129,18.4592306 L5.27783,20.5448346 L1.40106489,20.5448346 C1.20688453,21.1588627 1.02758366,21.7803607 0.870751415,22.4138106 C-0.517119796,28.0177508 -0.198928722,33.6441008 1.49071533,38.7475558 L5.35546928,38.7475558 L2.26007173,40.81075 C3.7614663,44.4187254 5.96799344,47.7069879 8.7526546,50.4678734 L20.3604813,42.7305216 L20.3604813,57.5418955 C21.0327475,57.7600174 21.7169651,57.9572235 22.4146281,58.1290318 C27.9511139,59.5005107 33.5085147,59.2061955 38.5624628,57.5702812 L38.5624628,42.7305216 L50.2165713,50.4992471 C52.9534418,47.8026029 55.1898474,44.5487022 56.7256022,40.8540756 L53.565951,38.7475558 L57.506925,38.7475558 C57.7399773,38.0409006 57.9476328,37.3193056 58.1298917,36.5857586 C59.4893634,31.0878914 59.2114934,25.5706023 57.605524,20.5448346 L53.645129,20.5448346 L56.8346588,18.418893 C55.3631427,14.7974717 53.1850001,11.4882935 50.4227329,8.70350423 Z" id="Fill-7" fill="#FFFFFF"></path>
                            <path d="M43.2997258,38.7477836 L54.0324964,45.8860236 C54.7675358,44.7849598 55.432358,43.6271247 56.0209871,42.4170003 L50.5022156,38.7477836 L43.2997258,38.7477836 Z M58.5458176,24.3368453 L34.7720735,24.3368453 L34.7720735,0.482454665 C31.1670936,-0.176390845 27.5785476,-0.14651123 24.1498576,0.486936607 L24.1498576,24.3368453 L0.462734598,24.3368453 C-0.182635979,27.9403268 -0.139295545,31.5273746 0.507569014,34.9530725 L24.1498576,34.9530725 L24.1498576,58.504185 C27.7533435,59.1719944 31.3418896,59.1510786 34.7720735,58.5265947 L34.7720735,34.9530725 L58.4845643,34.9530725 C59.1658204,31.3525789 59.1568565,27.7655311 58.5458176,24.3368453 Z M4.95216707,45.850168 C5.68868552,46.9587018 6.50293588,48.0179341 7.38586462,49.0203952 L20.3596239,40.3926564 L20.3596239,38.7477836 L15.6311692,38.7477836 L4.95216707,45.850168 Z M54.0832918,13.2037007 C53.3482524,12.0921791 52.5355259,11.0314527 51.6540762,10.0260037 L38.5623072,18.7329235 L38.5623072,20.5451221 L43.0457488,20.5451221 L54.0832918,13.2037007 Z M15.822399,20.5451221 L4.86998309,13.260472 C4.14244347,14.3660178 3.48210319,15.5268408 2.90092904,16.7429411 L8.61840022,20.5451221 L15.822399,20.5451221 Z" id="Fill-8" fill="#FF412F"></path>
                            <path d="M39,5 L39,5.0015625 L39,7 C39.3277311,6.6203125 39.4957983,6.2609375 39.5,5.9234375 C39.5,5.59375 39.3361345,5.284375 39,5 Z" id="Fill-9" fill="#2F3F67"></path>
                        </g>
                    </g>
                </g>
            </g>
        </g>
    </g>
</svg>