<?xml version="1.0" encoding="UTF-8"?>
<svg width="59px" height="59px" viewBox="0 0 59 59" version="1.1" xmlns="http://www.w3.org/2000/svg" xmlns:xlink="http://www.w3.org/1999/xlink">
    <!-- Generator: sketchtool 50.2 (55047) - http://www.bohemiancoding.com/sketch -->
    <title>3B659A63-C7D4-45AB-9FD7-200610A4FA8E</title>
    <desc>Created with sketchtool.</desc>
    <defs></defs>
    <g id="Page-1" stroke="none" stroke-width="1" fill="none" fill-rule="evenodd">
        <g id="sonata" transform="translate(-897.000000, -4219.000000)">
            <g id="whitepaper" transform="translate(539.000000, 4076.000000)">
                <g id="Group-9" transform="translate(0.000000, 127.000000)">
                    <g id="1-copy" transform="translate(342.000000, 0.000000)">
                        <g id="Page-1" transform="translate(16.000000, 16.000000)">
                            <path d="M0.871900506,22.4113367 C4.78380962,6.59784304 20.7720329,-3.04230886 36.5795519,0.871108861 C52.3915519,4.78303291 62.0317038,20.7682987 58.1197797,36.5788051 C54.2078557,52.3893413 38.2210962,62.0324805 22.4105899,58.1190777 C6.60163696,54.2086473 -3.04450456,38.2203494 0.871900506,22.4113367 Z" id="Fill-1" fill="#EF3826"></path>
                            <path d="M16.3014759,15.7092354 L14.2745944,9.47017215 L12.2431871,15.7092354 L5.68001215,15.7092354 L10.9900271,19.568881 L8.96459443,25.8124253 L14.2745944,21.9527797 L19.5800835,25.8124253 L17.5531722,19.568881 L22.8631722,15.7092354 L16.3014759,15.7092354 Z M31.3785899,6.20948861 L29.998438,7.87493165 L27.9954253,7.07731139 L29.1455519,8.89958987 L27.7654,10.5620456 L29.8580329,10.0273114 L31.0126405,11.8555646 L31.1530456,9.69721013 L33.2456785,9.16396962 L31.2411722,8.36784304 L31.3785899,6.20948861 Z M35.8386911,16.1020709 L36.1672987,18.2365266 L37.1576025,16.3111848 L39.2875772,16.6562228 L37.7625392,15.1267038 L38.7468684,13.2028557 L36.8200329,14.1812101 L35.2994759,12.6516911 L35.6280835,14.7846532 L33.7042354,15.7600203 L35.8386911,16.1020709 Z M39.3577797,24.0140456 L37.1949443,24.0110582 L36.5332481,21.9572608 L35.8625899,24.0140456 L33.7042354,24.0110582 L35.448843,25.2806785 L34.7781848,27.3359696 L36.5287671,26.0663494 L38.2733747,27.3374633 L37.6071975,25.2806785 L39.3577797,24.0140456 Z M31.3636532,28.5473367 L29.9849949,30.2127797 L27.9775013,29.4106785 L29.1261342,31.2389316 L27.7474759,32.8984 L29.8430962,32.3666532 L30.9977038,34.1934127 L31.1336278,32.0365519 L33.2307418,31.5033114 L31.2232481,30.7041975 L31.3636532,28.5473367 Z" id="Fill-2" fill="#FFD204"></path>
                        </g>
                    </g>
                </g>
            </g>
        </g>
    </g>
</svg>