<?xml version="1.0" encoding="UTF-8"?>
<svg width="1440px" height="653px" viewBox="0 0 1440 653" version="1.1" xmlns="http://www.w3.org/2000/svg" xmlns:xlink="http://www.w3.org/1999/xlink">
    <!-- Generator: Sketch 51.2 (57519) - http://www.bohemiancoding.com/sketch -->
    <title>start bg</title>
    <desc>Created with Sketch.</desc>
    <defs>
        <linearGradient x1="51.5679715%" y1="18.5066207%" x2="52.0035975%" y2="84.6163922%" id="linearGradient-1">
            <stop stop-color="#3468FE" offset="2.38161671%"></stop>
            <stop stop-color="#268AEA" offset="100%"></stop>
        </linearGradient>
        <path d="M152.62054,0 L1684.33862,0 C1804.56336,97.9947917 1748.98128,174.628906 1517.59239,229.902344 C1275.93023,287.629826 1224.50656,769.472656 832.345112,631.949219 C541.608345,529.993455 361.977186,745.411658 179.86808,704.871094 C-49.869881,653.727541 -58.9523946,418.77051 152.62054,0 Z" id="path-2"></path>
        <linearGradient x1="52.0035975%" y1="10.4057647%" x2="52.0035975%" y2="87.810262%" id="linearGradient-4">
            <stop stop-color="#3468FE" offset="0%"></stop>
            <stop stop-color="#268AEA" offset="100%"></stop>
        </linearGradient>
        <path d="M145,0 L1600,0 C1714.20313,97.9947917 1661.40495,174.628906 1441.60547,229.902344 C1212.04727,287.629826 1163.19922,769.472656 790.679688,631.949219 C514.504848,529.993455 343.870748,745.411658 170.882813,704.871094 C-47.3484259,653.727541 -55.9760301,418.77051 145,0 Z" id="path-5"></path>
    </defs>
    <g id="Page-1" stroke="none" stroke-width="1" fill="none" fill-rule="evenodd">
        <g id="vynosy">
            <g id="start" transform="translate(-256.000000, -324.000000)">
                <g id="start-bg" transform="translate(109.000000, 267.000000)">
                    <g id="vlny">
                        <mask id="mask-3" fill="white">
                            <use xlink:href="#path-2"></use>
                        </mask>
                        <use id="Mask" fill="url(#linearGradient-1)" xlink:href="#path-2"></use>
                        <g mask="url(#mask-3)">
                            <g transform="translate(7.000000, 23.000000)">
                                <mask id="mask-6" fill="white">
                                    <use xlink:href="#path-5"></use>
                                </mask>
                                <use id="Mask" stroke="none" fill="url(#linearGradient-4)" fill-rule="evenodd" xlink:href="#path-5"></use>
                                <g id="vlny" stroke="none" stroke-width="1" fill="none" fill-rule="evenodd" mask="url(#mask-6)" fill-opacity="0.51">
                                    <g transform="translate(201.379608, 667.203941) rotate(-5.000000) translate(-201.379608, -667.203941) translate(-524.620392, 601.203941)">
                                        <path d="M0.0150255012,88.6115511 C0.0150255012,88.6115511 51.4383217,3.79565367 233.94474,6.44059028 C379.303594,8.54832761 408.738845,63.2092103 493.289317,63.3289681 C562.928905,63.4247743 642.398144,4.10702378 714.905359,6.44059011 C786.746943,8.75362653 851.866441,69.1834138 922.221968,69.6487584 C990.762494,70.1004164 1048.54347,2.28670521 1158.13744,0.120799769 C1267.73142,-2.04510567 1300.09108,45.8785441 1347.86937,63.3289668 C1422.17611,90.4626633 1451.2429,94.9313414 1451.2429,94.9313414 L1451.2429,131.501953 L0.0150255012,131.501953 L0.0150255012,88.6115511 Z" id="Fill-3" fill="#E2EAFF"></path>
                                        <path d="M1194.06056,91.3223761 C1142.73551,91.3223761 1349.30358,96.6957283 1311.56002,93.2513825 C1271.84966,89.627554 1328.8362,81.2161456 1312.99991,79.5516851 C1297.16363,77.8872246 1122.47885,14.1008845 1055.64109,11.9964319 C978.4706,9.56284703 898.695636,61.4061845 819.72562,61.1269207 C739.04122,60.8410077 666.344378,14.9087549 590.961797,11.9964319 C508.299857,8.80152061 422.83995,73.0920465 355.050193,67.2674006 C212.071353,54.9864407 169.176926,18.1369119 169.176926,18.1369119 L169.176926,108.944204 L1291.63683,101.578055 L1194.06056,91.3223761 Z" id="Fill-5" fill="#CEE0FC" transform="translate(742.687304, 60.412651) rotate(-1.000000) translate(-742.687304, -60.412651) "></path>
                                    </g>
                                </g>
                            </g>
                        </g>
                    </g>
                </g>
            </g>
        </g>
    </g>
</svg>