<?xml version="1.0" encoding="UTF-8" standalone="no"?>
<!DOCTYPE svg PUBLIC "-//W3C//DTD SVG 1.1//EN" "http://www.w3.org/Graphics/SVG/1.1/DTD/svg11.dtd">
<svg width="1440px" height="706px" viewBox="0 0 1440 706" version="1.1" xmlns="http://www.w3.org/2000/svg" xmlns:xlink="http://www.w3.org/1999/xlink" xml:space="preserve" xmlns:serif="http://www.serif.com/" style="fill-rule:evenodd;clip-rule:evenodd;stroke-linejoin:round;stroke-miterlimit:1.41421;">
    <g id="vlny" transform="matrix(1,0,0,1,-157,-4)">
        <path id="Mask" d="M145,0L1600,0C1714.2,97.995 1661.4,174.629 1441.61,229.902C1212.05,287.63 1163.2,769.473 790.68,631.949C514.505,529.993 343.871,745.412 170.883,704.871C-47.348,653.728 -55.976,418.771 145,0Z" style="fill:url(#_Linear1);"/>
        <clipPath id="_clip2">
            <path id="Mask1" serif:id="Mask" d="M145,0L1600,0C1714.2,97.995 1661.4,174.629 1441.61,229.902C1212.05,287.63 1163.2,769.473 790.68,631.949C514.505,529.993 343.871,745.412 170.883,704.871C-47.348,653.728 -55.976,418.771 145,0Z"/>
        </clipPath>
        <g clip-path="url(#_clip2)">
            <g transform="matrix(0.978148,-0.207912,0.207912,0.978148,-272.234,748.839)">
                <g id="Fill-1" transform="matrix(0.999391,0.0348995,-0.0348995,0.999391,6.04977,-37.2916)">
                    <path d="M12.295,37.935C12.295,37.935 115.056,108.428 273.118,106.84C378.443,105.785 474.681,29.105 615.073,37.935C709.875,43.897 814.097,127.734 919.963,126.53C1028.09,125.299 1141.33,41.217 1305.99,37.935C1470.64,34.652 1612.53,143.598 1744.17,146.214C1970.32,150.711 2126.45,57.747 2130.19,67.466L2130.19,272.073L12.295,272.073L12.295,37.935Z" style="fill:rgb(184,206,252);fill-opacity:0.509804;"/>
                </g>
                <path id="Fill-3" d="M0.022,141.467C0.022,141.467 75.068,10.846 341.415,14.919C553.549,18.165 596.506,102.346 719.898,102.531C821.528,102.678 937.504,11.325 1043.32,14.919C1148.16,18.481 1243.2,111.547 1345.87,112.264C1445.9,112.959 1530.23,8.522 1690.16,5.186C1850.1,1.85 1897.33,75.656 1967.06,102.531C2075.5,144.318 2117.92,151.2 2117.92,151.2L2117.92,207.521L0.022,207.521L0.022,141.467Z" style="fill:rgb(226,234,255);fill-opacity:0.509804;"/>
                <path id="Fill-5" d="M2394.85,47.63C2290.52,47.63 2275.13,118.036 1946.23,113.837C1857.03,112.701 1668.19,13.039 1570.64,9.798C1458.02,6.05 1341.6,85.892 1226.35,85.462C1108.6,85.022 1002.51,14.283 892.499,9.798C771.864,4.878 647.145,103.889 548.214,94.919C339.553,76.005 276.954,19.255 276.954,19.255L276.954,159.104L2394.85,159.104L2394.85,47.63Z" style="fill:rgb(206,224,252);fill-opacity:0.509804;"/>
            </g>
            <g transform="matrix(0.906308,-0.422618,0.422618,0.906308,998.816,378.891)">
                <path id="Fill-31" serif:id="Fill-3" d="M-156.108,236.417C-156.108,236.417 75.325,5.827 341.672,9.901C553.806,13.147 596.763,97.328 720.155,97.512C821.785,97.66 937.761,6.307 1043.58,9.901C1148.42,13.463 1243.46,106.529 1346.13,107.245C1446.16,107.941 1530.48,3.503 1690.42,0.168C1850.36,-3.168 1897.59,70.638 1967.31,97.512C2075.76,139.3 2118.18,146.182 2118.18,146.182L2118.18,202.503L-26.774,299.786L-156.108,236.417Z" style="fill:rgb(226,234,255);fill-opacity:0.509804;"/>
                <g id="Fill-51" serif:id="Fill-5" transform="matrix(1,0,0,1,-99.348,5.02573)">
                    <path d="M2249.85,52.63C2145.52,52.63 2130.13,123.036 1801.23,118.837C1712.03,117.701 1523.19,18.039 1425.64,14.798C1313.02,11.05 1196.6,90.892 1081.35,90.462C963.604,90.022 857.511,19.283 747.499,14.798C626.864,9.878 586.766,101.398 487.835,92.427C279.174,73.514 456.014,191.52 456.014,191.52L2249.85,164.104L2249.85,52.63Z" style="fill:rgb(206,224,252);fill-opacity:0.509804;"/>
                </g>
            </g>
        </g>
    </g>
    <defs>
        <linearGradient id="_Linear1" x1="0" y1="0" x2="1" y2="0" gradientUnits="userSpaceOnUse" gradientTransform="matrix(7.22312,469.391,-469.391,7.22312,855.521,131.4)"><stop offset="0" style="stop-color:rgb(52,104,254);stop-opacity:1"/><stop offset="0.02" style="stop-color:rgb(52,104,254);stop-opacity:1"/><stop offset="1" style="stop-color:rgb(38,138,234);stop-opacity:1"/></linearGradient>
    </defs>
</svg>
