<?xml version="1.0" encoding="UTF-8"?>
<svg width="14px" height="20px" viewBox="0 0 14 20" version="1.1" xmlns="http://www.w3.org/2000/svg" xmlns:xlink="http://www.w3.org/1999/xlink">
    <!-- Generator: sketchtool 50.2 (55047) - http://www.bohemiancoding.com/sketch -->
    <title>51F06827-AE56-4BE2-8879-59C1E0C22F87</title>
    <desc>Created with sketchtool.</desc>
    <defs></defs>
    <g id="Page-1" stroke="none" stroke-width="1" fill="none" fill-rule="evenodd">
        <g id="sonata" transform="translate(-958.000000, -1236.000000)" fill="#9DB1C0" fill-rule="nonzero">
            <g id="vyhody" transform="translate(-360.000000, 921.000000)">
                <g id="tokens-timeline" transform="translate(619.000000, 0.000000)">
                    <g id="Group-5-Copy" transform="translate(0.000000, 107.000000)">
                        <g id="Group-14" transform="translate(0.000000, 115.000000)">
                            <g id="Group-15" transform="translate(699.000000, 67.000000)">
                                <path d="M13.4484909,36.0989797 C12.9983754,35.5206819 12.3191443,35.1234668 11.4108383,34.9075776 C12.5675092,34.3213784 13.0758212,33.3264566 12.9362638,31.9226499 C12.8896087,31.4136003 12.7480121,30.9724213 12.5111479,30.5984646 C12.2741205,30.2244268 11.954264,29.9237297 11.5503549,29.6962519 C11.1467722,29.4684904 10.707831,29.2951064 10.2345511,29.1755731 C9.76114881,29.0560399 9.21764156,28.9692466 8.60439638,28.9153148 L8.60439638,26 L6.81143826,26 L6.81143826,28.8343158 C6.50096173,28.8343158 6.02747789,28.8420146 5.39102751,28.8574526 L5.39102751,26 L3.5978247,26 L3.5978247,28.9153148 C3.34158878,28.9230541 2.96516709,28.9269845 2.46839648,28.9269845 L0,28.9153148 L0,30.8126114 L1.29235397,30.8126114 C1.88231239,30.8126114 2.22773945,31.0748958 2.32863514,31.5992618 L2.32863514,34.9195309 C2.40636643,34.9195309 2.46839648,34.9235019 2.51501078,34.9312006 L2.32863514,34.9312006 L2.32863514,39.5816115 C2.26660509,39.9748557 2.04152694,40.1716601 1.65335991,40.1716601 L0.361087507,40.1716601 L8.15648311e-05,42.2887763 L2.32883906,42.2887763 C2.47634905,42.2887763 2.68968187,42.2907213 2.96924533,42.294206 C3.24864566,42.2980959 3.45814492,42.3000408 3.59790626,42.3000408 L3.59790626,45.25 L5.39139455,45.25 L5.39139455,42.3347257 C5.71732762,42.3426271 6.19081146,42.3463954 6.8118053,42.3463954 L6.8118053,45.25 L8.6048042,45.25 L8.6048042,42.3000408 C9.24145849,42.2692458 9.80613181,42.2117078 10.2988242,42.1265758 C10.7917612,42.0414438 11.2634507,41.9086201 11.7135662,41.7272537 C12.1636409,41.5461304 12.5400626,41.3203949 12.8427497,41.0504523 C13.1455999,40.7807529 13.3957185,40.4373886 13.5940026,40.0208456 C13.7916342,39.6043026 13.9179373,39.1222797 13.9720963,38.5745742 C14.0734406,37.5028269 13.898688,36.6775207 13.4484909,36.0989797 Z M5.42589647,30.9395193 C5.48025943,30.9395193 5.63356053,30.9375743 5.88584056,30.9336844 C6.13824293,30.9297135 6.34774219,30.9259046 6.51462384,30.9220147 C6.68154627,30.9182059 6.9066652,30.9278496 7.19010299,30.9509864 C7.47341843,30.9741231 7.71207712,31.0050397 7.90607907,31.0435335 C8.10008102,31.0820272 8.3137401,31.1456838 8.54640378,31.2343815 C8.77947529,31.3229982 8.96564701,31.4310238 9.10520444,31.5582558 C9.24504734,31.6854878 9.36339791,31.8475263 9.46025615,32.0442091 C9.55739986,32.2408515 9.60593094,32.4664249 9.60593094,32.7208889 C9.60593094,32.9368592 9.57106197,33.1335826 9.50128326,33.311059 C9.43162689,33.488414 9.32657139,33.6369189 9.18701396,33.7564521 C9.04741576,33.8760259 8.90353539,33.9802427 8.7560254,34.0688594 C8.60867853,34.1574761 8.42026377,34.2288718 8.19135207,34.2828036 C7.96248116,34.3368165 7.76260654,34.3792406 7.59193213,34.4100356 C7.42113537,34.4409117 7.20772099,34.4621846 6.95152586,34.4736922 C6.69528994,34.4851998 6.50116564,34.4930606 6.36927531,34.4968695 C6.23726263,34.5006783 6.05684122,34.5006783 5.8277664,34.4968695 C5.59865079,34.4930606 5.46492525,34.4910346 5.42601882,34.4910346 L5.42601882,30.9394788 L5.42589647,30.9394788 L5.42589647,30.9395193 Z M10.3222333,38.8176522 C10.2482948,38.9951287 10.1533533,39.1494684 10.0370011,39.2806713 C9.92044492,39.4115501 9.76706226,39.5273556 9.57697542,39.6274799 C9.38692936,39.7278878 9.20238893,39.8087247 9.02400665,39.8704363 C8.84537967,39.932391 8.62988539,39.9860796 8.37785006,40.0325153 C8.12524378,40.0788293 7.9041623,40.1114072 7.71378999,40.1308162 C7.52370315,40.1501441 7.296749,40.1655011 7.03272365,40.1771708 C6.7689022,40.1885163 6.56307335,40.1943916 6.41564492,40.1943916 C6.26813492,40.1943916 6.08180006,40.1922846 5.85668113,40.1885163 C5.63143985,40.18491 5.48796731,40.1829651 5.42581491,40.1829651 L5.42581491,36.2726069 C5.48784496,36.2726069 5.67222226,36.2688385 5.97890603,36.2609777 C6.28563058,36.2531979 6.53583069,36.2495916 6.72991421,36.2495916 C6.92395694,36.2495916 7.19185663,36.2609777 7.53353171,36.2842765 C7.87488053,36.3072512 8.16211108,36.3418146 8.39518258,36.3880881 C8.62796861,36.4344427 8.88200228,36.5056764 9.15777297,36.6021945 C9.43325819,36.6985504 9.65654191,36.8161388 9.82737945,36.9549594 C9.99817621,37.0940232 10.1416895,37.271135 10.2580825,37.4871458 C10.374761,37.703035 10.4329575,37.9498813 10.4329575,38.2276036 C10.4329168,38.4437765 10.3960902,38.6401352 10.3222333,38.8176522 Z" id="Shape"></path>
                            </g>
                        </g>
                    </g>
                </g>
            </g>
        </g>
    </g>
</svg>