<?xml version="1.0" encoding="UTF-8"?>
<svg width="25px" height="25px" viewBox="0 0 25 25" version="1.1" xmlns="http://www.w3.org/2000/svg" xmlns:xlink="http://www.w3.org/1999/xlink">
    <!-- Generator: Sketch 51.2 (57519) - http://www.bohemiancoding.com/sketch -->
    <title>linkedin (1)</title>
    <desc>Created with Sketch.</desc>
    <defs></defs>
    <g id="Page-1" stroke="none" stroke-width="1" fill="none" fill-rule="evenodd">
        <g id="sonata-copy" transform="translate(-1033.000000, -6283.000000)" fill-rule="nonzero">
            <g id="team" transform="translate(223.000000, 6111.000000)">
                <g id="Group-23" transform="translate(773.000000, 125.000000)">
                    <g id="linkedin-(1)" transform="translate(37.000000, 47.000000)">
                        <circle id="Oval" fill="#8395AE" cx="12.5" cy="12.5" r="12.5"></circle>
                        <path d="M20,12.9696503 L20,18 L16.998689,18 L16.998689,13.306776 C16.998689,12.1283587 16.5653578,11.3236072 15.4786724,11.3236072 C14.6493893,11.3236072 14.1567436,11.8654007 13.9391827,12.3900117 C13.8601714,12.5774971 13.839803,12.8378451 13.839803,13.1008031 L13.839803,17.9997825 L10.8382682,17.9997825 C10.8382682,17.9997825 10.8785573,10.0510122 10.8382682,9.22820813 L13.8400269,9.22820813 L13.8400269,10.471223 C13.8339835,10.4810105 13.825478,10.4905806 13.8201062,10.4999331 L13.8400269,10.4999331 L13.8400269,10.471223 C14.2388885,9.87483687 14.9502142,9.02223524 16.5449894,9.02223524 C18.5196009,9.02223524 20,10.2759076 20,12.9696503 Z M7.69840762,5 C6.67170813,5 6,5.65489376 6,6.51532541 C6,7.35748703 6.65223508,8.03130333 7.65901388,8.03130333 L7.67848692,8.03130333 C8.72533095,8.03130333 9.37622306,7.35748703 9.37622306,6.51532541 C9.35630236,5.65489376 8.72533095,5 7.69840762,5 Z M6.178391,18 L9.17880668,18 L9.17880668,9.22820813 L6.178391,9.22820813 L6.178391,18 Z" id="Shape" fill="#F1F2F2"></path>
                    </g>
                </g>
            </g>
        </g>
    </g>
</svg>