<svg xmlns="http://www.w3.org/2000/svg" xmlns:xlink="http://www.w3.org/1999/xlink" width="21" height="14" viewBox="0 0 21 14"><defs><path id="dxcza" d="M898.27 1451.26l-4.98 5.69a.74.74 0 0 1-1.14 0 1.02 1.02 0 0 1 0-1.31l4.4-5.03-4.4-5.03a1.02 1.02 0 0 1 0-1.3.74.74 0 0 1 1.14 0l4.98 5.68a1 1 0 0 1 .24.65 1 1 0 0 1-.24.65z"/><path id="dxczb" d="M878.24 1451.26a1 1 0 0 1-.24-.65 1 1 0 0 1 .24-.65l4.98-5.69a.74.74 0 0 1 1.14 0c.32.36.32.95 0 1.31l-4.4 5.03 4.4 5.03c.32.36.32.95 0 1.3a.74.74 0 0 1-1.14 0z"/></defs><g><g transform="translate(-878 -1444)"><use fill="#fff" xlink:href="#dxcza"/></g><g transform="translate(-878 -1444)"><use fill="#fff" xlink:href="#dxczb"/></g></g></svg>