<?xml version="1.0" encoding="UTF-8"?>
<svg width="16px" height="16px" viewBox="0 0 16 16" version="1.1" xmlns="http://www.w3.org/2000/svg" xmlns:xlink="http://www.w3.org/1999/xlink">
    <!-- Generator: sketchtool 50.2 (55047) - http://www.bohemiancoding.com/sketch -->
    <title>C699E572-7E36-47CF-8570-48BB08DE3D93</title>
    <desc>Created with sketchtool.</desc>
    <defs></defs>
    <g id="Page-1" stroke="none" stroke-width="1" fill="none" fill-rule="evenodd">
        <g id="sonata-registration" transform="translate(-119.000000, -450.000000)" fill="#D2DCEA" fill-rule="nonzero">
            <g id="Group-10" transform="translate(102.000000, 182.000000)">
                <g id="textbox" transform="translate(1.000000, 224.000000)">
                    <path d="M30.4921221,45.5078579 C28.4816181,43.4973599 25.2104555,43.4973911 23.1999516,45.5078892 C21.8266676,46.8811691 21.3496667,48.9049483 21.9442929,50.7410403 L16.137344,56.5480034 C16.0494376,56.6359095 16,56.7549094 16,56.8794405 L16,59.5312505 C16,59.790344 16.2096567,60 16.4687509,60 L19.1205686,60 C19.2450688,60 19.3641003,59.9505625 19.4519755,59.8626564 L20.1148205,59.1993445 C20.215977,59.0981884 20.2654146,58.9562823 20.2489458,58.8139074 L20.1665394,58.1016269 L21.1534788,58.0086894 C21.3777918,57.987627 21.5549483,57.8104709 21.5760109,57.5861586 L21.6689486,56.5992221 L22.3812312,56.6820657 C22.5135127,56.6999095 22.6467317,56.6555033 22.7469819,56.5667221 C22.8467634,56.4774722 22.9039822,56.3501911 22.9039822,56.2165349 L22.9039822,55.3437545 L23.7609214,55.3437545 C23.8854217,55.3437545 24.0044531,55.2943171 24.0923283,55.2064109 L25.2944244,54.0202246 C27.130053,54.6153178 29.1188381,54.1742557 30.4921221,52.8000383 C32.502626,50.7895715 32.502626,47.5183559 30.4921221,45.5078579 Z M29.1660257,48.8225422 C28.6176184,49.3709479 27.7258979,49.3709479 27.1774906,48.8225422 C26.6290833,48.2741365 26.6290833,47.3824186 27.1774906,46.8340129 C27.7258979,46.2856071 28.6176184,46.2856071 29.1660257,46.8340129 C29.714433,47.3824186 29.7144018,48.2741365 29.1660257,48.8225422 Z" id="Shape"></path>
                </g>
            </g>
        </g>
    </g>
</svg>