<?xml version="1.0" encoding="UTF-8"?>
<svg width="88px" height="69px" viewBox="0 0 88 69" version="1.1" xmlns="http://www.w3.org/2000/svg" xmlns:xlink="http://www.w3.org/1999/xlink">
    <!-- Generator: sketchtool 50.2 (55047) - http://www.bohemiancoding.com/sketch -->
    <title>2E55DD54-F41E-4506-94D8-1055ACBCDDEB</title>
    <desc>Created with sketchtool.</desc>
    <defs>
        <linearGradient x1="14.759795%" y1="2.48316438%" x2="85.2393893%" y2="97.5228695%" id="linearGradient-1">
            <stop stop-color="#D4E1F4" offset="0%"></stop>
            <stop stop-color="#D4E1F4" offset="17.17%"></stop>
            <stop stop-color="#D4E1F4" offset="20%"></stop>
            <stop stop-color="#DAE4F4" offset="20.01%"></stop>
            <stop stop-color="#EBEBF4" offset="20.07%"></stop>
            <stop stop-color="#F6F1F4" offset="20.14%"></stop>
            <stop stop-color="#FDF4F4" offset="20.23%"></stop>
            <stop stop-color="#FFF5F4" offset="20.5%"></stop>
            <stop stop-color="#FFF5F4" offset="25.22%"></stop>
            <stop stop-color="#FFF5F4" offset="26%"></stop>
            <stop stop-color="#D4E1F4" offset="26%"></stop>
            <stop stop-color="#D4E1F4" offset="39.74%"></stop>
            <stop stop-color="#D4E1F4" offset="42%"></stop>
            <stop stop-color="#DAE4F4" offset="42.01%"></stop>
            <stop stop-color="#EBEBF4" offset="42.07%"></stop>
            <stop stop-color="#F6F1F4" offset="42.14%"></stop>
            <stop stop-color="#FDF4F4" offset="42.23%"></stop>
            <stop stop-color="#FFF5F4" offset="42.5%"></stop>
            <stop stop-color="#FFF5F4" offset="48.94%"></stop>
            <stop stop-color="#FFF5F4" offset="50%"></stop>
            <stop stop-color="#F9F2F4" offset="50%"></stop>
            <stop stop-color="#E8EBF4" offset="50.01%"></stop>
            <stop stop-color="#DDE5F4" offset="50.03%"></stop>
            <stop stop-color="#D6E2F4" offset="50.05%"></stop>
            <stop stop-color="#D4E1F4" offset="50.1%"></stop>
            <stop stop-color="#D4E1F4" offset="70.62%"></stop>
            <stop stop-color="#D4E1F4" offset="74%"></stop>
            <stop stop-color="#FFF5F4" offset="74.1%"></stop>
            <stop stop-color="#FFF5F4" offset="83.46%"></stop>
            <stop stop-color="#FFF5F4" offset="85%"></stop>
            <stop stop-color="#D4E1F4" offset="85.1%"></stop>
        </linearGradient>
        <linearGradient x1="14.7610903%" y1="2.4838352%" x2="85.2406846%" y2="97.5240195%" id="linearGradient-2">
            <stop stop-color="#D4E1F4" offset="0%"></stop>
            <stop stop-color="#D4E1F4" offset="17.17%"></stop>
            <stop stop-color="#D4E1F4" offset="20%"></stop>
            <stop stop-color="#DAE4F4" offset="20.01%"></stop>
            <stop stop-color="#EBEBF4" offset="20.07%"></stop>
            <stop stop-color="#F6F1F4" offset="20.14%"></stop>
            <stop stop-color="#FDF4F4" offset="20.23%"></stop>
            <stop stop-color="#FFF5F4" offset="20.5%"></stop>
            <stop stop-color="#FFF5F4" offset="25.22%"></stop>
            <stop stop-color="#FFF5F4" offset="26%"></stop>
            <stop stop-color="#D4E1F4" offset="26%"></stop>
            <stop stop-color="#D4E1F4" offset="39.74%"></stop>
            <stop stop-color="#D4E1F4" offset="42%"></stop>
            <stop stop-color="#DAE4F4" offset="42.01%"></stop>
            <stop stop-color="#EBEBF4" offset="42.07%"></stop>
            <stop stop-color="#F6F1F4" offset="42.14%"></stop>
            <stop stop-color="#FDF4F4" offset="42.23%"></stop>
            <stop stop-color="#FFF5F4" offset="42.5%"></stop>
            <stop stop-color="#FFF5F4" offset="48.94%"></stop>
            <stop stop-color="#FFF5F4" offset="50%"></stop>
            <stop stop-color="#F9F2F4" offset="50%"></stop>
            <stop stop-color="#E8EBF4" offset="50.01%"></stop>
            <stop stop-color="#DDE5F4" offset="50.03%"></stop>
            <stop stop-color="#D6E2F4" offset="50.05%"></stop>
            <stop stop-color="#D4E1F4" offset="50.1%"></stop>
            <stop stop-color="#D4E1F4" offset="70.62%"></stop>
            <stop stop-color="#D4E1F4" offset="74%"></stop>
            <stop stop-color="#FFF5F4" offset="74.1%"></stop>
            <stop stop-color="#FFF5F4" offset="83.46%"></stop>
            <stop stop-color="#FFF5F4" offset="85%"></stop>
            <stop stop-color="#D4E1F4" offset="85.1%"></stop>
        </linearGradient>
        <linearGradient x1="14.761666%" y1="2.48607783%" x2="85.2412603%" y2="97.5257829%" id="linearGradient-3">
            <stop stop-color="#D4E1F4" offset="0%"></stop>
            <stop stop-color="#D4E1F4" offset="17.17%"></stop>
            <stop stop-color="#D4E1F4" offset="20%"></stop>
            <stop stop-color="#DAE4F4" offset="20.01%"></stop>
            <stop stop-color="#EBEBF4" offset="20.07%"></stop>
            <stop stop-color="#F6F1F4" offset="20.14%"></stop>
            <stop stop-color="#FDF4F4" offset="20.23%"></stop>
            <stop stop-color="#FFF5F4" offset="20.5%"></stop>
            <stop stop-color="#FFF5F4" offset="25.22%"></stop>
            <stop stop-color="#FFF5F4" offset="26%"></stop>
            <stop stop-color="#D4E1F4" offset="26%"></stop>
            <stop stop-color="#D4E1F4" offset="39.74%"></stop>
            <stop stop-color="#D4E1F4" offset="42%"></stop>
            <stop stop-color="#DAE4F4" offset="42.01%"></stop>
            <stop stop-color="#EBEBF4" offset="42.07%"></stop>
            <stop stop-color="#F6F1F4" offset="42.14%"></stop>
            <stop stop-color="#FDF4F4" offset="42.23%"></stop>
            <stop stop-color="#FFF5F4" offset="42.5%"></stop>
            <stop stop-color="#FFF5F4" offset="48.94%"></stop>
            <stop stop-color="#FFF5F4" offset="50%"></stop>
            <stop stop-color="#F9F2F4" offset="50%"></stop>
            <stop stop-color="#E8EBF4" offset="50.01%"></stop>
            <stop stop-color="#DDE5F4" offset="50.03%"></stop>
            <stop stop-color="#D6E2F4" offset="50.05%"></stop>
            <stop stop-color="#D4E1F4" offset="50.1%"></stop>
            <stop stop-color="#D4E1F4" offset="70.62%"></stop>
            <stop stop-color="#D4E1F4" offset="74%"></stop>
            <stop stop-color="#FFF5F4" offset="74.1%"></stop>
            <stop stop-color="#FFF5F4" offset="83.46%"></stop>
            <stop stop-color="#FFF5F4" offset="85%"></stop>
            <stop stop-color="#D4E1F4" offset="85.1%"></stop>
        </linearGradient>
    </defs>
    <g id="Page-1" stroke="none" stroke-width="1" fill="none" fill-rule="evenodd">
        <g id="sonata" transform="translate(-1081.000000, -2658.000000)">
            <g id="vyhody" transform="translate(-239.000000, 921.000000)">
                <g id="make-money" transform="translate(584.000000, 1343.000000)">
                    <g id="schema-uroky" transform="translate(589.000000, 380.000000)">
                        <g id="Group-30" transform="translate(147.000000, 14.000000)">
                            <g id="mortgage" transform="translate(15.000000, 0.000000)" fill-rule="nonzero">
                                <g id="Group" transform="translate(0.933333, 0.933333)">
                                    <path d="M3.05807837,28.3401216 L3.19966474,28.2563904 L6.55709333,26.3133696 L11.0309017,23.7171648 C11.0389236,23.70144 11.0551011,23.6917632 11.0726155,23.692032 C12.7721867,22.4357952 15.2631174,22.477728 18.0457776,24.0940224 C18.1707854,24.1694208 18.2956595,24.236352 18.412378,24.3200832 L22.1946994,27.6114048 C25.24382,31.1455872 27.3349931,35.9946048 27.3349931,40.1987712 C27.3349931,43.3058304 26.1853225,45.4414464 24.3524542,46.3208256 C24.3361431,46.3368192 24.3160883,46.3482432 24.2941618,46.3542912 L19.6536318,49.0511616 L16.3462064,50.9690496 L3.05807837,28.3401216 Z" id="Shape" fill="#A4C2F7"></path>
                                    <path d="M0.0978670647,34.4378496 C0.0978670647,28.522368 4.25694992,26.1406656 9.38735002,29.1182976 C14.5177501,32.0959296 18.676833,39.3051456 18.676833,45.2207616 C18.676833,51.1363776 14.5178838,53.5179456 9.38735002,50.540448 C4.25694992,47.5626816 0.0978670647,40.3533312 0.0978670647,34.4378496 Z" id="Shape" fill="url(#linearGradient-1)"></path>
                                    <g transform="translate(18.316650, 38.035200)" fill="#A4C2F7" id="Shape">
                                        <path d="M4.4417208,7.8239616 C4.88332587,8.2176192 5.32479725,8.5944768 5.77469161,8.9462016 C6.57634587,9.58944 7.41650521,10.1822784 8.29062388,10.7216256 L8.56256597,15.243648 C7.08199237,14.8352064 5.66104816,14.2332288 4.33623294,13.4531712 C2.82744902,12.5592768 1.41158534,11.5156608 0.1098999,10.3377792 L4.4417208,7.8239616 Z"></path>
                                        <polyline points="11.0599142 5.67387113 11.2641152 5.51961658 11.3152601 5.4681984"></polyline>
                                        <path d="M11.0597805,5.5798848 L11.2013669,5.4961536 L14.5587955,3.5531328 L19.0326038,0.956928 C19.0406257,0.9412032 19.0566695,0.9315264 19.0741839,0.9317952 C19.1971863,0.9316608 19.5095052,0.6456576 19.6322401,0.5808768 C19.8671478,0.4570944 20.112484,0.3546816 20.3654409,0.2747136 C20.8765691,0.1166592 21.4093563,0.0405888 21.9440153,0.0494592 C23.1812582,0.086688 24.3930985,0.4116672 25.484343,0.9989952 C26.5739831,1.6519104 27.5871479,2.4260544 28.5047185,3.3066432 C32.3969398,6.7419072 35.2465827,11.9218176 35.3346898,17.2234944 C35.3358931,17.2951296 35.3364279,17.3668992 35.3364279,17.4385344 C35.3364279,20.5455936 34.1867572,22.6812096 32.353889,23.5605888 C32.3375778,23.5765824 32.3175231,23.5880064 32.2955966,23.5940544 L27.6552003,26.2907904 L24.3477748,28.2086784 L11.0597805,5.5798848 Z"></path>
                                    </g>
                                    <path d="M26.4179573,49.7134848 C26.4179573,43.7980032 30.5769065,41.4163008 35.7074403,44.3937984 C40.8378404,47.3714304 44.9969233,54.5806464 44.9969233,60.4962624 C44.9969233,66.4118784 40.8378404,68.7934464 35.7074403,65.8158144 C30.5770402,62.8381824 26.4179573,55.6289664 26.4179573,49.7134848 Z" id="Shape" fill="url(#linearGradient-2)"></path>
                                    <polyline id="Shape" fill="#616160" points="16.4726672 5.52048 16.4603962 5.53753455 16.2173213 5.72615273"></polyline>
                                    <g transform="translate(6.283814, 0.000000)" fill="#A4C2F7" id="Shape">
                                        <path d="M4.91380905,25.6531968 C4.78880126,25.066944 4.68892872,24.4806912 4.60550106,23.9029056 C4.43142604,22.7582208 4.34224935,21.602112 4.3389069,20.4441216 C4.3389069,16.6670784 5.30527731,13.7945472 6.97155768,11.8766592 L6.97409794,11.8296192 C2.76086733,12.77136 0.00708600332,16.5888576 0.00708600332,22.9600896 C0.0229960862,24.7106496 0.215521459,26.4551616 0.581587065,28.1667456 L4.91380905,25.6531968 Z"></path>
                                        <path d="M9.93323967,5.6275968 L10.074826,5.5438656 L13.4322546,3.6008448 L17.906063,1.00464 C17.9139512,0.9889152 17.9301287,0.9792384 17.9476431,0.9795072 C18.0706454,0.9793728 18.3829644,0.6933696 18.5056993,0.6285888 C18.740607,0.5048064 18.9859432,0.4023936 19.2389001,0.3224256 C19.7500282,0.1643712 20.2828155,0.0883008 20.8174745,0.0971712 C22.0547174,0.1344 23.2665576,0.4593792 24.3578022,1.0467072 C25.4474423,1.6996224 26.4606071,2.4737664 27.3781776,3.3543552 C31.2703989,6.7896192 34.1200419,11.9695296 34.208149,17.2712064 C34.2093522,17.3428416 34.209887,17.4146112 34.209887,17.4862464 C34.209887,20.5933056 33.0602164,22.7289216 31.2273481,23.6083008 C31.2110369,23.6242944 31.1909822,23.6357184 31.1690557,23.6417664 L26.5286594,26.3385024 L23.221234,28.2563904 L9.93323967,5.6275968 Z"></path>
                                    </g>
                                    <path d="M13.2579122,11.727744 C13.2579122,5.8122624 17.4168614,3.43056 22.5473952,6.408192 C27.677929,9.385824 31.8368781,16.59504 31.8368781,22.510656 C31.8368781,28.426272 27.6777953,30.80784 22.5473952,27.8303424 C17.4169951,24.8528448 13.2579122,17.64336 13.2579122,11.727744 Z" id="Shape" fill="url(#linearGradient-3)"></path>
                                    <path d="M36.1681642,20.2532736 C40.3813948,26.085696 43.1351762,33.0994944 43.1351762,39.4707264 C43.1449361,41.0028864 42.9517423,42.529536 42.5606751,44.0104896 L38.2316619,46.5229632 C38.622729,45.0420096 38.8159229,43.51536 38.8061629,41.9832 C38.8061629,35.611968 36.0523816,28.5980352 31.839151,22.7657472 L36.1681642,20.2532736 Z" id="Shape" fill="#A4C2F7"></path>
                                </g>
                                <g id="Group" transform="translate(1.866667, 0.933333)" fill="#FFFFFF">
                                    <polygon id="Shape" points="31.2570583 45.461954 31.1016 45.5506318 31.13345 45.535554"></polygon>
                                    <polygon id="Shape" points="29.3371694 43.7201076 29.3050667 43.735441 29.460525 43.6467632"></polygon>
                                    <path d="M28.5598667,55.2220569 C28.0972,55.0960862 27.6244,54.9348167 27.1473333,54.7564368 C28.332,58.4442126 30.4608,61.7498996 33.318,64.3380251 C31.0457333,61.7189121 29.4157333,58.5959163 28.5598667,55.2220569 Z" id="Shape"></path>
                                    <path d="M44.7590667,40.6264301 C44.9934667,40.7254552 45.2257333,40.8282527 45.4430667,40.9447925 C46.5297333,41.5993013 47.5401333,42.3753347 48.4550667,43.2580728 L48.4728,43.2746444 C47.906,42.626872 47.3,42.015072 46.6585333,41.442882 C46.0468,40.9001975 45.3888,40.317364 44.6990667,39.8122686 C44.7173333,40.0832067 44.75,40.3571088 44.7590667,40.6264301 Z" id="Shape"></path>
                                    <path d="M1.85906667,36.3370937 C1.85906667,33.1963138 3.02973333,31.0626259 4.88426667,30.1811004 L4.95253333,30.1405473 L8.29333333,28.1972301 C8.12853333,27.0827598 8.04226667,25.9580502 8.03493333,24.8311849 C8.03493333,20.6577146 9.21306667,17.5855113 11.1982667,15.6884059 C11.5845333,14.2984167 12.2617333,13.0082611 13.1838667,11.9055121 L13.1865333,11.8583573 C8.9848,12.8025314 6.2384,16.6292117 6.2384,23.0159941 C6.2456,24.1427247 6.332,25.267569 6.4968,26.3820393 L3.156,28.3253565 L3.08773333,28.3659096 C1.23306667,29.2474351 0.0625333333,31.381123 0.0625333333,34.5219029 C0.0625333333,39.5351331 3.0312,45.4653222 7.03906667,48.9857657 C3.97346667,45.4464603 1.85906667,40.5659372 1.85906667,36.3370937 Z" id="Shape"></path>
                                    <path d="M14.9832,13.6736828 L14.9805333,13.7208377 C14.4870667,14.3025933 14.0674667,14.9443029 13.7312,15.6310117 C14.6062667,18.8892745 16.2036,21.9035448 18.4022667,24.4454586 L18.3270667,24.3795766 C18.2106667,24.295641 18.086,24.2285464 17.9614667,24.152964 C15.8642667,22.9284209 13.9346667,22.6081724 12.3848,23.0667866 C12.4128,23.9410368 12.4878667,24.8131314 12.61,25.6791632 L12.7622667,25.5903774 C12.7701333,25.5746142 12.7862667,25.5647791 12.8037333,25.5650485 C14.4986667,24.3057456 16.9829333,24.3477808 19.7578667,25.9681548 C19.8824,26.0437372 20.0070667,26.1108318 20.1234667,26.1947674 L20.1986667,26.2606494 C17.1138667,22.7182452 14.9830667,17.8164351 14.9830667,13.571559 C14.9830667,10.445195 16.1429333,8.31662678 17.9826667,7.42755649 L18.0754667,7.37258745 L21.4237333,5.42482427 L25.8853333,2.82228285 C25.8932,2.80651967 25.9093333,2.79681925 25.9268,2.7970887 C26.0493333,2.79681925 26.3609333,2.51025272 26.4833333,2.44517908 C26.7176,2.32122929 26.9624,2.2184318 27.2146667,2.13826862 C27.7244,1.97982845 28.2557333,1.90370711 28.7890667,1.91246444 C30.0229333,1.94991883 31.2313333,2.27569121 32.3194667,2.86431799 C33.4062667,3.51882678 34.4166667,4.29472552 35.3316,5.17759833 L35.3497333,5.19443933 C34.7828,4.54653222 34.1768,3.93473222 33.5352,3.3622728 C32.6201333,2.47953473 31.6097333,1.70350126 30.5230667,1.04899247 C29.4348,0.46036569 28.2264,0.134458577 26.9926667,0.0971389121 C26.4593333,0.0882468619 25.9281333,0.164502929 25.4182667,0.322943096 C25.166,0.403106276 24.9213333,0.505903766 24.6870667,0.629853556 C24.5646667,0.694927197 24.2532,0.981493724 24.1305333,0.98176318 C24.1130667,0.981358996 24.0969333,0.991194142 24.0890667,1.00695732 L19.6274667,3.60949874 L16.2792,5.55726192 L16.1864,5.61223096 C14.3465333,6.50143598 13.1866667,8.63000418 13.1866667,11.7563682 C13.1974667,12.5726854 13.2768,13.3865774 13.4236,14.189287 C13.9256,13.9664469 14.4478667,13.7937255 14.9832,13.6736828 Z" id="Shape"></path>
                                </g>
                                <g id="Group">
                                    <polyline id="Shape" fill="#616160" points="17.5254301 6.33784276 17.5131975 6.3548555 17.2708846 6.54301138"></polyline>
                                    <path d="M6.36932692,23.7056187 C6.33755769,21.6212325 6.69280769,19.5489632 7.41703846,17.5942285 C8.16940385,15.5393268 9.60534615,13.8055246 11.4840385,12.6837635 C12.3008846,12.2221073 13.1799231,11.8809476 14.0942308,11.6705164 L14.4879808,13.4413427 C13.7540577,13.611384 13.0481346,13.8852273 12.3914808,14.2543906 C10.8662885,15.1713752 9.70482692,16.5871745 9.10336538,18.2621422 C8.46407692,20.0044263 8.15203846,21.8499737 8.18313462,23.7056187 L6.36932692,23.7056187 Z" id="Shape" fill="#FFFFFF"></path>
                                    <g fill="#428DFF" id="Shape">
                                        <path d="M46.0597308,39.4578001 C45.78875,39.3035109 45.5187115,39.1647044 45.2505577,39.0342451 C44.8749808,33.7925832 43.2811346,28.7108652 40.5960962,24.1937975 C42.0150769,22.5794147 42.7409231,20.4707945 42.6164038,18.3248811 C42.6164038,12.1122469 38.2174423,4.52231839 32.81075,1.40637505 C29.8076154,-0.328773489 26.8991154,-0.465156595 24.8295385,1.03613463 C24.8233462,1.04003899 24.8189038,1.04596283 24.8129808,1.05000182 L16.9420192,5.59507316 C16.8131923,5.65660039 16.6796538,5.70654919 16.5552692,5.77844314 C14.6596154,6.87300845 13.5666731,9.03009643 13.4152308,11.8791974 C12.7440385,12.0757614 12.0964038,12.3455657 11.4841731,12.6838981 C11.1916538,12.8519199 10.9100385,13.0382519 10.6412115,13.2418168 C10.4312115,13.3837198 10.2936346,13.6101723 10.2644231,13.8618012 C10.2350769,14.1135647 10.3170577,14.3654628 10.4888269,14.5517947 C10.8105577,14.8937622 11.3315192,14.9551548 11.7239231,14.6971982 C11.8262308,14.6121102 11.935,14.5349656 12.0488846,14.4663028 C11.1313462,16.5850204 10.682,18.8767413 10.7312692,21.1851566 C10.7350385,22.384197 10.8275192,23.5814872 11.0077692,24.7669297 L11.0084423,24.7733921 L11.0093846,24.7805276 C11.1050962,25.4413058 11.2095577,26.0347675 11.3300385,26.5936286 C11.4192885,27.0116637 11.7882692,27.3105487 12.2156731,27.3110872 C12.27975,27.3112218 12.3435577,27.3044902 12.4061538,27.2907576 C12.6413269,27.2406742 12.8470192,27.0990404 12.9777308,26.8972257 C13.1084423,26.695411 13.1535385,26.449706 13.1030577,26.214637 C13.0237692,25.844262 12.9684423,25.4756372 12.9077308,25.1066084 C14.3654808,24.2347259 16.4331731,24.4432723 18.6461154,25.7230924 L18.7613462,25.7904088 C18.8286538,25.8294524 18.8950192,25.866611 18.9580192,25.9109053 L18.9600385,25.9118477 C20.0400577,27.1522204 21.2863269,28.2373614 22.6631731,29.136709 C25.6373654,32.6001398 27.5583269,37.2755358 27.5583269,41.0764912 C27.5583269,43.6303423 26.6945,45.5244923 25.1908462,46.3192301 C24.9109808,46.0884694 24.6304423,45.8629593 24.3523269,45.6168504 C24.1101538,45.4004954 23.7707885,45.330217 23.4626538,45.432538 C23.1545192,45.534859 22.9245962,45.7942966 22.8599808,46.1125687 C22.7953654,46.4308408 22.9058846,46.759345 23.1496731,46.9738152 C23.6084423,47.3812143 24.0680192,47.7709765 24.5277308,48.1288307 C25.2183077,48.6746324 25.9358077,49.1854295 26.6775385,49.6593372 C26.6541154,49.9688582 26.6347308,50.2814758 26.6347308,50.6079605 C26.6399808,51.2081539 26.6823846,51.8075394 26.7616731,52.4024821 C25.8403654,52.0597068 24.9493462,51.6401908 24.0983077,51.1482422 C22.7903846,50.375988 21.5555577,49.4859301 20.4094423,48.4891083 C20.5750192,47.7060834 20.657,46.9077105 20.6540385,46.1074526 C20.6540385,39.901954 16.2550769,32.3137757 10.8474423,29.1915046 C10.1497308,28.7849133 9.41136538,28.452774 8.64432692,28.200472 C8.35288462,26.719645 8.19861538,25.2152572 8.18340385,23.7061572 L8.18326923,23.705888 C8.18421154,22.5570656 8.29419231,21.4109359 8.51159615,20.2829817 C8.59128846,19.806112 8.29715385,19.3462061 7.83084615,19.2185741 C7.59190385,19.1548928 7.33707692,19.1943402 7.12869231,19.3276268 C6.92030769,19.4609133 6.77734615,19.6753835 6.73467308,19.919069 C6.49263462,21.1668465 6.37040385,22.4349536 6.36946154,23.7060226 L6.36959615,23.7060226 L6.36959615,23.7061572 C6.37538462,24.7016327 6.44228846,25.6957619 6.57003846,26.6828902 L3.65830769,28.3606851 C3.54105769,28.4176348 3.41882692,28.4624676 3.30534615,28.5280338 C1.26040385,29.7087641 0.133942308,32.1153268 0.133942308,35.3057222 C0.133942308,41.510413 4.53290385,49.0984567 9.94053846,52.2216702 C11.3421538,53.0911293 12.9470385,53.5779618 14.5954038,53.6335652 C15.6074423,53.645009 16.6042692,53.3866485 17.4834423,52.885141 C17.5861538,52.8257679 17.6760769,52.749835 17.7742115,52.684538 C17.8007308,52.6724211 17.8287308,52.6662279 17.8545769,52.6512837 L20.6695192,51.0272073 C21.4747885,51.6423449 22.3169423,52.2073991 23.1914038,52.7194079 C24.4374038,53.4427904 25.7622885,54.0207693 27.1400769,54.4423049 C28.4373654,59.6645796 32.1127692,65.0245838 36.4413269,67.5237739 C37.8429423,68.393233 39.4478269,68.8800655 41.0961923,68.9356689 C42.1082308,68.9471127 43.1050577,68.6887522 43.9842308,68.1872447 C44.0889615,68.1267945 44.1809038,68.0493806 44.2806538,67.9824681 C44.3046154,67.9712936 44.3300577,67.9659083 44.3534808,67.952445 L52.4170769,63.2960322 L52.423,63.2907815 C54.6137308,62.2036211 55.8702308,59.6921793 55.8702308,56.3792681 C55.8698269,50.1663647 51.471,42.5764361 46.0597308,39.4578001 Z M10.8471731,50.649966 C5.93990385,47.81554 1.94748077,40.932434 1.94748077,35.3053183 C1.94748077,32.7906454 2.75167308,30.9413281 4.21198077,30.0979878 C4.24051923,30.0814279 4.27188462,30.0702534 4.30096154,30.054636 C4.36396154,30.035922 4.42467308,30.0103418 4.48201923,29.9784338 L4.61596154,29.9011545 C5.11753846,29.6940891 5.65573077,29.5900179 6.19836538,29.5948647 C7.52580769,29.6528915 8.81528846,30.0551745 9.94013462,30.7622664 C14.8474038,33.5948075 18.8398269,40.4788559 18.8398269,46.1069141 C18.8475,46.9160577 18.7464038,47.7225086 18.5396346,48.5048603 C18.5302115,48.5309791 18.5280577,48.5573671 18.5210577,48.5838898 C18.2565385,49.7141328 17.5580192,50.6949333 16.5762692,51.3142446 C15.0981923,52.1672785 13.0648269,51.9307285 10.8471731,50.649966 Z M12.6537115,23.2057268 C12.5888269,22.5181567 12.5449423,21.8394724 12.5449423,21.1848873 C12.4979615,19.1682214 12.8770385,17.1644803 13.6572692,15.3043925 C14.2031346,18.0483452 15.2630962,20.6643966 16.7811538,23.0142789 C15.4214038,22.6254591 13.9717308,22.6927756 12.6537115,23.2057268 Z M15.1983462,12.5559969 C15.1983462,10.041324 16.0025385,8.19200676 17.4620385,7.34866641 C17.4757692,7.34072307 17.4909808,7.33560702 17.5047115,7.32779831 C17.5827885,7.30733411 17.6577692,7.27650318 17.7276346,7.23611332 L17.9117885,7.12988798 C18.4011154,6.93682443 18.9232885,6.84029266 19.4493654,6.84554334 C20.7768077,6.90357011 22.0662885,7.30585315 23.1911346,8.01294503 C28.0984038,10.8454862 32.0908269,17.7295345 32.0908269,23.3575927 C32.0908269,25.8722656 31.2866346,27.720775 29.8271346,28.5639808 C28.3516154,29.4160723 26.3165,29.1814071 24.0980385,27.9005099 C19.1907692,25.0670264 15.1983462,18.1831127 15.1983462,12.5559969 Z M33.6214038,25.8890947 C33.69275,26.0005708 33.7666538,26.111239 33.8367885,26.2232535 L33.4830192,26.427357 C33.5349808,26.253142 33.5788654,26.0717916 33.6214038,25.8890947 Z M26.0056731,30.6262872 C26.6063269,30.7865003 27.2243462,30.8729346 27.846,30.8837053 C28.8580385,30.8947452 29.8547308,30.6365193 30.7340385,30.1352811 C30.8433462,30.0721383 30.9393269,29.9917624 31.0433846,29.9217533 C31.0615577,29.9127329 31.0810769,29.9090979 31.0989808,29.8988658 L34.7607885,27.784591 C36.7089423,31.1588949 38.0610192,34.8437968 38.7577885,38.677468 C38.5247692,38.7983683 38.3003654,38.9354246 38.0864615,39.0875597 L38.0837692,39.0897138 L30.191,43.6469021 C30.0627115,43.7082947 29.9295769,43.7581089 29.8057308,43.8298682 C29.4355385,44.0502622 29.0928077,44.3137388 28.7846731,44.6147779 C29.1878462,43.4791496 29.3865385,42.2810516 29.3717308,41.0760873 C29.2311923,37.3495839 28.0663654,33.7340179 26.0056731,30.6262872 Z M37.3478269,44.4932044 C36.4356731,43.9549422 35.44975,43.5526591 34.4214231,43.2992801 L39.0126154,40.6484933 C39.0709038,41.3106178 39.1057692,41.9657414 39.1057692,42.6084788 C39.1056346,43.5820091 39.0228462,44.5537892 38.8584808,45.5133177 C38.3764231,45.1424042 37.8718846,44.801783 37.3478269,44.4932044 Z M26.7167115,47.5021146 C26.8919808,47.3686934 27.0587692,47.2247709 27.2164038,47.0708855 C27.14075,47.2771431 27.0725,47.4899977 27.0117885,47.7094493 C26.9131154,47.6410558 26.8151154,47.5721237 26.7167115,47.5021146 Z M37.3478269,65.9520697 C33.2894423,63.6087844 29.8640192,58.4965047 28.7978654,53.6143127 C28.7963846,53.6027342 28.7931538,53.5923675 28.7914038,53.5810583 C28.57225,52.6047007 28.4571538,51.6080135 28.4482692,50.607422 C28.4482692,48.0927491 29.2524615,46.2434318 30.7127692,45.4000915 C30.7267692,45.3918789 30.74225,45.3867628 30.7563846,45.3788195 C30.8337885,45.3583553 30.9082308,45.327659 30.9775577,45.2875384 L31.1596923,45.1823901 C31.6495577,44.9886534 32.1724038,44.8917177 32.6992885,44.8969684 C34.0267308,44.9549952 35.3162115,45.3572782 36.4410577,46.0643701 C37.3087885,46.5754365 38.1205192,47.1761684 38.8629231,47.856603 L38.8827115,47.873836 C42.6050962,51.2439662 45.34075,56.7528743 45.34075,61.4090178 C45.34075,63.9236907 44.5365577,65.7730079 43.0770577,66.6163483 C41.5988462,67.4684398 39.5654808,67.2328322 37.3478269,65.9520697 Z M51.5700769,61.6925546 C51.5512308,61.701575 51.5327885,61.7116725 51.5148846,61.7227124 L51.5097692,61.7244626 L46.7315962,64.4836288 C47.0212885,63.4847875 47.1637115,62.4490568 47.1542885,61.4090178 C47.1542885,56.4416031 44.3324808,50.5943626 40.4341538,46.8547997 C40.7593846,45.4628304 40.9222692,44.0377414 40.9194423,42.6082095 C40.9194423,36.4016338 38.3583846,29.2897866 33.8911731,23.0521107 C33.7518462,16.9045042 29.4177692,9.51315919 24.0977692,6.44151007 C23.1854808,5.90311319 22.1995577,5.50083015 21.1709615,5.24758571 L25.7910962,2.57970058 C25.8030769,2.57269968 25.8094038,2.56071735 25.82125,2.55317791 C25.8384808,2.54227264 25.8559808,2.53217518 25.8726731,2.51951969 C27.3383654,1.44339909 29.5355577,1.60899753 31.9046538,2.97740611 C36.8109808,5.80563899 40.8025962,12.6904951 40.8025962,18.3246118 C40.8816154,19.8279225 40.4639038,21.3154812 39.6139423,22.5577388 C39.1325577,21.797063 38.6245192,21.046754 38.0898269,20.3068117 C37.7951538,19.9021053 37.2282885,19.8125744 36.8232308,20.1067472 C36.4181731,20.4009201 36.3278462,20.9677245 36.6214423,21.3732387 C40.8466154,27.1920717 43.3138462,33.7955452 43.4504808,39.584355 C43.4498077,39.6063002 43.4514231,39.626899 43.4522308,39.6487096 C43.4551923,39.7957287 43.4638077,39.9447673 43.4638077,40.0907093 C43.4724231,41.5455522 43.2886731,42.9950097 42.9174038,44.4016541 C42.8544038,44.6337611 42.8861731,44.881351 43.0057115,45.090032 C43.12525,45.2987129 43.3228654,45.451252 43.5550769,45.5141255 C43.6326154,45.5355322 43.7128462,45.5463028 43.7933462,45.5460335 C44.2024423,45.5456296 44.5605192,45.2712478 44.6674038,44.8763696 C44.996,43.6380164 45.19025,42.3677552 45.2467885,41.0878004 C50.1119231,43.9478066 54.0558846,50.7788096 54.0558846,56.3785949 C54.0561538,59.0016473 53.1500577,60.9387452 51.5700769,61.6925546 Z"></path>
                                        <path d="M25.5291346,24.1158451 C25.5506731,24.1282313 25.5739615,24.1329435 25.5960385,24.1435795 C25.6206731,24.1552925 25.6450385,24.1648515 25.6708846,24.1744104 C25.7699615,24.2135886 25.8752308,24.2348606 25.9817115,24.237284 L25.9826538,24.237284 L25.9842692,24.2370147 C26.0903462,24.2344567 26.1952115,24.2133193 26.2940192,24.1744104 C26.3194615,24.1651207 26.3434231,24.1561003 26.3677885,24.1445219 C26.4613462,24.1025164 26.5470962,24.0447589 26.6211346,23.9738074 C26.6261154,23.9689606 26.6290769,23.9624982 26.6337885,23.9573822 C26.6854808,23.9051446 26.7307115,23.8468486 26.7682692,23.7838404 C26.7776923,23.7674152 26.7772885,23.7488359 26.7855,23.7321414 C26.8311346,23.6201268 26.8625,23.5028616 26.8789231,23.3830383 C26.88,23.3647283 26.8895577,23.3489762 26.8895577,23.3303969 L26.8895577,20.4446758 L27.5361154,21.5598399 C27.7875769,21.9932231 28.3425962,22.1407808 28.7760577,21.8892865 C29.2093846,21.6377923 29.3569231,21.082701 29.1054615,20.6491831 L24.4294615,12.5835966 C24.1789423,12.1533099 23.6287692,12.0048099 23.1958462,12.2505149 L18.5189038,14.9147649 C18.2372885,15.0752473 18.0626923,15.3737284 18.0608077,15.6977897 C18.0589231,16.0218511 18.2301538,16.3223517 18.5098846,16.4860652 C18.7896154,16.6497788 19.1354423,16.6517983 19.4170577,16.4913159 L20.4001538,15.9312431 L20.4001538,20.6303345 C20.405,20.66682 20.4122692,20.7030363 20.4219615,20.7385793 C20.4297692,20.8588065 20.4682692,20.9751293 20.5338269,21.0762386 C20.5610192,21.1267259 20.5930577,21.174386 20.6296731,21.2185455 C20.6718077,21.2644554 20.7186538,21.3057877 20.7694038,21.3417346 C20.7957885,21.3682573 20.8239231,21.3930298 20.8535385,21.4159173 L25.5291346,24.1158451 Z M23.3114808,14.2725661 L25.0756154,17.3158077 L25.0756154,21.7590966 L22.2132885,20.106478 L22.2132885,14.8980704 L23.3114808,14.2725661 Z"></path>
                                        <path d="M11.3006923,40.2237266 L11.3006923,36.913508 C11.4921154,37.2025648 11.6675192,37.5019883 11.8258269,37.8104322 L11.8258269,39.3736546 C11.8258269,39.8746235 12.2318269,40.2806763 12.7327308,40.2806763 C13.2336346,40.2806763 13.6396346,39.8746235 13.6396346,39.3736546 L13.6396346,35.7969975 C13.6397692,35.5564086 13.5443269,35.3256478 13.3741731,35.1554719 C13.2040192,34.9852959 12.9732885,34.8898412 12.7327308,34.8899758 C12.5372692,34.8940148 12.3485385,34.9625429 12.1960192,35.0847896 C11.9281346,34.7779613 11.6279423,34.5010214 11.3006923,34.2585476 L11.3006923,33.553206 C11.3008269,33.312617 11.2053846,33.0818563 11.0352308,32.9116803 C10.8650769,32.7415044 10.6343462,32.6460496 10.3937885,32.6461843 C9.94471154,32.6492808 9.56738462,32.984786 9.51165385,33.4305554 C8.84315385,33.2584946 8.13440385,33.3423709 7.52446154,33.6657591 C6.74571154,34.1422248 6.29959615,35.0149151 6.36959615,35.9253027 C6.36959615,37.9293131 7.88617308,40.060013 9.48701923,41.187698 L9.48701923,44.4870113 C9.29573077,44.1995701 9.12073077,43.9017622 8.96269231,43.5947992 L8.96269231,42.0376353 C8.96269231,41.5366664 8.55669231,41.1306136 8.05578846,41.1306136 C7.55488462,41.1306136 7.14888462,41.5366664 7.14888462,42.0376353 L7.14888462,45.6142924 C7.14875,45.8548814 7.24419231,46.0856421 7.41434615,46.2558181 C7.5845,46.425994 7.81523077,46.5214487 8.05578846,46.5213141 C8.25690385,46.5175444 8.45088462,46.4456504 8.60582692,46.3173453 C8.87007692,46.6179805 9.16555769,46.8896697 9.48701923,47.1279699 L9.48701923,47.8587571 C9.48688462,48.0993461 9.58232692,48.3301068 9.75248077,48.5002828 C9.92263462,48.6704587 10.1533654,48.7659135 10.3939231,48.7657788 C10.8435385,48.7625476 11.221,48.4263693 11.2761923,47.9800613 C11.5175577,48.0379535 11.7645769,48.0694576 12.0128077,48.0739005 C12.4520577,48.0807667 12.88525,47.9703678 13.2676923,47.7541474 C14.0471154,47.2748543 14.4920192,46.3987982 14.4190577,45.4866604 C14.4189231,43.4829193 12.9020769,41.3520847 11.3006923,40.2237266 Z M8.18326923,35.9254373 C8.18326923,35.6765011 8.22580769,35.3549978 8.43123077,35.237194 C8.77867308,35.1154859 9.16098077,35.1436242 9.48688462,35.3146079 L9.48688462,38.7569014 C8.74569231,37.9869359 8.28625,36.9891717 8.18326923,35.9254373 Z M12.3607885,46.1840587 C12.0101154,46.2986313 11.6279423,46.2672619 11.3006923,46.0969513 L11.3006923,42.6551964 C12.0420192,43.4251618 12.5017308,44.4230607 12.60525,45.4870643 C12.6051154,45.7403088 12.5627115,46.0671974 12.3607885,46.1840587 Z"></path>
                                        <path d="M37.8013462,55.5259649 L37.8013462,52.2154771 C37.9927692,52.5045339 38.1681731,52.8039574 38.3264808,53.1124013 L38.3264808,54.6756237 C38.3264808,55.1765926 38.7324808,55.5826454 39.2333846,55.5826454 C39.7342885,55.5826454 40.1402885,55.1765926 40.1402885,54.6756237 L40.1402885,51.0989666 C40.1404231,50.8583776 40.0449808,50.6276169 39.8748269,50.4574409 C39.7046731,50.287265 39.4739423,50.1918103 39.2333846,50.1919449 C39.0379231,50.1959839 38.8491923,50.264512 38.6966731,50.3867587 C38.4287885,50.0799303 38.1285962,49.8029905 37.8013462,49.5605167 L37.8013462,48.8553097 C37.8014808,48.6147207 37.7060385,48.38396 37.5358846,48.213784 C37.3657308,48.0436081 37.135,47.9481533 36.8944423,47.948288 C36.4453654,47.9513845 36.0680385,48.2868897 36.0123077,48.7326591 C35.3438077,48.5605983 34.6350577,48.6444746 34.0251154,48.9678628 C33.2463654,49.4443285 32.80025,50.3170188 32.87025,51.2274064 C32.87025,53.2314168 34.3868269,55.3619821 35.9876731,56.4898017 L35.9876731,59.7892496 C35.7963846,59.5018084 35.6213846,59.2040005 35.4633462,58.8970376 L35.4633462,57.3398737 C35.4633462,56.8389047 35.0573462,56.432852 34.5564423,56.432852 C34.0555385,56.432852 33.6495385,56.8389047 33.6495385,57.3398737 L33.6495385,60.9165307 C33.6494038,61.1571197 33.7448462,61.3878804 33.915,61.5580564 C34.0851538,61.7282324 34.3158846,61.8236871 34.5564423,61.8235524 C34.7575577,61.8197827 34.9515385,61.7478888 35.1064808,61.6195836 C35.3707308,61.9202188 35.6662115,62.191908 35.9876731,62.4302082 L35.9876731,63.1609955 C35.9875385,63.4015844 36.0829808,63.6323452 36.2531346,63.8025211 C36.4232885,63.9726971 36.6540192,64.0681518 36.8945769,64.0680172 C37.3441923,64.064786 37.7216538,63.7286077 37.7768462,63.2822997 C38.0182115,63.3401918 38.2652308,63.3716959 38.5134615,63.3761388 C38.9527115,63.3827358 39.3857692,63.2723368 39.7683462,63.0563857 C40.5477692,62.5770927 40.9926731,61.7010365 40.9197115,60.7888988 C40.9195769,58.7856962 39.4027308,56.6551309 37.8013462,55.5259649 Z M34.6839231,51.227541 C34.6839231,50.9786048 34.7264615,50.6571015 34.9318846,50.5392977 C35.2793269,50.417455 35.6616346,50.4454586 35.9875385,50.6168463 L35.9875385,54.0591397 C35.2463462,53.2890396 34.7869038,52.2912754 34.6839231,51.227541 Z M38.8614423,61.4861624 C38.5107692,61.6010043 38.1285962,61.5696348 37.8013462,61.3991896 L37.8013462,57.9573001 C38.5426731,58.7272655 39.0023846,59.7251644 39.1059038,60.789168 C39.1057692,61.0424125 39.0632308,61.3693011 38.8614423,61.4861624 Z"></path>
                                        <path d="M9.31188462,15.9262617 C9.10969231,15.7893401 8.85998077,15.7412762 8.62144231,15.7935137 C8.37778846,15.87187 8.17128846,16.0370646 8.04151923,16.2575932 C7.91753846,16.4831033 7.88940385,16.7491379 7.96344231,16.9956507 L8.03694231,17.1568062 C8.06709615,17.2102555 8.10478846,17.2589926 8.14880769,17.3016712 C8.18394231,17.3470425 8.22621154,17.3864899 8.27386538,17.4185326 C8.32421154,17.4523254 8.37684615,17.4824832 8.4315,17.5086019 C8.652,17.6006908 8.89753846,17.6142888 9.12692308,17.5472416 C9.23367308,17.5107561 9.33248077,17.4543449 9.41809615,17.3808353 C9.68113462,17.167173 9.79313462,16.8183392 9.70361538,16.4914506 C9.67090385,16.3798399 9.62082692,16.2741531 9.55526923,16.1781598 C9.49051923,16.0797432 9.408,15.9942513 9.31188462,15.9262617 Z"></path>
                                    </g>
                                </g>
                            </g>
                            <g id="Group-5" transform="translate(0.000000, 6.000000)" fill="#FFCF80">
                                <polygon id="Shape" points="9.76772221 12.5555056 7.99993384 9 6.23227779 12.5555056 3 14.4999272 6.23227779 16.44464 7.99993384 20 9.76772221 16.44464 13 14.4999272"></polygon>
                                <polygon id="Shape" points="82.4142591 53.9091534 81 51 79.5858718 53.9091534 77 55.5000736 79.5858718 57.0911411 81 60 82.4142591 57.0911411 85 55.5000736"></polygon>
                                <polygon id="Shape" points="5.41412819 28.9089585 4 26 2.58574093 28.9089585 0 30.5 2.58574093 32.0910415 4 35 5.41412819 32.0910415 8 30.5"></polygon>
                                <polygon id="Shape" points="68.3840413 1.61613953 67.5 0 66.616232 1.61613953 65 2.49993166 66.616232 3.38386047 67.5 5 68.3840413 3.38386047 70 2.49993166"></polygon>
                                <polygon id="Shape" points="79 31 75.4998692 32.0250477 72 31 73.0250477 34.4998692 72 38 75.4998692 36.9749523 79 38 77.9748215 34.4998692"></polygon>
                                <circle id="Oval-2-Copy" cx="85.5" cy="11.5" r="2.5"></circle>
                                <circle id="Oval-2-Copy-2" cx="12.5" cy="52.5" r="2.5"></circle>
                            </g>
                        </g>
                    </g>
                </g>
            </g>
        </g>
    </g>
</svg>