<?xml version="1.0" encoding="UTF-8"?>
<svg width="93px" height="67px" viewBox="0 0 93 67" version="1.1" xmlns="http://www.w3.org/2000/svg" xmlns:xlink="http://www.w3.org/1999/xlink">
    <!-- Generator: sketchtool 50.2 (55047) - http://www.bohemiancoding.com/sketch -->
    <title>E2821000-5810-4E3F-950B-E90B1B4894B2</title>
    <desc>Created with sketchtool.</desc>
    <defs>
        <linearGradient x1="10.344125%" y1="-0.164367879%" x2="89.654008%" y2="93.1756883%" id="linearGradient-1">
            <stop stop-color="#D4E1F4" offset="0%"></stop>
            <stop stop-color="#D4E1F4" offset="17.17%"></stop>
            <stop stop-color="#D4E1F4" offset="20%"></stop>
            <stop stop-color="#DAE4F4" offset="20.01%"></stop>
            <stop stop-color="#EBEBF4" offset="20.07%"></stop>
            <stop stop-color="#F6F1F4" offset="20.14%"></stop>
            <stop stop-color="#FDF4F4" offset="20.23%"></stop>
            <stop stop-color="#FFF5F4" offset="20.5%"></stop>
            <stop stop-color="#FFF5F4" offset="25.22%"></stop>
            <stop stop-color="#FFF5F4" offset="26%"></stop>
            <stop stop-color="#D4E1F4" offset="26%"></stop>
            <stop stop-color="#D4E1F4" offset="39.74%"></stop>
            <stop stop-color="#D4E1F4" offset="42%"></stop>
            <stop stop-color="#DAE4F4" offset="42.01%"></stop>
            <stop stop-color="#EBEBF4" offset="42.07%"></stop>
            <stop stop-color="#F6F1F4" offset="42.14%"></stop>
            <stop stop-color="#FDF4F4" offset="42.23%"></stop>
            <stop stop-color="#FFF5F4" offset="42.5%"></stop>
            <stop stop-color="#FFF5F4" offset="48.94%"></stop>
            <stop stop-color="#FFF5F4" offset="50%"></stop>
            <stop stop-color="#F9F2F4" offset="50%"></stop>
            <stop stop-color="#E8EBF4" offset="50.01%"></stop>
            <stop stop-color="#DDE5F4" offset="50.03%"></stop>
            <stop stop-color="#D6E2F4" offset="50.05%"></stop>
            <stop stop-color="#D4E1F4" offset="50.1%"></stop>
            <stop stop-color="#D4E1F4" offset="70.62%"></stop>
            <stop stop-color="#D4E1F4" offset="74%"></stop>
            <stop stop-color="#FFF5F4" offset="74.1%"></stop>
            <stop stop-color="#FFF5F4" offset="83.46%"></stop>
            <stop stop-color="#FFF5F4" offset="85%"></stop>
            <stop stop-color="#D4E1F4" offset="85.1%"></stop>
        </linearGradient>
    </defs>
    <g id="Page-1" stroke="none" stroke-width="1" fill="none" fill-rule="evenodd">
        <g id="sonata" transform="translate(-506.000000, -2659.000000)">
            <g id="vyhody" transform="translate(-239.000000, 921.000000)">
                <g id="make-money" transform="translate(584.000000, 1343.000000)">
                    <g id="schema-fees" transform="translate(16.000000, 380.000000)">
                        <g id="Group-29" transform="translate(145.000000, 15.000000)">
                            <g id="for-sale" transform="translate(19.000000, 0.000000)" fill-rule="nonzero">
                                <g id="Group" transform="translate(1.000000, 1.000000)">
                                    <polygon id="Shape" fill="url(#linearGradient-1)" points="29.65935 13.9545234 29.65935 8.58256967 26.5065 6.7684623 21.64695 9.54972664 5.14395 0.0935766393 0.09135 2.98002172 0.09135 38.8903918 18.6345 49.504125 37.44045 60.2882004 45.85815 65.0989918 50.9007 62.2025791 50.9007 26.3021766"></polygon>
                                    <polygon id="Shape" fill="#A4C2F7" points="50.9007 26.3021766 50.9007 62.2025791 45.85815 65.0989918 45.85815 29.1886217"></polygon>
                                    <g fill="#D4E1F4" id="Shape">
                                        <polygon points="50.9007 26.3021766 45.85815 29.1886217 0.09135 2.98002172 5.14395 0.0935766393 21.65595 9.55478484 29.49765 14.0547947"></polygon>
                                        <polygon points="24.627 11.4590471 24.627 16.8409684 21.46395 15.0469451 21.46395 9.65490738 24.6168 11.4590471"></polygon>
                                    </g>
                                    <polygon id="Shape" fill="#E3E7F2" points="29.65935 8.58256967 29.65935 13.9545234 29.49765 14.0547947 24.627 16.8409684 24.627 11.4590471"></polygon>
                                    <polygon id="Shape" fill="#A4C2F7" points="29.65935 8.57245328 29.65935 8.58256967 24.627 11.4590471 24.6168 11.4590471 21.46395 9.65490738 26.5065 6.7684623"></polygon>
                                    <g transform="translate(4.250000, 25.009016)" fill="#A4C2F7" id="Shape">
                                        <path d="M15.5776,5.35831393 C15.4846,3.7158877 14.60755,2.21583484 13.2163,1.3200877 C11.9122,0.573408607 10.855,1.17057336 10.855,2.6541127 C10.948,4.29653893 11.82505,5.7965918 13.2163,6.69233893 C14.5204,7.4391668 15.5776,6.84185328 15.5776,5.35831393 Z"></path>
                                        <path d="M5.34565,10.2439369 C5.25265,8.60151066 4.3756,7.10145779 2.98435,6.20571066 C1.68025,5.45903156 0.62305,6.05619631 0.62305,7.53973566 C0.71605,9.18216189 1.5931,10.6822148 2.98435,11.5779619 C4.28845,12.3247898 5.34565,11.7274762 5.34565,10.2439369 Z"></path>
                                        <path d="M27.3838,18.3864434 C27.2908,16.7440172 26.41375,15.2439643 25.0225,14.3482172 C23.7184,13.6015381 22.66135,14.1987029 22.66135,15.6822422 C22.75435,17.3246684 23.6314,18.8247213 25.0225,19.7204684 C26.3266,20.4672963 27.3838,19.8699828 27.3838,18.3864434 Z"></path>
                                        <path d="M36.8287,13.0501947 C36.7357,11.4077684 35.85865,9.90771557 34.4674,9.01196844 C33.1633,8.26528934 32.1061,8.8624541 32.1061,10.3459934 C32.1991,11.9884197 33.07615,13.4884725 34.4674,14.3842197 C35.7715,15.1308988 36.8287,14.5335852 36.8287,13.0501947 Z"></path>
                                    </g>
                                </g>
                                <g id="Group" transform="translate(2.000000, 1.000000)" fill="#FFFFFF">
                                    <polygon id="Shape" points="2.073 4.94336066 7.1256 2.08062295 23.62845 11.4587705 28.48815 8.7004918 29.6199 9.34259016 29.6199 8.51163934 29.6199 8.50160656 26.46705 6.71252459 21.6075 9.47080328 5.1045 0.0928032787 0.0519 2.95539344 0.0519 38.5689836 2.073 39.7159672"></polygon>
                                    <polygon id="Shape" points="31.641 15.8271639 31.4793 15.9266066 50.86125 26.9257869 50.86125 26.0848033 31.641 15.1770984"></polygon>
                                    <polygon id="Shape" points="23.4456 54.4027869 21.4245 55.5338361 21.4245 61.8276393 23.4456 62.9806721"></polygon>
                                </g>
                                <g id="Group">
                                    <polygon id="Shape" fill="#FFFFFF" points="2.14889548 3.86694531 2.14889548 16.8669531 2.14889548 39.6929297 0.131601695 39.6929297 0.131601695 16.8669531 0.131601695 3.86694531"></polygon>
                                    <g fill="#428DFF" id="Shape">
                                        <path d="M0.63659887,40.5590625 L17.621452,50.2817188 L41.1827966,63.7691953 L46.3167599,66.7079609 C46.3766469,66.7388359 46.4356356,66.7628828 46.4962712,66.7812891 C46.6206864,66.8209219 46.6787768,66.8283438 46.7371667,66.8308672 C46.9985734,66.8418516 47.1722458,66.7956875 47.3252571,66.7079609 L52.3614548,63.8241172 C52.504435,63.7105625 52.5614774,63.6608359 52.6120819,63.6050234 C52.6887373,63.5075 52.7513192,63.3997344 52.7980311,63.2851406 C52.8209379,63.2149297 52.8356102,63.1423438 52.842048,63.0687188 C52.8482363,63.0452656 52.8554727,51.0668047 52.8637571,27.1333359 C52.8218362,26.8526406 52.7893475,26.75675 52.742935,26.6673906 C52.6499605,26.5182109 52.5833362,26.44325 52.5066808,26.3792734 C52.3930452,26.2945156 52.3786723,26.2780391 52.3595085,26.2670547 L31.6649548,14.4267891 L31.6649548,9.44092188 C31.6236328,9.15933594 31.5888983,9.05676563 31.5381441,8.96176563 C31.4656808,8.83796875 31.3867797,8.7495 31.2941045,8.67661719 C31.2352156,8.6328776 30.140032,7.99974219 28.0085537,6.77721094 C27.8483559,6.71145313 27.7615198,6.68295313 27.6719887,6.666625 C27.4643305,6.65296875 27.3780932,6.65920313 27.2936525,6.67657031 C27.1038107,6.73520313 27.0530565,6.752125 27.0039492,6.77335156 L22.6531582,9.26339063 L6.68488701,0.117710938 C6.49564407,0.04809375 6.43470904,0.0277578125 6.37227684,0.0135078125 C6.24441808,-0.0043046875 6.11476271,-0.004453125 5.98690395,0.0132109375 C5.92312429,0.027609375 5.86084181,0.048390625 5.80110452,0.0752578125 C5.77205932,0.0826796875 4.05055744,1.05776563 0.63659887,3.00051563 C0.536437853,3.07859375 0.484485876,3.12401563 0.437774011,3.17463281 C0.389714689,3.21886719 0.34629661,3.26785156 0.308118644,3.32069531 C0.198525424,3.5470625 0.176666667,3.61163281 0.161844633,3.67783594 C0.154658192,3.7194974 0.14472693,5.11584896 0.132050847,7.86689063 C0.132050847,8.41922656 0.58359887,8.86691406 1.14069774,8.86691406 C1.69779661,8.86691406 2.14934463,8.41922656 2.14934463,7.86689063 L2.14934463,5.59876563 L45.8125113,30.5922266 L45.8125113,64.1088203 L2.14919492,39.1152109 L2.14919492,15.8670781 C2.14919492,15.3147422 1.69764689,14.8670547 1.14054802,14.8670547 C0.583449153,14.8670547 0.13190113,15.3147422 0.13190113,15.8670781 L0.13190113,39.6930781 C0.142231638,40.0478438 0.328629944,40.3784141 0.63659887,40.5590625 Z M50.846613,62.3813047 L47.8296554,64.1088203 L47.8296554,30.5926719 L50.846613,28.8650078 L50.846613,62.3813047 Z M6.17884181,2.13809375 L21.4664972,10.8933828 L21.4664972,14.3467813 L3.15844068,3.86679687 L6.17884181,2.13809375 Z M27.5035565,8.79685156 L28.6388644,9.44403906 L25.6246017,11.1693281 L24.4894435,10.5218437 L27.5035565,8.79685156 Z M23.483791,12.2554453 L24.6170028,12.9018906 L24.6170028,16.1501484 L23.483791,15.5014766 L23.483791,12.2554453 Z M26.6341469,12.901 L29.647661,11.1761562 L29.647661,14.2378281 L26.6341469,15.9644531 L26.6341469,12.901 Z M27.4802006,17.7891953 L30.4895226,16.0637578 L49.8372175,27.1330391 L46.8208588,28.8602578 L27.4802006,17.7891953 Z M19.6459322,51.4407188 L21.9529294,52.7613672 L19.6459322,51.4407188 Z"></path>
                                        <path d="M1.14054802,12.8670078 C1.54837853,12.865375 1.91548588,12.6214922 2.07179096,12.2480234 C2.22824576,11.8745547 2.14335593,11.4445313 1.85664689,11.1570078 L1.7054322,11.0369219 C1.64913842,10.9989219 1.58805367,10.9684922 1.52367514,10.9465234 C1.46648305,10.9177266 1.40524859,10.8976875 1.34191808,10.887 C1.27529379,10.8757188 1.20807062,10.8690391 1.14054802,10.8669609 C0.873451977,10.8706719 0.617734463,10.9742813 0.424449153,11.1570078 C0.179661017,11.3907969 0.0723135593,11.7322031 0.139686441,12.0623281 C0.207059322,12.3924531 0.439870056,12.6657266 0.756822034,12.7868516 C0.878392655,12.8382109 1.00864689,12.8655234 1.14054802,12.8670078 Z"></path>
                                        <path d="M8.77299718,31.1695 C7.97605085,30.6360156 6.95003672,30.5723359 6.09230508,31.0035469 C5.29281356,31.5190703 4.83782203,32.4235 4.90339831,33.3668203 C5.00176271,35.3615234 6.06775141,37.1856719 7.76435028,38.2622891 C8.23775706,38.5466953 8.77808757,38.7028516 9.3314435,38.7154688 C9.72175706,38.7188828 10.1060819,38.6194297 10.4448927,38.4273516 C11.2446836,37.9124219 11.6999746,37.0081406 11.6342486,36.0651172 C11.6200254,35.4290625 11.4887232,34.800875 11.2467797,34.2115781 L16.1561667,31.5986328 C16.6172966,32.3249375 17.2401215,32.9369453 17.9770311,33.3873047 C18.4504379,33.6721563 18.9910678,33.8283125 19.5445734,33.8404844 C19.8597288,33.836625 20.1705424,33.7665625 20.4563531,33.63475 L26.9451102,41.0538047 C26.9207062,41.1983828 26.905435,41.3444453 26.8992966,41.4908047 C26.9978107,43.4855078 28.0639492,45.3096563 29.7606977,46.3862734 C30.2342542,46.671125 30.7750339,46.8272813 31.328839,46.8394531 C31.7188531,46.8427188 32.1028785,46.7435625 32.441839,46.552375 C33.2413305,46.0368516 33.696322,45.1324219 33.6307458,44.1891016 C33.6162232,43.5368672 33.4792316,42.8930938 33.2268079,42.2905859 L37.6746158,39.7064375 C38.0875367,40.2497188 38.6010678,40.709875 39.1879605,41.0622656 C39.6613672,41.3466719 40.2016977,41.5029766 40.7550537,41.5154453 C41.1452175,41.5188594 41.5293927,41.4194063 41.8680537,41.2273281 C42.6681441,40.7126953 43.1235847,39.8082656 43.0578588,38.8650938 C42.9593446,36.8703906 41.8932062,35.0460938 40.1964576,33.969625 C39.3989124,33.4374766 38.3734972,33.3739453 37.5153164,33.8036719 C36.7158249,34.3191953 36.2608333,35.223625 36.3264096,36.1669453 C36.3400339,36.7814766 36.4635508,37.3887344 36.6912712,37.9603672 L32.2100763,40.5639609 C31.811678,40.0573438 31.3232994,39.626875 30.7691949,39.2939297 C29.9722486,38.7598516 28.9457853,38.6963203 28.0880537,39.1279766 C28.0533192,39.1478672 28.0287655,39.1799297 27.9955282,39.2016016 L21.7343418,32.0437969 C21.8077034,31.7651797 21.8454322,31.4785469 21.8467797,31.1905781 C21.7482655,29.1957266 20.6821271,27.3715781 18.9853785,26.2951094 C18.211339,25.7113047 17.1601723,25.6433203 16.3162147,26.1224766 C15.4722571,26.6016328 14.9995989,27.5350078 15.1157797,28.4922813 C15.1220678,28.9280938 15.1871949,29.3610859 15.3096638,29.7798281 L10.2433729,32.4761953 C9.83928531,31.9538438 9.34057627,31.5109063 8.77299718,31.1695 Z M38.5244124,35.5356406 C38.558548,35.5196094 38.5961271,35.5121875 38.6337062,35.5141172 C38.8313333,35.5301484 39.0219237,35.5945703 39.1882599,35.7015938 C40.2635311,36.4175078 40.9468418,37.5839297 41.0410141,38.8646484 C41.0410141,39.2513281 40.9326186,39.4535 40.8607542,39.4955078 C40.7820028,39.5385547 40.5445508,39.5287578 40.1969068,39.3295547 C39.1214859,38.6137891 38.4381751,37.4472188 38.3441525,36.1665 C38.3441525,35.7798203 38.4515,35.5767578 38.5244124,35.5356406 Z M29.2064435,40.8394609 C29.4040706,40.85475 29.5948107,40.918875 29.7609972,41.0260469 C30.8364181,41.7418125 31.5197288,42.9083828 31.6137514,44.1891016 C31.6137514,44.5757813 31.506404,44.7789922 31.4334915,44.8199609 C31.3586328,44.8638984 31.1222288,44.8551406 30.7696441,44.6540078 C29.6943729,43.9380938 29.0110621,42.7716719 28.9168898,41.4909531 C28.9168898,41.1042734 29.0252853,40.9021016 29.0971497,40.8600938 C29.1312853,40.8443594 29.1688644,40.8372344 29.2064435,40.8394609 Z M17.3137825,27.8609766 C17.3477684,27.8449453 17.385048,27.8375234 17.4226271,27.8394531 C17.6202542,27.8553359 17.8108446,27.9197578 17.9771808,28.0269297 C19.0526017,28.7426953 19.7359124,29.9092656 19.829935,31.1899844 C19.829935,31.5766641 19.7221384,31.7788359 19.6496751,31.8208438 C19.5733192,31.8647813 19.3349689,31.8549844 18.9858277,31.6548906 C17.9105565,30.939125 17.2273955,29.7725547 17.1335226,28.4918359 C17.1335226,28.1050078 17.2413192,27.9019453 17.3137825,27.8609766 Z M9.43639548,36.6959766 C9.36258475,36.7390234 9.12273729,36.7301172 8.77299718,36.5300234 C7.69772599,35.8142578 7.01456497,34.6476875 6.92069209,33.3669688 C6.92069209,32.9802891 7.0284887,32.7770781 7.10095198,32.7361094 C7.13493785,32.7200781 7.17221751,32.7126563 7.20979661,32.7145859 C7.40742373,32.7304688 7.59801412,32.7948906 7.76435028,32.9020625 C8.83977119,33.6178281 9.52308192,34.7843984 9.61710452,36.0651172 C9.61710452,36.4516484 9.50930791,36.6538203 9.43639548,36.6959766 Z"></path>
                                        <path d="M43.1163983,54.8717031 L39.9733785,53.0729375 C39.490839,52.7971406 38.8743023,52.9611641 38.5958277,53.4394297 C38.3173531,53.9176953 38.4824915,54.5291094 38.9647316,54.8053516 L42.1077514,56.6041172 C42.590291,56.8799141 43.2068277,56.7158906 43.4853023,56.237625 C43.7637768,55.7593594 43.5986384,55.1479453 43.1163983,54.8717031 Z"></path>
                                        <path d="M43.1163983,58.4459297 L36.8312571,54.84825 C36.519096,54.6693828 36.1344718,54.6692344 35.822161,54.8479531 C35.5098503,55.0266719 35.317613,55.3569453 35.3177627,55.7143828 C35.3179124,56.0718203 35.5102994,56.4020937 35.8226102,56.5805156 L42.1077514,60.1781953 C42.590291,60.4539922 43.2068277,60.2899687 43.4853023,59.8117031 C43.7637768,59.3334375 43.5986384,58.7221719 43.1163983,58.4459297 Z"></path>
                                    </g>
                                </g>
                            </g>
                            <g id="Group-5" transform="translate(0.000000, 2.000000)" fill="#FFCF80">
                                <polygon id="Shape" points="8.76772221 19.5555056 6.99993384 16 5.23227779 19.5555056 2 21.4999272 5.23227779 23.44464 6.99993384 27 8.76772221 23.44464 12 21.4999272"></polygon>
                                <polygon id="Shape" points="84.4142591 53.9091534 83 51 81.5858718 53.9091534 79 55.5000736 81.5858718 57.0911411 83 60 84.4142591 57.0911411 87 55.5000736"></polygon>
                                <polygon id="Shape" points="5.41412819 42.9089585 4 40 2.58574093 42.9089585 0 44.5 2.58574093 46.0910415 4 49 5.41412819 46.0910415 8 44.5"></polygon>
                                <polygon id="Shape" points="66.3840413 1.61613953 65.5 0 64.616232 1.61613953 63 2.49993166 64.616232 3.38386047 65.5 5 66.3840413 3.38386047 68 2.49993166"></polygon>
                                <polygon id="Shape" points="88 22 84.4998692 23.0250477 81 22 82.0250477 25.4998692 81 29 84.4998692 27.9749523 88 29 86.9748215 25.4998692"></polygon>
                                <circle id="Oval-2-Copy" cx="90.5" cy="10.5" r="2.5"></circle>
                                <circle id="Oval-2-Copy-2" cx="19.5" cy="55.5" r="2.5"></circle>
                            </g>
                        </g>
                    </g>
                </g>
            </g>
        </g>
    </g>
</svg>