<svg xmlns="http://www.w3.org/2000/svg" xmlns:xlink="http://www.w3.org/1999/xlink" width="16" height="22" viewBox="0 0 16 22"><defs><path id="10tea" d="M686.87 374.25c-.1.23-.2.43-.34.6-.14.16-.33.3-.56.43a4.61 4.61 0 0 1-1.43.51 9.7 9.7 0 0 1-1.61.19 17.43 17.43 0 0 1-1.93 0v-4.95a37.8 37.8 0 0 0 1.56-.03 14.18 14.18 0 0 1 2 .18c.28.05.58.14.91.27.33.12.6.27.8.44.2.18.38.4.52.68.14.27.21.59.21.94 0 .27-.04.52-.13.74zm-5.87-9.23zm.55 0l.75-.02a8.75 8.75 0 0 1 2.43.35c.28.1.5.22.67.36.17.14.31.33.43.55.11.22.17.47.17.75 0 .24-.04.46-.13.66-.08.2-.2.37-.37.5-.17.13-.34.25-.52.35-.17.1-.4.18-.67.24l-.72.14c-.2.03-.46.06-.77.07a51.47 51.47 0 0 1-1.34.03l-.48-.01v-3.97h.55zm8.82 5.52a4 4 0 0 0-2.33-1.36c1.32-.67 1.9-1.8 1.74-3.41a3.04 3.04 0 0 0-1.58-2.54 6.07 6.07 0 0 0-1.5-.6c-.54-.14-1.17-.24-1.87-.3V359h-2.05v3.24c-.35 0-.9 0-1.62.03V359h-2.05v3.33l-1.29.02-2.82-.02v2.17h1.48c.67 0 1.07.3 1.18.9v3.8h.21-.2v5.32c-.08.45-.34.68-.78.68h-1.48l-.41 2.42h2.66a64.57 64.57 0 0 1 1.45 0V381h2.05v-3.33l1.62.01V381h2.05v-3.37c.73-.04 1.38-.1 1.94-.2s1.1-.25 1.62-.46a3.65 3.65 0 0 0 2.15-1.95c.22-.47.37-1.02.43-1.65.11-1.22-.09-2.17-.6-2.83z"/></defs><g><g transform="translate(-675 -359)"><use fill="#f79318" xlink:href="#10tea"/></g></g></svg>