<svg xmlns="http://www.w3.org/2000/svg" xmlns:xlink="http://www.w3.org/1999/xlink" width="15" height="15" viewBox="0 0 15 15"><defs><path id="dnfta" d="M1118.97 1296.73c-.23.2-.5.3-.8.3-.32 0-.6-.1-.82-.3a1 1 0 0 1-.33-.77c0-.3.1-.55.33-.76.23-.21.5-.32.81-.32.32 0 .58.11.8.32.23.21.34.47.34.76a1 1 0 0 1-.33.77zm.1 6.9l-.93.34c-.23.08-.5.12-.8.12a1.6 1.6 0 0 1-1.1-.34 1.1 1.1 0 0 1-.38-.87 3.15 3.15 0 0 1 .12-.9l.48-1.7.11-.47c.03-.15.04-.28.04-.4 0-.22-.04-.37-.13-.46-.1-.08-.26-.12-.52-.12-.12 0-.25.01-.38.05l-.34.11.13-.52c.32-.13.62-.24.9-.33.3-.1.57-.14.83-.14.46 0 .82.11 1.07.34.25.22.38.51.38.87a5.08 5.08 0 0 1-.12.9l-.48 1.7a4.81 4.81 0 0 0-.16.87c0 .23.05.38.16.46.1.09.27.13.52.13a2.26 2.26 0 0 0 .72-.17zm-1.57-11.63a7.5 7.5 0 1 0 0 15 7.5 7.5 0 0 0 0-15z"/></defs><g><g transform="translate(-1110 -1292)"><use fill="#8395ae" xlink:href="#dnfta"/></g></g></svg>