<svg xmlns="http://www.w3.org/2000/svg" xmlns:xlink="http://www.w3.org/1999/xlink" width="19" height="31" viewBox="0 0 19 31"><defs><path id="mvuwa" d="M236.42 26.38c-6.75-1.94-13.53 1.07-15.15 6.71-1.62 5.65 2.54 11.79 9.29 13.72.53.16 1.07.28 1.6.37l5.8-20.27c-.5-.2-1-.38-1.54-.53z"/><path id="mvuwb" d="M231.15 35.66c6.75 1.94 10.91 8.08 9.3 13.73-1.63 5.64-8.4 8.65-15.16 6.71-.53-.15-1.04-.33-1.54-.53l5.81-20.27c.53.1 1.06.21 1.6.36z"/></defs><g><g transform="rotate(6 368.55 -2089.5)"><g><use fill="#3468fe" xlink:href="#mvuwa"/></g><g><use fill="#8fb5fb" xlink:href="#mvuwb"/></g></g></g></svg>