<?xml version="1.0" encoding="UTF-8"?>
<svg width="108px" height="31px" viewBox="0 0 108 31" version="1.1" xmlns="http://www.w3.org/2000/svg" xmlns:xlink="http://www.w3.org/1999/xlink">
    <!-- Generator: Sketch 48.2 (47327) - http://www.bohemiancoding.com/sketch -->
    <title>Group 28</title>
    <desc>Created with Sketch.</desc>
    <defs></defs>
    <g id="sonata" stroke="none" stroke-width="1" fill="none" fill-rule="evenodd" transform="translate(-223.000000, -29.000000)">
        <g id="start" transform="translate(-157.000000, -4.000000)">
            <g id="menu" transform="translate(375.000000, 28.000000)">
                <g id="Group-28">
                    <g id="Group" transform="translate(15.000000, 20.500000) rotate(6.000000) translate(-15.000000, -20.500000) translate(2.000000, 2.000000)">
                        <path d="M3,22.9145127 L3,2.0854873 C3.55810175,2.02908009 4.12702346,2 4.70454545,2 C12.0474222,2 18,6.70101013 18,12.5 C18,18.2989899 12.0474222,23 4.70454545,23 C4.12702346,23 3.55810175,22.9709199 3,22.9145127 Z" id="Combined-Shape-Copy-2" fill="#FFFFFF" transform="translate(10.500000, 12.500000) scale(-1, 1) rotate(-16.000000) translate(-10.500000, -12.500000) "></path>
                        <path d="M8,34.9145127 L8,14.0854873 C8.55810175,14.0290801 9.12702346,14 9.70454545,14 C17.0474222,14 23,18.7010101 23,24.5 C23,30.2989899 17.0474222,35 9.70454545,35 C9.12702346,35 8.55810175,34.9709199 8,34.9145127 Z" id="Combined-Shape" fill="#8FB5FB" transform="translate(15.500000, 24.500000) rotate(16.000000) translate(-15.500000, -24.500000) "></path>
                    </g>
                    <path d="M45.9990234,23.7045898 C45.9990234,24.7836968 45.6088906,25.630368 44.8286133,26.2446289 C44.0483359,26.8588898 42.9720121,27.1660156 41.5996094,27.1660156 C40.2272067,27.1660156 39.1038455,26.9529644 38.2294922,26.5268555 L38.2294922,24.6508789 C38.7828804,24.9109714 39.3708465,25.1157219 39.9934082,25.2651367 C40.6159699,25.4145515 41.1956353,25.4892578 41.7324219,25.4892578 C42.5182331,25.4892578 43.0978985,25.3398452 43.4714355,25.0410156 C43.8449726,24.742186 44.0317383,24.3409856 44.0317383,23.8374023 C44.0317383,23.383624 43.8601905,22.999025 43.5170898,22.6835938 C43.1739892,22.3681625 42.4656629,21.9946311 41.3920898,21.5629883 C40.2853135,21.1147439 39.5050478,20.6028675 39.0512695,20.0273438 C38.5974912,19.45182 38.3706055,18.7600952 38.3706055,17.9521484 C38.3706055,16.9394481 38.7303024,16.142581 39.449707,15.5615234 C40.1691117,14.9804658 41.1347596,14.6899414 42.3466797,14.6899414 C43.5087949,14.6899414 44.6653588,14.9444962 45.8164062,15.4536133 L45.1855469,17.0722656 C44.1064399,16.6184873 43.1435589,16.3916016 42.296875,16.3916016 C41.6549447,16.3916016 41.1679704,16.53133 40.8359375,16.810791 C40.5039046,17.090252 40.3378906,17.4596331 40.3378906,17.9189453 C40.3378906,18.2343766 40.4042962,18.5041493 40.5371094,18.7282715 C40.6699225,18.9523937 40.8885076,19.1640615 41.1928711,19.3632812 C41.4972346,19.562501 42.0450807,19.8253564 42.8364258,20.1518555 C43.7273808,20.5226256 44.380369,20.868488 44.7954102,21.1894531 C45.2104513,21.5104183 45.5148102,21.8728821 45.7084961,22.2768555 C45.902182,22.6808288 45.9990234,23.1567355 45.9990234,23.7045898 Z M56.2836914,22.3930664 C56.2836914,23.8927484 55.8990924,25.0631468 55.1298828,25.9042969 C54.3606732,26.7454469 53.2898832,27.1660156 51.9174805,27.1660156 C51.0597288,27.1660156 50.3015983,26.9723327 49.6430664,26.5849609 C48.9845345,26.1975892 48.4781919,25.6414424 48.1240234,24.9165039 C47.769855,24.1915654 47.5927734,23.350428 47.5927734,22.3930664 C47.5927734,20.9044522 47.9746056,19.7423544 48.7382812,18.9067383 C49.5019569,18.0711221 50.5782808,17.6533203 51.9672852,17.6533203 C53.2954168,17.6533203 54.3468386,18.0808063 55.121582,18.935791 C55.8963255,19.7907758 56.2836914,20.9431894 56.2836914,22.3930664 Z M49.6015625,22.3930664 C49.6015625,24.5125431 50.384595,25.5722656 51.9506836,25.5722656 C53.5001705,25.5722656 54.2749023,24.5125431 54.2749023,22.3930664 C54.2749023,20.2957252 53.4946367,19.2470703 51.934082,19.2470703 C51.1150675,19.2470703 50.5215676,19.5182265 50.1535645,20.0605469 C49.7855613,20.6028673 49.6015625,21.380366 49.6015625,22.3930664 Z M66.6015625,27 L64.6425781,27 L64.6425781,21.3554688 C64.6425781,20.6471319 64.5000828,20.1186541 64.2150879,19.7700195 C63.930093,19.421385 63.4777049,19.2470703 62.8579102,19.2470703 C62.0333618,19.2470703 61.4301777,19.4905575 61.0483398,19.9775391 C60.666502,20.4645207 60.4755859,21.280756 60.4755859,22.4262695 L60.4755859,27 L58.5249023,27 L58.5249023,17.8193359 L60.0522461,17.8193359 L60.3261719,19.0229492 L60.4257812,19.0229492 C60.7024753,18.5857726 61.0953751,18.2482108 61.6044922,18.0102539 C62.1136093,17.772297 62.6780568,17.6533203 63.2978516,17.6533203 C65.5003365,17.6533203 66.6015625,18.7739146 66.6015625,21.0151367 L66.6015625,27 Z M75.0600586,27 L74.6699219,25.7216797 L74.6035156,25.7216797 C74.1608051,26.2806018 73.7153343,26.6610504 73.2670898,26.8630371 C72.8188454,27.0650238 72.2433303,27.1660156 71.5405273,27.1660156 C70.6385046,27.1660156 69.9343287,26.9225285 69.4279785,26.4355469 C68.9216283,25.9485653 68.668457,25.2596073 68.668457,24.3686523 C68.668457,23.4223585 69.0198533,22.7084985 69.7226562,22.2270508 C70.4254592,21.7456031 71.4962493,21.4827476 72.9350586,21.4384766 L74.5205078,21.3886719 L74.5205078,20.8989258 C74.5205078,20.3123343 74.3835463,19.8737807 74.1096191,19.583252 C73.835692,19.2927232 73.4109729,19.1474609 72.8354492,19.1474609 C72.3650693,19.1474609 71.9140647,19.2166334 71.4824219,19.3549805 C71.0507791,19.4933275 70.6357442,19.6565746 70.2373047,19.8447266 L69.6064453,18.4501953 C70.1044947,18.1901029 70.6495739,17.9922696 71.2416992,17.8566895 C71.8338246,17.7211093 72.3927383,17.6533203 72.918457,17.6533203 C74.0861061,17.6533203 74.9673636,17.9078751 75.5622559,18.4169922 C76.1571482,18.9261093 76.4545898,19.7257432 76.4545898,20.815918 L76.4545898,27 L75.0600586,27 Z M72.1547852,25.671875 C72.863122,25.671875 73.4317199,25.4740417 73.8605957,25.0783691 C74.2894715,24.6826966 74.5039062,24.1279333 74.5039062,23.4140625 L74.5039062,22.6171875 L73.3251953,22.6669922 C72.4065709,22.7001955 71.7383647,22.8537584 71.3205566,23.1276855 C70.9027486,23.4016127 70.6938477,23.820798 70.6938477,24.3852539 C70.6938477,24.7947612 70.8155912,25.1115711 71.059082,25.3356934 C71.3025728,25.5598156 71.6678036,25.671875 72.1547852,25.671875 Z M82.597168,25.5888672 C83.0730818,25.5888672 83.5489885,25.5141609 84.0249023,25.3647461 L84.0249023,26.8339844 C83.809081,26.9280604 83.5310076,27.006917 83.1906738,27.0705566 C82.8503401,27.1341963 82.4975604,27.1660156 82.1323242,27.1660156 C80.2840077,27.1660156 79.3598633,26.192067 79.3598633,24.2441406 L79.3598633,19.296875 L78.1064453,19.296875 L78.1064453,18.4335938 L79.4511719,17.7197266 L80.1152344,15.7773438 L81.3188477,15.7773438 L81.3188477,17.8193359 L83.9335938,17.8193359 L83.9335938,19.296875 L81.3188477,19.296875 L81.3188477,24.2109375 C81.3188477,24.6813175 81.4364409,25.0285633 81.6716309,25.2526855 C81.9068208,25.4768078 82.2153301,25.5888672 82.597168,25.5888672 Z M91.6035156,27 L91.2133789,25.7216797 L91.1469727,25.7216797 C90.7042621,26.2806018 90.2587913,26.6610504 89.8105469,26.8630371 C89.3623024,27.0650238 88.7867874,27.1660156 88.0839844,27.1660156 C87.1819616,27.1660156 86.4777857,26.9225285 85.9714355,26.4355469 C85.4650854,25.9485653 85.2119141,25.2596073 85.2119141,24.3686523 C85.2119141,23.4223585 85.5633103,22.7084985 86.2661133,22.2270508 C86.9689163,21.7456031 88.0397063,21.4827476 89.4785156,21.4384766 L91.0639648,21.3886719 L91.0639648,20.8989258 C91.0639648,20.3123343 90.9270033,19.8737807 90.6530762,19.583252 C90.379149,19.2927232 89.95443,19.1474609 89.3789062,19.1474609 C88.9085263,19.1474609 88.4575217,19.2166334 88.0258789,19.3549805 C87.5942361,19.4933275 87.1792012,19.6565746 86.7807617,19.8447266 L86.1499023,18.4501953 C86.6479517,18.1901029 87.1930309,17.9922696 87.7851562,17.8566895 C88.3772816,17.7211093 88.9361953,17.6533203 89.4619141,17.6533203 C90.6295631,17.6533203 91.5108206,17.9078751 92.1057129,18.4169922 C92.7006052,18.9261093 92.9980469,19.7257432 92.9980469,20.815918 L92.9980469,27 L91.6035156,27 Z M88.6982422,25.671875 C89.4065791,25.671875 89.9751769,25.4740417 90.4040527,25.0783691 C90.8329286,24.6826966 91.0473633,24.1279333 91.0473633,23.4140625 L91.0473633,22.6171875 L89.8686523,22.6669922 C88.950028,22.7001955 88.2818218,22.8537584 87.8640137,23.1276855 C87.4462056,23.4016127 87.2373047,23.820798 87.2373047,24.3852539 C87.2373047,24.7947612 87.3590483,25.1115711 87.6025391,25.3356934 C87.8460299,25.5598156 88.2112606,25.671875 88.6982422,25.671875 Z M95.4301758,25.9624023 C95.4301758,25.558429 95.535318,25.2485362 95.7456055,25.0327148 C95.955893,24.8168935 96.2602519,24.7089844 96.6586914,24.7089844 C97.0626648,24.7089844 97.3697906,24.8210438 97.5800781,25.045166 C97.7903656,25.2692882 97.8955078,25.5750306 97.8955078,25.9624023 C97.8955078,26.355308 97.7889822,26.6665841 97.5759277,26.8962402 C97.3628733,27.1258963 97.0571309,27.2407227 96.6586914,27.2407227 C96.2602519,27.2407227 95.955893,27.1272798 95.7456055,26.9003906 C95.535318,26.6735015 95.4301758,26.3608418 95.4301758,25.9624023 Z M106.138184,27 L105.748047,25.7216797 L105.681641,25.7216797 C105.23893,26.2806018 104.793459,26.6610504 104.345215,26.8630371 C103.89697,27.0650238 103.321455,27.1660156 102.618652,27.1660156 C101.71663,27.1660156 101.012454,26.9225285 100.506104,26.4355469 C99.9997533,25.9485653 99.746582,25.2596073 99.746582,24.3686523 C99.746582,23.4223585 100.097978,22.7084985 100.800781,22.2270508 C101.503584,21.7456031 102.574374,21.4827476 104.013184,21.4384766 L105.598633,21.3886719 L105.598633,20.8989258 C105.598633,20.3123343 105.461671,19.8737807 105.187744,19.583252 C104.913817,19.2927232 104.489098,19.1474609 103.913574,19.1474609 C103.443194,19.1474609 102.99219,19.2166334 102.560547,19.3549805 C102.128904,19.4933275 101.713869,19.6565746 101.31543,19.8447266 L100.68457,18.4501953 C101.18262,18.1901029 101.727699,17.9922696 102.319824,17.8566895 C102.91195,17.7211093 103.470863,17.6533203 103.996582,17.6533203 C105.164231,17.6533203 106.045489,17.9078751 106.640381,18.4169922 C107.235273,18.9261093 107.532715,19.7257432 107.532715,20.815918 L107.532715,27 L106.138184,27 Z M103.23291,25.671875 C103.941247,25.671875 104.509845,25.4740417 104.938721,25.0783691 C105.367597,24.6826966 105.582031,24.1279333 105.582031,23.4140625 L105.582031,22.6171875 L104.40332,22.6669922 C103.484696,22.7001955 102.81649,22.8537584 102.398682,23.1276855 C101.980874,23.4016127 101.771973,23.820798 101.771973,24.3852539 C101.771973,24.7947612 101.893716,25.1115711 102.137207,25.3356934 C102.380698,25.5598156 102.745929,25.671875 103.23291,25.671875 Z M112.206055,27 L110.255371,27 L110.255371,17.8193359 L112.206055,17.8193359 L112.206055,27 Z M110.13916,15.387207 C110.13916,15.0385725 110.234618,14.7701832 110.425537,14.5820312 C110.616456,14.3938793 110.888996,14.2998047 111.243164,14.2998047 C111.586265,14.2998047 111.853271,14.3938793 112.044189,14.5820312 C112.235108,14.7701832 112.330566,15.0385725 112.330566,15.387207 C112.330566,15.7192399 112.235108,15.9807119 112.044189,16.1716309 C111.853271,16.3625498 111.586265,16.4580078 111.243164,16.4580078 C110.888996,16.4580078 110.616456,16.3625498 110.425537,16.1716309 C110.234618,15.9807119 110.13916,15.7192399 110.13916,15.387207 Z" id="Sonata.ai" fill="#FFFFFF"></path>
                </g>
            </g>
        </g>
    </g>
</svg>