<?xml version="1.0" encoding="UTF-8"?>
<svg width="107px" height="32px" viewBox="0 0 107 32" version="1.1" xmlns="http://www.w3.org/2000/svg" xmlns:xlink="http://www.w3.org/1999/xlink">
    <!-- Generator: Sketch 48.2 (47327) - http://www.bohemiancoding.com/sketch -->
    <title>logo</title>
    <desc>Created with Sketch.</desc>
    <defs></defs>
    <g id="sonata-registration" stroke="none" stroke-width="1" fill="none" fill-rule="evenodd" transform="translate(-103.000000, -29.000000)">
        <g id="logo" transform="translate(98.000000, 25.000000)">
            <g id="Group" transform="translate(14.862561, 20.242475) rotate(6.000000) translate(-14.862561, -20.242475) translate(1.862561, 1.742475)">
                <path d="M3.13793103,22.8789537 L3.13793103,1.78771292 C3.67165593,1.7305956 4.21572818,1.70114943 4.76802508,1.70114943 C11.7901785,1.70114943 17.4827586,6.4613403 17.4827586,12.3333333 C17.4827586,18.2053264 11.7901785,22.9655172 4.76802508,22.9655172 C4.21572818,22.9655172 3.67165593,22.9360711 3.13793103,22.8789537 Z" id="Combined-Shape-Copy-2" fill="#3468FE" transform="translate(10.310345, 12.333333) scale(-1, 1) rotate(-16.000000) translate(-10.310345, -12.333333) "></path>
                <path d="M8.51724138,35.2122871 L8.51724138,14.1210463 C9.05096627,14.0639289 9.59503853,14.0344828 10.1473354,14.0344828 C17.1694889,14.0344828 22.862069,18.7946736 22.862069,24.6666667 C22.862069,30.5386597 17.1694889,35.2988506 10.1473354,35.2988506 C9.59503853,35.2988506 9.05096627,35.2694044 8.51724138,35.2122871 Z" id="Combined-Shape" fill="#8FB5FB" transform="translate(15.689655, 24.666667) rotate(16.000000) translate(-15.689655, -24.666667) "></path>
            </g>
            <path d="M44.9990234,23.7045898 C44.9990234,24.7836968 44.6088906,25.630368 43.8286133,26.2446289 C43.0483359,26.8588898 41.9720121,27.1660156 40.5996094,27.1660156 C39.2272067,27.1660156 38.1038455,26.9529644 37.2294922,26.5268555 L37.2294922,24.6508789 C37.7828804,24.9109714 38.3708465,25.1157219 38.9934082,25.2651367 C39.6159699,25.4145515 40.1956353,25.4892578 40.7324219,25.4892578 C41.5182331,25.4892578 42.0978985,25.3398452 42.4714355,25.0410156 C42.8449726,24.742186 43.0317383,24.3409856 43.0317383,23.8374023 C43.0317383,23.383624 42.8601905,22.999025 42.5170898,22.6835938 C42.1739892,22.3681625 41.4656629,21.9946311 40.3920898,21.5629883 C39.2853135,21.1147439 38.5050478,20.6028675 38.0512695,20.0273438 C37.5974912,19.45182 37.3706055,18.7600952 37.3706055,17.9521484 C37.3706055,16.9394481 37.7303024,16.142581 38.449707,15.5615234 C39.1691117,14.9804658 40.1347596,14.6899414 41.3466797,14.6899414 C42.5087949,14.6899414 43.6653588,14.9444962 44.8164062,15.4536133 L44.1855469,17.0722656 C43.1064399,16.6184873 42.1435589,16.3916016 41.296875,16.3916016 C40.6549447,16.3916016 40.1679704,16.53133 39.8359375,16.810791 C39.5039046,17.090252 39.3378906,17.4596331 39.3378906,17.9189453 C39.3378906,18.2343766 39.4042962,18.5041493 39.5371094,18.7282715 C39.6699225,18.9523937 39.8885076,19.1640615 40.1928711,19.3632812 C40.4972346,19.562501 41.0450807,19.8253564 41.8364258,20.1518555 C42.7273808,20.5226256 43.380369,20.868488 43.7954102,21.1894531 C44.2104513,21.5104183 44.5148102,21.8728821 44.7084961,22.2768555 C44.902182,22.6808288 44.9990234,23.1567355 44.9990234,23.7045898 Z M55.2836914,22.3930664 C55.2836914,23.8927484 54.8990924,25.0631468 54.1298828,25.9042969 C53.3606732,26.7454469 52.2898832,27.1660156 50.9174805,27.1660156 C50.0597288,27.1660156 49.3015983,26.9723327 48.6430664,26.5849609 C47.9845345,26.1975892 47.4781919,25.6414424 47.1240234,24.9165039 C46.769855,24.1915654 46.5927734,23.350428 46.5927734,22.3930664 C46.5927734,20.9044522 46.9746056,19.7423544 47.7382812,18.9067383 C48.5019569,18.0711221 49.5782808,17.6533203 50.9672852,17.6533203 C52.2954168,17.6533203 53.3468386,18.0808063 54.121582,18.935791 C54.8963255,19.7907758 55.2836914,20.9431894 55.2836914,22.3930664 Z M48.6015625,22.3930664 C48.6015625,24.5125431 49.384595,25.5722656 50.9506836,25.5722656 C52.5001705,25.5722656 53.2749023,24.5125431 53.2749023,22.3930664 C53.2749023,20.2957252 52.4946367,19.2470703 50.934082,19.2470703 C50.1150675,19.2470703 49.5215676,19.5182265 49.1535645,20.0605469 C48.7855613,20.6028673 48.6015625,21.380366 48.6015625,22.3930664 Z M65.6015625,27 L63.6425781,27 L63.6425781,21.3554688 C63.6425781,20.6471319 63.5000828,20.1186541 63.2150879,19.7700195 C62.930093,19.421385 62.4777049,19.2470703 61.8579102,19.2470703 C61.0333618,19.2470703 60.4301777,19.4905575 60.0483398,19.9775391 C59.666502,20.4645207 59.4755859,21.280756 59.4755859,22.4262695 L59.4755859,27 L57.5249023,27 L57.5249023,17.8193359 L59.0522461,17.8193359 L59.3261719,19.0229492 L59.4257812,19.0229492 C59.7024753,18.5857726 60.0953751,18.2482108 60.6044922,18.0102539 C61.1136093,17.772297 61.6780568,17.6533203 62.2978516,17.6533203 C64.5003365,17.6533203 65.6015625,18.7739146 65.6015625,21.0151367 L65.6015625,27 Z M74.0600586,27 L73.6699219,25.7216797 L73.6035156,25.7216797 C73.1608051,26.2806018 72.7153343,26.6610504 72.2670898,26.8630371 C71.8188454,27.0650238 71.2433303,27.1660156 70.5405273,27.1660156 C69.6385046,27.1660156 68.9343287,26.9225285 68.4279785,26.4355469 C67.9216283,25.9485653 67.668457,25.2596073 67.668457,24.3686523 C67.668457,23.4223585 68.0198533,22.7084985 68.7226562,22.2270508 C69.4254592,21.7456031 70.4962493,21.4827476 71.9350586,21.4384766 L73.5205078,21.3886719 L73.5205078,20.8989258 C73.5205078,20.3123343 73.3835463,19.8737807 73.1096191,19.583252 C72.835692,19.2927232 72.4109729,19.1474609 71.8354492,19.1474609 C71.3650693,19.1474609 70.9140647,19.2166334 70.4824219,19.3549805 C70.0507791,19.4933275 69.6357442,19.6565746 69.2373047,19.8447266 L68.6064453,18.4501953 C69.1044947,18.1901029 69.6495739,17.9922696 70.2416992,17.8566895 C70.8338246,17.7211093 71.3927383,17.6533203 71.918457,17.6533203 C73.0861061,17.6533203 73.9673636,17.9078751 74.5622559,18.4169922 C75.1571482,18.9261093 75.4545898,19.7257432 75.4545898,20.815918 L75.4545898,27 L74.0600586,27 Z M71.1547852,25.671875 C71.863122,25.671875 72.4317199,25.4740417 72.8605957,25.0783691 C73.2894715,24.6826966 73.5039062,24.1279333 73.5039062,23.4140625 L73.5039062,22.6171875 L72.3251953,22.6669922 C71.4065709,22.7001955 70.7383647,22.8537584 70.3205566,23.1276855 C69.9027486,23.4016127 69.6938477,23.820798 69.6938477,24.3852539 C69.6938477,24.7947612 69.8155912,25.1115711 70.059082,25.3356934 C70.3025728,25.5598156 70.6678036,25.671875 71.1547852,25.671875 Z M81.597168,25.5888672 C82.0730818,25.5888672 82.5489885,25.5141609 83.0249023,25.3647461 L83.0249023,26.8339844 C82.809081,26.9280604 82.5310076,27.006917 82.1906738,27.0705566 C81.8503401,27.1341963 81.4975604,27.1660156 81.1323242,27.1660156 C79.2840077,27.1660156 78.3598633,26.192067 78.3598633,24.2441406 L78.3598633,19.296875 L77.1064453,19.296875 L77.1064453,18.4335938 L78.4511719,17.7197266 L79.1152344,15.7773438 L80.3188477,15.7773438 L80.3188477,17.8193359 L82.9335938,17.8193359 L82.9335938,19.296875 L80.3188477,19.296875 L80.3188477,24.2109375 C80.3188477,24.6813175 80.4364409,25.0285633 80.6716309,25.2526855 C80.9068208,25.4768078 81.2153301,25.5888672 81.597168,25.5888672 Z M90.6035156,27 L90.2133789,25.7216797 L90.1469727,25.7216797 C89.7042621,26.2806018 89.2587913,26.6610504 88.8105469,26.8630371 C88.3623024,27.0650238 87.7867874,27.1660156 87.0839844,27.1660156 C86.1819616,27.1660156 85.4777857,26.9225285 84.9714355,26.4355469 C84.4650854,25.9485653 84.2119141,25.2596073 84.2119141,24.3686523 C84.2119141,23.4223585 84.5633103,22.7084985 85.2661133,22.2270508 C85.9689163,21.7456031 87.0397063,21.4827476 88.4785156,21.4384766 L90.0639648,21.3886719 L90.0639648,20.8989258 C90.0639648,20.3123343 89.9270033,19.8737807 89.6530762,19.583252 C89.379149,19.2927232 88.95443,19.1474609 88.3789062,19.1474609 C87.9085263,19.1474609 87.4575217,19.2166334 87.0258789,19.3549805 C86.5942361,19.4933275 86.1792012,19.6565746 85.7807617,19.8447266 L85.1499023,18.4501953 C85.6479517,18.1901029 86.1930309,17.9922696 86.7851562,17.8566895 C87.3772816,17.7211093 87.9361953,17.6533203 88.4619141,17.6533203 C89.6295631,17.6533203 90.5108206,17.9078751 91.1057129,18.4169922 C91.7006052,18.9261093 91.9980469,19.7257432 91.9980469,20.815918 L91.9980469,27 L90.6035156,27 Z M87.6982422,25.671875 C88.4065791,25.671875 88.9751769,25.4740417 89.4040527,25.0783691 C89.8329286,24.6826966 90.0473633,24.1279333 90.0473633,23.4140625 L90.0473633,22.6171875 L88.8686523,22.6669922 C87.950028,22.7001955 87.2818218,22.8537584 86.8640137,23.1276855 C86.4462056,23.4016127 86.2373047,23.820798 86.2373047,24.3852539 C86.2373047,24.7947612 86.3590483,25.1115711 86.6025391,25.3356934 C86.8460299,25.5598156 87.2112606,25.671875 87.6982422,25.671875 Z M94.4301758,25.9624023 C94.4301758,25.558429 94.535318,25.2485362 94.7456055,25.0327148 C94.955893,24.8168935 95.2602519,24.7089844 95.6586914,24.7089844 C96.0626648,24.7089844 96.3697906,24.8210438 96.5800781,25.045166 C96.7903656,25.2692882 96.8955078,25.5750306 96.8955078,25.9624023 C96.8955078,26.355308 96.7889822,26.6665841 96.5759277,26.8962402 C96.3628733,27.1258963 96.0571309,27.2407227 95.6586914,27.2407227 C95.2602519,27.2407227 94.955893,27.1272798 94.7456055,26.9003906 C94.535318,26.6735015 94.4301758,26.3608418 94.4301758,25.9624023 Z M105.138184,27 L104.748047,25.7216797 L104.681641,25.7216797 C104.23893,26.2806018 103.793459,26.6610504 103.345215,26.8630371 C102.89697,27.0650238 102.321455,27.1660156 101.618652,27.1660156 C100.71663,27.1660156 100.012454,26.9225285 99.5061035,26.4355469 C98.9997533,25.9485653 98.746582,25.2596073 98.746582,24.3686523 C98.746582,23.4223585 99.0979783,22.7084985 99.8007813,22.2270508 C100.503584,21.7456031 101.574374,21.4827476 103.013184,21.4384766 L104.598633,21.3886719 L104.598633,20.8989258 C104.598633,20.3123343 104.461671,19.8737807 104.187744,19.583252 C103.913817,19.2927232 103.489098,19.1474609 102.913574,19.1474609 C102.443194,19.1474609 101.99219,19.2166334 101.560547,19.3549805 C101.128904,19.4933275 100.713869,19.6565746 100.31543,19.8447266 L99.6845703,18.4501953 C100.18262,18.1901029 100.727699,17.9922696 101.319824,17.8566895 C101.91195,17.7211093 102.470863,17.6533203 102.996582,17.6533203 C104.164231,17.6533203 105.045489,17.9078751 105.640381,18.4169922 C106.235273,18.9261093 106.532715,19.7257432 106.532715,20.815918 L106.532715,27 L105.138184,27 Z M102.23291,25.671875 C102.941247,25.671875 103.509845,25.4740417 103.938721,25.0783691 C104.367597,24.6826966 104.582031,24.1279333 104.582031,23.4140625 L104.582031,22.6171875 L103.40332,22.6669922 C102.484696,22.7001955 101.81649,22.8537584 101.398682,23.1276855 C100.980874,23.4016127 100.771973,23.820798 100.771973,24.3852539 C100.771973,24.7947612 100.893716,25.1115711 101.137207,25.3356934 C101.380698,25.5598156 101.745929,25.671875 102.23291,25.671875 Z M111.206055,27 L109.255371,27 L109.255371,17.8193359 L111.206055,17.8193359 L111.206055,27 Z M109.13916,15.387207 C109.13916,15.0385725 109.234618,14.7701832 109.425537,14.5820312 C109.616456,14.3938793 109.888996,14.2998047 110.243164,14.2998047 C110.586265,14.2998047 110.853271,14.3938793 111.044189,14.5820312 C111.235108,14.7701832 111.330566,15.0385725 111.330566,15.387207 C111.330566,15.7192399 111.235108,15.9807119 111.044189,16.1716309 C110.853271,16.3625498 110.586265,16.4580078 110.243164,16.4580078 C109.888996,16.4580078 109.616456,16.3625498 109.425537,16.1716309 C109.234618,15.9807119 109.13916,15.7192399 109.13916,15.387207 Z" id="Sonata.ai" fill="#173950"></path>
        </g>
    </g>
</svg>