<?xml version="1.0" encoding="UTF-8"?>
<svg width="243px" height="115px" viewBox="0 0 243 115" version="1.1" xmlns="http://www.w3.org/2000/svg" xmlns:xlink="http://www.w3.org/1999/xlink">
    <!-- Generator: Sketch 51.2 (57519) - http://www.bohemiancoding.com/sketch -->
    <title>Group 25</title>
    <desc>Created with Sketch.</desc>
    <defs>
        <path d="M14.2259177,24.9048736 C8.39545821,24.9048736 3.65209669,20.1414033 3.65209669,14.2862264 C3.65209669,8.43104949 8.39545821,3.66757921 14.2259177,3.66757921 C20.0565966,3.66757921 24.7999581,8.43104949 24.7999581,14.2862264 C24.7999581,20.1414033 20.0565966,24.9048736 14.2259177,24.9048736 Z M14.9746272,0.0198211811 C14.7268118,0.0068272957 14.477242,0 14.2259177,0 C13.8754673,0 13.5294031,0.0171783569 13.1850932,0.042064951 C13.0289476,0.0535171889 12.872802,0.0640884855 12.7179722,0.0806061364 C9.9799414,0.370435851 7.47547108,1.44210104 5.42474412,3.06655695 C2.12243991,5.68273262 0,9.73440226 0,14.2862264 C0,18.8380505 2.12243991,22.8897201 5.42474412,25.5058958 C7.47547108,27.1303517 9.9799414,28.2022371 12.7179722,28.4920669 C12.872802,28.5083643 13.0289476,28.5191558 13.1850932,28.5303878 C13.6116427,28.5358937 14.3035519,28.5444829 14.9746272,28.5526316 C22.4834327,28.1617138 28.4520548,21.9239882 28.4520548,14.2862264 C28.4520548,6.64824437 22.4834327,0.410959154 14.9746272,0.0198211811 Z" id="path-1"></path>
    </defs>
    <g id="Page-1" stroke="none" stroke-width="1" fill="none" fill-rule="evenodd">
        <g id="sonata-copy" transform="translate(-934.000000, -7010.000000)">
            <g id="partners" transform="translate(223.000000, 6906.000000)">
                <g id="Group-25" transform="translate(711.000000, 104.000000)">
                    <rect id="Rectangle-6" fill="#EDF5FF" x="0" y="0" width="243" height="115"></rect>
                    <g id="Group-7" transform="translate(59.000000, 46.000000)">
                        <g id="Group-38">
                            <g id="Group-37" transform="translate(18.273973, 0.684211)">
                                <path d="M32.1232877,14.276205 C32.1232877,6.88987559 26.5036389,0.808371307 19.2739726,0 C25.686345,1.6344652 30.4250409,7.40626734 30.4250409,14.276205 C30.4250409,21.1459212 25.686345,26.9179449 19.2739726,28.5526316 C26.5036389,27.7442603 32.1232877,21.6625345 32.1232877,14.276205 Z" id="Fill-1" fill="#B6C4DD"></path>
                                <mask id="mask-2" fill="white">
                                    <use xlink:href="#path-1"></use>
                                </mask>
                                <use id="Fill-4" fill="#B6C4DD" xlink:href="#path-1"></use>
                            </g>
                            <path d="M9.17386826,9.2057463 C7.70990903,9.2057463 6.57640331,9.75771275 5.7733171,10.8616622 C4.97023089,11.9656117 4.56869381,13.503982 4.56869381,15.4768195 C4.56869381,19.5820004 6.10373661,21.63456 9.17386826,21.63456 C10.4621524,21.63456 12.0222912,21.3113553 13.8543317,20.6649363 L13.8543317,23.9389905 C12.348545,24.5686195 10.6671085,24.8834293 8.80997164,24.8834293 C6.1413831,24.8834293 4.10023627,24.0712201 2.68646993,22.4467773 C1.27270358,20.8223346 0.565831015,18.4906436 0.565831015,15.4516345 C0.565831015,13.5375624 0.912993282,11.8606757 1.60732823,10.4209241 C2.30166318,8.98117256 3.29923187,7.87723965 4.60006421,7.10909231 C5.90089656,6.34094497 7.42548266,5.95687706 9.17386826,5.95687706 C10.9557158,5.95687706 12.7459019,6.3892158 14.5444804,7.25390625 L13.2896645,10.4272204 C12.603695,10.0998133 11.9135532,9.81438581 11.2192182,9.57092928 C10.5248833,9.32747274 9.84310676,9.2057463 9.17386826,9.2057463 Z" id="C" fill="#B6C4DD"></path>
                            <path d="M54.9952643,5.07180304 C54.9952643,3.82094015 55.6895889,3.19551809 57.0782588,3.19551809 C58.4669287,3.19551809 59.1612532,3.82094015 59.1612532,5.07180304 C59.1612532,5.6678518 58.9876721,6.13167152 58.6405046,6.46327611 C58.2933371,6.7948807 57.7725937,6.96068051 57.0782588,6.96068051 C55.6895889,6.96068051 54.9952643,6.33106098 54.9952643,5.07180304 Z M58.985579,22.7894737 L55.1583904,22.7894737 L55.1583904,8.7110403 L58.985579,8.7110403 L58.985579,22.7894737 Z M75.9506903,22.7894737 L72.1235017,22.7894737 L72.1235017,14.5665604 C72.1235017,13.550759 71.9436466,12.7889194 71.5839309,12.2810187 C71.2242152,11.773118 70.6511883,11.5191715 69.864833,11.5191715 C68.7940514,11.5191715 68.020256,11.8780546 67.5434236,12.5958316 C67.0665912,13.3136086 66.8281785,14.5035896 66.8281785,16.16581 L66.8281785,22.7894737 L63.0009899,22.7894737 L63.0009899,8.7110403 L65.924711,8.7110403 L66.4391856,10.5117701 L66.6525043,10.5117701 C67.0791438,9.83177086 67.6668101,9.31758158 68.4155207,8.96918688 C69.1642312,8.62079219 70.0154062,8.44659745 70.9690711,8.44659745 C72.6003399,8.44659745 73.8384126,8.88942985 74.6833262,9.77510794 C75.5282398,10.660786 75.9506903,11.9389137 75.9506903,13.6095292 L75.9506903,22.7894737 Z M92.4515197,22.7894737 L88.6243311,22.7894737 L88.6243311,14.5665604 C88.6243311,13.550759 88.4549327,12.7889194 88.1161307,12.2810187 C87.7773287,11.773118 87.2440372,11.5191715 86.5162404,11.5191715 C85.5374791,11.5191715 84.8264238,11.8801533 84.3830533,12.6021279 C83.9396828,13.3241024 83.7180009,14.5119846 83.7180009,16.16581 L83.7180009,22.7894737 L79.8908123,22.7894737 L79.8908123,8.7110403 L82.8145334,8.7110403 L83.3290079,10.5117701 L83.5423266,10.5117701 C83.9187733,9.86535107 84.4625214,9.35955672 85.1735873,8.99437192 C85.8846532,8.62918711 86.7002754,8.44659745 87.6204784,8.44659745 C89.7202142,8.44659745 91.1423247,9.13498147 91.8868525,10.5117701 L92.2256528,10.5117701 C92.6020995,9.85695602 93.1563043,9.34906293 93.8882839,8.98807566 C94.6202635,8.62708838 95.4463424,8.44659745 96.3665454,8.44659745 C97.9559868,8.44659745 99.1585067,8.85585014 99.9741412,9.6743678 C100.789776,10.4928855 101.197587,11.8045928 101.197587,13.6095292 L101.197587,22.7894737 L97.35785,22.7894737 L97.35785,14.5665604 C97.35785,13.550759 97.1884515,12.7889194 96.8496495,12.2810187 C96.5108475,11.773118 95.9775561,11.5191715 95.2497592,11.5191715 C94.3128253,11.5191715 93.6122267,11.8549685 93.1479425,12.5265728 C92.6836583,13.198177 92.4515197,14.2643327 92.4515197,15.725072 L92.4515197,22.7894737 Z M114.034354,22.7894737 L113.294012,20.8754112 L113.193627,20.8754112 C112.549485,21.6897313 111.88653,22.2542902 111.204744,22.5691046 C110.522957,22.8839191 109.634138,23.041324 108.53826,23.041324 C107.191417,23.041324 106.131108,22.6551574 105.357301,21.8828125 C104.583494,21.1104676 104.196597,20.0107322 104.196597,18.5835732 C104.196597,17.0892538 104.71734,15.9874196 105.758843,15.2780376 C106.800345,14.5686556 108.370941,14.1761928 110.470676,14.1006373 L112.905019,14.0250822 L112.905019,13.4080489 C112.905019,11.9808899 112.177233,11.2673211 110.72164,11.2673211 C109.600665,11.2673211 108.283122,11.6073157 106.768969,12.287315 L105.501605,9.69325658 C107.116143,8.84535623 108.906329,8.42141242 110.872217,8.42141242 C112.754451,8.42141242 114.197475,8.83276384 115.201332,9.65547903 C116.20519,10.4781942 116.707112,11.7290383 116.707112,13.4080489 L116.707112,22.7894737 L114.034354,22.7894737 Z M112.905019,16.2665502 L111.424336,16.3169202 C110.311727,16.3505004 109.483557,16.5519787 108.939801,16.921361 C108.396045,17.2907433 108.124171,17.8532035 108.124171,18.6087582 C108.124171,19.6917201 108.743207,20.2331928 109.981298,20.2331928 C110.868039,20.2331928 111.577003,19.9771476 112.108211,19.4650493 C112.639419,18.9529511 112.905019,18.272962 112.905019,17.4250617 L112.905019,16.2665502 Z M132.856592,8.7110403 L132.856592,10.6628803 L130.660665,11.2295436 C131.062208,11.8591726 131.262976,12.5643464 131.262976,13.3450863 C131.262976,14.8561959 130.73805,16.0335844 129.688182,16.8772872 C128.638314,17.72099 127.180651,18.1428351 125.315149,18.1428351 L124.625,18.1050576 L124.060333,18.042095 C123.667155,18.3443169 123.470569,18.680114 123.470569,19.0494963 C123.470569,19.6035698 124.173259,19.8806024 125.57866,19.8806024 L127.96281,19.8806024 C129.502059,19.8806024 130.6753,20.212202 131.482569,20.8754112 C132.289838,21.5386204 132.693466,22.5124319 132.693466,23.796875 C132.693466,25.4423054 132.009599,26.7183343 130.641842,27.625 C129.274086,28.5316657 127.310319,28.9849918 124.750482,28.9849918 C122.792959,28.9849918 121.297652,28.6428985 120.264515,27.9587017 C119.231378,27.2745049 118.714817,26.3153845 118.714817,25.0813117 C118.714817,24.2334113 118.978326,23.52404 119.505351,22.9531764 C120.032376,22.3823128 120.806172,21.9751588 121.82676,21.7317023 C121.433583,21.5638012 121.090603,21.2888674 120.797811,20.9068925 C120.50502,20.5249176 120.358626,20.1198623 120.358626,19.6917146 C120.358626,19.1544313 120.513385,18.7074014 120.822908,18.3506116 C121.132431,17.9938219 121.579977,17.6433337 122.165561,17.2991365 C121.429398,16.9801245 120.845915,16.468034 120.415093,15.7628495 C119.98427,15.0576651 119.768862,14.2265673 119.768862,13.2695313 C119.768862,11.7332366 120.266601,10.5453544 121.262093,9.7058491 C122.257586,8.8663438 123.679696,8.44659745 125.528467,8.44659745 C125.921645,8.44659745 126.388014,8.48227589 126.927587,8.55363384 C127.467161,8.62499179 127.812232,8.67746008 127.96281,8.7110403 L132.856592,8.7110403 Z M122.027531,24.7790913 C122.027531,25.3079796 122.280583,25.7235285 122.786695,26.0257504 C123.292806,26.3279723 124.00177,26.479081 124.913608,26.479081 C126.285547,26.479081 127.360495,26.2901951 128.138485,25.9124178 C128.916474,25.5346404 129.305463,25.0183524 129.305463,24.3635382 C129.305463,23.8346499 129.075416,23.4694706 128.615315,23.2679893 C128.155213,23.066508 127.444158,22.9657689 126.482128,22.9657689 L124.499518,22.9657689 C123.796818,22.9657689 123.209152,23.1315687 122.736502,23.4631733 C122.263852,23.7947779 122.027531,24.2334128 122.027531,24.7790913 Z M123.420377,13.3199013 C123.420377,14.0838511 123.593958,14.6882859 123.941125,15.1332237 C124.288293,15.5781615 124.817402,15.8006271 125.528467,15.8006271 C126.247899,15.8006271 126.774916,15.5781615 127.109536,15.1332237 C127.444155,14.6882859 127.611462,14.0838511 127.611462,13.3199013 C127.611462,11.6241006 126.917137,10.776213 125.528467,10.776213 C124.123067,10.776213 123.420377,11.6241006 123.420377,13.3199013 Z" id="inmag" fill="#B6C4DD"></path>
                        </g>
                    </g>
                </g>
            </g>
        </g>
    </g>
</svg>