<?xml version="1.0" encoding="UTF-8"?>
<svg width="243px" height="115px" viewBox="0 0 243 115" version="1.1" xmlns="http://www.w3.org/2000/svg" xmlns:xlink="http://www.w3.org/1999/xlink">
    <!-- Generator: Sketch 51.2 (57519) - http://www.bohemiancoding.com/sketch -->
    <title>Group 25 Copy 3</title>
    <desc>Created with Sketch.</desc>
    <defs></defs>
    <g id="Page-1" stroke="none" stroke-width="1" fill="none" fill-rule="evenodd">
        <g id="sonata-copy" transform="translate(-871.000000, -7306.000000)">
            <g id="partners" transform="translate(223.000000, 6906.000000)">
                <g id="Group-25-Copy-3" transform="translate(648.000000, 400.000000)">
                    <rect id="Rectangle-6" fill="#EDF5FF" x="0" y="0" width="243" height="115"></rect>
                    <g id="Group-4" transform="translate(103.000000, 34.000000)">
                        <path d="M7.28546696,25 C3.25887771,25 -0.0348625356,22.0470338 0.000278606997,18.4376002 L0.588892745,2.70688571 C0.824143172,-0.902295236 4.33800363,-0.902295236 8.32969578,2.70688571 L25.2903974,18.4376002 C29.0819803,22.0470338 28.861616,25 24.8350268,25 L7.28546696,25 Z" id="Fill-1" fill="#B2BECF"></path>
                        <path d="M34.7145258,25 C38.7411137,25 42.0348625,22.0470338 41.9997214,18.4376002 L41.4111075,2.70688571 C41.1758571,-0.902295236 37.6619881,-0.902295236 33.6702974,2.70688571 L16.7096016,18.4376002 C12.9180201,22.0470338 13.1383843,25 17.1649721,25 L34.7145258,25 Z" id="Fill-2" fill="#C0CBDC"></path>
                        <path d="M12.5896351,25 C8.50082834,25 6.82813466,22.0470338 8.87253804,18.4376002 L17.7829153,2.70688571 C19.8273187,-0.902295236 23.1727061,-0.902295236 25.2170847,2.70688571 L34.127462,18.4376002 C36.1718653,22.0470338 34.4991717,25 30.4103649,25 L12.5896351,25 Z" id="Fill-3" fill="#D2DEEF"></path>
                    </g>
                    <text id="Tetreta-Agency" font-family="AvenirNextCondensed-Regular, Avenir Next Condensed" font-size="22" font-style="condensed" font-weight="normal" fill="#B6C4DD">
                        <tspan x="70" y="81">Tetreta Agency</tspan>
                    </text>
                </g>
            </g>
        </g>
    </g>
</svg>