<?xml version="1.0" encoding="UTF-8"?>
<svg width="243px" height="115px" viewBox="0 0 243 115" version="1.1" xmlns="http://www.w3.org/2000/svg" xmlns:xlink="http://www.w3.org/1999/xlink">
    <!-- Generator: Sketch 51.2 (57519) - http://www.bohemiancoding.com/sketch -->
    <title>Group 25 Copy 5</title>
    <desc>Created with Sketch.</desc>
    <defs></defs>
    <g id="Page-1" stroke="none" stroke-width="1" fill="none" fill-rule="evenodd">
        <g id="sonata-copy" transform="translate(-223.000000, -7101.000000)">
            <g id="partners" transform="translate(223.000000, 6906.000000)">
                <g id="Group-25-Copy-5" transform="translate(0.000000, 195.000000)">
                    <rect id="Rectangle-6" fill="#EDF5FF" x="0" y="0" width="243" height="115"></rect>
                    <g id="Group-6" transform="translate(35.000000, 45.000000)">
                        <path d="M2.31659642,24.3164227 C0.561134528,26.0718785 0.561134528,28.9282218 2.31659642,30.683427 C4.07205831,32.4388577 6.92816097,32.4388577 8.68362286,30.683427 C10.4388341,28.9282218 10.4388341,26.0718785 8.68337226,24.3164227 C6.92816097,22.5611924 4.07205831,22.5611924 2.31659642,24.3164227 Z" id="Fill-1" fill="#C2CDDE"></path>
                        <path d="M3.14515271,14.5191285 C2.87966739,13.4980698 3.1631954,12.4084416 3.88865221,11.6609368 L11.3170862,4.00683554 C12.042543,3.25908932 13.1000322,2.96718581 14.0909743,3.24098116 L21.0418628,5.15996307 C21.1140335,4.19854058 21.4331783,3.2537776 22,2.43577172 L13.6286596,0.124446384 C12.40574,-0.213089688 11.1005739,0.147141943 10.2052346,1.06969225 L1.03814122,10.515294 C0.142801928,11.4378443 -0.206804517,12.7824354 0.120775784,14.0427632 L2.4501576,23 C3.2299768,22.3862783 4.13937533,22.0272539 5.07103433,21.9243754 L3.14515271,14.5191285 Z" id="Fill-2" fill="#C2CDDE"></path>
                        <path d="M27.7085121,11.1470202 L29.7592977,18.6894874 C30.032607,19.6961285 29.7407069,20.7700917 28.9932107,21.5068499 L21.3394393,29.0509828 C20.5917017,29.7877649 19.502086,30.0754718 18.4810391,29.8058507 L11.0758536,27.850205 C10.972759,28.7963777 10.6139802,29.7197052 10,30.5116489 L18.9573989,32.8773424 C20.2177122,33.2100259 21.5620463,32.8549493 22.4848274,31.9459239 L31.9303201,22.6357843 C32.8528598,21.7267113 33.2130872,20.4012366 32.8755551,19.1592421 L30.3853499,10 C29.5965676,10.6349066 28.6670262,11.0168501 27.7085121,11.1470202 Z" id="Fill-3" fill="#C2CDDE"></path>
                        <path d="M24.3166065,2.31660283 C22.5611312,4.07207328 22.5611312,6.92818986 24.3166065,8.6836603 C26.0719816,10.4387799 28.9281061,10.4387799 30.6835815,8.6836603 C32.4388062,6.92818986 32.4388062,4.07207328 30.6835815,2.31660283 C28.9281061,0.561132389 26.0719816,0.561132389 24.3166065,2.31660283 Z" id="Fill-4" fill="#C2CDDE"></path>
                        <path d="M22.5897838,9.76252463 C21.7389271,8.94720669 21.2373469,7.92230972 21.0836177,6.85938614 L14.1791091,5.08648062 C13.2655252,4.85194521 12.2908773,5.10219222 11.6222621,5.74317976 L4.77525349,12.3046152 C4.10663836,12.9453751 3.84551255,13.879418 4.09024375,14.7549182 L5.99391981,21.5637544 C7.16197667,21.6832991 8.29653149,22.1701309 9.18991915,23.0262989 C10.0835444,23.882467 10.5915399,24.9697322 10.7162815,26.0891265 L17.8210895,27.9135159 C18.7346734,28.1480513 19.7090837,27.8978043 20.3779365,27.2570445 L27.2246125,20.6955179 C27.8934652,20.0547581 28.1543534,19.1207151 27.9098598,18.2451922 L25.9510598,11.2394146 C24.7250278,11.1503822 23.5253697,10.6589964 22.5897838,9.76252463 Z" id="Fill-5" fill="#A8B3C5"></path>
                    </g>
                    <path d="M80.4174053,56.5210887 L80.3943789,57.2809592 L80.3943789,59.1691223 C80.3943789,59.5375462 80.4250804,59.7678077 80.4864844,59.8599137 C80.5478884,59.9520196 80.7090714,59.9980719 80.9700384,59.9980719 L81.4996451,59.9980719 C82.2825459,59.9980719 82.6739904,59.6526797 82.6739904,58.9618849 C82.6739904,58.8697789 82.6509643,58.631842 82.6049113,58.2480671 L82.6049113,57.8566187 C82.6049113,57.2579299 82.8351728,56.9585899 83.2957026,56.9585899 C83.7562325,56.9585899 83.986494,57.2195529 83.986494,57.7414868 C83.986494,58.1713147 83.9519548,58.8160469 83.8828753,59.6757026 C83.8137958,60.5353584 83.7792566,61.1800906 83.7792566,61.6099185 C83.7792566,61.8862364 83.8253089,62.3467594 83.9174149,62.9915012 C83.9634679,63.3138721 83.986494,63.5748351 83.986494,63.7743981 C83.986494,64.4037889 83.7562325,64.7184796 83.2957026,64.7184796 C82.8044708,64.7184796 82.5588585,64.3577366 82.5588585,63.6362398 C82.5588585,63.5134318 82.5665339,63.3215473 82.5818849,63.0605803 C82.5972359,62.7996134 82.6049113,62.6000534 82.6049113,62.4618945 C82.6049113,61.8325036 82.3132467,61.5178129 81.7299089,61.5178129 L80.947012,61.5178129 C80.6706941,61.5178129 80.509511,61.5753783 80.463458,61.6905108 C80.417405,61.8056433 80.3943789,61.970664 80.3943789,62.1855779 L80.3943789,63.4520288 L80.4404317,66.1921679 C80.4557827,66.8829627 80.7013949,67.2283549 81.1772758,67.2283549 C81.2847328,67.2283549 81.4382404,67.2091665 81.6378034,67.170789 C81.8373663,67.1324115 81.990874,67.113223 82.0983309,67.113223 C82.5742118,67.113223 82.8121487,67.3588353 82.8121487,67.8500671 C82.8121487,68.448756 82.5435103,68.7480959 82.0062254,68.7480959 C81.7606095,68.7480959 81.3921911,68.7135567 80.9009592,68.6444772 C80.4097274,68.5753977 80.041309,68.5408585 79.795693,68.5408585 C79.5040241,68.5408585 79.1010665,68.5869108 78.5868082,68.6790168 C78.0725498,68.7711228 77.6926183,68.8171751 77.4470024,68.8171751 C77.2013865,68.8171751 76.9941511,68.7289082 76.8252902,68.5523717 C76.6564292,68.3758352 76.572,68.1570868 76.572,67.8961199 C76.572,67.389537 76.8176123,67.1362494 77.3088441,67.1362494 C77.4623541,67.1362494 77.5774848,67.1516002 77.6542398,67.1823022 C77.8998557,67.2130042 78.0380126,67.2283549 78.0687146,67.2283549 C78.3603836,67.2283549 78.5445927,67.0019311 78.6213477,66.5490767 C78.6981027,66.0962224 78.7364796,64.9871295 78.7364796,63.221765 L78.7364796,58.846753 C78.7364796,57.0660375 78.6981027,55.9492693 78.6213477,55.4964149 C78.5445927,55.0435605 78.3603836,54.8171367 78.0687146,54.8171367 C77.9919596,54.8171367 77.8691535,54.8363251 77.7002926,54.8747026 C77.5314316,54.9130801 77.4009501,54.9322686 77.3088441,54.9322686 C76.8176123,54.9322686 76.572,54.6713056 76.572,54.1493717 C76.572,53.8884048 76.6525915,53.673494 76.813777,53.5046331 C76.9749624,53.3357721 77.1783601,53.2513429 77.423976,53.2513429 C77.623539,53.2513429 78.0687112,53.312746 78.759506,53.435554 C79.0204729,53.4816069 79.4119175,53.5046331 79.9338513,53.5046331 C80.1487653,53.5046331 80.8318743,53.4969577 81.983199,53.4816067 C82.3516229,53.4816067 82.9503028,53.4585806 83.7792566,53.4125276 C84.5468064,53.3664746 85.1378109,53.3434484 85.5522878,53.3434484 C85.9974667,53.3434484 86.304482,53.4010138 86.4733429,53.5161463 C86.6422039,53.6312788 86.7266331,53.9114302 86.7266331,54.3566091 C86.7266331,54.602225 86.7189577,54.9399419 86.7036067,55.3697698 L86.657554,56.6362206 L86.6805803,57.6724077 L86.7496595,58.7776739 L86.7496595,58.9388585 C86.7496595,59.5221964 86.519398,59.8138609 86.0588681,59.8138609 C85.4908813,59.8138609 85.2068921,59.4838194 85.2068921,58.8237266 L85.2068921,58.7085947 L85.2759712,57.7875396 C85.2913222,57.7261356 85.2989976,57.5956541 85.2989976,57.3960911 C85.2989976,56.3982764 85.1915422,55.7458688 84.9766283,55.4388489 C84.7617144,55.131829 84.3011914,54.9783213 83.5950456,54.9783213 L81.9141199,54.9783213 C80.9163052,54.9783213 80.4174053,55.2776613 80.4174053,55.8763501 L80.4174053,56.5210887 Z M91.3549353,61.4257074 L91.3549353,62.8993957 L91.3779616,64.1197938 L91.3779616,65.1099281 C91.3779616,66.1077428 91.4048255,66.7179357 91.458554,66.9405252 C91.5122824,67.1631146 91.6619524,67.2744077 91.9075683,67.2744077 L92.1148058,67.2744077 C92.1762097,67.2590567 92.260639,67.2513813 92.3680959,67.2513813 C92.7825728,67.2513813 92.9898082,67.5123443 92.9898082,68.0342782 C92.9898082,68.556212 92.7441959,68.8171751 92.252964,68.8171751 C92.0534011,68.8171751 91.7540611,68.7864735 91.3549353,68.7250695 C90.9558094,68.6636656 90.6564694,68.632964 90.4569065,68.632964 C90.2573435,68.632964 89.9848674,68.6636656 89.63947,68.7250695 C89.2940726,68.7864735 89.0446227,68.8171751 88.8911127,68.8171751 C88.3998808,68.8171751 88.1542686,68.556212 88.1542686,68.0342782 C88.1542686,67.5123443 88.3691793,67.2513813 88.7990072,67.2513813 C88.8911132,67.2513813 88.9755424,67.2590567 89.0522974,67.2744077 L89.2595348,67.2744077 C89.5051507,67.2744077 89.6548207,67.1631146 89.7085492,66.9405252 C89.7622776,66.7179357 89.7891415,66.1077428 89.7891415,65.1099281 L89.7891415,62.4618945 C89.7891415,62.3697885 89.7814661,62.1433647 89.7661151,61.7826163 C89.7507641,61.4218679 89.7430887,61.0956641 89.7430887,60.8039952 C89.7277377,59.9596904 89.7200624,59.5605705 89.7200624,59.6066235 C89.7200624,59.0846896 89.5358532,58.8237266 89.1674293,58.8237266 L88.9141391,58.8237266 C88.8680861,58.8390776 88.8297092,58.846753 88.7990072,58.846753 C88.3538283,58.846753 88.1312422,58.6011407 88.1312422,58.1099089 C88.1312422,57.8949949 88.2041583,57.7031104 88.3499928,57.5342494 C88.4958273,57.3653884 88.6685234,57.2809592 88.8680863,57.2809592 C88.9141393,57.2809592 89.0906731,57.3193361 89.397693,57.3960911 C89.581905,57.4421441 89.743088,57.4651703 89.881247,57.4651703 C90.019406,57.4651703 90.2189659,57.4383064 90.4799329,57.3845779 C90.7408998,57.3308495 90.9327844,57.3039856 91.0555923,57.3039856 C91.3012083,57.3039856 91.4240144,57.4881948 91.4240144,57.8566187 L91.4240144,58.4553046 C91.4086634,58.6702185 91.400988,58.8697785 91.400988,59.0539904 L91.3549353,61.4257074 Z M90.4108537,56.3829305 C90.1038338,56.3829305 89.8467085,56.2524489 89.63947,55.991482 C89.4322316,55.7305151 89.3286139,55.4004736 89.3286139,55.0013477 C89.3286139,54.6482748 89.4437447,54.3297464 89.6740096,54.045753 C89.9042745,53.7617596 90.1652376,53.619765 90.4569065,53.619765 C90.7639264,53.619765 91.0287271,53.7540842 91.2513165,54.0227266 C91.473906,54.291369 91.585199,54.6098974 91.585199,54.9783213 C91.585199,55.3620962 91.4700683,55.6921377 91.2398034,55.9684556 C91.0095384,56.2447736 90.7332246,56.3829305 90.4108537,56.3829305 Z M97.0424508,58.3401727 C97.7025437,57.5419209 98.6005635,57.142801 99.7365372,57.142801 C101.01067,57.142801 101.916365,57.5802978 102.45365,58.4553046 C102.837425,59.0846954 103.029309,60.2053013 103.029309,61.8171559 L103.029309,65.1099281 C103.029309,66.1077428 103.056173,66.7179357 103.109902,66.9405252 C103.16363,67.1631146 103.3133,67.2744077 103.558916,67.2744077 L103.766153,67.2744077 C103.842908,67.2590567 103.927338,67.2513813 104.019444,67.2513813 C104.433921,67.2513813 104.641156,67.5123443 104.641156,68.0342782 C104.641156,68.556212 104.403219,68.8171751 103.927338,68.8171751 C103.758477,68.8171751 103.501352,68.7864735 103.155954,68.7250695 C102.810557,68.6636656 102.545756,68.632964 102.361544,68.632964 C102.161981,68.632964 101.866479,68.6636656 101.475029,68.7250695 C101.083578,68.7864735 100.788076,68.8171751 100.588513,68.8171751 C100.097281,68.8171751 99.8516691,68.556212 99.8516691,68.0342782 C99.8516691,67.8193642 99.9130721,67.635155 100.03588,67.4816451 C100.158688,67.3281351 100.30452,67.2513813 100.473381,67.2513813 C100.580838,67.2513813 100.672943,67.2590567 100.749698,67.2744077 L100.956935,67.2744077 C101.1872,67.2744077 101.321519,67.17079 101.359897,66.9635516 C101.398274,66.7563131 101.432814,66.1384448 101.463516,65.1099281 L101.486542,64.1197938 L101.486542,61.8632086 C101.486542,60.6965329 101.325359,59.8599162 101.002988,59.3533333 C100.680617,58.8467505 100.158691,58.5934628 99.4371942,58.5934628 C98.7003464,58.5934628 98.1170173,58.927342 97.6871894,59.5951103 C97.2573616,60.2628786 97.0424508,61.1647361 97.0424508,62.3007098 L97.0424508,65.1099281 C97.0424508,66.1077428 97.0693147,66.7179357 97.1230432,66.9405252 C97.1767717,67.1631146 97.3264416,67.2744077 97.5720576,67.2744077 L97.779295,67.2744077 C97.8406989,67.2590567 97.9251282,67.2513813 98.0325851,67.2513813 C98.447062,67.2513813 98.6542974,67.5123443 98.6542974,68.0342782 C98.6542974,68.556212 98.4163605,68.8171751 97.9404796,68.8171751 C97.8176716,68.8171751 97.5260071,68.7711228 97.0654772,68.6790168 C96.7584573,68.6483148 96.4744681,68.632964 96.2135012,68.632964 C95.8911303,68.632964 95.5994657,68.6559902 95.3384988,68.7020432 C94.9086709,68.7787981 94.6553833,68.8171751 94.5786283,68.8171751 C94.1027474,68.8171751 93.8648106,68.556212 93.8648106,68.0342782 C93.8648106,67.5123443 94.0797213,67.2513813 94.5095492,67.2513813 C94.6016551,67.2513813 94.6860843,67.2590567 94.7628393,67.2744077 L94.9700767,67.2744077 C95.2156927,67.2744077 95.3653626,67.1631146 95.4190911,66.9405252 C95.4728196,66.7179357 95.4996835,66.1077428 95.4996835,65.1099281 L95.4996835,61.0572854 C95.4996835,60.0901726 95.4651442,59.476142 95.3960647,59.2151751 C95.3269853,58.9542081 95.1696399,58.8237266 94.924024,58.8237266 L94.8779712,58.8237266 C94.8626202,58.8390776 94.8472695,58.846753 94.8319185,58.846753 L94.6246811,58.846753 C94.5325751,58.862104 94.4788474,58.8697794 94.4634964,58.8697794 C94.0490195,58.8697794 93.8417842,58.6241671 93.8417842,58.1329353 C93.8417842,57.9026703 93.9108626,57.706948 94.0490216,57.5457626 C94.1871805,57.3845771 94.356039,57.3039856 94.5556019,57.3039856 C94.6784099,57.3039856 94.8664568,57.3270118 95.1197482,57.3730647 C95.3730396,57.4191177 95.5687619,57.4421439 95.7069209,57.4421439 C95.9371858,57.4421439 96.1060442,57.4267931 96.2135012,57.3960911 C96.4284151,57.3346871 96.5819228,57.3039856 96.6740288,57.3039856 C96.9196447,57.3039856 97.0424508,57.4805194 97.0424508,57.8335923 L97.0424508,58.3401727 Z M107.933928,57.994777 C107.933928,58.1329359 107.926253,58.2710928 107.910902,58.4092518 C108.801259,57.564947 109.668578,57.142801 110.512882,57.142801 C111.618154,57.142801 112.500823,57.6608893 113.160916,58.6970815 C113.821009,59.7332738 114.15105,61.1340311 114.15105,62.8993957 C114.15105,64.7261642 113.790307,66.1998377 113.068811,67.3204604 C112.347314,68.4410831 111.395566,69.0013861 110.21354,69.0013861 C109.399937,69.0013861 108.655425,68.6636692 107.979981,67.9882254 L107.979981,68.8171751 C107.979981,69.8149898 108.006845,70.4251827 108.060573,70.6477722 C108.114302,70.8703616 108.263972,70.9816547 108.509588,70.9816547 L108.716825,70.9816547 C108.870335,70.9509527 108.954764,70.9356019 108.970115,70.9356019 C109.384592,70.9356019 109.591827,71.2042403 109.591827,71.7415252 C109.591827,72.263459 109.35389,72.5244221 108.87801,72.5244221 C108.739851,72.5244221 108.486563,72.4860451 108.118139,72.4092902 C107.749715,72.3325352 107.458051,72.2941583 107.243137,72.2941583 C106.905415,72.2941583 106.56386,72.3325352 106.218463,72.4092902 C105.873065,72.4860451 105.654317,72.5244221 105.562211,72.5244221 C105.08633,72.5244221 104.848393,72.263459 104.848393,71.7415252 C104.848393,71.2042403 105.055629,70.9356019 105.470106,70.9356019 C105.516159,70.9356019 105.600588,70.9509527 105.723396,70.9816547 L105.930633,70.9816547 C106.176249,70.9816547 106.325919,70.8703616 106.379647,70.6477722 C106.433376,70.4251827 106.46024,69.8149898 106.46024,68.8171751 L106.46024,61.0572854 C106.46024,60.0901726 106.429538,59.476142 106.368134,59.2151751 C106.30673,58.9542081 106.153223,58.8237266 105.907607,58.8237266 L105.861554,58.8237266 C105.830852,58.8390776 105.807826,58.846753 105.792475,58.846753 L105.585237,58.846753 C105.508482,58.862104 105.454755,58.8697794 105.424053,58.8697794 C105.024927,58.8697794 104.825367,58.6241671 104.825367,58.1329353 C104.825367,57.5802994 105.055628,57.3039856 105.516158,57.3039856 C105.638966,57.3039856 105.807825,57.3270118 106.022739,57.3730647 C106.237653,57.4191177 106.460239,57.4421439 106.690504,57.4421439 C106.813312,57.4421439 107.051248,57.403767 107.404321,57.327012 C107.481076,57.311661 107.550155,57.3039856 107.611559,57.3039856 C107.826473,57.3039856 107.933928,57.5342471 107.933928,57.994777 Z M110.167487,67.4355923 C110.888984,67.4355923 111.456962,67.0326347 111.871439,66.2267074 C112.285916,65.4207801 112.493151,64.3116873 112.493151,62.8993957 C112.493151,61.594561 112.293591,60.5814105 111.894465,59.8599137 C111.495339,59.1384169 110.942712,58.7776739 110.236566,58.7776739 C109.515069,58.7776739 108.958604,59.1576053 108.567153,59.9174796 C108.175703,60.6773539 107.979981,61.7557452 107.979981,63.1526859 C107.979981,64.5035735 108.171865,65.555101 108.55564,66.3072998 C108.939415,67.0594986 109.476692,67.4355923 110.167487,67.4355923 Z M123.154365,69.0013861 C122.279358,69.0013861 121.719055,68.5408631 121.473439,67.6198034 C120.813346,68.5408631 119.930677,69.0013861 118.825405,69.0013861 C117.935048,69.0013861 117.202048,68.6866954 116.626386,68.0573046 C116.050724,67.4279137 115.762897,66.6219985 115.762897,65.6395348 C115.762897,64.3807531 116.154341,63.4904087 116.937242,62.9684748 C117.489878,62.6000509 118.341846,62.3390879 119.49317,62.1855779 C120.153263,62.093472 120.606111,61.9207758 120.851727,61.6674844 C121.097343,61.414193 121.220149,60.9882092 121.220149,60.3895204 C121.220149,59.1460897 120.690547,58.5243837 119.631329,58.5243837 C119.355011,58.5243837 119.04032,58.6011375 118.687247,58.7546475 C118.288121,58.9388594 118.088561,59.1614455 118.088561,59.4224125 C118.088561,59.4991675 118.134613,59.6142982 118.226719,59.7678082 C118.410931,60.0594771 118.503036,60.3357909 118.503036,60.5967578 C118.503036,61.2568506 118.157644,61.5868921 117.466849,61.5868921 C116.668597,61.5868921 116.269477,61.0879922 116.269477,60.0901775 C116.269477,59.2458727 116.588006,58.5435751 117.225072,57.9832638 C117.862138,57.4229524 118.664216,57.142801 119.631329,57.142801 C120.27607,57.142801 120.859399,57.2732825 121.381333,57.5342494 C121.964671,57.8412693 122.363791,58.2710908 122.578705,58.8237266 C122.747566,59.2842565 122.831995,60.0594702 122.831995,61.1493909 L122.855022,66.7908537 C122.870373,67.2360326 123.000854,67.4586187 123.24647,67.4586187 C123.584192,67.4586187 123.75305,66.9136665 123.75305,65.8237458 C123.75305,65.6241829 123.745375,65.4783506 123.730024,65.3862446 L123.730024,65.1559808 C123.730024,64.495888 123.95261,64.1658465 124.397789,64.1658465 C124.904372,64.1658465 125.157659,64.6033433 125.157659,65.4783501 C125.157659,66.8138868 125.011827,67.7349327 124.720158,68.2415156 C124.428489,68.7480985 123.906563,69.0013861 123.154365,69.0013861 Z M121.197122,65.2711127 C121.258526,64.9180398 121.296903,64.2272553 121.312254,63.1987386 C120.882426,63.3829506 120.46028,63.5134321 120.045803,63.5901871 L119.009616,63.7743981 C117.888994,63.973961 117.328691,64.6110178 117.328691,65.6855875 C117.328691,66.2382234 117.486036,66.6833956 117.800731,67.0211175 C118.115427,67.3588394 118.52606,67.5276978 119.032643,67.5276978 C119.569928,67.5276978 120.038126,67.3204625 120.437252,66.9059856 C120.836378,66.4915087 121.089665,65.9465565 121.197122,65.2711127 Z M126.792532,57.0046427 L126.815559,56.7283261 L126.815559,54.9092422 C126.815559,54.2337984 127.076522,53.8960815 127.598456,53.8960815 C128.12039,53.8960815 128.381353,54.2337984 128.381353,54.9092422 L128.381353,56.7513525 C128.381353,57.0123195 128.408216,57.1773402 128.461945,57.2464197 C128.515673,57.3154991 128.649993,57.3500384 128.864906,57.3500384 C129.125873,57.3500384 129.36381,57.342363 129.578724,57.327012 L130.338595,57.2809592 C130.952635,57.2809592 131.25965,57.557273 131.25965,58.1099089 C131.25965,58.6932467 130.952635,58.9849113 130.338595,58.9849113 C130.169734,58.9849113 129.912608,58.9580474 129.567211,58.9043189 C129.221814,58.8505905 128.964688,58.8237266 128.795827,58.8237266 C128.611615,58.8237266 128.496485,58.8659412 128.450432,58.9503717 C128.404379,59.0348022 128.381353,59.2305244 128.381353,59.5375444 L128.381353,64.1658465 C128.381353,65.2250652 128.396703,65.8467713 128.427405,66.0309832 C128.550213,66.875288 128.872579,67.2974341 129.394513,67.2974341 C130.085308,67.2974341 130.4307,66.4915189 130.4307,64.8796643 L130.4307,64.6494005 C130.4307,64.1428176 130.453726,63.8204515 130.499779,63.6822926 C130.591885,63.3292197 130.814471,63.1526859 131.167544,63.1526859 C131.689478,63.1526859 131.950441,63.6132088 131.950441,64.5342686 C131.950441,64.8719905 131.91974,65.363215 131.858336,66.0079568 C131.674124,67.9728843 130.814481,68.9553333 129.279381,68.9553333 C128.082004,68.9553333 127.329816,68.4103811 127.022796,67.3204604 C126.884637,66.8292286 126.815559,66.0233134 126.815559,64.9026906 L126.815559,59.4224125 C126.815559,59.0846906 126.723454,58.9158321 126.539242,58.9158321 C126.523891,58.9158321 126.439462,58.9311829 126.285952,58.9618849 L126.17082,58.9618849 C126.109416,58.9772359 126.063364,58.9849113 126.032662,58.9849113 C125.572132,58.9849113 125.341871,58.6932467 125.341871,58.1099089 C125.341871,57.572624 125.572132,57.3039856 126.032662,57.3039856 C126.094066,57.3039856 126.178495,57.311661 126.285952,57.327012 C126.393409,57.342363 126.477838,57.3500384 126.539242,57.3500384 C126.692752,57.3500384 126.777181,57.2349076 126.792532,57.0046427 Z M141.322177,62.1164988 C141.322177,62.6844857 141.283801,63.0337156 141.207046,63.164199 C141.130291,63.2946825 140.923055,63.3599233 140.585333,63.3599233 L136.003084,63.3599233 C135.63466,63.3599233 135.404399,63.3944625 135.312293,63.463542 C135.220187,63.5326214 135.174134,63.7129929 135.174134,64.0046619 C135.174134,65.0178276 135.389045,65.8390936 135.818873,66.4684844 C136.248701,67.0978752 136.816679,67.4125659 137.522825,67.4125659 C137.968004,67.4125659 138.367124,67.2667337 138.720197,66.9750647 C139.07327,66.6833958 139.311206,66.3073021 139.434014,65.8467722 L139.641252,65.0638753 C139.748709,64.6340474 140.017347,64.4191367 140.447175,64.4191367 C140.938407,64.4191367 141.184019,64.6954505 141.184019,65.2480863 C141.184019,66.2459011 140.811763,67.1208947 140.06724,67.8730935 C139.322717,68.6252923 138.459236,69.0013861 137.476772,69.0013861 C136.264043,69.0013861 135.296945,68.4756224 134.575448,67.4240791 C133.853952,66.3725359 133.493209,64.9564278 133.493209,63.1757122 C133.493209,61.3949967 133.876978,59.9443493 134.644528,58.8237266 C135.412077,57.7031039 136.409877,57.142801 137.637957,57.142801 C138.727878,57.142801 139.614384,57.6071616 140.297504,58.5358969 C140.980623,59.4646321 141.322177,60.6581542 141.322177,62.1164988 Z M135.289266,61.4257074 C135.289266,61.7020254 135.488826,61.8401823 135.887952,61.8401823 L138.789276,61.8401823 C139.1577,61.8401823 139.387961,61.8094807 139.480067,61.7480767 C139.572173,61.6866728 139.618225,61.5331651 139.618225,61.2875492 C139.618225,60.5507014 139.418665,59.9366707 139.01954,59.4454388 C138.620414,58.954207 138.129189,58.7085947 137.545851,58.7085947 C136.640143,58.7085947 135.987735,59.21517 135.588609,60.2283357 C135.435099,60.6121106 135.342995,60.9421521 135.312293,61.21847 C135.296942,61.279874 135.289266,61.3489525 135.289266,61.4257074 Z M152.401553,58.8467428 C152.400385,58.8467496 152.399156,58.846753 152.397866,58.8467428 C152.399036,58.846753 152.400206,58.8467504 152.401374,58.8467451 L152.401553,58.8467428 Z M152.401553,58.8467428 C152.455983,58.8464271 152.378,58.8387551 152.167602,58.8237266 C152.014092,58.8083756 151.906637,58.8007002 151.845233,58.8007002 C151.584266,58.8007002 151.315627,58.9849094 151.039309,59.3533333 L150.601808,59.9289928 L148.736671,62.7842638 L151.154441,66.6526954 C151.430759,67.0671723 151.737774,67.2744077 152.075496,67.2744077 L152.167602,67.2744077 C152.275059,67.2590567 152.39019,67.2513813 152.512998,67.2513813 C152.958176,67.2513813 153.180763,67.5046689 153.180763,68.0112518 C153.180763,68.2261657 153.104009,68.4142126 152.950499,68.5753981 C152.796989,68.7365835 152.620455,68.8171751 152.420892,68.8171751 C152.282733,68.8171751 151.960367,68.7711228 151.453784,68.6790168 C151.284923,68.6483148 151.016285,68.632964 150.647861,68.632964 C150.156629,68.632964 149.849614,68.6483148 149.726806,68.6790168 L148.805751,68.8171751 C148.314519,68.8171751 148.068906,68.5485367 148.068906,68.0112518 C148.068906,67.4893179 148.322194,67.2283549 148.828777,67.2283549 L148.966935,67.2283549 C149.028339,67.2437059 149.105093,67.2513813 149.197199,67.2513813 C149.350709,67.2513813 149.427463,67.1899782 149.427463,67.0671703 C149.427463,66.9443623 149.327683,66.7217762 149.12812,66.3994053 L148.736671,65.777693 L147.723511,64.2118993 L146.272849,66.3533525 L145.973506,66.744801 C145.896751,66.8522579 145.858374,66.9520379 145.858374,67.0441439 C145.858374,67.2130048 145.973505,67.2974341 146.20377,67.2974341 L146.318902,67.2974341 C146.380306,67.2820831 146.464735,67.2744077 146.572192,67.2744077 C147.032722,67.2744077 147.262983,67.5276953 147.262983,68.0342782 C147.262983,68.556212 147.017371,68.8171751 146.526139,68.8171751 C146.372629,68.8171751 146.173069,68.7941489 145.927453,68.7480959 C145.605082,68.7020429 145.397847,68.6713414 145.305741,68.6559904 C145.090827,68.6406394 144.845215,68.632964 144.568897,68.632964 C144.353983,68.632964 144.09302,68.6483148 143.786,68.6790168 C143.310119,68.7711228 143.018455,68.8171751 142.910998,68.8171751 C142.696084,68.8171751 142.515712,68.7404212 142.369878,68.5869113 C142.224043,68.4334013 142.151127,68.2491921 142.151127,68.0342782 C142.151127,67.5123443 142.396739,67.2513813 142.887971,67.2513813 C142.995428,67.2513813 143.079857,67.2590567 143.141261,67.2744077 L143.27942,67.2744077 C143.340824,67.2897587 143.386876,67.2974341 143.417578,67.2974341 C143.724598,67.2974341 144.254199,66.714105 145.006398,65.5474293 L146.802456,62.7842638 L145.190609,60.1592566 C144.89894,59.6987267 144.707056,59.4070622 144.61495,59.2842542 C144.338632,58.9618833 144.039292,58.8007002 143.716921,58.8007002 L143.601789,58.8007002 C143.494332,58.8160512 143.379201,58.8237266 143.256393,58.8237266 C142.795863,58.8237266 142.565602,58.5857897 142.565602,58.1099089 C142.565602,57.8949949 142.642356,57.706948 142.795866,57.5457626 C142.949376,57.3845771 143.125909,57.3039856 143.325472,57.3039856 C143.494333,57.3039856 143.747621,57.3270118 144.085343,57.3730647 C144.423065,57.4191177 144.691703,57.4421439 144.891266,57.4421439 C145.244339,57.4421439 145.593569,57.4191177 145.938966,57.3730647 C146.284364,57.3270118 146.541489,57.3039856 146.71035,57.3039856 C147.247635,57.3039856 147.516273,57.5572732 147.516273,58.0638561 C147.516273,58.570439 147.247635,58.8237266 146.71035,58.8237266 C146.541489,58.8237266 146.45706,58.8928051 146.45706,59.030964 C146.45706,59.046315 146.572191,59.245875 146.802456,59.6296499 L147.861669,61.4026811 L149.312331,59.2151751 C149.373735,59.1077181 149.404436,59.0156135 149.404436,58.9388585 C149.404436,58.8467525 149.350709,58.8007002 149.243252,58.8007002 L149.151146,58.8007002 C149.089742,58.8160512 149.020664,58.8237266 148.943909,58.8237266 C148.468028,58.8237266 148.230091,58.5781144 148.230091,58.0868825 C148.230091,57.5649486 148.475703,57.3039856 148.966935,57.3039856 C149.166498,57.3039856 149.462,57.3346871 149.853451,57.3960911 C150.244901,57.4574951 150.540403,57.4881966 150.739966,57.4881966 C150.939529,57.4881966 151.227356,57.4574951 151.603456,57.3960911 C151.979555,57.3346871 152.252031,57.3039856 152.420892,57.3039856 C152.896773,57.3039856 153.13471,57.5572732 153.13471,58.0638561 C153.13471,58.2787701 153.061794,58.4629792 152.915959,58.6164892 C152.77098,58.7690988 152.599453,58.84585 152.401374,58.8467451 L152.401553,58.8467428 Z M165.200532,53.0441055 C166.259751,53.0441055 167.2422,53.473927 168.147909,54.3335827 C168.117207,54.1647218 168.101856,53.9958634 168.101856,53.8270024 C168.101856,53.2436645 168.332118,52.952 168.792647,52.952 C169.253177,52.952 169.483439,53.2283138 169.483439,53.7809496 C169.483439,53.9191086 169.460413,54.3028777 169.41436,54.9322686 C169.352956,55.6077124 169.322254,56.16034 169.322254,56.5901679 C169.322254,56.8050818 169.341443,57.1236102 169.37982,57.5457626 C169.418198,57.967915 169.437386,58.2864434 169.437386,58.5013573 C169.437386,59.1153972 169.176423,59.4224125 168.654489,59.4224125 C168.193959,59.4224125 167.963698,59.1307479 167.963698,58.5474101 L167.963698,57.9256978 C167.963698,55.7458564 167.081029,54.655952 165.315664,54.655952 C164.179691,54.655952 163.335398,55.1778781 162.782763,56.2217458 C162.107319,57.4958785 161.769602,59.0616566 161.769602,60.9191271 C161.769602,62.8226506 162.130345,64.4421564 162.851842,65.777693 C163.419829,66.8215608 164.218068,67.3434868 165.246585,67.3434868 C166.060188,67.3434868 166.716433,67.0211207 167.215341,66.3763789 C167.714248,65.7316371 167.963698,64.8719942 167.963698,63.7974245 C167.963698,62.7842587 167.733436,62.2776835 167.272906,62.2776835 C167.150099,62.2776835 166.965889,62.3007096 166.720273,62.3467626 C166.474657,62.3928156 166.290448,62.4158417 166.16764,62.4158417 C165.968077,62.4158417 165.799219,62.3352502 165.66106,62.1740647 C165.522901,62.0128793 165.453823,61.817157 165.453823,61.5868921 C165.453823,61.0342562 165.722461,60.7579424 166.259746,60.7579424 C166.505362,60.7579424 166.866105,60.7963194 167.341986,60.8730743 C167.817866,60.9498293 168.178609,60.9882062 168.424225,60.9882062 C168.700543,60.9882062 169.099663,60.9383162 169.621597,60.8385348 C170.143531,60.7387533 170.534976,60.6888633 170.795942,60.6888633 C171.302525,60.6888633 171.555813,60.9728525 171.555813,61.5408393 C171.555813,62.0627732 171.325551,62.3237362 170.865022,62.3237362 C170.788267,62.3237362 170.726864,62.3160608 170.680811,62.3007098 C170.373791,62.2700078 170.227958,62.2546571 170.243309,62.2546571 C169.997693,62.2546571 169.824997,62.4120024 169.725216,62.7266978 C169.625434,63.0413933 169.575544,63.6055339 169.575544,64.4191367 C169.575544,64.6647526 169.58322,65.0101449 169.598571,65.4553237 L169.644624,66.8138801 L169.713703,67.9191463 L169.713703,68.0342782 C169.713703,68.648318 169.46809,68.9553333 168.976859,68.9553333 C168.485627,68.9553333 168.240014,68.6866949 168.240014,68.1494101 C168.240014,68.0573041 168.263041,67.734938 168.309094,67.1823022 C167.449438,68.3950308 166.390235,69.0013861 165.131453,69.0013861 C163.596354,69.0013861 162.368292,68.2799001 161.447233,66.8369065 C160.526173,65.3939128 160.06565,63.4827425 160.06565,61.1033381 C160.06565,58.6471788 160.530011,56.6899561 161.458746,55.2316115 C162.387481,53.7732669 163.634731,53.0441055 165.200532,53.0441055 Z M175.332139,57.9487242 L175.332139,58.2480671 C175.96153,57.5112193 176.690691,57.142801 177.519645,57.142801 C178.333248,57.142801 178.993331,57.4306278 179.499914,58.0062902 C180.006497,58.5819525 180.259784,59.322627 180.259784,60.2283357 C180.259784,60.9037796 180.125465,61.4564071 179.856823,61.886235 C179.58818,62.3160629 179.246626,62.5309736 178.832149,62.5309736 C178.509778,62.5309736 178.241139,62.4235183 178.026225,62.2086043 C177.811311,61.9936904 177.703856,61.725052 177.703856,61.4026811 C177.703856,60.7886412 178.041573,60.4355736 178.717017,60.3434676 C178.732368,60.2360107 178.740043,60.1055291 178.740043,59.9520192 C178.740043,59.5835953 178.613399,59.2650669 178.360108,58.9964245 C178.106816,58.727782 177.803639,58.5934628 177.450566,58.5934628 C176.145731,58.5934628 175.493324,59.8906025 175.493324,62.4849209 L175.493324,64.3730839 C175.493324,65.6932696 175.524025,66.5106979 175.585429,66.8253933 C175.646833,67.1400887 175.800341,67.2974341 176.045957,67.2974341 C176.107361,67.2974341 176.245518,67.2820833 176.460432,67.2513813 C176.567889,67.2206793 176.713721,67.2053285 176.897933,67.2053285 C177.358463,67.2053285 177.588724,67.4586162 177.588724,67.965199 C177.588724,68.5331859 177.335437,68.8171751 176.828854,68.8171751 C176.659993,68.8171751 176.322276,68.7711228 175.815693,68.6790168 C175.477971,68.6483148 175.155605,68.632964 174.848585,68.632964 C174.61832,68.632964 174.303629,68.6636656 173.904504,68.7250695 C173.505378,68.7864735 173.229064,68.8171751 173.075554,68.8171751 C172.584322,68.8171751 172.33871,68.556212 172.33871,68.0342782 C172.33871,67.5123443 172.553621,67.2513813 172.983448,67.2513813 C173.075554,67.2513813 173.159984,67.2590567 173.236739,67.2744077 L173.443976,67.2744077 C173.689592,67.2744077 173.839262,67.1631146 173.89299,66.9405252 C173.946719,66.7179357 173.973583,66.1077428 173.973583,65.1099281 L173.973583,61.0572854 C173.973583,60.0901726 173.939044,59.476142 173.869964,59.2151751 C173.800885,58.9542081 173.643539,58.8237266 173.397923,58.8237266 L173.351871,58.8237266 C173.33652,58.8390776 173.321169,58.846753 173.305818,58.846753 L173.09858,58.846753 C173.006474,58.862104 172.952747,58.8697794 172.937396,58.8697794 C172.522919,58.8697794 172.315683,58.6241671 172.315683,58.1329353 C172.315683,57.9026703 172.384762,57.706948 172.522921,57.5457626 C172.66108,57.3845771 172.829938,57.3039856 173.029501,57.3039856 C173.152309,57.3039856 173.344194,57.3270118 173.605161,57.3730647 C173.866128,57.4191177 174.065688,57.4421439 174.203847,57.4421439 C174.342005,57.4421439 174.579942,57.403767 174.917664,57.327012 C174.994419,57.311661 175.055822,57.3039856 175.101875,57.3039856 C175.240034,57.3039856 175.316788,57.5188963 175.332139,57.9487242 Z M185.670983,69.0013861 C184.412202,69.0013861 183.414402,68.467947 182.677554,67.4010528 C181.940706,66.3341585 181.572288,64.8950242 181.572288,63.0836067 C181.572288,61.2721892 181.940706,59.8292172 182.677554,58.7546475 C183.414402,57.6800778 184.412202,57.142801 185.670983,57.142801 C186.929765,57.142801 187.927565,57.6800778 188.664412,58.7546475 C189.40126,59.8292172 189.769679,61.2721892 189.769679,63.0836067 C189.769679,64.8950242 189.40126,66.3341585 188.664412,67.4010528 C187.927565,68.467947 186.929765,69.0013861 185.670983,69.0013861 Z M185.670983,58.6855683 C184.918784,58.6855683 184.320105,59.0885259 183.874926,59.8944532 C183.429747,60.7003805 183.207161,61.7634211 183.207161,63.0836067 C183.207161,64.4037924 183.429747,65.4629952 183.874926,66.261247 C184.320105,67.0594988 184.918784,67.4586187 185.670983,67.4586187 C186.423182,67.4586187 187.0257,67.0594988 187.478554,66.261247 C187.931408,65.4629952 188.157832,64.4037924 188.157832,63.0836067 C188.157832,61.7634211 187.931408,60.7003805 187.478554,59.8944532 C187.0257,59.0885259 186.423182,58.6855683 185.670983,58.6855683 Z M198.266412,67.6428297 C197.590969,68.5485385 196.731326,69.0013861 195.687458,69.0013861 C195.10412,69.0013861 194.536142,68.8402031 193.983506,68.5178321 C193.43087,68.1954612 193.035588,67.7848282 192.797647,67.2859209 C192.559707,66.7870135 192.433063,66.2382236 192.417712,65.6395348 L192.417712,61.0572854 C192.417712,60.0901726 192.383173,59.476142 192.314094,59.2151751 C192.245014,58.9542081 192.087669,58.8237266 191.842053,58.8237266 L191.796,58.8237266 C191.780649,58.8390776 191.765298,58.846753 191.749947,58.846753 L191.54271,58.846753 C191.450604,58.862104 191.396876,58.8697794 191.381525,58.8697794 C190.967048,58.8697794 190.759813,58.6241671 190.759813,58.1329353 C190.759813,57.9026703 190.828891,57.706948 190.96705,57.5457626 C191.105209,57.3845771 191.274068,57.3039856 191.473631,57.3039856 C191.596439,57.3039856 191.784486,57.3270118 192.037777,57.3730647 C192.291068,57.4191177 192.479115,57.4421439 192.601923,57.4421439 C192.832188,57.4421439 193.008722,57.4267931 193.13153,57.3960911 L193.522978,57.3039856 C193.55368,57.3039856 193.584382,57.2963102 193.615084,57.2809592 L193.684163,57.2809592 C193.929779,57.2809592 194.052585,57.4191161 194.052585,57.6954341 L194.052585,57.9256978 L194.029559,58.9158321 L193.983506,61.9092614 L193.983506,63.88953 C193.983506,65.1636626 194.137014,66.0655201 194.444034,66.5951295 C194.751053,67.1247389 195.27298,67.3895396 196.009827,67.3895396 C197.514225,67.3895396 198.266412,65.9619184 198.266412,63.1066331 L198.266412,62.4618945 C198.266412,61.7864507 198.258737,61.2338231 198.243386,60.8039952 L198.197333,59.6066235 C198.181982,59.0846896 197.997773,58.8237266 197.6447,58.8237266 L197.39141,58.8237266 C197.345357,58.8390776 197.30698,58.846753 197.276278,58.846753 C196.831099,58.846753 196.608513,58.6011407 196.608513,58.1099089 C196.608513,57.8949949 196.681429,57.7031104 196.827264,57.5342494 C196.973098,57.3653884 197.145794,57.2809592 197.345357,57.2809592 C197.437463,57.2809592 197.602484,57.3116608 197.840424,57.3730647 C198.078365,57.4344687 198.258736,57.4651703 198.381544,57.4651703 C198.504352,57.4651703 198.688562,57.4383064 198.934177,57.3845779 C199.179793,57.3308495 199.364003,57.3039856 199.486811,57.3039856 C199.732426,57.3039856 199.855233,57.5112209 199.855233,57.9256978 L199.855233,58.2480671 C199.824531,58.723948 199.80918,59.3379787 199.80918,60.0901775 L199.80918,65.0408489 C199.80918,66.0079617 199.839881,66.6219923 199.901285,66.8829592 C199.962689,67.1439262 200.116197,67.2744077 200.361813,67.2744077 L200.476945,67.2744077 C200.584402,67.2590567 200.707208,67.2513813 200.845367,67.2513813 C201.244493,67.2513813 201.444053,67.4969935 201.444053,67.9882254 C201.444053,68.5255103 201.213791,68.7941487 200.753261,68.7941487 C200.630453,68.7941487 200.438569,68.7711225 200.177602,68.7250695 C199.916635,68.6790166 199.717075,68.6559904 199.578916,68.6559904 C199.471459,68.6559904 199.314114,68.6828542 199.106875,68.7365827 C198.899637,68.7903112 198.749967,68.8171751 198.657861,68.8171751 C198.396894,68.8171751 198.266412,68.5869136 198.266412,68.1263837 L198.266412,67.6428297 Z M204.782878,57.994777 C204.782878,58.1329359 204.775202,58.2710928 204.759851,58.4092518 C205.650209,57.564947 206.517527,57.142801 207.361832,57.142801 C208.467104,57.142801 209.349773,57.6608893 210.009866,58.6970815 C210.669959,59.7332738 211,61.1340311 211,62.8993957 C211,64.7261642 210.639257,66.1998377 209.91776,67.3204604 C209.196263,68.4410831 208.244516,69.0013861 207.062489,69.0013861 C206.248886,69.0013861 205.504374,68.6636692 204.82893,67.9882254 L204.82893,68.8171751 C204.82893,69.8149898 204.855794,70.4251827 204.909523,70.6477722 C204.963251,70.8703616 205.112921,70.9816547 205.358537,70.9816547 L205.565775,70.9816547 C205.719285,70.9509527 205.803714,70.9356019 205.819065,70.9356019 C206.233542,70.9356019 206.440777,71.2042403 206.440777,71.7415252 C206.440777,72.263459 206.20284,72.5244221 205.726959,72.5244221 C205.5888,72.5244221 205.335513,72.4860451 204.967089,72.4092902 C204.598665,72.3325352 204.307,72.2941583 204.092086,72.2941583 C203.754364,72.2941583 203.41281,72.3325352 203.067412,72.4092902 C202.722015,72.4860451 202.503267,72.5244221 202.411161,72.5244221 C201.93528,72.5244221 201.697343,72.263459 201.697343,71.7415252 C201.697343,71.2042403 201.904578,70.9356019 202.319055,70.9356019 C202.365108,70.9356019 202.449537,70.9509527 202.572345,70.9816547 L202.779583,70.9816547 C203.025199,70.9816547 203.174869,70.8703616 203.228597,70.6477722 C203.282326,70.4251827 203.309189,69.8149898 203.309189,68.8171751 L203.309189,61.0572854 C203.309189,60.0901726 203.278488,59.476142 203.217084,59.2151751 C203.15568,58.9542081 203.002172,58.8237266 202.756556,58.8237266 L202.710504,58.8237266 C202.679802,58.8390776 202.656775,58.846753 202.641424,58.846753 L202.434187,58.846753 C202.357432,58.862104 202.303704,58.8697794 202.273002,58.8697794 C201.873877,58.8697794 201.674317,58.6241671 201.674317,58.1329353 C201.674317,57.5802994 201.904578,57.3039856 202.365108,57.3039856 C202.487916,57.3039856 202.656774,57.3270118 202.871688,57.3730647 C203.086602,57.4191177 203.309188,57.4421439 203.539453,57.4421439 C203.662261,57.4421439 203.900198,57.403767 204.253271,57.327012 C204.330026,57.311661 204.399104,57.3039856 204.460508,57.3039856 C204.675422,57.3039856 204.782878,57.5342471 204.782878,57.994777 Z M207.016436,67.4355923 C207.737933,67.4355923 208.305912,67.0326347 208.720388,66.2267074 C209.134865,65.4207801 209.342101,64.3116873 209.342101,62.8993957 C209.342101,61.594561 209.142541,60.5814105 208.743415,59.8599137 C208.344289,59.1384169 207.791661,58.7776739 207.085516,58.7776739 C206.364019,58.7776739 205.807554,59.1576053 205.416103,59.9174796 C205.024653,60.6773539 204.82893,61.7557452 204.82893,63.1526859 C204.82893,64.5035735 205.020815,65.555101 205.40459,66.3072998 C205.788365,67.0594986 206.325642,67.4355923 207.016436,67.4355923 Z" id="Finpatex-Group" fill="#B6C4DD"></path>
                </g>
            </g>
        </g>
    </g>
</svg>