<?xml version="1.0" encoding="UTF-8"?>
<svg width="486px" height="388px" viewBox="0 0 486 388" version="1.1" xmlns="http://www.w3.org/2000/svg" xmlns:xlink="http://www.w3.org/1999/xlink">
    <!-- Generator: Sketch 51.2 (57519) - http://www.bohemiancoding.com/sketch -->
    <title>Group 1017</title>
    <desc>Created with Sketch.</desc>
    <defs>
        <linearGradient x1="0%" y1="49.9951082%" x2="99.9951338%" y2="49.9951082%" id="linearGradient-1">
            <stop stop-color="#A5B5BD" offset="0%"></stop>
            <stop stop-color="#D8E1E3" offset="100%"></stop>
        </linearGradient>
        <path d="M24.6232422,15.4765287 C22.9537109,22.1316574 16.1712891,26.1818913 9.47402344,24.5222776 C2.77947754,22.8630521 -1.29591309,16.1221282 0.374399414,9.46736834 C2.04314941,2.81144387 8.82558594,-1.23917824 15.5208984,0.420047261 C22.2177734,2.07927276 26.2927734,8.82099248 24.6232422,15.4765287 Z" id="path-2"></path>
    </defs>
    <g id="Page-1" stroke="none" stroke-width="1" fill="none" fill-rule="evenodd">
        <g id="product" transform="translate(-711.000000, -214.000000)">
            <g id="Group-1017" transform="translate(711.000000, 214.000000)">
                <ellipse id="Oval-3" fill="#EDF3FE" fill-rule="nonzero" cx="390.5" cy="358" rx="95.5" ry="11"></ellipse>
                <ellipse id="Oval-3" fill="#1E7CD4" fill-rule="nonzero" cx="124" cy="379" rx="33" ry="6"></ellipse>
                <ellipse id="Oval-3" fill="#1E7CD4" fill-rule="nonzero" cx="50" cy="380" rx="33" ry="5"></ellipse>
                <polygon id="Fill-9" fill="#FFFFFF" points="175 106 311 106 311 57 175 57"></polygon>
                <polygon id="Fill-10" fill="#8395AE" points="183 70 287 70 287 66 183 66"></polygon>
                <polygon id="Fill-11" fill="#AEBACB" points="183 77 298 77 298 74 183 74"></polygon>
                <polygon id="Fill-12" fill="#AEBACB" points="183 84 287 84 287 81 183 81"></polygon>
                <polygon id="Fill-13" fill="#AEBACB" points="183 90 295 90 295 87 183 87"></polygon>
                <polygon id="Fill-14" fill="#AEBACB" points="183 97 208 97 208 94 183 94"></polygon>
                <path d="M311,102 L297,102 L297,76.0988697 L297.033251,76.0988697 L297.033251,101.925102 L311,101.925102 L311,102 Z M297.033251,73.5434108 L297,73.5434108 L297,57 L297.033251,57 L297.033251,73.5434108 Z" id="Fill-17" fill="#E5E8EC"></path>
                <polygon id="Fill-18" fill="#B7BEC0" points="297 77 297.0288 77 297.0288 74 297 74"></polygon>
                <path d="M311,102 L297,102 L297,76.1307107 L297.03448,76.1307107 L297.03448,101.924978 L311,101.924978 L311,102 Z M297.03448,73.5709913 L297,73.5709913 L297,57 L297.03448,57 L297.03448,73.5709913 Z" id="Fill-21" fill="#E5E8EC"></path>
                <polygon id="Fill-22" fill="#B7BEC0" points="297 77 297.03 77 297.03 74 297 74"></polygon>
                <path d="M311,101 L297,101 L297,75.7368211 L297.035717,75.7368211 L297.035717,100.926522 L311,100.926522 L311,101 Z M297.035717,73.2298048 L297,73.2298048 L297,57 L297.035717,57 L297.035717,73.2298048 Z" id="Fill-25" fill="#E5E8EC"></path>
                <polygon id="Fill-26" fill="#B7BEC0" points="297 77 297.031 77 297.031 74 297 74"></polygon>
                <path d="M311,101 L297,101 L297,75.768163 L297.034653,75.768163 L297.034653,100.925301 L311,100.925301 L311,101 Z M297.034653,73.2569531 L297,73.2569531 L297,57 L297.034653,57 L297.034653,73.2569531 Z" id="Fill-29" fill="#E4E8EC"></path>
                <polygon id="Fill-30" fill="#B7BEC0" points="297 77 297.03 77 297.03 74 297 74"></polygon>
                <path d="M311,101 L297,101 L297,75.80008 L297.02316,75.80008 L297.02316,100.926274 L311,100.926274 L311,101 Z M297.02316,73.2845996 L297,73.2845996 L297,57 L297.02316,57 L297.02316,73.2845996 Z" id="Fill-33" fill="#E4E7EC"></path>
                <polygon id="Fill-34" fill="#B6BEC0" points="297 77 297.02 77 297.02 74 297 74"></polygon>
                <path d="M311,101 L297,101 L297,75.8316341 L297.034797,75.8316341 L297.034797,100.92615 L311,100.92615 L311,101 Z M297.034797,73.3119317 L297,73.3119317 L297,57 L297.034797,57 L297.034797,73.3119317 Z" id="Fill-37" fill="#E4E7EB"></path>
                <polygon id="Fill-38" fill="#B6BDC0" points="297 77 297.03 77 297.03 74 297 74"></polygon>
                <path d="M311,101 L297,101 L297,75.8632942 L297.034884,75.8632942 L297.034884,100.926026 L311,100.926026 L311,101 Z M297.034884,73.3393556 L297,73.3393556 L297,57 L297.034884,57 L297.034884,73.3393556 Z" id="Fill-41" fill="#E4E7EB"></path>
                <polygon id="Fill-42" fill="#B6BDBF" points="297 77 297.03 77 297.03 74 297 74"></polygon>
                <path d="M311,101 L297,101 L297,75.895061 L297.034971,75.895061 L297.034971,100.924796 L311,100.924796 L311,101 Z M297.034971,73.3668719 L297,73.3668719 L297,57 L297.034971,57 L297.034971,73.3668719 Z" id="Fill-45" fill="#E4E7EB"></path>
                <polygon id="Fill-46" fill="#B6BDBF" points="297 77 297.03 77 297.03 74 297 74"></polygon>
                <path d="M311,101 L297,101 L297,75.9274114 L297.035058,75.9274114 L297.035058,100.924667 L311,100.924667 L311,101 Z M297.035058,73.3948939 L297,73.3948939 L297,57 L297.035058,57 L297.035058,73.3948939 Z" id="Fill-49" fill="#E4E7EB"></path>
                <polygon id="Fill-50" fill="#B6BDBF" points="297 77 297.03 77 297.03 74 297 74"></polygon>
                <path d="M311,101 L297,101 L297,75.9598729 L297.022259,75.9598729 L297.022259,100.925648 L311,100.925648 L311,101 Z M297.022259,73.4230119 L297,73.4230119 L297,57 L297.022259,57 L297.022259,73.4230119 Z" id="Fill-53" fill="#E3E7EB"></path>
                <polygon id="Fill-54" fill="#B6BDBF" points="297 77 297.0188 77 297.0188 74 297 74"></polygon>
                <path d="M311,101 L297,101 L297,75.991966 L297.035202,75.991966 L297.035202,100.925522 L311,100.925522 L311,101 Z M297.035202,73.450811 L297,73.450811 L297,57 L297.035202,57 L297.035202,73.450811 Z" id="Fill-57" fill="#E3E7EB"></path>
                <polygon id="Fill-58" fill="#B6BDBF" points="297 77 297.03 77 297.03 74 297 74"></polygon>
                <path d="M311,101 L297,101 L297,76.024168 L297.036468,76.024168 L297.036468,100.925395 L311,100.925395 L311,101 Z M297.036468,73.4787043 L297,73.4787043 L297,57 L297.036468,57 L297.036468,73.4787043 Z" id="Fill-61" fill="#E3E6EB"></path>
                <polygon id="Fill-62" fill="#B5BDBF" points="297 77 297.031 77 297.031 74 297 74"></polygon>
                <path d="M311,101 L297,101 L297,76.0564794 L297.035383,76.0564794 L297.035383,100.925269 L311,100.925269 L311,101 Z M297.035383,73.5066924 L297,73.5066924 L297,57 L297.035383,57 L297.035383,73.5066924 Z" id="Fill-65" fill="#E3E6EB"></path>
                <polygon id="Fill-66" fill="#B5BDBF" points="297 77 297.03 77 297.03 74 297 74"></polygon>
                <path d="M311,101 L297,101 L297,76.0889007 L297.023649,76.0889007 L297.023649,100.924024 L311,100.924024 L311,101 Z M297.023649,73.5347757 L297,73.5347757 L297,57 L297.023649,57 L297.023649,73.5347757 Z" id="Fill-69" fill="#E3E6EB"></path>
                <polygon id="Fill-350" fill="#D2D8E0" points="301 95 311 95 311 57 301 57"></polygon>
                <path d="M358,92.9190821 L361.003652,88.8040188 C361.003652,88.8040188 362.347699,86.7765456 364.685172,85.0013277 C367.034332,83.2296462 369.476991,83.9793398 371.569028,85.9195845 C373.672754,87.8562929 374,89.4016519 374,89.4016519 C374,89.4016519 372.76114,92.8566077 369.757487,92.6338214 C366.765522,92.4122138 360.419284,95.8942812 359.869978,94.7791709 C359.320672,93.6640606 358,92.9190821 358,92.9190821 Z" id="Fill-351" fill="#EDEEF0"></path>
                <polygon id="Fill-352" fill="#EDEEF0" points="371.766204 91 375.608796 87.1267316 379 83.3763544 377.900463 83 375.099537 85.3426142 369 86.8930188 369.925926 88.2645728"></polygon>
                <polygon id="Fill-353" fill="#EDEEF0" points="374.027735 84.8036254 376 80.6650302 374.989214 80 372.24037 83.7613293 368 86.6310423 370.231125 89"></polygon>
                <polygon id="Fill-354" fill="#EDEEF0" points="374 80 372.544423 83.6139556 371.94896 86.1380456 369.593573 88 367 86.5657756 369.606805 84.6349494 372.398866 80.170367"></polygon>
                <polygon id="Fill-355" fill="#EDEEF0" points="370 79 368.62069 85.7936317 366.843501 87 365 86.119255 366.870027 83.2811655 368.819629 79.5539201"></polygon>
                <path d="M358.474034,96.9661227 C360.381456,94.5977629 363.473963,94.8536688 363.473963,94.8536688 C363.473963,94.8536688 371.205231,95.2805887 372.37903,93.9604588 C373.575401,92.6378683 376.79206,91.6265479 376.79206,91.6265479 C376.79206,91.6265479 377.943285,90.4934261 374.828205,90.2781207 C372.785344,90.1415555 370.990787,90.6976587 370.990787,90.6976587 C370.990787,90.6976587 366.679336,88.7562188 365.33624,89.0256582 C362.559755,89.5829917 358,95.429457 358,95.429457 C358,95.429457 358.22573,97.2700109 358.474034,96.9661227 Z" id="Fill-356" fill="#FFB9A3"></path>
                <path d="M442.870934,220.984071 C442.035532,222.508918 436.759309,224 436.759309,224 L433,219.812117 L435.396285,219.812117 L437.100065,216 L442.23339,217.953982 C442.23339,217.953982 443.376572,220.051736 442.870934,220.984071 Z" id="Fill-357" fill="#FFB9A3"></path>
                <path d="M398.469679,146.684255 C398.469679,146.684255 396.749613,155.509743 371.014773,150.417286 C345.279934,145.325964 347.396938,139.556632 347.396938,139.556632 L347,132.767446 L360.374619,118 L367.585666,124.171368 L367.243858,125.640958 C367.243858,125.640958 368.269282,127.337686 369.989349,127.337686 C371.698389,127.337686 379.251245,129.713561 394.004122,130.393842 C400.807205,130.705023 398.800461,144.986391 398.469679,146.684255 Z" id="Fill-358" fill="#FCB74B"></path>
                <path d="M393.023579,129.04731 C392.727034,129.033463 392.441473,129.017309 392.155912,129 C393.342089,133.174847 393.254224,138.347827 393.188326,139.344805 C393.188326,139.344805 392.60622,148.458388 366.532281,146.571745 C361.831504,146.234803 358.053309,145.754776 355,145.198592 C358.393786,146.562513 363.226361,148.003747 370.123763,149.391901 C395.758377,154.566035 397.471744,145.598998 397.471744,145.598998 C397.801238,143.873903 399.800167,129.363482 393.023579,129.04731 Z" id="Fill-359" fill="#FFD89B"></path>
                <path d="M359.732028,119.605242 C359.732028,119.605242 348.823105,104.317038 363.407627,92.0161837 C367.736905,88.3592932 362.40032,90.3534552 357.395932,92.6801629 C352.40226,95.0079828 342.061288,106.639297 343.068595,118.276172 C344.065186,129.910822 345.393974,134.23058 349.733968,135.891084 C354.063246,137.554925 359.732028,119.605242 359.732028,119.605242 Z" id="Fill-360" fill="#FFB9A3"></path>
                <path d="M366.206522,132.789858 L368.282609,128.379077 L369,126.565646 C367.673913,126.250982 366.902174,125 366.902174,125 L366,128.579717 L364.141304,132.591412 L360,137 L366.206522,132.789858 Z" id="Fill-361" fill="#FFD89B"></path>
                <path d="M389.639714,199 L420.840321,198.335109 L433.804905,155.539017 C433.804905,155.539017 442.218931,129.663781 426.100495,129.333 C409.970795,129 391.39686,129 391.39686,129 C391.39686,129 380.527334,138.288489 389.639714,199 Z" id="Fill-362" fill="#FCB74B"></path>
                <path d="M418.291865,97.0455065 C418.291865,97.0455065 402.169412,112.242666 404.17227,117.510431 C404.260794,117.740538 406.794797,120.216713 407.0825,122.713093 C407.348072,125.063551 406.241521,126.448683 406.241521,127.389315 C406.241521,127.694628 405.433738,129.711711 405.345214,130.312234 C404.968987,133.016271 406.330045,135.251115 407.458727,134.977231 C408.830851,134.64049 414.662376,132.299011 415.680404,131.736652 C416.377531,131.348277 417.041462,131.282051 417.21851,130.1607 C417.583672,127.770956 418.823009,123.695257 420.018085,122.541355 C423.48159,119.155977 433.241373,115.894071 430.530322,106.170088 C429.733605,103.32911 419.663988,96.3731453 418.291865,97.0455065 Z" id="Fill-363" fill="#FFB9A3"></path>
                <path d="M479,47 C479,47 477.48944,39.8273994 468.614194,41.0930981 C468.614194,41.0930981 466.347413,32.8674436 457.472168,34.1322177 C448.596922,35.3979164 447.841642,42.3597213 447.841642,42.3597213 C447.841642,42.3597213 442.742796,39.8273994 439.343566,42.148001 C435.944335,44.4686027 435,47 435,47 L479,47 Z" id="Fill-1" fill="#4E8EFF"></path>
                <path d="M407,136 C407,136 392.6584,159.933251 396.726615,186.418808 C397.046587,188.506454 399.61779,190 399.61779,190 L403.148909,187.017333 C403.148909,187.017333 402.86322,157.040197 407,136 Z" id="Fill-364" fill="#163F59"></path>
                <polygon id="Fill-365" fill="#FFD89B" points="408 134.743674 408.800633 140 419 131.962596 417.816456 130"></polygon>
                <polygon id="Fill-366" fill="#FFD89B" points="404.648415 130.849221 404.948127 129 403.080692 132.172885 403 138 407 134.516611"></polygon>
                <path d="M404,118 C404,118 404.797792,118.195871 406.346446,118.426307 C406.862664,118.501838 408.364389,118.751477 409.044859,119.085609 C412.048309,120.56552 411.778468,120.75371 413.761215,121.259389 C416.013803,121.840599 421,122.022388 421,122.022388 C421,122.022388 418.489303,123.054229 417.492063,123.489497 C415.638371,124.301143 414.031056,124.010538 412.763975,123.543265 C407.249827,121.515429 407.249827,122.094079 406.68668,121.58712 C406.651484,121.552554 406.487233,121.098084 404,118 Z" id="Fill-367" fill="#FFB9A3"></path>
                <path d="M413,105 C412.747632,105.366139 409.23743,107.341737 408.583568,107.710464 C407.941178,108.075309 407.092306,108.515193 407.023478,108.808881 C406.966122,109.101275 407.023478,110.199692 407.092306,110.639576 C407.161133,111.07946 407.356144,112.83641 408.652396,111.518051 C409.948647,110.199692 413,105 413,105 Z" id="Fill-368" fill="#FFB9A3"></path>
                <path d="M432.822681,105.45365 C431.810601,100.422586 424.606971,95.7041137 416.307913,96.0145107 C416.307913,96.0145107 415.56969,97.1310623 416.379354,99.1820953 C416.379354,99.1820953 421.975563,98.196064 425.821468,102.099607 C429.845975,106.197286 424.857015,105.698238 424.940362,107.547458 C425.011803,109.10054 425.142778,110.482519 425.142778,110.482519 L423.630612,113.324352 L424.690319,114.395934 C424.690319,114.395934 427.667026,112.439227 427.571771,113.650104 C427.452703,115.117634 425.357101,116.706911 425.095151,116.956983 C424.821294,117.204862 424.368835,117.608488 424.428369,117.794945 C424.487903,117.940821 422.820947,119.099051 420.856321,121.765394 C421.404035,122.219473 422.749506,122.070307 424.53553,120.821042 C428.548131,118.00992 434.060991,111.59578 432.822681,105.45365 Z" id="Fill-369" fill="#013E6A"></path>
                <path d="M426.089971,115 C427.140078,115.77823 427.309061,117.194499 426.452077,118.161492 C425.607163,119.128484 424.062177,119.281923 423,118.502589" id="Fill-370" fill="#FFB9A3"></path>
                <path d="M410,112 C410,112 408.436561,109.542746 408.190877,109.40331 C407.934026,109.265097 407.364488,108.849236 407.174642,109.057166 C406.984795,109.265097 406.839619,110.131068 407.35332,111.688104 C407.476162,112.068495 407.777683,111.376207 410,112 Z" id="Fill-371" fill="#FFB9A3"></path>
                <polygon id="Fill-372" fill="#FFB9A3" points="390 346 398 346 398 334 390 334"></polygon>
                <polygon id="Fill-373" fill="#FFB9A3" points="448 346 455 346 455 334 448 334"></polygon>
                <path d="M397.489729,349 L391.804553,349 L391.804553,347.114377 L389.33843,349 L375,349 C375,349 375.250977,346.437793 384.886315,346.033986 C387.363349,345.929163 389.087453,342.259167 389.087453,342.259167 C389.087453,342.259167 390.320514,341.044173 392.175562,343.875585 C392.655692,344.611728 397.860739,343.200192 397.860739,343.200192 C397.860739,343.200192 398.351781,346.977393 397.489729,349 Z" id="Fill-374" fill="#081832"></path>
                <path d="M390.683264,199 L390,264.367384 L403.709358,272 C403.709358,272 411.941585,256.40393 412.96648,236.494738 C414.002396,216.586656 390.683264,199 390.683264,199 Z" id="Fill-375" fill="#153A64"></path>
                <path d="M391,197.991701 L421.721352,269.744072 L427.309093,277.38567 L448.504357,337 L456.504475,334.733773 C456.504475,334.733773 459.43299,301.967398 451.051379,288.014375 C442.669769,274.06313 438.484574,266.423088 438.484574,266.423088 L419.982196,196 L391,197.991701 Z" id="Fill-376" fill="#1D416B"></path>
                <polygon id="Fill-377" fill="#FFFFFF" points="399 220 475 220 475 166 399 166"></polygon>
                <polygon id="Fill-378" fill="#F3F3F3" points="400 188 473 188 473 178 400 178"></polygon>
                <polygon id="Fill-379" fill="#F3F3F3" points="400 207 473 207 473 197 400 197"></polygon>
                <polygon id="Fill-380" fill="url(#linearGradient-1)" points="400 219 473 219 473 209 400 209"></polygon>
                <polygon id="Fill-382" fill="#E5E8EC" points="399 176 475 176 475 166 399 166"></polygon>
                <polyline id="Fill-383" fill="#A5B6BE" points="405 173 438 173 438 171 405 171"></polyline>
                <polyline id="Fill-384" fill="#A5B6BE" points="452 173 459 173 459 171 452 171"></polyline>
                <polyline id="Fill-385" fill="#A5B6BE" points="462 173 469 173 469 171 462 171"></polyline>
                <polyline id="Fill-386" fill="#D9E1E4" points="405 184 438 184 438 182 405 182"></polyline>
                <polyline id="Fill-387" fill="#D9E1E4" points="452 184 459 184 459 182 452 182"></polyline>
                <polyline id="Fill-388" fill="#D9E1E4" points="462 184 469 184 469 182 462 182"></polyline>
                <polyline id="Fill-389" fill="#D9E1E4" points="405 194 438 194 438 192 405 192"></polyline>
                <polyline id="Fill-390" fill="#D9E1E4" points="452 194 459 194 459 192 452 192"></polyline>
                <polyline id="Fill-391" fill="#D9E1E4" points="462 194 469 194 469 192 462 192"></polyline>
                <polyline id="Fill-392" fill="#D9E1E4" points="405 203 438 203 438 201 405 201"></polyline>
                <polyline id="Fill-393" fill="#D9E1E4" points="452 203 459 203 459 201 452 201"></polyline>
                <polyline id="Fill-394" fill="#D9E1E4" points="462 203 469 203 469 201 462 201"></polyline>
                <polyline id="Fill-395" fill="#FFFFFF" points="405 216 438 216 438 214 405 214"></polyline>
                <polyline id="Fill-396" fill="#FFFFFF" points="452 216 459 216 459 214 452 214"></polyline>
                <polyline id="Fill-397" fill="#FFFFFF" points="462 216 469 216 469 214 462 214"></polyline>
                <path d="M399.470612,339 C402.07129,326.110446 407.778974,303.635464 407.963093,295.350039 C408.33133,280.010007 405.822712,269.336148 405.822712,269.336148 L390.069045,264 L390,339 L399.470612,339 Z" id="Fill-398" fill="#153A64"></path>
                <path d="M447,350 L450.903226,350 L452.134073,348.786508 L452.677419,345.81498 L453.919355,347.037202 L458,343.020238 C457.290323,341.097421 454.451613,339 454.451613,339 C454.451613,339 451.635081,343.592063 450.803427,343.456746 C447.609879,342.930754 447.521169,344.592758 447.521169,344.592758 C447.521169,344.592758 448.696573,348.179762 447,350 Z" id="Fill-399" fill="#081832"></path>
                <path d="M452,346 C451.191851,346.940203 450.074703,347.870521 448.767402,347.921176 C438.273345,348.34124 438,351 438,351 L452,351 L452,346 Z" id="Fill-400" fill="#081832"></path>
                <path d="M432.104639,153.380599 L450.23146,180.393954 L452.661059,180.720663 L451.966888,183 L465.100156,182.022052 L468,170.955343 L442.56199,134.501198 C442.56199,134.501198 434.635004,127.498743 421.658484,129.294552 C412.253586,130.59703 430.716297,151.102351 432.104639,153.380599 Z" id="Fill-401" fill="#FCB74B"></path>
                <path d="M451.44789,184.974435 L438,221.742091 C438,221.742091 440.933678,222.620842 442.624462,221.134234 C447.237726,217.102775 455.277347,206.127207 458.076658,200.112504 C461.906115,191.886609 464,183 464,183 L451.44789,184.974435 Z" id="Fill-402" fill="#FFB9A3"></path>
                <path d="M464,177 C464,177 455.501353,180.771785 451,182.588833 L452.113616,182.730858 L451.386835,185 L456.134355,184.628134 L462.792606,183.173194 L463.155996,180.569047 L461.092876,180.569047 L464,177 Z" id="Fill-403" fill="#FFD89B"></path>
                <polygon id="Fill-404" fill="#FFFFFF" points="295 92 400 92 400 29 295 29"></polygon>
                <polygon id="Fill-405" fill="#8395AE" points="300 36 331 36 331 33 300 33"></polygon>
                <polygon id="Fill-406" fill="#B7BEC0" points="304 41 312 41 312 39 304 39"></polygon>
                <polygon id="Fill-407" fill="#B7BEC0" points="320 41 328 41 328 39 320 39"></polygon>
                <polygon id="Fill-408" fill="#B7BEC0" points="338 41 346 41 346 39 338 39"></polygon>
                <polygon id="Fill-409" fill="#B7BEC0" points="386 41 394 41 394 39 386 39"></polygon>
                <polygon id="Fill-410" fill="#3468FE" points="300 41 303 41 303 38 300 38"></polygon>
                <polygon id="Fill-411" fill="#D2DCEA" points="316 41 319 41 319 38 316 38"></polygon>
                <polygon id="Fill-412" fill="#FCB74B" points="334 41 337 41 337 38 334 38"></polygon>
                <polygon id="Fill-413" fill="#B7BEC0" points="307 86.1899 394 86.1899 394 86 307 86"></polygon>
                <polygon id="Fill-414" fill="#B7BEC0" points="307 74.192 394 74.192 394 74 307 74"></polygon>
                <polygon id="Fill-415" fill="#B7BEC0" points="307 61.193 394 61.193 394 61 307 61"></polygon>
                <polygon id="Fill-416" fill="#D2DCEA" points="393.57628 65 382.860618 58.9569767 371.632032 63.5767442 360.816016 55.655814 352.430816 63.2034884 342.88596 63.8418605 336.630512 53.5895349 329.338064 50.0825581 321.766853 56.7662791 314.407501 56.4604651 306.590978 63.7093023 306 63.0209302 314.084136 55.5244186 321.453523 55.8313953 329.204257 49 337.232641 52.8651163 343.354283 62.8872093 352.073999 62.3023256 360.771414 54.4872093 371.754688 62.5383721 382.916371 57.944186 394 64.1906977"></polygon>
                <polygon id="Fill-417" fill="#B7BEC0" points="307 48.193 394 48.193 394 48 307 48"></polygon>
                <polygon id="Fill-418" fill="#B7BEC0" points="300 85.791 305 85.791 305 85 300 85"></polygon>
                <polygon id="Fill-419" fill="#B7BEC0" points="300 73.7949 305 73.7949 305 73 300 73"></polygon>
                <polygon id="Fill-420" fill="#B7BEC0" points="300 60.795 305 60.795 305 60 300 60"></polygon>
                <polygon id="Fill-421" fill="#B7BEC0" points="300 47.7941 305 47.7941 305 47 300 47"></polygon>
                <polygon id="Fill-422" fill="#92B9FF" points="362.863787 82 353.733197 81.0428939 344.90621 77.6976686 335.280859 78.0066374 329.613596 71.8388783 319.694761 70.3718576 315.27677 80.4179872 306.12369 81.6794159 306 80.7676097 314.669563 79.5735502 319.155022 69.3648054 330.040889 70.9712105 335.663174 77.0739235 345.052389 76.7707625 353.991822 80.1566415 362.740097 81.0614785 368.463583 78.6954285 374.962944 69.7295279 381.091234 77.6372687 384.262203 76.8160624 393.392793 68 394 68.6713681 384.711986 77.6512072 380.753897 78.6710363 374.996678 71.2360408 369.025811 79.4527504"></polygon>
                <polygon id="Fill-423" fill="#FCB74B" points="322.980109 77 315.230356 70.8088799 306.344508 74.4944381 306 73.6882911 315.376409 69.8020234 322.946662 75.8486766 336.124921 63.9682106 345.813506 67.8599923 355.791968 74.334532 359.8168 66.7505754 364.454833 63.3032221 370.218928 54 377.187128 57.4749233 382.917775 63.4212217 388.715317 62.3316552 393.319904 56.9113924 394 57.4749233 389.18358 63.1311853 382.6056 64.368527 376.596225 58.133295 370.553402 55.142501 365.056886 63.9538742 360.418852 67.3890967 356.126441 75.598341 345.400988 68.628644 336.314456 64.9860951"></polygon>
                <path d="M318,70.4986643 C318,71.3254675 317.333333,72 316.508,72 C315.68,72 315,71.3254675 315,70.4986643 C315,69.6691897 315.68,69 316.508,69 C317.333333,69 318,69.6691897 318,70.4986643 Z" id="Fill-424" fill="#FCB74B"></path>
                <path d="M324,77.5013357 C324,78.3268032 323.320302,79 322.494003,79 C321.667703,79 321,78.3268032 321,77.5013357 C321,76.6731968 321.667703,76 322.494003,76 C323.320302,76 324,76.6731968 324,77.5013357 Z" id="Fill-425" fill="#FCB74B"></path>
                <path d="M338,65.5006682 C338,66.3265033 337.32,67 336.493333,67 C335.68,67 335,66.3265033 335,65.5006682 C335,64.6721604 335.68,64 336.493333,64 C337.32,64 338,64.6721604 338,65.5006682 Z" id="Fill-426" fill="#FCB74B"></path>
                <path d="M348,68.5006682 C348,69.3278396 347.333333,70 346.506667,70 C345.68,70 345,69.3278396 345,68.5006682 C345,67.6708241 345.68,67 346.506667,67 C347.333333,67 348,67.6708241 348,68.5006682 Z" id="Fill-427" fill="#FCB74B"></path>
                <path d="M358,76.5006682 C358,77.3291759 357.32,78 356.493333,78 C355.666667,78 355,77.3291759 355,76.5006682 C355,75.6721604 355.666667,75 356.493333,75 C357.32,75 358,75.6721604 358,76.5006682 Z" id="Fill-428" fill="#FCB74B"></path>
                <path d="M362,67.5006687 C362,68.3299153 361.330357,69 360.5,69 C359.669643,69 359,68.3299153 359,67.5006687 C359,66.6714222 359.669643,66 360.5,66 C361.330357,66 362,66.6714222 362,67.5006687 Z" id="Fill-429" fill="#FCB74B"></path>
                <path d="M367,64.4993313 C367,65.3285778 366.333333,66 365.506667,66 C364.68,66 364,65.3285778 364,64.4993313 C364,63.6714222 364.68,63 365.506667,63 C366.333333,63 367,63.6714222 367,64.4993313 Z" id="Fill-430" fill="#FCB74B"></path>
                <path d="M372,54.4993313 C372,55.3299153 371.330357,56 370.5,56 C369.669643,56 369,55.3299153 369,54.4993313 C369,53.6714222 369.669643,53 370.5,53 C371.330357,53 372,53.6714222 372,54.4993313 Z" id="Fill-431" fill="#FCB74B"></path>
                <path d="M379,57.4993318 C379,58.3291759 378.330357,59 377.5,59 C376.669643,59 376,58.3291759 376,57.4993318 C376,56.6708241 376.669643,56 377.5,56 C378.330357,56 379,56.6708241 379,57.4993318 Z" id="Fill-432" fill="#FCB74B"></path>
                <path d="M384,64.5013357 C384,65.332146 383.333333,66 382.506667,66 C381.68,66 381,65.332146 381,64.5013357 C381,63.6718611 381.68,63 382.506667,63 C383.333333,63 384,63.6718611 384,64.5013357 Z" id="Fill-433" fill="#FCB74B"></path>
                <path d="M390,63.5006682 C390,64.3278396 389.333333,65 388.506667,65 C387.68,65 387,64.3278396 387,63.5006682 C387,62.6708241 387.68,62 388.506667,62 C389.333333,62 390,62.6708241 390,63.5006682 Z" id="Fill-434" fill="#FCB74B"></path>
                <path d="M377,51.0958282 C377,51.5980101 376.633646,52 376.17848,52 L364.82152,52 C364.366354,52 364,51.5980101 364,51.0958282 L364,45.9041718 C364,45.4032117 364.366354,45 364.82152,45 L376.17848,45 C376.633646,45 377,45.4032117 377,45.9041718 L377,51.0958282 Z" id="Fill-435" fill="#AEBACB"></path>
                <polygon id="Fill-436" fill="#B7BEC0" points="370.00678 53 369.00339 51.5011737 368 50 372 50 370.99661 51.5011737"></polygon>
                <polygon id="Fill-437" fill="#E5E8EC" points="365 48 373 48 373 46 365 46"></polygon>
                <polygon id="Fill-438" fill="#FFFFFF" points="175 212 311 212 311 163 175 163"></polygon>
                <polygon id="Fill-439" fill="#8395AE" points="183 176 287 176 287 172 183 172"></polygon>
                <polygon id="Fill-440" fill="#AEBACB" points="183 183 298 183 298 180 183 180"></polygon>
                <polygon id="Fill-441" fill="#AEBACB" points="183 189 287 189 287 186 183 186"></polygon>
                <polygon id="Fill-442" fill="#AEBACB" points="183 195 295 195 295 192 183 192"></polygon>
                <polygon id="Fill-443" fill="#AEBACB" points="183 200 208 200 208 197 183 197"></polygon>
                <polygon id="Fill-743" fill="#FFFFFF" points="170 157 305 157 305 113 170 113"></polygon>
                <polygon id="Fill-743" fill="#FFFFFF" points="175 265 310 265 310 221 175 221"></polygon>
                <polygon id="Fill-442" fill="#AEBACB" points="207 240 240 240 240 237 207 237"></polygon>
                <polygon id="Fill-442" fill="#AEBACB" points="207 247 240 247 240 244 207 244"></polygon>
                <polygon id="Fill-442" fill="#AEBACB" points="207 254 221 254 221 251 207 251"></polygon>
                <polygon id="Fill-442" fill="#AEBACB" points="271 240 304 240 304 237 271 237"></polygon>
                <polygon id="Fill-442" fill="#AEBACB" points="271 247 304 247 304 244 271 244"></polygon>
                <polygon id="Fill-442" fill="#AEBACB" points="271 254 285 254 285 251 271 251"></polygon>
                <g id="ethereum-seeklogo.com" transform="translate(252.000000, 233.000000)" fill-rule="nonzero">
                    <polygon id="Shape" fill="#343434" points="7.1496287 0 7 0.494863834 7 14.8546663 7.1496287 15 14 11.0599462"></polygon>
                    <polygon id="Shape" fill="#8C8C8C" points="7 0 0 11.0599078 7 15 7 8.03020569"></polygon>
                    <polygon id="Shape" fill="#3C3C3B" points="7.08506091 16.1925466 7 16.299024 7 21.7448425 7.08506091 22 14 12"></polygon>
                    <polygon id="Shape" fill="#8C8C8C" points="7 22 7 16.1925466 0 12"></polygon>
                    <polygon id="Shape" fill="#141414" points="7 17 14 12.4775746 7 9"></polygon>
                    <polygon id="Shape" fill="#393939" points="0 12.4775746 7 17 7 9"></polygon>
                </g>
                <g id="Page-1" transform="translate(180.000000, 232.000000)">
                    <g id="Group-3">
                        <mask id="mask-3" fill="white">
                            <use xlink:href="#path-2"></use>
                        </mask>
                        <g id="Clip-2"></g>
                        <path d="M24.6232422,15.4765287 C22.9537109,22.1316574 16.1712891,26.1818913 9.47402344,24.5222776 C2.77947754,22.8630521 -1.29591309,16.1221282 0.374399414,9.46736834 C2.04314941,2.81144387 8.82558594,-1.23917824 15.5208984,0.420047261 C22.2177734,2.07927276 26.2927734,8.82099248 24.6232422,15.4765287 Z" id="Fill-1" fill="#F5A623" mask="url(#mask-3)"></path>
                    </g>
                    <path d="M17.9686378,11.4323056 C18.2183274,9.7510855 16.9475367,8.84730134 15.2099009,8.24438374 L15.7735644,5.96695823 L14.3973317,5.62147499 L13.8485634,7.83888513 C13.4867682,7.74807239 13.1151737,7.66239255 12.745931,7.57750238 L13.2986191,5.34548324 L11.9231704,5 L11.3591149,7.27663583 C11.0596442,7.20793402 10.7656612,7.14002189 10.4803016,7.06855621 L10.4818695,7.06144913 L8.58391499,6.58409 L8.2178081,8.06473245 C8.2178081,8.06473245 9.23890921,8.30045073 9.21735046,8.31505974 C9.77474231,8.45522722 9.8754805,8.82676977 9.85862547,9.12131891 L9.2165665,11.7157993 C9.25498029,11.7256703 9.30476141,11.7398844 9.35963825,11.7619954 C9.31377689,11.7505451 9.26477972,11.7379102 9.21421464,11.7256703 L8.31423454,15.3601539 C8.24603047,15.5307239 8.07316844,15.786579 7.68354291,15.6894488 C7.69726212,15.7095856 6.6832166,15.437937 6.6832166,15.437937 L6,17.0247909 L7.79094472,17.4745114 C8.1241255,17.5586118 8.45064267,17.6466607 8.77206414,17.7295767 L8.20252098,20.0330615 L9.5771857,20.3785448 L10.1412412,18.0995399 C10.5167555,18.2021978 10.8812945,18.2969589 11.2379939,18.3861923 L10.6758983,20.6545365 L12.052131,21 L12.6216741,18.7008781 C14.9684428,19.1482296 16.733125,18.9677886 17.4759222,16.8297409 C18.0744717,15.1082473 17.4461319,14.1152298 16.2114031,13.4676955 C17.1105993,13.2588262 17.7879362,12.6630156 17.9686378,11.4323056 Z M14.8241951,15.8738382 C14.3988996,17.5953318 11.5213936,16.6646986 10.5884874,16.4313494 L11.3442198,13.3796466 C12.277126,13.6141804 15.2686975,14.0785098 14.8241951,15.8738382 Z M15.2498826,11.4074309 C14.8618249,12.9733583 12.4668431,12.1777598 11.6899439,11.9827098 L12.3751203,9.21489551 C13.1520195,9.40994548 15.6540113,9.7739861 15.2498826,11.4074309 Z" id="Fill-4" fill="#FFFFFF"></path>
                </g>
                <polygon id="Fill-744" fill="#8395AE" points="230 124 280 124 280 120 230 120"></polygon>
                <polygon id="Fill-745" fill="#AEBACB" points="230 130 286 130 286 127 230 127"></polygon>
                <polygon id="Fill-746" fill="#AEBACB" points="230 136 280 136 280 133 230 133"></polygon>
                <polygon id="Fill-747" fill="#AEBACB" points="230 142 284 142 284 139 230 139"></polygon>
                <polygon id="Fill-748" fill="#AEBACB" points="230 148 243 148 243 145 230 145"></polygon>
                <polygon id="Fill-749" fill="#1661A5" points="176 149 226 149 226 120 176 120"></polygon>
                <path d="M204.024887,135.044688 L200.699095,136.962326 L200.642534,136.98269 L200.642534,133.024098 L200.699095,133.039937 L204.024887,134.965494 L204.081448,135.007354 L204.024887,135.044688 Z M202,130 C199.228507,130 197,132.23781 197,135.007354 C197,137.764453 199.228507,140 202,140 C204.760181,140 207,137.764453 207,135.007354 C207,132.23781 204.760181,130 202,130 Z" id="Fill-750" fill="#FFFFFF"></path>
                <path d="M145.886271,126.694259 L144.829407,112.361009 C142.534197,109.446784 139.459682,107.761382 136.225037,108.027438 C129.958578,108.544897 125.410859,116.111734 126.062058,124.933324 C126.713257,133.753785 132.317841,140.487504 138.573624,139.972301 C142.961212,139.610419 146.494769,135.794306 148,130.516008 C146.815031,129.626522 146.003701,128.272563 145.886271,126.694259 Z" id="Fill-751" fill="#013E6A"></path>
                <path d="M121.046221,133.540049 C120.649065,135.774395 122.855484,138.040053 125.966535,138.59808 L133.04914,139.875169 C136.160191,140.432078 138.995439,139.073354 139.392595,136.840126 L142.955962,116.457032 C143.342085,114.223804 141.146698,111.960383 138.035647,111.401237 L130.953042,110.125267 C127.841991,109.56724 125.006743,110.925963 124.609587,113.159191 L121.046221,133.540049 Z" id="Fill-752" fill="#013E6A"></path>
                <path d="M139.966426,141.967602 C144.198153,144.162855 140.557958,144.18006 140.273568,144.490882 C138.5331,146.362697 120.94641,142.663798 120.002235,140.025823 C119.842976,139.581955 128.24955,138.90411 128.317804,138.586406 C129.068594,134.904711 129.46674,131.768962 128.71595,127.543615 C128.772828,127.221323 129.034467,126.981612 129.296106,127.00111 C130.854565,127.150213 132.413023,127.267201 133.971481,127.416304 C134.23312,127.446124 137.236281,128.328126 136.462739,129.760661 C135.859832,133.787586 135.473061,139.646184 139.966426,141.967602 Z" id="Fill-753" fill="#FFB9A3"></path>
                <path d="M136.687857,133.007601 C136.790142,132.878492 136.892428,132.744773 136.994713,132.6099 L137.085634,132.483097 C137.210649,132.311337 137.335665,132.133812 137.460681,131.950524 L137.551601,131.805277 C137.642521,131.668099 137.733442,131.527463 137.824362,131.385674 L137.972108,131.147053 C138.040298,131.027167 138.108489,130.904975 138.188044,130.780477 L138.324425,130.521107 C138.415345,130.359721 138.506265,130.193724 138.597186,130.026575 C138.654011,129.899772 138.722201,129.770663 138.790392,129.639249 C138.847217,129.525126 138.904042,129.407545 138.960867,129.288811 C139.017693,129.17123 139.063153,129.049038 139.119978,128.926846 C139.165438,128.823098 139.222264,128.718197 139.267724,128.612144 L139.370009,128.35969 L139.370009,128.34701 C139.995087,126.88301 141.267973,119.535345 140.949752,115.792348 C140.915656,115.338162 140.574705,114.905879 139.983722,114.821727 C136.381001,114.33757 125.856962,111.076424 126.095628,122.105991 L126.095628,122.11406 C126.095628,122.141726 126.027438,123.070847 126.016073,123.497367 L126.016073,123.609184 C126.004708,124.040315 125.993343,124.46914 126.004708,124.88759 L126.004708,124.965977 C126.004708,125.395955 126.027438,125.814406 126.050168,126.227092 L126.050168,126.269744 C126.402484,131.52631 128.289083,135.423777 131.164441,135.942517 C132.846469,136.243386 134.596687,135.348848 136.187795,133.595506 L136.187795,133.593201 L136.22189,133.550549 C136.346905,133.417982 136.460556,133.279651 136.585571,133.139015 L136.687857,133.007601 Z" id="Fill-754" fill="#FFB9A3"></path>
                <path d="M135.038706,115.621764 C134.343329,114.611971 131.005524,113.445585 131.005524,113.445585 C130.924397,112.251565 131.747258,111.893474 132.790323,111.059848 C134.818503,109.457074 138.202667,109.700023 140.335154,111.599863 C142.47923,113.499702 142.560357,116.339097 140.532177,117.939568 C139.106656,119.0622 137.020528,119.278666 135.177781,118.659204 C135.293677,118.16064 136.220845,117.320105 135.038706,115.621764 Z" id="Fill-755" fill="#013E6A"></path>
                <path d="M185,158.616561 C185,158.616561 185.642857,159.265089 186.272321,158.875301 C187.303571,158.236853 188.589286,156.357355 189.017857,155.671864 C189.486607,154.907968 191,151 191,151 C191,151 189.446429,151.81318 188.830357,153.383536 C187.946429,155.672984 185,158.616561 185,158.616561 Z" id="Fill-756" fill="#FFB9A3"></path>
                <path d="M185.228695,157.467218 C186.465961,156.52963 186.889839,154.846725 186.889839,152.752276 C186.878383,150.769084 187.966718,150.000003 187.966718,150.000003 C187.966718,149.997842 188.115649,151.278924 187.78342,154.363889 C187.680314,155.226945 187.531384,156.168853 187.118962,156.934694 C185.858784,159.249498 182.066793,159.879237 185.228695,157.467218 Z" id="Fill-757" fill="#FFB9A3"></path>
                <path d="M139.753035,372.007898 C139.753035,372.007898 138.05116,371.281432 133.359187,370.393659 C130.60546,369.875595 128.525391,369.890902 127.532631,368.864194 C125.901668,367.167536 126.953521,361.822061 126.149858,362.004561 C122.261548,362.891156 120.807864,372.087963 123.077029,373.218283 C125.346195,374.348604 138.13389,373.94475 139.185743,373.863508 C140.237596,373.781089 140.083955,371.76535 139.753035,372.007898 Z" id="Fill-758" fill="#FFB9A3"></path>
                <path d="M111.809073,285.342017 C112.129687,283.160478 112.47405,281.009945 112.818413,278.891527 C114.373984,275.678574 115.834559,273.915624 117.081391,274.003107 C121.819351,274.345288 127.661648,290.92875 116.974519,333.217388 C116.440163,335.343559 110.277252,371.826202 110.03976,370.9857 C107.118611,360.570789 107.023614,317.700776 111.809073,285.342017 Z" id="Fill-759" fill="#FFB9A3"></path>
                <path d="M117.23341,212.092836 C120.713295,211.527273 120.746543,213.529431 123.129267,218.548659 C127.82822,228.389003 130.310685,242.909902 128.293682,258.33393 C125.933123,276.401382 120.968191,292.133093 115.13883,302 C111.780852,293.502175 110.218228,283.299915 108.965913,271.998185 C105.064895,236.835916 106.549942,213.829367 117.23341,212.092836 Z" id="Fill-760" fill="#FFB9A3"></path>
                <path d="M120.852273,252.58736 C116.113636,251.402783 111.420455,250.925131 107,251.009423 C107.272727,257.026713 107.818182,263.635169 108.590909,270.74263 C113.897727,265.122071 124.181818,268.200398 126.5,271 C127.329545,267.033803 128.045455,262.900147 128.602273,258.631624 C128.761364,257.402092 128.886364,256.179303 129,254.964381 C126.386364,254.088873 123.659091,253.287541 120.852273,252.58736 Z" id="Fill-761" fill="#FFB9A3"></path>
                <path d="M97.6972103,164.414525 C103.104431,169.151278 108,190.714709 108,190.714709 C108,190.714709 107.360436,199.264052 95.3482672,172.263779 C91.7434537,164.154779 96.3599407,163.247338 97.6972103,164.414525 Z" id="Fill-762" fill="#FFB9A3"></path>
                <path d="M149.920998,160.944502 C154.056088,167.204182 150.74566,189.061792 150.74566,189.061792 C150.74566,189.061792 146.528103,196.857412 144.065898,167.506243 C143.335484,158.692978 148.896061,159.39853 149.920998,160.944502 Z" id="Fill-763" fill="#B0BFDE"></path>
                <path d="M147.16763,187.793002 C150.802734,180.078156 174.14744,166.099432 174.14744,166.099432 C174.14744,166.099432 184.296828,163.321644 157.083572,187.130146 C148.912925,194.278571 146.267192,189.69511 147.16763,187.793002 Z" id="Fill-764" fill="#FFB9A3"></path>
                <path d="M187.546419,156.132422 L188,156.802251 L187.248011,159.448247 C187.248011,159.448247 184.001326,163.281092 182.234748,164.305941 C180.480106,165.329642 175.669761,171.338568 174.881963,171.895801 C174.106101,172.455332 170,170.579123 170,170.579123 C170,170.579123 176.374005,165.682364 178.725464,163.535006 C181.088859,161.386499 183.344828,157.206676 184.240053,156.332337 C185.755968,154.838722 186.43634,154 186.43634,154 C186.43634,154 187.15252,154.892722 184.908488,157.368675 C184.323607,158.022419 185.397878,158.311951 185.397878,158.311951 L187.546419,156.132422 Z" id="Fill-765" fill="#FFB9A3"></path>
                <path d="M143.231476,220.166877 C140.65822,219.398674 140.468846,221.281108 138.240918,225.847772 C133.88532,234.798568 130.788501,248.30819 131.011294,262.975715 C131.267505,280.156585 133.695946,295.312356 137.26063,305 C140.491125,297.225025 142.529679,287.719913 144.423417,277.158802 C150.316286,244.30368 151.129479,222.527478 143.231476,220.166877 Z" id="Fill-766" fill="#FFB9A3"></path>
                <path d="M141.011731,260.517867 C141.48921,254.646241 141.822334,249.31717 142,244.586272 C141.156085,243.531808 140.667503,244.11863 139.15734,244.649835 C136.236951,245.678192 133.294354,248.699702 131.240088,253.561131 C131.062422,256.874349 130.973588,260.295397 131.006901,263.782278 C131.040213,267.63805 131.140151,271.383723 131.306713,275 C132.472647,273.729876 133.616374,272.247498 134.782309,270.634589 C137.358469,267.051228 139.47936,263.661962 141.011731,260.517867 Z" id="Fill-767" fill="#FFB9A3"></path>
                <path d="M136.98456,277.193279 C135.258746,276.312838 132.100394,278.484817 129.923388,282.801891 C125.637053,291.265776 124.294754,302.860492 123.527725,317.199585 C122.726858,332.366472 122.693018,343.671068 122.907335,353.020995 C123.110372,362.247705 119.196272,375.14516 126.212324,373.918591 C125.388897,361.221644 127.509504,342.415375 131.265687,332.554658 C144.079571,298.891785 142.286079,279.896211 136.98456,277.193279 Z" id="Fill-768" fill="#FFB9A3"></path>
                <polygon id="Fill-769" fill="#B0BFDE" points="141.697456 173 114.354083 171.05236 113 140 147 145.227345"></polygon>
                <path d="M103.314173,263 C118.289602,261.738043 133.26503,260.476085 148.251374,259.214128 C157.594644,231.824728 152.027976,200.325017 141.276666,172.227444 C132.457318,171.483471 123.648884,170.742854 114.829536,170 C104.449337,199.074247 94.6912955,232.69624 103.314173,263 Z" id="Fill-770" fill="#1D416B"></path>
                <path d="M99.3956835,170 L118,143.172717 C117.730216,142.388853 117.223022,141.678477 116.521583,141.154046 L116.035971,140.798858 C114.179856,139.425983 111.589928,139.865793 110.26259,141.786481 L94,165.231126 L99.3956835,170 Z" id="Fill-771" fill="#B0BFDE"></path>
                <path d="M144.902519,179 L142,145.070688 C142.635268,144.520029 143.423877,144.156756 144.311062,144.073984 L144.902519,144.017654 C147.213582,143.801529 149.261774,145.594906 149.46988,148.019414 L152,177.667613 L144.902519,179 Z" id="Fill-772" fill="#B0BFDE"></path>
                <path d="M107.180995,198.310273 C107.024939,198.828801 106.472744,199.117405 105.944557,198.954541 L104.696115,198.561753 C104.167928,198.400088 103.879826,197.848029 104.047885,197.329501 L105.81251,191.691556 C105.980569,191.17183 106.532765,190.883227 107.048948,191.044893 L108.309394,191.438878 C108.825577,191.600544 109.113679,192.152603 108.957624,192.672328 L107.180995,198.310273 Z" id="Fill-773" fill="#FFB9A3"></path>
                <path d="M109.934112,375.0564 C107.689374,381.102638 104.567251,385.531676 102.949217,384.948405 C101.331183,384.365134 101.832545,378.989827 104.065888,372.942465 C106.299232,366.898475 109.432749,362.468313 111.050783,363.051584 C112.668817,363.635979 112.167455,369.010163 109.934112,375.0564 Z" id="Fill-774" fill="#1D416B"></path>
                <path d="M111.721967,371.359705 C110.707057,375.96924 107.839349,379.517178 106.163568,378.937923 C104.487788,378.360895 104.629403,374.484341 106.541209,370.139927 C108.972271,364.643686 109.951776,363.040708 109.786558,359.30117 C109.62134,355.789992 115.521976,354.034403 111.721967,371.359705 Z" id="Fill-775" fill="#FFB9A3"></path>
                <polygon id="Fill-776" fill="#EDEEF0" points="124 366.138 124.14 366.276 124.41 366.276 124.55 366.138 124.41 366 124.14 366"></polygon>
                <path d="M135.931077,370.000798 C136.597543,372.952318 128.051736,371.763274 125.83735,370.996038 C123.73046,370.261863 122.37603,370.029299 122.37603,370.029299 L122.118043,370.012198 L122.085795,370.225383 C122.085795,371.847636 121.40858,374 123.859453,374 L139.16666,374 C151.689761,374 135.920328,369.934677 135.931077,370.000798 Z" id="Fill-777" fill="#1D416B"></path>
                <path d="M185,160 C185,160 186.801284,158.184413 186.958444,156.953127 C187.079335,156.101301 186.897998,152 186.897998,152 C186.897998,152 185.894598,153.208899 185.955043,154.857703 C186.051757,157.264307 185,160 185,160 Z" id="Fill-778" fill="#FFB9A3"></path>
                <path d="M184.111111,157.812706 C184.111111,157.812706 183.25,157.658076 183.111111,157.34522 C182.986111,157.565778 182.916667,157.817501 182.847222,158.002098 C182.694444,158.41804 181,161 181,161 C181,161 182.638889,159.337429 183.236111,158.947857 C183.611111,158.698532 184.25,157.98172 184.805556,157.385975 C184.875,157.311657 184.902778,157.151034 185,157 L184.111111,157.812706 Z" id="Fill-779" fill="#FFB9A3"></path>
                <path d="M183.457932,157.499497 C184.881483,155.592475 185.03841,154.508013 184.993573,154 C184.657302,154.450105 184.108058,155.164744 183.301005,156.130758 C183.00957,156.480839 182.572417,157.28629 182.011964,158.293103 C181.911082,158.485252 182.493953,159.036696 182.0568,160.952931 C181.978336,161.30038 183.233751,159.647364 183.782995,158.522103 C183.525187,158.401022 183.031988,158.074631 183.457932,157.499497 Z" id="Fill-780" fill="#FFB9A3"></path>
                <polygon id="Fill-892" fill="#FFFFFF" points="175 357 311 357 311 278 175 278"></polygon>
                <polygon id="Fill-893" fill="#AEBACB" points="186 300 299 300 299 298 186 298"></polygon>
                <polygon id="Fill-894" fill="#AEBACB" points="186 305 280 305 280 303 186 303"></polygon>
                <polygon id="Fill-895" fill="#8395AE" points="186 294 230 294 230 290 186 290"></polygon>
                <polygon id="Fill-896" fill="#969C9E" points="186 319 208 319 208 317 186 317"></polygon>
                <polygon id="Fill-897" fill="#B7BEC0" points="186 323 194 323 194 321 186 321"></polygon>
                <polygon id="Fill-898" fill="#B7BEC0" points="186 338 207 338 207 336 186 336"></polygon>
                <polygon id="Fill-899" fill="#B7BEC0" points="186 342 208 342 208 340 186 340"></polygon>
                <polygon id="Fill-900" fill="#B7BEC0" points="186 346 207 346 207 344 186 344"></polygon>
                <polygon id="Fill-901" fill="#B7BEC0" points="186 350 201 350 201 348 186 348"></polygon>
                <polygon id="Fill-902" fill="#E4EEF3" points="215 350 219 350 219 317 215 317"></polygon>
                <polygon id="Fill-903" fill="#E4EEF3" points="220 350 224 350 224 317 220 317"></polygon>
                <polygon id="Fill-904" fill="#E4EEF3" points="225 350 229 350 229 317 225 317"></polygon>
                <polygon id="Fill-905" fill="#E4EEF3" points="230 350 234 350 234 317 230 317"></polygon>
                <polygon id="Fill-906" fill="#E4EEF3" points="235 350 239 350 239 317 235 317"></polygon>
                <polygon id="Fill-907" fill="#E4EEF3" points="240 350 244 350 244 317 240 317"></polygon>
                <polygon id="Fill-908" fill="#E4EEF3" points="245 350 249 350 249 317 245 317"></polygon>
                <polygon id="Fill-909" fill="#E4EEF3" points="249 350 253 350 253 317 249 317"></polygon>
                <polygon id="Fill-910" fill="#E4EEF3" points="254 350 258 350 258 317 254 317"></polygon>
                <polygon id="Fill-911" fill="#E4EEF3" points="259 350 263 350 263 317 259 317"></polygon>
                <polygon id="Fill-912" fill="#E4EEF3" points="264 350 268 350 268 317 264 317"></polygon>
                <polygon id="Fill-913" fill="#E4EEF3" points="269 350 273 350 273 317 269 317"></polygon>
                <polygon id="Fill-914" fill="#E4EEF3" points="274 350 278 350 278 317 274 317"></polygon>
                <polygon id="Fill-915" fill="#E4EEF3" points="279 350 283 350 283 317 279 317"></polygon>
                <polygon id="Fill-916" fill="#E4EEF3" points="283 350 287 350 287 317 283 317"></polygon>
                <polygon id="Fill-917" fill="#E4EEF3" points="287 350 291 350 291 317 287 317"></polygon>
                <polygon id="Fill-918" fill="#E4EEF3" points="291 350 295 350 295 317 291 317"></polygon>
                <polygon id="Fill-919" fill="#E4EEF3" points="297 350 301 350 301 317 297 317"></polygon>
                <polygon id="Fill-920" fill="#FCB74B" points="215 349 219 349 219 323 215 323"></polygon>
                <polygon id="Fill-921" fill="#FCB74B" points="220 349 224 349 224 327 220 327"></polygon>
                <polygon id="Fill-922" fill="#FCB74B" points="225 349 229 349 229 336 225 336"></polygon>
                <polygon id="Fill-923" fill="#FCB74B" points="230 350 234 350 234 332 230 332"></polygon>
                <polygon id="Fill-924" fill="#FCB74B" points="235 350 239 350 239 344 235 344"></polygon>
                <polygon id="Fill-925" fill="#FCB74B" points="240 349 244 349 244 336 240 336"></polygon>
                <polygon id="Fill-926" fill="#FCB74B" points="245 351 249 351 249 333 245 333"></polygon>
                <polygon id="Fill-927" fill="#FCB74B" points="249 349 253 349 253 335 249 335"></polygon>
                <polygon id="Fill-928" fill="#FCB74B" points="254 349 258 349 258 323 254 323"></polygon>
                <polygon id="Fill-929" fill="#FCB74B" points="259 348 263 348 263 326 259 326"></polygon>
                <polygon id="Fill-930" fill="#FCB74B" points="264 350 268 350 268 320 264 320"></polygon>
                <polygon id="Fill-931" fill="#FCB74B" points="269 350 273 350 273 331 269 331"></polygon>
                <polygon id="Fill-932" fill="#FCB74B" points="274 349 278 349 278 323 274 323"></polygon>
                <polygon id="Fill-933" fill="#FCB74B" points="279 350 283 350 283 329 279 329"></polygon>
                <polygon id="Fill-934" fill="#FCB74B" points="283 349 287 349 287 336 283 336"></polygon>
                <polygon id="Fill-935" fill="#FCB74B" points="287 350 291 350 291 348 287 348"></polygon>
                <polygon id="Fill-936" fill="#FCB74B" points="291 349 295 349 295 327 291 327"></polygon>
                <polygon id="Fill-937" fill="#FCB74B" points="297 349 301 349 301 322 297 322"></polygon>
                <path d="M312,280.720373 C312,280.720373 311.54651,283.258925 298.283857,281.185019 C285.022308,279.112245 266,273 266,273 L296.994003,275.114705 C296.994003,275.114705 308.82226,276.451298 312,280.720373 Z" id="Fill-938" fill="#FFB9A3"></path>
                <path d="M275.777489,275.362963 C269.445028,274.447879 266.389119,277.424352 263.774496,278.107443 C261.148841,278.793112 258.479058,280.02912 258.49009,279.999476 C260.189043,277.32511 262.252058,277.537771 263.366306,276.755438 C264.480554,275.968723 264.171654,276.401004 261.932125,275.89397 C260.663426,275.607845 258.170157,277.6847 256.405011,278.780223 C254.893605,279.72624 254,279.694019 254,279.694019 C254,279.694019 255.875468,277.501683 258.170157,275.847571 C260.928198,273.856296 264.237847,272.329008 265.010098,272.127947 C266.422215,271.760625 270.669598,272.216878 273.648282,273.079119 C277.002059,274.05478 280.333772,276.022855 275.777489,275.362963 Z" id="Fill-939" fill="#FFB9A3"></path>
                <path d="M265,272 C265,272 260.179335,272.614383 259.281473,273.179304 C258.66152,273.567198 256,276 256,276 C256,276 257.785036,275.946632 258.896675,275.044582 C260.019002,274.145135 265,272 265,272 Z" id="Fill-940" fill="#FFB9A3"></path>
                <path d="M305.491327,274.333062 C305.491327,274.333062 317.416407,276.657604 315.859882,283.574766 C314.975222,287.504839 312.091168,288.530993 308.4942,287.763721 C301.806866,286.341632 294.268358,284.367809 294.268358,284.367809 L292,273 L305.491327,274.333062 Z" id="Fill-941" fill="#B0BFDE"></path>
                <path d="M315.15876,274.362247 L340.370961,266.048653 C340.370961,266.048653 347.678686,265.519441 348.694559,267.951778 C350.180135,271.458369 345.854486,274.168881 344.139519,275.551842 C340.731431,278.291076 342.763176,277.534575 328.322498,282.627669 C315.12599,287.284277 309.741868,289.362675 307.327806,283.022316 C305.076502,277.104873 315.15876,274.362247 315.15876,274.362247 Z" id="Fill-942" fill="#B0BFDE"></path>
                <polygon id="Fill-943" fill="#FFB9A3" points="333.434836 331.080209 336 354.465998 324.270402 357.726857 318 358 330.08039 351.617664 326.199756 330"></polygon>
                <path d="M337.677298,356.100271 L335.161881,356.335978 L333.786787,354.524199 L324.183487,357.49106 L316,358 C316,358 316.01118,357.335095 316.335389,357.031373 C317.531609,355.898571 323.51271,353.943726 323.51271,353.943726 C323.51271,353.943726 323.289117,355.87629 324.071691,356.069781 C324.843085,356.262099 332.221639,353.832322 333.965661,353.100575 C336.950622,351.837606 337.621399,350.849044 337.811453,351.019081 C338.303357,351.47056 337.677298,356.100271 337.677298,356.100271 Z" id="Fill-944" fill="#161711"></path>
                <path d="M333.682552,311.111353 L336,332 L324.032283,331.150686 L321,299.924998 C321,299.924998 323.006149,292.248767 328.413528,294.370933 C331.883935,295.735423 333.682552,311.111353 333.682552,311.111353 Z" id="Fill-945" fill="#1D416B"></path>
                <path d="M338.708014,302.230386 L356.094008,333.591178 C356.094008,333.591178 364.181043,342.083241 361.428733,344.00292 C357.453174,346.77667 345.673738,343.086633 343.465094,341.138673 C339.104438,337.280084 342.400414,339.436188 332.02545,321.553874 C322.54527,305.211149 318.443988,298.574285 325.70533,293.911399 C332.478505,289.555074 338.708014,302.230386 338.708014,302.230386 Z" id="Fill-946" fill="#1D416B"></path>
                <path d="M403,351.663749 C403,351.663749 374.335466,351.921796 375.011782,351.999461 C375.676827,352.075873 379.768539,344 379.768539,344 L399.144998,347.741683 L403,351.663749 Z" id="Fill-947" fill="#FFB9A3"></path>
                <polygon id="Fill-948" fill="#FFB9A3" points="394 351.035015 396.288889 346 408.288889 349.023145 414 352 400.233333 351.697329"></polygon>
                <path d="M397.399942,343 L399.687716,343.953292 L400.061678,346.020533 L409.696724,348.006913 L417,351.307262 C417,351.307262 416.692031,351.83285 416.285071,351.930733 C414.745223,352.289281 408.695823,351.13916 408.695823,351.13916 C408.695823,351.13916 409.751718,349.69539 409.157777,349.191081 C408.574835,348.685708 401.106575,347.278112 399.280756,347.077027 C396.135068,346.73231 395.10117,347.213212 395.013179,346.99404 C394.793201,346.412063 397.399942,343 397.399942,343 Z" id="Fill-949" fill="#161711"></path>
                <path d="M339.229432,338.50331 L383,341.910281 L379.157164,353 L323.902515,350.666601 C323.902515,350.666601 316.427865,345.467645 319.937508,339.923942 C321.96999,336.698599 339.229432,338.50331 339.229432,338.50331 Z" id="Fill-950" fill="#1D416B"></path>
                <path d="M340.326385,283.509852 C341.988556,290.776936 349.445863,295.319553 357.004248,293.657055 C364.551402,291.994556 369.324528,284.75507 367.673588,277.48909 C366.011417,270.223773 358.55411,265.681155 351.006956,267.34255 C343.448571,269.006152 338.675445,276.243872 340.326385,283.509852 Z" id="Fill-951" fill="#013E6A"></path>
                <path d="M336.304036,266.900071 C337.83997,273.894984 344.768012,278.271135 351.783199,276.669633 C358.798387,275.069685 363.231898,268.099199 361.695964,261.100955 C360.149137,254.103821 353.221095,249.729224 346.216801,251.330282 C339.201613,252.93134 334.768102,259.901827 336.304036,266.900071 Z" id="Fill-952" fill="#013E6A"></path>
                <path d="M324.071357,259.142951 C325.271504,264.560766 330.556552,267.968169 335.885642,266.754757 L337.272967,261.545148 C342.602057,260.330617 345.949254,254.954219 344.760118,249.536404 L343.94534,245.858111 C342.756204,240.440296 337.471156,237.031774 332.142066,238.245186 L329.719752,238.794803 C324.401673,240.008214 321.042364,245.385731 322.243612,250.803546 L324.071357,259.142951 Z" id="Fill-953" fill="#013E6A"></path>
                <path d="M324.636801,244 C324.84752,244.91791 325.124783,245.843822 325.479678,246.76859 C327.864133,252.975628 332.721767,256.984482 336.991605,256.627835 C337.756849,259.510735 338.899169,261.998123 340.05258,264.069421 C341.383439,266.427638 344.843671,268.442925 344.843671,268.442925 C346.529425,272.772991 334.041535,282.367494 333.320654,281.989127 C331.790166,281.185527 330.204226,275.676467 332.954667,272.450637 C334.241164,270.937171 335.560932,269.155077 335.583113,268.134288 C335.682928,264.559812 334.584969,263.798507 332.910306,262.160443 C329.982417,259.885672 326.633089,260.702989 326.633089,260.702989 C326.300374,260.777291 325.97875,260.700703 325.723669,260.52238 C325.390954,259.905105 325.124783,259.227246 324.969516,258.499091 L323.172857,250.237901 C322.673785,247.949413 323.283762,245.675786 324.636801,244 Z" id="Fill-954" fill="#FFB9A3"></path>
                <path d="M364,327.530755 C364,327.530755 361.203139,332.611064 360.170964,333.331613 C358.794731,334.298606 353.85583,333.931701 353.85583,333.931701 C353.85583,333.931701 348.406391,314.474681 345.343162,307.079113 C342.268835,299.683544 339.727244,298.115357 339.127916,295.711686 C338.151235,291.87134 338.240024,290.89661 338.140136,287.744763 C338.051347,284.594021 337.762782,279.449614 338.417602,278.628498 C339.460876,277.308966 340.548544,275.790067 340.970293,274.013009 C341.203365,273.034964 364,327.530755 364,327.530755 Z" id="Fill-955" fill="#4B5774"></path>
                <path d="M333.226177,266 C333.226177,266 331.873235,274.549911 332.009666,276.479224 C332.237051,279.494748 331.895973,287.068002 335.158951,295.141251 C338.421928,303.216722 339.968148,305.055592 341.593952,311.11664 C343.231125,317.176576 342.094199,318.858781 344.356682,326.242037 C346.130286,332.024199 348.267707,336.998592 348.267707,336.998592 C348.267707,336.998592 351.166868,337.143034 352.724457,334.506395 C354.282045,331.868645 348.813432,311.608857 346.892027,306.747796 C344.970622,301.886736 338.888068,289.364645 338.262759,285.821348 C337.637449,282.276941 336.284507,271.185501 336.659693,269.943292 C337.614711,266.845547 333.749163,266.183331 333.226177,266 Z" id="Fill-956" fill="#D1DBEA"></path>
                <path d="M333.478595,265 C333.478595,265 333.997252,265.443083 334.543206,265.635829 C335.594168,265.995467 337,266.829919 337,266.829919 C337,266.829919 335.471328,266.526696 335.212,267.662021 C334.898076,269.054735 335.239297,272 335.239297,272 C335.239297,272 331.717892,268.84906 332.018167,267.570349 C332.57777,265.258563 333.478595,265 333.478595,265 Z" id="Fill-957" fill="#B0BFDE"></path>
                <path d="M329.29146,333.787468 L370.094884,324.58168 C370.094884,324.58168 381.942465,318.7554 383.544983,321.964716 C385.854819,326.593029 378.759533,337.280805 375.963415,338.965034 C370.415387,342.298126 373.71989,339.582805 350.345231,345.287521 C328.982008,350.499345 320.249943,352.856602 316.49342,344.508399 C312.989984,336.718291 329.29146,333.787468 329.29146,333.787468 Z" id="Fill-958" fill="#1D416B"></path>
                <path d="M362.318471,332 C362.318471,332 354.828025,312.912168 351.06051,303.931747 C347.292994,294.952436 341.262739,277.203459 340.371019,275.039994 C339.479299,272.876973 339,269.555903 339,269.555903 C339,269.555903 340.148089,263.833325 343.414013,263.171107 C346.278662,262.587646 351.450637,263.642535 356.210191,264.150568 C359.487261,264.501088 368.660828,298.159254 369.351911,299.742142 C371.871019,305.458064 379.372611,311.4757 382.660828,315.664197 C385.280255,318.99525 388,324.274131 388,324.274131 C388,324.274131 371.191083,326.70448 362.318471,332 Z" id="Fill-959" fill="#D1DBEA"></path>
                <polygon id="Fill-960" fill="#B0BFDE" points="342.590643 263 341.05848 266.064797 339 270.668347 342.02924 274 345 263.995799"></polygon>
                <path d="M350.046227,303.236511 L350.999174,272.492147 C350.999174,272.492147 353.268095,264.259053 356.240383,264.015517 C360.539989,263.663119 361.731172,269.405859 362.53664,271.798574 C364.124885,276.538438 364.102195,274.030801 363.909337,291.76001 C363.739168,307.963582 363.863959,314.646798 356.206349,314.993584 C349.059246,315.317925 350.046227,303.236511 350.046227,303.236511 Z" id="Fill-961" fill="#B0BFDE"></path>
                <path d="M340.147196,309 C340.147196,309 330.510094,312.67321 329.508548,312.771106 C328.507001,312.867937 327.9951,312.347601 325.880724,311.717665 C323.766348,311.090921 323.343473,311.069639 321.651973,310.667416 C319.949344,310.260937 319.747922,310.264129 319.747922,310.264129 C319.747922,310.264129 319.637752,311.196265 320.260936,311.508041 C320.817351,311.788958 322.264029,312.124144 322.720289,312.375268 C323.187677,312.626391 321.507305,312.112439 318.9133,312.041146 C316.310392,311.967724 313.739756,312.214591 312.638055,312.392293 C311.93586,312.500829 311.847947,312.531688 311.847947,312.565738 C311.814562,312.863681 311.803434,313.145663 312.115026,313.233982 C312.382105,313.31166 313.360282,313.343582 313.305753,313.381889 C313.059818,313.527668 311.469585,313.856469 311.202506,313.89052 C310.91317,313.927763 310.52368,313.965006 310.277745,314.017146 C309.789212,314.125682 309.945009,314.70135 310.746246,315.010998 C310.757374,315.01419 310.890913,315.416413 311.123495,315.523886 C311.258147,315.578154 311.336045,315.621781 311.458456,315.671793 C311.603124,315.726061 311.781177,315.745215 311.924732,315.793098 C312.460003,315.973992 313.005289,316.10381 313.539447,316.194257 C313.762013,316.2315 315.709464,316.291089 315.698336,316.408138 C315.687208,316.419843 314.140375,316.577327 314.15039,316.689055 C314.183775,316.943371 314.439726,317.278557 314.706805,317.282813 C315.208691,317.294518 315.954287,317.323248 318.001893,317.29239 C320.260936,317.257275 320.750581,317.088086 323.566039,317.721215 C326.025392,318.276665 326.871142,317.964889 328.562643,317.115752 C334.371612,314.185271 339.757705,314.752426 341.471462,313.922442 C343.196348,313.092459 340.147196,309 340.147196,309 Z" id="Fill-962" fill="#FFB9A3"></path>
                <path d="M347.35578,304.744431 C347.35578,304.744431 359.607031,301.50276 360.869349,308.548589 C361.590674,312.550856 359.257639,314.790191 355.538308,315.707623 C348.618098,317.413951 340.672255,319 340.672255,319 L334,309.600452 L347.35578,304.744431 Z" id="Fill-963" fill="#B0BFDE"></path>
                <path d="M60,136.870885 C60,143.017171 55.2218182,148 49.3309091,148 L46.6690909,142.714353 C40.7781818,142.714353 36,133.451096 36,127.303671 L36,123.130253 C36,116.982829 40.7781818,112 46.6690909,112 L49.3309091,112 C55.2218182,112 60,116.982829 60,123.130253 L60,136.870885 Z" id="Fill-964" fill="#013E6A"></path>
                <path d="M37.3989156,122 C36.8036406,122 36.2083656,122.046188 35.6355538,122.113271 C35.7478699,122.823691 35.8264911,123.547308 35.8264911,124.289619 C35.8264911,131.444405 30.221921,137.335611 23,138.175798 C24.0894655,144.872 30.109605,150 37.3989156,150 C45.4632068,150 52,143.73049 52,135.99945 C52,128.267311 45.4632068,122 37.3989156,122 Z" id="Fill-965" fill="#013E6A"></path>
                <path d="M38.0319279,149.842554 C38.0319279,149.842554 56.4714024,150.421937 56.9060394,149.357841 C57.3298105,148.292483 59.2313473,145.877755 56.7430505,144.234276 C54.2547537,142.589534 49.0608417,141.912956 46.0944442,142.008889 C43.1171808,142.107346 36,142.32067 36,143.372143 C36,146.994866 37.1843858,149.163451 38.0319279,149.842554 Z" id="Fill-966" fill="#FCB74B"></path>
                <path d="M31,147.905751 C31,147.905751 37.5553124,160.544125 45.2575234,162.287925 C52.9597343,164.029498 63.6416327,162.395869 64.7435549,159.345611 C65.8454771,156.295352 63.1468922,150.30278 61.3815679,148.778208 C59.6274878,147.251409 53.0496872,145.726837 51.509245,142.894693 C50.7221577,141.455808 50.0025351,140.217231 50.7783782,137.040111 C51.1044572,135.721411 46.7867215,135.164998 45.864705,138.412226 C45.5273819,139.57513 44.2343099,142.329377 42.6713795,143.059391 C38.7134551,144.901119 35.6213266,143.98415 31,147.905751 Z" id="Fill-967" fill="#FFB9A3"></path>
                <path d="M34.152722,355.145023 L34,373.928606 C34,373.928606 40.5670467,382.09422 42.9669641,383.40103 C45.3777902,384.70784 45.0505287,383.56452 44.886898,382.910559 C44.734176,382.257711 40.7306774,377.520942 40.0870632,374.907323 C39.443449,372.294816 40.8833994,356.288343 40.7306774,355.472004 C40.5670467,354.656777 34.152722,355.145023 34.152722,355.145023 Z" id="Fill-968" fill="#FFB9A3"></path>
                <path d="M32,225.67453 L36.4671871,297.594199 C36.4671871,297.594199 32.9758418,314.012618 32.520449,319.54683 C31.7397755,329.018355 32.6397185,357.567206 32.6397185,357.567206 L41.9752722,358 C41.9752722,358 48.5567832,293.467122 49.4133555,287.818608 C50.2590851,282.167876 59.8114925,236.10375 54.2925647,224.805613 C48.773637,213.507477 32,225.67453 32,225.67453 Z" id="Fill-969" fill="#1D416B"></path>
                <path d="M33.5218389,373 C33.5218389,373 32.8388086,374.209888 33.0356139,375.49046 C33.1976889,376.528348 34.0312174,379.572506 34.0312174,379.572506 L35.9066565,380.438395 L35.9066565,379.054151 C35.9066565,379.054151 39.2986544,383.206882 41.0004418,384.417948 C42.7022291,385.627835 46.2678788,388.643719 48.3169697,387.876789 C48.8610786,387.67416 49,387.012079 49,387.012079 C49,387.012079 45.7700771,383.378881 45.2491218,382.860526 C44.7397432,382.340993 43.5589112,383.378881 42.1928506,382.514171 C40.8383668,381.64946 36.9485672,377.872537 35.9066565,376.632019 C34.5405959,375.01805 33.5218389,373 33.5218389,373 Z" id="Fill-970" fill="#1D416B"></path>
                <path d="M51.1634991,350.145481 L51,368.927802 C51,368.927802 57.561764,377.094947 59.9706508,378.400711 C62.3686377,379.707588 62.0525394,378.565322 61.8890403,377.911327 C61.7255412,377.257333 57.7252631,372.521434 57.0821667,369.908793 C56.4499701,367.29504 57.8887622,351.287747 57.7252631,350.472479 C57.561764,349.656098 51.1634991,350.145481 51.1634991,350.145481 Z" id="Fill-971" fill="#FFB9A3"></path>
                <path d="M54.2750462,221.67453 L53.1833641,289.033218 L51,353.566097 L60.6023463,354 C60.6023463,354 67.3640912,288.815712 68.232981,283.166089 C69.1018708,277.516466 78.9158697,232.104859 73.2458068,220.805613 C67.5757439,209.507477 54.2750462,221.67453 54.2750462,221.67453 Z" id="Fill-972" fill="#1D416B"></path>
                <path d="M60.6162791,226 L52.6744186,235.985284 L52,277 C54.8255814,271.417704 56.9069767,267.339144 57.5697674,266.165271 C58.6511628,264.237492 63,257.333484 67.9186047,248.794883 C67.9651163,245.843785 67.9883721,242.874576 68,239.908762 C65.5697674,234.745755 63.0930233,230.028753 60.6162791,226 Z" id="Fill-973" fill="#153A64"></path>
                <path d="M50.5297811,369 C50.5297811,369 49.8465903,370.210971 50.0318623,371.490265 C50.1939754,372.52925 51.0276998,375.573169 51.0276998,375.573169 L52.9035796,376.438989 L52.9035796,375.054854 C52.9035796,375.054854 56.3079542,379.206081 58.0101414,380.417052 C59.7007492,381.628023 63.2672368,384.64367 65.3168092,383.876801 C65.8610459,383.673009 66,383.012158 66,383.012158 C66,383.012158 62.7693181,379.379245 62.2598198,378.859753 C61.7503216,378.341439 60.5576326,379.379245 59.1912509,378.514603 C57.8364488,377.648782 53.9457351,373.872155 52.9035796,372.632913 C51.5487775,371.017892 50.5297811,369 50.5297811,369 Z" id="Fill-974" fill="#1D416B"></path>
                <path d="M73,224 L37,224 L42.1998733,194.087615 L41.0253405,159 C41.0253405,159 47.7190371,161.528374 53.5802978,161.889411 C57.4231866,162.126376 65.6335128,159 65.6335128,159 L73,224 Z" id="Fill-975" fill="#FFFFFF"></path>
                <path d="M53,226.117653 C53,226.117653 45.9397685,172.62025 43.9579491,168.656772 C41.9761297,164.694418 40.4334635,155.44855 40.4334635,155.44855 L39.9943103,146.8627 L36.4585644,144 C36.4585644,144 27.8669269,147.743098 26.3242607,149.944656 C24.7815945,152.146213 29.1843864,162.713241 30.2878995,166.015577 C31.3914125,169.317914 36.0194112,180.105322 36.244618,182.52726 C36.4585644,184.948074 36.1995766,190.516059 35.1411049,193.095412 C26.7634139,213.569449 26.6958518,227.121734 26.9773603,226.999176 C33.5984387,224.135352 53,226.117653 53,226.117653 Z" id="Fill-976" fill="#FCB74B"></path>
                <path d="M56.4047238,145 C56.4047238,145 64.330524,150.055001 64.5553694,152.252535 C64.7689725,154.450069 68.0741998,166.096548 68.7374937,175.98545 C69.3895454,185.874352 68.7374937,188.510719 70.0528393,195.543276 C71.3794271,202.574711 73.3468243,203.768876 74.6734122,212.464735 C75.7301855,219.276192 76,225.42996 76,225.42996 C76,225.42996 73.1332212,226.968682 70.2776847,224.990004 C67.4109059,223.012448 63.0151784,199.498388 62.5654877,193.56572 C62.1270391,187.633053 62.1270391,171.809238 61.0252967,167.854127 C59.9347965,163.899015 55.8538526,151.812579 54.8645329,150.713812 C52.3912335,147.969701 55.9662753,145.438833 56.4047238,145 Z" id="Fill-977" fill="#FCB74B"></path>
                <path d="M55.9719866,116 C55.9608131,116.989156 55.8825987,118.004747 55.7149965,119.034659 C54.6088218,125.949936 50.3517255,131.201933 45.6923837,131.847418 C45.5471285,134.97901 44.8990666,137.79557 44.1392698,140.191353 C43.2677383,142.917589 40.0274287,145.80024 40.0274287,145.80024 C39.2341115,150.629258 55.9161192,157.719675 55.5138738,156.940907 C55.122802,156.161039 51.0109609,150.475046 49.6701431,145.254992 C48.7315707,141.618909 49.9383067,138.618397 51.3461653,136.547559 C53.9495864,133.525017 57.7262231,133.569078 57.7262231,133.569078 C58.094948,133.569078 58.418979,133.415968 58.6536221,133.171433 C58.8770917,132.460959 59,131.70312 59,130.921049 L59,122.039577 C59,119.578805 57.8044375,117.397816 55.9719866,116 Z" id="Fill-978" fill="#FFB9A3"></path>
                <polygon id="Fill-979" fill="#DEE7EC" points="0 246 84 246 84 194 0 194"></polygon>
                <polygon id="Fill-980" fill="#B5D1DE" points="0 202 84 202 84 194 0 194"></polygon>
                <polyline id="Fill-981" fill="#879BA6" points="3 199 5 199 5 196 3 196"></polyline>
                <polyline id="Fill-982" fill="#879BA6" points="7 199 9 199 9 196 7 196"></polyline>
                <polyline id="Fill-983" fill="#879BA6" points="11 199 13 199 13 196 11 196"></polyline>
                <polyline id="Fill-984" fill="#B5D1DE" points="13 228 61 228 61 226 13 226"></polyline>
                <polyline id="Fill-985" fill="#B5D1DE" points="13 233 61 233 61 231 13 231"></polyline>
                <polyline id="Fill-986" fill="#B5D1DE" points="13 239 61 239 61 237 13 237"></polyline>
                <polyline id="Fill-987" fill="#B5D1DE" points="9 226 6 226 6 228 9 228"></polyline>
                <polyline id="Fill-988" fill="#B5D1DE" points="9 231 6 231 6 233 9 233"></polyline>
                <polyline id="Fill-989" fill="#B5D1DE" points="9 237 6 237 6 239 9 239"></polyline>
                <path d="M71,228 C71,229.105528 70.1069182,230 69,230 C67.8930818,230 67,229.105528 67,228 C67,226.896985 67.8930818,226 69,226 C70.1069182,226 71,226.896985 71,228 Z" id="Fill-990" fill="#F5B1AE"></path>
                <path d="M78,228 C78,229.105528 77.0971787,230 75.9937304,230 C74.9028213,230 74,229.105528 74,228 C74,226.896985 74.9028213,226 75.9937304,226 C77.0971787,226 78,226.896985 78,228 Z" id="Fill-991" fill="#B0D9EF"></path>
                <path d="M71,231.999372 C71,233.102733 70.1069182,234 69,234 C67.8930818,234 67,233.102733 67,231.999372 C67,230.894753 67.8930818,230 69,230 C70.1069182,230 71,230.894753 71,231.999372 Z" id="Fill-992" fill="#D8E5ED"></path>
                <path d="M78,231.999372 C78,233.102733 77.0971787,234 75.9937304,234 C74.9028213,234 74,233.102733 74,231.999372 C74,230.894753 74.9028213,230 75.9937304,230 C77.0971787,230 78,230.894753 78,231.999372 Z" id="Fill-993" fill="#B2DDC9"></path>
                <path d="M71,237.999372 C71,239.105247 70.1069182,240 69,240 C67.8930818,240 67,239.105247 67,237.999372 C67,236.894753 67.8930818,236 69,236 C70.1069182,236 71,236.894753 71,237.999372 Z" id="Fill-994" fill="#D8E5ED"></path>
                <path d="M78,237.999372 C78,239.105247 77.0971787,240 75.9937304,240 C74.9028213,240 74,239.105247 74,237.999372 C74,236.894753 74.9028213,236 75.9937304,236 C77.0971787,236 78,236.894753 78,237.999372 Z" id="Fill-995" fill="#B0D9EF"></path>
                <path d="M18,222 L18,220.333333 C18,218.4911 16.5614035,217 14.7953216,217 L9.20467836,217 C7.43859649,217 6,218.4911 6,220.333333 L6,222 L18,222 Z" id="Fill-996" fill="#B5D1DE"></path>
                <path d="M14,212.000627 C14,210.344201 12.6569038,209 11,209 C9.34309623,209 8,210.344201 8,212.000627 C8,213.657053 9.34309623,215 11,215 C12.6569038,215 14,213.657053 14,212.000627 Z" id="Fill-997" fill="#B5D1DE"></path>
                <polyline id="Fill-998" fill="#B5D1DE" points="23 214 52 214 52 212 23 212"></polyline>
                <polyline id="Fill-999" fill="#B5D1DE" points="23 218 43 218 43 216 23 216"></polyline>
                <path d="M28.1145111,190 C28.1145111,190 31.1208124,190.339597 29.5412304,204.457939 C27.9616483,218.576282 22,239 22,239 L22.4840655,206.153699 C22.4840655,206.153699 23.2993336,193.597505 28.1145111,190 Z" id="Fill-1000" fill="#FFB9A3"></path>
                <path d="M33.053286,171.528372 L29.0369938,209.705953 L29.0369938,212 L17,211.345036 C17,211.345036 20.4934612,180.867464 21.0162921,179.3924 C21.539123,177.918453 22.7511402,165.139407 22.5847849,162.844244 C22.4065471,160.550198 26.8624925,145.154644 31.5560883,151.539146 C38.3053603,160.714217 33.053286,171.528372 33.053286,171.528372 Z" id="Fill-1001" fill="#FCB74B"></path>
                <path d="M23.6472811,227.333075 C23.1502227,234.031027 26.1210139,237.094784 26.9186193,239.809631 C27.7162247,242.524478 29.0340076,245.279201 28.9993291,245.262586 C26.3984419,243.607759 26.4793584,241.437875 25.6701934,240.302535 C24.872588,239.166087 25.28873,239.475121 24.9535045,241.847705 C24.756993,243.197929 26.8492623,245.71783 27.9820932,247.510006 C28.9530911,249.061821 28.9762101,250 28.9762101,250 C28.9762101,250 26.8145838,248.130289 25.126897,245.805334 C23.0924252,242.997444 21.4625358,239.589209 21.2313459,238.791702 C20.8036444,237.329606 20.9885964,232.841413 21.6243688,229.67686 C22.3410578,226.104693 23.9940661,222.509265 23.6472811,227.333075 Z" id="Fill-1002" fill="#FFB9A3"></path>
                <path d="M22,238 C22,238 23.0162602,243.434858 23.6937669,244.416908 C24.1680217,245.099016 27,248 27,248 C27,248 26.8102981,245.980313 25.7533875,244.758541 C24.696477,243.536769 22,238 22,238 Z" id="Fill-1003" fill="#FFB9A3"></path>
                <g id="Group-17" transform="translate(146.000000, 281.000000)">
                    <ellipse id="Oval-3" fill="#207DD6" fill-rule="nonzero" transform="translate(40.889706, 98.533981) scale(1, -1) translate(-40.889706, -98.533981) " cx="40.8897059" cy="98.5339806" rx="23.1544118" ry="3.46601942"></ellipse>
                    <path d="M40.8136781,74.4794668 C38.9841342,70.8176194 35.5882903,74.0828 32.9953397,74.303762 C30.1259832,74.5486839 30.9552009,72.5946337 31.4685261,69.6662206 C31.9950136,66.7364765 35.851534,66.0043732 39.5106217,62.3398636 C43.1565471,58.6780161 38.7208905,51.5965809 35.3382088,52.0850935 C31.9423648,52.573606 32.4688523,55.8707329 30.1259832,55.9918627 C26.993383,56.1555876 27.1250048,54.4051953 27.2566267,52.0850935 C27.5330326,47.1533796 29.0861705,43.0522702 28.0463578,39.3890917 C27.3750863,37.0397058 24.9004638,34.9160739 22.5050776,34.065503 L22.4524289,34.0175835 C21.9521342,33.7473708 21.3468052,33.6435453 20.688696,33.6754916 C20.0305867,33.6435453 19.4249945,33.7473708 18.9248314,34.0175835 L18.8723143,34.065503 C16.4766649,34.9160739 14.0021739,37.0397058 13.3309025,39.3890917 C12.2912214,43.0522702 13.8442277,47.1533796 14.1207652,52.0850935 C14.2523871,54.4051953 14.3838773,56.1555876 11.2512771,55.9918627 C8.90840803,55.8707329 9.43489546,52.573606 6.03918314,52.0850935 C2.65636976,51.5965809 -1.77928686,58.6780161 1.8798008,62.3398636 C5.52585789,66.0043732 9.38224671,66.7364765 9.90873415,69.6662206 C10.4352216,72.5946337 11.2512771,74.5486839 8.38192059,74.303762 C5.78896999,74.0828 2.39325767,70.8176194 0.563582219,74.4794668 C-1.25279942,78.1426454 1.09020127,88.6756147 10.988165,90.8732556 C16.5689318,92.1098446 18.8459899,95.3350922 20.688696,95.0502375 C22.5444325,95.3350922 24.8084601,92.1098446 30.3892269,90.8732556 C40.2871906,88.6756147 42.6432219,78.1426454 40.8136781,74.4794668 Z" id="Fill-1005" fill="#A0CFEF"></path>
                    <polygon id="Fill-1006" fill="#1876B2" points="20.6911765 94.0776699 21.1149515 94.0776699 21.1149515 47.5339806 20.6911765 47.5339806"></polygon>
                    <polygon id="Fill-1007" fill="#1876B2" points="21.0725764 71.3009709 20.6911765 70.8817987 32.133306 60.407767 32.5147059 60.825621"></polygon>
                    <polygon id="Fill-1008" fill="#1876B2" points="21.0286547 88.1359223 20.6911765 87.734327 29.2213453 79.223301 29.5588235 79.6274381"></polygon>
                    <polygon id="Fill-1009" fill="#1876B2" points="20.3100647 71.3009709 20.6911765 70.8817987 9.24862745 60.407767 8.86764706 60.825621"></polygon>
                    <polygon id="Fill-1010" fill="#1876B2" points="19.3687258 88.1359223 19.7058824 87.734327 11.1752756 79.223301 10.8382353 79.6274381"></polygon>
                    <path d="M66.3423187,70.6057844 C64.2105434,64.569086 60.2459614,66.6186036 57.2172806,66.9834212 C53.8636342,67.3860972 55.9954094,64.1664099 56.606345,59.3353303 C57.2172806,54.504939 60.5579285,53.2986318 64.8084804,47.2602125 C69.0720309,41.2217932 63.8985763,29.5510722 59.9469929,30.3564242 C55.9954094,31.1617762 56.606345,36.5944607 53.8636342,36.7957987 C50.2110192,37.0642494 50.3670028,34.1801255 50.5229863,30.3564242 C50.8479521,22.2271871 52.6547616,15.4642952 51.4328904,9.4293175 C50.6529726,5.5539911 47.7672768,2.05208647 44.9855701,0.653045458 L44.9205769,0.573886926 C44.3356386,0.126469136 43.620714,-0.0438937916 42.8537948,0.00945217569 C42.0868756,-0.0438937916 41.3849496,0.126469136 40.8000113,0.573886926 L40.7350182,0.653045458 C37.9533114,2.05380731 35.0676156,5.5539911 34.2876978,9.4293175 C33.0658266,15.4642952 34.8726362,22.2271871 35.1976019,30.3564242 C35.3405868,34.1801255 35.509569,37.0642494 31.8439554,36.7957987 C29.1142432,36.5944607 29.7251788,31.1617762 25.7735954,30.3564242 C21.8220119,29.5510722 16.6485573,41.2217932 20.8991092,47.2602125 C25.1626598,53.2986318 28.5033076,54.504939 29.1142432,59.3353303 C29.7251788,64.1664099 31.8439554,67.3860972 28.5033076,66.9834212 C25.4746269,66.6186036 21.5100448,64.569086 19.3782695,70.6057844 C17.2594929,76.6424829 19.9892051,92.339964 31.5449869,95.9606064 C38.0573004,98.0015199 40.7090209,98.318154 42.8537948,97.8483654 C45.024566,98.318154 47.6632878,98.0015199 54.1756013,95.9606064 C65.7313831,92.339964 68.4610954,76.6424829 66.3423187,70.6057844 Z" id="Fill-1011" fill="#1661A5"></path>
                    <polygon id="Fill-1012" fill="#2589C9" points="42.3676471 98.038835 42.8307353 98.038835 42.8307353 21.7864078 42.3676471 21.7864078"></polygon>
                    <polygon id="Fill-1013" fill="#2589C9" points="42.7858944 54.4660194 42.3676471 53.8953319 54.7582233 39.6116505 55.1764706 40.182338"></polygon>
                    <polygon id="Fill-1014" fill="#2589C9" points="42.7850039 89.1262136 42.3676471 88.5434149 52.7885255 76.2524272 53.2058824 76.8335414"></polygon>
                    <polygon id="Fill-1015" fill="#2589C9" points="41.9493998 54.4660194 42.3676471 53.8953319 29.9770708 39.6116505 29.5588235 40.182338"></polygon>
                    <polygon id="Fill-1016" fill="#2589C9" points="41.9502902 89.1262136 42.3676471 88.5434149 31.9467686 76.2524272 31.5294118 76.8335414"></polygon>
                </g>
                <path d="M25,46 C25,46 26.0635442,41.0344455 32.3171838,41.9107198 C32.3171838,41.9107198 33.9143496,36.2153833 40.1670644,37.0916577 C46.4207041,37.967932 46.953401,42.7869941 46.953401,42.7869941 C46.953401,42.7869941 50.5454057,41.0344455 52.9406921,42.641395 C55.3350537,44.2474513 56,46 56,46 L25,46 Z" id="Fill-2" fill="#4E8EFF"></path>
                <path d="M185.17059,14.2630811 C184.055939,6.21796956 176.774798,0 167.935011,0 C159.736964,0 152.881163,5.35117782 151.038957,12.5460079 L150.763793,12.5322493 L145.28195,12.4607046 C144.275499,6.05561809 138.435476,1.13554305 131.360475,1.13554305 C124.443111,1.13554305 118.70196,5.83823223 117.508957,12.034188 C102.466302,9.21184073 101,22 101,22 L191.96856,22 C192.517957,15.7902856 185.692004,14.3630602 185.17059,14.2630811 Z" id="Fill-3" fill="#4E8EFF"></path>
            </g>
        </g>
    </g>
</svg>