<?xml version="1.0" encoding="UTF-8"?>
<svg width="393px" height="244px" viewBox="0 0 393 244" version="1.1" xmlns="http://www.w3.org/2000/svg" xmlns:xlink="http://www.w3.org/1999/xlink">
    <!-- Generator: Sketch 51.2 (57519) - http://www.bohemiancoding.com/sketch -->
    <title>Group 21</title>
    <desc>Created with Sketch.</desc>
    <defs>
        <path d="M69.3529627,1.18838407 C48.038522,5.36239972 26.7277424,9.54130583 5.36204746,13.4732432 C1.87431864,14.1175626 0.9432,15.4636643 0.983471186,18.8845477 C1.16774237,33.9435256 0.821166102,88.8428349 0.91879322,101.507928 C1.04204746,117.982697 6.28096271,131.227311 16.8222508,142.938762 C31.5285559,159.281489 49.9190644,170.329059 69.7605559,179.215042 C71.2786576,179.898485 72.5893017,180.239595 74.2416407,179.482795 C97.1461831,169.04042 118.443661,156.365546 133.585627,135.488132 C140.365831,126.147336 143.788881,115.790544 143.609492,103.893255 C143.17261,75.7657197 143.400814,47.6221686 143.550915,19.4824075 C143.572881,15.6421664 142.66739,14.0967781 138.585356,13.3619851 C117.407593,9.54497368 96.2980475,5.33794737 75.182522,1.18838407 C74.1855051,0.992765292 73.2263186,0.896178521 72.2671322,0.896178521 C71.3079458,0.896178521 70.3487593,0.992765292 69.3529627,1.18838407 Z" id="path-1"></path>
        <filter x="-26.3%" y="-17.0%" width="152.6%" height="141.9%" filterUnits="objectBoundingBox" id="filter-2">
            <feMorphology radius="1" operator="dilate" in="SourceAlpha" result="shadowSpreadOuter1"></feMorphology>
            <feOffset dx="0" dy="7" in="shadowSpreadOuter1" result="shadowOffsetOuter1"></feOffset>
            <feGaussianBlur stdDeviation="11" in="shadowOffsetOuter1" result="shadowBlurOuter1"></feGaussianBlur>
            <feComposite in="shadowBlurOuter1" in2="SourceAlpha" operator="out" result="shadowBlurOuter1"></feComposite>
            <feColorMatrix values="0 0 0 0 0.0588040451   0 0 0 0 0.231591543   0 0 0 0 0.730017007  0 0 0 0.22155231 0" type="matrix" in="shadowBlurOuter1"></feColorMatrix>
        </filter>
        <linearGradient x1="52.0035975%" y1="8.62563776%" x2="52.0035975%" y2="84.6163922%" id="linearGradient-3">
            <stop stop-color="#3468FE" offset="0%"></stop>
            <stop stop-color="#268AEA" offset="100%"></stop>
        </linearGradient>
    </defs>
    <g id="Page-1" stroke="none" stroke-width="1" fill="none" fill-rule="evenodd">
        <g id="product" transform="translate(-250.000000, -3245.000000)">
            <g id="2" transform="translate(250.000000, 3212.000000)">
                <g id="Group-21" transform="translate(0.000000, 33.000000)">
                    <path d="M352.328458,225.138368 C305.419302,238.464761 98.8898779,170.721136 29.0898438,146.59375 C-25.1277926,127.852644 7.69434149,61.8139749 46.8026112,43.1451087 C184.078189,-22.3852612 281.445077,-3.38727918 345.786263,43.1451087 C403.830964,85.1237957 411.059198,208.453589 352.328458,225.138368 Z" id="Rectangle-3" fill="#EDF5FF"></path>
                    <g id="Group-19" opacity="0.739341518" transform="translate(70.000000, 4.000000)">
                        <polygon id="Fill-2" fill="#C0D2EC" points="4 93 86 93 86 17 4 17"></polygon>
                        <path d="M90,32.6170254 L90,47.3819032 C90,49.3714814 88.35839,51 86.3514974,51 L3.64850261,51 C1.64269075,51 0,49.3714814 0,47.3819032 L0,32.6170254 C0,30.6274472 1.64161003,29 3.64850261,29 L86.3514974,29 C88.35839,29 90,30.6274472 90,32.6170254" id="Fill-5" fill="#D8E2F1"></path>
                        <path d="M90,62.6170254 L90,77.3819032 C90,79.3714814 88.35839,81 86.3514974,81 L3.64850261,81 C1.64269075,81 0,79.3714814 0,77.3819032 L0,62.6170254 C0,60.6274472 1.64161003,59 3.64850261,59 L86.3514974,59 C88.35839,59 90,60.6274472 90,62.6170254" id="Fill-8" fill="#D8E2F1"></path>
                        <path d="M90,91.6170254 L90,106.381903 C90,108.371481 88.35839,110 86.3514974,110 L3.64850261,110 C1.64269075,110 0,108.371481 0,106.381903 L0,91.6170254 C0,89.6274472 1.64161003,88 3.64850261,88 L86.3514974,88 C88.35839,88 90,89.6274472 90,91.6170254" id="Fill-9" fill="#D8E2F1"></path>
                        <path d="M90,3.61666732 L90,18.3818327 C90,20.3714497 88.35839,22 86.3514974,22 L3.64850261,22 C1.64269075,22 0,20.3714497 0,18.3818327 L0,3.61666732 C0,1.62747886 1.64269075,0 3.64850261,0 L86.3514974,0 C88.35839,0 90,1.62747886 90,3.61666732" id="Fill-10" fill="#D8E2F1"></path>
                        <path d="M48.17861,9 L17.82139,9 C16.814662,9 16,8.1042654 16,7 C16,5.8957346 16.814662,5 17.82139,5 L48.17861,5 C49.184259,5 50,5.8957346 50,7 C50,8.1042654 49.184259,9 48.17861,9" id="Fill-11" fill="#FCB74B"></path>
                        <path d="M10.25,9 L6.75,9 C5.78376777,9 5,8.1042654 5,7 C5,5.8957346 5.78376777,5 6.75,5 L10.25,5 C11.2162322,5 12,5.8957346 12,7 C12,8.1042654 11.2162322,9 10.25,9" id="Fill-12" fill="#B5C4D9"></path>
                        <path d="M48.17861,39 L17.82139,39 C16.814662,39 16,38.1042654 16,37 C16,35.8957346 16.814662,35 17.82139,35 L48.17861,35 C49.184259,35 50,35.8957346 50,37 C50,38.1042654 49.184259,39 48.17861,39" id="Fill-13" fill="#B5C4D9"></path>
                        <path d="M10.25,39 L6.75,39 C5.78376777,39 5,38.1042654 5,37 C5,35.8957346 5.78376777,35 6.75,35 L10.25,35 C11.2162322,35 12,35.8957346 12,37 C12,38.1042654 11.2162322,39 10.25,39" id="Fill-14" fill="#B5C4D9"></path>
                        <path d="M48.17861,68 L17.82139,68 C16.814662,68 16,67.1042654 16,66 C16,64.8957346 16.814662,64 17.82139,64 L48.17861,64 C49.184259,64 50,64.8957346 50,66 C50,67.1042654 49.184259,68 48.17861,68" id="Fill-15" fill="#B5C4D9"></path>
                        <path d="M10.25,68 L6.75,68 C5.78376777,68 5,67.1042654 5,66 C5,64.8957346 5.78376777,64 6.75,64 L10.25,64 C11.2162322,64 12,64.8957346 12,66 C12,67.1042654 11.2162322,68 10.25,68" id="Fill-16" fill="#FCB74B"></path>
                        <path d="M48.17861,98 L17.82139,98 C16.814662,98 16,97.1042654 16,96 C16,94.8957346 16.814662,94 17.82139,94 L48.17861,94 C49.184259,94 50,94.8957346 50,96 C50,97.1042654 49.184259,98 48.17861,98" id="Fill-17" fill="#FCB74B"></path>
                        <path d="M10.25,98 L6.75,98 C5.78376777,98 5,97.1042654 5,96 C5,94.8957346 5.78376777,94 6.75,94 L10.25,94 C11.2162322,94 12,94.8957346 12,96 C12,97.1042654 11.2162322,98 10.25,98" id="Fill-18" fill="#B5C4D9"></path>
                    </g>
                    <g id="Group-19" opacity="0.739341518" transform="translate(251.000000, 33.000000)">
                        <polygon id="Fill-2" fill="#C0D2EC" points="4 93 86 93 86 17 4 17"></polygon>
                        <path d="M90,32.6170254 L90,47.3819032 C90,49.3714814 88.35839,51 86.3514974,51 L3.64850261,51 C1.64269075,51 0,49.3714814 0,47.3819032 L0,32.6170254 C0,30.6274472 1.64161003,29 3.64850261,29 L86.3514974,29 C88.35839,29 90,30.6274472 90,32.6170254" id="Fill-5" fill="#D8E2F1"></path>
                        <path d="M90,62.6170254 L90,77.3819032 C90,79.3714814 88.35839,81 86.3514974,81 L3.64850261,81 C1.64269075,81 0,79.3714814 0,77.3819032 L0,62.6170254 C0,60.6274472 1.64161003,59 3.64850261,59 L86.3514974,59 C88.35839,59 90,60.6274472 90,62.6170254" id="Fill-8" fill="#D8E2F1"></path>
                        <path d="M90,91.6170254 L90,106.381903 C90,108.371481 88.35839,110 86.3514974,110 L3.64850261,110 C1.64269075,110 0,108.371481 0,106.381903 L0,91.6170254 C0,89.6274472 1.64161003,88 3.64850261,88 L86.3514974,88 C88.35839,88 90,89.6274472 90,91.6170254" id="Fill-9" fill="#D8E2F1"></path>
                        <path d="M90,3.61666732 L90,18.3818327 C90,20.3714497 88.35839,22 86.3514974,22 L3.64850261,22 C1.64269075,22 0,20.3714497 0,18.3818327 L0,3.61666732 C0,1.62747886 1.64269075,0 3.64850261,0 L86.3514974,0 C88.35839,0 90,1.62747886 90,3.61666732" id="Fill-10" fill="#D8E2F1"></path>
                        <path d="M48.17861,9 L17.82139,9 C16.814662,9 16,8.1042654 16,7 C16,5.8957346 16.814662,5 17.82139,5 L48.17861,5 C49.184259,5 50,5.8957346 50,7 C50,8.1042654 49.184259,9 48.17861,9" id="Fill-11" fill="#FCB74B"></path>
                        <path d="M10.25,9 L6.75,9 C5.78376777,9 5,8.1042654 5,7 C5,5.8957346 5.78376777,5 6.75,5 L10.25,5 C11.2162322,5 12,5.8957346 12,7 C12,8.1042654 11.2162322,9 10.25,9" id="Fill-12" fill="#B5C4D9"></path>
                        <path d="M48.17861,39 L17.82139,39 C16.814662,39 16,38.1042654 16,37 C16,35.8957346 16.814662,35 17.82139,35 L48.17861,35 C49.184259,35 50,35.8957346 50,37 C50,38.1042654 49.184259,39 48.17861,39" id="Fill-13" fill="#FCB74B"></path>
                        <path d="M10.25,39 L6.75,39 C5.78376777,39 5,38.1042654 5,37 C5,35.8957346 5.78376777,35 6.75,35 L10.25,35 C11.2162322,35 12,35.8957346 12,37 C12,38.1042654 11.2162322,39 10.25,39" id="Fill-14" fill="#B5C4D9"></path>
                        <path d="M48.17861,68 L17.82139,68 C16.814662,68 16,67.1042654 16,66 C16,64.8957346 16.814662,64 17.82139,64 L48.17861,64 C49.184259,64 50,64.8957346 50,66 C50,67.1042654 49.184259,68 48.17861,68" id="Fill-15" fill="#B5C4D9"></path>
                        <path d="M10.25,68 L6.75,68 C5.78376777,68 5,67.1042654 5,66 C5,64.8957346 5.78376777,64 6.75,64 L10.25,64 C11.2162322,64 12,64.8957346 12,66 C12,67.1042654 11.2162322,68 10.25,68" id="Fill-16" fill="#B5C4D9"></path>
                        <path d="M48.17861,98 L17.82139,98 C16.814662,98 16,97.1042654 16,96 C16,94.8957346 16.814662,94 17.82139,94 L48.17861,94 C49.184259,94 50,94.8957346 50,96 C50,97.1042654 49.184259,98 48.17861,98" id="Fill-17" fill="#B5C4D9"></path>
                        <path d="M10.25,98 L6.75,98 C5.78376777,98 5,97.1042654 5,96 C5,94.8957346 5.78376777,94 6.75,94 L10.25,94 C11.2162322,94 12,94.8957346 12,96 C12,97.1042654 11.2162322,98 10.25,98" id="Fill-18" fill="#B5C4D9"></path>
                    </g>
                    <g id="Group-11" transform="translate(136.000000, 35.000000)">
                        <g id="Group-5">
                            <path d="M69.3529627,1.18838407 C48.038522,5.36239972 26.7277424,9.54130583 5.36204746,13.4732432 C1.87431864,14.1175626 0.9432,15.4636643 0.983471186,18.8845477 C1.16774237,33.9435256 0.821166102,88.8428349 0.91879322,101.507928 C1.04204746,117.982697 6.28096271,131.227311 16.8222508,142.938762 C31.5285559,159.281489 49.9190644,170.329059 69.7605559,179.215042 C71.2786576,179.898485 72.5893017,180.239595 74.2416407,179.482795 C97.1461831,169.04042 118.443661,156.365546 133.585627,135.488132 C140.365831,126.147336 143.788881,115.790544 143.609492,103.893255 C143.17261,75.7657197 143.400814,47.6221686 143.550915,19.4824075 C143.572881,15.6421664 142.66739,14.0967781 138.585356,13.3619851 C117.407593,9.54497368 96.2980475,5.33794737 75.182522,1.18838407 C74.1855051,0.992765292 73.2263186,0.896178521 72.2671322,0.896178521 C71.3079458,0.896178521 70.3487593,0.992765292 69.3529627,1.18838407 Z" id="Clip-4"></path>
                            <g id="Fill-3">
                                <use fill="black" fill-opacity="1" filter="url(#filter-2)" xlink:href="#path-1"></use>
                                <use stroke="#92B9FF" stroke-width="2" fill="#FFFFFF" fill-rule="evenodd" xlink:href="#path-1"></use>
                            </g>
                        </g>
                        <path d="M128.947884,35.4333447 C128.965097,32.4511278 128.256909,31.2519037 125.052849,30.681541 C108.431331,27.7163863 91.8664927,24.448988 75.2929248,21.2266826 C73.7314684,20.9244391 72.284355,20.9244391 70.7204397,21.2266826 C53.9931851,24.4697063 37.2683895,27.7139488 20.5005617,30.7668516 C17.7637099,31.2677471 17.0346204,32.3109746 17.0653578,34.9690109 C17.210438,46.661446 16.9374905,89.287282 17.0137191,99.1211635 C17.110849,111.915325 21.2222742,122.197697 29.4943042,131.290594 C41.0343271,143.979945 55.4698064,152.558541 71.0401079,159.460173 C72.2302573,159.989099 73.2581136,160.253562 74.5564584,159.667356 C92.532878,151.559188 109.246485,141.716775 121.128307,125.505313 C126.450783,118.253907 129.137226,110.21033 128.994604,100.974842 C128.652805,79.1328762 128.832311,57.2826229 128.947884,35.4333447" id="Fill-6" fill="url(#linearGradient-3)"></path>
                        <polygon id="Fill-14" fill="#92B9FF" transform="translate(121.500000, 94.500000) rotate(-120.000000) translate(-121.500000, -94.500000) " points="118.792443 92 125 95.3681702 124.207557 97 118 93.6318298"></polygon>
                        <polygon id="Fill-13" fill="#92B9FF" transform="translate(122.000000, 61.500000) rotate(62.000000) translate(-122.000000, -61.500000) " points="103.879589 51 141 70.2675195 140.120411 72 103 52.7324805"></polygon>
                        <polyline id="Stroke-10" stroke="#EFEFEF" stroke-width="7" points="44 91.1717664 64.8263083 111 101 64"></polyline>
                    </g>
                </g>
            </g>
        </g>
    </g>
</svg>