<?xml version="1.0" encoding="UTF-8"?>
<svg width="402px" height="296px" viewBox="0 0 402 296" version="1.1" xmlns="http://www.w3.org/2000/svg" xmlns:xlink="http://www.w3.org/1999/xlink">
    <!-- Generator: Sketch 51.2 (57519) - http://www.bohemiancoding.com/sketch -->
    <title>Group 23</title>
    <desc>Created with Sketch.</desc>
    <defs>
        <path d="M179,260.5 C179,265.194 138.930354,269 89.5003371,269 C40.0703198,269 0,265.194 0,260.5 C0,255.806 40.0703198,252 89.5003371,252 C138.930354,252 179,255.806 179,260.5" id="path-1"></path>
        <filter x="-17.3%" y="-135.3%" width="134.6%" height="464.7%" filterUnits="objectBoundingBox" id="filter-2">
            <feOffset dx="0" dy="8" in="SourceAlpha" result="shadowOffsetOuter1"></feOffset>
            <feGaussianBlur stdDeviation="9" in="shadowOffsetOuter1" result="shadowBlurOuter1"></feGaussianBlur>
            <feColorMatrix values="0 0 0 0 0.0426420071   0 0 0 0 0.220855542   0 0 0 0 0.734933036  0 0 0 0.22509058 0" type="matrix" in="shadowBlurOuter1"></feColorMatrix>
        </filter>
        <linearGradient x1="52.0035975%" y1="43.1755515%" x2="52.0035975%" y2="90.7571232%" id="linearGradient-3">
            <stop stop-color="#3468FE" offset="0%"></stop>
            <stop stop-color="#268AEA" offset="100%"></stop>
        </linearGradient>
    </defs>
    <g id="Page-1" stroke="none" stroke-width="1" fill="none" fill-rule="evenodd">
        <g id="product" transform="translate(-264.000000, -4353.000000)">
            <g id="4" transform="translate(222.000000, 4313.000000)">
                <g id="Group-23" transform="translate(0.000000, 5.000000)">
                    <path d="M388.271931,335.925264 C341.362776,352.217835 134.833351,269.395888 65.0333172,239.898248 C10.8156808,216.985761 43.6378149,136.248258 82.7460847,113.424091 C220.021662,33.3080241 317.388551,56.5345616 381.729737,113.424091 C439.774437,164.74636 447.002672,315.526799 388.271931,335.925264 Z" id="Rectangle-3" fill="#EDF5FF" transform="translate(232.721109, 199.855374) rotate(-21.000000) translate(-232.721109, -199.855374) "></path>
                    <g id="Group-8" opacity="0.720703125" transform="translate(344.000000, 203.000000)">
                        <g id="Group" transform="translate(30.000000, 26.000000)">
                            <g id="Group-3-Copy" transform="translate(3.137255, 41.166667)">
                                <path d="M0,6.33333333 L0,10.0078686 C0,13.2252975 7.54971878,15.8333333 16.8625036,15.8333333 C26.1760129,15.8333333 33.7254902,13.2252975 33.7254902,10.0078686 L33.7254902,6.33333333 L0,6.33333333 Z" id="Fill-257" fill="#F0B237"></path>
                                <path d="M33.7254902,5.5417835 C33.7254902,8.60230044 26.1760129,11.0833333 16.8625036,11.0833333 C7.54971878,11.0833333 0,8.60230044 0,5.5417835 C0,2.4810329 7.54971878,0 16.8625036,0 C26.1760129,0 33.7254902,2.4810329 33.7254902,5.5417835 Z" id="Fill-258" fill="#FFCC65"></path>
                                <path d="M30.5882353,5.54178969 C30.5882353,8.16486342 24.4432106,10.2916667 16.8623829,10.2916667 C9.28227957,10.2916667 3.1372549,8.16486342 3.1372549,5.54178969 C3.1372549,2.91846991 9.28227957,0.791666667 16.8623829,0.791666667 C24.4432106,0.791666667 30.5882353,2.91846991 30.5882353,5.54178969 Z" id="Fill-259" fill="#F0B237"></path>
                            </g>
                            <g id="Group-3-Copy" transform="translate(0.000000, 33.250000)">
                                <path d="M0,6.33333333 L0,10.0078686 C0,13.2252975 7.54971878,15.8333333 16.8625036,15.8333333 C26.1760129,15.8333333 33.7254902,13.2252975 33.7254902,10.0078686 L33.7254902,6.33333333 L0,6.33333333 Z" id="Fill-257" fill="#F0B237"></path>
                                <path d="M33.7254902,5.5417835 C33.7254902,8.60230044 26.1760129,11.0833333 16.8625036,11.0833333 C7.54971878,11.0833333 0,8.60230044 0,5.5417835 C0,2.4810329 7.54971878,0 16.8625036,0 C26.1760129,0 33.7254902,2.4810329 33.7254902,5.5417835 Z" id="Fill-258" fill="#FFCC65"></path>
                                <path d="M30.5882353,5.54178969 C30.5882353,8.16486342 24.4432106,10.2916667 16.8623829,10.2916667 C9.28227957,10.2916667 3.1372549,8.16486342 3.1372549,5.54178969 C3.1372549,2.91846991 9.28227957,0.791666667 16.8623829,0.791666667 C24.4432106,0.791666667 30.5882353,2.91846991 30.5882353,5.54178969 Z" id="Fill-259" fill="#F0B237"></path>
                            </g>
                            <g id="Group-3-Copy" transform="translate(2.352941, 23.750000)">
                                <path d="M0,6.33333333 L0,10.0078686 C0,13.2252975 7.54971878,15.8333333 16.8625036,15.8333333 C26.1760129,15.8333333 33.7254902,13.2252975 33.7254902,10.0078686 L33.7254902,6.33333333 L0,6.33333333 Z" id="Fill-257" fill="#F0B237"></path>
                                <path d="M33.7254902,5.5417835 C33.7254902,8.60230044 26.1760129,11.0833333 16.8625036,11.0833333 C7.54971878,11.0833333 0,8.60230044 0,5.5417835 C0,2.4810329 7.54971878,0 16.8625036,0 C26.1760129,0 33.7254902,2.4810329 33.7254902,5.5417835 Z" id="Fill-258" fill="#FFCC65"></path>
                                <path d="M30.5882353,5.54178969 C30.5882353,8.16486342 24.4432106,10.2916667 16.8623829,10.2916667 C9.28227957,10.2916667 3.1372549,8.16486342 3.1372549,5.54178969 C3.1372549,2.91846991 9.28227957,0.791666667 16.8623829,0.791666667 C24.4432106,0.791666667 30.5882353,2.91846991 30.5882353,5.54178969 Z" id="Fill-259" fill="#F0B237"></path>
                            </g>
                            <g id="Group-3-Copy" transform="translate(6.274510, 17.416667)">
                                <path d="M0,6.33333333 L0,10.0078686 C0,13.2252975 7.54971878,15.8333333 16.8625036,15.8333333 C26.1760129,15.8333333 33.7254902,13.2252975 33.7254902,10.0078686 L33.7254902,6.33333333 L0,6.33333333 Z" id="Fill-257" fill="#F0B237"></path>
                                <path d="M33.7254902,5.5417835 C33.7254902,8.60230044 26.1760129,11.0833333 16.8625036,11.0833333 C7.54971878,11.0833333 0,8.60230044 0,5.5417835 C0,2.4810329 7.54971878,0 16.8625036,0 C26.1760129,0 33.7254902,2.4810329 33.7254902,5.5417835 Z" id="Fill-258" fill="#FFCC65"></path>
                                <path d="M30.5882353,5.54178969 C30.5882353,8.16486342 24.4432106,10.2916667 16.8623829,10.2916667 C9.28227957,10.2916667 3.1372549,8.16486342 3.1372549,5.54178969 C3.1372549,2.91846991 9.28227957,0.791666667 16.8623829,0.791666667 C24.4432106,0.791666667 30.5882353,2.91846991 30.5882353,5.54178969 Z" id="Fill-259" fill="#F0B237"></path>
                            </g>
                            <g id="Group-3-Copy" transform="translate(3.137255, 9.500000)">
                                <path d="M0,6.33333333 L0,10.0078686 C0,13.2252975 7.54971878,15.8333333 16.8625036,15.8333333 C26.1760129,15.8333333 33.7254902,13.2252975 33.7254902,10.0078686 L33.7254902,6.33333333 L0,6.33333333 Z" id="Fill-257" fill="#F0B237"></path>
                                <path d="M33.7254902,5.5417835 C33.7254902,8.60230044 26.1760129,11.0833333 16.8625036,11.0833333 C7.54971878,11.0833333 0,8.60230044 0,5.5417835 C0,2.4810329 7.54971878,0 16.8625036,0 C26.1760129,0 33.7254902,2.4810329 33.7254902,5.5417835 Z" id="Fill-258" fill="#FFCC65"></path>
                                <path d="M30.5882353,5.54178969 C30.5882353,8.16486342 24.4432106,10.2916667 16.8623829,10.2916667 C9.28227957,10.2916667 3.1372549,8.16486342 3.1372549,5.54178969 C3.1372549,2.91846991 9.28227957,0.791666667 16.8623829,0.791666667 C24.4432106,0.791666667 30.5882353,2.91846991 30.5882353,5.54178969 Z" id="Fill-259" fill="#F0B237"></path>
                            </g>
                            <g id="Group-3-Copy" transform="translate(5.490196, 0.000000)">
                                <path d="M0,6.33333333 L0,10.0078686 C0,13.2252975 7.54971878,15.8333333 16.8625036,15.8333333 C26.1760129,15.8333333 33.7254902,13.2252975 33.7254902,10.0078686 L33.7254902,6.33333333 L0,6.33333333 Z" id="Fill-257" fill="#F0B237"></path>
                                <path d="M33.7254902,5.5417835 C33.7254902,8.60230044 26.1760129,11.0833333 16.8625036,11.0833333 C7.54971878,11.0833333 0,8.60230044 0,5.5417835 C0,2.4810329 7.54971878,0 16.8625036,0 C26.1760129,0 33.7254902,2.4810329 33.7254902,5.5417835 Z" id="Fill-258" fill="#FFCC65"></path>
                                <path d="M30.5882353,5.54178969 C30.5882353,8.16486342 24.4432106,10.2916667 16.8623829,10.2916667 C9.28227957,10.2916667 3.1372549,8.16486342 3.1372549,5.54178969 C3.1372549,2.91846991 9.28227957,0.791666667 16.8623829,0.791666667 C24.4432106,0.791666667 30.5882353,2.91846991 30.5882353,5.54178969 Z" id="Fill-259" fill="#F0B237"></path>
                            </g>
                        </g>
                        <g id="Group" transform="translate(35.000000, 0.000000)">
                            <g id="Group-3-Copy" transform="translate(3.234043, 17.809524)">
                                <path d="M0,6.47619048 L0,10.23361 C0,13.5236125 7.78263564,16.1904762 17.3827298,16.1904762 C26.9835707,16.1904762 34.7659574,13.5236125 34.7659574,10.23361 L34.7659574,6.47619048 L0,6.47619048 Z" id="Fill-257" fill="#F0B237"></path>
                                <path d="M34.7659574,5.66678613 C34.7659574,8.79633729 26.9835707,11.3333333 17.3827298,11.3333333 C7.78263564,11.3333333 0,8.79633729 0,5.66678613 C0,2.53699604 7.78263564,0 17.3827298,0 C26.9835707,0 34.7659574,2.53699604 34.7659574,5.66678613 Z" id="Fill-258" fill="#FFCC65"></path>
                                <path d="M31.5319149,5.66679246 C31.5319149,8.34903328 25.1973097,10.5238095 17.3826053,10.5238095 C9.56864777,10.5238095 3.23404255,8.34903328 3.23404255,5.66679246 C3.23404255,2.98430006 9.56864777,0.80952381 17.3826053,0.80952381 C25.1973097,0.80952381 31.5319149,2.98430006 31.5319149,5.66679246 Z" id="Fill-259" fill="#F0B237"></path>
                            </g>
                            <g id="Group-3-Copy" transform="translate(0.000000, 9.714286)">
                                <path d="M0,6.47619048 L0,10.23361 C0,13.5236125 7.78263564,16.1904762 17.3827298,16.1904762 C26.9835707,16.1904762 34.7659574,13.5236125 34.7659574,10.23361 L34.7659574,6.47619048 L0,6.47619048 Z" id="Fill-257" fill="#F0B237"></path>
                                <path d="M34.7659574,5.66678613 C34.7659574,8.79633729 26.9835707,11.3333333 17.3827298,11.3333333 C7.78263564,11.3333333 0,8.79633729 0,5.66678613 C0,2.53699604 7.78263564,0 17.3827298,0 C26.9835707,0 34.7659574,2.53699604 34.7659574,5.66678613 Z" id="Fill-258" fill="#FFCC65"></path>
                                <path d="M31.5319149,5.66679246 C31.5319149,8.34903328 25.1973097,10.5238095 17.3826053,10.5238095 C9.56864777,10.5238095 3.23404255,8.34903328 3.23404255,5.66679246 C3.23404255,2.98430006 9.56864777,0.80952381 17.3826053,0.80952381 C25.1973097,0.80952381 31.5319149,2.98430006 31.5319149,5.66679246 Z" id="Fill-259" fill="#F0B237"></path>
                            </g>
                            <g id="Group-3-Copy" transform="translate(2.425532, 0.000000)">
                                <path d="M0,6.47619048 L0,10.23361 C0,13.5236125 7.78263564,16.1904762 17.3827298,16.1904762 C26.9835707,16.1904762 34.7659574,13.5236125 34.7659574,10.23361 L34.7659574,6.47619048 L0,6.47619048 Z" id="Fill-257" fill="#F0B237"></path>
                                <path d="M34.7659574,5.66678613 C34.7659574,8.79633729 26.9835707,11.3333333 17.3827298,11.3333333 C7.78263564,11.3333333 0,8.79633729 0,5.66678613 C0,2.53699604 7.78263564,0 17.3827298,0 C26.9835707,0 34.7659574,2.53699604 34.7659574,5.66678613 Z" id="Fill-258" fill="#FFCC65"></path>
                                <path d="M31.5319149,5.66679246 C31.5319149,8.34903328 25.1973097,10.5238095 17.3826053,10.5238095 C9.56864777,10.5238095 3.23404255,8.34903328 3.23404255,5.66679246 C3.23404255,2.98430006 9.56864777,0.80952381 17.3826053,0.80952381 C25.1973097,0.80952381 31.5319149,2.98430006 31.5319149,5.66679246 Z" id="Fill-259" fill="#F0B237"></path>
                            </g>
                        </g>
                        <g id="Group-2" transform="translate(0.000000, 39.000000)">
                            <g id="Group-3-Copy" transform="translate(0.816327, 41.888889)">
                                <path d="M0,6.44444444 L0,10.1834452 C0,13.4573203 7.85787057,16.1111111 17.5507691,16.1111111 C27.2444216,16.1111111 35.1020408,13.4573203 35.1020408,10.1834452 L35.1020408,6.44444444 L0,6.44444444 Z" id="Fill-257" fill="#F0B237"></path>
                                <path d="M35.1020408,5.63900777 C35.1020408,8.75321799 27.2444216,11.2777778 17.5507691,11.2777778 C7.85787057,11.2777778 0,8.75321799 0,5.63900777 C0,2.52455979 7.85787057,0 17.5507691,0 C27.2444216,0 35.1020408,2.52455979 35.1020408,5.63900777 Z" id="Fill-258" fill="#FFCC65"></path>
                                <path d="M31.8367347,5.63901407 C31.8367347,8.30810664 25.4408927,10.4722222 17.5506434,10.4722222 C9.66114812,10.4722222 3.26530612,8.30810664 3.26530612,5.63901407 C3.26530612,2.96967114 9.66114812,0.805555556 17.5506434,0.805555556 C25.4408927,0.805555556 31.8367347,2.96967114 31.8367347,5.63901407 Z" id="Fill-259" fill="#F0B237"></path>
                            </g>
                            <g id="Group-3-Copy" transform="translate(4.081633, 33.833333)">
                                <path d="M0,6.44444444 L0,10.1834452 C0,13.4573203 7.85787057,16.1111111 17.5507691,16.1111111 C27.2444216,16.1111111 35.1020408,13.4573203 35.1020408,10.1834452 L35.1020408,6.44444444 L0,6.44444444 Z" id="Fill-257" fill="#F0B237"></path>
                                <path d="M35.1020408,5.63900777 C35.1020408,8.75321799 27.2444216,11.2777778 17.5507691,11.2777778 C7.85787057,11.2777778 0,8.75321799 0,5.63900777 C0,2.52455979 7.85787057,0 17.5507691,0 C27.2444216,0 35.1020408,2.52455979 35.1020408,5.63900777 Z" id="Fill-258" fill="#FFCC65"></path>
                                <path d="M31.8367347,5.63901407 C31.8367347,8.30810664 25.4408927,10.4722222 17.5506434,10.4722222 C9.66114812,10.4722222 3.26530612,8.30810664 3.26530612,5.63901407 C3.26530612,2.96967114 9.66114812,0.805555556 17.5506434,0.805555556 C25.4408927,0.805555556 31.8367347,2.96967114 31.8367347,5.63901407 Z" id="Fill-259" fill="#F0B237"></path>
                            </g>
                            <g id="Group-3-Copy" transform="translate(0.000000, 24.972222)">
                                <path d="M0,6.44444444 L0,10.1834452 C0,13.4573203 7.85787057,16.1111111 17.5507691,16.1111111 C27.2444216,16.1111111 35.1020408,13.4573203 35.1020408,10.1834452 L35.1020408,6.44444444 L0,6.44444444 Z" id="Fill-257" fill="#F0B237"></path>
                                <path d="M35.1020408,5.63900777 C35.1020408,8.75321799 27.2444216,11.2777778 17.5507691,11.2777778 C7.85787057,11.2777778 0,8.75321799 0,5.63900777 C0,2.52455979 7.85787057,0 17.5507691,0 C27.2444216,0 35.1020408,2.52455979 35.1020408,5.63900777 Z" id="Fill-258" fill="#FFCC65"></path>
                                <path d="M31.8367347,5.63901407 C31.8367347,8.30810664 25.4408927,10.4722222 17.5506434,10.4722222 C9.66114812,10.4722222 3.26530612,8.30810664 3.26530612,5.63901407 C3.26530612,2.96967114 9.66114812,0.805555556 17.5506434,0.805555556 C25.4408927,0.805555556 31.8367347,2.96967114 31.8367347,5.63901407 Z" id="Fill-259" fill="#F0B237"></path>
                            </g>
                            <g id="Group-3-Copy" transform="translate(4.897959, 17.722222)">
                                <path d="M0,6.44444444 L0,10.1834452 C0,13.4573203 7.85787057,16.1111111 17.5507691,16.1111111 C27.2444216,16.1111111 35.1020408,13.4573203 35.1020408,10.1834452 L35.1020408,6.44444444 L0,6.44444444 Z" id="Fill-257" fill="#F0B237"></path>
                                <path d="M35.1020408,5.63900777 C35.1020408,8.75321799 27.2444216,11.2777778 17.5507691,11.2777778 C7.85787057,11.2777778 0,8.75321799 0,5.63900777 C0,2.52455979 7.85787057,0 17.5507691,0 C27.2444216,0 35.1020408,2.52455979 35.1020408,5.63900777 Z" id="Fill-258" fill="#FFCC65"></path>
                                <path d="M31.8367347,5.63901407 C31.8367347,8.30810664 25.4408927,10.4722222 17.5506434,10.4722222 C9.66114812,10.4722222 3.26530612,8.30810664 3.26530612,5.63901407 C3.26530612,2.96967114 9.66114812,0.805555556 17.5506434,0.805555556 C25.4408927,0.805555556 31.8367347,2.96967114 31.8367347,5.63901407 Z" id="Fill-259" fill="#F0B237"></path>
                            </g>
                            <g id="Group-3-Copy" transform="translate(1.632653, 9.666667)">
                                <path d="M0,6.44444444 L0,10.1834452 C0,13.4573203 7.85787057,16.1111111 17.5507691,16.1111111 C27.2444216,16.1111111 35.1020408,13.4573203 35.1020408,10.1834452 L35.1020408,6.44444444 L0,6.44444444 Z" id="Fill-257" fill="#F0B237"></path>
                                <path d="M35.1020408,5.63900777 C35.1020408,8.75321799 27.2444216,11.2777778 17.5507691,11.2777778 C7.85787057,11.2777778 0,8.75321799 0,5.63900777 C0,2.52455979 7.85787057,0 17.5507691,0 C27.2444216,0 35.1020408,2.52455979 35.1020408,5.63900777 Z" id="Fill-258" fill="#FFCC65"></path>
                                <path d="M31.8367347,5.63901407 C31.8367347,8.30810664 25.4408927,10.4722222 17.5506434,10.4722222 C9.66114812,10.4722222 3.26530612,8.30810664 3.26530612,5.63901407 C3.26530612,2.96967114 9.66114812,0.805555556 17.5506434,0.805555556 C25.4408927,0.805555556 31.8367347,2.96967114 31.8367347,5.63901407 Z" id="Fill-259" fill="#F0B237"></path>
                            </g>
                            <g id="Group-3-Copy" transform="translate(4.081633, 0.000000)">
                                <path d="M0,6.44444444 L0,10.1834452 C0,13.4573203 7.85787057,16.1111111 17.5507691,16.1111111 C27.2444216,16.1111111 35.1020408,13.4573203 35.1020408,10.1834452 L35.1020408,6.44444444 L0,6.44444444 Z" id="Fill-257" fill="#F0B237"></path>
                                <path d="M35.1020408,5.63900777 C35.1020408,8.75321799 27.2444216,11.2777778 17.5507691,11.2777778 C7.85787057,11.2777778 0,8.75321799 0,5.63900777 C0,2.52455979 7.85787057,0 17.5507691,0 C27.2444216,0 35.1020408,2.52455979 35.1020408,5.63900777 Z" id="Fill-258" fill="#FFCC65"></path>
                                <path d="M31.8367347,5.63901407 C31.8367347,8.30810664 25.4408927,10.4722222 17.5506434,10.4722222 C9.66114812,10.4722222 3.26530612,8.30810664 3.26530612,5.63901407 C3.26530612,2.96967114 9.66114812,0.805555556 17.5506434,0.805555556 C25.4408927,0.805555556 31.8367347,2.96967114 31.8367347,5.63901407 Z" id="Fill-259" fill="#F0B237"></path>
                            </g>
                        </g>
                        <g id="Group" transform="translate(42.000000, 39.000000)">
                            <g id="Group-3-Copy" transform="translate(3.294118, 42.611111)">
                                <path d="M0,6.55555556 L0,10.3590219 C0,13.6893431 7.92720472,16.3888889 17.7056288,16.3888889 C27.4848135,16.3888889 35.4117647,13.6893431 35.4117647,10.3590219 L35.4117647,6.55555556 L0,6.55555556 Z" id="Fill-257" fill="#F0B237"></path>
                                <path d="M35.4117647,5.73623204 C35.4117647,8.90413554 27.4848135,11.4722222 17.7056288,11.4722222 C7.92720472,11.4722222 0,8.90413554 0,5.73623204 C0,2.56808668 7.92720472,0 17.7056288,0 C27.4848135,0 35.4117647,2.56808668 35.4117647,5.73623204 Z" id="Fill-258" fill="#FFCC65"></path>
                                <path d="M32.1176471,5.73623845 C32.1176471,8.45134986 25.6653712,10.6527778 17.705502,10.6527778 C9.74639355,10.6527778 3.29411765,8.45134986 3.29411765,5.73623845 C3.29411765,3.02087236 9.74639355,0.819444444 17.705502,0.819444444 C25.6653712,0.819444444 32.1176471,3.02087236 32.1176471,5.73623845 Z" id="Fill-259" fill="#F0B237"></path>
                            </g>
                            <g id="Group-3-Copy" transform="translate(0.000000, 34.416667)">
                                <path d="M0,6.55555556 L0,10.3590219 C0,13.6893431 7.92720472,16.3888889 17.7056288,16.3888889 C27.4848135,16.3888889 35.4117647,13.6893431 35.4117647,10.3590219 L35.4117647,6.55555556 L0,6.55555556 Z" id="Fill-257" fill="#F0B237"></path>
                                <path d="M35.4117647,5.73623204 C35.4117647,8.90413554 27.4848135,11.4722222 17.7056288,11.4722222 C7.92720472,11.4722222 0,8.90413554 0,5.73623204 C0,2.56808668 7.92720472,0 17.7056288,0 C27.4848135,0 35.4117647,2.56808668 35.4117647,5.73623204 Z" id="Fill-258" fill="#FFCC65"></path>
                                <path d="M32.1176471,5.73623845 C32.1176471,8.45134986 25.6653712,10.6527778 17.705502,10.6527778 C9.74639355,10.6527778 3.29411765,8.45134986 3.29411765,5.73623845 C3.29411765,3.02087236 9.74639355,0.819444444 17.705502,0.819444444 C25.6653712,0.819444444 32.1176471,3.02087236 32.1176471,5.73623845 Z" id="Fill-259" fill="#F0B237"></path>
                            </g>
                            <g id="Group-3-Copy" transform="translate(2.470588, 24.583333)">
                                <path d="M0,6.55555556 L0,10.3590219 C0,13.6893431 7.92720472,16.3888889 17.7056288,16.3888889 C27.4848135,16.3888889 35.4117647,13.6893431 35.4117647,10.3590219 L35.4117647,6.55555556 L0,6.55555556 Z" id="Fill-257" fill="#F0B237"></path>
                                <path d="M35.4117647,5.73623204 C35.4117647,8.90413554 27.4848135,11.4722222 17.7056288,11.4722222 C7.92720472,11.4722222 0,8.90413554 0,5.73623204 C0,2.56808668 7.92720472,0 17.7056288,0 C27.4848135,0 35.4117647,2.56808668 35.4117647,5.73623204 Z" id="Fill-258" fill="#FFCC65"></path>
                                <path d="M32.1176471,5.73623845 C32.1176471,8.45134986 25.6653712,10.6527778 17.705502,10.6527778 C9.74639355,10.6527778 3.29411765,8.45134986 3.29411765,5.73623845 C3.29411765,3.02087236 9.74639355,0.819444444 17.705502,0.819444444 C25.6653712,0.819444444 32.1176471,3.02087236 32.1176471,5.73623845 Z" id="Fill-259" fill="#F0B237"></path>
                            </g>
                            <g id="Group-3-Copy" transform="translate(6.588235, 18.027778)">
                                <path d="M0,6.55555556 L0,10.3590219 C0,13.6893431 7.92720472,16.3888889 17.7056288,16.3888889 C27.4848135,16.3888889 35.4117647,13.6893431 35.4117647,10.3590219 L35.4117647,6.55555556 L0,6.55555556 Z" id="Fill-257" fill="#F0B237"></path>
                                <path d="M35.4117647,5.73623204 C35.4117647,8.90413554 27.4848135,11.4722222 17.7056288,11.4722222 C7.92720472,11.4722222 0,8.90413554 0,5.73623204 C0,2.56808668 7.92720472,0 17.7056288,0 C27.4848135,0 35.4117647,2.56808668 35.4117647,5.73623204 Z" id="Fill-258" fill="#FFCC65"></path>
                                <path d="M32.1176471,5.73623845 C32.1176471,8.45134986 25.6653712,10.6527778 17.705502,10.6527778 C9.74639355,10.6527778 3.29411765,8.45134986 3.29411765,5.73623845 C3.29411765,3.02087236 9.74639355,0.819444444 17.705502,0.819444444 C25.6653712,0.819444444 32.1176471,3.02087236 32.1176471,5.73623845 Z" id="Fill-259" fill="#F0B237"></path>
                            </g>
                            <g id="Group-3-Copy" transform="translate(3.294118, 9.833333)">
                                <path d="M0,6.55555556 L0,10.3590219 C0,13.6893431 7.92720472,16.3888889 17.7056288,16.3888889 C27.4848135,16.3888889 35.4117647,13.6893431 35.4117647,10.3590219 L35.4117647,6.55555556 L0,6.55555556 Z" id="Fill-257" fill="#F0B237"></path>
                                <path d="M35.4117647,5.73623204 C35.4117647,8.90413554 27.4848135,11.4722222 17.7056288,11.4722222 C7.92720472,11.4722222 0,8.90413554 0,5.73623204 C0,2.56808668 7.92720472,0 17.7056288,0 C27.4848135,0 35.4117647,2.56808668 35.4117647,5.73623204 Z" id="Fill-258" fill="#FFCC65"></path>
                                <path d="M32.1176471,5.73623845 C32.1176471,8.45134986 25.6653712,10.6527778 17.705502,10.6527778 C9.74639355,10.6527778 3.29411765,8.45134986 3.29411765,5.73623845 C3.29411765,3.02087236 9.74639355,0.819444444 17.705502,0.819444444 C25.6653712,0.819444444 32.1176471,3.02087236 32.1176471,5.73623845 Z" id="Fill-259" fill="#F0B237"></path>
                            </g>
                            <g id="Group-3-Copy" transform="translate(5.764706, 0.000000)">
                                <path d="M0,6.55555556 L0,10.3590219 C0,13.6893431 7.92720472,16.3888889 17.7056288,16.3888889 C27.4848135,16.3888889 35.4117647,13.6893431 35.4117647,10.3590219 L35.4117647,6.55555556 L0,6.55555556 Z" id="Fill-257" fill="#F0B237"></path>
                                <path d="M35.4117647,5.73623204 C35.4117647,8.90413554 27.4848135,11.4722222 17.7056288,11.4722222 C7.92720472,11.4722222 0,8.90413554 0,5.73623204 C0,2.56808668 7.92720472,0 17.7056288,0 C27.4848135,0 35.4117647,2.56808668 35.4117647,5.73623204 Z" id="Fill-258" fill="#FFCC65"></path>
                                <path d="M32.1176471,5.73623845 C32.1176471,8.45134986 25.6653712,10.6527778 17.705502,10.6527778 C9.74639355,10.6527778 3.29411765,8.45134986 3.29411765,5.73623845 C3.29411765,3.02087236 9.74639355,0.819444444 17.705502,0.819444444 C25.6653712,0.819444444 32.1176471,3.02087236 32.1176471,5.73623845 Z" id="Fill-259" fill="#F0B237"></path>
                            </g>
                        </g>
                        <g id="Group-4" transform="translate(23.000000, 64.000000)">
                            <g id="Group-3-Copy" transform="translate(5.020408, 32.389831)">
                                <path d="M0,6.6440678 L0,10.498888 C0,13.8741748 8.05431734,16.6101695 17.9895383,16.6101695 C27.9255321,16.6101695 35.9795918,13.8741748 35.9795918,10.498888 L35.9795918,6.6440678 L0,6.6440678 Z" id="Fill-257" fill="#F0B237"></path>
                                <path d="M35.9795918,5.81368189 C35.9795918,9.024358 27.9255321,11.6271186 17.9895383,11.6271186 C8.05431734,11.6271186 0,9.024358 0,5.81368189 C0,2.60276065 8.05431734,0 17.9895383,0 C27.9255321,0 35.9795918,2.60276065 35.9795918,5.81368189 Z" id="Fill-258" fill="#FFCC65"></path>
                                <path d="M32.6326531,5.81368838 C32.6326531,8.56545886 26.076915,10.7966102 17.9894095,10.7966102 C9.90267682,10.7966102 3.34693878,8.56545886 3.34693878,5.81368838 C3.34693878,3.06165978 9.90267682,0.830508475 17.9894095,0.830508475 C26.076915,0.830508475 32.6326531,3.06165978 32.6326531,5.81368838 Z" id="Fill-259" fill="#F0B237"></path>
                            </g>
                            <g id="Group-3-Copy" transform="translate(1.673469, 24.915254)">
                                <path d="M0,6.6440678 L0,10.498888 C0,13.8741748 8.05431734,16.6101695 17.9895383,16.6101695 C27.9255321,16.6101695 35.9795918,13.8741748 35.9795918,10.498888 L35.9795918,6.6440678 L0,6.6440678 Z" id="Fill-257" fill="#F0B237"></path>
                                <path d="M35.9795918,5.81368189 C35.9795918,9.024358 27.9255321,11.6271186 17.9895383,11.6271186 C8.05431734,11.6271186 0,9.024358 0,5.81368189 C0,2.60276065 8.05431734,0 17.9895383,0 C27.9255321,0 35.9795918,2.60276065 35.9795918,5.81368189 Z" id="Fill-258" fill="#FFCC65"></path>
                                <path d="M32.6326531,5.81368838 C32.6326531,8.56545886 26.076915,10.7966102 17.9894095,10.7966102 C9.90267682,10.7966102 3.34693878,8.56545886 3.34693878,5.81368838 C3.34693878,3.06165978 9.90267682,0.830508475 17.9894095,0.830508475 C26.076915,0.830508475 32.6326531,3.06165978 32.6326531,5.81368838 Z" id="Fill-259" fill="#F0B237"></path>
                            </g>
                            <g id="Group-3-Copy" transform="translate(4.183673, 15.779661)">
                                <path d="M0,6.6440678 L0,10.498888 C0,13.8741748 8.05431734,16.6101695 17.9895383,16.6101695 C27.9255321,16.6101695 35.9795918,13.8741748 35.9795918,10.498888 L35.9795918,6.6440678 L0,6.6440678 Z" id="Fill-257" fill="#F0B237"></path>
                                <path d="M35.9795918,5.81368189 C35.9795918,9.024358 27.9255321,11.6271186 17.9895383,11.6271186 C8.05431734,11.6271186 0,9.024358 0,5.81368189 C0,2.60276065 8.05431734,0 17.9895383,0 C27.9255321,0 35.9795918,2.60276065 35.9795918,5.81368189 Z" id="Fill-258" fill="#FFCC65"></path>
                                <path d="M32.6326531,5.81368838 C32.6326531,8.56545886 26.076915,10.7966102 17.9894095,10.7966102 C9.90267682,10.7966102 3.34693878,8.56545886 3.34693878,5.81368838 C3.34693878,3.06165978 9.90267682,0.830508475 17.9894095,0.830508475 C26.076915,0.830508475 32.6326531,3.06165978 32.6326531,5.81368838 Z" id="Fill-259" fill="#F0B237"></path>
                            </g>
                            <g id="Group-3-Copy" transform="translate(0.000000, 8.305085)">
                                <path d="M0,6.6440678 L0,10.498888 C0,13.8741748 8.05431734,16.6101695 17.9895383,16.6101695 C27.9255321,16.6101695 35.9795918,13.8741748 35.9795918,10.498888 L35.9795918,6.6440678 L0,6.6440678 Z" id="Fill-257" fill="#F0B237"></path>
                                <path d="M35.9795918,5.81368189 C35.9795918,9.024358 27.9255321,11.6271186 17.9895383,11.6271186 C8.05431734,11.6271186 0,9.024358 0,5.81368189 C0,2.60276065 8.05431734,0 17.9895383,0 C27.9255321,0 35.9795918,2.60276065 35.9795918,5.81368189 Z" id="Fill-258" fill="#FFCC65"></path>
                                <path d="M32.6326531,5.81368838 C32.6326531,8.56545886 26.076915,10.7966102 17.9894095,10.7966102 C9.90267682,10.7966102 3.34693878,8.56545886 3.34693878,5.81368838 C3.34693878,3.06165978 9.90267682,0.830508475 17.9894095,0.830508475 C26.076915,0.830508475 32.6326531,3.06165978 32.6326531,5.81368838 Z" id="Fill-259" fill="#F0B237"></path>
                            </g>
                            <g id="Group-3-Copy" transform="translate(2.510204, 0.000000)">
                                <path d="M0,6.6440678 L0,10.498888 C0,13.8741748 8.05431734,16.6101695 17.9895383,16.6101695 C27.9255321,16.6101695 35.9795918,13.8741748 35.9795918,10.498888 L35.9795918,6.6440678 L0,6.6440678 Z" id="Fill-257" fill="#F0B237"></path>
                                <path d="M35.9795918,5.81368189 C35.9795918,9.024358 27.9255321,11.6271186 17.9895383,11.6271186 C8.05431734,11.6271186 0,9.024358 0,5.81368189 C0,2.60276065 8.05431734,0 17.9895383,0 C27.9255321,0 35.9795918,2.60276065 35.9795918,5.81368189 Z" id="Fill-258" fill="#FFCC65"></path>
                                <path d="M32.6326531,5.81368838 C32.6326531,8.56545886 26.076915,10.7966102 17.9894095,10.7966102 C9.90267682,10.7966102 3.34693878,8.56545886 3.34693878,5.81368838 C3.34693878,3.06165978 9.90267682,0.830508475 17.9894095,0.830508475 C26.076915,0.830508475 32.6326531,3.06165978 32.6326531,5.81368838 Z" id="Fill-259" fill="#F0B237"></path>
                            </g>
                        </g>
                    </g>
                    <g id="Group-13" opacity="0.698493304" transform="translate(57.000000, 239.000000)">
                        <g id="Group-Copy" transform="translate(43.000000, 8.000000)">
                            <g id="Group-3-Copy" transform="translate(3.137255, 41.166667)">
                                <path d="M0,6.33333333 L0,10.0078686 C0,13.2252975 7.54971878,15.8333333 16.8625036,15.8333333 C26.1760129,15.8333333 33.7254902,13.2252975 33.7254902,10.0078686 L33.7254902,6.33333333 L0,6.33333333 Z" id="Fill-257" fill="#F0B237"></path>
                                <path d="M33.7254902,5.5417835 C33.7254902,8.60230044 26.1760129,11.0833333 16.8625036,11.0833333 C7.54971878,11.0833333 0,8.60230044 0,5.5417835 C0,2.4810329 7.54971878,0 16.8625036,0 C26.1760129,0 33.7254902,2.4810329 33.7254902,5.5417835 Z" id="Fill-258" fill="#FFCC65"></path>
                                <path d="M30.5882353,5.54178969 C30.5882353,8.16486342 24.4432106,10.2916667 16.8623829,10.2916667 C9.28227957,10.2916667 3.1372549,8.16486342 3.1372549,5.54178969 C3.1372549,2.91846991 9.28227957,0.791666667 16.8623829,0.791666667 C24.4432106,0.791666667 30.5882353,2.91846991 30.5882353,5.54178969 Z" id="Fill-259" fill="#F0B237"></path>
                            </g>
                            <g id="Group-3-Copy" transform="translate(0.000000, 33.250000)">
                                <path d="M0,6.33333333 L0,10.0078686 C0,13.2252975 7.54971878,15.8333333 16.8625036,15.8333333 C26.1760129,15.8333333 33.7254902,13.2252975 33.7254902,10.0078686 L33.7254902,6.33333333 L0,6.33333333 Z" id="Fill-257" fill="#F0B237"></path>
                                <path d="M33.7254902,5.5417835 C33.7254902,8.60230044 26.1760129,11.0833333 16.8625036,11.0833333 C7.54971878,11.0833333 0,8.60230044 0,5.5417835 C0,2.4810329 7.54971878,0 16.8625036,0 C26.1760129,0 33.7254902,2.4810329 33.7254902,5.5417835 Z" id="Fill-258" fill="#FFCC65"></path>
                                <path d="M30.5882353,5.54178969 C30.5882353,8.16486342 24.4432106,10.2916667 16.8623829,10.2916667 C9.28227957,10.2916667 3.1372549,8.16486342 3.1372549,5.54178969 C3.1372549,2.91846991 9.28227957,0.791666667 16.8623829,0.791666667 C24.4432106,0.791666667 30.5882353,2.91846991 30.5882353,5.54178969 Z" id="Fill-259" fill="#F0B237"></path>
                            </g>
                            <g id="Group-3-Copy" transform="translate(2.352941, 23.750000)">
                                <path d="M0,6.33333333 L0,10.0078686 C0,13.2252975 7.54971878,15.8333333 16.8625036,15.8333333 C26.1760129,15.8333333 33.7254902,13.2252975 33.7254902,10.0078686 L33.7254902,6.33333333 L0,6.33333333 Z" id="Fill-257" fill="#F0B237"></path>
                                <path d="M33.7254902,5.5417835 C33.7254902,8.60230044 26.1760129,11.0833333 16.8625036,11.0833333 C7.54971878,11.0833333 0,8.60230044 0,5.5417835 C0,2.4810329 7.54971878,0 16.8625036,0 C26.1760129,0 33.7254902,2.4810329 33.7254902,5.5417835 Z" id="Fill-258" fill="#FFCC65"></path>
                                <path d="M30.5882353,5.54178969 C30.5882353,8.16486342 24.4432106,10.2916667 16.8623829,10.2916667 C9.28227957,10.2916667 3.1372549,8.16486342 3.1372549,5.54178969 C3.1372549,2.91846991 9.28227957,0.791666667 16.8623829,0.791666667 C24.4432106,0.791666667 30.5882353,2.91846991 30.5882353,5.54178969 Z" id="Fill-259" fill="#F0B237"></path>
                            </g>
                            <g id="Group-3-Copy" transform="translate(6.274510, 17.416667)">
                                <path d="M0,6.33333333 L0,10.0078686 C0,13.2252975 7.54971878,15.8333333 16.8625036,15.8333333 C26.1760129,15.8333333 33.7254902,13.2252975 33.7254902,10.0078686 L33.7254902,6.33333333 L0,6.33333333 Z" id="Fill-257" fill="#F0B237"></path>
                                <path d="M33.7254902,5.5417835 C33.7254902,8.60230044 26.1760129,11.0833333 16.8625036,11.0833333 C7.54971878,11.0833333 0,8.60230044 0,5.5417835 C0,2.4810329 7.54971878,0 16.8625036,0 C26.1760129,0 33.7254902,2.4810329 33.7254902,5.5417835 Z" id="Fill-258" fill="#FFCC65"></path>
                                <path d="M30.5882353,5.54178969 C30.5882353,8.16486342 24.4432106,10.2916667 16.8623829,10.2916667 C9.28227957,10.2916667 3.1372549,8.16486342 3.1372549,5.54178969 C3.1372549,2.91846991 9.28227957,0.791666667 16.8623829,0.791666667 C24.4432106,0.791666667 30.5882353,2.91846991 30.5882353,5.54178969 Z" id="Fill-259" fill="#F0B237"></path>
                            </g>
                            <g id="Group-3-Copy" transform="translate(3.137255, 9.500000)">
                                <path d="M0,6.33333333 L0,10.0078686 C0,13.2252975 7.54971878,15.8333333 16.8625036,15.8333333 C26.1760129,15.8333333 33.7254902,13.2252975 33.7254902,10.0078686 L33.7254902,6.33333333 L0,6.33333333 Z" id="Fill-257" fill="#F0B237"></path>
                                <path d="M33.7254902,5.5417835 C33.7254902,8.60230044 26.1760129,11.0833333 16.8625036,11.0833333 C7.54971878,11.0833333 0,8.60230044 0,5.5417835 C0,2.4810329 7.54971878,0 16.8625036,0 C26.1760129,0 33.7254902,2.4810329 33.7254902,5.5417835 Z" id="Fill-258" fill="#FFCC65"></path>
                                <path d="M30.5882353,5.54178969 C30.5882353,8.16486342 24.4432106,10.2916667 16.8623829,10.2916667 C9.28227957,10.2916667 3.1372549,8.16486342 3.1372549,5.54178969 C3.1372549,2.91846991 9.28227957,0.791666667 16.8623829,0.791666667 C24.4432106,0.791666667 30.5882353,2.91846991 30.5882353,5.54178969 Z" id="Fill-259" fill="#F0B237"></path>
                            </g>
                            <g id="Group-3-Copy" transform="translate(5.490196, 0.000000)">
                                <path d="M0,6.33333333 L0,10.0078686 C0,13.2252975 7.54971878,15.8333333 16.8625036,15.8333333 C26.1760129,15.8333333 33.7254902,13.2252975 33.7254902,10.0078686 L33.7254902,6.33333333 L0,6.33333333 Z" id="Fill-257" fill="#F0B237"></path>
                                <path d="M33.7254902,5.5417835 C33.7254902,8.60230044 26.1760129,11.0833333 16.8625036,11.0833333 C7.54971878,11.0833333 0,8.60230044 0,5.5417835 C0,2.4810329 7.54971878,0 16.8625036,0 C26.1760129,0 33.7254902,2.4810329 33.7254902,5.5417835 Z" id="Fill-258" fill="#FFCC65"></path>
                                <path d="M30.5882353,5.54178969 C30.5882353,8.16486342 24.4432106,10.2916667 16.8623829,10.2916667 C9.28227957,10.2916667 3.1372549,8.16486342 3.1372549,5.54178969 C3.1372549,2.91846991 9.28227957,0.791666667 16.8623829,0.791666667 C24.4432106,0.791666667 30.5882353,2.91846991 30.5882353,5.54178969 Z" id="Fill-259" fill="#F0B237"></path>
                            </g>
                        </g>
                        <g id="Group-6">
                            <g id="Group-3-Copy" transform="translate(3.137255, 41.166667)">
                                <path d="M0,6.33333333 L0,10.0078686 C0,13.2252975 7.54971878,15.8333333 16.8625036,15.8333333 C26.1760129,15.8333333 33.7254902,13.2252975 33.7254902,10.0078686 L33.7254902,6.33333333 L0,6.33333333 Z" id="Fill-257" fill="#F0B237"></path>
                                <path d="M33.7254902,5.5417835 C33.7254902,8.60230044 26.1760129,11.0833333 16.8625036,11.0833333 C7.54971878,11.0833333 0,8.60230044 0,5.5417835 C0,2.4810329 7.54971878,0 16.8625036,0 C26.1760129,0 33.7254902,2.4810329 33.7254902,5.5417835 Z" id="Fill-258" fill="#FFCC65"></path>
                                <path d="M30.5882353,5.54178969 C30.5882353,8.16486342 24.4432106,10.2916667 16.8623829,10.2916667 C9.28227957,10.2916667 3.1372549,8.16486342 3.1372549,5.54178969 C3.1372549,2.91846991 9.28227957,0.791666667 16.8623829,0.791666667 C24.4432106,0.791666667 30.5882353,2.91846991 30.5882353,5.54178969 Z" id="Fill-259" fill="#F0B237"></path>
                            </g>
                            <g id="Group-3-Copy" transform="translate(0.000000, 33.250000)">
                                <path d="M0,6.33333333 L0,10.0078686 C0,13.2252975 7.54971878,15.8333333 16.8625036,15.8333333 C26.1760129,15.8333333 33.7254902,13.2252975 33.7254902,10.0078686 L33.7254902,6.33333333 L0,6.33333333 Z" id="Fill-257" fill="#F0B237"></path>
                                <path d="M33.7254902,5.5417835 C33.7254902,8.60230044 26.1760129,11.0833333 16.8625036,11.0833333 C7.54971878,11.0833333 0,8.60230044 0,5.5417835 C0,2.4810329 7.54971878,0 16.8625036,0 C26.1760129,0 33.7254902,2.4810329 33.7254902,5.5417835 Z" id="Fill-258" fill="#FFCC65"></path>
                                <path d="M30.5882353,5.54178969 C30.5882353,8.16486342 24.4432106,10.2916667 16.8623829,10.2916667 C9.28227957,10.2916667 3.1372549,8.16486342 3.1372549,5.54178969 C3.1372549,2.91846991 9.28227957,0.791666667 16.8623829,0.791666667 C24.4432106,0.791666667 30.5882353,2.91846991 30.5882353,5.54178969 Z" id="Fill-259" fill="#F0B237"></path>
                            </g>
                            <g id="Group-3-Copy" transform="translate(2.352941, 23.750000)">
                                <path d="M0,6.33333333 L0,10.0078686 C0,13.2252975 7.54971878,15.8333333 16.8625036,15.8333333 C26.1760129,15.8333333 33.7254902,13.2252975 33.7254902,10.0078686 L33.7254902,6.33333333 L0,6.33333333 Z" id="Fill-257" fill="#F0B237"></path>
                                <path d="M33.7254902,5.5417835 C33.7254902,8.60230044 26.1760129,11.0833333 16.8625036,11.0833333 C7.54971878,11.0833333 0,8.60230044 0,5.5417835 C0,2.4810329 7.54971878,0 16.8625036,0 C26.1760129,0 33.7254902,2.4810329 33.7254902,5.5417835 Z" id="Fill-258" fill="#FFCC65"></path>
                                <path d="M30.5882353,5.54178969 C30.5882353,8.16486342 24.4432106,10.2916667 16.8623829,10.2916667 C9.28227957,10.2916667 3.1372549,8.16486342 3.1372549,5.54178969 C3.1372549,2.91846991 9.28227957,0.791666667 16.8623829,0.791666667 C24.4432106,0.791666667 30.5882353,2.91846991 30.5882353,5.54178969 Z" id="Fill-259" fill="#F0B237"></path>
                            </g>
                            <g id="Group-3-Copy" transform="translate(6.274510, 17.416667)">
                                <path d="M0,6.33333333 L0,10.0078686 C0,13.2252975 7.54971878,15.8333333 16.8625036,15.8333333 C26.1760129,15.8333333 33.7254902,13.2252975 33.7254902,10.0078686 L33.7254902,6.33333333 L0,6.33333333 Z" id="Fill-257" fill="#F0B237"></path>
                                <path d="M33.7254902,5.5417835 C33.7254902,8.60230044 26.1760129,11.0833333 16.8625036,11.0833333 C7.54971878,11.0833333 0,8.60230044 0,5.5417835 C0,2.4810329 7.54971878,0 16.8625036,0 C26.1760129,0 33.7254902,2.4810329 33.7254902,5.5417835 Z" id="Fill-258" fill="#FFCC65"></path>
                                <path d="M30.5882353,5.54178969 C30.5882353,8.16486342 24.4432106,10.2916667 16.8623829,10.2916667 C9.28227957,10.2916667 3.1372549,8.16486342 3.1372549,5.54178969 C3.1372549,2.91846991 9.28227957,0.791666667 16.8623829,0.791666667 C24.4432106,0.791666667 30.5882353,2.91846991 30.5882353,5.54178969 Z" id="Fill-259" fill="#F0B237"></path>
                            </g>
                            <g id="Group-3-Copy" transform="translate(3.137255, 9.500000)">
                                <path d="M0,6.33333333 L0,10.0078686 C0,13.2252975 7.54971878,15.8333333 16.8625036,15.8333333 C26.1760129,15.8333333 33.7254902,13.2252975 33.7254902,10.0078686 L33.7254902,6.33333333 L0,6.33333333 Z" id="Fill-257" fill="#F0B237"></path>
                                <path d="M33.7254902,5.5417835 C33.7254902,8.60230044 26.1760129,11.0833333 16.8625036,11.0833333 C7.54971878,11.0833333 0,8.60230044 0,5.5417835 C0,2.4810329 7.54971878,0 16.8625036,0 C26.1760129,0 33.7254902,2.4810329 33.7254902,5.5417835 Z" id="Fill-258" fill="#FFCC65"></path>
                                <path d="M30.5882353,5.54178969 C30.5882353,8.16486342 24.4432106,10.2916667 16.8623829,10.2916667 C9.28227957,10.2916667 3.1372549,8.16486342 3.1372549,5.54178969 C3.1372549,2.91846991 9.28227957,0.791666667 16.8623829,0.791666667 C24.4432106,0.791666667 30.5882353,2.91846991 30.5882353,5.54178969 Z" id="Fill-259" fill="#F0B237"></path>
                            </g>
                            <g id="Group-3-Copy" transform="translate(5.490196, 0.000000)">
                                <path d="M0,6.33333333 L0,10.0078686 C0,13.2252975 7.54971878,15.8333333 16.8625036,15.8333333 C26.1760129,15.8333333 33.7254902,13.2252975 33.7254902,10.0078686 L33.7254902,6.33333333 L0,6.33333333 Z" id="Fill-257" fill="#F0B237"></path>
                                <path d="M33.7254902,5.5417835 C33.7254902,8.60230044 26.1760129,11.0833333 16.8625036,11.0833333 C7.54971878,11.0833333 0,8.60230044 0,5.5417835 C0,2.4810329 7.54971878,0 16.8625036,0 C26.1760129,0 33.7254902,2.4810329 33.7254902,5.5417835 Z" id="Fill-258" fill="#FFCC65"></path>
                                <path d="M30.5882353,5.54178969 C30.5882353,8.16486342 24.4432106,10.2916667 16.8623829,10.2916667 C9.28227957,10.2916667 3.1372549,8.16486342 3.1372549,5.54178969 C3.1372549,2.91846991 9.28227957,0.791666667 16.8623829,0.791666667 C24.4432106,0.791666667 30.5882353,2.91846991 30.5882353,5.54178969 Z" id="Fill-259" fill="#F0B237"></path>
                            </g>
                        </g>
                        <g id="Group-5" transform="translate(18.000000, 31.000000)">
                            <g id="Group-3-Copy" transform="translate(3.137255, 23.400000)">
                                <path d="M0,6.24 L0,9.86038421 C0,13.0303984 7.54971878,15.6 16.8625036,15.6 C26.1760129,15.6 33.7254902,13.0303984 33.7254902,9.86038421 L33.7254902,6.24 L0,6.24 Z" id="Fill-257" fill="#F0B237"></path>
                                <path d="M33.7254902,5.46011511 C33.7254902,8.47552969 26.1760129,10.92 16.8625036,10.92 C7.54971878,10.92 0,8.47552969 0,5.46011511 C0,2.44447031 7.54971878,0 16.8625036,0 C26.1760129,0 33.7254902,2.44447031 33.7254902,5.46011511 Z" id="Fill-258" fill="#FFCC65"></path>
                                <path d="M30.5882353,5.46012121 C30.5882353,8.04453912 24.4432106,10.14 16.8623829,10.14 C9.28227957,10.14 3.1372549,8.04453912 3.1372549,5.46012121 C3.1372549,2.87546088 9.28227957,0.78 16.8623829,0.78 C24.4432106,0.78 30.5882353,2.87546088 30.5882353,5.46012121 Z" id="Fill-259" fill="#F0B237"></path>
                            </g>
                            <g id="Group-3-Copy" transform="translate(0.000000, 15.600000)">
                                <path d="M0,6.24 L0,9.86038421 C0,13.0303984 7.54971878,15.6 16.8625036,15.6 C26.1760129,15.6 33.7254902,13.0303984 33.7254902,9.86038421 L33.7254902,6.24 L0,6.24 Z" id="Fill-257" fill="#F0B237"></path>
                                <path d="M33.7254902,5.46011511 C33.7254902,8.47552969 26.1760129,10.92 16.8625036,10.92 C7.54971878,10.92 0,8.47552969 0,5.46011511 C0,2.44447031 7.54971878,0 16.8625036,0 C26.1760129,0 33.7254902,2.44447031 33.7254902,5.46011511 Z" id="Fill-258" fill="#FFCC65"></path>
                                <path d="M30.5882353,5.46012121 C30.5882353,8.04453912 24.4432106,10.14 16.8623829,10.14 C9.28227957,10.14 3.1372549,8.04453912 3.1372549,5.46012121 C3.1372549,2.87546088 9.28227957,0.78 16.8623829,0.78 C24.4432106,0.78 30.5882353,2.87546088 30.5882353,5.46012121 Z" id="Fill-259" fill="#F0B237"></path>
                            </g>
                            <g id="Group-3-Copy" transform="translate(2.352941, 6.240000)">
                                <path d="M0,6.24 L0,9.86038421 C0,13.0303984 7.54971878,15.6 16.8625036,15.6 C26.1760129,15.6 33.7254902,13.0303984 33.7254902,9.86038421 L33.7254902,6.24 L0,6.24 Z" id="Fill-257" fill="#F0B237"></path>
                                <path d="M33.7254902,5.46011511 C33.7254902,8.47552969 26.1760129,10.92 16.8625036,10.92 C7.54971878,10.92 0,8.47552969 0,5.46011511 C0,2.44447031 7.54971878,0 16.8625036,0 C26.1760129,0 33.7254902,2.44447031 33.7254902,5.46011511 Z" id="Fill-258" fill="#FFCC65"></path>
                                <path d="M30.5882353,5.46012121 C30.5882353,8.04453912 24.4432106,10.14 16.8623829,10.14 C9.28227957,10.14 3.1372549,8.04453912 3.1372549,5.46012121 C3.1372549,2.87546088 9.28227957,0.78 16.8623829,0.78 C24.4432106,0.78 30.5882353,2.87546088 30.5882353,5.46012121 Z" id="Fill-259" fill="#F0B237"></path>
                            </g>
                            <g id="Group-3-Copy" transform="translate(6.274510, 0.000000)">
                                <path d="M0,6.24 L0,9.86038421 C0,13.0303984 7.54971878,15.6 16.8625036,15.6 C26.1760129,15.6 33.7254902,13.0303984 33.7254902,9.86038421 L33.7254902,6.24 L0,6.24 Z" id="Fill-257" fill="#F0B237"></path>
                                <path d="M33.7254902,5.46011511 C33.7254902,8.47552969 26.1760129,10.92 16.8625036,10.92 C7.54971878,10.92 0,8.47552969 0,5.46011511 C0,2.44447031 7.54971878,0 16.8625036,0 C26.1760129,0 33.7254902,2.44447031 33.7254902,5.46011511 Z" id="Fill-258" fill="#FFCC65"></path>
                                <path d="M30.5882353,5.46012121 C30.5882353,8.04453912 24.4432106,10.14 16.8623829,10.14 C9.28227957,10.14 3.1372549,8.04453912 3.1372549,5.46012121 C3.1372549,2.87546088 9.28227957,0.78 16.8623829,0.78 C24.4432106,0.78 30.5882353,2.87546088 30.5882353,5.46012121 Z" id="Fill-259" fill="#F0B237"></path>
                            </g>
                        </g>
                    </g>
                    <g id="Group-37" transform="translate(150.000000, 36.000000)">
                        <g id="Fill-2">
                            <use fill="black" fill-opacity="1" filter="url(#filter-2)" xlink:href="#path-1"></use>
                            <use fill="#DFEAFF" fill-rule="evenodd" xlink:href="#path-1"></use>
                        </g>
                        <path d="M120.601647,125.738098 C106.227989,117.58071 91.1757757,117.138634 74.7893613,118.740142 C41.9891746,121.945194 18.4823045,147.578146 15.8482682,178.307177 C12.7903873,177.524729 9.84571129,176.139512 6.72920636,175.588273 C4.43343722,175.182133 2.68819447,176.530058 2.46447995,178.85706 C1.66530701,187.170395 1.57568644,196.026154 4.85795573,203.839306 C7.89157847,211.061011 14.3408906,212.499114 20.7207973,210.997276 C20.9492287,211.551905 21.182377,212.1045 21.4256328,212.655061 C33.421313,239.709166 65.5000877,247.476008 92.4035102,245.778219 C106.613425,244.880506 121.124546,241.087602 133.011064,232.985813 C145.179247,224.691463 153.520025,210.928795 156.686394,196.606548 C163.1101,167.547507 145.159706,139.674341 120.601647,125.738098" id="Fill-3" fill="url(#linearGradient-3)"></path>
                        <path d="M27.839354,167.665595 C27.879808,165.958164 28.287897,163.519864 30.1963338,162.828333 C32.3183964,162.059506 33.779,164.829768 34.4205868,166.292196 C35.1374039,167.924401 37.582389,166.516495 36.8719594,164.898093 C35.6086579,162.020168 33.2098046,159.494219 29.7421131,160.087058 C26.280809,160.678516 25.0693171,164.78974 25.0004743,167.665595 C24.9578911,169.446872 27.7967708,169.442731 27.839354,167.665595" id="Fill-4" fill="#0B33A6"></path>
                        <path d="M67.0680812,138.303274 C67.0196839,138.285464 66.972631,138.266285 66.9282668,138.241626 C66.9746475,138.26697 67.0217005,138.282039 67.0680812,138.303274 M69.8270639,135.364726 C65.4339999,125.748348 56.1161735,120.9953 47.3925586,116.199782 C46.5812315,115.753863 45.3276067,116.090186 44.80868,116.853935 C40.2284125,123.591359 35.8578666,130.489752 34.4113248,138.68001 C34.3911592,138.762893 34.3736824,138.8492 34.3615831,138.938246 C34.3461229,139.030033 34.3360401,139.118395 34.3299904,139.205387 C34.0261629,141.470603 33.9461729,143.731709 34.0328847,146.018159 C34.0705271,146.986715 34.9907481,147.8217 35.8887871,147.940886 C38.0969143,148.236796 40.5174519,147.354547 42.6133243,146.784647 C46.0623048,145.846915 49.4635601,144.720129 52.8540605,143.587179 C56.2445608,142.454228 59.6196009,141.276755 62.9966576,140.102021 C64.2361665,139.671171 65.4750031,139.239636 66.7192173,138.8218 C67.0815249,138.699875 67.445513,138.580689 67.8098372,138.465613 C69.2153757,138.456023 70.4696727,136.770982 69.8270639,135.364726" id="Fill-5" fill="#0B33A6"></path>
                        <path d="M6.53067989,183.755828 C5.17486193,188.022297 6.79354256,192.650819 7.22824897,196.950688 C7.56174232,200.253244 12.945694,199.197816 11.854195,196.376882 C10.2631841,192.264719 10.1954661,187.867991 8.75226991,183.755828 C8.40566983,182.768534 6.85761989,182.727787 6.53067989,183.755828" id="Fill-6" fill="#0B33A6"></path>
                        <path d="M171.698266,186.945965 C173.496948,184.7086 175.120561,181.748437 174.831258,178.786245 C174.547362,175.881526 171.855085,173.730032 168.943802,174.238493 C162.871138,175.298689 166.174467,184.050711 170.359901,185.491576 C174.638614,186.96422 178.849734,186.272524 182.632306,183.854629 C185.509115,182.015514 188.573161,178.268318 187.908034,174.663112 C187.774873,173.945046 186.827878,173.812522 186.358774,174.254045 C185.089355,175.450145 184.239696,177.069513 183.152781,178.437354 C181.584595,180.410346 179.416849,181.829575 177.036181,182.594295 C174.677143,183.351577 172.249338,184.442199 170.5,182.594295 C169.543542,181.582782 167.900147,176.988375 170.36666,178.260204 C172.879813,179.555698 168.30774,185.4909 167.364801,186.565971 C163.757298,190.678962 157.576483,187.849294 154.002777,185.153504 C153.397809,184.69643 152.633995,185.703886 153.196378,186.198824 C158.869561,191.189451 166.384685,193.557988 171.698266,186.945965 Z" id="Fill-7" fill="#3468FE"></path>
                        <path d="M77.4507959,230.03998 C70.6186741,228.639489 63.8288262,228.77947 56.9482158,229.714268 C54.5558805,230.03998 52.2031556,230.566444 49.8722848,231.188505 C49.1818334,231.372187 48.4906992,231.556552 47.8002478,231.740234 C47.2894094,231.876118 46.3250996,231.921868 46.3059773,232.025658 C45.5834278,232.039315 44.9243917,232.480425 45.0070273,233.411126 C45.44684,238.340498 46.2684156,243.248702 46.7983763,248.175342 C47.0865766,250.85273 46.8748655,254.693666 48.1301074,257.175764 C48.9988058,258.893772 50.8400093,259.527441 52.5111611,260.199348 C55.4949216,261.401135 58.591367,262.106501 61.7690822,262.547611 C67.100787,263.287802 75.4040277,263.931031 77.4186978,257.493281 C78.4089593,254.326984 77.696654,250.464881 77.4282589,247.239861 C77.0615207,242.834905 78.8064298,238.561053 79.8929858,234.341145 C80.3437255,232.591044 79.3404881,230.427829 77.4507959,230.03998" id="Fill-8" fill="#268AE9"></path>
                        <path d="M128.450751,230.03998 C121.618625,228.639489 114.828842,228.77947 107.947545,229.714268 C105.555209,230.03998 103.203166,230.566444 100.872294,231.188505 C100.181842,231.372187 99.4907073,231.556552 98.7995726,231.740234 C98.288734,231.876118 97.3244236,231.921868 97.3059843,232.025658 C96.5827515,232.039315 95.924398,232.480425 96.0070336,233.411126 C96.4461636,238.340498 97.2677397,243.248702 97.7983835,248.175342 C98.086584,250.85273 97.8748728,254.693666 99.1294323,257.175764 C99.9988141,258.893772 101.840019,259.527441 103.511171,260.199348 C106.494933,261.401135 109.590697,262.106501 112.768414,262.547611 C118.100122,263.287802 126.404664,263.931031 128.418652,257.493281 C129.408232,254.326984 128.695926,250.464881 128.428214,247.239861 C128.061475,242.834905 129.805702,238.561053 130.892942,234.341145 C131.343682,232.591044 130.341127,230.427829 128.450751,230.03998" id="Fill-9" fill="#268AE9"></path>
                        <path d="M135.174629,138.603231 C138.040271,145.438434 139.541459,156.293684 140.675987,168.227225 C140.969219,171.312421 142.232608,170.060755 141.962353,166.850829 C140.969541,155.056986 138.883495,139.017334 135.45324,136.038782 C135.054765,135.692657 134.818733,137.754443 135.174629,138.603231" id="Fill-10" fill="#92B9FF" transform="translate(138.500000, 153.000000) rotate(-26.000000) translate(-138.500000, -153.000000) "></path>
                        <path d="M147.174629,173.459394 C150.040271,174.665606 151.541459,176.581238 152.675987,178.687157 C152.969219,179.231604 154.232608,179.010722 153.962353,178.444264 C152.969541,176.362998 150.883495,173.532471 147.45324,173.006844 C147.054765,172.945763 146.818733,173.309608 147.174629,173.459394" id="Fill-10" fill="#92B9FF" transform="translate(150.500000, 176.000000) rotate(28.000000) translate(-150.500000, -176.000000) "></path>
                        <path d="M77,132.758775 L78.3952718,125.666974 C78.3952718,125.666974 98.9611136,117.749653 113,129.197751 L112.615555,135 C112.615555,135 96.78038,122.717528 77,132.758775" id="Fill-11" fill="#3468FE"></path>
                        <path d="M76,135.643433 L77.4248882,128.621946 C77.4248882,128.621946 98.6118586,120.809336 113,132.156065 L112.621241,138 C112.621241,138 96.255882,125.715319 76,135.643433" id="Fill-12" fill="#0B33A6"></path>
                        <g id="Group-12" transform="translate(102.000000, 58.000000)">
                            <path d="M29.7317984,12.18995 C31.2834111,20.3267792 25.944481,28.1800335 17.8089262,29.7317203 C9.67337139,31.283407 1.81960578,25.9459944 0.267993052,17.8091652 C-1.28273354,9.67322218 4.05442433,1.81996793 12.1899791,0.268281153 C20.3255339,-1.28340562 28.1792995,4.05400697 29.7317984,12.18995" id="Fill-18" fill="#FFCC65"></path>
                            <path d="M26.9695862,12.7168344 C28.2302715,19.3280081 23.8923908,25.7087772 17.2822525,26.9695227 C10.6721143,28.2302682 4.29092969,23.8936205 3.03024436,17.2824467 C1.770279,10.671993 6.10671977,4.29122394 12.716858,3.03047844 C19.3269963,1.76973293 25.7081809,6.10638066 26.9695862,12.7168344" id="Fill-18" fill="#F0B237"></path>
                        </g>
                        <g id="Group-12-Copy-3" transform="translate(85.000000, 47.000000)">
                            <path d="M16.8480191,6.90763834 C17.7272663,11.5185082 14.7018725,15.9686856 10.0917248,16.8479748 C5.48157712,17.727264 1.03110994,14.7027302 0.15186273,10.0918603 C-0.726882341,5.48149257 2.29750712,1.03131516 6.90765483,0.152025987 C11.5178025,-0.727263185 15.9682697,2.29727061 16.8480191,6.90763834" id="Fill-18" fill="#FFCC65"></path>
                            <path d="M14.9929037,7.26149649 C15.6767627,10.8477286 13.3236786,14.3089777 9.7380082,14.9928693 C6.15233776,15.6767609 2.69086329,13.3243457 2.00700435,9.73811356 C1.32353596,6.152272 3.67583887,2.6910229 7.26150931,2.00713132 C10.8471798,1.32323974 14.3086542,3.67565492 14.9929037,7.26149649" id="Fill-18" fill="#F0B237"></path>
                        </g>
                        <g id="Group-12-Copy-2" transform="translate(62.000000, 4.000000)">
                            <path d="M29.7317984,12.18995 C31.2834111,20.3267792 25.944481,28.1800335 17.8089262,29.7317203 C9.67337139,31.283407 1.81960578,25.9459944 0.267993052,17.8091652 C-1.28273354,9.67322218 4.05442433,1.81996793 12.1899791,0.268281153 C20.3255339,-1.28340562 28.1792995,4.05400697 29.7317984,12.18995" id="Fill-18" fill="#FFCC65"></path>
                            <path d="M26.9695862,12.7168344 C28.2302715,19.3280081 23.8923908,25.7087772 17.2822525,26.9695227 C10.6721143,28.2302682 4.29092969,23.8936205 3.03024436,17.2824467 C1.770279,10.671993 6.10671977,4.29122394 12.716858,3.03047844 C19.3269963,1.76973293 25.7081809,6.10638066 26.9695862,12.7168344" id="Fill-18" fill="#F0B237"></path>
                        </g>
                        <g id="Group-12-Copy" transform="translate(79.000000, 88.000000)">
                            <path d="M23.7854387,9.75196001 C25.0267289,16.2614234 20.7555848,22.5440268 14.2471409,23.7853762 C7.73869711,25.0267256 1.45568462,20.7567956 0.214394442,14.2473322 C-1.02618683,7.73857774 3.24353947,1.45597434 9.75198329,0.214624923 C16.2604271,-1.0267245 22.5434396,3.24320557 23.7854387,9.75196001" id="Fill-18" fill="#FFCC65"></path>
                            <path d="M21.9722943,10.0978123 C23.0226167,15.6058198 19.4085717,20.9218688 13.9014269,21.9722414 C8.39428217,23.022614 3.07788699,19.4095962 2.02756453,13.9015888 C0.977841909,8.39418117 4.59068724,3.07813214 10.097832,2.02775955 C15.6049768,0.977386964 20.921372,4.59040472 21.9722943,10.0978123" id="Fill-18" fill="#F0B237"></path>
                        </g>
                        <path d="M79.9021306,45.4655959 C79.119984,51.7898563 79.1062771,58.1107354 79.1276941,64.4586644 C79.149111,70.7883347 78.5323032,77.3391378 79.8327397,83.5998309 C79.9441078,84.1333897 81.0817755,84.1333897 81.1922869,83.5998309 C82.4241892,77.67388 81.8750589,71.5044801 81.8947625,65.5136095 C81.9178928,58.8147084 81.9495899,52.1401522 81.1237527,45.4655959 C81.0466518,44.8448014 79.9783749,44.8448014 79.9021306,45.4655959" id="Fill-25" fill="#FFD789"></path>
                        <path d="M101.888677,12.4718741 C101.083864,18.4691869 101.093292,24.4644412 101.115577,30.4878263 C101.137004,36.1413964 100.554179,42.0158949 101.820109,47.5939927 C101.942674,48.1353358 103.056898,48.1353358 103.180319,47.5939927 C104.445392,42.0158949 103.863424,36.1413964 103.883995,30.4878263 C103.906279,24.4644412 103.915707,18.4691869 103.110895,12.4718741 C103.026899,11.8427086 101.973529,11.8427086 101.888677,12.4718741" id="Fill-26" fill="#FFD789"></path>
                        <path d="M73.5035113,54.5183913 C73.1920747,59.4612313 72.4799521,64.8376656 73.6370733,69.7076779 C73.7294433,70.0974407 74.2705567,70.0974407 74.3629267,69.7076779 C75.5200479,64.8376656 74.8079253,59.4612313 74.4964887,54.5183913 C74.4528002,53.8272029 73.5471998,53.8272029 73.5035113,54.5183913" id="Fill-27" fill="#FFD789"></path>
                        <path d="M109.503511,37.5179019 C109.192075,42.4608982 108.479952,47.8375024 109.637073,52.7076686 C109.729443,53.0974438 110.270557,53.0974438 110.362927,52.7076686 C111.520048,47.8375024 110.807925,42.4608982 110.496489,37.5179019 C110.4528,36.827366 109.5472,36.827366 109.503511,37.5179019" id="Fill-28" fill="#FFD789"></path>
                        <path d="M110.503766,89.5179019 C110.191742,94.4608982 109.480327,99.8375024 110.636688,104.707669 C110.729047,105.097444 111.270721,105.097444 111.36308,104.707669 C112.519442,99.8375024 111.808651,94.4608982 111.496627,89.5179019 C111.452943,88.827366 110.547449,88.827366 110.503766,89.5179019" id="Fill-29" fill="#FFD789"></path>
                        <path d="M68.7001104,43.2149132 C67.1802864,42.2993661 65.5343397,41.4034084 64.211179,40.2208267 C63.5094472,39.5939656 62.9457525,38.9047276 62.4938519,38.0840345 C62.01046,37.2066352 61.8278103,36.2142769 61.4189479,35.3064624 C61.3853571,34.972927 60.8605017,34.8579681 60.7597294,35.236353 C59.7562057,39.0135004 56.6312163,41.4250598 53.3277759,43.2912088 C52.7861251,43.5969067 52.9719239,44.2768654 53.4768349,44.4825542 C55.4350706,45.2805649 57.0007145,46.3157105 58.2031584,48.0679317 C58.8014936,48.9396604 59.1683676,49.9304721 59.4197734,50.9475748 C59.6423121,51.8486877 60.3309225,55.9114281 61.0494496,52.9142484 C61.5333664,50.8949927 61.7249386,48.9788392 63.3472669,47.4596289 C64.8609501,46.0435209 66.8963396,45.2692237 68.6917127,44.2758344 C69.1063486,44.0464321 69.0963763,43.4535947 68.7001104,43.2149132 Z" id="Stroke-31" fill="#FCB74B"></path>
                        <path d="M132.794381,107.62055 C131.749264,106.993923 130.617299,106.381685 129.707606,105.572322 C129.225527,105.14354 128.838392,104.671591 128.527801,104.110433 C128.19513,103.509706 128.069275,102.83056 127.788859,102.209689 C127.765307,101.981628 127.403933,101.902491 127.334749,102.162206 C126.645119,104.745693 124.497477,106.396074 122.225452,107.673069 C121.853037,107.882424 121.980365,108.347178 122.328492,108.488187 C123.674632,109.034238 124.751396,109.74216 125.577186,110.940737 C125.988609,111.537867 126.241056,112.215574 126.41328,112.911266 C126.566367,113.527821 127.04035,116.307713 127.53494,114.257327 C127.867611,112.875295 127.999355,111.563767 129.114391,110.524904 C130.154356,109.555827 131.553488,109.026324 132.787757,108.346459 C133.072588,108.189622 133.0667,107.784581 132.794381,107.62055" id="Fill-32" fill="#FFFFFF"></path>
                        <path d="M132.794381,107.62055 C131.749264,106.993923 130.617299,106.381685 129.707606,105.572322 C129.225527,105.14354 128.838392,104.671591 128.527801,104.110433 C128.19513,103.509706 128.069275,102.83056 127.788859,102.209689 C127.765307,101.981628 127.403933,101.902491 127.334749,102.162206 C126.645119,104.745693 124.497477,106.396074 122.225452,107.673069 C121.853037,107.882424 121.980365,108.347178 122.328492,108.488187 C123.674632,109.034238 124.751396,109.74216 125.577186,110.940737 C125.988609,111.537867 126.241056,112.215574 126.41328,112.911266 C126.566367,113.527821 127.04035,116.307713 127.53494,114.257327 C127.867611,112.875295 127.999355,111.563767 129.114391,110.524904 C130.154356,109.555827 131.553488,109.026324 132.787757,108.346459 C133.072588,108.189622 133.0667,107.784581 132.794381,107.62055 Z" id="Stroke-33" fill="#FCB74B"></path>
                        <path d="M120.849956,4.32337944 C120.090535,3.84186354 119.266978,3.37014374 118.605218,2.74771473 C118.254659,2.41766158 117.97261,2.05520595 117.746678,1.62342409 C117.505442,1.16150038 117.413611,0.638539451 117.209544,0.161544826 C117.192782,-0.0140313947 116.93041,-0.0750686215 116.880122,0.124621071 C116.377971,2.11247545 114.8154,3.38144693 113.163914,4.36407093 C112.893525,4.52532977 112.985355,4.88251058 113.238252,4.99102121 C114.217775,5.41074634 115.000518,5.9555601 115.601787,6.87790042 C115.900599,7.33680994 116.083531,7.85826378 116.209615,8.39328145 C116.321123,8.86801543 116.665851,11.0058255 117.024426,9.42865366 C117.266392,8.36615379 117.362595,7.35715568 118.173761,6.55764336 C118.930267,5.81238636 119.947688,5.40547151 120.845583,4.88251058 C121.053294,4.76118967 121.048193,4.44922163 120.849956,4.32337944" id="Fill-34" fill="#FFFFFF"></path>
                        <path d="M120.849956,4.32337944 C120.090535,3.84186354 119.266978,3.37014374 118.605218,2.74771473 C118.254659,2.41766158 117.97261,2.05520595 117.746678,1.62342409 C117.505442,1.16150038 117.413611,0.638539451 117.209544,0.161544826 C117.192782,-0.0140313947 116.93041,-0.0750686215 116.880122,0.124621071 C116.377971,2.11247545 114.8154,3.38144693 113.163914,4.36407093 C112.893525,4.52532977 112.985355,4.88251058 113.238252,4.99102121 C114.217775,5.41074634 115.000518,5.9555601 115.601787,6.87790042 C115.900599,7.33680994 116.083531,7.85826378 116.209615,8.39328145 C116.321123,8.86801543 116.665851,11.0058255 117.024426,9.42865366 C117.266392,8.36615379 117.362595,7.35715568 118.173761,6.55764336 C118.930267,5.81238636 119.947688,5.40547151 120.845583,4.88251058 C121.053294,4.76118967 121.048193,4.44922163 120.849956,4.32337944 Z" id="Stroke-35" stroke="#FFFFFF"></path>
                        <path d="M170.387428,182 L174,183.375094 C173.820992,184.237284 173.605922,184.850851 173.354792,185.215796 C173.103661,185.58074 172.716635,185.842141 172.193714,186 C171.292608,185.799384 170.658149,185.61659 170.290339,185.451617 C169.922528,185.286644 169.492415,184.991949 169,184.567532 C169.001525,184.132324 169.090031,183.752343 169.26552,183.42759 C169.441008,183.102837 169.814977,182.626973 170.387428,182 Z" id="Path-2" fill="#3468FE" fill-rule="nonzero"></path>
                    </g>
                </g>
            </g>
        </g>
    </g>
</svg>