<?xml version="1.0" encoding="UTF-8"?>
<svg width="402px" height="378px" viewBox="0 0 402 378" version="1.1" xmlns="http://www.w3.org/2000/svg" xmlns:xlink="http://www.w3.org/1999/xlink">
    <!-- Generator: Sketch 51.2 (57519) - http://www.bohemiancoding.com/sketch -->
    <title>Group 2</title>
    <desc>Created with Sketch.</desc>
    <defs>
        <linearGradient x1="51.5679715%" y1="18.5066207%" x2="52.0035975%" y2="84.6163922%" id="linearGradient-1">
            <stop stop-color="#3468FE" offset="0%"></stop>
            <stop stop-color="#268AEA" offset="100%"></stop>
        </linearGradient>
        <circle id="path-2" cx="187.5" cy="190.5" r="45.5"></circle>
        <filter x="-37.4%" y="-28.6%" width="174.7%" height="174.7%" filterUnits="objectBoundingBox" id="filter-3">
            <feOffset dx="0" dy="8" in="SourceAlpha" result="shadowOffsetOuter1"></feOffset>
            <feGaussianBlur stdDeviation="10" in="shadowOffsetOuter1" result="shadowBlurOuter1"></feGaussianBlur>
            <feColorMatrix values="0 0 0 0 0.164170952   0 0 0 0 0.365975162   0 0 0 0 0.948102679  0 0 0 0.379727129 0" type="matrix" in="shadowBlurOuter1"></feColorMatrix>
        </filter>
    </defs>
    <g id="Page-1" stroke="none" stroke-width="1" fill="none" fill-rule="evenodd">
        <g id="product" transform="translate(-813.000000, -702.000000)">
            <g id="vision" transform="translate(220.000000, 703.000000)">
                <g id="Group-2" transform="translate(594.000000, 0.000000)">
                    <circle id="Oval-3" stroke="#DEE6F2" fill="#FFFFFF" fill-rule="nonzero" opacity="0.456808036" cx="188" cy="188" r="188"></circle>
                    <circle id="Oval-3" stroke="#DEE6F2" fill="#FFFFFF" fill-rule="nonzero" opacity="0.584765625" cx="188" cy="191" r="138"></circle>
                    <circle id="Oval-3" stroke="#DEE6F2" fill="#FFFFFF" fill-rule="nonzero" cx="187" cy="192" r="90"></circle>
                    <g id="Oval-2" fill-rule="nonzero">
                        <use fill="black" fill-opacity="1" filter="url(#filter-3)" xlink:href="#path-2"></use>
                        <use fill="url(#linearGradient-1)" xlink:href="#path-2"></use>
                    </g>
                    <g id="Group" transform="translate(187.500000, 191.000000) rotate(6.000000) translate(-187.500000, -191.000000) translate(170.000000, 166.000000)">
                        <path d="M4.04404463,30.889104 L4.04404463,2.81126791 C4.7963741,2.73523015 5.56328903,2.69602976 6.34179726,2.69602976 C16.2401044,2.69602976 24.2642678,9.03306135 24.2642678,16.850186 C24.2642678,24.6673106 16.2401044,31.0043422 6.34179726,31.0043422 C5.56328903,31.0043422 4.7963741,30.9651418 4.04404463,30.889104 Z" id="Combined-Shape-Copy-2" fill="#FFFFFF" transform="translate(14.154156, 16.850186) scale(-1, 1) rotate(-16.000000) translate(-14.154156, -16.850186) "></path>
                        <path d="M10.784119,47.0652826 L10.784119,18.9874464 C11.5364485,18.9114087 12.3033634,18.8722083 13.0818717,18.8722083 C22.9801788,18.8722083 31.0043422,25.2092399 31.0043422,33.0263645 C31.0043422,40.8434891 22.9801788,47.1805207 13.0818717,47.1805207 C12.3033634,47.1805207 11.5364485,47.1413203 10.784119,47.0652826 Z" id="Combined-Shape" fill="#8FB5FB" transform="translate(20.894231, 33.026364) rotate(16.000000) translate(-20.894231, -33.026364) "></path>
                    </g>
                    <g id="Group-5-Copy" transform="translate(333.000000, 204.000000)">
                        <circle id="Oval-2" fill-opacity="0.3" fill="#FED4C6" cx="34" cy="34" r="34"></circle>
                        <circle id="Oval-2" fill-opacity="0.39" fill="#FED4C6" cx="34" cy="34" r="28"></circle>
                        <circle id="Oval-2" fill="#FED4C6" cx="33.7352941" cy="34.5" r="21.7941176"></circle>
                        <path d="M39.7838318,36.526202 C39.4841261,36.0134292 39.0783539,35.6118929 38.5665153,35.3270191 C38.2135044,35.1235378 37.7005779,34.9352498 37.0331751,34.7664961 C37.6565195,34.5548755 38.1563916,34.2879081 38.5382309,33.9645086 C38.9168065,33.641109 39.2078094,33.268874 39.4106954,32.8456329 C39.6119497,32.4240197 39.7136647,31.9774462 39.7136647,31.5080828 C39.7136647,30.8618263 39.5227451,30.2682036 39.1419938,29.7266721 C38.7596106,29.1851407 38.2145922,28.7705815 37.5053068,28.4813668 C37.0940953,28.3136982 36.5838885,28.2002913 35.9942678,28.1297512 L35.9942678,25.7058824 L33.9958671,25.7058824 L33.9958671,28.047816 L32.7111032,28.047816 L32.7111032,25.7058824 L30.7127024,25.7058824 L30.7127024,28.047816 L26.4705882,28.047816 L26.4705882,30.0185999 L27.0324685,30.0185999 C27.4066927,30.0185999 27.6612522,30.0527848 27.7950591,30.1206118 C27.9272342,30.1884389 28.0213342,30.2806838 28.0757272,30.3962611 C28.1317521,30.5118385 28.1573168,30.7804338 28.1573168,31.2025896 L28.1573168,39.1454128 C28.1573168,39.559972 28.1301203,39.8280247 28.0757272,39.9468577 C28.0213342,40.066776 27.928322,40.1579356 27.7950591,40.222507 C27.6612522,40.2870784 27.4066927,40.320178 27.0324685,40.320178 L26.4705882,40.320178 L26.4705882,42.2915045 L30.7127024,42.2915045 L30.7127024,44.6323529 L32.7100153,44.6323529 L32.7100153,42.2915045 L33.9512648,42.2915045 C33.9654069,42.2915045 33.9800931,42.2904193 33.9947792,42.2904193 L33.9947792,44.6323529 L35.9931799,44.6323529 L35.9931799,42.1742993 C36.6388255,42.0907363 37.1805803,41.9626788 37.613549,41.789584 C38.4473945,41.4558748 39.0941279,40.9707754 39.5499417,40.3337434 C40.0068433,39.6977966 40.2352941,39.0016194 40.2352941,38.2452117 C40.2342063,37.6136059 40.0835375,37.0406027 39.7838318,36.526202 Z M31.6896016,30.3452552 L33.2544898,30.3452552 C34.1693809,30.3452552 34.8036039,30.4016873 35.1582466,30.514009 C35.5128893,30.6263306 35.7837667,30.8162465 35.9719667,31.0805008 C36.1590788,31.346383 36.2537227,31.6659842 36.2537227,32.041475 C36.2537227,32.4017725 36.1547273,32.7197459 35.9561927,32.9953951 C35.7587459,33.271587 35.4633916,33.4777814 35.0712177,33.6134356 C34.6790438,33.7496324 34.0736491,33.8180021 33.2544898,33.8180021 L31.6896016,33.8180021 L31.6896016,30.3452552 Z M36.1112129,39.1454128 C35.8316326,39.4986563 35.4927639,39.7325241 35.0946067,39.8448458 C34.6969935,39.9571674 34.1949456,40.0141422 33.589007,40.0141422 L32.5473801,40.0141422 C32.1992645,40.0141422 31.9876756,39.9951506 31.9088056,39.95771 C31.8304796,39.9197269 31.7749987,39.8540703 31.7401872,39.7585697 C31.7119028,39.683146 31.6955849,39.429744 31.6885138,38.9923949 L31.6885138,35.9092468 L33.5357018,35.9092468 C34.3467022,35.9092468 34.9488333,35.9846706 35.3442708,36.1338901 C35.7386205,36.2831097 36.0350626,36.50504 36.2325094,36.7975104 C36.4299562,37.091066 36.5289515,37.4481078 36.5289515,37.8708062 C36.5300394,38.3662153 36.3897053,38.7910841 36.1112129,39.1454128 Z" id="Shape" fill="#FC5B24" fill-rule="nonzero" transform="translate(33.352941, 35.169118) rotate(10.000000) translate(-33.352941, -35.169118) "></path>
                    </g>
                    <g id="Group-5-Copy-2" transform="translate(58.000000, 55.000000)">
                        <circle id="Oval-2" fill-opacity="0.1" fill="#828B99" cx="34" cy="34" r="34"></circle>
                        <circle id="Oval-2" fill-opacity="0.15" fill="#828B99" cx="34.0000001" cy="34.6914895" r="27.0851065"></circle>
                        <circle id="Oval-2" fill="#C9CED6" cx="33.8457447" cy="34.537234" r="19.7074468"></circle>
                        <g id="ethereum-1" transform="translate(26.585106, 22.744681)" fill-rule="nonzero">
                            <polygon id="Shape" fill="#343434" points="6.74759793 0 6.606383 0.495342428 6.606383 14.8690326 6.74759793 15.0145068 13.212766 11.0706426"></polygon>
                            <polygon id="Shape" fill="#8C8C8C" points="6.606383 0 0 11.0706041 6.606383 15.0145068 6.606383 8.03797187"></polygon>
                            <polygon id="Shape" fill="#3C3C3B" points="6.68666023 16.6409453 6.606383 16.743263 6.606383 21.9763339 6.68666023 22.2214701 13.212766 12.6121857"></polygon>
                            <polygon id="Shape" fill="#8C8C8C" points="6.606383 22.2214701 6.606383 16.640923 0 12.6121857"></polygon>
                            <polygon id="Shape" fill="#141414" points="6.606383 15.6150871 13.212766 11.5409678 6.606383 8.40812382"></polygon>
                            <polygon id="Shape" fill="#393939" points="0 11.5409444 6.606383 15.6150871 6.606383 8.40812382"></polygon>
                        </g>
                    </g>
                    <g id="litecoin" transform="translate(49.000000, 306.000000)" fill-rule="nonzero">
                        <path d="M57,31.9998481 C57,45.8070377 45.8072734,57 32.0001519,57 C18.1928784,57 7,45.8070377 7,31.9998481 C7,18.1928105 18.1928784,7 32.0001519,7 C45.8071216,7 57,18.1928105 57,31.9998481" id="Shape" fill-opacity="0.15" fill="#4444A3"></path>
                        <path d="M32.0001944,64 C14.3268844,64 0,49.6730082 0,31.9998056 C0,14.3267974 14.3268844,0 32.0001944,0 C49.6731156,0 64,14.3267974 64,31.9998056 C64,49.6730082 49.67331,64 32.0001944,64 Z" id="Shape" fill-opacity="0.1" fill="#4444A3"></path>
                        <path d="M48,32.4998998 C48,41.6126449 40.6128005,49 31.5001002,49 C22.3872998,49 15,41.6126449 15,32.4998998 C15,23.3872549 22.3872998,16 31.5001002,16 C40.6127002,16 48,23.3872549 48,32.4998998" id="Shape" fill="#4444A3"></path>
                        <polyline id="Shape" fill="#FFFFFF" points="30.6272594 35.9274326 31.6057928 32.1981992 33.9225 31.341561 34.4987484 29.1499047 34.4790734 29.095537 32.1986048 29.9387454 33.8416953 23.6769231 29.181834 23.6769231 27.0330505 31.8487457 25.2389659 32.5120869 24.6461538 34.7715407 26.4388658 34.1087552 25.172437 38.9247864 37.5741782 38.9247864 38.3692308 35.9274326 30.6272594 35.9274326"></polyline>
                    </g>
                </g>
            </g>
        </g>
    </g>
</svg>