<?xml version="1.0" encoding="UTF-8"?>
<svg width="448px" height="291px" viewBox="0 0 448 291" version="1.1" xmlns="http://www.w3.org/2000/svg" xmlns:xlink="http://www.w3.org/1999/xlink">
    <!-- Generator: Sketch 51.2 (57519) - http://www.bohemiancoding.com/sketch -->
    <title>Group 24</title>
    <desc>Created with Sketch.</desc>
    <defs>
        <path d="M396.940583,194.066406 C301.14337,213.968661 169.675781,277.625 30.4101563,245.683594 C-30.1596919,231.791536 16.4618147,80.3487229 41.3398438,58.1914062 C154.496094,-42.5898438 322.987482,11.7970139 396.940583,50.909648 C463.656567,86.194685 464.445095,180.042074 396.940583,194.066406 Z" id="path-1"></path>
        <filter x="-21.1%" y="-17.2%" width="142.3%" height="144.4%" filterUnits="objectBoundingBox" id="filter-3">
            <feOffset dx="0" dy="8" in="SourceAlpha" result="shadowOffsetOuter1"></feOffset>
            <feGaussianBlur stdDeviation="11" in="shadowOffsetOuter1" result="shadowBlurOuter1"></feGaussianBlur>
            <feColorMatrix values="0 0 0 0 0.0495246274   0 0 0 0 0.244162415   0 0 0 0 0.80561756  0 0 0 0.306131114 0" type="matrix" in="shadowBlurOuter1" result="shadowMatrixOuter1"></feColorMatrix>
            <feMerge>
                <feMergeNode in="shadowMatrixOuter1"></feMergeNode>
                <feMergeNode in="SourceGraphic"></feMergeNode>
            </feMerge>
        </filter>
        <linearGradient x1="52.0035975%" y1="50%" x2="52.0035975%" y2="84.6163922%" id="linearGradient-4">
            <stop stop-color="#3468FE" offset="0%"></stop>
            <stop stop-color="#268AEA" offset="100%"></stop>
        </linearGradient>
    </defs>
    <g id="Page-1" stroke="none" stroke-width="1" fill="none" fill-rule="evenodd">
        <g id="product" transform="translate(-735.000000, -4894.000000)">
            <g id="5" transform="translate(220.000000, 4871.000000)">
                <g id="Group-24" transform="translate(515.000000, 23.000000)">
                    <g id="Group-8">
                        <g id="Group-19-+-Group-19-Mask">
                            <mask id="mask-2" fill="white">
                                <use xlink:href="#path-1"></use>
                            </mask>
                            <use id="Mask" fill="#EDF5FF" xlink:href="#path-1"></use>
                            <g id="Group-5" mask="url(#mask-2)">
                                <g transform="translate(207.000000, 16.000000)">
                                    <path d="M106.479119,0 L13.5202098,0 C6.05305399,0 0,6.04235027 0,13.4954754 L0,40.4093897 C0,47.8631848 6.05305399,53.9055351 13.5202098,53.9055351 L93.2072327,53.9055351 C100.853584,58.8492762 110.269744,59 110.269744,59 C108.098591,57.3038547 106.338179,55.5949815 104.899244,53.9055351 L106.479119,53.9055351 C113.946275,53.9055351 120,47.8631848 120,40.4093897 L120,13.4954754 C120,6.04235027 113.946275,0 106.479119,0" id="Fill-1" fill="#DEE7F5"></path>
                                    <path d="M99.880503,13 L20.119497,13 C18.9490085,13 18,13.8956453 18,14.9996833 C18,16.1043547 18.9490085,17 20.119497,17 L99.880503,17 C101.050992,17 102,16.1043547 102,14.9996833 C102,13.8956453 101.050992,13 99.880503,13" id="Fill-2" fill="#CBDAF1"></path>
                                    <path d="M99.880503,24 L20.119497,24 C18.9490085,24 18,24.8956453 18,26.0003167 C18,27.1043547 18.9490085,28 20.119497,28 L99.880503,28 C101.050992,28 102,27.1043547 102,26.0003167 C102,24.8956453 101.050992,24 99.880503,24" id="Fill-3" fill="#CBDAF1"></path>
                                    <path d="M70.6374662,35 L19.3625338,35 C18.6100769,35 18,35.8956453 18,37.0003167 C18,38.1043547 18.6100769,39 19.3625338,39 L70.6374662,39 C71.3899231,39 72,38.1043547 72,37.0003167 C72,35.8956453 71.3899231,35 70.6374662,35" id="Fill-4" fill="#CBDAF1"></path>
                                </g>
                            </g>
                            <g id="Group-5-Copy-3" mask="url(#mask-2)">
                                <g transform="translate(135.000000, 106.500000) scale(-1, 1) translate(-135.000000, -106.500000) translate(75.000000, 77.000000)">
                                    <path d="M106.479119,0 L13.5202098,0 C6.05305399,0 0,6.04235027 0,13.4954754 L0,40.4093897 C0,47.8631848 6.05305399,53.9055351 13.5202098,53.9055351 L93.2072327,53.9055351 C100.853584,58.8492762 110.269744,59 110.269744,59 C108.098591,57.3038547 106.338179,55.5949815 104.899244,53.9055351 L106.479119,53.9055351 C113.946275,53.9055351 120,47.8631848 120,40.4093897 L120,13.4954754 C120,6.04235027 113.946275,0 106.479119,0" id="Fill-1" fill="#DEE7F5"></path>
                                    <path d="M99.880503,13 L20.119497,13 C18.9490085,13 18,13.8956453 18,14.9996833 C18,16.1043547 18.9490085,17 20.119497,17 L99.880503,17 C101.050992,17 102,16.1043547 102,14.9996833 C102,13.8956453 101.050992,13 99.880503,13" id="Fill-2" fill="#CBDAF1"></path>
                                    <path d="M99.880503,24 L20.119497,24 C18.9490085,24 18,24.8956453 18,26.0003167 C18,27.1043547 18.9490085,28 20.119497,28 L99.880503,28 C101.050992,28 102,27.1043547 102,26.0003167 C102,24.8956453 101.050992,24 99.880503,24" id="Fill-3" fill="#CBDAF1"></path>
                                    <path d="M101.444894,35 L80.5551063,35 C80.2485498,35 80,35.8956453 80,37.0003167 C80,38.1043547 80.2485498,39 80.5551063,39 L101.444894,39 C101.75145,39 102,38.1043547 102,37.0003167 C102,35.8956453 101.75145,35 101.444894,35" id="Fill-4" fill="#CBDAF1"></path>
                                </g>
                            </g>
                            <g id="Group-5-Copy-3" mask="url(#mask-2)">
                                <g transform="translate(135.000000, 206.500000) scale(-1, 1) translate(-135.000000, -206.500000) translate(75.000000, 177.000000)">
                                    <path d="M106.479119,0 L13.5202098,0 C6.05305399,0 0,6.04235027 0,13.4954754 L0,40.4093897 C0,47.8631848 6.05305399,53.9055351 13.5202098,53.9055351 L93.2072327,53.9055351 C100.853584,58.8492762 110.269744,59 110.269744,59 C108.098591,57.3038547 106.338179,55.5949815 104.899244,53.9055351 L106.479119,53.9055351 C113.946275,53.9055351 120,47.8631848 120,40.4093897 L120,13.4954754 C120,6.04235027 113.946275,0 106.479119,0" id="Fill-1" fill="#DEE7F5"></path>
                                    <path d="M99.880503,13 L20.119497,13 C18.9490085,13 18,13.8956453 18,14.9996833 C18,16.1043547 18.9490085,17 20.119497,17 L99.880503,17 C101.050992,17 102,16.1043547 102,14.9996833 C102,13.8956453 101.050992,13 99.880503,13" id="Fill-2" fill="#CBDAF1"></path>
                                    <path d="M99.880503,24 L20.119497,24 C18.9490085,24 18,24.8956453 18,26.0003167 C18,27.1043547 18.9490085,28 20.119497,28 L99.880503,28 C101.050992,28 102,27.1043547 102,26.0003167 C102,24.8956453 101.050992,24 99.880503,24" id="Fill-3" fill="#CBDAF1"></path>
                                    <path d="M99.880503,35 L20.119497,35 C18.9490085,35 18,35.8956453 18,37.0003167 C18,38.1043547 18.9490085,39 20.119497,39 L99.880503,39 C101.050992,39 102,38.1043547 102,37.0003167 C102,35.8956453 101.050992,35 99.880503,35" id="Fill-4" fill="#CBDAF1"></path>
                                </g>
                            </g>
                            <g id="Group-5-Copy-4" mask="url(#mask-2)">
                                <g transform="translate(238.000000, 154.000000)">
                                    <path d="M106.479119,0 L13.5202098,0 C6.05305399,0 0,4.30133409 0,9.60694862 L0,28.7660062 C0,34.0720976 6.05305399,38.3734317 13.5202098,38.3734317 L93.2072327,38.3734317 C100.853584,41.8927051 110.269744,42 110.269744,42 C108.098591,40.7925745 106.338179,39.5760886 104.899244,38.3734317 L106.479119,38.3734317 C113.946275,38.3734317 120,34.0720976 120,28.7660062 L120,9.60694862 C120,4.30133409 113.946275,0 106.479119,0" id="Fill-1" fill="#DEE7F5"></path>
                                    <path d="M99.880503,12 L20.119497,12 C18.9490085,12 18,12.8956453 18,13.9996833 C18,15.1043547 18.9490085,16 20.119497,16 L99.880503,16 C101.050992,16 102,15.1043547 102,13.9996833 C102,12.8956453 101.050992,12 99.880503,12" id="Fill-2" fill="#CBDAF1"></path>
                                    <path d="M39.4448937,24 L18.5551063,24 C18.2485498,24 18,24.8956453 18,26.0003167 C18,27.1043547 18.2485498,28 18.5551063,28 L39.4448937,28 C39.7514502,28 40,27.1043547 40,26.0003167 C40,24.8956453 39.7514502,24 39.4448937,24" id="Fill-4" fill="#CBDAF1"></path>
                                </g>
                            </g>
                            <g id="Group-5-Copy-4" mask="url(#mask-2)">
                                <g transform="translate(238.000000, 96.000000)">
                                    <path d="M106.479119,0 L13.5202098,0 C6.05305399,0 0,4.30133409 0,9.60694862 L0,28.7660062 C0,34.0720976 6.05305399,38.3734317 13.5202098,38.3734317 L93.2072327,38.3734317 C100.853584,41.8927051 110.269744,42 110.269744,42 C108.098591,40.7925745 106.338179,39.5760886 104.899244,38.3734317 L106.479119,38.3734317 C113.946275,38.3734317 120,34.0720976 120,28.7660062 L120,9.60694862 C120,4.30133409 113.946275,0 106.479119,0" id="Fill-1" fill="#DEE7F5"></path>
                                    <path d="M99.880503,12 L20.119497,12 C18.9490085,12 18,12.8956453 18,13.9996833 C18,15.1043547 18.9490085,16 20.119497,16 L99.880503,16 C101.050992,16 102,15.1043547 102,13.9996833 C102,12.8956453 101.050992,12 99.880503,12" id="Fill-2" fill="#CBDAF1"></path>
                                    <path d="M39.4448937,24 L18.5551063,24 C18.2485498,24 18,24.8956453 18,26.0003167 C18,27.1043547 18.2485498,28 18.5551063,28 L39.4448937,28 C39.7514502,28 40,27.1043547 40,26.0003167 C40,24.8956453 39.7514502,24 39.4448937,24" id="Fill-4" fill="#CBDAF1"></path>
                                </g>
                            </g>
                        </g>
                    </g>
                    <g id="Group-14" transform="translate(128.000000, 93.000000)">
                        <g id="Group-22" filter="url(#filter-3)">
                            <path d="M14.479091,89.6353591 C14.479091,89.6353591 16.180105,85.5942594 13.2347829,85.0204156 C10.3058333,84.4499674 10.2903226,88.623917 10.2903226,88.623917 L14.479091,89.6353591 Z" id="Fill-1" fill="#FCDABB"></path>
                            <polygon id="Fill-2" fill="#F5F6F6" points="9.35483871 89.0741003 9.57076956 87.7679558 14.0322581 89.2830031 13.7497621 90.5690608"></polygon>
                            <path d="M12.1567182,91.1009613 C12.1924957,90.8452138 12.014412,90.6095093 11.7587432,90.5734321 C11.5027126,90.5385574 11.2662994,90.7161375 11.230562,90.9710833 C11.1939403,91.2252273 11.3728683,91.4617335 11.6280948,91.4982116 C11.8838038,91.533888 12.1209406,91.355907 12.1567182,91.1009613 Z" id="Fill-3" fill="#808181"></path>
                            <path d="M13.0921151,91.1009028 C13.1282969,90.8453351 12.9498003,90.6094265 12.693714,90.5737192 C12.4384318,90.5376107 12.2016424,90.7153446 12.1658627,90.9705111 C12.130083,91.22648 12.3081775,91.4619875 12.563902,91.498096 C12.8195461,91.5342044 13.0563354,91.3568717 13.0921151,91.1009028 Z" id="Fill-4" fill="#808181"></path>
                            <path d="M169.740295,115.812091 C168.86388,109.217686 167.886893,102.660712 166.57706,96.1368337 C165.364207,90.0995474 163.990917,84.0827492 162.46637,78.0911671 L162.179819,76.9521085 C159.838323,67.86722 157.151608,58.8564037 154.140029,49.9547259 L153.778049,48.8814656 C150.665498,39.7508729 147.211721,30.7408446 143.454631,21.9049651 C140.721621,15.4768292 138.000584,8.42065481 133.76378,2.76594406 C130.634068,-1.41283675 125.643372,-0.206797895 121.684738,2.13002551 C121.343511,2.33136032 121.008669,2.54096916 120.677419,2.75530602 L121.267682,3.66032766 C125.058297,9.48958111 127.559831,16.2959585 130.150364,22.6949382 C133.662409,31.3558811 136.926616,40.1208403 140.073089,48.9192897 C142.161958,54.7654853 144.309893,60.6278348 146.065916,66.5819868 C148.887924,76.1664694 151.204278,85.9207666 153.41966,95.6585158 C155.921594,106.660616 158.490575,117.828985 159.606847,129.07576 L159.725777,130.316077 C160.782584,130.534748 161.841386,130.686833 162.892206,130.714413 C164.635856,130.764451 166.396269,130.327503 167.688941,129.125798 C171.172252,125.899319 170.283465,119.936893 169.740295,115.812091 Z" id="Fill-5" fill="#92B9FF"></path>
                            <path d="M158.914734,128.549827 C157.811662,117.353955 155.273059,106.236135 152.800711,95.2838306 C150.611526,85.5901549 148.322564,75.8800061 145.533926,66.3389033 C143.798668,60.4117001 141.676132,54.5758838 139.611965,48.7561484 C136.502699,39.9975212 133.277091,31.2722325 129.806576,22.6504895 C127.246677,16.2804718 124.774723,9.50490043 121.028933,3.70203044 L120.44565,2.80110497 C116.194269,5.56977407 112.70995,9.37429173 109.209068,12.9979968 C91.8079835,30.9949342 73.7037252,49.1118904 51.5582886,61.3224311 C48.7759608,62.8520825 45.9325045,64.266814 43.0322581,65.5587811 L43.3217306,66.6330671 C47.2840336,82.581056 51.849733,98.367451 56.5566193,114.113055 L56.8855295,115.169299 C70.3874113,113.387844 84.0494101,112.756764 97.5974339,114.444088 C109.583332,115.934125 121.220206,119.207971 132.794768,122.527707 C139.445143,124.435849 146.095913,126.343991 152.788486,128.095246 C154.806117,128.627094 156.915244,129.343285 159.032258,129.78453 L158.914734,128.549827 Z" id="Fill-6" fill="url(#linearGradient-4)"></path>
                            <polygon id="Fill-14" fill="#92B9FF" transform="translate(77.459201, 51.101240) rotate(-66.000000) translate(-77.459201, -51.101240) " points="74.7516438 48.6012403 80.9592008 51.9694104 80.1667578 53.6012403 73.9592008 50.2330701"></polygon>
                            <polygon id="Fill-13" fill="#92B9FF" transform="translate(103.089192, 28.592269) rotate(109.000000) translate(-103.089192, -28.592269) " points="84.968781 18.0922691 122.089192 37.3597885 121.209604 39.0922691 84.0891924 19.8247496"></polygon>
                            <path d="M56.7376292,115.000439 C52.0596973,99.2051057 47.5220838,83.3688533 43.5841549,67.3704965 L43.2964631,66.2928177 C43.121653,66.3711156 42.9488028,66.4541351 42.7736008,66.5316461 C32.9831029,68.877437 23.2294091,71.368807 13.5176541,74.0262158 C9.97285176,74.9937267 5.50970887,75.604372 2.61397693,78.087086 C-0.289594032,80.5741279 -0.0994979307,84.5728318 0.0992210861,88.0690911 C0.554275876,96.0995493 2.77118836,103.997019 6.48174667,111.118198 C8.38039517,114.767512 10.688201,118.20554 13.343628,121.344933 C14.2952843,122.469827 15.2837841,123.765481 16.8057679,124.076706 C18.6671027,124.459146 20.9506076,123.703315 22.7704348,123.391697 C22.8119816,123.387762 22.8488642,123.3795 22.8903718,123.370844 L23.9823857,123.180017 C32.1847384,121.743505 40.3372351,120.028426 48.4278819,118.048157 L49.4990833,117.786508 C51.4513898,117.300589 53.3997769,116.806406 55.347772,116.291371 C55.9196281,116.211106 56.4922681,116.136349 57.0645161,116.060018 L56.7376292,115.000439 Z" id="Fill-7" fill="#FCB74B"></path>
                            <path d="M172.06479,57.1751651 C173.411281,60.8845136 175.108533,65.5190173 173.020019,69.2704183 C170.850885,73.1765408 165.725888,74.9308445 162.286299,77.3421194 C162.237773,77.3758407 162.104805,77.4512178 162.052076,77.4972376 C159.810344,68.3496271 157.238103,59.276997 154.354839,50.3134654 C157.600708,50.003229 160.842374,49.5430318 164.105055,49.4966153 C165.697231,49.4716218 167.125108,49.4006086 168.342452,50.5768887 C170.185281,52.3561858 171.193239,54.7761886 172.06479,57.1751651 Z" id="Fill-8" fill="#3468FE"></path>
                            <path d="M161.83871,76.5635359 C161.532311,75.6290314 161.21975,74.6955591 160.903226,73.7631191 C160.903226,73.762775 160.904106,73.7624309 160.904546,73.7624309 C161.22107,74.694871 161.532751,75.6293755 161.83871,76.5635359 Z" id="Fill-9" fill="#C15629"></path>
                            <path d="M173.064516,69.0939227 C173.065304,69.0923863 173.066092,69.0912341 173.066879,69.0893137 C173.066092,69.09085 173.065304,69.0923863 173.064516,69.0939227 Z M173.074757,69.0758708 C173.076333,69.0735663 173.077121,69.0716459 173.078696,69.0697255 C173.077514,69.0716459 173.075939,69.0739504 173.074757,69.0758708 Z M173.084211,69.0597394 C173.08618,69.0562827 173.088149,69.05321 173.090119,69.0497533 C173.088149,69.052826 173.08618,69.0562827 173.084211,69.0597394 Z M173.094058,69.0424558 C173.097209,69.0370786 173.10036,69.0320856 173.103511,69.0267084 C173.10036,69.0320856 173.097209,69.0374627 173.094058,69.0424558 Z M173.105087,69.0236358 C173.595477,68.1694389 173.873168,67.2691524 173.993304,66.3450527 C173.873168,67.2691524 173.595477,68.1694389 173.105087,69.0236358 Z M173.993304,66.3442846 C173.994092,66.3381393 173.994879,66.331994 173.995667,66.3258487 C173.994879,66.331994 173.994092,66.3381393 173.993304,66.3442846 Z M173.996455,66.3193193 C173.996849,66.3166307 173.997243,66.3143262 173.997637,66.3112536 C173.997243,66.3139422 173.996849,66.3166307 173.996455,66.3193193 Z M173.999606,66.2962744 C173.999606,66.2951222 173.999606,66.2935858 174,66.2928177 C173.999606,66.2939699 173.999606,66.2947381 173.999606,66.2962744 Z" id="Fill-10" fill="#85A898"></path>
                            <path d="M161.857688,76.5635359 C161.814586,76.3966752 161.770707,76.2298144 161.727217,76.0629537 C161.457342,75.033347 161.18242,74.0033611 160.903226,72.9756506 C165.769509,70.596368 171.756062,66.2102056 172.670529,58.8232044 C173.498791,61.0902352 174.223764,63.5794942 173.935639,65.9185786 C173.93525,65.919337 173.93525,65.9208539 173.93525,65.9219916 C173.934474,65.9265424 173.933697,65.9318516 173.933309,65.9367815 C173.93292,65.9398154 173.932532,65.9420908 173.932144,65.9447454 C173.932144,65.9470207 173.931755,65.9489169 173.931367,65.9511923 C173.930591,65.9572599 173.929814,65.9633276 173.929037,65.9693952 C173.929037,65.9697745 173.929037,65.9701537 173.929037,65.9701537 C173.810603,66.8825786 173.536846,67.7714913 173.053401,68.6148966 C173.053013,68.6160343 173.052237,68.6167927 173.051848,68.6179304 C173.048742,68.6232396 173.045635,68.6281696 173.042529,68.6334788 C173.041364,68.6357542 173.039811,68.6384088 173.038646,68.6406841 C173.036704,68.6440972 173.034763,68.647131 173.032821,68.6505441 C173.03088,68.6539572 173.029326,68.656991 173.027385,68.6604041 C173.025832,68.6623002 173.025055,68.6641963 173.023502,68.6664717 C173.021172,68.6710225 173.018454,68.6755732 173.015736,68.6797447 C173.014959,68.6816409 173.014182,68.6827786 173.013406,68.6842955 C173.010299,68.6892255 173.007193,68.6945347 173.004086,68.6994646 C170.799658,72.4333531 165.591275,74.1103037 162.095721,76.4152574 C162.046406,76.4474918 161.911275,76.5195454 161.857688,76.5635359 Z" id="Fill-11" fill="#3468FE"></path>
                            <path d="M29.5114842,81.1939504 C27.497479,78.9794847 21.6189377,81.4896247 19.4410494,82.1304341 C17.3620631,82.6563197 14.2397011,83.2163915 12.7386378,84.7787736 C11.7119774,85.8414553 12.0487347,87.5263985 13.7955001,87.7453357 C14.7399329,87.86426 15.8916104,87.4842113 16.7927633,87.3041882 C18.7855168,86.9085011 20.7692793,86.4557158 22.722799,85.9338307 C24.1335835,85.5577825 31.8017613,83.7153645 29.5114842,81.1939504 Z" id="Fill-12" fill="#D9890D"></path>
                            <path d="M23.2477535,91.1048238 C21.196058,91.7420764 19.066128,92.2201999 17.0637201,92.9977953 C15.9535748,93.4331898 15.0867383,93.8877387 14.9791661,95.1125159 C14.6654464,98.7588526 20.9030703,96.3796538 22.6077966,95.8937948 C24.7216885,95.2952195 26.8887798,94.6690176 28.9404754,93.9072615 C30.087782,93.4799708 31.4748768,92.8615043 31.7475235,91.5943664 C32.5689841,87.7458033 24.5523112,90.6808483 23.2477535,91.1048238 Z" id="Fill-13" fill="#D9890D"></path>
                            <path d="M66.3567773,146.94968 C58.9758341,138.477009 54.1896674,128.020209 50.1826441,117.646409 L49.1039212,117.907996 C40.9564651,119.887798 32.7467248,121.602472 24.4867784,123.038645 L23.3870968,123.229427 C25.6822938,130.726948 28.2565458,138.049422 31.6885265,145.110703 C34.9459696,151.823462 37.9409748,158.594047 42.2810878,164.695912 C44.018175,167.141064 45.6925045,169.445391 49.0830019,168.92615 C53.3525026,168.266085 57.0346855,164.916196 60.692002,162.824285 C63.553203,161.180023 67.6439033,159.333178 69.3932263,156.373112 C71.571986,152.678636 68.6559214,149.589941 66.3567773,146.94968 Z" id="Fill-14" fill="#3468FE"></path>
                            <path d="M46.6735925,169 C44.6148445,168.999242 43.2883277,167.759862 42.0967742,166.198895 C43.2883277,167.759862 44.6148445,168.999242 46.6735925,169 C46.9535852,169 47.2466269,168.976515 47.5553272,168.92841 C47.570986,168.926137 47.5866447,168.923864 47.6023034,168.920834 C47.5866447,168.923864 47.570986,168.926137 47.5553272,168.92841 C47.2466269,168.976515 46.9535852,169 46.6735925,169 Z M47.6026762,168.920834 C47.6097599,168.920077 47.6168436,168.91894 47.6239273,168.917425 C47.6168436,168.91894 47.6097599,168.920077 47.6026762,168.920834 Z M47.6269099,168.917046 C47.6328752,168.91591 47.6392132,168.915152 47.6451784,168.914016 C47.6392132,168.915152 47.6328752,168.91591 47.6269099,168.917046 Z M47.6515165,168.91288 C47.6567361,168.912122 47.6615828,168.910986 47.6668024,168.910228 C47.6619556,168.910986 47.6567361,168.912122 47.6515165,168.91288 Z M47.6776143,168.908334 C47.6809698,168.907956 47.684698,168.907198 47.6880535,168.907198 C47.684698,168.907198 47.6813426,168.907956 47.6776143,168.908334 Z M47.7055763,168.904168 C47.7066948,168.90341 47.7085589,168.903031 47.7096774,168.903031 C47.7081861,168.903031 47.7070676,168.90341 47.7055763,168.904168 Z" id="Fill-15" fill="#7EA08E"></path>
                            <path d="M52.3855497,121.381215 C51.766707,120.177331 51.1643668,118.971007 50.5749191,117.765903 C51.1643668,118.971007 51.7682541,120.176924 52.3870968,121.380809 L52.3855497,121.381215 Z M50.5697621,117.755336 C50.5517125,117.718756 50.5341786,117.682989 50.516129,117.646409 C50.5341786,117.682582 50.5517125,117.719162 50.5697621,117.755336 Z" id="Fill-16" fill="#85A898"></path>
                            <path d="M48.1273377,169 C45.9497419,168.999213 44.5466477,167.712138 43.2863079,166.0911 C42.9392807,165.644636 42.6029009,165.172997 42.264155,164.695457 C37.9279316,158.593651 34.9356106,151.823132 31.6810868,145.110437 C28.2521818,138.049225 25.6802369,130.726822 23.3870968,123.229373 L24.4857928,123.038593 C32.7383367,121.602434 40.9407194,119.887776 49.0808738,117.907993 L50.1586299,117.646409 C50.1724322,117.681811 50.18584,117.716427 50.1996422,117.751829 C50.2008253,117.75537 50.2020083,117.75891 50.2035857,117.762057 C50.6543268,118.92837 51.1149265,120.095864 51.5881455,121.260997 L50.5297125,121.565065 C43.8502272,123.356821 33.8196026,127.02648 34.079873,132.865129 C34.3693252,139.367769 45.8736325,157.850593 51.734449,166.872314 L52.3870968,167.88089 C51.3641552,168.348202 50.3132148,168.712454 49.2232338,168.8993 C49.2220508,168.8993 49.220079,168.899693 49.218896,168.90048 C49.2125864,168.900873 49.2066712,168.902053 49.2003616,168.903627 C49.1968124,168.903627 49.192869,168.904413 49.1893198,168.904807 C49.1857707,168.905594 49.1818272,168.906774 49.1778837,168.906774 C49.1723628,168.90756 49.1672363,168.90874 49.1617154,168.909527 C49.1597436,168.90992 49.1573775,168.910707 49.1550114,168.910707 C49.1487019,168.911887 49.1419979,168.912674 49.1356883,168.913854 C49.1345053,168.913854 49.1337166,168.914247 49.1325335,168.914247 C49.1250409,168.915821 49.1175483,168.917001 49.1100556,168.917788 L49.1096613,168.917788 C49.0930986,168.920935 49.076536,168.923295 49.0599733,168.925655 C48.7334522,168.975612 48.4234938,169 48.1273377,169 Z" id="Fill-17" fill="#3468FE"></path>
                            <path d="M163.218869,131.651934 C163.131038,131.651934 163.043602,131.650737 162.956166,131.648344 C161.91445,131.620422 160.864822,131.466452 159.817172,131.24507 C157.693387,130.796324 155.577514,130.067958 153.553429,129.527069 C146.839449,127.746044 140.167407,125.805464 133.49576,123.864885 C121.884176,120.488715 110.21008,117.159215 98.1858449,115.643848 C92.6773746,114.948191 87.1518919,114.640251 81.624431,114.640251 C73.5130572,114.640251 65.3993096,115.303997 57.3437208,116.381387 C56.7660891,116.458771 56.1880617,116.53456 55.6108256,116.615932 C53.6445039,117.138074 51.6777866,117.639074 49.7071128,118.131698 L48.6258337,118.396958 C40.4590706,120.40455 32.2298757,122.143293 23.9503557,123.599625 L22.8480682,123.793085 C22.8061701,123.801861 22.7689406,123.810237 22.7270029,123.814226 C21.2465249,124.068715 19.4625924,124.615987 17.8424541,124.615987 C17.4519592,124.615987 17.0709992,124.584076 16.7062208,124.508686 C15.1699182,124.193168 14.1721187,122.879637 13.2115093,121.739222 C13.2020139,121.727654 13.192123,121.716087 13.182232,121.704519 C13.192123,121.716087 13.2016579,121.727654 13.2115093,121.739222 C14.1721187,122.879637 15.1699182,124.193168 16.7062208,124.508686 C17.0709992,124.584076 17.4519592,124.615987 17.8424541,124.615987 C19.4625924,124.615987 21.2465249,124.068715 22.7270029,123.814226 C22.7689406,123.810237 22.8061701,123.801861 22.8480682,123.793085 L23.9503557,123.599625 C32.2298757,122.143293 40.4590706,120.40455 48.6258337,118.396958 L49.7071128,118.131698 C51.6777866,117.639074 53.6445039,117.138074 55.6108256,116.615932 C56.1880617,116.53456 56.7660891,116.458771 57.3437208,116.381387 L57.0137586,115.307188 C55.8331743,111.30397 54.6616896,107.298757 53.5064262,103.288359 C54.6616896,107.298757 55.8331743,111.30397 57.0137586,115.307188 L57.3437208,116.381387 C65.3993096,115.303997 73.5130572,114.640251 81.624431,114.640251 C87.1518919,114.640251 92.6773746,114.948191 98.1858449,115.643848 C110.21008,117.159215 121.884176,120.488715 133.49576,123.864885 C140.167407,125.805464 146.839449,127.746044 153.553429,129.527069 C155.577514,130.067958 157.693387,130.796324 159.817172,131.24507 L159.699272,129.989378 C158.809086,120.828566 156.986381,111.718811 155.016103,102.707182 C156.986381,111.718811 158.809086,120.828566 159.699272,129.989378 L159.817172,131.24507 C160.864822,131.466452 161.91445,131.620422 162.956166,131.648344 C163.043602,131.650737 163.131038,131.651934 163.218869,131.651934 C164.860372,131.651934 166.494753,131.195209 167.711341,130.040036 C169.714457,128.145328 170.258855,125.318424 170.258064,122.4632 C170.258855,125.318424 169.714457,128.145328 167.711341,130.040036 C166.494753,131.195209 164.860372,131.651934 163.218869,131.651934 Z M13.1751106,121.696142 C13.1679891,121.687367 13.1605115,121.678192 13.1529548,121.669417 C13.1605115,121.678591 13.167633,121.686968 13.1751106,121.696142 Z M13.1446464,121.659445 C13.1379206,121.651467 13.1307991,121.64309 13.1240732,121.635113 C13.1307991,121.64309 13.1379206,121.651467 13.1446464,121.659445 Z M13.1141823,121.623146 C13.1082477,121.616365 13.1027483,121.609185 13.0967742,121.602404 C13.1023131,121.609185 13.1086433,121.616365 13.1141823,121.623146 Z M169.744921,116.561285 C169.706148,116.263317 169.66698,115.96535 169.627812,115.667382 C169.66698,115.96535 169.706148,116.263317 169.744921,116.561285 Z" id="Fill-18" fill="#85A898"></path>
                            <path d="M162.913478,131.651934 C162.821835,131.651934 162.730606,131.650737 162.639377,131.648344 C161.552467,131.620422 160.457301,131.466452 159.3642,131.24507 L159.241185,129.989378 C158.312378,120.828566 156.410596,111.718811 154.354839,102.707182 C159.251505,103.96447 163.945897,105.492602 168.372794,107.324286 C168.813254,110.099335 169.217801,112.879968 169.600469,115.667382 C169.641336,115.96535 169.682204,116.263317 169.722658,116.561285 C169.958369,118.314787 170.257651,120.396572 170.258064,122.4632 C170.258889,125.318424 169.690873,128.145328 167.600852,130.040036 C166.331484,131.195209 164.626196,131.651934 162.913478,131.651934 Z" id="Fill-19" fill="#92B9FF"></path>
                            <path d="M159.032258,129.78453 C156.92048,129.346571 154.81657,128.635714 152.803929,128.107827 C146.127909,126.369615 139.49359,124.475684 132.859664,122.581753 C121.31373,119.286741 109.705639,116.037276 97.7493871,114.558336 C92.2720611,113.879402 86.7778188,113.578864 81.2816095,113.578864 C73.2160965,113.578864 65.1482231,114.226655 57.1381796,115.278147 L56.810083,114.229769 C55.6361736,110.322782 54.4713124,106.413848 53.3225806,102.499854 C71.1774911,99.4742355 91.4852585,97.1049724 111.309142,97.1049724 C126.32881,97.1049724 141.076637,98.4663449 154.258334,101.932648 C156.217472,110.727651 158.029872,119.618422 158.915024,128.559023 L159.032258,129.78453 Z" id="Fill-20" fill="#2A7FF0"></path>
                            <path d="M17.9861139,123.248619 C17.5905514,123.248619 17.2046476,123.217884 16.8351354,123.145274 C15.2788958,122.841386 14.2681476,121.576275 13.295072,120.477899 C13.2850927,120.466758 13.2754341,120.455617 13.2654148,120.444475 C13.2630102,120.441402 13.2610063,120.439097 13.2582009,120.436407 C13.2506263,120.427571 13.2434124,120.419503 13.2357576,120.410667 C13.2329522,120.407594 13.2301468,120.404136 13.2273414,120.401063 C13.2205283,120.393379 13.2133144,120.385311 13.2065012,120.377628 C13.2032951,120.373786 13.2000889,120.369944 13.1964819,120.366102 C13.1908711,120.359571 13.1844588,120.352656 13.1788479,120.346125 C11.0475399,117.924242 9.14186673,115.320257 7.48387097,112.578736 C17.4899575,109.973214 34.3155887,105.956977 54.1129077,102.707182 C55.2831633,106.569747 56.4698507,110.427317 57.6657557,114.282966 L58,115.317568 C57.4148722,115.392099 56.8293436,115.465094 56.2446165,115.543467 C54.2527773,116.046361 52.2605373,116.528894 50.2642895,117.003358 L49.1689783,117.258839 C40.8962328,119.192427 32.5602453,120.867075 24.1732795,122.269723 L23.0566873,122.456052 C23.0142455,122.464504 22.9765328,122.472571 22.9340509,122.476413 C21.4343603,122.721521 19.6272772,123.248619 17.9861139,123.248619 Z" id="Fill-21" fill="#FCB74B"></path>
                        </g>
                        <g id="Group-4" transform="translate(197.000000, 52.000000) rotate(-7.000000) translate(-197.000000, -52.000000) translate(182.000000, 31.000000)" fill="#FCB74B">
                            <path d="M3.80965714,33.430425 C3.63651429,33.430425 3.45994286,33.393675 3.29194286,33.31755 C2.64222857,33.0253 2.34737143,32.25005 2.63451429,31.5868 C7.02565714,21.4333 0.435942857,14.404425 0.368228571,14.334425 C-0.129771429,13.8173 -0.1212,12.98605 0.385371429,12.47855 C0.893657143,11.97105 1.70794286,11.9798 2.20422857,12.49605 C2.28308571,12.579175 10.0736571,20.8838 4.98651429,32.6473 C4.7748,33.138175 4.30337143,33.430425 3.80965714,33.430425 Z" id="Fill-1"></path>
                            <path d="M12.6322286,35.91105 C12.4590857,35.91105 12.2825143,35.8743 12.1145143,35.798175 C11.4648,35.505925 11.1699429,34.73155 11.4570857,34.067425 C17.6156571,19.825925 8.61908571,10.146675 8.23337143,9.74155 C7.73965714,9.222675 7.74908571,8.3923 8.25651429,7.88655 C8.76222857,7.38255 9.57394286,7.3878 10.0719429,7.9058 C10.1782286,8.016925 20.6885143,19.220425 13.8090857,35.127925 C13.5973714,35.6188 13.1259429,35.91105 12.6322286,35.91105 Z" id="Fill-2"></path>
                            <path d="M24.4959429,41.564425 C24.3228,41.564425 24.1462286,41.527675 23.9773714,41.45155 C23.3285143,41.1593 23.0336571,40.38405 23.3208,39.7208 C32.8153714,17.7653 18.9159429,2.85355 18.3202286,2.229675 C17.8248,1.7108 17.8333714,0.880424999 18.3408,0.373799999 C18.8490857,-0.131950001 19.6599429,-0.123200001 20.1570857,0.392174999 C20.3156571,0.557549999 35.8882286,17.1598 25.6728,40.7813 C25.4610857,41.272175 24.9896571,41.564425 24.4959429,41.564425 Z" id="Fill-3"></path>
                        </g>
                    </g>
                </g>
            </g>
        </g>
    </g>
</svg>