<?xml version="1.0" encoding="UTF-8"?>
<svg width="451px" height="297px" viewBox="0 0 451 297" version="1.1" xmlns="http://www.w3.org/2000/svg" xmlns:xlink="http://www.w3.org/1999/xlink">
    <!-- Generator: Sketch 51.2 (57519) - http://www.bohemiancoding.com/sketch -->
    <title>Group 15</title>
    <desc>Created with Sketch.</desc>
    <defs>
        <path d="M393.456375,196.502199 C297.659162,216.404453 124.283402,237.191585 24.4375,156.539063 C-10.0989131,128.641584 -8.58203125,86.5139447 34.2304688,71.7485641 C249.769371,-2.58752794 331.987482,-18.2029861 405.940583,20.909648 C472.656567,56.194685 460.960887,182.477866 393.456375,196.502199 Z" id="path-1"></path>
        <filter x="-21.1%" y="-15.0%" width="142.2%" height="142.0%" filterUnits="objectBoundingBox" id="filter-3">
            <feOffset dx="0" dy="12" in="SourceAlpha" result="shadowOffsetOuter1"></feOffset>
            <feGaussianBlur stdDeviation="12" in="shadowOffsetOuter1" result="shadowBlurOuter1"></feGaussianBlur>
            <feColorMatrix values="0 0 0 0 0.0592732788   0 0 0 0 0.203845608   0 0 0 0 0.620881165  0 0 0 0.243064991 0" type="matrix" in="shadowBlurOuter1" result="shadowMatrixOuter1"></feColorMatrix>
            <feMerge>
                <feMergeNode in="shadowMatrixOuter1"></feMergeNode>
                <feMergeNode in="SourceGraphic"></feMergeNode>
            </feMerge>
        </filter>
        <linearGradient x1="62.9676633%" y1="30.6856377%" x2="33.6036761%" y2="78.7628228%" id="linearGradient-4">
            <stop stop-color="#3468FE" offset="0%"></stop>
            <stop stop-color="#268AEA" offset="100%"></stop>
        </linearGradient>
        <path d="M83.261886,140.492326 L98.8942713,109.766156 C100.68428,106.244615 99.7342957,101.779025 96.4300796,99.6453644 C94.3372291,98.293864 91.8874584,98.1192422 89.7765816,98.8977646 C84.5129095,100.842252 78.6525676,97.155184 77.7224118,91.5781986 C77.2032551,88.4677468 77.6358857,85.1681214 79.1717243,82.1467995 C80.7111681,79.1254777 83.1158732,76.8462987 85.9243667,75.4584188 C90.9573026,72.9718763 97.3404064,75.6275837 98.8437977,81.0754217 C99.4476779,83.2618328 101.014161,85.1681214 103.321524,86.0958 C106.964634,87.561896 111.117888,85.7374614 112.907897,82.2159207 L128.541004,51.4915694 L98.0902995,35.7173953 C94.6004127,33.9093316 92.79418,29.722045 94.2452951,26.0440722 C95.1664377,23.7157809 97.0537887,22.1332703 99.2205469,21.5257318 C104.619416,20.0068855 107.253055,13.5658856 104.785258,8.4854811 C103.413458,5.65333292 101.154766,3.22681675 98.1606019,1.6770478 C95.1664377,0.125459876 91.8964715,-0.312913735 88.8157812,0.210951825 C83.2889254,1.15136326 79.6331969,7.06485957 81.5602057,12.3762743 C82.3299276,14.5081161 82.158678,16.9782877 80.8193258,19.0901207 C78.7048438,22.4224878 74.2775907,23.382908 70.787704,21.5766632 L40.337721,5.80248908 L1.57942803,81.9940054 C-2.02222163,89.0680095 0.744811515,97.7481707 7.7552297,101.380669 L83.261886,140.492326 Z" id="path-5"></path>
        <filter x="-27.6%" y="-21.7%" width="155.2%" height="150.5%" filterUnits="objectBoundingBox" id="filter-6">
            <feOffset dx="0" dy="5" in="SourceAlpha" result="shadowOffsetOuter1"></feOffset>
            <feGaussianBlur stdDeviation="11" in="shadowOffsetOuter1" result="shadowBlurOuter1"></feGaussianBlur>
            <feColorMatrix values="0 0 0 0 0.04641684   0 0 0 0 0.243462195   0 0 0 0 0.811862245  0 0 0 0.480865036 0" type="matrix" in="shadowBlurOuter1"></feColorMatrix>
        </filter>
    </defs>
    <g id="Page-1" stroke="none" stroke-width="1" fill="none" fill-rule="evenodd">
        <g id="product" transform="translate(-764.000000, -2630.000000)">
            <g id="1" transform="translate(220.000000, 2630.000000)">
                <g id="Group-15" transform="translate(544.000000, 0.000000)">
                    <g id="Group-20" transform="translate(0.000000, 40.000000)">
                        <mask id="mask-2" fill="white">
                            <use xlink:href="#path-1"></use>
                        </mask>
                        <use id="Mask" fill="#EDF5FF" xlink:href="#path-1"></use>
                        <g mask="url(#mask-2)">
                            <g transform="translate(330.000000, 149.000000) scale(-1, 1) translate(-330.000000, -149.000000) translate(227.000000, 94.000000)">
                                <polygon id="Fill-6" fill="#E7E7E6" points="205.608232 105.267217 205.452813 105.267217 187.688071 105.267217 205.452813 105.267217 205.452813 0 205.608232 0"></polygon>
                                <polygon id="Fill-8" fill="#DEE7F5" points="0.459545536 109.267217 0.459545536 64.3250609 16.3600786 49.5772348 25.5565071 61.0464348 31.059742 53.9352174 58.6490277 86.4468 73.3485991 74.8301217 84.5644714 85.8329217 112.796955 42.2033217 135.914018 75.7352696 151.242625 61.0464348 168.163134 75.7352696 205.141973 13.9372696 205.141973 109.267217"></polygon>
                                <path d="M0.772132142,52.367687 L1.44715,51.7418261 C1.63300982,51.5685391 1.64496518,51.2772696 1.47198036,51.0901565 C1.30009911,50.9039652 1.00857232,50.8919826 0.821792857,51.0652696 L0.147694642,51.6911304 C-0.0389928578,51.8644174 -0.0500285721,52.155687 0.122036607,52.3428 C0.294837499,52.529913 0.585444642,52.5409739 0.772132142,52.367687 Z M4.14722143,49.2374609 L4.82131964,48.6116 C5.00800714,48.438313 5.01904286,48.1470435 4.84716161,47.9599304 C4.67417679,47.7737391 4.38356964,47.7617565 4.19688214,47.9350435 L3.52186429,48.5609043 C3.33618839,48.7341913 3.32423304,49.0254609 3.49703393,49.2125739 C3.66992679,49.3987652 3.96062589,49.4107478 4.14722143,49.2374609 Z M7.52139107,46.1072348 L8.19640893,45.4813739 C8.38309643,45.308087 8.39422411,45.0168174 8.22215893,44.8297043 C8.04935804,44.643513 7.75865893,44.6315304 7.57197143,44.8048174 L6.89704554,45.4306783 C6.71035804,45.6039652 6.69923036,45.8952348 6.87212321,46.0823478 C7.04409643,46.2685391 7.33571518,46.2805217 7.52139107,46.1072348 Z M10.8965723,42.9770087 L11.5714982,42.3511478 C11.7581857,42.1778609 11.7692214,41.8865913 11.5964205,41.6994783 C11.4243554,41.513287 11.1328286,41.5013043 10.9471527,41.6745913 L10.2720429,42.3004522 C10.0853554,42.4737391 10.0743196,42.7650087 10.2462929,42.9521217 C10.4191857,43.1392348 10.7098848,43.1502957 10.8965723,42.9770087 Z M14.2715696,39.8467826 L14.9466795,39.2209217 C15.1323554,39.0476348 15.1443107,38.7563652 14.9714179,38.5692522 C14.798525,38.3830609 14.5080098,38.3710783 14.3213223,38.5443652 L13.6471321,39.1702261 C13.4604446,39.343513 13.4495009,39.6347826 13.6213821,39.8218957 C13.794367,40.008087 14.0848821,40.0200696 14.2715696,39.8467826 Z M16.832775,38.6070435 L17.4085634,39.326 C17.5675696,39.5241739 17.8572571,39.555513 18.0550723,39.3960522 C18.2537152,39.2365913 18.284983,38.9471652 18.1257929,38.7480696 L17.5500964,38.0300348 C17.3909982,37.8318609 17.1013107,37.7996 16.9035875,37.9590609 C16.7049446,38.1185217 16.6736768,38.4088696 16.832775,38.6070435 Z M19.7130964,42.1999826 L20.2898045,42.9180174 C20.4488107,43.1161913 20.7376705,43.1484522 20.9363134,42.9889913 C21.1339446,42.8295304 21.1652125,42.5391826 21.0061143,42.3410087 L20.4305098,41.6220522 C20.2713196,41.4238783 19.9816321,41.3925391 19.7840009,41.552 C19.585358,41.7114609 19.5540902,42.000887 19.7130964,42.1999826 Z M22.5935098,45.792 L23.1701259,46.5100348 C23.3291321,46.7091304 23.6188196,46.7404696 23.8165429,46.5810087 C24.0142661,46.4215478 24.0455339,46.1312 23.8865277,45.9330261 L23.3107393,45.2149913 C23.151733,45.0158957 22.8620455,44.9845565 22.6642304,45.1440174 C22.4665991,45.3034783 22.4343196,45.5938261 22.5935098,45.792 Z M26.190233,48.6844174 L26.7538821,47.9562435 C26.9093937,47.7543826 26.8725161,47.4649565 26.6721259,47.3091826 C26.4715518,47.1534087 26.1827839,47.1902783 26.0264446,47.3912174 L25.4636232,48.1193913 C25.3072839,48.3203304 25.3440696,48.6097565 25.5445518,48.7655304 C25.7459536,48.9222261 26.0348134,48.8853565 26.190233,48.6844174 Z M29.0079268,45.0426261 L29.5717598,44.3144522 C29.7270875,44.1125913 29.6912214,43.8231652 29.4898196,43.6673913 C29.2894295,43.5116174 29.0005696,43.548487 28.84515,43.7494261 L28.2815009,44.4776 C28.1259893,44.6785391 28.1619473,44.9679652 28.3632571,45.1237391 C28.5638312,45.2804348 28.8525071,45.2435652 29.0079268,45.0426261 Z M31.1360723,42.4405565 L31.7309893,43.142 C31.8956054,43.336487 32.1862125,43.3595304 32.3793375,43.1945391 C32.5733821,43.0295478 32.5964652,42.7392 32.4318491,42.5456348 L31.8358286,41.8432696 C31.6712125,41.6487826 31.381525,41.6257391 31.1874804,41.7907304 C30.9944473,41.9557217 30.9713643,42.2460696 31.1360723,42.4405565 Z M34.1147036,45.9505391 L34.7106321,46.6529043 C34.8752482,46.8464696 35.1649357,46.8704348 35.3589804,46.7054435 C35.5521973,46.5404522 35.5750964,46.2501043 35.4114,46.0556174 L34.8154714,45.3532522 C34.6508554,45.159687 34.3602482,45.1366435 34.1671232,45.3016348 C33.9740902,45.4657043 33.9501795,45.7569739 34.1147036,45.9505391 Z M37.0934268,49.4614435 L37.6893554,50.1638087 C37.8540634,50.3573739 38.1445786,50.3813391 38.3377955,50.2163478 C38.5308286,50.0513565 38.5547393,49.760087 38.3902152,49.5665217 L37.7941946,48.8641565 C37.6295786,48.6705913 37.3398911,48.6466261 37.1458464,48.8116174 C36.9528134,48.9766087 36.9289027,49.2678783 37.0934268,49.4614435 Z M40.0730696,52.9723478 L40.6689982,53.674713 C40.8336143,53.8682783 41.1233018,53.8913217 41.3165187,53.7263304 C41.5105634,53.5622609 41.5334625,53.2709913 41.3688464,53.0774261 L40.7730098,52.3750609 C40.6083018,52.1814957 40.3186143,52.1575304 40.1254893,52.3225217 C39.9314446,52.487513 39.9085455,52.7778609 40.0730696,52.9723478 Z M43.0517929,56.4823304 L43.6477214,57.1846957 C43.8124295,57.3791826 44.102117,57.4022261 44.2961616,57.2372348 C44.4891946,57.0722435 44.5131054,56.7818957 44.3485812,56.5874087 L43.7526527,55.8859652 C43.5879446,55.6914783 43.2974295,55.6684348 43.1042125,55.8334261 C42.9110875,55.9984174 42.8871768,56.2887652 43.0517929,56.4823304 Z M46.0305161,59.9932348 L46.6265366,60.6956 C46.7911527,60.8891652 47.0816679,60.9131304 47.2748848,60.7481391 C47.4679179,60.5831478 47.4918286,60.2918783 47.3272125,60.098313 L46.7313759,59.3959478 C46.5667598,59.2023826 46.2769804,59.1784174 46.0829357,59.3434087 C45.8898107,59.5084 45.8669116,59.7996696 46.0305161,59.9932348 Z M49.0101589,63.5041391 L49.6060875,64.2065043 C49.7707955,64.4000696 50.060483,64.4240348 50.2545277,64.2590435 C50.4475607,64.0940522 50.4705518,63.8027826 50.3069473,63.6092174 L49.7110187,62.9068522 C49.5463107,62.713287 49.2557955,62.6893217 49.0625786,62.854313 C48.8685339,63.0193043 48.8455429,63.3105739 49.0101589,63.5041391 Z M51.9888821,67.0150435 L52.5849027,67.716487 C52.7494268,67.9109739 53.0401259,67.9340174 53.2331589,67.7690261 C53.4262839,67.6040348 53.4501946,67.313687 53.2855786,67.1201217 L52.689742,66.4177565 C52.5251259,66.2232696 52.2354384,66.2002261 52.0413937,66.3652174 C51.8481768,66.5302087 51.8242661,66.8205565 51.9888821,67.0150435 Z M54.968525,70.5250261 L55.5644536,71.2273913 C55.72815,71.4209565 56.0188491,71.4449217 56.2118821,71.2799304 C56.4059268,71.1149391 56.4289179,70.8245913 56.2643018,70.6301043 L55.6683732,69.9277391 C55.5038491,69.7341739 55.2141616,69.7111304 55.0209446,69.8761217 C54.8269,70.0401913 54.8039089,70.3314609 54.968525,70.5250261 Z M57.9473402,74.0359304 L58.2986437,74.4497913 L58.5854804,74.7880696 L59.230242,74.2792696 C59.4298045,74.1216522 59.4637393,73.8313043 59.3064804,73.6322087 C59.1493134,73.4321913 58.8596259,73.398087 58.660983,73.5557043 L58.3639384,73.7898261 L58.6490277,74.1511478 L58.9993196,73.8525043 L58.6480161,73.4386435 C58.483492,73.2450783 58.1927929,73.221113 57.9997598,73.3861043 C57.8065429,73.5510957 57.7826321,73.8423652 57.9473402,74.0359304 Z M62.1188402,71.9961217 L62.8406679,71.4255652 C63.0402304,71.2679478 63.0743491,70.9776 62.9169982,70.7785043 C62.7597393,70.578487 62.4710634,70.5443826 62.2714089,70.702 L61.5494893,71.2725565 C61.3500187,71.4301739 61.3159,71.7196 61.4731589,71.9196174 C61.6305098,72.1196348 61.9191857,72.1537391 62.1188402,71.9961217 Z M65.7292661,69.1424174 L66.4512777,68.5718609 C66.6507482,68.4142435 66.684775,68.1248174 66.527608,67.9248 C66.3702571,67.7247826 66.0814893,67.6906783 65.8819268,67.8482957 L65.1600991,68.4188522 C64.9604446,68.5764696 64.9264179,68.8658957 65.0837687,69.065913 C65.2409357,69.2659304 65.5297036,69.3000348 65.7292661,69.1424174 Z M69.3398759,66.288713 L70.0617036,65.7181565 C70.261358,65.5605391 70.2953848,65.271113 70.1380339,65.0710957 C69.9816946,64.8710783 69.6920071,64.8369739 69.4925366,64.9945913 L68.770525,65.5651478 C68.5710545,65.7227652 68.5370277,66.0121913 68.6941946,66.2122087 C68.8514536,66.4122261 69.1403134,66.4463304 69.3398759,66.288713 Z M72.9503018,63.4350087 L73.6336884,62.8957913 L73.3485991,62.5344696 L73.0266321,62.8635304 L73.0624982,62.8985565 C73.2445875,63.0764522 73.5352866,63.073687 73.7136054,62.8921043 C73.8910964,62.7096 73.8875098,62.4183304 73.7062482,62.2404348 L73.6703821,62.204487 L73.3806946,61.921513 L72.3811348,62.7114435 C72.1814804,62.8690609 72.1474536,63.158487 72.3047125,63.3585043 C72.4620634,63.5585217 72.7516589,63.5926261 72.9513134,63.4350087 L72.9503018,63.4350087 Z M75.6917571,65.4775826 L76.3493937,66.1228 C76.5304714,66.3006957 76.8219982,66.2970087 76.9994893,66.1154261 C77.1769804,65.9338435 77.1742214,65.6416522 76.9921321,65.4637565 L76.3355071,64.8185391 C76.1534179,64.6406435 75.8629027,64.6443304 75.6844,64.825913 C75.5069089,65.0074957 75.5105875,65.299687 75.6917571,65.4775826 Z M78.9776411,68.7018261 L79.6352777,69.3461217 C79.8163554,69.5240174 80.1078821,69.5212522 80.2853732,69.3387478 C80.4628643,69.1571652 80.4601054,68.8658957 80.2780161,68.6870783 L79.6213911,68.0427826 C79.4393018,67.864887 79.1487866,67.8676522 78.9712036,68.0501565 C78.7937125,68.2317391 78.7965634,68.5230087 78.9776411,68.7018261 Z M82.2645366,71.9251478 L82.9211616,72.5694435 C83.1032509,72.7482609 83.3937661,72.7445739 83.5712571,72.5629913 C83.7487482,72.3814087 83.7459893,72.0892174 83.5649116,71.9113217 L82.907275,71.2661043 C82.7261054,71.0882087 82.4346705,71.0918957 82.2571795,71.2734783 C82.0795964,71.4550609 82.0824473,71.7472522 82.2645366,71.9251478 Z M85.945867,72.2496 L86.4461527,71.4762609 C86.5840071,71.2624174 86.5233107,70.9766783 86.3108732,70.8384174 C86.0975161,70.7001565 85.8124268,70.7609913 85.6744804,70.9748348 L85.1742866,71.7481739 C85.0362482,71.9610957 85.0969446,72.2468348 85.3093821,72.3850957 C85.5227393,72.5233565 85.8078286,72.4625217 85.945867,72.2496 Z M88.4482152,68.3829043 L88.9484089,67.6095652 C89.0863554,67.3957217 89.0257509,67.1099826 88.8123937,66.9717217 C88.5998643,66.8334609 88.314775,66.8942957 88.1768286,67.1081391 L87.6765429,67.8814783 C87.5376768,68.0944 87.5984652,68.3801391 87.8117304,68.5184 C88.0250875,68.6566609 88.3093491,68.5958261 88.4482152,68.3829043 Z M90.9495518,64.5162087 L91.4498375,63.7428696 C91.5887036,63.5290261 91.5280991,63.243287 91.314742,63.1050261 C91.1012929,62.9667652 90.8172152,63.0276 90.6783491,63.2414435 L90.1779714,64.0147826 C90.040025,64.2277043 90.1008134,64.5134435 90.3141705,64.6517043 C90.5265161,64.7899652 90.8116054,64.7291304 90.9495518,64.5162087 Z M93.4522679,60.649513 L93.9525536,59.8761739 C94.0905,59.6623304 94.0298036,59.377513 93.8173661,59.2383304 C93.6040089,59.1000696 93.3189196,59.1609043 93.1809732,59.3747478 L92.6806875,60.148087 C92.5427411,60.3610087 92.6034375,60.6467478 92.815875,60.7850087 C93.0292321,60.9232696 93.3143214,60.8633565 93.4522679,60.649513 Z M95.9546161,56.7828174 L96.4549018,56.0094783 C96.5928482,55.7956348 96.5321518,55.5098957 96.3187946,55.3716348 C96.1063571,55.2333739 95.8212679,55.2942087 95.6833214,55.5080522 L95.1830357,56.2813913 C95.0441696,56.494313 95.1048661,56.7800522 95.3182232,56.918313 C95.5315804,57.0565739 95.81575,56.9957391 95.9546161,56.7828174 Z M98.4560446,52.9161217 L98.95725,52.1427826 C99.0951964,51.9289391 99.0345,51.6441217 98.8211429,51.5049391 C98.6077857,51.3666783 98.3236161,51.427513 98.1856696,51.6413565 L97.6844643,52.4146957 C97.5465179,52.6276174 97.6072143,52.9133565 97.8205714,53.0516174 C98.0339286,53.1908 98.3180982,53.1299652 98.4560446,52.9161217 Z M100.958393,49.0494261 L101.458679,48.276087 C101.597545,48.0622435 101.536848,47.7774261 101.323491,47.6382435 C101.110134,47.4999826 100.825964,47.5608174 100.687098,47.7746609 L100.186812,48.548 C100.048866,48.7609217 100.109562,49.0466609 100.32292,49.1849217 C100.535357,49.3241043 100.820446,49.2632696 100.958393,49.0494261 Z M103.460741,45.1827304 L103.961027,44.4093913 C104.098973,44.1955478 104.038277,43.9107304 103.825839,43.7715478 C103.612482,43.633287 103.327393,43.6941217 103.189446,43.9079652 L102.689161,44.6813043 C102.551214,44.8942261 102.611911,45.1799652 102.824348,45.3182261 C103.037705,45.4574087 103.322795,45.3965739 103.460741,45.1827304 Z M105.963089,41.3160348 L106.463375,40.5426957 C106.601321,40.3288522 106.540625,40.0440348 106.327268,39.9048522 C106.11483,39.7665913 105.829741,39.8274261 105.691795,40.0412696 L105.191509,40.8146087 C105.052643,41.0284522 105.113339,41.3132696 105.326696,41.4515304 C105.540054,41.590713 105.824223,41.5298783 105.963089,41.3160348 Z M108.464518,37.4493391 L108.964804,36.676 C109.10367,36.4621565 109.042973,36.1773391 108.829616,36.0381565 C108.616259,35.8998957 108.332089,35.9607304 108.193223,36.1745739 L107.692937,36.947913 C107.554991,37.1617565 107.615687,37.4465739 107.829045,37.5848348 C108.041482,37.7240174 108.326571,37.6631826 108.464518,37.4493391 Z M110.966866,33.5826435 L111.467152,32.8093043 C111.605098,32.5954609 111.544402,32.3106435 111.331964,32.1714609 C111.118607,32.0332 110.833518,32.0940348 110.695571,32.3078783 L110.195286,33.0812174 C110.057339,33.2950609 110.118036,33.5798783 110.330473,33.7181391 C110.54383,33.8573217 110.82892,33.796487 110.966866,33.5826435 Z M112.717866,30.6035826 L113.240223,31.3621739 C113.384607,31.5714087 113.671536,31.6239478 113.880295,31.4792348 C114.089054,31.3345217 114.141473,31.0478609 113.997089,30.8386261 L113.473812,30.0800348 C113.329429,29.8708 113.04342,29.8182609 112.834661,29.9629739 C112.625902,30.107687 112.573482,30.3943478 112.717866,30.6035826 Z M115.331491,34.3956174 L115.854768,35.1542087 C115.999152,35.3634435 116.285161,35.4159826 116.49392,35.2712696 C116.702679,35.1265565 116.755098,34.8389739 116.610714,34.6297391 L116.088357,33.8711478 C115.943973,33.661913 115.657045,33.6093739 115.448286,33.754087 C115.239527,33.8988 115.187107,34.1863826 115.331491,34.3956174 Z M117.945116,38.1867304 L118.468393,38.9453217 C118.612777,39.1545565 118.898786,39.2070957 119.108464,39.0623826 C119.317223,38.9176696 119.369643,38.6310087 119.225259,38.4217739 L118.701982,37.6631826 C118.557598,37.4539478 118.271589,37.4014087 118.06283,37.5461217 C117.853152,37.6908348 117.801652,37.9774957 117.945116,38.1867304 Z M120.559661,41.9787652 L121.082018,42.7373565 C121.226402,42.9465913 121.51333,42.9991304 121.722089,42.8544174 C121.930848,42.7097043 121.983268,42.4221217 121.838884,42.212887 L121.316527,41.4542957 C121.172143,41.2450609 120.885214,41.1925217 120.676455,41.3372348 C120.467696,41.4819478 120.415277,41.7695304 120.559661,41.9787652 Z M123.173286,45.7698783 L123.696562,46.5284696 C123.840946,46.7377043 124.126955,46.7902435 124.335714,46.6455304 C124.545393,46.5008174 124.596893,46.2141565 124.452509,46.0049217 L123.930152,45.2463304 C123.785768,45.0370957 123.499759,44.9845565 123.29008,45.1292696 C123.081321,45.2739826 123.028902,45.5606435 123.173286,45.7698783 Z M125.78783,49.561913 L126.310187,50.3205043 C126.454571,50.5297391 126.74058,50.5822783 126.950259,50.4375652 C127.159018,50.2928522 127.211437,50.0052696 127.067054,49.7960348 L126.543777,49.0374435 C126.399393,48.8282087 126.113384,48.7756696 125.904625,48.9203826 C125.694946,49.0650957 125.643446,49.3526783 125.78783,49.561913 Z M128.401455,53.3530261 L128.923812,54.1116174 C129.068196,54.3208522 129.355125,54.3733913 129.563884,54.2286783 C129.772643,54.0839652 129.825062,53.7973043 129.680679,53.5880696 L129.158321,52.8294783 C129.013937,52.6202435 128.727009,52.5677043 128.51825,52.7124174 C128.309491,52.8571304 128.257071,53.1437913 128.401455,53.3530261 Z M131.01508,57.1450609 L131.538357,57.9036522 C131.682741,58.112887 131.96875,58.1654261 132.177509,58.020713 C132.387187,57.876 132.438687,57.5884174 132.295223,57.3791826 L131.771946,56.6205913 C131.627562,56.4113565 131.341554,56.3588174 131.131875,56.5035304 C130.923116,56.6482435 130.870696,56.9358261 131.01508,57.1450609 Z M133.629625,60.9361739 L134.151982,61.6947652 C134.296366,61.904 134.583295,61.9565391 134.792054,61.8118261 C135.000812,61.667113 135.053232,61.3804522 134.908848,61.1712174 L134.385571,60.4126261 C134.241187,60.2033913 133.955179,60.1508522 133.74642,60.2955652 C133.537661,60.4402783 133.485241,60.7269391 133.629625,60.9361739 Z M137.131625,62.9105391 L137.796527,62.2736174 C137.979536,62.0975652 137.985973,61.8053739 137.811241,61.6219478 C137.635589,61.4376 137.344062,61.4311478 137.161054,61.6072 L136.496152,62.2441217 C136.312223,62.4201739 136.305786,62.7114435 136.481437,62.8957913 C136.657089,63.0792174 136.947696,63.0856696 137.131625,62.9105391 Z M140.455214,59.7250087 L141.120116,59.088087 C141.303125,58.9129565 141.309562,58.6207652 141.13483,58.4364174 C140.959179,58.2529913 140.667652,58.2465391 140.484643,58.4225913 L139.819741,59.059513 C139.635812,59.2355652 139.629375,59.5268348 139.805027,59.7111826 C139.980679,59.8946087 140.271286,59.9010609 140.455214,59.7250087 Z M143.778804,56.5404 L144.443705,55.9034783 C144.626714,55.7274261 144.634071,55.4361565 144.45842,55.2518087 C144.282768,55.0683826 143.991241,55.0619304 143.808232,55.2370609 L143.14333,55.8739826 C142.959402,56.0500348 142.952964,56.3422261 143.128616,56.5256522 C143.304268,56.71 143.594875,56.7164522 143.778804,56.5404 Z M147.102393,53.3557913 L147.767295,52.7188696 C147.951223,52.5428174 147.957661,52.2515478 147.782009,52.0672 C147.606357,51.8828522 147.31483,51.8764 147.131821,52.0524522 L146.46692,52.6893739 C146.282991,52.8654261 146.276554,53.1576174 146.452205,53.3410435 C146.627857,53.5253913 146.918464,53.5318435 147.102393,53.3557913 Z M150.425982,50.1711826 L151.090884,49.5342609 C151.274812,49.3582087 151.28125,49.0660174 151.105598,48.8825913 C150.929946,48.6982435 150.639339,48.6917913 150.455411,48.8678435 L149.790509,49.5047652 C149.6075,49.6808174 149.600143,49.972087 149.775795,50.1564348 C149.951446,50.3398609 150.242973,50.3472348 150.425982,50.1711826 Z M153.230893,51.0873913 L153.926143,51.6902087 C154.118348,51.8570435 154.408955,51.8367652 154.575411,51.6441217 C154.740946,51.4514783 154.720714,51.1602087 154.528509,50.9933739 L153.833259,50.3905565 C153.641054,50.2237217 153.351366,50.2449217 153.184911,50.4366435 C153.018455,50.629287 153.039607,50.9205565 153.230893,51.0873913 Z M156.707143,54.1042435 L157.402393,54.7079826 C157.593679,54.8748174 157.884286,54.8536174 158.050741,54.6609739 C158.217196,54.4683304 158.196045,54.1779826 158.003839,54.0111478 L157.308589,53.4074087 C157.117304,53.2405739 156.826696,53.2617739 156.660241,53.4544174 C156.493786,53.6470609 156.514937,53.9374087 156.707143,54.1042435 Z M160.182473,57.1220174 L160.877723,57.7248348 C161.069929,57.8916696 161.360536,57.8704696 161.526071,57.6787478 C161.692527,57.4861043 161.672295,57.1948348 161.480089,57.028 L160.784839,56.4251826 C160.592634,56.2583478 160.302027,56.2795478 160.136491,56.4712696 C159.970036,56.663913 159.990268,56.9551826 160.182473,57.1220174 Z M163.658723,60.1388696 L164.353973,60.7426087 C164.545259,60.9094435 164.835866,60.8882435 165.002321,60.6956 C165.168777,60.5029565 165.147625,60.2126087 164.95542,60.0457739 L164.26017,59.4420348 C164.068884,59.2752 163.778277,59.2964 163.611821,59.4890435 C163.445366,59.681687 163.466518,59.9720348 163.658723,60.1388696 Z M167.134054,63.1566435 L167.829304,63.7594609 C168.021509,63.9262957 168.312116,63.9050957 168.477652,63.7133739 C168.644107,63.5207304 168.623875,63.2294609 168.43167,63.0626261 L167.73642,62.4598087 C167.544214,62.2929739 167.253607,62.3132522 167.088071,62.5058957 C166.921616,62.6985391 166.941848,62.9898087 167.134054,63.1566435 Z M170.427295,60.5518087 L170.899991,59.7609565 C171.03058,59.5425043 170.959768,59.2595304 170.742732,59.1286435 C170.524777,58.9977565 170.242446,59.0687304 170.111857,59.2871826 L169.638241,60.077113 C169.507652,60.2955652 169.578464,60.5785391 169.79642,60.7094261 C170.014375,60.840313 170.296705,60.7693391 170.427295,60.5518087 Z M172.792616,56.5993913 L173.265312,55.8085391 C173.395902,55.590087 173.325089,55.307113 173.107134,55.1762261 C172.889179,55.0453391 172.606848,55.116313 172.476259,55.3347652 L172.003562,56.1246957 C171.872973,56.3431478 171.943786,56.6261217 172.161741,56.7570087 C172.378777,56.8878957 172.661107,56.8178435 172.792616,56.5993913 Z M175.157018,52.6469739 L175.630634,51.8561217 C175.761223,51.6376696 175.690411,51.3546957 175.472455,51.2238087 C175.2545,51.0929217 174.97217,51.1638957 174.84158,51.3823478 L174.368884,52.1722783 C174.238295,52.3907304 174.308187,52.6737043 174.526143,52.8045913 C174.744098,52.9354783 175.026429,52.8654261 175.157018,52.6469739 Z M177.522339,48.6945565 L177.995036,47.9037043 C178.125625,47.6852522 178.054812,47.4022783 177.837777,47.2713913 C177.619821,47.1405043 177.337491,47.2114783 177.206902,47.4299304 L176.733286,48.2207826 C176.602696,48.438313 176.673509,48.721287 176.891464,48.8521739 C177.10942,48.9839826 177.39175,48.9130087 177.522339,48.6945565 Z M179.887661,44.7421391 L180.360357,43.951287 C180.490946,43.7337565 180.420134,43.4498609 180.202179,43.3189739 C179.985143,43.188087 179.701893,43.2590609 179.571304,43.477513 L179.098607,44.2683652 C178.968018,44.4858957 179.03883,44.7697913 179.256786,44.9006783 C179.473821,45.0315652 179.757071,44.9605913 179.887661,44.7421391 Z M182.252062,40.7897217 L182.725679,39.9988696 C182.856268,39.7813391 182.785455,39.4974435 182.5675,39.3665565 C182.349545,39.2356696 182.067214,39.3066435 181.936625,39.5250957 L181.463929,40.3159478 C181.333339,40.5334783 181.403232,40.8173739 181.621187,40.9482609 C181.839143,41.0791478 182.121473,41.0081739 182.252062,40.7897217 Z M184.617384,36.8373043 L185.09008,36.0464522 C185.22067,35.8289217 185.150777,35.5459478 184.932821,35.4141391 C184.714866,35.2832522 184.432536,35.3542261 184.301946,35.5726783 L183.82833,36.3635304 C183.697741,36.5819826 183.768554,36.8649565 183.986509,36.9958435 C184.204464,37.1267304 184.486795,37.0557565 184.617384,36.8373043 Z M186.982705,32.884887 L187.455402,32.0949565 C187.585991,31.8765043 187.515179,31.5935304 187.297223,31.4626435 C187.080187,31.3317565 186.796937,31.4018087 186.666348,31.6202609 L186.193652,32.411113 C186.063062,32.6295652 186.133875,32.9125391 186.35183,33.0434261 C186.568866,33.174313 186.852116,33.1033391 186.982705,32.884887 Z M189.347107,28.9324696 L189.820723,28.1425391 C189.951312,27.924087 189.8805,27.641113 189.662545,27.5102261 C189.444589,27.3793391 189.162259,27.4493913 189.03167,27.6678435 L188.558973,28.4586957 C188.428384,28.6771478 188.499196,28.9601217 188.716232,29.0910087 C188.934187,29.2218957 189.216518,29.1509217 189.347107,28.9324696 Z M191.712429,24.9800522 L192.185125,24.1901217 C192.315714,23.9716696 192.245821,23.6886957 192.027866,23.5578087 C191.809911,23.4269217 191.52758,23.4969739 191.396991,23.7154261 L190.923375,24.5062783 C190.792786,24.7247304 190.863598,25.0077043 191.081554,25.1385913 C191.299509,25.2694783 191.581839,25.1985043 191.712429,24.9800522 Z M194.07775,21.0276348 L194.550446,20.2377043 C194.681036,20.0192522 194.610223,19.7362783 194.392268,19.6053913 C194.175232,19.4745043 193.891982,19.5454783 193.761393,19.7630087 L193.288696,20.5538609 C193.158107,20.772313 193.22892,21.055287 193.446875,21.1861739 C193.66483,21.3170609 193.947161,21.246087 194.07775,21.0276348 Z M196.442152,17.0752174 L196.915768,16.285287 C197.046357,16.0668348 196.975545,15.7838609 196.757589,15.6529739 C196.539634,15.522087 196.257304,15.5930609 196.126714,15.8105913 L195.654018,16.6014435 C195.523429,16.8198957 195.594241,17.1028696 195.811277,17.2337565 C196.029232,17.3646435 196.311562,17.2936696 196.442152,17.0752174 Z M198.807473,13.1228 L199.28017,12.3328696 C199.410759,12.1144174 199.340866,11.8314435 199.122911,11.7005565 C198.904955,11.5696696 198.622625,11.6406435 198.492036,11.8581739 L198.01842,12.6490261 C197.88783,12.8674783 197.958643,13.1504522 198.176598,13.2813391 C198.394554,13.4122261 198.676884,13.3412522 198.807473,13.1228 Z M201.172795,9.17130435 L201.645491,8.38045217 C201.77608,8.162 201.705268,7.87902609 201.487312,7.74813913 C201.270277,7.61725217 200.987946,7.68822609 200.856437,7.90667826 L200.383741,8.6966087 C200.253152,8.91506087 200.323964,9.19803478 200.54192,9.32892174 C200.759875,9.4598087 201.042205,9.38883478 201.172795,9.17130435 Z M203.537196,5.21888696 L204.010812,4.42803478 C204.141402,4.20958261 204.070589,3.9266087 203.852634,3.79572174 C203.634679,3.66483478 203.352348,3.7358087 203.221759,3.95426087 L202.749062,4.7441913 C202.618473,4.96264348 202.689286,5.24561739 202.906321,5.37650435 C203.124277,5.5073913 203.406607,5.43641739 203.537196,5.21888696 Z" id="Fill-9" fill="#92B9FF"></path>
                                <path d="M17.9455429,37.5507304 C17.9455429,38.6328522 17.0710545,39.5094261 15.9913018,39.5094261 C14.9116411,39.5094261 14.0370607,38.6328522 14.0370607,37.5507304 C14.0370607,36.4686087 14.9116411,35.5920348 15.9913018,35.5920348 C17.0710545,35.5920348 17.9455429,36.4686087 17.9455429,37.5507304 Z" id="Fill-10" fill="#FCB74B"></path>
                                <path d="M27.3590991,47.9765217 C27.3590991,49.0577217 26.4835071,49.9352174 25.404858,49.9352174 C24.3251973,49.9352174 23.450617,49.0577217 23.450617,47.9765217 C23.450617,46.8944 24.3251973,46.0178261 25.404858,46.0178261 C26.4835071,46.0178261 27.3590991,46.8944 27.3590991,47.9765217 Z" id="Fill-11" fill="#FCB74B"></path>
                                <path d="M33.013983,41.6395652 C33.013983,42.7207652 32.1394027,43.5982609 31.059742,43.5982609 C29.9799893,43.5982609 29.1055009,42.7207652 29.1055009,41.6395652 C29.1055009,40.5574435 29.9799893,39.6808696 31.059742,39.6808696 C32.1394027,39.6808696 33.013983,40.5574435 33.013983,41.6395652 Z" id="Fill-12" fill="#FCB74B"></path>
                                <path d="M60.373358,74.1511478 C60.373358,75.2332696 59.4987777,76.1098435 58.419117,76.1098435 C57.3393643,76.1098435 56.4648759,75.2332696 56.4648759,74.1511478 C56.4648759,73.0699478 57.3393643,72.1924522 58.419117,72.1924522 C59.4987777,72.1924522 60.373358,73.0699478 60.373358,74.1511478 Z" id="Fill-13" fill="#FCB74B"></path>
                                <path d="M75.3506616,62.2072522 C75.3506616,63.2893739 74.4759893,64.1659478 73.3964205,64.1659478 C72.3175875,64.1659478 71.4421795,63.2893739 71.4421795,62.2072522 C71.4421795,61.1251304 72.3175875,60.2485565 73.3964205,60.2485565 C74.4759893,60.2485565 75.3506616,61.1251304 75.3506616,62.2072522 Z" id="Fill-14" fill="#FCB74B"></path>
                                <path d="M86.2648911,72.6920348 C86.2648911,73.7741565 85.3904027,74.6507304 84.31065,74.6507304 C83.2320009,74.6507304 82.3564089,73.7741565 82.3564089,72.6920348 C82.3564089,71.609913 83.2320009,70.7333391 84.31065,70.7333391 C85.3904027,70.7333391 86.2648911,71.609913 86.2648911,72.6920348 Z" id="Fill-15" fill="#FCB74B"></path>
                                <path d="M137.919759,62.7944 C137.919759,63.8765217 137.044259,64.7530957 135.965518,64.7530957 C134.885857,64.7530957 134.011277,63.8765217 134.011277,62.7944 C134.011277,61.7122783 134.885857,60.8357043 135.965518,60.8357043 C137.044259,60.8357043 137.919759,61.7122783 137.919759,62.7944 Z" id="Fill-16" fill="#FCB74B"></path>
                                <path d="M115.388509,30.3030957 C115.388509,31.3852174 114.513009,32.2617913 113.434268,32.2617913 C112.354607,32.2617913 111.480027,31.3852174 111.480027,30.3030957 C111.480027,29.2209739 112.354607,28.3444 113.434268,28.3444 C114.513009,28.3444 115.388509,29.2209739 115.388509,30.3030957 Z" id="Fill-17" fill="#FCB74B"></path>
                                <path d="M153.064437,48.9443478 C153.064437,50.0264696 152.189857,50.9030435 151.110196,50.9030435 C150.031455,50.9030435 149.155955,50.0264696 149.155955,48.9443478 C149.155955,47.8622261 150.031455,46.9856522 151.110196,46.9856522 C152.189857,46.9856522 153.064437,47.8622261 153.064437,48.9443478 Z" id="Fill-18" fill="#FCB74B"></path>
                                <path d="M170.117375,62.7944 C170.117375,63.8765217 169.241875,64.7530957 168.163134,64.7530957 C167.083473,64.7530957 166.208893,63.8765217 166.208893,62.7944 C166.208893,61.7122783 167.083473,60.8357043 168.163134,60.8357043 C169.241875,60.8357043 170.117375,61.7122783 170.117375,62.7944 Z" id="Fill-19" fill="#FCB74B"></path>
                            </g>
                        </g>
                        <g mask="url(#mask-2)">
                            <g transform="translate(27.000000, 94.000000)">
                                <polygon id="Fill-6" fill="#E7E7E6" points="205.608232 105.267217 205.452813 105.267217 187.688071 105.267217 205.452813 105.267217 205.452813 0 205.608232 0"></polygon>
                                <polygon id="Fill-8" fill="#DEE7F5" points="0.459545536 109.267217 0.459545536 64.3250609 16.3600786 49.5772348 25.5565071 61.0464348 31.059742 53.9352174 58.6490277 86.4468 73.3485991 74.8301217 84.5644714 85.8329217 112.796955 42.2033217 135.914018 75.7352696 151.242625 61.0464348 168.163134 75.7352696 205.141973 13.9372696 205.141973 109.267217"></polygon>
                                <path d="M0.772132142,52.367687 L1.44715,51.7418261 C1.63300982,51.5685391 1.64496518,51.2772696 1.47198036,51.0901565 C1.30009911,50.9039652 1.00857232,50.8919826 0.821792857,51.0652696 L0.147694642,51.6911304 C-0.0389928578,51.8644174 -0.0500285721,52.155687 0.122036607,52.3428 C0.294837499,52.529913 0.585444642,52.5409739 0.772132142,52.367687 Z M4.14722143,49.2374609 L4.82131964,48.6116 C5.00800714,48.438313 5.01904286,48.1470435 4.84716161,47.9599304 C4.67417679,47.7737391 4.38356964,47.7617565 4.19688214,47.9350435 L3.52186429,48.5609043 C3.33618839,48.7341913 3.32423304,49.0254609 3.49703393,49.2125739 C3.66992679,49.3987652 3.96062589,49.4107478 4.14722143,49.2374609 Z M7.52139107,46.1072348 L8.19640893,45.4813739 C8.38309643,45.308087 8.39422411,45.0168174 8.22215893,44.8297043 C8.04935804,44.643513 7.75865893,44.6315304 7.57197143,44.8048174 L6.89704554,45.4306783 C6.71035804,45.6039652 6.69923036,45.8952348 6.87212321,46.0823478 C7.04409643,46.2685391 7.33571518,46.2805217 7.52139107,46.1072348 Z M10.8965723,42.9770087 L11.5714982,42.3511478 C11.7581857,42.1778609 11.7692214,41.8865913 11.5964205,41.6994783 C11.4243554,41.513287 11.1328286,41.5013043 10.9471527,41.6745913 L10.2720429,42.3004522 C10.0853554,42.4737391 10.0743196,42.7650087 10.2462929,42.9521217 C10.4191857,43.1392348 10.7098848,43.1502957 10.8965723,42.9770087 Z M14.2715696,39.8467826 L14.9466795,39.2209217 C15.1323554,39.0476348 15.1443107,38.7563652 14.9714179,38.5692522 C14.798525,38.3830609 14.5080098,38.3710783 14.3213223,38.5443652 L13.6471321,39.1702261 C13.4604446,39.343513 13.4495009,39.6347826 13.6213821,39.8218957 C13.794367,40.008087 14.0848821,40.0200696 14.2715696,39.8467826 Z M16.832775,38.6070435 L17.4085634,39.326 C17.5675696,39.5241739 17.8572571,39.555513 18.0550723,39.3960522 C18.2537152,39.2365913 18.284983,38.9471652 18.1257929,38.7480696 L17.5500964,38.0300348 C17.3909982,37.8318609 17.1013107,37.7996 16.9035875,37.9590609 C16.7049446,38.1185217 16.6736768,38.4088696 16.832775,38.6070435 Z M19.7130964,42.1999826 L20.2898045,42.9180174 C20.4488107,43.1161913 20.7376705,43.1484522 20.9363134,42.9889913 C21.1339446,42.8295304 21.1652125,42.5391826 21.0061143,42.3410087 L20.4305098,41.6220522 C20.2713196,41.4238783 19.9816321,41.3925391 19.7840009,41.552 C19.585358,41.7114609 19.5540902,42.000887 19.7130964,42.1999826 Z M22.5935098,45.792 L23.1701259,46.5100348 C23.3291321,46.7091304 23.6188196,46.7404696 23.8165429,46.5810087 C24.0142661,46.4215478 24.0455339,46.1312 23.8865277,45.9330261 L23.3107393,45.2149913 C23.151733,45.0158957 22.8620455,44.9845565 22.6642304,45.1440174 C22.4665991,45.3034783 22.4343196,45.5938261 22.5935098,45.792 Z M26.190233,48.6844174 L26.7538821,47.9562435 C26.9093937,47.7543826 26.8725161,47.4649565 26.6721259,47.3091826 C26.4715518,47.1534087 26.1827839,47.1902783 26.0264446,47.3912174 L25.4636232,48.1193913 C25.3072839,48.3203304 25.3440696,48.6097565 25.5445518,48.7655304 C25.7459536,48.9222261 26.0348134,48.8853565 26.190233,48.6844174 Z M29.0079268,45.0426261 L29.5717598,44.3144522 C29.7270875,44.1125913 29.6912214,43.8231652 29.4898196,43.6673913 C29.2894295,43.5116174 29.0005696,43.548487 28.84515,43.7494261 L28.2815009,44.4776 C28.1259893,44.6785391 28.1619473,44.9679652 28.3632571,45.1237391 C28.5638312,45.2804348 28.8525071,45.2435652 29.0079268,45.0426261 Z M31.1360723,42.4405565 L31.7309893,43.142 C31.8956054,43.336487 32.1862125,43.3595304 32.3793375,43.1945391 C32.5733821,43.0295478 32.5964652,42.7392 32.4318491,42.5456348 L31.8358286,41.8432696 C31.6712125,41.6487826 31.381525,41.6257391 31.1874804,41.7907304 C30.9944473,41.9557217 30.9713643,42.2460696 31.1360723,42.4405565 Z M34.1147036,45.9505391 L34.7106321,46.6529043 C34.8752482,46.8464696 35.1649357,46.8704348 35.3589804,46.7054435 C35.5521973,46.5404522 35.5750964,46.2501043 35.4114,46.0556174 L34.8154714,45.3532522 C34.6508554,45.159687 34.3602482,45.1366435 34.1671232,45.3016348 C33.9740902,45.4657043 33.9501795,45.7569739 34.1147036,45.9505391 Z M37.0934268,49.4614435 L37.6893554,50.1638087 C37.8540634,50.3573739 38.1445786,50.3813391 38.3377955,50.2163478 C38.5308286,50.0513565 38.5547393,49.760087 38.3902152,49.5665217 L37.7941946,48.8641565 C37.6295786,48.6705913 37.3398911,48.6466261 37.1458464,48.8116174 C36.9528134,48.9766087 36.9289027,49.2678783 37.0934268,49.4614435 Z M40.0730696,52.9723478 L40.6689982,53.674713 C40.8336143,53.8682783 41.1233018,53.8913217 41.3165187,53.7263304 C41.5105634,53.5622609 41.5334625,53.2709913 41.3688464,53.0774261 L40.7730098,52.3750609 C40.6083018,52.1814957 40.3186143,52.1575304 40.1254893,52.3225217 C39.9314446,52.487513 39.9085455,52.7778609 40.0730696,52.9723478 Z M43.0517929,56.4823304 L43.6477214,57.1846957 C43.8124295,57.3791826 44.102117,57.4022261 44.2961616,57.2372348 C44.4891946,57.0722435 44.5131054,56.7818957 44.3485812,56.5874087 L43.7526527,55.8859652 C43.5879446,55.6914783 43.2974295,55.6684348 43.1042125,55.8334261 C42.9110875,55.9984174 42.8871768,56.2887652 43.0517929,56.4823304 Z M46.0305161,59.9932348 L46.6265366,60.6956 C46.7911527,60.8891652 47.0816679,60.9131304 47.2748848,60.7481391 C47.4679179,60.5831478 47.4918286,60.2918783 47.3272125,60.098313 L46.7313759,59.3959478 C46.5667598,59.2023826 46.2769804,59.1784174 46.0829357,59.3434087 C45.8898107,59.5084 45.8669116,59.7996696 46.0305161,59.9932348 Z M49.0101589,63.5041391 L49.6060875,64.2065043 C49.7707955,64.4000696 50.060483,64.4240348 50.2545277,64.2590435 C50.4475607,64.0940522 50.4705518,63.8027826 50.3069473,63.6092174 L49.7110187,62.9068522 C49.5463107,62.713287 49.2557955,62.6893217 49.0625786,62.854313 C48.8685339,63.0193043 48.8455429,63.3105739 49.0101589,63.5041391 Z M51.9888821,67.0150435 L52.5849027,67.716487 C52.7494268,67.9109739 53.0401259,67.9340174 53.2331589,67.7690261 C53.4262839,67.6040348 53.4501946,67.313687 53.2855786,67.1201217 L52.689742,66.4177565 C52.5251259,66.2232696 52.2354384,66.2002261 52.0413937,66.3652174 C51.8481768,66.5302087 51.8242661,66.8205565 51.9888821,67.0150435 Z M54.968525,70.5250261 L55.5644536,71.2273913 C55.72815,71.4209565 56.0188491,71.4449217 56.2118821,71.2799304 C56.4059268,71.1149391 56.4289179,70.8245913 56.2643018,70.6301043 L55.6683732,69.9277391 C55.5038491,69.7341739 55.2141616,69.7111304 55.0209446,69.8761217 C54.8269,70.0401913 54.8039089,70.3314609 54.968525,70.5250261 Z M57.9473402,74.0359304 L58.2986437,74.4497913 L58.5854804,74.7880696 L59.230242,74.2792696 C59.4298045,74.1216522 59.4637393,73.8313043 59.3064804,73.6322087 C59.1493134,73.4321913 58.8596259,73.398087 58.660983,73.5557043 L58.3639384,73.7898261 L58.6490277,74.1511478 L58.9993196,73.8525043 L58.6480161,73.4386435 C58.483492,73.2450783 58.1927929,73.221113 57.9997598,73.3861043 C57.8065429,73.5510957 57.7826321,73.8423652 57.9473402,74.0359304 Z M62.1188402,71.9961217 L62.8406679,71.4255652 C63.0402304,71.2679478 63.0743491,70.9776 62.9169982,70.7785043 C62.7597393,70.578487 62.4710634,70.5443826 62.2714089,70.702 L61.5494893,71.2725565 C61.3500187,71.4301739 61.3159,71.7196 61.4731589,71.9196174 C61.6305098,72.1196348 61.9191857,72.1537391 62.1188402,71.9961217 Z M65.7292661,69.1424174 L66.4512777,68.5718609 C66.6507482,68.4142435 66.684775,68.1248174 66.527608,67.9248 C66.3702571,67.7247826 66.0814893,67.6906783 65.8819268,67.8482957 L65.1600991,68.4188522 C64.9604446,68.5764696 64.9264179,68.8658957 65.0837687,69.065913 C65.2409357,69.2659304 65.5297036,69.3000348 65.7292661,69.1424174 Z M69.3398759,66.288713 L70.0617036,65.7181565 C70.261358,65.5605391 70.2953848,65.271113 70.1380339,65.0710957 C69.9816946,64.8710783 69.6920071,64.8369739 69.4925366,64.9945913 L68.770525,65.5651478 C68.5710545,65.7227652 68.5370277,66.0121913 68.6941946,66.2122087 C68.8514536,66.4122261 69.1403134,66.4463304 69.3398759,66.288713 Z M72.9503018,63.4350087 L73.6336884,62.8957913 L73.3485991,62.5344696 L73.0266321,62.8635304 L73.0624982,62.8985565 C73.2445875,63.0764522 73.5352866,63.073687 73.7136054,62.8921043 C73.8910964,62.7096 73.8875098,62.4183304 73.7062482,62.2404348 L73.6703821,62.204487 L73.3806946,61.921513 L72.3811348,62.7114435 C72.1814804,62.8690609 72.1474536,63.158487 72.3047125,63.3585043 C72.4620634,63.5585217 72.7516589,63.5926261 72.9513134,63.4350087 L72.9503018,63.4350087 Z M75.6917571,65.4775826 L76.3493937,66.1228 C76.5304714,66.3006957 76.8219982,66.2970087 76.9994893,66.1154261 C77.1769804,65.9338435 77.1742214,65.6416522 76.9921321,65.4637565 L76.3355071,64.8185391 C76.1534179,64.6406435 75.8629027,64.6443304 75.6844,64.825913 C75.5069089,65.0074957 75.5105875,65.299687 75.6917571,65.4775826 Z M78.9776411,68.7018261 L79.6352777,69.3461217 C79.8163554,69.5240174 80.1078821,69.5212522 80.2853732,69.3387478 C80.4628643,69.1571652 80.4601054,68.8658957 80.2780161,68.6870783 L79.6213911,68.0427826 C79.4393018,67.864887 79.1487866,67.8676522 78.9712036,68.0501565 C78.7937125,68.2317391 78.7965634,68.5230087 78.9776411,68.7018261 Z M82.2645366,71.9251478 L82.9211616,72.5694435 C83.1032509,72.7482609 83.3937661,72.7445739 83.5712571,72.5629913 C83.7487482,72.3814087 83.7459893,72.0892174 83.5649116,71.9113217 L82.907275,71.2661043 C82.7261054,71.0882087 82.4346705,71.0918957 82.2571795,71.2734783 C82.0795964,71.4550609 82.0824473,71.7472522 82.2645366,71.9251478 Z M85.945867,72.2496 L86.4461527,71.4762609 C86.5840071,71.2624174 86.5233107,70.9766783 86.3108732,70.8384174 C86.0975161,70.7001565 85.8124268,70.7609913 85.6744804,70.9748348 L85.1742866,71.7481739 C85.0362482,71.9610957 85.0969446,72.2468348 85.3093821,72.3850957 C85.5227393,72.5233565 85.8078286,72.4625217 85.945867,72.2496 Z M88.4482152,68.3829043 L88.9484089,67.6095652 C89.0863554,67.3957217 89.0257509,67.1099826 88.8123937,66.9717217 C88.5998643,66.8334609 88.314775,66.8942957 88.1768286,67.1081391 L87.6765429,67.8814783 C87.5376768,68.0944 87.5984652,68.3801391 87.8117304,68.5184 C88.0250875,68.6566609 88.3093491,68.5958261 88.4482152,68.3829043 Z M90.9495518,64.5162087 L91.4498375,63.7428696 C91.5887036,63.5290261 91.5280991,63.243287 91.314742,63.1050261 C91.1012929,62.9667652 90.8172152,63.0276 90.6783491,63.2414435 L90.1779714,64.0147826 C90.040025,64.2277043 90.1008134,64.5134435 90.3141705,64.6517043 C90.5265161,64.7899652 90.8116054,64.7291304 90.9495518,64.5162087 Z M93.4522679,60.649513 L93.9525536,59.8761739 C94.0905,59.6623304 94.0298036,59.377513 93.8173661,59.2383304 C93.6040089,59.1000696 93.3189196,59.1609043 93.1809732,59.3747478 L92.6806875,60.148087 C92.5427411,60.3610087 92.6034375,60.6467478 92.815875,60.7850087 C93.0292321,60.9232696 93.3143214,60.8633565 93.4522679,60.649513 Z M95.9546161,56.7828174 L96.4549018,56.0094783 C96.5928482,55.7956348 96.5321518,55.5098957 96.3187946,55.3716348 C96.1063571,55.2333739 95.8212679,55.2942087 95.6833214,55.5080522 L95.1830357,56.2813913 C95.0441696,56.494313 95.1048661,56.7800522 95.3182232,56.918313 C95.5315804,57.0565739 95.81575,56.9957391 95.9546161,56.7828174 Z M98.4560446,52.9161217 L98.95725,52.1427826 C99.0951964,51.9289391 99.0345,51.6441217 98.8211429,51.5049391 C98.6077857,51.3666783 98.3236161,51.427513 98.1856696,51.6413565 L97.6844643,52.4146957 C97.5465179,52.6276174 97.6072143,52.9133565 97.8205714,53.0516174 C98.0339286,53.1908 98.3180982,53.1299652 98.4560446,52.9161217 Z M100.958393,49.0494261 L101.458679,48.276087 C101.597545,48.0622435 101.536848,47.7774261 101.323491,47.6382435 C101.110134,47.4999826 100.825964,47.5608174 100.687098,47.7746609 L100.186812,48.548 C100.048866,48.7609217 100.109562,49.0466609 100.32292,49.1849217 C100.535357,49.3241043 100.820446,49.2632696 100.958393,49.0494261 Z M103.460741,45.1827304 L103.961027,44.4093913 C104.098973,44.1955478 104.038277,43.9107304 103.825839,43.7715478 C103.612482,43.633287 103.327393,43.6941217 103.189446,43.9079652 L102.689161,44.6813043 C102.551214,44.8942261 102.611911,45.1799652 102.824348,45.3182261 C103.037705,45.4574087 103.322795,45.3965739 103.460741,45.1827304 Z M105.963089,41.3160348 L106.463375,40.5426957 C106.601321,40.3288522 106.540625,40.0440348 106.327268,39.9048522 C106.11483,39.7665913 105.829741,39.8274261 105.691795,40.0412696 L105.191509,40.8146087 C105.052643,41.0284522 105.113339,41.3132696 105.326696,41.4515304 C105.540054,41.590713 105.824223,41.5298783 105.963089,41.3160348 Z M108.464518,37.4493391 L108.964804,36.676 C109.10367,36.4621565 109.042973,36.1773391 108.829616,36.0381565 C108.616259,35.8998957 108.332089,35.9607304 108.193223,36.1745739 L107.692937,36.947913 C107.554991,37.1617565 107.615687,37.4465739 107.829045,37.5848348 C108.041482,37.7240174 108.326571,37.6631826 108.464518,37.4493391 Z M110.966866,33.5826435 L111.467152,32.8093043 C111.605098,32.5954609 111.544402,32.3106435 111.331964,32.1714609 C111.118607,32.0332 110.833518,32.0940348 110.695571,32.3078783 L110.195286,33.0812174 C110.057339,33.2950609 110.118036,33.5798783 110.330473,33.7181391 C110.54383,33.8573217 110.82892,33.796487 110.966866,33.5826435 Z M112.717866,30.6035826 L113.240223,31.3621739 C113.384607,31.5714087 113.671536,31.6239478 113.880295,31.4792348 C114.089054,31.3345217 114.141473,31.0478609 113.997089,30.8386261 L113.473812,30.0800348 C113.329429,29.8708 113.04342,29.8182609 112.834661,29.9629739 C112.625902,30.107687 112.573482,30.3943478 112.717866,30.6035826 Z M115.331491,34.3956174 L115.854768,35.1542087 C115.999152,35.3634435 116.285161,35.4159826 116.49392,35.2712696 C116.702679,35.1265565 116.755098,34.8389739 116.610714,34.6297391 L116.088357,33.8711478 C115.943973,33.661913 115.657045,33.6093739 115.448286,33.754087 C115.239527,33.8988 115.187107,34.1863826 115.331491,34.3956174 Z M117.945116,38.1867304 L118.468393,38.9453217 C118.612777,39.1545565 118.898786,39.2070957 119.108464,39.0623826 C119.317223,38.9176696 119.369643,38.6310087 119.225259,38.4217739 L118.701982,37.6631826 C118.557598,37.4539478 118.271589,37.4014087 118.06283,37.5461217 C117.853152,37.6908348 117.801652,37.9774957 117.945116,38.1867304 Z M120.559661,41.9787652 L121.082018,42.7373565 C121.226402,42.9465913 121.51333,42.9991304 121.722089,42.8544174 C121.930848,42.7097043 121.983268,42.4221217 121.838884,42.212887 L121.316527,41.4542957 C121.172143,41.2450609 120.885214,41.1925217 120.676455,41.3372348 C120.467696,41.4819478 120.415277,41.7695304 120.559661,41.9787652 Z M123.173286,45.7698783 L123.696562,46.5284696 C123.840946,46.7377043 124.126955,46.7902435 124.335714,46.6455304 C124.545393,46.5008174 124.596893,46.2141565 124.452509,46.0049217 L123.930152,45.2463304 C123.785768,45.0370957 123.499759,44.9845565 123.29008,45.1292696 C123.081321,45.2739826 123.028902,45.5606435 123.173286,45.7698783 Z M125.78783,49.561913 L126.310187,50.3205043 C126.454571,50.5297391 126.74058,50.5822783 126.950259,50.4375652 C127.159018,50.2928522 127.211437,50.0052696 127.067054,49.7960348 L126.543777,49.0374435 C126.399393,48.8282087 126.113384,48.7756696 125.904625,48.9203826 C125.694946,49.0650957 125.643446,49.3526783 125.78783,49.561913 Z M128.401455,53.3530261 L128.923812,54.1116174 C129.068196,54.3208522 129.355125,54.3733913 129.563884,54.2286783 C129.772643,54.0839652 129.825062,53.7973043 129.680679,53.5880696 L129.158321,52.8294783 C129.013937,52.6202435 128.727009,52.5677043 128.51825,52.7124174 C128.309491,52.8571304 128.257071,53.1437913 128.401455,53.3530261 Z M131.01508,57.1450609 L131.538357,57.9036522 C131.682741,58.112887 131.96875,58.1654261 132.177509,58.020713 C132.387187,57.876 132.438687,57.5884174 132.295223,57.3791826 L131.771946,56.6205913 C131.627562,56.4113565 131.341554,56.3588174 131.131875,56.5035304 C130.923116,56.6482435 130.870696,56.9358261 131.01508,57.1450609 Z M133.629625,60.9361739 L134.151982,61.6947652 C134.296366,61.904 134.583295,61.9565391 134.792054,61.8118261 C135.000812,61.667113 135.053232,61.3804522 134.908848,61.1712174 L134.385571,60.4126261 C134.241187,60.2033913 133.955179,60.1508522 133.74642,60.2955652 C133.537661,60.4402783 133.485241,60.7269391 133.629625,60.9361739 Z M137.131625,62.9105391 L137.796527,62.2736174 C137.979536,62.0975652 137.985973,61.8053739 137.811241,61.6219478 C137.635589,61.4376 137.344062,61.4311478 137.161054,61.6072 L136.496152,62.2441217 C136.312223,62.4201739 136.305786,62.7114435 136.481437,62.8957913 C136.657089,63.0792174 136.947696,63.0856696 137.131625,62.9105391 Z M140.455214,59.7250087 L141.120116,59.088087 C141.303125,58.9129565 141.309562,58.6207652 141.13483,58.4364174 C140.959179,58.2529913 140.667652,58.2465391 140.484643,58.4225913 L139.819741,59.059513 C139.635812,59.2355652 139.629375,59.5268348 139.805027,59.7111826 C139.980679,59.8946087 140.271286,59.9010609 140.455214,59.7250087 Z M143.778804,56.5404 L144.443705,55.9034783 C144.626714,55.7274261 144.634071,55.4361565 144.45842,55.2518087 C144.282768,55.0683826 143.991241,55.0619304 143.808232,55.2370609 L143.14333,55.8739826 C142.959402,56.0500348 142.952964,56.3422261 143.128616,56.5256522 C143.304268,56.71 143.594875,56.7164522 143.778804,56.5404 Z M147.102393,53.3557913 L147.767295,52.7188696 C147.951223,52.5428174 147.957661,52.2515478 147.782009,52.0672 C147.606357,51.8828522 147.31483,51.8764 147.131821,52.0524522 L146.46692,52.6893739 C146.282991,52.8654261 146.276554,53.1576174 146.452205,53.3410435 C146.627857,53.5253913 146.918464,53.5318435 147.102393,53.3557913 Z M150.425982,50.1711826 L151.090884,49.5342609 C151.274812,49.3582087 151.28125,49.0660174 151.105598,48.8825913 C150.929946,48.6982435 150.639339,48.6917913 150.455411,48.8678435 L149.790509,49.5047652 C149.6075,49.6808174 149.600143,49.972087 149.775795,50.1564348 C149.951446,50.3398609 150.242973,50.3472348 150.425982,50.1711826 Z M153.230893,51.0873913 L153.926143,51.6902087 C154.118348,51.8570435 154.408955,51.8367652 154.575411,51.6441217 C154.740946,51.4514783 154.720714,51.1602087 154.528509,50.9933739 L153.833259,50.3905565 C153.641054,50.2237217 153.351366,50.2449217 153.184911,50.4366435 C153.018455,50.629287 153.039607,50.9205565 153.230893,51.0873913 Z M156.707143,54.1042435 L157.402393,54.7079826 C157.593679,54.8748174 157.884286,54.8536174 158.050741,54.6609739 C158.217196,54.4683304 158.196045,54.1779826 158.003839,54.0111478 L157.308589,53.4074087 C157.117304,53.2405739 156.826696,53.2617739 156.660241,53.4544174 C156.493786,53.6470609 156.514937,53.9374087 156.707143,54.1042435 Z M160.182473,57.1220174 L160.877723,57.7248348 C161.069929,57.8916696 161.360536,57.8704696 161.526071,57.6787478 C161.692527,57.4861043 161.672295,57.1948348 161.480089,57.028 L160.784839,56.4251826 C160.592634,56.2583478 160.302027,56.2795478 160.136491,56.4712696 C159.970036,56.663913 159.990268,56.9551826 160.182473,57.1220174 Z M163.658723,60.1388696 L164.353973,60.7426087 C164.545259,60.9094435 164.835866,60.8882435 165.002321,60.6956 C165.168777,60.5029565 165.147625,60.2126087 164.95542,60.0457739 L164.26017,59.4420348 C164.068884,59.2752 163.778277,59.2964 163.611821,59.4890435 C163.445366,59.681687 163.466518,59.9720348 163.658723,60.1388696 Z M167.134054,63.1566435 L167.829304,63.7594609 C168.021509,63.9262957 168.312116,63.9050957 168.477652,63.7133739 C168.644107,63.5207304 168.623875,63.2294609 168.43167,63.0626261 L167.73642,62.4598087 C167.544214,62.2929739 167.253607,62.3132522 167.088071,62.5058957 C166.921616,62.6985391 166.941848,62.9898087 167.134054,63.1566435 Z M170.427295,60.5518087 L170.899991,59.7609565 C171.03058,59.5425043 170.959768,59.2595304 170.742732,59.1286435 C170.524777,58.9977565 170.242446,59.0687304 170.111857,59.2871826 L169.638241,60.077113 C169.507652,60.2955652 169.578464,60.5785391 169.79642,60.7094261 C170.014375,60.840313 170.296705,60.7693391 170.427295,60.5518087 Z M172.792616,56.5993913 L173.265312,55.8085391 C173.395902,55.590087 173.325089,55.307113 173.107134,55.1762261 C172.889179,55.0453391 172.606848,55.116313 172.476259,55.3347652 L172.003562,56.1246957 C171.872973,56.3431478 171.943786,56.6261217 172.161741,56.7570087 C172.378777,56.8878957 172.661107,56.8178435 172.792616,56.5993913 Z M175.157018,52.6469739 L175.630634,51.8561217 C175.761223,51.6376696 175.690411,51.3546957 175.472455,51.2238087 C175.2545,51.0929217 174.97217,51.1638957 174.84158,51.3823478 L174.368884,52.1722783 C174.238295,52.3907304 174.308187,52.6737043 174.526143,52.8045913 C174.744098,52.9354783 175.026429,52.8654261 175.157018,52.6469739 Z M177.522339,48.6945565 L177.995036,47.9037043 C178.125625,47.6852522 178.054812,47.4022783 177.837777,47.2713913 C177.619821,47.1405043 177.337491,47.2114783 177.206902,47.4299304 L176.733286,48.2207826 C176.602696,48.438313 176.673509,48.721287 176.891464,48.8521739 C177.10942,48.9839826 177.39175,48.9130087 177.522339,48.6945565 Z M179.887661,44.7421391 L180.360357,43.951287 C180.490946,43.7337565 180.420134,43.4498609 180.202179,43.3189739 C179.985143,43.188087 179.701893,43.2590609 179.571304,43.477513 L179.098607,44.2683652 C178.968018,44.4858957 179.03883,44.7697913 179.256786,44.9006783 C179.473821,45.0315652 179.757071,44.9605913 179.887661,44.7421391 Z M182.252062,40.7897217 L182.725679,39.9988696 C182.856268,39.7813391 182.785455,39.4974435 182.5675,39.3665565 C182.349545,39.2356696 182.067214,39.3066435 181.936625,39.5250957 L181.463929,40.3159478 C181.333339,40.5334783 181.403232,40.8173739 181.621187,40.9482609 C181.839143,41.0791478 182.121473,41.0081739 182.252062,40.7897217 Z M184.617384,36.8373043 L185.09008,36.0464522 C185.22067,35.8289217 185.150777,35.5459478 184.932821,35.4141391 C184.714866,35.2832522 184.432536,35.3542261 184.301946,35.5726783 L183.82833,36.3635304 C183.697741,36.5819826 183.768554,36.8649565 183.986509,36.9958435 C184.204464,37.1267304 184.486795,37.0557565 184.617384,36.8373043 Z M186.982705,32.884887 L187.455402,32.0949565 C187.585991,31.8765043 187.515179,31.5935304 187.297223,31.4626435 C187.080187,31.3317565 186.796937,31.4018087 186.666348,31.6202609 L186.193652,32.411113 C186.063062,32.6295652 186.133875,32.9125391 186.35183,33.0434261 C186.568866,33.174313 186.852116,33.1033391 186.982705,32.884887 Z M189.347107,28.9324696 L189.820723,28.1425391 C189.951312,27.924087 189.8805,27.641113 189.662545,27.5102261 C189.444589,27.3793391 189.162259,27.4493913 189.03167,27.6678435 L188.558973,28.4586957 C188.428384,28.6771478 188.499196,28.9601217 188.716232,29.0910087 C188.934187,29.2218957 189.216518,29.1509217 189.347107,28.9324696 Z M191.712429,24.9800522 L192.185125,24.1901217 C192.315714,23.9716696 192.245821,23.6886957 192.027866,23.5578087 C191.809911,23.4269217 191.52758,23.4969739 191.396991,23.7154261 L190.923375,24.5062783 C190.792786,24.7247304 190.863598,25.0077043 191.081554,25.1385913 C191.299509,25.2694783 191.581839,25.1985043 191.712429,24.9800522 Z M194.07775,21.0276348 L194.550446,20.2377043 C194.681036,20.0192522 194.610223,19.7362783 194.392268,19.6053913 C194.175232,19.4745043 193.891982,19.5454783 193.761393,19.7630087 L193.288696,20.5538609 C193.158107,20.772313 193.22892,21.055287 193.446875,21.1861739 C193.66483,21.3170609 193.947161,21.246087 194.07775,21.0276348 Z M196.442152,17.0752174 L196.915768,16.285287 C197.046357,16.0668348 196.975545,15.7838609 196.757589,15.6529739 C196.539634,15.522087 196.257304,15.5930609 196.126714,15.8105913 L195.654018,16.6014435 C195.523429,16.8198957 195.594241,17.1028696 195.811277,17.2337565 C196.029232,17.3646435 196.311562,17.2936696 196.442152,17.0752174 Z M198.807473,13.1228 L199.28017,12.3328696 C199.410759,12.1144174 199.340866,11.8314435 199.122911,11.7005565 C198.904955,11.5696696 198.622625,11.6406435 198.492036,11.8581739 L198.01842,12.6490261 C197.88783,12.8674783 197.958643,13.1504522 198.176598,13.2813391 C198.394554,13.4122261 198.676884,13.3412522 198.807473,13.1228 Z M201.172795,9.17130435 L201.645491,8.38045217 C201.77608,8.162 201.705268,7.87902609 201.487312,7.74813913 C201.270277,7.61725217 200.987946,7.68822609 200.856437,7.90667826 L200.383741,8.6966087 C200.253152,8.91506087 200.323964,9.19803478 200.54192,9.32892174 C200.759875,9.4598087 201.042205,9.38883478 201.172795,9.17130435 Z M203.537196,5.21888696 L204.010812,4.42803478 C204.141402,4.20958261 204.070589,3.9266087 203.852634,3.79572174 C203.634679,3.66483478 203.352348,3.7358087 203.221759,3.95426087 L202.749062,4.7441913 C202.618473,4.96264348 202.689286,5.24561739 202.906321,5.37650435 C203.124277,5.5073913 203.406607,5.43641739 203.537196,5.21888696 Z" id="Fill-9" fill="#92B9FF"></path>
                                <path d="M17.9455429,37.5507304 C17.9455429,38.6328522 17.0710545,39.5094261 15.9913018,39.5094261 C14.9116411,39.5094261 14.0370607,38.6328522 14.0370607,37.5507304 C14.0370607,36.4686087 14.9116411,35.5920348 15.9913018,35.5920348 C17.0710545,35.5920348 17.9455429,36.4686087 17.9455429,37.5507304 Z" id="Fill-10" fill="#FCB74B"></path>
                                <path d="M27.3590991,47.9765217 C27.3590991,49.0577217 26.4835071,49.9352174 25.404858,49.9352174 C24.3251973,49.9352174 23.450617,49.0577217 23.450617,47.9765217 C23.450617,46.8944 24.3251973,46.0178261 25.404858,46.0178261 C26.4835071,46.0178261 27.3590991,46.8944 27.3590991,47.9765217 Z" id="Fill-11" fill="#FCB74B"></path>
                                <path d="M33.013983,41.6395652 C33.013983,42.7207652 32.1394027,43.5982609 31.059742,43.5982609 C29.9799893,43.5982609 29.1055009,42.7207652 29.1055009,41.6395652 C29.1055009,40.5574435 29.9799893,39.6808696 31.059742,39.6808696 C32.1394027,39.6808696 33.013983,40.5574435 33.013983,41.6395652 Z" id="Fill-12" fill="#FCB74B"></path>
                                <path d="M60.373358,74.1511478 C60.373358,75.2332696 59.4987777,76.1098435 58.419117,76.1098435 C57.3393643,76.1098435 56.4648759,75.2332696 56.4648759,74.1511478 C56.4648759,73.0699478 57.3393643,72.1924522 58.419117,72.1924522 C59.4987777,72.1924522 60.373358,73.0699478 60.373358,74.1511478 Z" id="Fill-13" fill="#FCB74B"></path>
                                <path d="M75.3506616,62.2072522 C75.3506616,63.2893739 74.4759893,64.1659478 73.3964205,64.1659478 C72.3175875,64.1659478 71.4421795,63.2893739 71.4421795,62.2072522 C71.4421795,61.1251304 72.3175875,60.2485565 73.3964205,60.2485565 C74.4759893,60.2485565 75.3506616,61.1251304 75.3506616,62.2072522 Z" id="Fill-14" fill="#FCB74B"></path>
                                <path d="M86.2648911,72.6920348 C86.2648911,73.7741565 85.3904027,74.6507304 84.31065,74.6507304 C83.2320009,74.6507304 82.3564089,73.7741565 82.3564089,72.6920348 C82.3564089,71.609913 83.2320009,70.7333391 84.31065,70.7333391 C85.3904027,70.7333391 86.2648911,71.609913 86.2648911,72.6920348 Z" id="Fill-15" fill="#FCB74B"></path>
                                <path d="M137.919759,62.7944 C137.919759,63.8765217 137.044259,64.7530957 135.965518,64.7530957 C134.885857,64.7530957 134.011277,63.8765217 134.011277,62.7944 C134.011277,61.7122783 134.885857,60.8357043 135.965518,60.8357043 C137.044259,60.8357043 137.919759,61.7122783 137.919759,62.7944 Z" id="Fill-16" fill="#FCB74B"></path>
                                <path d="M115.388509,30.3030957 C115.388509,31.3852174 114.513009,32.2617913 113.434268,32.2617913 C112.354607,32.2617913 111.480027,31.3852174 111.480027,30.3030957 C111.480027,29.2209739 112.354607,28.3444 113.434268,28.3444 C114.513009,28.3444 115.388509,29.2209739 115.388509,30.3030957 Z" id="Fill-17" fill="#FCB74B"></path>
                                <path d="M153.064437,48.9443478 C153.064437,50.0264696 152.189857,50.9030435 151.110196,50.9030435 C150.031455,50.9030435 149.155955,50.0264696 149.155955,48.9443478 C149.155955,47.8622261 150.031455,46.9856522 151.110196,46.9856522 C152.189857,46.9856522 153.064437,47.8622261 153.064437,48.9443478 Z" id="Fill-18" fill="#FCB74B"></path>
                                <path d="M170.117375,62.7944 C170.117375,63.8765217 169.241875,64.7530957 168.163134,64.7530957 C167.083473,64.7530957 166.208893,63.8765217 166.208893,62.7944 C166.208893,61.7122783 167.083473,60.8357043 168.163134,60.8357043 C169.241875,60.8357043 170.117375,61.7122783 170.117375,62.7944 Z" id="Fill-19" fill="#FCB74B"></path>
                            </g>
                        </g>
                    </g>
                    <g id="Group-52" transform="translate(64.000000, 0.000000)">
                        <g id="Group-6" filter="url(#filter-3)" transform="translate(64.000000, 61.000000)">
                            <path d="M98.1072061,0.589588726 L98.1072061,34.8755235 C98.1072061,38.8066595 100.996832,42.3152481 104.930792,42.6872343 C107.424479,42.9237887 109.698403,41.9577079 111.234935,40.3036332 C115.067186,36.179281 121.999746,36.755318 125.379755,41.2534622 C127.263188,43.7634663 128.378355,46.8747881 128.378355,50.2479448 C128.378355,53.6192957 127.263188,56.7324232 125.379755,59.2424273 C121.99793,63.7405715 115.067186,64.3166085 111.234935,60.1904505 C109.698403,58.5381816 107.424479,57.5702951 104.932608,57.8068494 C100.996832,58.1806414 98.1072061,61.68923 98.1072061,65.6185603 L98.1072061,99.9063008 L132.592015,99.9063008 C136.547769,99.9063008 140.074893,102.779262 140.450853,106.690535 C140.686964,109.168036 139.715279,111.428845 138.05161,112.958322 C133.905151,116.766667 134.482713,123.662858 139.008765,127.019763 C141.531512,128.892335 144.662697,130.002876 148.053603,130.002876 C151.444509,130.002876 154.575694,128.892335 157.096625,127.021569 C161.624493,123.662858 162.202055,116.768473 158.05378,112.956517 C156.391927,111.428845 155.420243,109.168036 155.658169,106.690535 C156.034129,102.779262 159.561253,99.9063008 163.515191,99.9063008 L198,99.9063008 L198,14.885778 C198,6.9891965 191.563272,0.589588726 183.620886,0.589588726 L98.1072061,0.589588726 Z" id="Fill-1" fill="#92B9FF"></path>
                            <polygon id="Fill-2" fill="#B4CEFC" points="154.144627 7.10094909 180.132996 7.10094909 180.132996 4.65918896 154.144627 4.65918896"></polygon>
                            <polygon id="Fill-3" fill="#B4CEFC" points="120.034893 7.10094909 130.592668 7.10094909 130.592668 4.65918896 120.034893 4.65918896"></polygon>
                            <polygon id="Fill-4" fill="#B4CEFC" points="193.127181 92.5625539 195.56359 92.5625539 195.56359 20.9375899 193.127181 20.9375899"></polygon>
                            <path d="M198,99.8878343 L163.789195,99.8878343 C159.866673,99.8878343 156.365772,102.760288 155.994601,106.670869 C155.758565,109.147931 156.722529,111.408341 158.372979,112.937548 C162.486492,116.745219 161.913519,123.638385 157.42343,126.996502 C154.920728,128.868742 151.814422,129.979087 148.450458,129.979087 C145.086495,129.979087 141.978387,128.868742 139.477487,126.996502 C134.987397,123.638385 134.414425,116.745219 138.527937,112.937548 C140.178388,111.410146 141.142351,109.147931 140.906315,106.670869 C140.535144,102.760288 137.036046,99.8878343 133.111722,99.8878343 L98.9009166,99.8878343 L98.9009166,134.169511 C98.9009166,138.098147 96.0342504,141.606115 92.1315483,141.979841 C89.6594767,142.216353 87.4018194,141.250443 85.8774953,139.596661 C82.0756941,135.471233 75.1982177,136.047168 71.8450651,140.546322 C69.9765969,143.054077 68.8702908,146.164848 68.8702908,149.537409 C68.8702908,152.908163 69.9765969,156.018032 71.8450651,158.525787 C75.1964159,163.024941 82.0756941,163.600876 85.8774953,159.477253 C87.4036212,157.823471 89.6594767,156.857561 92.1315483,157.094074 C96.0342504,157.4678 98.9009166,160.975768 98.9009166,164.904403 L98.9009166,199.18608 L183.735137,199.18608 C191.612614,199.18608 198,192.787604 198,184.892419 L198,99.8878343 Z" id="Fill-5" fill="#77A7FF"></path>
                            <path d="M100.543616,200 L100.543616,165.713587 C100.543616,161.784202 97.6539633,158.275564 93.7199677,157.901767 C91.2262576,157.665209 88.9523137,158.631304 87.415767,160.285401 C83.5834813,164.409811 76.6508584,163.835572 73.272635,159.335559 C71.3873684,156.827326 70.2721915,153.714155 70.2721915,150.340951 C70.2721915,146.969553 71.3873684,143.856382 73.272635,141.348149 C76.6508584,136.848136 83.5834813,136.273897 87.415767,140.398307 C88.9523137,142.050599 91.2262576,143.018499 93.7181515,142.781941 C97.6539633,142.408144 100.543616,138.899506 100.543616,134.970121 L100.543616,100.681902 L66.0584935,100.681902 C62.1045191,100.681902 58.5764552,97.8107062 58.2023079,93.8975731 C57.9643792,91.4200381 58.9360725,89.159197 60.5997567,87.6296983 C64.7453454,83.8213007 64.1677781,76.9268189 59.6425934,73.5680614 C57.1198234,71.6954638 53.9886099,70.5867127 50.5976728,70.5867127 C47.2067357,70.5867127 44.0755222,71.6954638 41.5545684,73.5662556 C37.0266593,76.9250131 36.4490921,83.8213007 40.5974051,87.6315041 C42.259273,89.159197 43.2309663,91.4200381 42.9930377,93.8993789 C42.6170741,97.8107062 39.0899183,100.681902 35.1359439,100.681902 L0.650821745,100.681902 L0.650821745,185.705417 C0.650821745,193.600303 7.08760866,200 15.0300661,200 L100.543616,200 Z" id="Fill-6" fill="#92B9FF"></path>
                            <polygon id="Fill-8" fill="#B4CEFC" points="27.4513274 195.9304 64.8096081 195.9304 64.8096081 193.48864 27.4513274 193.48864"></polygon>
                            <polygon id="Fill-9" fill="#B4CEFC" points="78.6159292 195.9304 92.4222503 195.9304 92.4222503 193.48864 78.6159292 193.48864"></polygon>
                            <polygon id="Fill-10" fill="#92B9FF" points="159.829583 195.9304 182.569406 195.9304 182.569406 193.48864 159.829583 193.48864"></polygon>
                        </g>
                        <g id="Group-3" transform="translate(77.500000, 82.500000) rotate(11.000000) translate(-77.500000, -82.500000) translate(13.000000, 12.000000)">
                            <g id="Fill-11">
                                <use fill="black" fill-opacity="1" filter="url(#filter-6)" xlink:href="#path-5"></use>
                                <use fill="url(#linearGradient-4)" fill-rule="evenodd" xlink:href="#path-5"></use>
                            </g>
                            <polygon id="Fill-13" fill="#92B9FF" points="47.9956845 116.804667 82.1686162 134.79097 81.3588697 136.408247 47.185938 118.421944"></polygon>
                            <polygon id="Fill-14" fill="#92B9FF" points="28.3975137 105.369245 34.1691275 108.670654 33.4323361 110.27014 27.6607223 106.96873"></polygon>
                        </g>
                    </g>
                </g>
            </g>
        </g>
    </g>
</svg>