<?xml version="1.0" encoding="UTF-8"?>
<svg width="296px" height="296px" viewBox="0 0 296 296" version="1.1" xmlns="http://www.w3.org/2000/svg" xmlns:xlink="http://www.w3.org/1999/xlink">
    <!-- Generator: Sketch 51.2 (57519) - http://www.bohemiancoding.com/sketch -->
    <title>profit-how-work</title>
    <desc>Created with Sketch.</desc>
    <defs>
        <path d="M9.6953125,11.4130859 C11.9974073,11.4130859 13.8180272,11.9415637 15.1572266,12.9985352 C16.496426,14.0555066 17.1660156,15.4693922 17.1660156,17.2402344 C17.1660156,19.7304812 15.6718899,21.7115812 12.6835938,23.1835938 C14.5872491,24.1354214 15.9402629,25.137039 16.7426758,26.1884766 C17.5450886,27.2399141 17.9462891,28.4130795 17.9462891,29.7080078 C17.9462891,31.711273 17.2102938,33.3160747 15.7382812,34.5224609 C14.2662687,35.7288472 12.2741011,36.3320312 9.76171875,36.3320312 C7.127591,36.3320312 5.08561923,35.7675838 3.63574219,34.6386719 C2.18586515,33.50976 1.4609375,31.9104921 1.4609375,29.8408203 C1.4609375,28.4905531 1.84000272,27.2758843 2.59814453,26.1967773 C3.35628634,25.1176704 4.59862418,24.1575563 6.32519531,23.3164062 C4.84211498,22.4309852 3.7851594,21.4957732 3.15429688,20.5107422 C2.52343435,19.5257112 2.20800781,18.4189515 2.20800781,17.1904297 C2.20800781,15.4306553 2.89973267,14.0278373 4.28320312,12.9819336 C5.66667358,11.9360299 7.470692,11.4130859 9.6953125,11.4130859 Z M5.19628906,29.7080078 C5.19628906,30.8590552 5.60025638,31.7527637 6.40820312,32.3891602 C7.21614987,33.0255566 8.31184204,33.34375 9.6953125,33.34375 C11.123054,33.34375 12.2325807,33.014489 13.0239258,32.355957 C13.8152709,31.6974251 14.2109375,30.8037166 14.2109375,29.6748047 C14.2109375,28.7783158 13.8457068,27.9593136 13.1152344,27.2177734 C12.384762,26.4762333 11.2780022,25.7900422 9.79492188,25.1591797 L9.31347656,24.9433594 C7.85253176,25.5852897 6.80110998,26.290849 6.15917969,27.0600586 C5.51724939,27.8292682 5.19628906,28.7119091 5.19628906,29.7080078 Z M9.66210938,14.4179688 C8.55533301,14.4179688 7.6643914,14.6918918 6.98925781,15.2397461 C6.31412423,15.7876004 5.9765625,16.5318963 5.9765625,17.4726562 C5.9765625,18.04818 6.09830607,18.5628233 6.34179688,19.0166016 C6.58528768,19.4703799 6.9394508,19.8826479 7.40429688,20.253418 C7.86914295,20.6241881 8.65494238,21.0696589 9.76171875,21.5898438 C11.0898504,21.0032523 12.0278293,20.3862337 12.5756836,19.7387695 C13.1235379,19.0913054 13.3974609,18.3359418 13.3974609,17.4726562 C13.3974609,16.5318963 13.0571323,15.7876004 12.3764648,15.2397461 C11.6957974,14.6918918 10.7910213,14.4179688 9.66210938,14.4179688 Z M37.3535156,23.8642578 C37.3535156,28.0810758 36.6756253,31.2132059 35.3198242,33.2607422 C33.9640232,35.3082785 31.8916155,36.3320312 29.1025391,36.3320312 C26.4020047,36.3320312 24.3544992,35.2750757 22.9599609,33.1611328 C21.5654227,31.04719 20.8681641,27.9482626 20.8681641,23.8642578 C20.8681641,19.5810333 21.5460544,16.424001 22.9018555,14.3930664 C24.2576565,12.3621318 26.3245304,11.3466797 29.1025391,11.3466797 C31.8141412,11.3466797 33.8671805,12.4091691 35.2617188,14.5341797 C36.656257,16.6591903 37.3535156,19.7691853 37.3535156,23.8642578 Z M24.8193359,23.8642578 C24.8193359,27.1735192 25.1596646,29.5364512 25.840332,30.953125 C26.5209995,32.3697988 27.608391,33.078125 29.1025391,33.078125 C30.5966872,33.078125 31.6896124,32.3587312 32.3813477,30.9199219 C33.0730829,29.4811126 33.4189453,27.1292481 33.4189453,23.8642578 C33.4189453,20.6103353 33.0730829,18.2557039 32.3813477,16.800293 C31.6896124,15.344882 30.5966872,14.6171875 29.1025391,14.6171875 C27.608391,14.6171875 26.5209995,15.3310475 25.840332,16.7587891 C25.1596646,18.1865306 24.8193359,20.5549965 24.8193359,23.8642578 Z M43.4462891,19 C43.4462891,20.6490968 43.6067692,21.8776001 43.9277344,22.6855469 C44.2486995,23.4934936 44.7744104,23.8974609 45.5048828,23.8974609 C46.9658276,23.8974609 47.6962891,22.2649903 47.6962891,19 C47.6962891,15.7350097 46.9658276,14.1025391 45.5048828,14.1025391 C44.7744104,14.1025391 44.2486995,14.5065064 43.9277344,15.3144531 C43.6067692,16.1223999 43.4462891,17.3509032 43.4462891,19 Z M50.9169922,18.9667969 C50.9169922,21.5123825 50.4604538,23.42431 49.5473633,24.7026367 C48.6342728,25.9809634 47.2867928,26.6201172 45.5048828,26.6201172 C43.8225827,26.6201172 42.5193731,25.9588282 41.5952148,24.6362305 C40.6710566,23.3136327 40.2089844,21.4238404 40.2089844,18.9667969 C40.2089844,13.9088289 41.9742662,11.3798828 45.5048828,11.3798828 C47.2425217,11.3798828 48.5789341,12.035638 49.5141602,13.347168 C50.4493862,14.658698 50.9169922,16.5318889 50.9169922,18.9667969 Z M59.2509766,28.6953125 C59.2509766,30.3444093 59.4142236,31.5784464 59.7407227,32.3974609 C60.0672217,33.2164754 60.5956995,33.6259766 61.3261719,33.6259766 C62.7760489,33.6259766 63.5009766,31.9824383 63.5009766,28.6953125 C63.5009766,25.4524577 62.7760489,23.8310547 61.3261719,23.8310547 C60.5956995,23.8310547 60.0672217,24.2294882 59.7407227,25.0263672 C59.4142236,25.8232462 59.2509766,27.0462157 59.2509766,28.6953125 Z M66.7216797,28.6953125 C66.7216797,31.2408981 66.2623744,33.1500587 65.34375,34.4228516 C64.4251256,35.6956444 63.0859463,36.3320312 61.3261719,36.3320312 C59.6438718,36.3320312 58.3378953,35.6762761 57.4082031,34.3647461 C56.478511,33.0532161 56.0136719,31.1634238 56.0136719,28.6953125 C56.0136719,23.6373445 57.7844875,21.1083984 61.3261719,21.1083984 C63.0306075,21.1083984 64.3559523,21.7613867 65.3022461,23.0673828 C66.2485399,24.3733789 66.7216797,26.2493367 66.7216797,28.6953125 Z M61.7910156,11.7285156 L48.3271484,36 L45.1064453,36 L58.5703125,11.7285156 L61.7910156,11.7285156 Z" id="path-1"></path>
        <path d="M8.21777344,11.9790039 C8.21777344,13.2876042 7.88818689,14.3093225 7.22900391,15.0441895 C6.56982092,15.7790564 5.6591855,16.1464844 4.49707031,16.1464844 C3.77929329,16.1464844 3.14209263,15.978029 2.58544922,15.6411133 C2.02880581,15.3041975 1.59912261,14.8208039 1.29638672,14.190918 C0.99365083,13.561032 0.842285156,12.8237347 0.842285156,11.9790039 C0.842285156,10.6704036 1.16943032,9.6511267 1.82373047,8.92114258 C2.47803062,8.19115846 3.38622466,7.82617188 4.54833984,7.82617188 C5.67139233,7.82617188 6.5637174,8.1997033 7.2253418,8.94677734 C7.8869662,9.69385139 8.21777344,10.7045835 8.21777344,11.9790039 Z M2.10205078,11.9790039 C2.10205078,13.0043997 2.30712686,13.7856418 2.71728516,14.3227539 C3.12744346,14.859866 3.73046477,15.128418 4.52636719,15.128418 C5.3222696,15.128418 5.92651161,14.8610867 6.33911133,14.326416 C6.75171105,13.7917454 6.95800781,13.0092825 6.95800781,11.9790039 C6.95800781,10.958491 6.75171105,10.1833523 6.33911133,9.65356445 C5.92651161,9.12377665 5.31738684,8.85888672 4.51171875,8.85888672 C3.71581633,8.85888672 3.1152364,9.12011458 2.70996094,9.64257812 C2.30468547,10.1650417 2.10205078,10.9438425 2.10205078,11.9790039 Z M13.9672852,8.91748047 L11.9238281,8.91748047 L11.9238281,16 L10.7080078,16 L10.7080078,8.91748047 L9.27246094,8.91748047 L9.27246094,8.36816406 L10.7080078,7.92871094 L10.7080078,7.48193359 C10.7080078,5.50926748 11.5698156,4.52294922 13.293457,4.52294922 C13.7182638,4.52294922 14.2163057,4.60839758 14.7875977,4.77929688 L14.4726562,5.75341797 C14.0039039,5.60205002 13.6035173,5.52636719 13.2714844,5.52636719 C12.8124977,5.52636719 12.4731456,5.67895355 12.253418,5.98413086 C12.0336903,6.28930817 11.9238281,6.77880522 11.9238281,7.45263672 L11.9238281,7.97265625 L13.9672852,7.97265625 L13.9672852,8.91748047 Z M21.9213867,15.1430664 C22.1362315,15.1430664 22.343749,15.1271974 22.5439453,15.095459 C22.7441416,15.0637205 22.9028314,15.0307619 23.0200195,14.996582 L23.0200195,15.9267578 C22.8881829,15.9902347 22.6940931,16.0427244 22.4377441,16.0842285 C22.1813952,16.1257326 21.9506846,16.1464844 21.7456055,16.1464844 C20.1928633,16.1464844 19.4165039,15.3286215 19.4165039,13.6928711 L19.4165039,8.91748047 L18.2666016,8.91748047 L18.2666016,8.33154297 L19.4165039,7.82617188 L19.9291992,6.11230469 L20.6323242,6.11230469 L20.6323242,7.97265625 L22.9614258,7.97265625 L22.9614258,8.91748047 L20.6323242,8.91748047 L20.6323242,13.6416016 C20.6323242,14.1250024 20.7470692,14.4960925 20.9765625,14.7548828 C21.2060558,15.0136732 21.5209941,15.1430664 21.9213867,15.1430664 Z M30.1171875,16 L30.1171875,10.8071289 C30.1171875,10.1528288 29.9682632,9.66455239 29.6704102,9.34228516 C29.3725571,9.02001792 28.9062532,8.85888672 28.2714844,8.85888672 C27.4267536,8.85888672 26.8103047,9.08837661 26.4221191,9.54736328 C26.0339336,10.00635 25.8398438,10.7582956 25.8398438,11.8032227 L25.8398438,16 L24.6240234,16 L24.6240234,4.60351562 L25.8398438,4.60351562 L25.8398438,8.05322266 C25.8398438,8.46826379 25.8203127,8.81249863 25.78125,9.0859375 L25.8544922,9.0859375 C26.0937512,8.70019338 26.434324,8.39624135 26.8762207,8.17407227 C27.3181174,7.95190319 27.8222628,7.84082031 28.3886719,7.84082031 C29.3701221,7.84082031 30.1061987,8.07397228 30.5969238,8.5402832 C31.0876489,9.00659413 31.3330078,9.74755352 31.3330078,10.7631836 L31.3330078,16 L30.1171875,16 Z M37.2216797,16.1464844 C36.0351503,16.1464844 35.0988804,15.7851599 34.4128418,15.0625 C33.7268032,14.3398401 33.3837891,13.3364322 33.3837891,12.0522461 C33.3837891,10.7582943 33.7023894,9.73047256 34.3395996,8.96875 C34.9768098,8.20702744 35.8325142,7.82617188 36.9067383,7.82617188 C37.9126027,7.82617188 38.7084932,8.15697911 39.2944336,8.81860352 C39.880374,9.48022792 40.1733398,10.3530219 40.1733398,11.4370117 L40.1733398,12.2060547 L34.6435547,12.2060547 C34.6679689,13.1484422 34.9060036,13.8637671 35.357666,14.3520508 C35.8093284,14.8403345 36.4453084,15.0844727 37.265625,15.0844727 C38.1298871,15.0844727 38.9843708,14.9038104 39.8291016,14.5424805 L39.8291016,15.6264648 C39.3994119,15.8120126 38.9929218,15.945068 38.6096191,16.0256348 C38.2263164,16.1062016 37.7636746,16.1464844 37.2216797,16.1464844 Z M36.8920898,8.84423828 C36.2475554,8.84423828 35.7336445,9.05419712 35.3503418,9.47412109 C34.9670391,9.89404507 34.7412113,10.4750939 34.6728516,11.2172852 L38.8696289,11.2172852 C38.8696289,10.4506798 38.6987322,9.86352743 38.3569336,9.45581055 C38.015135,9.04809366 37.5268586,8.84423828 36.8920898,8.84423828 Z M49.7607422,8.91748047 L47.7172852,8.91748047 L47.7172852,16 L46.5014648,16 L46.5014648,8.91748047 L45.065918,8.91748047 L45.065918,8.36816406 L46.5014648,7.92871094 L46.5014648,7.48193359 C46.5014648,5.50926748 47.3632726,4.52294922 49.0869141,4.52294922 C49.5117209,4.52294922 50.0097628,4.60839758 50.5810547,4.77929688 L50.2661133,5.75341797 C49.7973609,5.60205002 49.3969743,5.52636719 49.0649414,5.52636719 C48.6059547,5.52636719 48.2666027,5.67895355 48.046875,5.98413086 C47.8271473,6.28930817 47.7172852,6.77880522 47.7172852,7.45263672 L47.7172852,7.97265625 L49.7607422,7.97265625 L49.7607422,8.91748047 Z M54.6166992,16.1464844 C53.4301698,16.1464844 52.4938999,15.7851599 51.8078613,15.0625 C51.1218227,14.3398401 50.7788086,13.3364322 50.7788086,12.0522461 C50.7788086,10.7582943 51.0974089,9.73047256 51.7346191,8.96875 C52.3718294,8.20702744 53.2275337,7.82617188 54.3017578,7.82617188 C55.3076222,7.82617188 56.1035127,8.15697911 56.6894531,8.81860352 C57.2753936,9.48022792 57.5683594,10.3530219 57.5683594,11.4370117 L57.5683594,12.2060547 L52.0385742,12.2060547 C52.0629884,13.1484422 52.3010231,13.8637671 52.7526855,14.3520508 C53.204348,14.8403345 53.8403279,15.0844727 54.6606445,15.0844727 C55.5249067,15.0844727 56.3793903,14.9038104 57.2241211,14.5424805 L57.2241211,15.6264648 C56.7944314,15.8120126 56.3879414,15.945068 56.0046387,16.0256348 C55.621336,16.1062016 55.1586941,16.1464844 54.6166992,16.1464844 Z M54.2871094,8.84423828 C53.6425749,8.84423828 53.128664,9.05419712 52.7453613,9.47412109 C52.3620586,9.89404507 52.1362308,10.4750939 52.0678711,11.2172852 L56.2646484,11.2172852 C56.2646484,10.4506798 56.0937517,9.86352743 55.7519531,9.45581055 C55.4101545,9.04809366 54.9218782,8.84423828 54.2871094,8.84423828 Z M63.0322266,16.1464844 C61.8456972,16.1464844 60.9094273,15.7851599 60.2233887,15.0625 C59.5373501,14.3398401 59.1943359,13.3364322 59.1943359,12.0522461 C59.1943359,10.7582943 59.5129363,9.73047256 60.1501465,8.96875 C60.7873567,8.20702744 61.643061,7.82617188 62.7172852,7.82617188 C63.7231496,7.82617188 64.51904,8.15697911 65.1049805,8.81860352 C65.6909209,9.48022792 65.9838867,10.3530219 65.9838867,11.4370117 L65.9838867,12.2060547 L60.4541016,12.2060547 C60.4785157,13.1484422 60.7165505,13.8637671 61.1682129,14.3520508 C61.6198753,14.8403345 62.2558553,15.0844727 63.0761719,15.0844727 C63.940434,15.0844727 64.7949177,14.9038104 65.6396484,14.5424805 L65.6396484,15.6264648 C65.2099588,15.8120126 64.8034687,15.945068 64.420166,16.0256348 C64.0368633,16.1062016 63.5742215,16.1464844 63.0322266,16.1464844 Z M62.7026367,8.84423828 C62.0581022,8.84423828 61.5441914,9.05419712 61.1608887,9.47412109 C60.777586,9.89404507 60.5517582,10.4750939 60.4833984,11.2172852 L64.6801758,11.2172852 C64.6801758,10.4506798 64.5092791,9.86352743 64.1674805,9.45581055 C63.8256819,9.04809366 63.3374055,8.84423828 62.7026367,8.84423828 Z M73.2348633,13.8100586 C73.2348633,14.5571326 72.9565458,15.1332988 72.3999023,15.5385742 C71.8432589,15.9438497 71.0620167,16.1464844 70.0561523,16.1464844 C68.9916939,16.1464844 68.1616241,15.978029 67.565918,15.6411133 L67.565918,14.5131836 C67.9516621,14.7084971 68.3654763,14.8623041 68.807373,14.9746094 C69.2492698,15.0869146 69.6752909,15.1430664 70.0854492,15.1430664 C70.720218,15.1430664 71.2084944,15.0417491 71.550293,14.8391113 C71.8920916,14.6364736 72.0629883,14.3276388 72.0629883,13.9125977 C72.0629883,13.6000961 71.9274916,13.3327648 71.6564941,13.1105957 C71.3854967,12.8884266 70.8569375,12.6259781 70.0708008,12.3232422 C69.3237267,12.0449205 68.7927262,11.802003 68.4777832,11.5944824 C68.1628402,11.3869619 67.9284676,11.1513685 67.7746582,10.8876953 C67.6208488,10.6240221 67.5439453,10.3090839 67.5439453,9.94287109 C67.5439453,9.28857095 67.8100559,8.77221869 68.3422852,8.39379883 C68.8745144,8.01537897 69.6044875,7.82617188 70.5322266,7.82617188 C71.3964887,7.82617188 72.2412068,8.00195137 73.0664062,8.35351562 L72.6342773,9.34228516 C71.8286093,9.01025225 71.0986361,8.84423828 70.4443359,8.84423828 C69.8681612,8.84423828 69.4335952,8.93456941 69.140625,9.11523438 C68.8476548,9.29589934 68.7011719,9.54492029 68.7011719,9.86230469 C68.7011719,10.0771495 68.756103,10.2602531 68.8659668,10.4116211 C68.9758306,10.562989 69.1528308,10.7070306 69.3969727,10.84375 C69.6411145,10.9804694 70.1098598,11.1782214 70.8032227,11.4370117 C71.7553759,11.7836931 72.39868,12.1328107 72.7331543,12.484375 C73.0676286,12.8359393 73.2348633,13.2778294 73.2348633,13.8100586 Z M85.6787109,7.97265625 L85.6787109,8.74169922 L84.1918945,8.91748047 C84.328614,9.08837976 84.4506831,9.3117662 84.5581055,9.58764648 C84.6655279,9.86352677 84.7192383,10.174803 84.7192383,10.5214844 C84.7192383,11.3076211 84.4506863,11.9350563 83.9135742,12.4038086 C83.3764622,12.8725609 82.6391648,13.1069336 81.7016602,13.1069336 C81.4624011,13.1069336 81.237794,13.0874025 81.027832,13.0483398 C80.5102513,13.3217787 80.2514648,13.6660135 80.2514648,14.0810547 C80.2514648,14.3007823 80.341796,14.4631342 80.5224609,14.5681152 C80.7031259,14.6730962 81.0131814,14.7255859 81.4526367,14.7255859 L82.8735352,14.7255859 C83.7426801,14.7255859 84.4103981,14.9086896 84.876709,15.2749023 C85.3430199,15.6411151 85.5761719,16.1733364 85.5761719,16.871582 C85.5761719,17.7602583 85.2197301,18.4377418 84.5068359,18.9040527 C83.7939417,19.3703637 82.7539131,19.6035156 81.3867188,19.6035156 C80.3369088,19.6035156 79.5275907,19.4082051 78.9587402,19.0175781 C78.3898897,18.6269512 78.1054688,18.0751989 78.1054688,17.3623047 C78.1054688,16.874021 78.2617172,16.4516619 78.5742188,16.0952148 C78.8867203,15.7387677 79.326169,15.4970709 79.8925781,15.3701172 C79.687499,15.2773433 79.5153816,15.1333018 79.3762207,14.9379883 C79.2370599,14.7426748 79.1674805,14.5156263 79.1674805,14.2568359 C79.1674805,13.9638657 79.2456047,13.7075206 79.4018555,13.487793 C79.5581062,13.2680653 79.8046858,13.0556651 80.1416016,12.8505859 C79.7265604,12.6796866 79.388429,12.3891622 79.1271973,11.9790039 C78.8659655,11.5688456 78.7353516,11.1001003 78.7353516,10.5727539 C78.7353516,9.69384326 78.9990208,9.0163598 79.5263672,8.5402832 C80.0537136,8.0642066 80.8007764,7.82617188 81.7675781,7.82617188 C82.1875021,7.82617188 82.5659163,7.87499951 82.902832,7.97265625 L85.6787109,7.97265625 Z M79.2773438,17.3476562 C79.2773438,17.7822287 79.4604474,18.1118153 79.8266602,18.3364258 C80.1928729,18.5610363 80.71777,18.6733398 81.4013672,18.6733398 C82.4218801,18.6733398 83.1774878,18.5207535 83.6682129,18.2155762 C84.158938,17.9103989 84.4042969,17.4965846 84.4042969,16.9741211 C84.4042969,16.5395486 84.2700209,16.238038 84.0014648,16.0695801 C83.7329088,15.9011222 83.2275428,15.8168945 82.4853516,15.8168945 L81.027832,15.8168945 C80.4760715,15.8168945 80.0463883,15.9487292 79.7387695,16.2124023 C79.4311508,16.4760755 79.2773438,16.8544897 79.2773438,17.3476562 Z M79.9365234,10.543457 C79.9365234,11.1049833 80.0952133,11.5297837 80.4125977,11.8178711 C80.7299821,12.1059585 81.1718722,12.25 81.7382812,12.25 C82.9248106,12.25 83.5180664,11.6738339 83.5180664,10.5214844 C83.5180664,9.31542366 82.9174865,8.71240234 81.7163086,8.71240234 C81.1450167,8.71240234 80.7055679,8.8662094 80.3979492,9.17382812 C80.0903305,9.48144685 79.9365234,9.93798525 79.9365234,10.543457 Z M94.2553711,11.9790039 C94.2553711,13.2876042 93.9257845,14.3093225 93.2666016,15.0441895 C92.6074186,15.7790564 91.6967832,16.1464844 90.534668,16.1464844 C89.8168909,16.1464844 89.1796903,15.978029 88.6230469,15.6411133 C88.0664035,15.3041975 87.6367203,14.8208039 87.3339844,14.190918 C87.0312485,13.561032 86.8798828,12.8237347 86.8798828,11.9790039 C86.8798828,10.6704036 87.207028,9.6511267 87.8613281,8.92114258 C88.5156283,8.19115846 89.4238223,7.82617188 90.5859375,7.82617188 C91.70899,7.82617188 92.6013151,8.1997033 93.2629395,8.94677734 C93.9245639,9.69385139 94.2553711,10.7045835 94.2553711,11.9790039 Z M88.1396484,11.9790039 C88.1396484,13.0043997 88.3447245,13.7856418 88.7548828,14.3227539 C89.1650411,14.859866 89.7680624,15.128418 90.5639648,15.128418 C91.3598673,15.128418 91.9641093,14.8610867 92.376709,14.326416 C92.7893087,13.7917454 92.9956055,13.0092825 92.9956055,11.9790039 C92.9956055,10.958491 92.7893087,10.1833523 92.376709,9.65356445 C91.9641093,9.12377665 91.3549845,8.85888672 90.5493164,8.85888672 C89.753414,8.85888672 89.1528341,9.12011458 88.7475586,9.64257812 C88.3422831,10.1650417 88.1396484,10.9438425 88.1396484,11.9790039 Z M104.018555,7.84082031 C105.073247,7.84082031 105.892331,8.20092413 106.47583,8.92114258 C107.059329,9.64136102 107.351074,10.6606379 107.351074,11.9790039 C107.351074,13.2973699 107.056888,14.3215296 106.468506,15.0515137 C105.880124,15.7814978 105.063482,16.1464844 104.018555,16.1464844 C103.496091,16.1464844 103.018801,16.0500498 102.58667,15.8571777 C102.154539,15.6643057 101.791994,15.3676778 101.499023,14.9672852 L101.411133,14.9672852 L101.154785,16 L100.283203,16 L100.283203,4.60351562 L101.499023,4.60351562 L101.499023,7.37207031 C101.499023,7.9921906 101.479492,8.54882566 101.44043,9.04199219 L101.499023,9.04199219 C102.065433,8.24120693 102.905268,7.84082031 104.018555,7.84082031 Z M103.842773,8.85888672 C103.012691,8.85888672 102.414553,9.09692145 102.04834,9.57299805 C101.682127,10.0490746 101.499023,10.8510686 101.499023,11.9790039 C101.499023,13.1069392 101.68701,13.9138159 102.062988,14.3996582 C102.438967,14.8855005 103.041988,15.128418 103.87207,15.128418 C104.619144,15.128418 105.175779,14.8562039 105.541992,14.3117676 C105.908205,13.7673313 106.091309,12.9848684 106.091309,11.9643555 C106.091309,10.9194284 105.908205,10.1406276 105.541992,9.62792969 C105.175779,9.11523181 104.609379,8.85888672 103.842773,8.85888672 Z M114.411621,16 L114.169922,14.8574219 L114.111328,14.8574219 C113.710935,15.3603541 113.31177,15.7009268 112.913818,15.8791504 C112.515867,16.0573739 112.019046,16.1464844 111.42334,16.1464844 C110.627437,16.1464844 110.003664,15.9414083 109.552002,15.53125 C109.10034,15.1210917 108.874512,14.5376014 108.874512,13.7807617 C108.874512,12.1596599 110.170885,11.310059 112.763672,11.2319336 L114.125977,11.1879883 L114.125977,10.6899414 C114.125977,10.0600554 113.99048,9.5949722 113.719482,9.29467773 C113.448485,8.99438326 113.01514,8.84423828 112.419434,8.84423828 C111.750485,8.84423828 110.993657,9.04931436 110.148926,9.45947266 L109.775391,8.52929688 C110.1709,8.31445205 110.604246,8.1459967 111.075439,8.02392578 C111.546633,7.90185486 112.019041,7.84082031 112.492676,7.84082031 C113.449712,7.84082031 114.158933,8.05322053 114.620361,8.47802734 C115.081789,8.90283416 115.3125,9.58397969 115.3125,10.5214844 L115.3125,16 L114.411621,16 Z M111.665039,15.1430664 C112.421879,15.1430664 113.016355,14.935549 113.448486,14.5205078 C113.880617,14.1054667 114.09668,13.5244178 114.09668,12.7773438 L114.09668,12.0522461 L112.880859,12.1035156 C111.914058,12.1376955 111.217043,12.2878405 110.789795,12.5539551 C110.362547,12.8200697 110.148926,13.2338839 110.148926,13.7954102 C110.148926,14.2348655 110.281981,14.5693348 110.548096,14.7988281 C110.81421,15.0283215 111.186521,15.1430664 111.665039,15.1430664 Z M121.025391,16.1464844 C119.863275,16.1464844 118.963626,15.7888219 118.326416,15.0734863 C117.689206,14.3581507 117.370605,13.3461979 117.370605,12.0375977 C117.370605,10.6948175 117.694089,9.65723022 118.341064,8.92480469 C118.98804,8.19237915 119.909662,7.82617188 121.105957,7.82617188 C121.491701,7.82617188 121.877439,7.86767537 122.263184,7.95068359 C122.648928,8.03369182 122.951659,8.13134709 123.171387,8.24365234 L122.797852,9.27636719 C122.529296,9.16894478 122.23633,9.07983434 121.918945,9.0090332 C121.601561,8.93823207 121.320802,8.90283203 121.07666,8.90283203 C119.445793,8.90283203 118.630371,9.94286069 118.630371,12.0229492 C118.630371,13.0092823 118.829344,13.7661106 119.227295,14.293457 C119.625246,14.8208034 120.21484,15.0844727 120.996094,15.0844727 C121.665042,15.0844727 122.351071,14.9404311 123.054199,14.6523438 L123.054199,15.7290039 C122.517087,16.0073256 121.840824,16.1464844 121.025391,16.1464844 Z M126.159668,11.8911133 C126.36963,11.5932602 126.689451,11.2026391 127.119141,10.7192383 L129.711914,7.97265625 L131.154785,7.97265625 L127.902832,11.3930664 L131.381836,16 L129.909668,16 L127.075195,12.2060547 L126.159668,12.9970703 L126.159668,16 L124.958496,16 L124.958496,4.60351562 L126.159668,4.60351562 L126.159668,10.6459961 C126.159668,10.9145521 126.140137,11.329587 126.101074,11.8911133 L126.159668,11.8911133 Z M139.321289,15.1430664 C139.536134,15.1430664 139.743651,15.1271974 139.943848,15.095459 C140.144044,15.0637205 140.302734,15.0307619 140.419922,14.996582 L140.419922,15.9267578 C140.288085,15.9902347 140.093995,16.0427244 139.837646,16.0842285 C139.581298,16.1257326 139.350587,16.1464844 139.145508,16.1464844 C137.592766,16.1464844 136.816406,15.3286215 136.816406,13.6928711 L136.816406,8.91748047 L135.666504,8.91748047 L135.666504,8.33154297 L136.816406,7.82617188 L137.329102,6.11230469 L138.032227,6.11230469 L138.032227,7.97265625 L140.361328,7.97265625 L140.361328,8.91748047 L138.032227,8.91748047 L138.032227,13.6416016 C138.032227,14.1250024 138.146972,14.4960925 138.376465,14.7548828 C138.605958,15.0136732 138.920896,15.1430664 139.321289,15.1430664 Z M148.952637,11.9790039 C148.952637,13.2876042 148.62305,14.3093225 147.963867,15.0441895 C147.304684,15.7790564 146.394049,16.1464844 145.231934,16.1464844 C144.514157,16.1464844 143.876956,15.978029 143.320312,15.6411133 C142.763669,15.3041975 142.333986,14.8208039 142.03125,14.190918 C141.728514,13.561032 141.577148,12.8237347 141.577148,11.9790039 C141.577148,10.6704036 141.904294,9.6511267 142.558594,8.92114258 C143.212894,8.19115846 144.121088,7.82617188 145.283203,7.82617188 C146.406256,7.82617188 147.298581,8.1997033 147.960205,8.94677734 C148.621829,9.69385139 148.952637,10.7045835 148.952637,11.9790039 Z M142.836914,11.9790039 C142.836914,13.0043997 143.04199,13.7856418 143.452148,14.3227539 C143.862307,14.859866 144.465328,15.128418 145.26123,15.128418 C146.057133,15.128418 146.661375,14.8610867 147.073975,14.326416 C147.486574,13.7917454 147.692871,13.0092825 147.692871,11.9790039 C147.692871,10.958491 147.486574,10.1833523 147.073975,9.65356445 C146.661375,9.12377665 146.05225,8.85888672 145.246582,8.85888672 C144.45068,8.85888672 143.8501,9.12011458 143.444824,9.64257812 C143.039549,10.1650417 142.836914,10.9438425 142.836914,11.9790039 Z M156.196289,16 L154.980469,16 L154.980469,7.97265625 L156.196289,7.97265625 L156.196289,16 Z M154.87793,5.79736328 C154.87793,5.51904158 154.946288,5.31518619 155.083008,5.18579102 C155.219727,5.05639584 155.390624,4.99169922 155.595703,4.99169922 C155.791017,4.99169922 155.959472,5.05761653 156.101074,5.18945312 C156.242676,5.32128972 156.313477,5.52392441 156.313477,5.79736328 C156.313477,6.07080215 156.242676,6.27465753 156.101074,6.40893555 C155.959472,6.54321356 155.791017,6.61035156 155.595703,6.61035156 C155.390624,6.61035156 155.219727,6.54321356 155.083008,6.40893555 C154.946288,6.27465753 154.87793,6.07080215 154.87793,5.79736328 Z M164.267578,16 L164.267578,10.8071289 C164.267578,10.1528288 164.118654,9.66455239 163.820801,9.34228516 C163.522948,9.02001792 163.056644,8.85888672 162.421875,8.85888672 C161.582027,8.85888672 160.966799,9.08593523 160.576172,9.54003906 C160.185545,9.9941429 159.990234,10.7436471 159.990234,11.7885742 L159.990234,16 L158.774414,16 L158.774414,7.97265625 L159.763184,7.97265625 L159.960938,9.07128906 L160.019531,9.07128906 C160.268556,8.67577927 160.617674,8.36938585 161.066895,8.15209961 C161.516116,7.93481337 162.016599,7.82617188 162.568359,7.82617188 C163.535161,7.82617188 164.262693,8.05932384 164.750977,8.52563477 C165.23926,8.99194569 165.483398,9.73778784 165.483398,10.7631836 L165.483398,16 L164.267578,16 Z M169.73877,16 L166.691895,7.97265625 L167.995605,7.97265625 L169.724121,12.7333984 C170.114748,13.8466853 170.344238,14.5693343 170.412598,14.9013672 L170.471191,14.9013672 C170.524903,14.6425768 170.694579,14.1066935 170.980225,13.2937012 C171.265871,12.4807088 171.906733,10.7070449 172.902832,7.97265625 L174.206543,7.97265625 L171.159668,16 L169.73877,16 Z M178.886719,16.1464844 C177.700189,16.1464844 176.763919,15.7851599 176.077881,15.0625 C175.391842,14.3398401 175.048828,13.3364322 175.048828,12.0522461 C175.048828,10.7582943 175.367428,9.73047256 176.004639,8.96875 C176.641849,8.20702744 177.497553,7.82617188 178.571777,7.82617188 C179.577642,7.82617188 180.373532,8.15697911 180.959473,8.81860352 C181.545413,9.48022792 181.838379,10.3530219 181.838379,11.4370117 L181.838379,12.2060547 L176.308594,12.2060547 C176.333008,13.1484422 176.571043,13.8637671 177.022705,14.3520508 C177.474367,14.8403345 178.110347,15.0844727 178.930664,15.0844727 C179.794926,15.0844727 180.64941,14.9038104 181.494141,14.5424805 L181.494141,15.6264648 C181.064451,15.8120126 180.657961,15.945068 180.274658,16.0256348 C179.891356,16.1062016 179.428714,16.1464844 178.886719,16.1464844 Z M178.557129,8.84423828 C177.912594,8.84423828 177.398684,9.05419712 177.015381,9.47412109 C176.632078,9.89404507 176.40625,10.4750939 176.337891,11.2172852 L180.534668,11.2172852 C180.534668,10.4506798 180.363771,9.86352743 180.021973,9.45581055 C179.680174,9.04809366 179.191898,8.84423828 178.557129,8.84423828 Z M189.089355,13.8100586 C189.089355,14.5571326 188.811038,15.1332988 188.254395,15.5385742 C187.697751,15.9438497 186.916509,16.1464844 185.910645,16.1464844 C184.846186,16.1464844 184.016116,15.978029 183.42041,15.6411133 L183.42041,14.5131836 C183.806154,14.7084971 184.219968,14.8623041 184.661865,14.9746094 C185.103762,15.0869146 185.529783,15.1430664 185.939941,15.1430664 C186.57471,15.1430664 187.062987,15.0417491 187.404785,14.8391113 C187.746584,14.6364736 187.91748,14.3276388 187.91748,13.9125977 C187.91748,13.6000961 187.781984,13.3327648 187.510986,13.1105957 C187.239989,12.8884266 186.71143,12.6259781 185.925293,12.3232422 C185.178219,12.0449205 184.647218,11.802003 184.332275,11.5944824 C184.017332,11.3869619 183.78296,11.1513685 183.62915,10.8876953 C183.475341,10.6240221 183.398438,10.3090839 183.398438,9.94287109 C183.398438,9.28857095 183.664548,8.77221869 184.196777,8.39379883 C184.729007,8.01537897 185.45898,7.82617188 186.386719,7.82617188 C187.250981,7.82617188 188.095699,8.00195137 188.920898,8.35351562 L188.48877,9.34228516 C187.683101,9.01025225 186.953128,8.84423828 186.298828,8.84423828 C185.722653,8.84423828 185.288087,8.93456941 184.995117,9.11523438 C184.702147,9.29589934 184.555664,9.54492029 184.555664,9.86230469 C184.555664,10.0771495 184.610595,10.2602531 184.720459,10.4116211 C184.830323,10.562989 185.007323,10.7070306 185.251465,10.84375 C185.495607,10.9804694 185.964352,11.1782214 186.657715,11.4370117 C187.609868,11.7836931 188.253172,12.1328107 188.587646,12.484375 C188.922121,12.8359393 189.089355,13.2778294 189.089355,13.8100586 Z M193.659668,15.1430664 C193.874513,15.1430664 194.08203,15.1271974 194.282227,15.095459 C194.482423,15.0637205 194.641113,15.0307619 194.758301,14.996582 L194.758301,15.9267578 C194.626464,15.9902347 194.432374,16.0427244 194.176025,16.0842285 C193.919676,16.1257326 193.688966,16.1464844 193.483887,16.1464844 C191.931145,16.1464844 191.154785,15.3286215 191.154785,13.6928711 L191.154785,8.91748047 L190.004883,8.91748047 L190.004883,8.33154297 L191.154785,7.82617188 L191.66748,6.11230469 L192.370605,6.11230469 L192.370605,7.97265625 L194.699707,7.97265625 L194.699707,8.91748047 L192.370605,8.91748047 L192.370605,13.6416016 C192.370605,14.1250024 192.48535,14.4960925 192.714844,14.7548828 C192.944337,15.0136732 193.259275,15.1430664 193.659668,15.1430664 Z M203.291016,11.9790039 C203.291016,13.2876042 202.961429,14.3093225 202.302246,15.0441895 C201.643063,15.7790564 200.732428,16.1464844 199.570312,16.1464844 C198.852535,16.1464844 198.215335,15.978029 197.658691,15.6411133 C197.102048,15.3041975 196.672365,14.8208039 196.369629,14.190918 C196.066893,13.561032 195.915527,12.8237347 195.915527,11.9790039 C195.915527,10.6704036 196.242673,9.6511267 196.896973,8.92114258 C197.551273,8.19115846 198.459467,7.82617188 199.621582,7.82617188 C200.744635,7.82617188 201.63696,8.1997033 202.298584,8.94677734 C202.960208,9.69385139 203.291016,10.7045835 203.291016,11.9790039 Z M197.175293,11.9790039 C197.175293,13.0043997 197.380369,13.7856418 197.790527,14.3227539 C198.200686,14.859866 198.803707,15.128418 199.599609,15.128418 C200.395512,15.128418 200.999754,14.8610867 201.412354,14.326416 C201.824953,13.7917454 202.03125,13.0092825 202.03125,11.9790039 C202.03125,10.958491 201.824953,10.1833523 201.412354,9.65356445 C200.999754,9.12377665 200.390629,8.85888672 199.584961,8.85888672 C198.789059,8.85888672 198.188479,9.12011458 197.783203,9.64257812 C197.377928,10.1650417 197.175293,10.9438425 197.175293,11.9790039 Z M209.084473,7.82617188 C209.44092,7.82617188 209.760741,7.85546846 210.043945,7.9140625 L209.875488,9.04199219 C209.543455,8.96874963 209.25049,8.93212891 208.996582,8.93212891 C208.347165,8.93212891 207.79175,9.19579814 207.330322,9.72314453 C206.868894,10.2504909 206.638184,10.9072226 206.638184,11.6933594 L206.638184,16 L205.422363,16 L205.422363,7.97265625 L206.425781,7.97265625 L206.564941,9.45947266 L206.623535,9.45947266 C206.921388,8.93700911 207.280271,8.5341811 207.700195,8.25097656 C208.120119,7.96777202 208.58154,7.82617188 209.084473,7.82617188 Z M216.723633,13.8100586 C216.723633,14.5571326 216.445315,15.1332988 215.888672,15.5385742 C215.332028,15.9438497 214.550786,16.1464844 213.544922,16.1464844 C212.480463,16.1464844 211.650394,15.978029 211.054688,15.6411133 L211.054688,14.5131836 C211.440432,14.7084971 211.854246,14.8623041 212.296143,14.9746094 C212.738039,15.0869146 213.16406,15.1430664 213.574219,15.1430664 C214.208988,15.1430664 214.697264,15.0417491 215.039062,14.8391113 C215.380861,14.6364736 215.551758,14.3276388 215.551758,13.9125977 C215.551758,13.6000961 215.416261,13.3327648 215.145264,13.1105957 C214.874266,12.8884266 214.345707,12.6259781 213.55957,12.3232422 C212.812496,12.0449205 212.281496,11.802003 211.966553,11.5944824 C211.65161,11.3869619 211.417237,11.1513685 211.263428,10.8876953 C211.109618,10.6240221 211.032715,10.3090839 211.032715,9.94287109 C211.032715,9.28857095 211.298825,8.77221869 211.831055,8.39379883 C212.363284,8.01537897 213.093257,7.82617188 214.020996,7.82617188 C214.885258,7.82617188 215.729976,8.00195137 216.555176,8.35351562 L216.123047,9.34228516 C215.317379,9.01025225 214.587406,8.84423828 213.933105,8.84423828 C213.356931,8.84423828 212.922365,8.93456941 212.629395,9.11523438 C212.336424,9.29589934 212.189941,9.54492029 212.189941,9.86230469 C212.189941,10.0771495 212.244872,10.2602531 212.354736,10.4116211 C212.4646,10.562989 212.6416,10.7070306 212.885742,10.84375 C213.129884,10.9804694 213.598629,11.1782214 214.291992,11.4370117 C215.244145,11.7836931 215.887449,12.1328107 216.221924,12.484375 C216.556398,12.8359393 216.723633,13.2778294 216.723633,13.8100586 Z" id="path-2"></path>
    </defs>
    <g id="Page-1" stroke="none" stroke-width="1" fill="none" fill-rule="evenodd">
        <g id="profit-how-work">
            <circle id="Oval-4" fill="#D7E5FF" fill-rule="nonzero" cx="148" cy="148" r="148"></circle>
            <path d="M4.99103385,109.747037 L152.318905,150.424595 L73.7273275,19.9578856 C95.5576652,7.26752741 120.930122,0 148,0 C229.738143,0 296,66.261857 296,148 C296,229.738143 229.738143,296 148,296 C66.261857,296 0,229.738143 0,148 C0,134.771929 1.73543,121.949189 4.99103385,109.747037 Z" id="Combined-Shape" fill="#3468FE" fill-rule="nonzero"></path>
            <g id="80%" transform="translate(123.000000, 161.000000)">
                <g>
                    <use fill="#000000" xlink:href="#path-1"></use>
                    <use fill="#FFFFFF" xlink:href="#path-1"></use>
                </g>
            </g>
            <g id="of-the-fees-go-back" transform="translate(42.000000, 204.000000)">
                <g id="of-the-fees-go-back-to-investors">
                    <use fill="#000000" xlink:href="#path-2"></use>
                    <use fill="#FFFFFF" xlink:href="#path-2"></use>
                </g>
            </g>
        </g>
    </g>
</svg>