<svg xmlns="http://www.w3.org/2000/svg" xmlns:xlink="http://www.w3.org/1999/xlink" width="538" height="356" viewBox="0 0 538 356"><defs><path id="wl4xa" d="M686.36 541.22c0-6.83 31.38-12.37 70.08-12.37s70.08 5.54 70.08 12.37c0 6.82-31.38 12.36-70.08 12.36s-70.08-5.54-70.08-12.37z"/><path id="wl4xb" d="M677.83 561.67c0-1.84 9.75-3.33 21.78-3.33 12.03 0 21.78 1.5 21.78 3.33 0 1.84-9.75 3.33-21.78 3.33-12.03 0-21.78-1.5-21.78-3.33z"/><path id="wl4xc" d="M657 540.75c0-1.31 7.2-2.38 16.1-2.38 8.9 0 16.1 1.07 16.1 2.38 0 1.31-7.2 2.38-16.1 2.38-8.9 0-16.1-1.07-16.1-2.38z"/><path id="wl4xd" d="M853.03 561.67c0-1.84 12.72-3.33 28.41-3.33s28.41 1.5 28.41 3.33c0 1.84-12.72 3.33-28.41 3.33s-28.41-1.5-28.41-3.33z"/><path id="wl4xe" d="M840.72 538.37c0-6.83 31.8-12.37 71.03-12.37 39.22 0 71.02 5.54 71.02 12.37 0 6.82-31.8 12.36-71.03 12.36-39.22 0-71.02-5.54-71.02-12.37z"/><path id="wl4xf" d="M999.81 545.02c0-8.93 43.25-16.17 96.6-16.17 53.34 0 96.59 7.24 96.59 16.17 0 8.93-43.25 16.17-96.6 16.17-53.34 0-96.59-7.24-96.59-16.17z"/><path id="wl4xg" d="M689.76 537.27c4.4 1.52 9.65 1.09 12.9-2.22a11.3 11.3 0 0 0 1.91-12.83c-1.04-1.99-2.74-3.84-2.64-6.08.06-1.2.65-2.32 1.33-3.32 1.33-1.93 3.06-3.58 4.3-5.57 1.23-2 1.94-4.53 1-6.68-1.84-4.17-8.47-4.35-10.46-8.45-.94-1.94-.56-4.2-.37-6.35.23-2.56.12-5.27-1.13-7.53-1.26-2.26-3.9-3.91-6.44-3.33-3.03.68-4.57 3.95-5.67 6.83l-2.2 5.72c-2.03 5.3-4.1 11-2.75 16.5 1.1 4.45 4.25 8.05 6.9 11.8.5.7 1 1.5.94 2.37-.1 1.34-1.53 2.18-2.84 2.47-1.32.3-2.76.3-3.9 1-1.4.86-2.06 2.6-1.95 4.22a8.9 8.9 0 0 0 1.85 4.44s4.35 5.34 9.22 7.01"/><path id="wl4xh" d="M692.89 515.43l6.53-8.95c.62-.84 1.24-1.69 2-2.39"/><path id="wl4xi" d="M686.26 524.88a57.87 57.87 0 0 1 5.1 6.22c.28.4.57.83.58 1.34"/><path id="wl4xj" d="M687.21 496.53c1.48 2.46 3.2 6.69 4.74 9.45"/><path id="wl4xk" d="M669.89 538.86c5.92 2.06 12.96 1.48 17.33-3.01a15.47 15.47 0 0 0 2.57-17.43c-1.4-2.7-3.68-5.22-3.54-8.26.07-1.63.86-3.15 1.78-4.5 1.79-2.63 4.1-4.87 5.77-7.58 1.67-2.7 2.62-6.15 1.35-9.06-2.47-5.67-11.37-5.91-14.05-11.48-1.27-2.63-.75-5.72-.5-8.62.31-3.49.16-7.16-1.53-10.23-1.68-3.07-5.24-5.31-8.65-4.53-4.07.93-6.13 5.37-7.62 9.28l-2.95 7.76c-2.73 7.2-5.5 14.94-3.69 22.42 1.47 6.04 5.7 10.93 9.26 16.02.68.96 1.36 2.05 1.27 3.22-.14 1.82-2.05 2.96-3.82 3.36-1.77.4-3.7.41-5.25 1.37-1.87 1.15-2.76 3.52-2.6 5.71.16 2.2 1.2 4.24 2.48 6.04 0 0 5.84 7.26 12.39 9.52"/><path id="wl4xl" d="M674.2 539.06c-.02 0-.04-.2-.05-.55l-.05-1.57-.08-5.77-.07-19.04.07-19.05.08-5.77.05-1.57c.01-.36.03-.55.05-.55.01 0 .03.19.05.55 0 .4.02.93.04 1.57l.08 5.77.07 19.05-.07 19.04-.08 5.77-.04 1.57c-.02.36-.04.55-.05.55"/><path id="wl4xm" d="M685.32 494.64c.02.03-.14.23-.44.58-.29.36-.77.8-1.25 1.47l-3.9 5.1a266.53 266.53 0 0 1-4 5.03 14.9 14.9 0 0 1-1.78 2c-.05-.05.53-.88 1.5-2.2.98-1.33 2.35-3.14 3.9-5.12 1.55-1.97 2.93-3.76 4.02-5.01.5-.65 1.05-1.08 1.38-1.4.35-.31.55-.47.57-.45"/><path id="wl4xn" d="M674.87 531.5c-.03 0-.1-.2-.18-.5-.15-.31-.37-.7-.78-1.18-.8-.91-1.9-2.19-3.1-3.62-.57-.73-1.2-1.36-1.74-1.96l-1.45-1.58a8.16 8.16 0 0 1-1.25-1.56c.05-.05.61.46 1.49 1.3l1.52 1.52c.57.58 1.2 1.2 1.78 1.94a122.5 122.5 0 0 1 3.02 3.75c.36.48.59.99.68 1.33.05.36.04.56.01.56"/><path id="wl4xo" d="M673.94 496.52c-.05.04-.53-.61-1.27-1.7-.76-1.07-1.67-2.63-2.68-4.34-1.95-3.45-3.74-6.16-3.61-6.24.05-.03.55.6 1.3 1.67.8 1.04 1.7 2.62 2.73 4.33 1.96 3.46 3.65 6.2 3.53 6.28"/><path id="wl4xp" d="M704.23 528.88l-.46-13.25a6942.31 6942.31 0 0 0 .46 13.25z"/><path id="wl4xq" d="M819.6 509.95l.6 15.62c.14 3.99-5.04 8.18-15.75 11.8-23.13 7.82-63.31 9.95-89.75 4.77-14.19-2.78-21.53-7.11-21.7-11.73l-.59-15.62c.17 4.62 7.52 8.94 21.71 11.72 26.43 5.18 66.61 3.05 89.75-4.76 10.7-3.62 15.88-7.82 15.74-11.8z"/><path id="wl4xr" d="M797.6 498.59c26.35 5.2 29.02 15.77 5.95 23.6-23.07 7.85-63.13 9.99-89.49 4.8-26.36-5.2-29.02-15.77-5.95-23.61 23.07-7.85 63.13-9.99 89.49-4.8zm-76.37 25.95c21.83 4.3 55.02 2.54 74.13-3.96 19.1-6.5 16.9-15.25-4.93-19.55-21.83-4.3-55.02-2.53-74.13 3.96-19.1 6.5-16.9 15.25 4.93 19.55z"/><path id="wl4xs" d="M790.9 500.88c21.84 4.18 24.04 12.7 4.93 19.01-19.1 6.32-52.3 8.04-74.13 3.86-21.83-4.19-24.03-12.7-4.92-19.02 19.1-6.32 52.3-8.04 74.12-3.85z"/><path id="wl4xt" d="M716.77 506.9c19.12-6.53 52.3-8.31 74.14-3.99 10.86 2.15 16.87 5.41 17.8 8.95 1.1-4.27-4.95-8.37-17.8-10.9-21.83-4.33-55.02-2.55-74.14 3.97-9.6 3.28-13.82 7.13-12.87 10.7.76-2.99 5.01-6.05 12.87-8.74z"/><path id="wl4xu" d="M769.79 516.24c1.62 1.5.37 3.28-3.9 4.73-4.96 1.68-12.62 2.46-19.4 2.16a47.44 47.44 0 0 1-6.82-.76l-1.17-.23-.42.14-1.62.55-.95-.19-4.87-.96 2.03-.69-3.49-.69-.42.14-1.61.56-.96-.2-4.87-.95 2.04-.7-3.5-.68 4.68-1.6.42-.14 2.54.5.95.2 14.28-4.85 5.1-1.73 12.24-4.16-3.5-.69 4.68-1.58.42-.15 2.54.5.96.2 1.62-.56.42-.14 5.82 1.15-2.04.69 2.54.5.96.19 1.62-.55.42-.15 5.82 1.15-2.04.7c7.07 1.39 7.79 4.23 1.6 6.33-3.2 1.08-7.62 1.76-12.12 1.96zm-21.31 4.82c4.01.21 8.62-.25 11.58-1.25 3.94-1.33 3.49-3.14-1.02-4.02l-10.48-2.06-.42.14-13.86 4.7 10.48 2.06c1.12.22 2.39.36 3.72.43zm17-13.08L753.65 512l9.3 1.84c.94.18 2 .3 3.1.37 3.46.19 7.45-.2 10.01-1.07 3.38-1.15 3-2.7-.87-3.46l-9.31-1.84z"/><path id="wl4xv" d="M769.79 514.36c1.62 1.49.37 3.27-3.9 4.72-4.96 1.68-12.62 2.47-19.4 2.16-2.44-.1-4.78-.36-6.82-.76l-1.17-.23-.42.14-1.62.55-.95-.19-4.87-.96 2.03-.69-3.49-.69-.42.15-1.61.54-.96-.18-4.87-.96 2.04-.7-3.5-.68 4.68-1.6.42-.13 2.54.5.95.19 14.28-4.85 5.1-1.73 12.24-4.15-3.5-.7 4.68-1.58.42-.15 2.54.5.96.2 1.62-.56.42-.14 5.82 1.15-2.04.69 2.54.5.96.19 1.62-.55.42-.14 5.82 1.15-2.04.69c7.07 1.39 7.79 4.23 1.6 6.33-3.2 1.08-7.62 1.76-12.12 1.97zm-21.31 4.82c4.01.21 8.62-.24 11.58-1.25 3.94-1.34 3.49-3.14-1.02-4.03l-10.48-2.07-.42.15-13.86 4.7 10.48 2.07c1.12.22 2.39.36 3.72.43zm17-13.09l-11.82 4.01 9.3 1.84c.94.19 2 .3 3.1.37 3.46.2 7.45-.2 10.01-1.07 3.38-1.15 3-2.7-.87-3.46l-9.31-1.83z"/><path id="wl4xw" d="M699.98 522.25v14.39c3.54 1.9 8.81 3.6 15.79 4.92 6.9 1.3 14.77 2.1 23.02 2.46v-14.66a164.08 164.08 0 0 1-23.59-2.49c-6.61-1.25-11.7-2.83-15.22-4.62z"/><path id="wl4xx" d="M710.86 510.9l-.46-13.25a7851.26 7851.26 0 0 0 .46 13.25z"/><path id="wl4xy" d="M826.24 491.97l.58 15.62c.15 3.98-5.02 8.18-15.74 11.8-23.13 7.81-63.3 9.95-89.74 4.77-14.2-2.78-21.54-7.11-21.71-11.73l-.59-15.62c.17 4.62 7.52 8.94 21.71 11.72 26.43 5.18 66.61 3.05 89.75-4.76 10.7-3.62 15.89-7.82 15.74-11.8z"/><path id="wl4xz" d="M804.23 480.6c26.35 5.2 29.02 15.78 5.95 23.62-23.07 7.84-63.13 9.98-89.49 4.78-26.36-5.2-29.02-15.77-5.95-23.6 23.07-7.85 63.13-9.99 89.49-4.8zm-76.37 25.96c21.83 4.31 55.02 2.54 74.13-3.96 19.1-6.5 16.9-15.25-4.93-19.55-21.83-4.31-55.02-2.53-74.12 3.96-19.11 6.5-16.9 15.25 4.92 19.55z"/><path id="wl4xA" d="M797.53 483.85c21.84 4.18 24.04 12.7 4.93 19.01-19.1 6.32-52.3 8.05-74.13 3.86-21.83-4.19-24.03-12.7-4.92-19.02 19.1-6.31 52.3-8.04 74.12-3.85z"/><path id="wl4xB" d="M722.45 488.91c19.12-6.52 52.3-8.3 74.14-3.98 10.87 2.15 16.87 5.41 17.8 8.95 1.1-4.27-4.95-8.36-17.8-10.9-21.83-4.33-55.02-2.55-74.14 3.97-9.6 3.28-13.82 7.13-12.87 10.7.76-2.99 5.01-6.05 12.87-8.74z"/><path id="wl4xC" d="M775.47 497.32c1.62 1.49.37 3.27-3.9 4.71-4.96 1.69-12.62 2.47-19.4 2.18a47.14 47.14 0 0 1-6.82-.77l-1.17-.23-.42.14-1.62.55-.95-.19-4.87-.96 2.04-.69-3.5-.69-.41.14-1.62.56-.96-.2-4.87-.95 2.04-.7-3.5-.68 4.68-1.6.42-.14 2.54.5.96.2 14.27-4.85 5.1-1.73 12.24-4.16-3.5-.69 4.68-1.58.42-.15 2.54.5.96.2 1.62-.56.42-.14 5.82 1.15-2.04.69 2.54.5.96.19 1.62-.55.42-.15 5.82 1.15-2.04.7c7.07 1.39 7.79 4.23 1.6 6.33-3.2 1.08-7.62 1.76-12.12 1.97zm-21.31 4.82c4.01.21 8.62-.25 11.58-1.25 3.94-1.34 3.49-3.14-1.02-4.03l-10.48-2.07-.42.15-13.86 4.7 10.48 2.07c1.12.22 2.39.36 3.72.43zm17-13.09l-11.82 4.01 9.32 1.84c.93.18 1.98.3 3.08.37 3.47.19 7.46-.2 10.03-1.07 3.38-1.15 2.98-2.7-.88-3.45l-9.32-1.84z"/><path id="wl4xD" d="M775.47 496.38c1.62 1.49.37 3.27-3.9 4.72-4.96 1.68-12.62 2.47-19.4 2.16-2.44-.1-4.78-.36-6.82-.76l-1.17-.23-.42.15-1.62.54-.95-.19-4.87-.95 2.04-.7-3.5-.68-.41.14-1.62.55-.96-.2-4.87-.95 2.04-.7-3.5-.68 4.68-1.6.42-.13 2.54.5.96.19 14.27-4.85 5.1-1.73 12.24-4.15-3.5-.7 4.68-1.58.42-.15 2.54.5.96.2 1.62-.56.42-.14 5.82 1.15-2.04.7 2.54.5.96.18 1.62-.55.42-.14 5.82 1.15-2.04.69c7.07 1.4 7.79 4.23 1.6 6.33-3.2 1.09-7.62 1.76-12.12 1.97zm-21.31 4.81c4.01.22 8.62-.24 11.58-1.25 3.94-1.33 3.49-3.14-1.02-4.02l-10.48-2.07-.42.14-13.86 4.7 10.48 2.07c1.12.22 2.39.36 3.72.43zm17-13.08l-11.82 4.02 9.32 1.85c.93.18 1.98.3 3.08.36 3.47.2 7.46-.2 10.03-1.06 3.38-1.16 2.98-2.7-.88-3.47l-9.32-1.84z"/><path id="wl4xE" d="M705.66 505.22v14.39c3.54 1.9 8.81 3.6 15.8 4.92a163.2 163.2 0 0 0 23 2.46v-14.66a164 164 0 0 1-23.58-2.49c-6.61-1.25-11.7-2.83-15.22-4.62z"/><path id="wl4xF" d="M860.4 528.88l-.45-13.25a6220.08 6220.08 0 0 0 .46 13.25z"/><path id="wl4xG" d="M976.74 509.95l.58 15.62c.15 3.99-5.03 8.18-15.74 11.8-23.13 7.82-63.31 9.95-89.75 4.77-14.19-2.78-21.53-7.11-21.7-11.73l-.59-15.62c.17 4.62 7.52 8.94 21.7 11.72 26.44 5.18 66.62 3.05 89.76-4.76 10.7-3.62 15.88-7.82 15.74-11.8z"/><path id="wl4xH" d="M954.73 498.59c26.35 5.2 29.02 15.77 5.95 23.6-23.07 7.85-63.13 9.99-89.49 4.8-26.36-5.2-29.02-15.77-5.95-23.61 23.07-7.85 63.13-9.99 89.49-4.8zm-76.37 25.95c21.83 4.3 55.02 2.54 74.13-3.96 19.1-6.5 16.9-15.25-4.93-19.55-21.83-4.3-55.02-2.53-74.12 3.96-19.11 6.5-16.9 15.25 4.92 19.55z"/><path id="wl4xI" d="M947.08 500.88c21.84 4.18 24.04 12.7 4.93 19.01-19.1 6.32-52.3 8.04-74.13 3.86-21.83-4.19-24.03-12.7-4.92-19.02 19.1-6.32 52.3-8.04 74.12-3.85z"/><path id="wl4xJ" d="M872.95 506.9c19.11-6.53 52.3-8.31 74.14-3.99 10.86 2.15 16.87 5.41 17.8 8.95 1.1-4.27-4.95-8.37-17.8-10.9-21.83-4.33-55.03-2.55-74.14 3.97-9.6 3.28-13.82 7.13-12.87 10.7.76-2.99 5-6.05 12.87-8.74z"/><path id="wl4xK" d="M925.97 516.24c1.63 1.5.38 3.28-3.9 4.73-4.95 1.68-12.6 2.46-19.39 2.16a47.48 47.48 0 0 1-6.82-.76l-1.17-.23-.42.14-1.62.55-.95-.19-4.87-.96 2.03-.69-3.49-.69-.42.14-1.61.56-.96-.2-4.87-.95 2.04-.7-3.5-.68 4.68-1.6.42-.14 2.54.5.95.2 14.28-4.85 5.1-1.73 12.24-4.16-3.5-.69 4.68-1.58.42-.15 2.54.5.96.2 1.62-.56.42-.14 5.82 1.15-2.04.69 2.54.5.96.19 1.62-.55.41-.15 5.83 1.15-2.04.7c7.07 1.39 7.79 4.23 1.6 6.33-3.2 1.08-7.62 1.76-12.13 1.96zm-21.3 4.82c4.01.21 8.61-.25 11.58-1.25 3.94-1.33 3.49-3.14-1.02-4.02l-10.48-2.06-.42.14-13.86 4.7 10.48 2.06c1.12.22 2.39.36 3.72.43zm17-13.08L909.84 512l9.3 1.84c.94.18 2 .3 3.1.37 3.46.19 7.45-.2 10.01-1.07 3.38-1.15 3-2.7-.87-3.46l-9.31-1.84z"/><path id="wl4xL" d="M925.97 514.36c1.63 1.49.38 3.27-3.9 4.72-4.95 1.68-12.6 2.47-19.39 2.16-2.44-.1-4.78-.36-6.82-.76l-1.17-.23-.42.14-1.62.55-.95-.19-4.87-.96 2.03-.69-3.49-.69-.42.15-1.61.54-.96-.18-4.87-.96 2.04-.7-3.5-.68 4.68-1.6.42-.13 2.54.5.95.19 14.28-4.85 5.1-1.73 12.24-4.15-3.5-.7 4.68-1.58.42-.15 2.54.5.96.2 1.62-.56.42-.14 5.82 1.15-2.04.69 2.54.5.96.19 1.62-.55.41-.14 5.83 1.15-2.04.69c7.07 1.39 7.79 4.23 1.6 6.33-3.2 1.08-7.62 1.76-12.13 1.97zm-21.3 4.82c4.01.21 8.61-.24 11.58-1.25 3.94-1.34 3.49-3.14-1.02-4.03l-10.48-2.07-.42.15-13.86 4.7 10.48 2.07c1.12.22 2.39.36 3.72.43zm17-13.09l-11.82 4.01 9.3 1.84c.94.19 2 .3 3.1.37 3.46.2 7.45-.2 10.01-1.07 3.38-1.15 3-2.7-.87-3.46l-9.31-1.83z"/><path id="wl4xM" d="M856.17 522.25v14.39c3.54 1.9 8.81 3.6 15.79 4.92 6.9 1.3 14.77 2.1 23.02 2.46v-14.66a164.11 164.11 0 0 1-23.59-2.49c-6.61-1.25-11.7-2.83-15.22-4.62z"/><path id="wl4xN" d="M867.04 510.9z"/><path id="wl4xO" d="M983.37 491.97l.58 15.62c.15 3.98-5.02 8.18-15.74 11.8-23.13 7.81-63.31 9.95-89.74 4.77-14.2-2.78-21.54-7.11-21.71-11.73l-.59-15.62c.17 4.62 7.52 8.94 21.71 11.72 26.43 5.18 66.61 3.05 89.75-4.76 10.7-3.62 15.89-7.82 15.74-11.8z"/><path id="wl4xP" d="M961.36 480.6c26.35 5.2 29.02 15.78 5.95 23.62-23.07 7.84-63.13 9.98-89.49 4.78-26.36-5.2-29.02-15.77-5.95-23.6 23.07-7.85 63.13-9.99 89.49-4.8zm-76.37 25.96c21.83 4.31 55.02 2.54 74.13-3.96 19.1-6.5 16.9-15.25-4.93-19.55-21.83-4.31-55.02-2.53-74.12 3.96-19.11 6.5-16.9 15.25 4.92 19.55z"/><path id="wl4xQ" d="M953.71 483.85c21.84 4.18 24.04 12.7 4.93 19.01-19.1 6.32-52.3 8.05-74.13 3.86-21.83-4.19-24.04-12.7-4.92-19.02 19.1-6.31 52.3-8.04 74.12-3.85z"/><path id="wl4xR" d="M879.58 488.91c19.12-6.52 52.3-8.3 74.14-3.98 10.87 2.15 16.87 5.41 17.8 8.95 1.1-4.27-4.95-8.36-17.8-10.9-21.83-4.33-55.02-2.55-74.14 3.97-9.6 3.28-13.82 7.13-12.87 10.7.76-2.99 5.01-6.05 12.87-8.74z"/><path id="wl4xS" d="M932.6 497.32c1.61 1.49.37 3.27-3.9 4.71-4.96 1.69-12.62 2.47-19.4 2.18a47.18 47.18 0 0 1-6.82-.77l-1.17-.23-.42.14-1.62.55-.95-.19-4.87-.96 2.04-.69-3.5-.69-.41.14-1.62.56-.96-.2-4.87-.95 2.04-.7-3.5-.68 4.68-1.6.42-.14 2.54.5.96.2 14.27-4.85 5.1-1.73 12.24-4.16-3.5-.69 4.68-1.58.42-.15 2.54.5.96.2 1.62-.56.42-.14 5.82 1.15-2.04.69 2.54.5.96.19 1.62-.55.42-.15 5.82 1.15-2.04.7c7.07 1.39 7.79 4.23 1.6 6.33-3.2 1.08-7.62 1.76-12.13 1.97zm-21.31 4.82c4.01.21 8.62-.25 11.58-1.25 3.94-1.34 3.49-3.14-1.02-4.03l-10.48-2.07-.42.15-13.86 4.7 10.48 2.07c1.12.22 2.39.36 3.72.43zm17-13.09l-11.82 4.01 9.32 1.84c.93.18 1.98.3 3.08.37 3.47.19 7.46-.2 10.02-1.07 3.39-1.15 3-2.7-.87-3.45l-9.32-1.84z"/><path id="wl4xT" d="M932.6 496.38c1.61 1.49.37 3.27-3.9 4.72-4.96 1.68-12.62 2.47-19.4 2.16-2.44-.1-4.78-.36-6.82-.76l-1.17-.23-.42.15-1.62.54-.95-.19-4.87-.95 2.04-.7-3.5-.68-.41.14-1.62.55-.96-.2-4.87-.95 2.04-.7-3.5-.68 4.68-1.6.42-.13 2.54.5.96.19 14.27-4.85 5.1-1.73 12.24-4.15-3.5-.7 4.68-1.58.42-.15 2.54.5.96.2 1.62-.56.42-.14 5.82 1.15-2.04.7 2.54.5.96.18 1.62-.55.42-.14 5.82 1.15-2.04.69c7.07 1.4 7.79 4.23 1.6 6.33-3.2 1.09-7.62 1.76-12.13 1.97zm-21.31 4.81c4.01.22 8.62-.24 11.58-1.25 3.94-1.33 3.49-3.14-1.02-4.02l-10.48-2.07-.42.14-13.86 4.7 10.48 2.07c1.12.22 2.39.36 3.72.43zm17-13.08l-11.82 4.02 9.32 1.85c.93.18 1.98.3 3.08.36 3.47.2 7.46-.2 10.02-1.06 3.39-1.16 3-2.7-.87-3.47l-9.32-1.84z"/><path id="wl4xU" d="M861.85 505.22v14.39c3.54 1.9 8.81 3.6 15.8 4.92 6.9 1.3 14.76 2.1 23 2.46v-14.66a164.02 164.02 0 0 1-23.58-2.49c-6.61-1.25-11.7-2.83-15.22-4.62z"/><path id="wl4xV" d="M860.4 490.08l-.45-13.25a6269.32 6269.32 0 0 0 .46 13.25z"/><path id="wl4xW" d="M976.74 470.2l.58 15.62c.15 3.99-5.03 8.18-15.74 11.8-23.13 7.81-63.31 9.95-89.75 4.77-14.19-2.79-21.53-7.1-21.7-11.73l-.59-15.62c.17 4.62 7.52 8.94 21.7 11.72 26.44 5.18 66.62 3.05 89.76-4.76 10.7-3.62 15.88-7.82 15.74-11.8z"/><path id="wl4xX" d="M954.73 458.85c26.35 5.2 29.02 15.77 5.95 23.6-23.07 7.85-63.13 9.99-89.49 4.8-26.36-5.2-29.02-15.78-5.95-23.62 23.07-7.84 63.13-9.98 89.49-4.78zm-76.37 25.95c21.83 4.3 55.02 2.53 74.13-3.96 19.1-6.5 16.9-15.25-4.93-19.55-21.83-4.3-55.02-2.54-74.12 3.96-19.11 6.5-16.9 15.25 4.92 19.55z"/><path id="wl4xY" d="M947.08 461.13c21.84 4.18 24.04 12.7 4.93 19.02-19.1 6.31-52.3 8.04-74.13 3.85-21.83-4.19-24.03-12.7-4.92-19.02 19.1-6.32 52.3-8.04 74.12-3.85z"/><path id="wl4xZ" d="M872.95 467.14c19.11-6.52 52.3-8.3 74.14-3.98 10.86 2.15 16.87 5.41 17.8 8.95 1.1-4.27-4.95-8.36-17.8-10.9-21.83-4.33-55.03-2.55-74.14 3.97-9.6 3.28-13.82 7.13-12.87 10.7.76-2.99 5-6.05 12.87-8.74z"/><path id="wl4xaa" d="M925.97 475.56c1.63 1.49.38 3.27-3.9 4.72-4.95 1.68-12.6 2.47-19.39 2.16a46.86 46.86 0 0 1-6.82-.76l-1.17-.23-.42.14-1.62.55-.95-.19-4.87-.96 2.03-.69-3.49-.69-.42.15-1.61.54-.96-.19-4.87-.96 2.04-.69-3.5-.68 4.68-1.6.42-.13 2.54.5.95.18 14.28-4.84 5.1-1.73 12.24-4.16-3.5-.69 4.68-1.58.42-.15 2.54.5.96.2 1.62-.56.42-.14 5.82 1.15-2.04.69 2.54.5.96.19 1.62-.55.41-.14 5.83 1.14-2.04.7c7.07 1.38 7.79 4.23 1.6 6.33-3.2 1.08-7.62 1.76-12.13 1.97zm-21.3 4.82c4.01.21 8.61-.25 11.58-1.25 3.94-1.34 3.49-3.14-1.02-4.03l-10.48-2.07-.42.14-13.86 4.71 10.48 2.07c1.12.22 2.39.36 3.72.43zm17-13.09l-11.82 4.02 9.3 1.83c.94.19 2 .3 3.1.37 3.46.2 7.45-.2 10.01-1.07 3.38-1.14 3-2.7-.87-3.45l-9.31-1.84z"/><path id="wl4xab" d="M925.97 473.66c1.63 1.49.38 3.27-3.9 4.72-4.95 1.68-12.6 2.47-19.39 2.16-2.44-.1-4.78-.36-6.82-.76l-1.17-.23-.42.14-1.62.55-.95-.19-4.87-.95 2.03-.7-3.49-.68-.42.14-1.61.55-.96-.2-4.87-.95 2.04-.7-3.5-.68 4.68-1.6.42-.13 2.54.5.95.19 14.28-4.85 5.1-1.73 12.24-4.15-3.5-.7 4.68-1.58.42-.15 2.54.5.96.2 1.62-.56.42-.14 5.82 1.15-2.04.69 2.54.5.96.19 1.62-.55.41-.14 5.83 1.15-2.04.69c7.07 1.39 7.79 4.23 1.6 6.33-3.2 1.09-7.62 1.76-12.13 1.97zm-21.3 4.81c4.01.21 8.61-.24 11.58-1.25 3.94-1.33 3.49-3.14-1.02-4.02l-10.48-2.06-.42.14-13.86 4.7 10.48 2.06c1.12.22 2.39.36 3.72.43zm17-13.08l-11.82 4.02 9.3 1.84c.94.19 2 .3 3.1.37 3.46.2 7.45-.2 10.01-1.07 3.38-1.15 3-2.7-.87-3.46l-9.31-1.84z"/><path id="wl4xac" d="M856.17 481.56v14.4c3.54 1.9 8.81 3.59 15.79 4.9 6.9 1.32 14.77 2.12 23.02 2.47v-14.66a163.82 163.82 0 0 1-23.59-2.49c-6.61-1.25-11.7-2.83-15.22-4.62z"/><path id="wl4xad" d="M867.04 471.15a21374.1 21374.1 0 0 0 0-.3v.3z"/><path id="wl4xae" d="M983.37 452.22l.58 15.62c.15 3.99-5.02 8.18-15.74 11.8-23.13 7.81-63.31 9.95-89.74 4.77-14.2-2.79-21.54-7.1-21.71-11.73l-.59-15.62c.17 4.62 7.52 8.94 21.71 11.72 26.43 5.18 66.61 3.05 89.75-4.76 10.7-3.62 15.89-7.82 15.74-11.8z"/><path id="wl4xaf" d="M961.36 440.86c26.35 5.2 29.02 15.77 5.95 23.6-23.07 7.85-63.13 9.99-89.49 4.8-26.36-5.2-29.02-15.78-5.95-23.61 23.07-7.85 63.13-9.99 89.49-4.8zm-76.37 25.94c21.83 4.3 55.02 2.53 74.13-3.96 19.1-6.5 16.9-15.24-4.93-19.54-21.83-4.3-55.02-2.54-74.12 3.96-19.11 6.49-16.9 15.24 4.92 19.54z"/><path id="wl4xag" d="M953.71 444.1c21.84 4.18 24.04 12.7 4.93 19.01-19.1 6.32-52.3 8.05-74.13 3.86-21.83-4.19-24.04-12.7-4.92-19.02 19.1-6.32 52.3-8.04 74.12-3.85z"/><path id="wl4xah" d="M879.58 449.16c19.12-6.52 52.3-8.3 74.14-3.98 10.87 2.15 16.87 5.41 17.8 8.95 1.1-4.27-4.95-8.36-17.8-10.9-21.83-4.33-55.02-2.55-74.14 3.97-9.6 3.28-13.82 7.13-12.87 10.7.76-2.99 5.01-6.05 12.87-8.74z"/><path id="wl4xai" d="M932.6 458.52c1.61 1.49.37 3.27-3.9 4.72-4.96 1.68-12.62 2.46-19.4 2.17a46.88 46.88 0 0 1-6.82-.77l-1.17-.23-.42.14-1.62.55-.95-.19-4.87-.96 2.04-.69-3.5-.69-.41.15-1.62.55-.96-.2-4.87-.95 2.04-.7-3.5-.68 4.68-1.6.42-.13 2.54.5.96.19 14.27-4.85 5.1-1.73 12.24-4.16-3.5-.69 4.68-1.59.42-.14 2.54.5.96.2 1.62-.56.42-.14 5.82 1.15-2.04.69 2.54.5.96.18 1.62-.54.42-.15 5.82 1.15-2.04.7c7.07 1.38 7.79 4.23 1.6 6.33-3.2 1.08-7.62 1.76-12.13 1.97zm-21.31 4.82c4.01.21 8.62-.25 11.58-1.25 3.94-1.34 3.49-3.14-1.02-4.03l-10.48-2.07-.42.15-13.86 4.7 10.48 2.07c1.12.22 2.39.36 3.72.43zm17-13.09l-11.82 4 9.32 1.84c.93.18 1.98.3 3.08.37 3.47.19 7.46-.2 10.02-1.07 3.39-1.14 3-2.69-.87-3.45l-9.32-1.83z"/><path id="wl4xaj" d="M932.6 455.68c1.61 1.49.37 3.27-3.9 4.72-4.96 1.68-12.62 2.47-19.4 2.16-2.44-.1-4.78-.36-6.82-.76l-1.17-.23-.42.14-1.62.55-.95-.19-4.87-.95 2.04-.7-3.5-.68-.41.14-1.62.55-.96-.2-4.87-.95 2.04-.7-3.5-.68 4.68-1.6.42-.13 2.54.5.96.19 14.27-4.85 5.1-1.73 12.24-4.15-3.5-.7 4.68-1.58.42-.15 2.54.5.96.2 1.62-.56.42-.14 5.82 1.15-2.04.69 2.54.5.96.19 1.62-.55.42-.14 5.82 1.15-2.04.69c7.07 1.39 7.79 4.23 1.6 6.33-3.2 1.09-7.62 1.76-12.13 1.97zm-21.31 4.81c4.01.21 8.62-.24 11.58-1.25 3.94-1.33 3.49-3.14-1.02-4.02l-10.48-2.06-.42.14-13.86 4.7 10.48 2.06c1.12.22 2.39.36 3.72.43zm17-13.08l-11.82 4.02 9.32 1.84c.93.19 1.98.3 3.08.37 3.47.2 7.46-.2 10.02-1.07 3.39-1.15 3-2.7-.87-3.46l-9.32-1.84z"/><path id="wl4xak" d="M861.85 465.47v14.4c3.54 1.9 8.81 3.59 15.8 4.91a162.4 162.4 0 0 0 23 2.46v-14.66a164.16 164.16 0 0 1-23.58-2.49c-6.61-1.25-11.7-2.83-15.22-4.62z"/><path id="wl4xal" d="M1024.17 528.88l-.46-13.25a5140.5 5140.5 0 0 0 .46 13.25z"/><path id="wl4xam" d="M1140.5 509.95l.58 15.62c.15 3.99-5.03 8.18-15.74 11.8-23.13 7.81-63.31 9.95-89.74 4.77-14.2-2.78-21.54-7.1-21.71-11.72l-.59-15.63c.17 4.62 7.52 8.94 21.71 11.72 26.43 5.18 66.61 3.05 89.75-4.76 10.7-3.62 15.88-7.82 15.74-11.8z"/><path id="wl4xan" d="M1118.49 498.59c26.35 5.2 29.02 15.77 5.95 23.6-23.07 7.85-63.14 9.99-89.49 4.8-26.36-5.2-29.02-15.77-5.95-23.62 23.07-7.84 63.13-9.98 89.49-4.78zm-76.37 25.95c21.83 4.3 55.02 2.54 74.13-3.96 19.1-6.5 16.9-15.25-4.93-19.55-21.83-4.3-55.02-2.53-74.13 3.96-19.1 6.5-16.9 15.25 4.93 19.55z"/><path id="wl4xao" d="M1110.84 500.88c21.84 4.18 24.04 12.7 4.94 19.01-19.12 6.32-52.3 8.04-74.14 3.86-21.83-4.19-24.03-12.7-4.92-19.02 19.1-6.32 52.3-8.04 74.12-3.85z"/><path id="wl4xap" d="M1036.71 506.9c19.11-6.53 52.3-8.31 74.14-3.99 10.86 2.15 16.87 5.41 17.8 8.95 1.1-4.27-4.95-8.37-17.8-10.9-21.83-4.33-55.03-2.55-74.14 3.97-9.6 3.28-13.82 7.13-12.87 10.7.76-2.99 5-6.05 12.87-8.74z"/><path id="wl4xaq" d="M1089.72 516.24c1.62 1.5.38 3.28-3.9 4.73-4.95 1.68-12.61 2.46-19.39 2.16a47.15 47.15 0 0 1-6.82-.76l-1.17-.23-.42.14-1.62.55-.95-.19-4.87-.96 2.04-.69-3.5-.69-.42.14-1.61.56-.96-.2-4.87-.95 2.04-.7-3.5-.68 4.68-1.6.42-.14 2.54.5.96.2 14.27-4.85 5.1-1.73 12.24-4.16-3.5-.69 4.68-1.58.42-.15 2.54.5.96.2 1.62-.56.42-.14 5.82 1.15-2.04.69 2.54.5.96.19 1.62-.55.42-.15 5.82 1.15-2.04.7c7.07 1.39 7.79 4.23 1.6 6.33-3.2 1.08-7.62 1.76-12.13 1.96zm-21.3 4.82c4.01.21 8.62-.25 11.58-1.25 3.94-1.33 3.49-3.14-1.02-4.02l-10.48-2.06-.42.14-13.86 4.7 10.48 2.06c1.12.22 2.39.36 3.72.43zm17-13.08L1073.6 512l9.3 1.84c.94.18 2 .3 3.1.37 3.46.19 7.45-.2 10.01-1.07 3.38-1.15 3-2.7-.87-3.45l-9.31-1.84z"/><path id="wl4xar" d="M1089.72 514.36c1.62 1.49.38 3.27-3.9 4.72-4.95 1.68-12.61 2.47-19.39 2.16-2.44-.1-4.78-.36-6.82-.76l-1.17-.23-.42.14-1.62.55-.95-.19-4.87-.96 2.04-.69-3.5-.68-.42.14-1.61.55-.96-.2-4.87-.95 2.04-.7-3.5-.68 4.68-1.6.42-.13 2.54.5.96.19 14.27-4.85 5.1-1.73 12.24-4.15-3.5-.7 4.68-1.58.42-.15 2.54.5.96.2 1.62-.56.42-.14 5.82 1.15-2.04.69 2.54.5.96.19 1.62-.55.42-.14 5.82 1.15-2.04.69c7.07 1.39 7.79 4.23 1.6 6.33-3.2 1.08-7.62 1.76-12.13 1.97zm-21.3 4.82c4.01.22 8.62-.24 11.58-1.25 3.94-1.34 3.49-3.14-1.02-4.03l-10.48-2.07-.42.15-13.86 4.7 10.48 2.07c1.12.22 2.39.36 3.72.43zm17-13.09l-11.82 4.01 9.3 1.84c.94.19 2 .3 3.1.37 3.46.2 7.45-.2 10.01-1.07 3.38-1.15 3-2.7-.87-3.45l-9.31-1.84z"/><path id="wl4xas" d="M1018.98 522.25v14.39c3.54 1.9 8.81 3.6 15.8 4.92 6.9 1.3 14.76 2.1 23 2.46v-14.67a163.82 163.82 0 0 1-23.58-2.48c-6.61-1.25-11.7-2.83-15.22-4.62z"/><path id="wl4xat" d="M1024.17 510.9l-.46-13.25a5175.35 5175.35 0 0 0 .46 13.25z"/><path id="wl4xau" d="M1140.5 491.02l.58 16.04c.15 4.1-5.03 8.4-15.74 12.12-23.13 8.03-63.31 10.22-89.74 4.9-14.2-2.86-21.54-7.3-21.71-12.04l-.59-16.05c.17 4.74 7.52 9.18 21.71 12.04 26.43 5.32 66.61 3.13 89.75-4.9 10.7-3.7 15.88-8.02 15.74-12.11z"/><path id="wl4xav" d="M1118.49 479.67c26.35 5.2 29.02 15.77 5.95 23.6-23.07 7.85-63.14 9.99-89.49 4.8-26.36-5.2-29.02-15.78-5.95-23.62 23.07-7.84 63.13-9.98 89.49-4.78zm-76.37 25.95c21.83 4.3 55.02 2.54 74.13-3.96 19.1-6.5 16.9-15.25-4.93-19.55-21.83-4.3-55.02-2.53-74.13 3.96-19.1 6.5-16.9 15.25 4.93 19.55z"/><path id="wl4xaw" d="M1110.84 481.95c21.84 4.18 24.04 12.7 4.94 19.01-19.12 6.32-52.3 8.04-74.14 3.86-21.83-4.19-24.03-12.7-4.92-19.02 19.1-6.31 52.3-8.04 74.12-3.85z"/><path id="wl4xax" d="M1036.71 487.96c19.11-6.52 52.3-8.3 74.14-3.98 10.86 2.15 16.87 5.41 17.8 8.95 1.1-4.27-4.95-8.36-17.8-10.91-21.83-4.32-55.03-2.54-74.14 3.98-9.6 3.28-13.82 7.13-12.87 10.7.76-2.99 5-6.05 12.87-8.74z"/><path id="wl4xay" d="M1089.72 497.32c1.62 1.49.38 3.27-3.9 4.72-4.95 1.68-12.61 2.46-19.39 2.17a47.3 47.3 0 0 1-6.82-.77l-1.17-.23-.42.14-1.62.55-.95-.19-4.87-.96 2.04-.69-3.5-.69-.42.14-1.61.55-.96-.18-4.87-.96 2.04-.7-3.5-.68 4.68-1.6.42-.14 2.54.5.96.2 14.27-4.85 5.1-1.73 12.24-4.16-3.5-.69 4.68-1.58.42-.15 2.54.5.96.2 1.62-.56.42-.14 5.82 1.15-2.04.69 2.54.5.96.19 1.62-.55.42-.15 5.82 1.15-2.04.7c7.07 1.39 7.79 4.23 1.6 6.33-3.2 1.08-7.62 1.76-12.13 1.97zm-21.3 4.82c4.01.21 8.62-.25 11.58-1.25 3.94-1.34 3.49-3.14-1.02-4.03l-10.48-2.07-.42.15-13.86 4.7 10.48 2.07c1.12.22 2.39.36 3.72.43zm17-13.09l-11.82 4.01 9.3 1.84c.94.18 2 .3 3.1.36 3.46.2 7.45-.19 10.01-1.06 3.38-1.15 3-2.7-.87-3.45l-9.31-1.84z"/><path id="wl4xaz" d="M1089.72 496.38c1.62 1.49.38 3.27-3.9 4.72-4.95 1.68-12.61 2.47-19.39 2.16-2.44-.1-4.78-.36-6.82-.76l-1.17-.23-.42.15-1.62.54-.95-.19-4.87-.95 2.04-.7-3.5-.68-.42.14-1.61.55-.96-.2-4.87-.95 2.04-.7-3.5-.68 4.68-1.59.42-.14 2.54.5.96.19 14.27-4.85 5.1-1.73 12.24-4.15-3.5-.7 4.68-1.58.42-.15 2.54.5.96.2 1.62-.56.42-.14 5.82 1.15-2.04.7 2.54.5.96.18 1.62-.55.42-.14 5.82 1.15-2.04.69c7.07 1.39 7.79 4.23 1.6 6.33-3.2 1.09-7.62 1.76-12.13 1.97zm-21.3 4.81c4.01.21 8.62-.24 11.58-1.25 3.94-1.33 3.49-3.14-1.02-4.02l-10.48-2.07-.42.14-13.86 4.7 10.48 2.07c1.12.22 2.39.36 3.72.43zm17-13.08l-11.82 4.02 9.3 1.84c.94.18 2 .3 3.1.36 3.46.2 7.45-.2 10.01-1.06 3.38-1.16 3-2.7-.87-3.46l-9.31-1.84z"/><path id="wl4xaA" d="M1018.98 503.32v14.39c3.54 1.9 8.81 3.6 15.8 4.92 6.9 1.3 14.76 2.1 23 2.46v-14.67a163.82 163.82 0 0 1-23.58-2.48c-6.61-1.25-11.7-2.83-15.22-4.62z"/><path id="wl4xaB" d="M1023.22 491.97l-.46-13.25a9223.29 9223.29 0 0 0 .46 13.25z"/><path id="wl4xaC" d="M1139.55 472.09l.58 15.62c.15 3.99-5.02 8.18-15.74 11.8-23.13 7.81-63.31 9.95-89.74 4.77-14.2-2.78-21.54-7.1-21.71-11.72l-.59-15.63c.18 4.62 7.52 8.94 21.71 11.72 26.43 5.18 66.61 3.05 89.75-4.76 10.7-3.62 15.89-7.82 15.74-11.8z"/><path id="wl4xaD" d="M1117.54 461.68c26.35 5.2 29.02 15.77 5.95 23.6-23.07 7.85-63.13 9.99-89.49 4.8-26.36-5.2-29.02-15.78-5.95-23.62 23.07-7.84 63.13-9.98 89.49-4.78zm-76.37 25.95c21.83 4.31 55.02 2.54 74.13-3.96 19.1-6.5 16.9-15.25-4.93-19.55-21.83-4.3-55.02-2.53-74.12 3.96-19.11 6.5-16.9 15.25 4.92 19.55z"/><path id="wl4xaE" d="M1108 463.97c21.83 4.18 24.05 12.7 4.93 19.01-19.1 6.32-52.3 8.05-74.13 3.86-21.83-4.19-24.03-12.7-4.92-19.02 19.1-6.31 52.3-8.04 74.12-3.85z"/><path id="wl4xaF" d="M1035.76 469.98c19.12-6.52 52.3-8.3 74.14-3.98 10.87 2.15 16.87 5.41 17.8 8.95 1.1-4.27-4.95-8.36-17.8-10.91-21.83-4.32-55.02-2.54-74.14 3.98-9.6 3.28-13.82 7.13-12.87 10.7.76-2.99 5.01-6.05 12.87-8.74z"/><path id="wl4xaG" d="M1088.77 479.34c1.63 1.5.38 3.27-3.9 4.72-4.95 1.68-12.61 2.46-19.39 2.16a47.15 47.15 0 0 1-6.82-.76l-1.17-.23-.42.14-1.62.55-.95-.19-4.87-.96 2.03-.69-3.49-.69-.41.14-1.62.55-.96-.19-4.87-.95 2.04-.7-3.5-.68 4.68-1.6.42-.14 2.54.5.95.2 14.29-4.85 5.1-1.73 12.23-4.16-3.5-.69 4.68-1.58.42-.15 2.54.5.96.2 1.62-.56.42-.14 5.82 1.15-2.04.69 2.54.5.96.19 1.62-.55.42-.15 5.82 1.15-2.04.7c7.07 1.39 7.79 4.23 1.6 6.33-3.2 1.08-7.62 1.76-12.13 1.97zm-21.3 4.82c4.01.21 8.62-.25 11.58-1.25 3.94-1.34 3.49-3.14-1.02-4.03l-10.48-2.07-.42.15-13.86 4.7 10.48 2.07c1.12.22 2.39.36 3.72.43zm17-13.09l-11.82 4 9.31 1.84c.94.18 1.99.3 3.1.37 3.46.19 7.45-.2 10.01-1.07 3.39-1.14 3-2.69-.87-3.45l-9.32-1.83z"/><path id="wl4xaH" d="M1088.77 477.45c1.63 1.49.38 3.27-3.9 4.72-4.95 1.68-12.61 2.47-19.39 2.16-2.44-.1-4.78-.36-6.82-.76l-1.17-.23-.42.14-1.62.55-.95-.19-4.87-.95 2.03-.7-3.49-.68-.41.14-1.62.55-.96-.2-4.87-.95 2.04-.7-3.5-.68 4.68-1.6.42-.13 2.54.5.95.19 14.29-4.85 5.1-1.73 12.23-4.15-3.5-.7 4.68-1.58.42-.15 2.54.5.96.2 1.62-.56.42-.14 5.82 1.15-2.04.69 2.54.5.96.19 1.62-.55.42-.14 5.82 1.15-2.04.69c7.07 1.39 7.79 4.23 1.6 6.33-3.2 1.08-7.62 1.76-12.13 1.97zm-21.3 4.82c4.01.21 8.62-.24 11.58-1.25 3.94-1.34 3.49-3.14-1.02-4.03l-10.48-2.07-.42.15-13.86 4.7 10.48 2.07c1.12.22 2.39.36 3.72.43zm17-13.09l-11.82 4.01 9.31 1.84c.94.19 1.99.3 3.1.37 3.46.2 7.45-.2 10.01-1.07 3.39-1.15 3-2.7-.87-3.45l-9.32-1.84z"/><path id="wl4xaI" d="M1018.03 484.4v14.39c3.54 1.9 8.81 3.6 15.8 4.92 6.9 1.3 14.76 2.1 23 2.46V491.5a163.87 163.87 0 0 1-23.58-2.49c-6.61-1.25-11.7-2.83-15.22-4.62z"/><path id="wl4xaJ" d="M1015.65 469.26l-.46-13.25.46 12.95v.3z"/><path id="wl4xaK" d="M1131.97 449.38l.6 15.62c.14 3.98-5.03 8.18-15.75 11.8-23.13 7.81-63.3 9.95-89.74 4.77-14.2-2.79-21.54-7.1-21.71-11.73l-.59-15.62c.17 4.62 7.52 8.94 21.71 11.72 26.43 5.18 66.61 3.05 89.75-4.77 10.7-3.61 15.89-7.81 15.73-11.79z"/><path id="wl4xaL" d="M1109.97 438.02c26.35 5.2 29.02 15.77 5.95 23.6-23.07 7.85-63.13 9.99-89.49 4.8-26.36-5.2-29.02-15.78-5.95-23.62 23.07-7.84 63.13-9.98 89.49-4.78zm-76.37 25.95c21.83 4.3 55.02 2.54 74.13-3.96 19.1-6.5 16.9-15.25-4.93-19.55-21.83-4.31-55.02-2.54-74.12 3.96-19.11 6.5-16.9 15.25 4.92 19.55z"/><path id="wl4xaM" d="M1102.32 441.26c21.83 4.18 24.05 12.7 4.93 19.01-19.1 6.32-52.3 8.05-74.13 3.86-21.83-4.19-24.03-12.7-4.92-19.02 19.1-6.32 52.3-8.04 74.12-3.85z"/><path id="wl4xaN" d="M1028.2 447.27c19.1-6.52 52.3-8.3 74.13-3.98 10.86 2.15 16.87 5.41 17.8 8.95 1.1-4.27-4.95-8.36-17.8-10.9-21.83-4.33-55.02-2.55-74.14 3.97-9.6 3.28-13.82 7.13-12.87 10.7.76-2.99 5.01-6.05 12.87-8.74z"/><path id="wl4xaO" d="M1081.2 455.68c1.62 1.49.38 3.27-3.9 4.72-4.95 1.68-12.61 2.46-19.38 2.17a47.46 47.46 0 0 1-6.83-.77l-1.17-.23-.42.14-1.62.55-.95-.19-4.87-.96 2.03-.69-3.49-.69-.41.14-1.63.56-.95-.2-4.87-.95 2.04-.7-3.5-.68 4.68-1.6.42-.14 2.54.5.95.2 14.28-4.85 5.1-1.73 12.24-4.16-3.5-.69 4.68-1.58.42-.15 2.54.5.96.2 1.62-.56.42-.14 5.82 1.15-2.04.69 2.54.5.96.19 1.62-.55.42-.15 5.82 1.15-2.04.7c7.07 1.38 7.79 4.23 1.6 6.33-3.2 1.08-7.62 1.76-12.13 1.97zm-21.3 4.82c4.01.21 8.62-.25 11.58-1.25 3.94-1.34 3.49-3.14-1.02-4.03l-10.48-2.07-.42.15-13.86 4.7 10.48 2.07c1.12.22 2.39.36 3.72.43zm17-13.09l-11.82 4.01 9.31 1.84a23 23 0 0 0 3.1.37c3.45.19 7.45-.2 10.01-1.07 3.39-1.15 3-2.7-.87-3.45l-9.32-1.84z"/><path id="wl4xaP" d="M1081.2 453.79c1.62 1.49.38 3.27-3.9 4.72-4.95 1.68-12.61 2.47-19.38 2.16a46.7 46.7 0 0 1-6.83-.76l-1.17-.23-.42.14-1.62.55-.95-.19-4.87-.96 2.03-.69-3.49-.68-.41.14-1.63.55-.95-.2-4.87-.95 2.04-.7-3.5-.68 4.68-1.6.42-.13 2.54.5.95.18 14.28-4.84 5.1-1.73 12.24-4.15-3.5-.7 4.68-1.58.42-.15 2.54.5.96.2 1.62-.56.42-.14 5.82 1.15-2.04.69 2.54.5.96.19 1.62-.55.42-.14 5.82 1.15-2.04.69c7.07 1.39 7.79 4.23 1.6 6.33-3.2 1.09-7.62 1.76-12.13 1.97zm-21.3 4.81c4.01.21 8.62-.24 11.58-1.25 3.94-1.33 3.49-3.14-1.02-4.02l-10.48-2.06-.42.14-13.86 4.7 10.48 2.06c1.12.22 2.39.36 3.72.43zm17-13.08l-11.82 4.02 9.31 1.84c.94.18 1.99.3 3.1.37 3.45.2 7.45-.2 10.01-1.07 3.39-1.15 3-2.7-.87-3.46l-9.32-1.84z"/><path id="wl4xaQ" d="M1011.4 461.68v14.4c3.54 1.9 8.81 3.59 15.8 4.9 6.9 1.31 14.76 2.12 23 2.47v-14.66a163.85 163.85 0 0 1-23.58-2.49c-6.61-1.25-11.7-2.83-15.22-4.62z"/><path id="wl4xaR" d="M1022.28 451.27z"/><path id="wl4xaS" d="M1138.6 431.4l.58 15.62c.15 3.98-5.02 8.18-15.74 11.8-23.13 7.81-63.3 9.95-89.74 4.77-14.2-2.78-21.54-7.1-21.71-11.73l-.59-15.62c.18 4.62 7.52 8.94 21.71 11.72 26.43 5.18 66.61 3.05 89.75-4.76 10.7-3.62 15.89-7.82 15.74-11.8z"/><path id="wl4xaT" d="M1116.59 420.04c26.35 5.2 29.02 15.77 5.95 23.6-23.07 7.85-63.13 9.99-89.49 4.8-26.36-5.2-29.02-15.78-5.95-23.61 23.07-7.85 63.13-9.99 89.49-4.8zm-76.37 25.95c21.83 4.3 55.02 2.52 74.13-3.97 19.1-6.5 16.9-15.24-4.93-19.54-21.83-4.3-55.01-2.54-74.13 3.96-19.1 6.49-16.9 15.24 4.93 19.55z"/><path id="wl4xaU" d="M1108.95 423.28c21.84 4.18 24.04 12.7 4.93 19.01-19.1 6.32-52.3 8.05-74.13 3.86-21.83-4.19-24.04-12.7-4.92-19.02 19.1-6.32 52.3-8.04 74.12-3.85z"/><path id="wl4xaV" d="M1034.82 429.3c19.12-6.53 52.3-8.31 74.14-3.99 10.87 2.15 16.87 5.41 17.8 8.95 1.1-4.27-4.95-8.36-17.8-10.9-21.83-4.33-55.02-2.55-74.14 3.97-9.6 3.28-13.81 7.13-12.87 10.7.76-2.99 5.01-6.05 12.87-8.74z"/><path id="wl4xaW" d="M1087.84 437.7c1.62 1.49.37 3.27-3.9 4.72-4.96 1.68-12.62 2.46-19.4 2.17a47.18 47.18 0 0 1-6.82-.77l-1.17-.23-.42.14-1.62.55-.95-.19-4.87-.96 2.04-.69-3.5-.69-.41.14-1.62.55-.96-.19-4.87-.95 2.04-.7-3.5-.68 4.68-1.6.42-.14 2.54.5.96.2 14.27-4.85 5.1-1.73 12.24-4.16-3.5-.69 4.68-1.58.42-.15 2.54.5.96.2 1.62-.56.42-.14 5.82 1.15-2.04.69 2.54.5.96.19 1.62-.55.42-.15 5.82 1.15-2.04.7c7.07 1.39 7.79 4.23 1.6 6.33-3.2 1.08-7.62 1.76-12.12 1.97zm-21.32 4.82c4.02.21 8.63-.25 11.59-1.25 3.94-1.34 3.49-3.14-1.02-4.03l-10.48-2.07-.42.15-13.86 4.7 10.48 2.07c1.12.22 2.39.36 3.71.43zm17-13.09l-11.81 4 9.31 1.84c.93.18 1.98.3 3.09.37 3.46.19 7.45-.2 10.02-1.07 3.37-1.14 2.98-2.69-.88-3.45l-9.31-1.83z"/><path id="wl4xaX" d="M1087.84 435.8c1.62 1.5.37 3.28-3.9 4.73-4.96 1.68-12.62 2.47-19.4 2.16-2.44-.1-4.77-.36-6.82-.76l-1.17-.23-.42.14-1.62.55-.95-.19-4.87-.96 2.04-.69-3.5-.68-.41.14-1.62.54-.96-.18-4.87-.96 2.04-.7-3.5-.68 4.68-1.6.42-.13 2.54.5.96.19 14.27-4.85 5.1-1.73 12.24-4.15-3.5-.7 4.68-1.58.42-.15 2.54.5.96.2 1.62-.56.42-.14 5.82 1.15-2.04.69 2.54.5.96.19 1.62-.55.42-.14 5.82 1.15-2.04.69c7.07 1.39 7.79 4.23 1.6 6.33-3.2 1.09-7.62 1.76-12.12 1.97zm-21.32 4.82c4.02.21 8.63-.24 11.59-1.25 3.94-1.33 3.49-3.14-1.02-4.02l-10.48-2.06-.42.14-13.86 4.7 10.48 2.06c1.12.22 2.39.36 3.71.43zm17-13.08l-11.81 4.02 9.31 1.84c.93.19 1.98.3 3.09.37 3.46.2 7.45-.2 10.02-1.07 3.37-1.15 2.98-2.7-.88-3.46l-9.31-1.84z"/><path id="wl4xaY" d="M1016.14 442.76v14.4c3.54 1.9 8.81 3.59 15.8 4.9 6.9 1.32 14.76 2.12 23 2.47v-14.67a163.8 163.8 0 0 1-23.58-2.48c-6.61-1.25-11.7-2.83-15.22-4.62z"/><path id="wl4xaZ" d="M1019.44 428.56z"/><path id="wl4xba" d="M1135.76 410.58l.58 15.62c.15 3.99-5.02 8.18-15.74 11.8-23.13 7.81-63.31 9.95-89.74 4.77-14.2-2.78-21.54-7.1-21.71-11.73l-.59-15.62c.17 4.62 7.52 8.94 21.71 11.72 26.43 5.18 66.61 3.05 89.75-4.76 10.7-3.62 15.89-7.82 15.74-11.8z"/><path id="wl4xbb" d="M1113.75 399.22c26.35 5.2 29.02 15.77 5.95 23.6-23.07 7.85-63.13 9.99-89.49 4.8-26.36-5.2-29.02-15.78-5.95-23.62 23.07-7.84 63.13-9.98 89.49-4.78zm-76.37 25.95c21.83 4.3 55.02 2.53 74.13-3.97 19.1-6.5 16.9-15.24-4.93-19.54-21.83-4.3-55.02-2.53-74.13 3.96-19.1 6.49-16.9 15.24 4.93 19.55z"/><path id="wl4xbc" d="M1106.11 401.5c21.84 4.2 24.04 12.7 4.93 19.02-19.1 6.32-52.3 8.05-74.13 3.86-21.83-4.19-24.03-12.7-4.93-19.02 19.12-6.32 52.3-8.04 74.13-3.85z"/><path id="wl4xbd" d="M1031.98 407.52c19.12-6.52 52.3-8.3 74.14-3.98 10.87 2.15 16.87 5.41 17.8 8.95 1.1-4.27-4.95-8.37-17.8-10.9-21.83-4.33-55.02-2.55-74.14 3.97-9.6 3.28-13.81 7.13-12.87 10.7.76-2.99 5-6.05 12.87-8.74z"/><path id="wl4xbe" d="M1084.05 415.93c1.62 1.49.37 3.27-3.9 4.72-4.96 1.68-12.62 2.46-19.4 2.16a47.16 47.16 0 0 1-6.82-.76l-1.17-.23-.42.14-1.62.55-.95-.19-4.87-.96 2.04-.69-3.5-.69-.42.14-1.61.55-.96-.19-4.87-.95 2.04-.7-3.5-.68 4.68-1.6.42-.13 2.54.5.96.19 14.27-4.85 5.1-1.73 12.24-4.16-3.5-.69 4.68-1.58.42-.15 2.54.5.96.2 1.62-.56.42-.14 5.82 1.15-2.04.69 2.54.5.96.19 1.62-.55.41-.15 5.83 1.15-2.04.7c7.07 1.39 7.79 4.23 1.6 6.33-3.2 1.08-7.62 1.76-12.12 1.97zm-21.32 4.82c4.02.21 8.63-.25 11.59-1.25 3.94-1.34 3.49-3.14-1.02-4.03l-10.48-2.07-.42.15-13.86 4.7 10.48 2.07c1.12.22 2.39.36 3.71.43zm17-13.09l-11.81 4.01 9.31 1.84c.93.18 1.98.3 3.08.37 3.47.2 7.46-.2 10.03-1.07 3.37-1.15 2.99-2.7-.88-3.45l-9.31-1.84z"/><path id="wl4xbf" d="M1084.05 414.04c1.62 1.49.37 3.27-3.9 4.72-4.96 1.68-12.62 2.47-19.4 2.16-2.44-.1-4.78-.36-6.82-.76l-1.17-.23-.42.14-1.62.55-.95-.19-4.87-.96 2.04-.69-3.5-.68-.42.14-1.61.55-.96-.2-4.87-.95 2.04-.7-3.5-.68 4.68-1.6.42-.13 2.54.5.96.19 14.27-4.85 5.1-1.73 12.24-4.15-3.5-.7 4.68-1.58.42-.15 2.54.5.96.2 1.62-.56.42-.14 5.82 1.15-2.04.7 2.54.5.96.18 1.62-.55.41-.14 5.83 1.15-2.04.69c7.07 1.39 7.79 4.23 1.6 6.33-3.2 1.09-7.62 1.76-12.12 1.97zm-21.32 4.81c4.02.21 8.63-.24 11.59-1.25 3.94-1.33 3.49-3.14-1.02-4.02l-10.48-2.06-.42.14-13.86 4.7 10.48 2.06c1.12.22 2.39.36 3.71.43zm17-13.08l-11.81 4.02 9.31 1.83c.93.19 1.98.3 3.08.37 3.47.2 7.46-.2 10.03-1.07 3.37-1.15 2.99-2.7-.88-3.45l-9.31-1.84z"/><path id="wl4xbg" d="M1014.24 421.94v14.4c3.54 1.9 8.81 3.59 15.8 4.9 6.9 1.31 14.76 2.12 23 2.47v-14.66a163.86 163.86 0 0 1-23.58-2.49c-6.62-1.25-11.7-2.83-15.22-4.62z"/><path id="wl4xbh" d="M1025.12 411.53l-.46-13.25a6944.68 6944.68 0 0 0 .46 13.25z"/><path id="wl4xbi" d="M1140.5 391.65l.58 16.04c.15 4.1-5.03 8.4-15.74 12.12-23.13 8.03-63.31 10.22-89.74 4.9-14.2-2.86-21.54-7.3-21.72-12.04l-.58-16.05c.17 4.74 7.52 9.18 21.7 12.04 26.44 5.32 66.62 3.13 89.76-4.9 10.7-3.7 15.88-8.02 15.73-12.11z"/><path id="wl4xbj" d="M1118.49 380.3c26.35 5.2 29.02 15.77 5.95 23.6-23.07 7.85-63.14 9.99-89.49 4.8-26.36-5.2-29.02-15.78-5.95-23.62 23.07-7.84 63.13-9.98 89.49-4.78zm-76.37 25.95c21.83 4.31 55.02 2.54 74.13-3.96 19.1-6.5 16.9-15.25-4.93-19.55-21.83-4.3-55.02-2.54-74.12 3.96-19.11 6.5-16.9 15.25 4.92 19.55z"/><path id="wl4xbk" d="M1111.8 382.58c21.82 4.18 24.03 12.7 4.92 19.01-19.1 6.32-52.3 8.05-74.13 3.86-21.83-4.19-24.03-12.7-4.92-19.02 19.1-6.32 52.3-8.04 74.13-3.85z"/><path id="wl4xbl" d="M1037.66 388.6c19.11-6.53 52.3-8.31 74.14-4 10.86 2.16 16.87 5.42 17.8 8.96 1.1-4.27-4.95-8.36-17.8-10.9-21.83-4.33-55.03-2.55-74.14 3.97-9.6 3.28-13.82 7.13-12.87 10.7.76-2.99 5-6.05 12.87-8.74z"/><path id="wl4xbm" d="M1090.68 397c1.62 1.5.37 3.28-3.9 4.73-4.96 1.68-12.62 2.46-19.4 2.17a47.12 47.12 0 0 1-6.82-.77l-1.17-.23-.42.14-1.62.55-.95-.19-4.87-.96 2.03-.69-3.49-.69-.42.14-1.62.55-.95-.19-4.87-.95 2.04-.7-3.5-.68 4.68-1.6.42-.13 2.54.5.96.18 14.27-4.84 5.1-1.73 12.24-4.16-3.5-.69 4.68-1.58.42-.15 2.54.5.96.2 1.62-.56.42-.14 5.82 1.15-2.04.69 2.54.5.96.19 1.62-.55.42-.15 5.82 1.15-2.04.7c7.07 1.38 7.79 4.23 1.6 6.33-3.2 1.08-7.62 1.76-12.12 1.97zm-21.31 4.83c4.01.21 8.62-.24 11.58-1.25 3.94-1.34 3.49-3.15-1.02-4.03l-10.48-2.07-.42.14-13.86 4.71 10.48 2.07c1.12.22 2.39.36 3.72.43zm17-13.09l-11.82 4.02 9.3 1.83c.94.19 2 .3 3.1.37 3.46.2 7.45-.2 10.01-1.07 3.38-1.15 3-2.7-.87-3.45l-9.31-1.84z"/><path id="wl4xbn" d="M1090.68 397c1.62 1.5.37 3.28-3.9 4.73-4.96 1.68-12.62 2.47-19.4 2.16-2.44-.1-4.78-.36-6.82-.76l-1.17-.23-.42.14-1.62.55-.95-.19-4.87-.95 2.03-.7-3.49-.68-.42.14-1.62.55-.95-.2-4.87-.95 2.04-.7-3.5-.68 4.68-1.6.42-.13 2.54.5.96.19 14.27-4.85 5.1-1.73 12.24-4.15-3.5-.7 4.68-1.58.42-.15 2.54.5.96.2 1.62-.56.42-.14 5.82 1.15-2.04.69 2.54.5.96.19 1.62-.55.42-.14 5.82 1.15-2.04.69c7.07 1.39 7.79 4.23 1.6 6.33-3.2 1.09-7.62 1.76-12.12 1.97zm-21.31 4.82c4.01.21 8.62-.24 11.58-1.25 3.94-1.34 3.49-3.14-1.02-4.02l-10.48-2.07-.42.14-13.86 4.7 10.48 2.07c1.12.22 2.39.36 3.72.43zm17-13.08l-11.82 4.02 9.3 1.84c.94.19 2 .31 3.1.37 3.46.2 7.45-.2 10.01-1.07 3.38-1.15 3-2.7-.87-3.46l-9.31-1.84z"/><path id="wl4xbo" d="M1019.92 403.95v14.39c3.54 1.9 8.81 3.6 15.8 4.92 6.9 1.3 14.76 2.1 23 2.46v-14.67a163.97 163.97 0 0 1-23.58-2.48c-6.61-1.25-11.7-2.83-15.22-4.62z"/><path id="wl4xbp" d="M1025.12 392.6z"/><path id="wl4xbq" d="M1141.44 372.72l.58 15.62c.15 3.99-5.03 8.18-15.74 11.8-23.13 7.81-63.31 9.95-89.74 4.77-14.2-2.78-21.54-7.1-21.71-11.73l-.59-15.62c.17 4.62 7.52 8.94 21.71 11.72 26.43 5.18 66.61 3.05 89.75-4.76 10.7-3.62 15.88-7.82 15.74-11.8z"/><path id="wl4xbr" d="M1119.43 361.37c26.35 5.2 29.02 15.77 5.95 23.6-23.07 7.85-63.13 9.99-89.49 4.8-26.36-5.2-29.02-15.78-5.95-23.62 23.07-7.84 63.13-9.98 89.49-4.78zm-76.37 25.95c21.83 4.3 55.02 2.53 74.13-3.97 19.1-6.5 16.9-15.24-4.93-19.54-21.83-4.3-55.02-2.53-74.12 3.96-19.11 6.49-16.9 15.24 4.92 19.55z"/><path id="wl4xbs" d="M1111.8 363.66c21.83 4.18 24.03 12.7 4.92 19.01-19.1 6.32-52.3 8.05-74.13 3.86-21.83-4.19-24.03-12.7-4.92-19.02 19.1-6.32 52.3-8.04 74.13-3.85z"/><path id="wl4xbt" d="M1037.66 369.67c19.11-6.52 52.3-8.3 74.14-3.98 10.86 2.15 16.87 5.41 17.8 8.95 1.1-4.27-4.95-8.37-17.8-10.9-21.83-4.33-55.03-2.55-74.14 3.97-9.6 3.28-13.82 7.13-12.87 10.7.76-2.99 5-6.05 12.87-8.74z"/><path id="wl4xbu" d="M1090.68 379.03c1.62 1.49.37 3.27-3.9 4.72-4.96 1.68-12.62 2.46-19.4 2.16a47.13 47.13 0 0 1-6.82-.76l-1.17-.23-.42.14-1.62.55-.95-.19-4.87-.96 2.04-.69-3.5-.69-.42.14-1.61.55-.96-.19-4.87-.95 2.04-.7-3.5-.68 4.68-1.6.42-.13 2.54.5.96.19 14.27-4.85 5.1-1.73 12.24-4.16-3.5-.69 4.68-1.58.42-.15 2.54.5.96.2 1.62-.56.42-.14 5.82 1.15-2.04.69 2.54.5.96.19 1.62-.55.41-.15 5.83 1.15-2.04.7c7.07 1.39 7.79 4.23 1.6 6.33-3.2 1.08-7.62 1.76-12.12 1.97zm-21.31 4.82c4.01.21 8.62-.24 11.58-1.25 3.94-1.34 3.49-3.15-1.02-4.03l-10.48-2.07-.42.14-13.86 4.71 10.48 2.07c1.12.22 2.39.36 3.72.43zm17-13.09l-11.82 4.02 9.3 1.83c.94.19 2 .3 3.1.37 3.46.2 7.45-.2 10.01-1.07 3.38-1.14 3-2.7-.87-3.45l-9.31-1.84z"/><path id="wl4xbv" d="M1090.68 377.13c1.62 1.49.37 3.27-3.9 4.72-4.96 1.68-12.62 2.47-19.4 2.16-2.44-.1-4.78-.36-6.82-.76l-1.17-.23-.42.14-1.62.55-.95-.19-4.87-.96 2.04-.69-3.5-.68-.42.14-1.61.55-.96-.2-4.87-.95 2.04-.7-3.5-.68 4.68-1.6.42-.13 2.54.5.96.19 14.27-4.85 5.1-1.73 12.24-4.15-3.5-.7 4.68-1.58.42-.15 2.54.5.96.2 1.62-.56.42-.14 5.82 1.15-2.04.69 2.54.5.96.19 1.62-.55.41-.14 5.83 1.15-2.04.69c7.07 1.39 7.79 4.23 1.6 6.33-3.2 1.09-7.62 1.76-12.12 1.97zm-21.31 4.81c4.01.21 8.62-.24 11.58-1.25 3.94-1.33 3.49-3.14-1.02-4.02l-10.48-2.06-.42.14-13.86 4.7 10.48 2.06a27 27 0 0 0 3.72.43zm17-13.08l-11.82 4.02 9.3 1.83c.94.19 2 .3 3.1.37 3.46.2 7.45-.2 10.01-1.07 3.38-1.15 3-2.7-.87-3.45l-9.31-1.84z"/><path id="wl4xbw" d="M1020.87 385.03v14.4c3.54 1.9 8.81 3.59 15.8 4.9 6.9 1.31 14.76 2.12 23 2.47v-14.66a163.95 163.95 0 0 1-23.58-2.49c-6.61-1.25-11.7-2.83-15.22-4.62z"/><path id="wl4xbx" d="M1022.28 372.72l-.46-13.25a5648.7 5648.7 0 0 0 .46 13.25z"/><path id="wl4xby" d="M1138.6 354.74l.58 15.62c.15 3.99-5.02 8.18-15.74 11.8-23.13 7.81-63.31 9.95-89.75 4.77-14.19-2.78-21.53-7.1-21.7-11.72l-.59-15.63c.17 4.62 7.52 8.94 21.71 11.72 26.43 5.18 66.61 3.05 89.75-4.76 10.7-3.62 15.89-7.82 15.74-11.8z"/><path id="wl4xbz" d="M1116.59 343.39c26.35 5.2 29.02 15.77 5.95 23.6-23.07 7.85-63.13 9.99-89.49 4.8-26.36-5.2-29.02-15.78-5.95-23.62 23.07-7.84 63.13-9.98 89.49-4.78zm-76.37 25.94c21.83 4.3 55.02 2.54 74.13-3.96 19.1-6.5 16.9-15.24-4.93-19.55-21.83-4.3-55.02-2.53-74.12 3.97-19.11 6.49-16.9 15.24 4.92 19.54z"/><path id="wl4xbA" d="M1108.95 346.62c21.84 4.18 24.04 12.7 4.93 19.01-19.1 6.32-52.3 8.05-74.13 3.86-21.83-4.19-24.03-12.7-4.92-19.02 19.1-6.32 52.3-8.04 74.12-3.85z"/><path id="wl4xbB" d="M1034.82 351.7c19.11-6.53 52.3-8.31 74.14-4 10.87 2.16 16.87 5.42 17.8 8.96 1.1-4.27-4.95-8.36-17.8-10.9-21.83-4.33-55.03-2.55-74.14 3.97-9.6 3.28-13.82 7.13-12.87 10.7.77-2.99 5-6.05 12.87-8.74z"/><path id="wl4xbC" d="M1087.84 360.1c1.62 1.49.37 3.27-3.9 4.72-4.96 1.68-12.62 2.46-19.4 2.17a47.1 47.1 0 0 1-6.82-.77l-1.17-.23-.42.14-1.62.55-.95-.19-4.87-.96 2.03-.69-3.49-.69-.42.14-1.62.55-.95-.19-4.87-.95 2.04-.7-3.5-.68 4.68-1.6.42-.13 2.54.5.95.19 14.28-4.85 5.1-1.73 12.24-4.16-3.5-.69 4.68-1.58.42-.15 2.54.5.96.2 1.62-.56.42-.14 5.82 1.15-2.04.69 2.54.5.96.19 1.62-.55.41-.15 5.83 1.15-2.04.7c7.07 1.39 7.79 4.23 1.6 6.33-3.2 1.08-7.62 1.76-12.12 1.97zm-21.31 4.82c4.01.21 8.62-.25 11.58-1.25 3.94-1.34 3.49-3.14-1.02-4.03l-10.48-2.07-.42.15-13.86 4.7 10.48 2.07c1.12.22 2.39.36 3.72.43zm17-13.09l-11.82 4.01 9.3 1.84c.94.18 2 .3 3.1.37 3.46.19 7.45-.2 10.01-1.07 3.38-1.15 3-2.7-.87-3.45l-9.31-1.84z"/><path id="wl4xbD" d="M1087.84 358.2c1.62 1.5.37 3.28-3.9 4.73-4.96 1.68-12.62 2.47-19.4 2.16-2.44-.1-4.78-.36-6.82-.76l-1.17-.23-.42.14-1.62.55-.95-.19-4.87-.96 2.03-.69-3.49-.68-.42.14-1.62.54-.95-.18-4.87-.96 2.04-.7-3.5-.68 4.68-1.6.42-.13 2.54.5.95.19 14.28-4.85 5.1-1.73 12.24-4.15-3.5-.7 4.68-1.58.42-.15 2.54.5.96.2 1.62-.56.42-.14 5.82 1.15-2.04.69 2.54.5.96.19 1.62-.55.41-.14 5.83 1.15-2.04.69c7.07 1.39 7.79 4.23 1.6 6.33-3.2 1.09-7.62 1.76-12.12 1.97zm-21.31 4.82c4.01.21 8.62-.24 11.58-1.25 3.94-1.34 3.49-3.14-1.02-4.02l-10.48-2.07-.42.14-13.86 4.7 10.48 2.07c1.12.22 2.39.36 3.72.43zm17-13.08l-11.82 4.02 9.3 1.84c.94.19 2 .31 3.1.37 3.46.2 7.45-.2 10.01-1.07 3.38-1.15 3-2.7-.87-3.46l-9.31-1.84z"/><path id="wl4xbE" d="M1016.14 366.1v14.39c3.54 1.9 8.81 3.6 15.79 4.92 6.9 1.3 14.77 2.1 23.02 2.46V373.2a163.97 163.97 0 0 1-23.59-2.48c-6.61-1.25-11.7-2.83-15.22-4.62z"/><path id="wl4xbF" d="M769.08 464.78s6.67 14.42-5.27 22.8c-3.55 2.48.59 1.54 4.5.26 3.93-1.27 12.66-9.66 13-19.63.33-9.96-.26-13.8-3.31-15.8-3.06-2-8.92 12.37-8.92 12.37z"/><path id="wl4xbG" d="M736.16 463.81l41.45 17.46-12.94 1.67s-39.39 6.45-40.04-7.76c-.67-14.22 11.53-11.37 11.53-11.37z"/><path id="wl4xbH" d="M707.57 481.56c-.1 1.03.4 6.63 1.77 8.34 4.18 5.28 11.5-1.04 18.01-2.5.35-.08 8.15-11.86 8.15-11.86l2.35-7.23-27.7 1.02s-1.79 3.64-2.58 12.23z"/><path id="wl4xbI" d="M722.14 492.76s-2.6-2.21-.54-3.3c6.16-3.23 23.94-8.24 31.94-8.47 10.68-.3 14.19-.37 14.19-.37s6.74-.22 9.02 1.23c4.7 2.98-1.3 11.06-1.3 11.06z"/><path id="wl4xbJ" d="M721.65 489.13l-3.68.63.03 3.22 1.12.2s-1.1 2.22-1.1 2.83l.06 8.26h1.36s2.16-8.8 4.2-10.1c.06-.04-.8-.44-1.01-1a26.23 26.23 0 0 1-.98-4.04z"/><path id="wl4xbK" d="M683.05 558.41c.62-.97-1.34-1.21.8-3.68 2.4-2.76 2.91-2.13 2.91-2.13l.92 5.25z"/><path id="wl4xbL" d="M762.65 432.54s1.15-7.75 12.5 6.57a36.65 36.65 0 0 1 7.18 17.46l-1.23 8.2-14.15.7-.44-6.6.92-.55s.35-1.35-.5-2.2c-.85-.84-3.38-5.73-10.36-13.34-3.22-3.5 5.04-9.57 6.08-10.24z"/><path id="wl4xbM" d="M771.61 454.11l-3.17 1.27-1.25.59c.47.86.22 1.93.22 1.93l2.2-1.45 2.88-1.16 4.17-.2z"/><path id="wl4xbN" d="M739.7 474.78s.42-2.2-1.76-2.62c-2.19-.42-7.67 1.18-7.67 1.18s1.1.43 2.67.83c1.57.41 3.46.76 3.46.76z"/><path id="wl4xbO" d="M739.55 473.99l-31.05-5.22s13.48-25.93 16.76-30.5c4.1-5.69 12.74-10.52 12.74-10.52s12.67-4.3 19.78-.37c10.33 5.72 13.2 8.79 13.2 8.79s-3.12 23.26-31.43 37.82z"/><path id="wl4xbP" d="M734.06 472.26l2.06 1.73a141.82 141.82 0 0 0 21.6-44.92l-2.22-.51a138.38 138.38 0 0 1-21.44 43.7z"/><path id="wl4xbQ" d="M690.06 555.38l-5.22-1.94s9.5-22.08 14.84-28.2c7.1-8.15 13.45-12.45 13.45-12.45l10.52 5.06z"/><path id="wl4xbR" d="M730.27 481.29l-7.13 37.18-10.23-4.52s-11.42-38.79 2.5-42.22c13.93-3.44 14.86 9.56 14.86 9.56z"/><path id="wl4xbS" d="M753.31 487.24l7.27 5.3 4.72.3s-.16.7-.35.78c-1.22.5-5.07 0-5.07 0s-2.88-1-3.87-.94c-.99.07-3.67 1.44-3.82 1.14-.56-1.04.75-.8 1.2-1.53.54-.86.3-2.6.3-2.6z"/><path id="wl4xbT" d="M738.28 470.2l15.27 17.75 1.34 2.12s-1.15-1.06-1.87-1.29c-3.2-1.03-13.64-5.9-16.87-8.95-3.96-3.74-6.82-8.18-6.82-8.18z"/><path id="wl4xbU" d="M742.84 445.43l-3.42 22.98-1.51.95 1.18 1.26-9.03 3.37-5.46-6.27 5.26-31.3s2.67-8.67 12.23-9.74c4.77-.53.95 16.86.75 18.75z"/><path id="wl4xbV" d="M728.38 470.35s6.5-.02 9.89-.15l-.65.41 1.17 1.26-3.09 1.13-4.62.99-1.05-1.58 1.29-.6z"/><path id="wl4xbW" d="M761.44 415.54a2.7 2.7 0 0 1-2.15 3.2l-10.43 2.19a2.83 2.83 0 0 1-3.37-2.06 2.7 2.7 0 0 1 2.15-3.2l10.44-2.19c1.52-.32 3.03.6 3.36 2.06z"/><path id="wl4xbX" d="M760.44 419.93c.63 2.52-1.18 5-4.03 5.56l-5.51 1.07c-2.86.55-5.68-1.04-6.3-3.56-.63-2.52 1.17-5 4.02-5.56l5.52-1.07c2.85-.55 5.67 1.04 6.3 3.56z"/><path id="wl4xbY" d="M765.3 427.98l-3.25-15.47c-.53-2.47-1.92.44-4.28.98l-2.28.52a4.58 4.58 0 0 0-3.34 5.44l2.32 11z"/><path id="wl4xbZ" d="M752.95 422.48a1.89 1.89 0 1 1-3.69.81 1.89 1.89 0 0 1 3.7-.81z"/><path id="wl4xca" d="M762.47 422c.13.6.67.99 1.22.86l.82-.2c.55-.12.88-.71.76-1.31 0 0-2.96-5.22-3.51-5.09 0 0-.35.6-.22 1.2z"/><path id="wl4xcb" d="M758.54 428.46c-4.22.97-4.95-.28-5.4-1.79 0 0-.3 4.1-.04 5.35l.29 1.38c.56 2.68 3.67 4.24 6.94 3.5l5.91-1.36-1.44-6.81-.34-1.62z"/><path id="wl4xcc" d="M764.5 423.83l-3.5.87c-1.6.4-2.61 2.2-2.26 4.01.05.29.15.55.26.8l6.3-1.57z"/><path id="wl4xcd" d="M760.56 428.33l.2.84c.06.23.3.37.56.32l2.66-.53c.25-.05.41-.28.35-.51l-.2-.84z"/><path id="wl4xce" d="M758.48 410.58l-8.83 1.96a1.78 1.78 0 0 0-1.35 2.13l.76 3.48 10.56-2.35z"/><path id="wl4xcf" d="M765.24 411.72a2.66 2.66 0 0 1-2.04 3.16l-6.01 1.31a2.65 2.65 0 1 1-1.15-5.19l6-1.3c1.45-.32 2.88.58 3.2 2.02z"/><path id="wl4xcg" d="M752.55 415.31l-2.4.5 1.39 6.12 2.4-.5z"/><path id="wl4xch" d="M757.07 412.47l-6.92 1.47 1.6 7.05 6.92-1.47z"/><path id="wl4xci" d="M754.02 420.06a3.59 3.59 0 0 1 2.76-4.27l1.82-.4c1.95-.43 3.35.91 3.77 2.85a3.59 3.59 0 0 1-2.75 4.28l-1.29.28a3.61 3.61 0 0 1-4.3-2.74z"/><path id="wl4xcj" d="M682.78 555.38l-.78 3.07 2.31 1.24.58-.8s1.5 1.89 2.03 2.16c.13.07.63.44 1.39.72 1.23.44 6.46.12 6.46.12l.48-1.07s-3.58.45-5.69-1.84c-1.13-1.24-2.05-2.45-2.19-3.22 0-.06-.66.44-1.22.35-1.46-.22-2.53-.68-3.37-.73z"/><path id="wl4xck" d="M1099.38 231.69s5.23 4.56-8.2 20.5c-13.44 15.95-16.47 12.28-16.47 12.28l-4.7-2.32-4.65-14.95 6.93-2.65.85.8s1.54-.06 2.2-1.26c.67-1.2 5.2-5.53 11.41-15.53 2.87-4.61 11.63 2.24 12.63 3.13z"/><path id="wl4xcl" d="M1066.12 247.96s-15.08 1.84-17.67-13.43c-.77-4.55-1.56.07-1.99 4.57-.42 4.5 3.44 16.47 11.93 20.3 8.49 3.85 12.04 4.58 14.96 2.12 2.93-2.46-7.23-13.56-7.23-13.56z"/><path id="wl4xcm" d="M1079.01 248.42l-2.65-3.18-1.15-1.22c-.89.8-2.28.86-2.28.86l2.52 2.03 2.42 2.89 1.69 4.63z"/><path id="wl4xcn" d="M1131.76 264.84l9.32-25.71-28.87-22.57s-17.47-15-22.99-2.73c-5.5 12.28-11.56 26.55-11.56 26.55s3.72 11.42 54.1 24.46z"/><path id="wl4xco" d="M1085.04 230.36l-1.7-.54 1.65 2.08 4.98 1.7-1.54-3.65z"/><path id="wl4xcp" d="M1137.94 249.69l-36.61 41.67 5.16 12.27s13.79-5.44 25.3-17.62c11.52-12.18 6.15-36.32 6.15-36.32z"/><path id="wl4xcq" d="M1057.82 220.55s12.2 14.5 16.68 12.94c.2-.06 2.36-2.18 4.46-2.34 1.99-.15 3.11.86 3.9.9.26 0 .73.14 1.22.03 2.4-.57 3.22-1.79 3.03-2.78-.24-1.2.16-4.39-.28-5.29-.3-.62-.33-1.2-1.27-1.38-2-.41-5.37-1.63-6.3-2.7-2.71-3.12-5.12-11.7-13.36-9.68-2.41.6-8.6 9.08-8.08 10.3z"/><path id="wl4xcr" d="M1087.4 229.82s-2.8 23.84 9.66 43.54c.98 1.56 3.51 1.89 3.51 1.89l1.7-3.56s-10.72-23.75-14.87-41.87z"/><path id="wl4xcs" d="M1086.9 229.6l4.96 1.17-3.5-10.41-2.18.23z"/><path id="wl4xct" d="M1074.82 231.7s.2-.62.46-1.83c.09-.4.37-1.57.69-2.1 1.4-2.32 1.56-2.1 2.08-3.64.6-1.76.94-5.67.94-5.67s.8 2 1.15 2.8a4.33 4.33 0 0 1-.14 3.72c-1.98 4.27-1.47 4.29-1.94 4.72-.03.03-.43.14-3.24 2z"/><path id="wl4xcu" d="M1064.41 225.09c.3.25 1.82 3.55 2.1 4.16.29.61.62 1.4.87 1.48.24.06 1.17.04 1.54 0 .37-.05 1.85-.17.8-1.41-1.06-1.24-5.31-4.23-5.31-4.23z"/><path id="wl4xcv" d="M1066.15 209.08c-4.22.59-8.36 5.78-8.36 11.95 0 0 .9.58 2.63.05 0 0-.64-4.19 2.72-6.91 3.53-2.85 2.96.83 4.5.83 1.3 0 2.45-.05 2.45-.05l2.32 1.21.92-.75s-1.53-2.28-.53-2.16c1.22.14 2.47 1.73 2.67 1.94.2.21.52.56.68.52.12-.04 1.03 1.24 3.19 2.78.4-.39.31-1.4-.67-2.76-2.22-3.07-7.38-7.37-12.52-6.65z"/><path id="wl4xcw" d="M1072.93 213.38a1.56 1.56 0 0 1 2.29-.17c.67.63.74 1.7.15 2.42"/><path id="wl4xcx" d="M1069.14 227.93s-1.53 1.43-1.62 1.67c-.1.24-.36.78-.24.97.12.2.64.36 1.6-.07.24-.11-.17-.43.26-2.57z"/><path id="wl4xcy" d="M1116.47 356.63h6.63v-9.46h-6.63z"/><path id="wl4xcz" d="M1090.32 356.64l-5.08-.82 1.54-9.59 5.09.82z"/><path id="wl4xcA" d="M1123.6 362.31h-4.9v-1.78l-2.14 1.78h-12.39s.21-2.42 8.54-2.8c2.14-.1 3.63-3.57 3.63-3.57s1.07-1.15 2.67 1.53c.42.7 4.92-.64 4.92-.64s.42 3.57-.32 5.48z"/><path id="wl4xcB" d="M1092.68 355.69c4.81-10 14.14-27.2 16.08-33.95 3.6-12.48 3.93-21.75 3.93-21.75l-11.21-7.71-16.24 61.4z"/><path id="wl4xcC" d="M1084.29 357.03c-.8.46-1.82.85-2.79.6-7.79-2.04-8.57-.29-8.57-.29l10.26 3.09z"/><path id="wl4xcD" d="M1103.1 262.94l-23.54 24.32s2 1.7 3.85 1.1c5.04-1.59 15.22-7.48 19.54-11.25 5.9-5.16 10.69-11.44 10.69-11.44z"/><path id="wl4xcE" d="M1097.9 232.77l4.5 27.6 1.75 1.1-1.33 1.56 10.41 3.7 6.08-7.79-6.81-37.59s-3.65-8.25-14.23-11.25c-7.67-2.18-.64 20.39-.37 22.67z"/><path id="wl4xcF" d="M1113.63 261.05s-7.12.3-10.83.28l.73.6-1.26 1.97 3.4 1.57 5.09 1.26 1.1-2.46-1.42-.84z"/><path id="wl4xcG" d="M1085.24 287.34l-2.55 2.8s-1.15 1.4-3.03 2.53c-1.89 1.14-3.68.43-5.13-1.12-1.46-1.55-1.6-2.7-1.6-2.7s1.17-2.44 3.41-2.08c2.25.36 7.27-1.76 7.6-.9a3.86 3.86 0 0 0 1.3 1.47z"/><path id="wl4xcH" d="M1073.8 286.6l-3.46 3.14-3.09 3.07.88.41 2.49-1.86 5.15-.91-.66-1.29z"/><path id="wl4xcI" d="M1071.93 293.38l-1.84 3.06.73.57 2.41-2.72 3.49-1.94-1.55-1.96z"/><path id="wl4xcJ" d="M1071.98 298.9l1.56-3.03.73-2.14 2.2-1.45 2.14 1.43-2.43 1.49-2.8 3.67z"/><path id="wl4xcK" d="M1074.82 298.9l1.36-5.71 1.26-.91 1.17.88-1.43 2.3-1.54 3.05z"/><path id="wl4xcL" d="M1086.85 283.79c-1.76 1.97-4.31 1.47-4.31 1.47s-6.4-1.07-7.47.02c-1.08 1.1-3.82 1.72-3.82 1.72s-1.04.93 1.54 1.4c1.7.3 3.22-.04 3.22-.04s3.45 2.14 4.6 2.02c2.33-.26 6.52-5.16 6.52-5.16s-.05-1.69-.28-1.43z"/><path id="wl4xcM" d="M1141.4 239.28l-24.93 50.58 8.17 10.93s12.07-9 20.18-24.06c8.1-15.06-3.42-37.45-3.42-37.45z"/><path id="wl4xcN" d="M1124.44 352.85c2.18-10.9 6.98-29.9 7.15-36.9.3-12.98-1.81-22-1.81-22l-13.25-4.51-.06 63.4z"/><path id="wl4xcO" d="M1047.73 240.88s3.7-2.36 3.87-3.67c.18-1.32.5-6.17.5-6.17l-.02-1.25s-1.29-.75-1.48 2.51c-.18 3.27-.9 1.61-.9 1.61l-.87-3.03-1.34-3.65-.4-1.7s-.17-.97-.39-1.17c-.64-.58-.8.16-.8.16l1.05 6.73-2.53-5.94s-.44-.7-.84-.6c-.38.09-.29.34-.29.34l1.41 7.43-1.62-2.91s-.44-.68-.84-.6c-.43.08-.55.08-.55.08l4.83 12.12z"/><path id="wl4xcP" d="M1045.48 231.53l-2.12-4.05s-.37-.95-.82-1.3a.58.58 0 0 0-.85.06l2.6 6.41z"/><path id="wl4xcQ" d="M1017.88 329.19s1.68 1.52-6.08 10.87c-7.75 9.35-21.22 21.3-21.22 21.3l16.09-23.1s6.53-8.57 11.2-9.07z"/><path id="wl4xcR" d="M995.29 353.73c-3.4 4.62-2.9 8.26-3.63 10.61-.74 2.35-1.16 4.98-1.17 4.95-.92-2.44.13-3.98.14-5.18 0-1.2.13-.78-1.18.77-.75.9-.56 3.72-.66 5.56-.08 1.59-.5 2.28-.5 2.28s-.53-2.39-.55-4.88c-.01-3 .5-6.25.73-6.95.4-1.26 2.58-4.43 4.44-6.42 2.11-2.25 4.83-4.08 2.38-.74z"/><path id="wl4xcS" d="M988.68 360.42s-1.82 3.97-1.89 4.88c-.04.63.24 3.64.24 3.64s.78-1.4.74-2.62c-.04-1.21.91-5.9.91-5.9z"/><path id="wl4xcT" d="M1010.39 329.85s7.47-8.51 11.77-4.14c2.45 2.48 1.8 5.26-.5 7.8-4.27 4.72-9.36 9.88-9.36 9.88l-9.41-3.31z"/><path id="wl4xcU" d="M1014.93 322.66l5.9-23.73s3.15-6.01 5.54-5.69c3.44.46 3.42 5.13 3.65 7.13.46 3.95.86 2-2.25 15.75-2.85 12.56-3.87 17.77-9.96 16.73-5.68-.98-2.88-10.2-2.88-10.2z"/><path id="wl4xcV" d="M1037.36 335.86l2.44 21.34-11.11 2.97-5.93.25 11.44-5.82-3.68-19.73z"/><path id="wl4xcW" d="M1039.5 360.52l-2.27.22-1.24-1.71-8.68 2.8-7.39.48s0-.62.3-.91c1.08-1.07 6.49-2.92 6.49-2.92s-.2 1.83.5 2c.7.19 7.37-2.1 8.94-2.8 2.7-1.2 3.31-2.13 3.48-1.97.44.43-.12 4.8-.12 4.8z"/><path id="wl4xcX" d="M1035.06 325.09l1.9 19.25-9.81-.79-2.49-28.77s1.65-7.07 6.08-5.12c2.85 1.26 4.32 15.43 4.32 15.43z"/><path id="wl4xcY" d="M1040.23 316.6l15.22 27.97s7.08 7.57 4.67 9.28c-3.48 2.48-13.79-.81-15.72-2.55-3.83-3.44-.93-1.52-10.02-17.47-8.3-14.57-11.9-20.49-5.54-24.65 5.93-3.88 11.39 7.42 11.39 7.42z"/><path id="wl4xcZ" d="M1099.44 360.4s-26.16.92-25.55.96c.62.05 4.17-6.62 4.17-6.62l17.77 2.57z"/><path id="wl4xda" d="M1091.86 360.88l2.05-5.19 11.41 2.72 5.47 2.86-13.02.1z"/><path id="wl4xdb" d="M1094.97 353.8l2.17.8.41 1.82 9.12 1.54 6.96 2.76s-.27.47-.65.57c-1.44.35-7.17-.53-7.17-.53s.95-1.3.39-1.74c-.57-.43-7.64-1.5-9.36-1.64-2.97-.24-3.93.21-4.02.02-.22-.51 2.15-3.6 2.15-3.6z"/><path id="wl4xdc" d="M1040.91 350.23l39.59 1.8-3.21 9.34-49.92-.65s-6.87-4.15-3.84-8.85c1.77-2.74 17.38-1.64 17.38-1.64z"/><path id="wl4xdd" d="M1032.64 306.5c3.15 6.02 10.83 8.35 17.14 5.2 6.31-3.14 8.86-10.57 5.7-16.6-3.16-6.01-10.83-8.34-17.14-5.2-6.31 3.15-8.86 10.58-5.7 16.6z"/><path id="wl4xde" d="M1025.91 291.6a11.7 11.7 0 0 0 15.88 5.01 11.97 11.97 0 0 0 5.28-15.96 11.69 11.69 0 0 0-15.87-5 11.97 11.97 0 0 0-5.29 15.96z"/><path id="wl4xdf" d="M1013.83 289.15c2.2 4.54 7.43 6.33 11.71 4.01l.05-4.95c4.28-2.32 5.97-7.88 3.79-12.42l-1.49-3.08c-2.18-4.54-7.43-6.34-11.7-4.02l-1.94 1.06c-4.28 2.32-5.97 7.88-3.78 12.41z"/><path id="wl4xdg" d="M1011.09 274.3c.4.73.85 1.45 1.37 2.16 3.52 4.73 8.77 7.04 12.51 5.77a27.53 27.53 0 0 0 4.4 5.62c1.72 1.7 5.27 2.63 5.27 2.63 2.47 3.3-6.55 14.26-7.28 14.1-1.54-.34-2.86-6.08-2.46-8 .35-1.74 1.59-3.4 1.39-4.27-.72-3.05-1.87-3.45-3.73-4.46-3.13-1.27-5.95.18-5.95.18-.27.13-.58.14-.85.05a6.38 6.38 0 0 1-1.13-1.55l-3.46-6.6a6.24 6.24 0 0 1-.08-5.63z"/><path id="wl4xdh" d="M1063.46 340.3s-1.3 5.03-2.04 5.89c-1 1.15-5.42 1.93-5.42 1.93s-9-12.74-13.38-18.49c-4.39-5.74-7.2-9.48-8.28-11.44-1.73-3.12-1.87-3.98-2.67-6.7-.8-2.72-4.11-7.82-3-7.59 1.24.26 2.4-3.34 2.36-4.98-.02-.9 32.43 41.38 32.43 41.38z"/><path id="wl4xdi" d="M1022.76 292.28s1.5 9.46 1.96 11.21c.71 2.67 2.15 7.6 7 13.9 4.85 6.3 6.65 7.54 9.58 12.46 2.93 4.93 2.37 6.68 6.18 12.61 2.98 4.65 6.08 8.5 6.08 8.5s2.56-.58 3.25-3.27-11.77-17.29-14.65-21.1c-2.88-3.8-9.43-13.58-10.86-16.54-1.43-2.96-4.59-13.96-4.57-15.14.05-2.95-3.47-2.6-3.97-2.63z"/><path id="wl4xdj" d="M1022.2 292.28s.4.32.77.38c.69.1 1.69.6 1.69.6s-.98.07-.9 1.28c.07 1.48.85 4.36.85 4.36s-2.7-2.31-2.77-3.67c-.12-2.47.37-2.95.37-2.95z"/><path id="wl4xdk" d="M1033.08 344.66l37.5-8.4s10.87-5.33 12.34-2.4c2.13 4.23-4.39 14-6.96 15.54-5.1 3.04-2.06.56-23.54 5.77-19.62 4.76-27.65 6.92-31.1-.7-3.22-7.13 11.76-9.8 11.76-9.8z"/><path id="wl4xdl" d="M1062.1 344.34s-9.19-15.54-14.48-22.58c-5.3-7.03-14.54-21.26-15.8-22.96-1.26-1.7-2.42-4.51-2.42-4.51s-.3-5.28 2.4-6.6c2.36-1.16 7.09-1.4 11.33-2.02 2.93-.44 18.48 27.06 19.44 28.3 3.47 4.44 11.34 8.04 15.14 10.98 3.02 2.33 6.58 6.36 6.58 6.36s-15.67 6.38-22.19 13.03z"/><path id="wl4xdm" d="M1029.85 286.6l-.65 2.93-.76 4.36 3.46 2.17.33-9.14z"/><path id="wl4xdn" d="M1047.73 323.5l-8.88-29.04s.1-7.71 2.6-8.59c3.6-1.27 5.91 3.49 7.13 5.4 2.42 3.8 1.84 1.6 5.64 17.16 3.47 14.2 3.78 18.46-.87 19.67-4.35 1.13-5.62-4.6-5.62-4.6z"/><path id="wl4xdo" d="M1045.9 346.43s-2.1 9.15-2.54 9.94c-.44.8-1.1.9-2.68 2.14-1.57 1.23-1.8 1.53-2.99 2.57-1.19 1.05-1.29 1.2-1.29 1.2s.67.58 1.23.29c.5-.26 1.5-1.15 1.94-1.36.43-.21-.83.76-2.22 2.65a33.09 33.09 0 0 0-2.95 4.85c-.27.58-.3.67-.27.69.21.19.43.34.65.16.2-.15.73-.87.73-.8-.01.25-.57 1.61-.69 1.83-.12.24-.29.55-.37.76-.17.42.36.62 1 .19.02 0 .4.1.6-.01.11-.07.19-.1.3-.18.1-.07.21-.19.32-.27.42-.3.8-.64 1.15-.99.14-.14 1.18-1.55 1.27-1.48l-.57 1.3c.2.1.6.1.74-.1.26-.36.67-.9 1.7-2.44 1.13-1.7 1.25-2.16 3.2-3.91 1.68-1.53 1.88-2.33 2.09-4.04.7-5.9 5.61-14.91 5.85-16.64.24-1.72-6.2 3.65-6.2 3.65z"/><path id="wl4xdp" d="M1047 319.75s-.78-1.79 5.13-.51c3.36.72 3.87-1.4 3.75 2.04-.25 7.42-2.72 24.4-2.72 24.4l-9.57 2.44z"/><path id="wl4xdq" d="M1120.26 449.85l15.98-.46c15.71-.45 30.23 14.4 34.14 36.41 4.47 25.17-6.6 50.18-24.73 55.87l-15.98.46c18.13-5.7 29.2-30.7 24.73-55.87-3.91-22.02-18.43-36.86-34.14-36.41z"/><path id="wl4xdr" d="M1138.39 543.49l-15.29.53c2.15-.07 4.32-.51 6.49-1.35l15.28-.54a19.9 19.9 0 0 1-6.48 1.36z"/><path id="wl4xds" d="M1120.11 449.92l15.3-.54c-2.15.08-4.32.52-6.5 1.36l-15.28.53a19.8 19.8 0 0 1 6.48-1.35z"/><path id="wl4xdt" d="M1138.24 542.61l-15.98.46c-15.71.44-30.23-14.4-34.14-36.42-4.47-25.16 6.6-50.17 24.74-55.86l15.98-.46c-18.13 5.7-29.2 30.7-24.74 55.87 3.91 22.02 18.43 36.86 34.14 36.41z"/><path id="wl4xdu" d="M1139.19 553.01l-16.06.46c-19.07.54-36.68-17.5-41.43-44.25-5.42-30.59 8.02-60.99 30.02-67.9l16.06-.46c-22 6.92-35.44 37.31-30.02 67.9 4.75 26.76 22.36 44.8 41.43 44.25z"/><path id="wl4xdv" d="M1127.56 441.33c21.83-6.92 43.87 12.27 49.25 42.85 5.38 30.58-7.94 60.98-29.77 67.9-21.82 6.91-43.87-12.27-49.25-42.85-5.38-30.59 7.95-60.98 29.77-67.9zm17.82 101.24c18.07-5.73 29.11-30.9 24.66-56.24-4.46-25.33-22.73-41.22-40.8-35.5-18.08 5.73-29.12 30.91-24.66 56.25 4.45 25.33 22.72 41.22 40.8 35.49z"/><path id="wl4xdw" d="M1128.78 450.54c18.01-5.7 36.22 10.13 40.66 35.36 4.44 25.23-6.56 50.3-24.57 56-18.02 5.71-36.23-10.11-40.67-35.34-4.44-25.23 6.57-50.31 24.58-56.02z"/><path id="wl4xdx" d="M1121.03 440.39l16.27-.47c-2.76.08-5.55.55-8.34 1.43l-16.27.46a30.43 30.43 0 0 1 8.34-1.42z"/><path id="wl4xdy" d="M1129.55 450.56c-2.99.98-5.78 2.53-8.34 4.53a26.89 26.89 0 0 1 7.33-3.77c17.68-5.77 35.55 10.25 39.91 35.8 3.62 21.21-3.22 42.32-15.78 52.17 13.2-9.5 20.51-31.15 16.8-52.94-4.37-25.54-22.24-41.57-39.92-35.8z"/><path id="wl4xdz" d="M1143.56 488.86c3.64 1.91 6.6 6.28 7.59 12 1.15 6.61-.65 13.22-4.2 17.07a10.49 10.49 0 0 1-4.48 2.97l-.96.3.1.56.38 2.17-.79.25-4.01 1.29-.47-2.72-2.88.92.1.56.37 2.16-.79.25-4 1.29-.48-2.72-2.87.92-1.09-6.25-.1-.56 2.1-.67.78-.25-3.31-19.07-1.18-6.81-2.84-16.35-2.88.92-1.08-6.25-.1-.56 2.1-.67.78-.25-.38-2.17-.1-.56 4.8-1.53.47 2.72 2.1-.67.78-.25-.38-2.17-.1-.56 4.8-1.54.48 2.73c5.82-1.87 11.71 3.33 13.15 11.59.74 4.27.14 8.53-1.41 11.91zm.2 23.66c2.17-2.22 3.28-6.16 2.59-10.13-.91-5.26-4.66-8.57-8.37-7.38l-8.63 2.78.1.56 3.2 18.5 8.64-2.76c.92-.3 1.75-.84 2.47-1.57zm-18.34-37.33l2.75 15.79 7.67-2.47c.77-.24 1.47-.7 2.07-1.3 1.89-1.88 2.87-5.3 2.27-8.72-.78-4.51-4-7.34-7.18-6.32l-7.67 2.46z"/><path id="wl4xdA" d="M1146.4 489.8c3.64 1.92 6.6 6.29 7.59 12 1.15 6.63-.65 13.23-4.2 17.08a10.51 10.51 0 0 1-4.48 2.97l-.96.3.1.56.38 2.17-.79.25-4 1.29-.48-2.72-2.88.92.1.56.37 2.16-.79.25-4 1.29-.48-2.72-2.87.92-1.09-6.25-.1-.56 2.1-.67.78-.25-3.31-19.07-1.18-6.81-2.84-16.35-2.88.92-1.08-6.25-.1-.56 2.09-.67.79-.25-.38-2.17-.1-.55 4.8-1.54.47 2.72 2.1-.67.78-.25-.38-2.17-.09-.56 4.8-1.54.47 2.73c5.82-1.87 11.72 3.33 13.15 11.6.74 4.26.14 8.52-1.41 11.9zm.19 23.67c2.17-2.22 3.28-6.16 2.59-10.12-.91-5.27-4.66-8.58-8.36-7.38l-8.63 2.77.1.56 3.2 18.51 8.63-2.77c.92-.3 1.75-.84 2.47-1.57zm-18.33-37.33l2.74 15.79 7.68-2.47c.77-.24 1.47-.7 2.07-1.3 1.9-1.88 2.87-5.3 2.27-8.72-.78-4.51-4-7.34-7.18-6.32l-7.67 2.46z"/><path id="wl4xdB" d="M1122.53 552.53l15.72-.44c-9.12.25-17.88-3.76-25.02-10.91l-14.74 1.4c6.95 6.55 15.34 10.19 24.04 9.95z"/><path id="wl4xdC" d="M744.3 299.22s-1.51-7.3-10.45-6c0 0-2.28-8.37-11.22-7.09-8.94 1.3-9.7 8.37-9.7 8.37s-5.13-2.57-8.56-.21c-3.42 2.36-4.37 4.93-4.37 4.93z"/><path id="wl4xdD" d="M765.78 348.6s1.09-5.23 7.5-4.31c0 0 1.63-6 8.03-5.07 6.4.92 6.95 6 6.95 6s3.68-1.85 6.14-.16c2.45 1.69 3.13 3.53 3.13 3.53z"/><path id="wl4xdE" d="M961.65 313.78c-1.13-8.25-8.52-14.62-17.5-14.62-8.32 0-15.29 5.49-17.16 12.86l-.28-.01-5.56-.08c-1.03-6.56-6.96-11.6-14.14-11.6-7.02 0-12.85 4.82-14.07 11.17-15.27-2.9-16.76 10.21-16.76 10.21h92.37c.56-6.36-6.37-7.83-6.9-7.93z"/><path id="wl4xdF" d="M864.38 561.04c4.93 1.74 10.78 1.25 14.42-2.57a13.34 13.34 0 0 0 2.14-14.8c-1.17-2.28-3.07-4.42-2.95-7a7.68 7.68 0 0 1 1.48-3.82c1.49-2.23 3.42-4.13 4.8-6.43 1.39-2.3 2.18-5.22 1.12-7.7-2.05-4.8-9.46-5.01-11.68-9.74-1.05-2.23-.63-4.85-.41-7.32.25-2.96.12-6.08-1.28-8.68-1.4-2.6-4.36-4.51-7.2-3.85-3.38.8-5.1 4.56-6.33 7.88l-2.45 6.6c-2.28 6.1-4.58 12.67-3.07 19.02 1.21 5.13 4.74 9.28 7.7 13.6.56.82 1.13 1.74 1.05 2.74-.12 1.54-1.7 2.5-3.18 2.85-1.47.34-3.07.34-4.36 1.15-1.56.98-2.3 3-2.17 4.86.14 1.86 1 3.6 2.07 5.12 0 0 4.86 6.16 10.3 8.09"/><path id="wl4xdG" d="M868 535.45l7.21-9.72c.68-.91 1.36-1.84 2.2-2.6"/><path id="wl4xdH" d="M861.41 545.88a68.9 68.9 0 0 1 6.76 7.02c.37.45.75.94.77 1.51"/><path id="wl4xdI" d="M861.41 514.6c2.06 2.72 4.45 7.38 6.59 10.43"/><path id="wl4xdJ" d="M898.18 558.35c5.71-3.22 11.57-6.56 15.75-11.65a8.54 8.54 0 0 0 2-3.69c.26-1.39-.16-3-1.34-3.76-.94-.61-2.14-.59-3.24-.47-2.56.27-5.09.91-7.47 1.9a38.81 38.81 0 0 0 7.83-12.02c.55-1.34.91-3.15-.24-4.02-.4-.31-.93-.42-1.44-.48-6.3-.75-11.88 4-16.03 8.86a94.04 94.04 0 0 0 1.53-26.17c-.08-1.03-.34-2.28-1.32-2.6-.61-.21-1.28.05-1.86.34-4.9 2.47-8.37 7.24-10.42 12.38-2.05 5.14-2.82 10.7-3.55 16.18a63.18 63.18 0 0 0-6.97-15.98c-.17-.27-.36-.56-.65-.69-.58-.24-1.18.24-1.59.72-4 4.66-4.54 11.45-3.58 17.55a43.74 43.74 0 0 0 8.09 19.25c1.61 2.17 3.94 6.1 8.97 6.1z"/><path id="wl4xdK" d="M889.64 517.44c.04.01-.14.6-.47 1.64-.33 1.05-.8 2.57-1.36 4.45-1.1 3.77-2.46 9.03-3.49 14.94a137.2 137.2 0 0 0-1.98 19.92c-.04 1.1-.07 1.71-.11 1.71-.04 0-.08-.6-.1-1.71-.02-1.1-.02-2.7.05-4.68a114.28 114.28 0 0 1 6.8-34.7 10 10 0 0 1 .66-1.57"/><path id="wl4xdL" d="M900.94 534.51c.03.03-.23.4-.73 1.06l-2.14 2.75c-1.88 2.26-4.23 5.58-6.92 9.18-2.5 3.72-4.86 7.04-6.38 9.58l-1.9 2.94a5.93 5.93 0 0 1-.75 1.03c-.03-.02.18-.42.58-1.15l1.76-3.03c1.43-2.59 3.75-5.96 6.27-9.7 2.69-3.6 5.1-6.9 7.05-9.1l2.28-2.64c.54-.62.85-.94.88-.92"/><path id="wl4xdM" d="M907.4 544.94c.02 0 .1.08.12.3.04.2-.05.54-.28.85-.22.33-.59.62-1 .95l-1.41 1.1c-.27.2-.54.43-.83.64l-.96.6c-.66.41-1.36.88-2.12 1.31a94.19 94.19 0 0 1-5.04 2.6c-3.62 1.74-6.91 3.27-9.16 4.6-.59.3-1.09.63-1.52.92l-1.14.73c-.62.4-.98.6-1 .57-.02-.04.3-.3.89-.75l1.08-.8c.41-.32.9-.67 1.48-1 2.24-1.45 5.52-3.04 9.14-4.78 1.81-.85 3.5-1.73 5.04-2.54.76-.42 1.45-.86 2.12-1.25l.96-.57c.3-.2.57-.41.84-.6l1.44-1.03c.43-.3.8-.56 1.02-.83.51-.56.28-1.02.34-1.02"/><path id="wl4xdN" d="M882.11 559.15c0 .02-.1-.02-.26-.1-.18-.07-.37-.28-.59-.57-.4-.62-.72-1.58-1.2-2.73a545.97 545.97 0 0 1-8-21.13 4.31 4.31 0 0 1-.3-1.06c.04-.01.21.34.5.98l1.13 2.74a542.8 542.8 0 0 1 7.01 18.32c.44 1.17.73 2.17 1.04 2.76.33.6.7.73.67.8"/></defs><g><g transform="translate(-655 -209)"><g><g><use fill="#207dd6" xlink:href="#wl4xa"/></g><g><use fill="#207dd6" xlink:href="#wl4xb"/></g><g><use fill="#207dd6" xlink:href="#wl4xc"/></g><g><use fill="#207dd6" xlink:href="#wl4xd"/></g><g><use fill="#207dd6" xlink:href="#wl4xe"/></g><g><use fill="#edf3fe" xlink:href="#wl4xf"/></g></g><g><g><use fill="#a0cfef" xlink:href="#wl4xg"/></g><g><use fill="#a0cfef" xlink:href="#wl4xh"/></g><g><use fill="#a0cfef" xlink:href="#wl4xi"/></g><g><use fill="#a0cfef" xlink:href="#wl4xj"/></g><g><use fill="#1661a5" xlink:href="#wl4xk"/></g><g><use fill="#4dabea" xlink:href="#wl4xl"/></g><g><use fill="#4dabea" xlink:href="#wl4xm"/></g><g><use fill="#4dabea" xlink:href="#wl4xn"/></g><g><use fill="#4dabea" xlink:href="#wl4xo"/></g></g><g><g><use fill="#ffc910" xlink:href="#wl4xp"/></g><g><use fill="#f0b237" xlink:href="#wl4xq"/></g><g><use fill="#ffc910" xlink:href="#wl4xr"/></g><g><use fill="#ffab01" xlink:href="#wl4xs"/></g><g><use fill="#f99b0f" xlink:href="#wl4xt"/></g><g><use fill="#f99b0f" xlink:href="#wl4xu"/></g><g><use fill="#ffca10" xlink:href="#wl4xv"/></g><g><use fill="#f0b237" xlink:href="#wl4xw"/></g><g><use fill="#ffc910" xlink:href="#wl4xx"/></g><g><use fill="#f0b237" xlink:href="#wl4xy"/></g><g><use fill="#ffc910" xlink:href="#wl4xz"/></g><g><use fill="#f0b237" xlink:href="#wl4xA"/></g><g><use fill="#f99b0f" xlink:href="#wl4xB"/></g><g><use fill="#f99b0f" xlink:href="#wl4xC"/></g><g><use fill="#ffca10" xlink:href="#wl4xD"/></g><g><use fill="#f0b237" xlink:href="#wl4xE"/></g><g><use fill="#ffc910" xlink:href="#wl4xF"/></g><g><use fill="#f0b237" xlink:href="#wl4xG"/></g><g><use fill="#ffc910" xlink:href="#wl4xH"/></g><g><use fill="#ffab01" xlink:href="#wl4xI"/></g><g><use fill="#f99b0f" xlink:href="#wl4xJ"/></g><g><use fill="#f99b0f" xlink:href="#wl4xK"/></g><g><use fill="#ffca10" xlink:href="#wl4xL"/></g><g><use fill="#f0b237" xlink:href="#wl4xM"/></g><g><use fill="#ffc910" xlink:href="#wl4xN"/></g><g><use fill="#f0b237" xlink:href="#wl4xO"/></g><g><use fill="#ffc910" xlink:href="#wl4xP"/></g><g><use fill="#ffab01" xlink:href="#wl4xQ"/></g><g><use fill="#f99b0f" xlink:href="#wl4xR"/></g><g><use fill="#f99b0f" xlink:href="#wl4xS"/></g><g><use fill="#ffca10" xlink:href="#wl4xT"/></g><g><use fill="#f0b237" xlink:href="#wl4xU"/></g><g><use fill="#ffc910" xlink:href="#wl4xV"/></g><g><use fill="#f0b237" xlink:href="#wl4xW"/></g><g><use fill="#ffc910" xlink:href="#wl4xX"/></g><g><use fill="#ffab01" xlink:href="#wl4xY"/></g><g><use fill="#f99b0f" xlink:href="#wl4xZ"/></g><g><use fill="#f99b0f" xlink:href="#wl4xaa"/></g><g><use fill="#ffca10" xlink:href="#wl4xab"/></g><g><use fill="#f0b237" xlink:href="#wl4xac"/></g><g><use fill="#ffc910" xlink:href="#wl4xad"/></g><g><use fill="#f0b237" xlink:href="#wl4xae"/></g><g><use fill="#ffc910" xlink:href="#wl4xaf"/></g><g><use fill="#f0b237" xlink:href="#wl4xag"/></g><g><use fill="#f99b0f" xlink:href="#wl4xah"/></g><g><use fill="#f99b0f" xlink:href="#wl4xai"/></g><g><use fill="#ffca10" xlink:href="#wl4xaj"/></g><g><use fill="#f0b237" xlink:href="#wl4xak"/></g><g><use fill="#ffc910" xlink:href="#wl4xal"/></g><g><use fill="#f0b237" xlink:href="#wl4xam"/></g><g><use fill="#ffc910" xlink:href="#wl4xan"/></g><g><use fill="#ffab01" xlink:href="#wl4xao"/></g><g><use fill="#f99b0f" xlink:href="#wl4xap"/></g><g><use fill="#f99b0f" xlink:href="#wl4xaq"/></g><g><use fill="#ffca10" xlink:href="#wl4xar"/></g><g><use fill="#f0b237" xlink:href="#wl4xas"/></g><g><use fill="#ffc910" xlink:href="#wl4xat"/></g><g><use fill="#f0b237" xlink:href="#wl4xau"/></g><g><use fill="#ffc910" xlink:href="#wl4xav"/></g><g><use fill="#ffab01" xlink:href="#wl4xaw"/></g><g><use fill="#f99b0f" xlink:href="#wl4xax"/></g><g><use fill="#f99b0f" xlink:href="#wl4xay"/></g><g><use fill="#ffca10" xlink:href="#wl4xaz"/></g><g><use fill="#f0b237" xlink:href="#wl4xaA"/></g><g><use fill="#ffc910" xlink:href="#wl4xaB"/></g><g><use fill="#f0b237" xlink:href="#wl4xaC"/></g><g><use fill="#ffc910" xlink:href="#wl4xaD"/></g><g><use fill="#ffab01" xlink:href="#wl4xaE"/></g><g><use fill="#f99b0f" xlink:href="#wl4xaF"/></g><g><use fill="#f99b0f" xlink:href="#wl4xaG"/></g><g><use fill="#ffca10" xlink:href="#wl4xaH"/></g><g><use fill="#f0b237" xlink:href="#wl4xaI"/></g><g><use fill="#ffc910" xlink:href="#wl4xaJ"/></g><g><use fill="#f0b237" xlink:href="#wl4xaK"/></g><g><use fill="#ffc910" xlink:href="#wl4xaL"/></g><g><use fill="#ffab01" xlink:href="#wl4xaM"/></g><g><use fill="#f99b0f" xlink:href="#wl4xaN"/></g><g><use fill="#f99b0f" xlink:href="#wl4xaO"/></g><g><use fill="#ffca10" xlink:href="#wl4xaP"/></g><g><use fill="#f0b237" xlink:href="#wl4xaQ"/></g><g><use fill="#ffc910" xlink:href="#wl4xaR"/></g><g><use fill="#f0b237" xlink:href="#wl4xaS"/></g><g><use fill="#ffc910" xlink:href="#wl4xaT"/></g><g><use fill="#ffab01" xlink:href="#wl4xaU"/></g><g><use fill="#f99b0f" xlink:href="#wl4xaV"/></g><g><use fill="#f99b0f" xlink:href="#wl4xaW"/></g><g><use fill="#ffca10" xlink:href="#wl4xaX"/></g><g><use fill="#f0b237" xlink:href="#wl4xaY"/></g><g><use fill="#ffc910" xlink:href="#wl4xaZ"/></g><g><use fill="#f0b237" xlink:href="#wl4xba"/></g><g><use fill="#ffc910" xlink:href="#wl4xbb"/></g><g><use fill="#ffab01" xlink:href="#wl4xbc"/></g><g><use fill="#f99b0f" xlink:href="#wl4xbd"/></g><g><use fill="#f99b0f" xlink:href="#wl4xbe"/></g><g><use fill="#ffca10" xlink:href="#wl4xbf"/></g><g><use fill="#f0b237" xlink:href="#wl4xbg"/></g><g><use fill="#ffc910" xlink:href="#wl4xbh"/></g><g><use fill="#f0b237" xlink:href="#wl4xbi"/></g><g><use fill="#ffc910" xlink:href="#wl4xbj"/></g><g><use fill="#ffab01" xlink:href="#wl4xbk"/></g><g><use fill="#f99b0f" xlink:href="#wl4xbl"/></g><g><use fill="#f99b0f" xlink:href="#wl4xbm"/></g><g><use fill="#ffca10" xlink:href="#wl4xbn"/></g><g><use fill="#f0b237" xlink:href="#wl4xbo"/></g><g><use fill="#ffc910" xlink:href="#wl4xbp"/></g><g><use fill="#f0b237" xlink:href="#wl4xbq"/></g><g><use fill="#ffc910" xlink:href="#wl4xbr"/></g><g><use fill="#ffab01" xlink:href="#wl4xbs"/></g><g><use fill="#f99b0f" xlink:href="#wl4xbt"/></g><g><use fill="#f99b0f" xlink:href="#wl4xbu"/></g><g><use fill="#ffca10" xlink:href="#wl4xbv"/></g><g><use fill="#f0b237" xlink:href="#wl4xbw"/></g><g><use fill="#ffc910" xlink:href="#wl4xbx"/></g><g><use fill="#f0b237" xlink:href="#wl4xby"/></g><g><use fill="#ffc910" xlink:href="#wl4xbz"/></g><g><use fill="#f0b237" xlink:href="#wl4xbA"/></g><g><use fill="#f99b0f" xlink:href="#wl4xbB"/></g><g><use fill="#f99b0f" xlink:href="#wl4xbC"/></g><g><use fill="#ffca10" xlink:href="#wl4xbD"/></g><g><use fill="#f0b237" xlink:href="#wl4xbE"/></g><g><use fill="#ffb9a3" xlink:href="#wl4xbF"/></g><g><use fill="#153a64" xlink:href="#wl4xbG"/></g><g><use fill="#1d416b" xlink:href="#wl4xbH"/></g><g><use fill="#153a64" xlink:href="#wl4xbI"/></g><g><use fill="#282723" xlink:href="#wl4xbJ"/></g><g><use fill="#ffb9a3" xlink:href="#wl4xbK"/></g><g><use fill="#fcb74b" xlink:href="#wl4xbL"/></g><g><use fill="#f9c97d" xlink:href="#wl4xbM"/></g><g><use fill="#fff" xlink:href="#wl4xbN"/></g><g><use fill="#fcb74b" xlink:href="#wl4xbO"/></g><g><use fill="#ffd89b" xlink:href="#wl4xbP"/></g><g><use fill="#1d416b" xlink:href="#wl4xbQ"/></g><g><use fill="#1d416b" xlink:href="#wl4xbR"/></g><g><use fill="#ffb9a3" xlink:href="#wl4xbS"/></g><g><use fill="#ffb9a3" xlink:href="#wl4xbT"/></g><g><use fill="#ffd89b" xlink:href="#wl4xbU"/></g><g><use fill="#f9c97d" xlink:href="#wl4xbV"/></g><g><use fill="#163f59" xlink:href="#wl4xbW"/></g><g><use fill="#163f59" xlink:href="#wl4xbX"/></g><g><use fill="#ffb9a3" xlink:href="#wl4xbY"/></g><g><use fill="#ffb9a3" xlink:href="#wl4xbZ"/></g><g><use fill="#ffb9a3" xlink:href="#wl4xca"/></g><g><use fill="#163f59" xlink:href="#wl4xcb"/></g><g><use fill="#163f59" xlink:href="#wl4xcc"/></g><g><use fill="#ffb9a3" xlink:href="#wl4xcd"/></g><g><use fill="#163f59" xlink:href="#wl4xce"/></g><g><use fill="#163f59" xlink:href="#wl4xcf"/></g><g><use fill="#163f59" xlink:href="#wl4xcg"/></g><g><use fill="#163f59" xlink:href="#wl4xch"/></g><g><use fill="#ffb9a3" xlink:href="#wl4xci"/></g><g><use fill="#282723" xlink:href="#wl4xcj"/></g><g><use fill="#fcb74b" xlink:href="#wl4xck"/></g><g><use fill="#ffb9a3" xlink:href="#wl4xcl"/></g><g><use fill="#fcc979" xlink:href="#wl4xcm"/></g><g><use fill="#fcb74b" xlink:href="#wl4xcn"/></g><g><use fill="#ffd89b" xlink:href="#wl4xco"/></g><g><use fill="#153a64" xlink:href="#wl4xcp"/></g><g><use fill="#ffb9a3" xlink:href="#wl4xcq"/></g><g><use fill="#163f59" xlink:href="#wl4xcr"/></g><g><use fill="#ffd89b" xlink:href="#wl4xcs"/></g><g><use fill="#ffb9a3" xlink:href="#wl4xct"/></g><g><use fill="#ffb9a3" xlink:href="#wl4xcu"/></g><g><use fill="#013e6a" xlink:href="#wl4xcv"/></g><g><use fill="#013e6a" xlink:href="#wl4xcw"/></g><g><use fill="#ffb9a3" xlink:href="#wl4xcx"/></g><g><use fill="#ffb9a3" xlink:href="#wl4xcy"/></g><g><use fill="#ffb9a3" xlink:href="#wl4xcz"/></g><g><use fill="#262524" xlink:href="#wl4xcA"/></g><g><use fill="#153a64" xlink:href="#wl4xcB"/></g><g><use fill="#081832" xlink:href="#wl4xcC"/></g><g><use fill="#ffb9a3" xlink:href="#wl4xcD"/></g><g><use fill="#ffd89b" xlink:href="#wl4xcE"/></g><g><use fill="#f9c97d" xlink:href="#wl4xcF"/></g><g><use fill="#ffb9a3" xlink:href="#wl4xcG"/></g><g><use fill="#ffb9a3" xlink:href="#wl4xcH"/></g><g><use fill="#ffb9a3" xlink:href="#wl4xcI"/></g><g><use fill="#ffb9a3" xlink:href="#wl4xcJ"/></g><g><use fill="#ffb9a3" xlink:href="#wl4xcK"/></g><g><use fill="#ffb9a3" xlink:href="#wl4xcL"/></g><g><use fill="#1d416b" xlink:href="#wl4xcM"/></g><g><use fill="#1d416b" xlink:href="#wl4xcN"/></g><g><use fill="#ffb9a3" xlink:href="#wl4xcO"/></g><g><use fill="#ffb9a3" xlink:href="#wl4xcP"/></g><g><use fill="#ffb9a3" xlink:href="#wl4xcQ"/></g><g><use fill="#ffb9a3" xlink:href="#wl4xcR"/></g><g><use fill="#ffb9a3" xlink:href="#wl4xcS"/></g><g><use fill="#d1dbea" xlink:href="#wl4xcT"/></g><g><use fill="#d1dbea" xlink:href="#wl4xcU"/></g><g><use fill="#ffb9a3" xlink:href="#wl4xcV"/></g><g><use fill="#161711" xlink:href="#wl4xcW"/></g><g><use fill="#153a64" xlink:href="#wl4xcX"/></g><g><use fill="#153a64" xlink:href="#wl4xcY"/></g><g><use fill="#ffb9a3" xlink:href="#wl4xcZ"/></g><g><use fill="#ffb9a3" xlink:href="#wl4xda"/></g><g><use fill="#161711" xlink:href="#wl4xdb"/></g><g><use fill="#1d416b" xlink:href="#wl4xdc"/></g><g><use fill="#013e6a" xlink:href="#wl4xdd"/></g><g><use fill="#013e6a" xlink:href="#wl4xde"/></g><g><use fill="#013e6a" xlink:href="#wl4xdf"/></g><g><use fill="#ffb9a3" xlink:href="#wl4xdg"/></g><g><use fill="#1d416b" xlink:href="#wl4xdh"/></g><g><use fill="#b0bfde" xlink:href="#wl4xdi"/></g><g><use fill="#b0bfde" xlink:href="#wl4xdj"/></g><g><use fill="#1d416b" xlink:href="#wl4xdk"/></g><g><use fill="#b0bfde" xlink:href="#wl4xdl"/></g><g><use fill="#d1dbea" xlink:href="#wl4xdm"/></g><g><use fill="#d1dbea" xlink:href="#wl4xdn"/></g><g><use fill="#ffb9a3" xlink:href="#wl4xdo"/></g><g><use fill="#d1dbea" xlink:href="#wl4xdp"/></g><g><use fill="#ffc910" xlink:href="#wl4xdq"/></g><g><use fill="#ffc910" xlink:href="#wl4xdr"/></g><g><use fill="#ffab01" xlink:href="#wl4xds"/></g><g><use fill="#ffab01" xlink:href="#wl4xdt"/></g><g><use fill="#f0b237" xlink:href="#wl4xdu"/></g><g><use fill="#ffc910" xlink:href="#wl4xdv"/></g><g><use fill="#f0b237" xlink:href="#wl4xdw"/></g><g><use fill="#ee8f01" xlink:href="#wl4xdx"/></g><g><use fill="#f99b0f" xlink:href="#wl4xdy"/></g><g><use fill="#f99b0f" xlink:href="#wl4xdz"/></g><g><use fill="#ffca10" xlink:href="#wl4xdA"/></g><g><use fill="#f0b237" xlink:href="#wl4xdB"/></g></g><g><g><use fill="#4e8eff" xlink:href="#wl4xdC"/></g><g><use fill="#4e8eff" xlink:href="#wl4xdD"/></g><g><use fill="#4e8eff" xlink:href="#wl4xdE"/></g></g><g><g><use fill="#a0cfef" xlink:href="#wl4xdF"/></g><g><use fill="#a0cfef" xlink:href="#wl4xdG"/></g><g><use fill="#a0cfef" xlink:href="#wl4xdH"/></g><g><use fill="#a0cfef" xlink:href="#wl4xdI"/></g><g><use fill="#1661a5" xlink:href="#wl4xdJ"/></g><g><use fill="#222742" xlink:href="#wl4xdK"/></g><g><use fill="#222742" xlink:href="#wl4xdL"/></g><g><use fill="#222742" xlink:href="#wl4xdM"/></g><g><use fill="#222742" xlink:href="#wl4xdN"/></g></g></g></g></svg>