<?xml version="1.0" encoding="UTF-8"?>
<svg width="296px" height="296px" viewBox="0 0 296 296" version="1.1" xmlns="http://www.w3.org/2000/svg" xmlns:xlink="http://www.w3.org/1999/xlink">
    <!-- Generator: Sketch 51.2 (57519) - http://www.bohemiancoding.com/sketch -->
    <title>how it work</title>
    <desc>Created with Sketch.</desc>
    <defs></defs>
    <g id="Page-1" stroke="none" stroke-width="1" fill="none" fill-rule="evenodd">
        <g id="Desktop-HD" transform="translate(-155.000000, -119.000000)">
            <g id="how-it-work" transform="translate(155.000000, 119.000000)">
                <g id="Group-2">
                    <circle id="Oval-4" fill="#D7E5FF" fill-rule="nonzero" cx="148" cy="148" r="148"></circle>
                    <path d="M4.99103385,109.747037 L152.318905,150.424595 L73.7273275,19.9578856 C95.5576652,7.26752741 120.930122,0 148,0 C229.738143,0 296,66.261857 296,148 C296,229.738143 229.738143,296 148,296 C66.261857,296 0,229.738143 0,148 C0,134.771929 1.73543,121.949189 4.99103385,109.747037 Z" id="Combined-Shape" fill="#3468FE" fill-rule="nonzero"></path>
                    <path d="M132.695312,172.413086 C134.997407,172.413086 136.818027,172.941564 138.157227,173.998535 C139.496426,175.055507 140.166016,176.469392 140.166016,178.240234 C140.166016,180.730481 138.67189,182.711581 135.683594,184.183594 C137.587249,185.135421 138.940263,186.137039 139.742676,187.188477 C140.545089,188.239914 140.946289,189.413079 140.946289,190.708008 C140.946289,192.711273 140.210294,194.316075 138.738281,195.522461 C137.266269,196.728847 135.274101,197.332031 132.761719,197.332031 C130.127591,197.332031 128.085619,196.767584 126.635742,195.638672 C125.185865,194.50976 124.460938,192.910492 124.460938,190.84082 C124.460938,189.490553 124.840003,188.275884 125.598145,187.196777 C126.356286,186.11767 127.598624,185.157556 129.325195,184.316406 C127.842115,183.430985 126.785159,182.495773 126.154297,181.510742 C125.523434,180.525711 125.208008,179.418951 125.208008,178.19043 C125.208008,176.430655 125.899733,175.027837 127.283203,173.981934 C128.666674,172.93603 130.470692,172.413086 132.695312,172.413086 Z M128.196289,190.708008 C128.196289,191.859055 128.600256,192.752764 129.408203,193.38916 C130.21615,194.025557 131.311842,194.34375 132.695312,194.34375 C134.123054,194.34375 135.232581,194.014489 136.023926,193.355957 C136.815271,192.697425 137.210938,191.803717 137.210938,190.674805 C137.210938,189.778316 136.845707,188.959314 136.115234,188.217773 C135.384762,187.476233 134.278002,186.790042 132.794922,186.15918 L132.313477,185.943359 C130.852532,186.58529 129.80111,187.290849 129.15918,188.060059 C128.517249,188.829268 128.196289,189.711909 128.196289,190.708008 Z M132.662109,175.417969 C131.555333,175.417969 130.664391,175.691892 129.989258,176.239746 C129.314124,176.7876 128.976562,177.531896 128.976562,178.472656 C128.976562,179.04818 129.098306,179.562823 129.341797,180.016602 C129.585288,180.47038 129.939451,180.882648 130.404297,181.253418 C130.869143,181.624188 131.654942,182.069659 132.761719,182.589844 C134.08985,182.003252 135.027829,181.386234 135.575684,180.73877 C136.123538,180.091305 136.397461,179.335942 136.397461,178.472656 C136.397461,177.531896 136.057132,176.7876 135.376465,176.239746 C134.695797,175.691892 133.791021,175.417969 132.662109,175.417969 Z M160.353516,184.864258 C160.353516,189.081076 159.675625,192.213206 158.319824,194.260742 C156.964023,196.308278 154.891616,197.332031 152.102539,197.332031 C149.402005,197.332031 147.354499,196.275076 145.959961,194.161133 C144.565423,192.04719 143.868164,188.948263 143.868164,184.864258 C143.868164,180.581033 144.546054,177.424001 145.901855,175.393066 C147.257657,173.362132 149.32453,172.34668 152.102539,172.34668 C154.814141,172.34668 156.867181,173.409169 158.261719,175.53418 C159.656257,177.65919 160.353516,180.769185 160.353516,184.864258 Z M147.819336,184.864258 C147.819336,188.173519 148.159665,190.536451 148.840332,191.953125 C149.520999,193.369799 150.608391,194.078125 152.102539,194.078125 C153.596687,194.078125 154.689612,193.358731 155.381348,191.919922 C156.073083,190.481113 156.418945,188.129248 156.418945,184.864258 C156.418945,181.610335 156.073083,179.255704 155.381348,177.800293 C154.689612,176.344882 153.596687,175.617188 152.102539,175.617188 C150.608391,175.617188 149.520999,176.331048 148.840332,177.758789 C148.159665,179.186531 147.819336,181.554996 147.819336,184.864258 Z M166.446289,180 C166.446289,181.649097 166.606769,182.8776 166.927734,183.685547 C167.2487,184.493494 167.77441,184.897461 168.504883,184.897461 C169.965828,184.897461 170.696289,183.26499 170.696289,180 C170.696289,176.73501 169.965828,175.102539 168.504883,175.102539 C167.77441,175.102539 167.2487,175.506506 166.927734,176.314453 C166.606769,177.1224 166.446289,178.350903 166.446289,180 Z M173.916992,179.966797 C173.916992,182.512383 173.460454,184.42431 172.547363,185.702637 C171.634273,186.980963 170.286793,187.620117 168.504883,187.620117 C166.822583,187.620117 165.519373,186.958828 164.595215,185.63623 C163.671057,184.313633 163.208984,182.42384 163.208984,179.966797 C163.208984,174.908829 164.974266,172.379883 168.504883,172.379883 C170.242522,172.379883 171.578934,173.035638 172.51416,174.347168 C173.449386,175.658698 173.916992,177.531889 173.916992,179.966797 Z M182.250977,189.695312 C182.250977,191.344409 182.414224,192.578446 182.740723,193.397461 C183.067222,194.216475 183.595699,194.625977 184.326172,194.625977 C185.776049,194.625977 186.500977,192.982438 186.500977,189.695312 C186.500977,186.452458 185.776049,184.831055 184.326172,184.831055 C183.595699,184.831055 183.067222,185.229488 182.740723,186.026367 C182.414224,186.823246 182.250977,188.046216 182.250977,189.695312 Z M189.72168,189.695312 C189.72168,192.240898 189.262374,194.150059 188.34375,195.422852 C187.425126,196.695644 186.085946,197.332031 184.326172,197.332031 C182.643872,197.332031 181.337895,196.676276 180.408203,195.364746 C179.478511,194.053216 179.013672,192.163424 179.013672,189.695312 C179.013672,184.637345 180.784488,182.108398 184.326172,182.108398 C186.030607,182.108398 187.355952,182.761387 188.302246,184.067383 C189.24854,185.373379 189.72168,187.249337 189.72168,189.695312 Z M184.791016,172.728516 L171.327148,197 L168.106445,197 L181.570312,172.728516 L184.791016,172.728516 Z" id="80%" fill="#FFFFFF"></path>
                    <path d="M75.7661133,221.146484 C74.6039981,221.146484 73.7043489,220.788822 73.0671387,220.073486 C72.4299285,219.358151 72.1113281,218.346198 72.1113281,217.037598 C72.1113281,215.694818 72.4348112,214.65723 73.0817871,213.924805 C73.728763,213.192379 74.6503846,212.826172 75.8466797,212.826172 C76.2324238,212.826172 76.6181621,212.867675 77.0039062,212.950684 C77.3896504,213.033692 77.6923817,213.131347 77.9121094,213.243652 L77.5385742,214.276367 C77.2700182,214.168945 76.9770524,214.079834 76.659668,214.009033 C76.3422836,213.938232 76.0615247,213.902832 75.8173828,213.902832 C74.1865153,213.902832 73.3710938,214.942861 73.3710938,217.022949 C73.3710938,218.009282 73.5700664,218.766111 73.9680176,219.293457 C74.3659688,219.820803 74.9555625,220.084473 75.7368164,220.084473 C76.4057651,220.084473 77.0917934,219.940431 77.7949219,219.652344 L77.7949219,220.729004 C77.2578098,221.007326 76.581547,221.146484 75.7661133,221.146484 Z M79.2817383,216.187988 C79.2817383,214.430167 79.5405248,213.059331 80.0581055,212.075439 C80.5756862,211.091548 81.3959905,210.47754 82.519043,210.233398 C83.9155343,209.935545 85.1459908,209.693849 86.2104492,209.508301 L86.4375,210.577637 C84.7431556,210.860841 83.5322302,211.085448 82.8046875,211.251465 C82.0966761,211.412598 81.5656756,211.793454 81.2116699,212.394043 C80.8576642,212.994632 80.6635744,213.812495 80.6293945,214.847656 L80.7172852,214.847656 C81.020021,214.437498 81.4106421,214.115236 81.8891602,213.880859 C82.3676782,213.646483 82.8681615,213.529297 83.390625,213.529297 C84.3769581,213.529297 85.1459933,213.849118 85.6977539,214.48877 C86.2495145,215.128421 86.5253906,216.014643 86.5253906,217.147461 C86.5253906,218.40235 86.2055696,219.382565 85.565918,220.088135 C84.9262663,220.793705 84.035162,221.146484 82.8925781,221.146484 C81.7646428,221.146484 80.8808626,220.71436 80.2412109,219.850098 C79.6015593,218.985836 79.2817383,217.765145 79.2817383,216.187988 Z M83.0024414,220.128418 C84.4917067,220.128418 85.2363281,219.17872 85.2363281,217.279297 C85.2363281,215.467764 84.5600654,214.562012 83.2075195,214.562012 C82.8364239,214.562012 82.4787615,214.638915 82.1345215,214.792725 C81.7902815,214.946534 81.4753432,215.150389 81.1896973,215.404297 C80.9040513,215.658204 80.6831062,215.919432 80.5268555,216.187988 C80.5268555,217.472174 80.7294902,218.449948 81.1347656,219.121338 C81.5400411,219.792728 82.1625935,220.128418 83.0024414,220.128418 Z M95.5708008,216.979004 C95.5708008,218.287604 95.2412142,219.309322 94.5820312,220.044189 C93.9228483,220.779056 93.0122128,221.146484 91.8500977,221.146484 C91.1323206,221.146484 90.49512,220.978029 89.9384766,220.641113 C89.3818332,220.304198 88.95215,219.820804 88.6494141,219.190918 C88.3466782,218.561032 88.1953125,217.823735 88.1953125,216.979004 C88.1953125,215.670404 88.5224577,214.651127 89.1767578,213.921143 C89.831058,213.191158 90.739252,212.826172 91.9013672,212.826172 C93.0244197,212.826172 93.9167447,213.199703 94.5783691,213.946777 C95.2399935,214.693851 95.5708008,215.704583 95.5708008,216.979004 Z M89.4550781,216.979004 C89.4550781,218.0044 89.6601542,218.785642 90.0703125,219.322754 C90.4804708,219.859866 91.0834921,220.128418 91.8793945,220.128418 C92.6752969,220.128418 93.279539,219.861087 93.6921387,219.326416 C94.1047384,218.791745 94.3110352,218.009282 94.3110352,216.979004 C94.3110352,215.958491 94.1047384,215.183352 93.6921387,214.653564 C93.279539,214.123777 92.6704142,213.858887 91.8647461,213.858887 C91.0688437,213.858887 90.4682637,214.120115 90.0629883,214.642578 C89.6577128,215.165042 89.4550781,215.943842 89.4550781,216.979004 Z M101.4375,221.146484 C100.915036,221.146484 100.437746,221.05005 100.005615,220.857178 C99.5734842,220.664306 99.210939,220.367678 98.9179688,219.967285 L98.8300781,219.967285 C98.8886722,220.436037 98.9179688,220.880369 98.9179688,221.300293 L98.9179688,224.603516 L97.7021484,224.603516 L97.7021484,212.972656 L98.690918,212.972656 L98.859375,214.071289 L98.9179688,214.071289 C99.2304703,213.631834 99.5942362,213.314454 100.009277,213.119141 C100.424318,212.923827 100.900388,212.826172 101.4375,212.826172 C102.501958,212.826172 103.323483,213.189938 103.9021,213.91748 C104.480716,214.645023 104.77002,215.665521 104.77002,216.979004 C104.77002,218.29737 104.475833,219.32153 103.887451,220.051514 C103.299069,220.781498 102.482427,221.146484 101.4375,221.146484 Z M101.261719,213.858887 C100.441402,213.858887 99.8481464,214.085935 99.4819336,214.540039 C99.1157208,214.994143 98.9277344,215.716792 98.9179688,216.708008 L98.9179688,216.979004 C98.9179688,218.106939 99.1059552,218.913816 99.4819336,219.399658 C99.857912,219.8855 100.460933,220.128418 101.291016,220.128418 C101.984378,220.128418 102.527586,219.847659 102.920654,219.286133 C103.313723,218.724607 103.510254,217.950689 103.510254,216.964355 C103.510254,215.963374 103.313723,215.195559 102.920654,214.660889 C102.527586,214.126218 101.974613,213.858887 101.261719,213.858887 Z M113.822754,216.979004 C113.822754,218.287604 113.493167,219.309322 112.833984,220.044189 C112.174801,220.779056 111.264166,221.146484 110.102051,221.146484 C109.384274,221.146484 108.747073,220.978029 108.19043,220.641113 C107.633786,220.304198 107.204103,219.820804 106.901367,219.190918 C106.598631,218.561032 106.447266,217.823735 106.447266,216.979004 C106.447266,215.670404 106.774411,214.651127 107.428711,213.921143 C108.083011,213.191158 108.991205,212.826172 110.15332,212.826172 C111.276373,212.826172 112.168698,213.199703 112.830322,213.946777 C113.491947,214.693851 113.822754,215.704583 113.822754,216.979004 Z M107.707031,216.979004 C107.707031,218.0044 107.912107,218.785642 108.322266,219.322754 C108.732424,219.859866 109.335445,220.128418 110.131348,220.128418 C110.92725,220.128418 111.531492,219.861087 111.944092,219.326416 C112.356692,218.791745 112.562988,218.009282 112.562988,216.979004 C112.562988,215.958491 112.356692,215.183352 111.944092,214.653564 C111.531492,214.123777 110.922367,213.858887 110.116699,213.858887 C109.320797,213.858887 108.720217,214.120115 108.314941,214.642578 C107.909666,215.165042 107.707031,215.943842 107.707031,216.979004 Z M122.465332,214.986816 C122.465332,215.50928 122.315187,215.906005 122.014893,216.177002 C121.714598,216.447999 121.29346,216.629882 120.751465,216.722656 L120.751465,216.788574 C121.435062,216.881348 121.934325,217.081541 122.249268,217.38916 C122.564211,217.696779 122.72168,218.121579 122.72168,218.663574 C122.72168,219.410648 122.447024,219.986814 121.897705,220.39209 C121.348386,220.797365 120.546392,221 119.491699,221 L115.954102,221 L115.954102,212.972656 L119.477051,212.972656 C121.469248,212.972656 122.465332,213.644036 122.465332,214.986816 Z M121.505859,218.583008 C121.505859,218.148435 121.341066,217.832276 121.011475,217.634521 C120.681883,217.436767 120.136234,217.337891 119.374512,217.337891 L117.169922,217.337891 L117.169922,219.981934 L119.403809,219.981934 C120.805183,219.981934 121.505859,219.51563 121.505859,218.583008 Z M121.278809,215.104004 C121.278809,214.713377 121.128664,214.43628 120.828369,214.272705 C120.528075,214.10913 120.072757,214.027344 119.462402,214.027344 L117.169922,214.027344 L117.169922,216.290527 L119.228027,216.290527 C119.979984,216.290527 120.509764,216.197755 120.817383,216.012207 C121.125002,215.826659 121.278809,215.523928 121.278809,215.104004 Z M134.894531,214.986816 C134.894531,215.50928 134.744386,215.906005 134.444092,216.177002 C134.143797,216.447999 133.722659,216.629882 133.180664,216.722656 L133.180664,216.788574 C133.864261,216.881348 134.363524,217.081541 134.678467,217.38916 C134.99341,217.696779 135.150879,218.121579 135.150879,218.663574 C135.150879,219.410648 134.876223,219.986814 134.326904,220.39209 C133.777585,220.797365 132.975591,221 131.920898,221 L128.383301,221 L128.383301,212.972656 L131.90625,212.972656 C133.898447,212.972656 134.894531,213.644036 134.894531,214.986816 Z M133.935059,218.583008 C133.935059,218.148435 133.770265,217.832276 133.440674,217.634521 C133.111082,217.436767 132.565433,217.337891 131.803711,217.337891 L129.599121,217.337891 L129.599121,219.981934 L131.833008,219.981934 C133.234382,219.981934 133.935059,219.51563 133.935059,218.583008 Z M133.708008,215.104004 C133.708008,214.713377 133.557863,214.43628 133.257568,214.272705 C132.957274,214.10913 132.501956,214.027344 131.891602,214.027344 L129.599121,214.027344 L129.599121,216.290527 L131.657227,216.290527 C132.409183,216.290527 132.938963,216.197755 133.246582,216.012207 C133.554201,215.826659 133.708008,215.523928 133.708008,215.104004 Z M143.844727,216.979004 C143.844727,218.287604 143.51514,219.309322 142.855957,220.044189 C142.196774,220.779056 141.286139,221.146484 140.124023,221.146484 C139.406246,221.146484 138.769046,220.978029 138.212402,220.641113 C137.655759,220.304198 137.226076,219.820804 136.92334,219.190918 C136.620604,218.561032 136.469238,217.823735 136.469238,216.979004 C136.469238,215.670404 136.796383,214.651127 137.450684,213.921143 C138.104984,213.191158 139.013178,212.826172 140.175293,212.826172 C141.298345,212.826172 142.190671,213.199703 142.852295,213.946777 C143.513919,214.693851 143.844727,215.704583 143.844727,216.979004 Z M137.729004,216.979004 C137.729004,218.0044 137.93408,218.785642 138.344238,219.322754 C138.754397,219.859866 139.357418,220.128418 140.15332,220.128418 C140.949223,220.128418 141.553465,219.861087 141.966064,219.326416 C142.378664,218.791745 142.584961,218.009282 142.584961,216.979004 C142.584961,215.958491 142.378664,215.183352 141.966064,214.653564 C141.553465,214.123777 140.94434,213.858887 140.138672,213.858887 C139.342769,213.858887 138.74219,214.120115 138.336914,214.642578 C137.931639,215.165042 137.729004,215.943842 137.729004,216.979004 Z M147.506836,216.305176 C149.025398,216.305176 149.784668,215.885258 149.784668,215.04541 C149.784668,214.254391 149.16944,213.858887 147.938965,213.858887 C147.562986,213.858887 147.221193,213.893066 146.913574,213.961426 C146.605955,214.029785 146.203127,214.166503 145.705078,214.371582 L145.272949,213.382812 C146.103031,213.011717 147.008784,212.826172 147.990234,212.826172 C148.913091,212.826172 149.640622,213.015379 150.172852,213.393799 C150.705081,213.772219 150.971191,214.288571 150.971191,214.942871 C150.971191,215.841313 150.470708,216.429686 149.469727,216.708008 L149.469727,216.766602 C150.084964,216.947267 150.534178,217.204832 150.817383,217.539307 C151.100587,217.873781 151.242188,218.292478 151.242188,218.79541 C151.242188,219.537601 150.943118,220.114988 150.344971,220.527588 C149.746823,220.940188 148.920415,221.146484 147.865723,221.146484 C146.70849,221.146484 145.814945,220.973146 145.185059,220.626465 L145.185059,219.513184 C146.078618,219.933108 146.981929,220.143066 147.89502,220.143066 C148.598148,220.143066 149.129149,220.022218 149.488037,219.780518 C149.846926,219.538817 150.026367,219.19092 150.026367,218.736816 C150.026367,217.804195 149.267097,217.337891 147.748535,217.337891 L146.635254,217.337891 L146.635254,216.305176 L147.506836,216.305176 Z M159.730957,214.986816 C159.730957,215.50928 159.580812,215.906005 159.280518,216.177002 C158.980223,216.447999 158.559085,216.629882 158.01709,216.722656 L158.01709,216.788574 C158.700687,216.881348 159.19995,217.081541 159.514893,217.38916 C159.829836,217.696779 159.987305,218.121579 159.987305,218.663574 C159.987305,219.410648 159.712649,219.986814 159.16333,220.39209 C158.614011,220.797365 157.812017,221 156.757324,221 L153.219727,221 L153.219727,212.972656 L156.742676,212.972656 C158.734873,212.972656 159.730957,213.644036 159.730957,214.986816 Z M158.771484,218.583008 C158.771484,218.148435 158.606691,217.832276 158.2771,217.634521 C157.947508,217.436767 157.401859,217.337891 156.640137,217.337891 L154.435547,217.337891 L154.435547,219.981934 L156.669434,219.981934 C158.070808,219.981934 158.771484,219.51563 158.771484,218.583008 Z M158.544434,215.104004 C158.544434,214.713377 158.394289,214.43628 158.093994,214.272705 C157.7937,214.10913 157.338382,214.027344 156.728027,214.027344 L154.435547,214.027344 L154.435547,216.290527 L156.493652,216.290527 C157.245609,216.290527 157.775389,216.197755 158.083008,216.012207 C158.390627,215.826659 158.544434,215.523928 158.544434,215.104004 Z M165.487793,221.146484 C164.965329,221.146484 164.488039,221.05005 164.055908,220.857178 C163.623777,220.664306 163.261232,220.367678 162.968262,219.967285 L162.880371,219.967285 C162.938965,220.436037 162.968262,220.880369 162.968262,221.300293 L162.968262,224.603516 L161.752441,224.603516 L161.752441,212.972656 L162.741211,212.972656 L162.909668,214.071289 L162.968262,214.071289 C163.280763,213.631834 163.644529,213.314454 164.05957,213.119141 C164.474611,212.923827 164.950681,212.826172 165.487793,212.826172 C166.552251,212.826172 167.373776,213.189938 167.952393,213.91748 C168.531009,214.645023 168.820312,215.665521 168.820312,216.979004 C168.820312,218.29737 168.526126,219.32153 167.937744,220.051514 C167.349362,220.781498 166.53272,221.146484 165.487793,221.146484 Z M165.312012,213.858887 C164.491695,213.858887 163.898439,214.085935 163.532227,214.540039 C163.166014,214.994143 162.978027,215.716792 162.968262,216.708008 L162.968262,216.979004 C162.968262,218.106939 163.156248,218.913816 163.532227,219.399658 C163.908205,219.8855 164.511226,220.128418 165.341309,220.128418 C166.034671,220.128418 166.577879,219.847659 166.970947,219.286133 C167.364016,218.724607 167.560547,217.950689 167.560547,216.964355 C167.560547,215.963374 167.364016,215.195559 166.970947,214.660889 C166.577879,214.126218 166.024906,213.858887 165.312012,213.858887 Z M175.880859,221 L175.63916,219.857422 L175.580566,219.857422 C175.180174,220.360354 174.781008,220.700927 174.383057,220.87915 C173.985105,221.057374 173.488284,221.146484 172.892578,221.146484 C172.096676,221.146484 171.472903,220.941408 171.02124,220.53125 C170.569578,220.121092 170.34375,219.537601 170.34375,218.780762 C170.34375,217.15966 171.640124,216.310059 174.23291,216.231934 L175.595215,216.187988 L175.595215,215.689941 C175.595215,215.060055 175.459718,214.594972 175.188721,214.294678 C174.917723,213.994383 174.484378,213.844238 173.888672,213.844238 C173.219723,213.844238 172.462895,214.049314 171.618164,214.459473 L171.244629,213.529297 C171.640139,213.314452 172.073484,213.145997 172.544678,213.023926 C173.015871,212.901855 173.488279,212.84082 173.961914,212.84082 C174.91895,212.84082 175.628172,213.053221 176.0896,213.478027 C176.551028,213.902834 176.781738,214.58398 176.781738,215.521484 L176.781738,221 L175.880859,221 Z M173.134277,220.143066 C173.891117,220.143066 174.485594,219.935549 174.917725,219.520508 C175.349856,219.105467 175.565918,218.524418 175.565918,217.777344 L175.565918,217.052246 L174.350098,217.103516 C173.383296,217.137695 172.686281,217.28784 172.259033,217.553955 C171.831785,217.82007 171.618164,218.233884 171.618164,218.79541 C171.618164,219.234865 171.751219,219.569335 172.017334,219.798828 C172.283449,220.028321 172.655759,220.143066 173.134277,220.143066 Z M185.270508,219.952637 L188.830078,219.952637 L188.830078,212.987305 L190.045898,212.987305 L190.045898,219.952637 L191.195801,219.952637 L191.195801,223.76123 L189.965332,223.76123 L189.965332,221 L179.286621,221 L179.286621,212.987305 L180.502441,212.987305 L180.502441,219.952637 L184.054688,219.952637 L184.054688,212.987305 L185.270508,212.987305 L185.270508,219.952637 Z M197.677734,221 L197.436035,219.857422 L197.377441,219.857422 C196.977049,220.360354 196.577883,220.700927 196.179932,220.87915 C195.78198,221.057374 195.285159,221.146484 194.689453,221.146484 C193.893551,221.146484 193.269778,220.941408 192.818115,220.53125 C192.366453,220.121092 192.140625,219.537601 192.140625,218.780762 C192.140625,217.15966 193.436999,216.310059 196.029785,216.231934 L197.39209,216.187988 L197.39209,215.689941 C197.39209,215.060055 197.256593,214.594972 196.985596,214.294678 C196.714598,213.994383 196.281253,213.844238 195.685547,213.844238 C195.016598,213.844238 194.25977,214.049314 193.415039,214.459473 L193.041504,213.529297 C193.437014,213.314452 193.870359,213.145997 194.341553,213.023926 C194.812746,212.901855 195.285154,212.84082 195.758789,212.84082 C196.715825,212.84082 197.425047,213.053221 197.886475,213.478027 C198.347903,213.902834 198.578613,214.58398 198.578613,215.521484 L198.578613,221 L197.677734,221 Z M194.931152,220.143066 C195.687992,220.143066 196.282469,219.935549 196.7146,219.520508 C197.146731,219.105467 197.362793,218.524418 197.362793,217.777344 L197.362793,217.052246 L196.146973,217.103516 C195.180171,217.137695 194.483156,217.28784 194.055908,217.553955 C193.62866,217.82007 193.415039,218.233884 193.415039,218.79541 C193.415039,219.234865 193.548094,219.569335 193.814209,219.798828 C194.080324,220.028321 194.452634,220.143066 194.931152,220.143066 Z M211.417969,216.979004 C211.417969,218.292487 211.104251,219.315426 210.476807,220.047852 C209.849362,220.780277 208.988775,221.146484 207.89502,221.146484 C206.854975,221.146484 206.029788,220.82056 205.419434,220.168701 C204.809079,219.516842 204.469727,218.587897 204.401367,217.381836 L202.299316,217.381836 L202.299316,221 L201.083496,221 L201.083496,212.972656 L202.299316,212.972656 L202.299316,216.334473 L204.416016,216.334473 C204.513672,215.221186 204.870114,214.358157 205.485352,213.745361 C206.100589,213.132565 206.913569,212.826172 207.924316,212.826172 C208.998541,212.826172 209.849362,213.198483 210.476807,213.943115 C211.104251,214.687748 211.417969,215.699701 211.417969,216.979004 Z M205.661133,216.979004 C205.661133,218.009282 205.839354,218.791745 206.195801,219.326416 C206.552248,219.861087 207.123531,220.128418 207.909668,220.128418 C208.681156,220.128418 209.248777,219.868411 209.612549,219.348389 C209.97632,218.828367 210.158203,218.03858 210.158203,216.979004 C210.158203,215.953608 209.979982,215.177249 209.623535,214.649902 C209.267088,214.122556 208.695805,213.858887 207.909668,213.858887 C207.123531,213.858887 206.552248,214.122556 206.195801,214.649902 C205.839354,215.177249 205.661133,215.953608 205.661133,216.979004 Z M218.961914,214.012695 L216.354492,214.012695 L216.354492,221 L215.138672,221 L215.138672,214.012695 L212.560547,214.012695 L212.560547,212.972656 L218.961914,212.972656 L218.961914,214.012695 Z M223.759277,221.146484 C222.597162,221.146484 221.697513,220.788822 221.060303,220.073486 C220.423093,219.358151 220.104492,218.346198 220.104492,217.037598 C220.104492,215.694818 220.427975,214.65723 221.074951,213.924805 C221.721927,213.192379 222.643549,212.826172 223.839844,212.826172 C224.225588,212.826172 224.611326,212.867675 224.99707,212.950684 C225.382814,213.033692 225.685546,213.131347 225.905273,213.243652 L225.531738,214.276367 C225.263182,214.168945 224.970216,214.079834 224.652832,214.009033 C224.335448,213.938232 224.054689,213.902832 223.810547,213.902832 C222.179679,213.902832 221.364258,214.942861 221.364258,217.022949 C221.364258,218.009282 221.56323,218.766111 221.961182,219.293457 C222.359133,219.820803 222.948727,220.084473 223.72998,220.084473 C224.398929,220.084473 225.084957,219.940431 225.788086,219.652344 L225.788086,220.729004 C225.250974,221.007326 224.574711,221.146484 223.759277,221.146484 Z M228.095215,221 L226.674316,221 L228.981445,217.608887 C228.361325,217.472167 227.886476,217.207277 227.556885,216.814209 C227.227293,216.421141 227.0625,215.926761 227.0625,215.331055 C227.0625,214.598629 227.30908,214.022463 227.802246,213.602539 C228.295413,213.182615 228.983882,212.972656 229.867676,212.972656 L233.441895,212.972656 L233.441895,221 L232.226074,221 L232.226074,217.791992 L230.197266,217.791992 L228.095215,221 Z M228.249023,215.345703 C228.249023,216.273442 228.922845,216.737305 230.270508,216.737305 L232.226074,216.737305 L232.226074,214.027344 L230.021484,214.027344 C228.839838,214.027344 228.249023,214.466792 228.249023,215.345703 Z M111.570557,232.972656 L111.570557,238.062988 L111.519287,239.395996 L111.497314,239.813477 L115.840576,232.972656 L117.356689,232.972656 L117.356689,241 L116.221436,241 L116.221436,236.092773 L116.243408,235.125977 L116.280029,234.173828 L111.944092,241 L110.427979,241 L110.427979,232.972656 L111.570557,232.972656 Z M121.150635,232.972656 L121.150635,236.334473 L125.647705,236.334473 L125.647705,232.972656 L126.863525,232.972656 L126.863525,241 L125.647705,241 L125.647705,237.381836 L121.150635,237.381836 L121.150635,241 L119.934814,241 L119.934814,232.972656 L121.150635,232.972656 Z M135.952881,234.986816 C135.952881,235.50928 135.802736,235.906005 135.502441,236.177002 C135.202147,236.447999 134.781009,236.629882 134.239014,236.722656 L134.239014,236.788574 C134.922611,236.881348 135.421873,237.081541 135.736816,237.38916 C136.051759,237.696779 136.209229,238.121579 136.209229,238.663574 C136.209229,239.410648 135.934573,239.986814 135.385254,240.39209 C134.835935,240.797365 134.033941,241 132.979248,241 L129.44165,241 L129.44165,232.972656 L132.9646,232.972656 C134.956797,232.972656 135.952881,233.644036 135.952881,234.986816 Z M134.993408,238.583008 C134.993408,238.148435 134.828615,237.832276 134.499023,237.634521 C134.169432,237.436767 133.623783,237.337891 132.862061,237.337891 L130.657471,237.337891 L130.657471,239.981934 L132.891357,239.981934 C134.292732,239.981934 134.993408,239.51563 134.993408,238.583008 Z M134.766357,235.104004 C134.766357,234.713377 134.616212,234.43628 134.315918,234.272705 C134.015623,234.10913 133.560306,234.027344 132.949951,234.027344 L130.657471,234.027344 L130.657471,236.290527 L132.715576,236.290527 C133.467533,236.290527 133.997313,236.197755 134.304932,236.012207 C134.61255,235.826659 134.766357,235.523928 134.766357,235.104004 Z M141.365479,241.146484 C140.178949,241.146484 139.242679,240.78516 138.556641,240.0625 C137.870602,239.33984 137.527588,238.336432 137.527588,237.052246 C137.527588,235.758294 137.846188,234.730473 138.483398,233.96875 C139.120609,233.207027 139.976313,232.826172 141.050537,232.826172 C142.056402,232.826172 142.852292,233.156979 143.438232,233.818604 C144.024173,234.480228 144.317139,235.353022 144.317139,236.437012 L144.317139,237.206055 L138.787354,237.206055 C138.811768,238.148442 139.049802,238.863767 139.501465,239.352051 C139.953127,239.840334 140.589107,240.084473 141.409424,240.084473 C142.273686,240.084473 143.12817,239.90381 143.9729,239.54248 L143.9729,240.626465 C143.543211,240.812013 143.136721,240.945068 142.753418,241.025635 C142.370115,241.106202 141.907473,241.146484 141.365479,241.146484 Z M141.035889,233.844238 C140.391354,233.844238 139.877443,234.054197 139.494141,234.474121 C139.110838,234.894045 138.88501,235.475094 138.81665,236.217285 L143.013428,236.217285 C143.013428,235.45068 142.842531,234.863527 142.500732,234.455811 C142.158934,234.048094 141.670657,233.844238 141.035889,233.844238 Z M149.5979,241.146484 C148.435785,241.146484 147.536136,240.788822 146.898926,240.073486 C146.261716,239.358151 145.943115,238.346198 145.943115,237.037598 C145.943115,235.694818 146.266598,234.65723 146.913574,233.924805 C147.56055,233.192379 148.482172,232.826172 149.678467,232.826172 C150.064211,232.826172 150.449949,232.867675 150.835693,232.950684 C151.221437,233.033692 151.524169,233.131347 151.743896,233.243652 L151.370361,234.276367 C151.101805,234.168945 150.808839,234.079834 150.491455,234.009033 C150.174071,233.938232 149.893312,233.902832 149.64917,233.902832 C148.018302,233.902832 147.202881,234.942861 147.202881,237.022949 C147.202881,238.009282 147.401853,238.766111 147.799805,239.293457 C148.197756,239.820803 148.78735,240.084473 149.568604,240.084473 C150.237552,240.084473 150.92358,239.940431 151.626709,239.652344 L151.626709,240.729004 C151.089597,241.007326 150.413334,241.146484 149.5979,241.146484 Z M158.943604,234.012695 L156.336182,234.012695 L156.336182,241 L155.120361,241 L155.120361,234.012695 L152.542236,234.012695 L152.542236,232.972656 L158.943604,232.972656 L158.943604,234.012695 Z M167.46167,236.979004 C167.46167,238.287604 167.132083,239.309322 166.4729,240.044189 C165.813717,240.779056 164.903082,241.146484 163.740967,241.146484 C163.02319,241.146484 162.385989,240.978029 161.829346,240.641113 C161.272702,240.304198 160.843019,239.820804 160.540283,239.190918 C160.237547,238.561032 160.086182,237.823735 160.086182,236.979004 C160.086182,235.670404 160.413327,234.651127 161.067627,233.921143 C161.721927,233.191158 162.630121,232.826172 163.792236,232.826172 C164.915289,232.826172 165.807614,233.199703 166.469238,233.946777 C167.130863,234.693851 167.46167,235.704583 167.46167,236.979004 Z M161.345947,236.979004 C161.345947,238.0044 161.551023,238.785642 161.961182,239.322754 C162.37134,239.859866 162.974361,240.128418 163.770264,240.128418 C164.566166,240.128418 165.170408,239.861087 165.583008,239.326416 C165.995608,238.791745 166.201904,238.009282 166.201904,236.979004 C166.201904,235.958491 165.995608,235.183352 165.583008,234.653564 C165.170408,234.123777 164.561283,233.858887 163.755615,233.858887 C162.959713,233.858887 162.359133,234.120115 161.953857,234.642578 C161.548582,235.165042 161.345947,235.943842 161.345947,236.979004 Z M173.328369,241.146484 C172.805906,241.146484 172.328615,241.05005 171.896484,240.857178 C171.464353,240.664306 171.101808,240.367678 170.808838,239.967285 L170.720947,239.967285 C170.779541,240.436037 170.808838,240.880369 170.808838,241.300293 L170.808838,244.603516 L169.593018,244.603516 L169.593018,232.972656 L170.581787,232.972656 L170.750244,234.071289 L170.808838,234.071289 C171.121339,233.631834 171.485105,233.314454 171.900146,233.119141 C172.315188,232.923827 172.791257,232.826172 173.328369,232.826172 C174.392828,232.826172 175.214353,233.189938 175.792969,233.91748 C176.371585,234.645023 176.660889,235.665521 176.660889,236.979004 C176.660889,238.29737 176.366702,239.32153 175.77832,240.051514 C175.189938,240.781498 174.373296,241.146484 173.328369,241.146484 Z M173.152588,233.858887 C172.332271,233.858887 171.739016,234.085935 171.372803,234.540039 C171.00659,234.994143 170.818604,235.716792 170.808838,236.708008 L170.808838,236.979004 C170.808838,238.106939 170.996824,238.913816 171.372803,239.399658 C171.748781,239.8855 172.351802,240.128418 173.181885,240.128418 C173.875248,240.128418 174.418455,239.847659 174.811523,239.286133 C175.204592,238.724607 175.401123,237.950689 175.401123,236.964355 C175.401123,235.963374 175.204592,235.195559 174.811523,234.660889 C174.418455,234.126218 173.865482,233.858887 173.152588,233.858887 Z M183.721436,241 L183.479736,239.857422 L183.421143,239.857422 C183.02075,240.360354 182.621584,240.700927 182.223633,240.87915 C181.825682,241.057374 181.32886,241.146484 180.733154,241.146484 C179.937252,241.146484 179.313479,240.941408 178.861816,240.53125 C178.410154,240.121092 178.184326,239.537601 178.184326,238.780762 C178.184326,237.15966 179.4807,236.310059 182.073486,236.231934 L183.435791,236.187988 L183.435791,235.689941 C183.435791,235.060055 183.300294,234.594972 183.029297,234.294678 C182.758299,233.994383 182.324954,233.844238 181.729248,233.844238 C181.060299,233.844238 180.303471,234.049314 179.45874,234.459473 L179.085205,233.529297 C179.480715,233.314452 179.91406,233.145997 180.385254,233.023926 C180.856448,232.901855 181.328855,232.84082 181.80249,232.84082 C182.759526,232.84082 183.468748,233.053221 183.930176,233.478027 C184.391604,233.902834 184.622314,234.58398 184.622314,235.521484 L184.622314,241 L183.721436,241 Z M180.974854,240.143066 C181.731693,240.143066 182.32617,239.935549 182.758301,239.520508 C183.190432,239.105467 183.406494,238.524418 183.406494,237.777344 L183.406494,237.052246 L182.190674,237.103516 C181.223872,237.137695 180.526858,237.28784 180.099609,237.553955 C179.672361,237.82007 179.45874,238.233884 179.45874,238.79541 C179.45874,239.234865 179.591796,239.569335 179.85791,239.798828 C180.124025,240.028321 180.496335,240.143066 180.974854,240.143066 Z M191.294678,239.828125 L191.521729,239.146973 L191.83667,238.282715 L194.011963,232.987305 L195.557373,232.987305 L195.557373,241 L194.480713,241 L194.480713,234.371582 L194.334229,234.796387 L193.909424,235.916992 L191.83667,241 L190.818604,241 L188.74585,235.902344 C188.487059,235.248044 188.308838,234.737795 188.211182,234.371582 L188.211182,241 L187.127197,241 L187.127197,232.987305 L188.614014,232.987305 L190.716064,238.077637 C190.926026,238.614749 191.118896,239.198239 191.294678,239.828125 Z" id="сборов-возвращаются" fill="#FFFFFF"></path>
                </g>
            </g>
        </g>
    </g>
</svg>