<?xml version="1.0" encoding="UTF-8"?>
<svg width="288px" height="146px" viewBox="0 0 288 146" version="1.1" xmlns="http://www.w3.org/2000/svg" xmlns:xlink="http://www.w3.org/1999/xlink">
    <!-- Generator: Sketch 51.2 (57519) - http://www.bohemiancoding.com/sketch -->
    <title>Group 11</title>
    <desc>Created with Sketch.</desc>
    <defs></defs>
    <g id="Page-1" stroke="none" stroke-width="1" fill="none" fill-rule="evenodd">
        <g id="tokeny" transform="translate(-848.000000, -1822.000000)">
            <g id="1" transform="translate(133.000000, 1733.000000)">
                <g id="Group-11" transform="translate(715.000000, 89.000000)">
                    <path d="M55.737793,109 L33.8603516,109 L33.8603516,49.1025391 L34.0727539,39.2612305 L34.4267578,28.4995117 C30.7922995,32.13397 28.2670969,34.5175725 26.8510742,35.6503906 L14.956543,45.2084961 L4.40722656,32.0395508 L37.7543945,5.48925781 L55.737793,5.48925781 L55.737793,109 Z M156.204102,57.2446289 C156.204102,75.3225188 153.242298,88.7037326 147.318604,97.3886719 C141.394909,106.073611 132.273499,110.416016 119.954102,110.416016 C108.01231,110.416016 99.0089008,105.932011 92.9436035,96.9638672 C86.8783063,87.9957234 83.8457031,74.7561097 83.8457031,57.2446289 C83.8457031,38.977936 86.7957062,25.5141221 92.6958008,16.8527832 C98.5958954,8.19144432 107.681905,3.86083984 119.954102,3.86083984 C131.895893,3.86083984 140.922902,8.39204453 147.0354,17.4545898 C153.147898,26.5171352 156.204102,39.7803489 156.204102,57.2446289 Z M105.581543,57.2446289 C105.581543,69.9416325 106.678944,79.0394419 108.873779,84.5383301 C111.068614,90.0372182 114.762018,92.7866211 119.954102,92.7866211 C125.051783,92.7866211 128.733387,90.0018182 130.999023,84.4321289 C133.26466,78.8624396 134.397461,69.8000302 134.397461,57.2446289 C134.397461,44.5476253 133.25286,35.4262159 130.963623,29.880127 C128.674386,24.334038 125.004583,21.5610352 119.954102,21.5610352 C114.809219,21.5610352 111.127615,24.334038 108.90918,29.880127 C106.690744,35.4262159 105.581543,44.5476253 105.581543,57.2446289 Z M183.674805,36.5 C183.674805,42.4944961 184.205805,46.9667007 185.267822,49.916748 C186.329839,52.8667953 188.040841,54.3417969 190.400879,54.3417969 C194.932152,54.3417969 197.197754,48.3945907 197.197754,36.5 C197.197754,24.6998108 194.932152,18.7998047 190.400879,18.7998047 C188.040841,18.7998047 186.329839,20.2512062 185.267822,23.1540527 C184.205805,26.0568993 183.674805,30.5055039 183.674805,36.5 Z M215.039551,36.3583984 C215.039551,47.2145725 212.939149,55.3683809 208.738281,60.8200684 C204.537414,66.2717558 198.377808,68.9975586 190.259277,68.9975586 C182.471152,68.9975586 176.453146,66.2009557 172.205078,60.607666 C167.95701,55.0143763 165.833008,46.931368 165.833008,36.3583984 C165.833008,14.7876526 173.975016,4.00244141 190.259277,4.00244141 C198.236205,4.00244141 204.360412,6.7990443 208.63208,12.392334 C212.903749,17.9856237 215.039551,25.9742319 215.039551,36.3583984 Z M263.750488,5.48925781 L206.331055,109 L189.338867,109 L246.758301,5.48925781 L263.750488,5.48925781 Z M256.174805,77.8476562 C256.174805,83.8421524 256.705805,88.314357 257.767822,91.2644043 C258.829839,94.2144516 260.540841,95.6894531 262.900879,95.6894531 C267.432152,95.6894531 269.697754,89.742247 269.697754,77.8476562 C269.697754,66.047467 267.432152,60.1474609 262.900879,60.1474609 C260.540841,60.1474609 258.829839,61.5988624 257.767822,64.501709 C256.705805,67.4045555 256.174805,71.8531601 256.174805,77.8476562 Z M287.539551,77.7060547 C287.539551,88.515028 285.439149,96.6452364 281.238281,102.096924 C277.037414,107.548611 270.877808,110.274414 262.759277,110.274414 C254.971152,110.274414 248.953146,107.477811 244.705078,101.884521 C240.45701,96.2912318 238.333008,88.2318235 238.333008,77.7060547 C238.333008,56.1353088 246.475016,45.3500977 262.759277,45.3500977 C270.736205,45.3500977 276.860412,48.1467005 281.13208,53.7399902 C285.403749,59.3332799 287.539551,67.3218882 287.539551,77.7060547 Z" id="10%" fill="#E08D0B"></path>
                    <path d="M51.737793,106 L29.8603516,106 L29.8603516,46.1025391 L30.0727539,36.2612305 L30.4267578,25.4995117 C26.7922995,29.13397 24.2670969,31.5175725 22.8510742,32.6503906 L10.956543,42.2084961 L0.407226562,29.0395508 L33.7543945,2.48925781 L51.737793,2.48925781 L51.737793,106 Z M152.204102,54.2446289 C152.204102,72.3225188 149.242298,85.7037326 143.318604,94.3886719 C137.394909,103.073611 128.273499,107.416016 115.954102,107.416016 C104.01231,107.416016 95.0089008,102.932011 88.9436035,93.9638672 C82.8783063,84.9957234 79.8457031,71.7561097 79.8457031,54.2446289 C79.8457031,35.977936 82.7957062,22.5141221 88.6958008,13.8527832 C94.5958954,5.19144432 103.681905,0.860839844 115.954102,0.860839844 C127.895893,0.860839844 136.922902,5.39204453 143.0354,14.4545898 C149.147898,23.5171352 152.204102,36.7803489 152.204102,54.2446289 Z M101.581543,54.2446289 C101.581543,66.9416325 102.678944,76.0394419 104.873779,81.5383301 C107.068614,87.0372182 110.762018,89.7866211 115.954102,89.7866211 C121.051783,89.7866211 124.733387,87.0018182 126.999023,81.4321289 C129.26466,75.8624396 130.397461,66.8000302 130.397461,54.2446289 C130.397461,41.5476253 129.25286,32.4262159 126.963623,26.880127 C124.674386,21.334038 121.004583,18.5610352 115.954102,18.5610352 C110.809219,18.5610352 107.127615,21.334038 104.90918,26.880127 C102.690744,32.4262159 101.581543,41.5476253 101.581543,54.2446289 Z M179.674805,33.5 C179.674805,39.4944961 180.205805,43.9667007 181.267822,46.916748 C182.329839,49.8667953 184.040841,51.3417969 186.400879,51.3417969 C190.932152,51.3417969 193.197754,45.3945907 193.197754,33.5 C193.197754,21.6998108 190.932152,15.7998047 186.400879,15.7998047 C184.040841,15.7998047 182.329839,17.2512062 181.267822,20.1540527 C180.205805,23.0568993 179.674805,27.5055039 179.674805,33.5 Z M211.039551,33.3583984 C211.039551,44.2145725 208.939149,52.3683809 204.738281,57.8200684 C200.537414,63.2717558 194.377808,65.9975586 186.259277,65.9975586 C178.471152,65.9975586 172.453146,63.2009557 168.205078,57.607666 C163.95701,52.0143763 161.833008,43.931368 161.833008,33.3583984 C161.833008,11.7876526 169.975016,1.00244141 186.259277,1.00244141 C194.236205,1.00244141 200.360412,3.7990443 204.63208,9.39233398 C208.903749,14.9856237 211.039551,22.9742319 211.039551,33.3583984 Z M259.750488,2.48925781 L202.331055,106 L185.338867,106 L242.758301,2.48925781 L259.750488,2.48925781 Z M252.174805,74.8476562 C252.174805,80.8421524 252.705805,85.314357 253.767822,88.2644043 C254.829839,91.2144516 256.540841,92.6894531 258.900879,92.6894531 C263.432152,92.6894531 265.697754,86.742247 265.697754,74.8476562 C265.697754,63.047467 263.432152,57.1474609 258.900879,57.1474609 C256.540841,57.1474609 254.829839,58.5988624 253.767822,61.501709 C252.705805,64.4045555 252.174805,68.8531601 252.174805,74.8476562 Z M283.539551,74.7060547 C283.539551,85.515028 281.439149,93.6452364 277.238281,99.0969238 C273.037414,104.548611 266.877808,107.274414 258.759277,107.274414 C250.971152,107.274414 244.953146,104.477811 240.705078,98.8845215 C236.45701,93.2912318 234.333008,85.2318235 234.333008,74.7060547 C234.333008,53.1353088 242.475016,42.3500977 258.759277,42.3500977 C266.736205,42.3500977 272.860412,45.1467005 277.13208,50.7399902 C281.403749,56.3332799 283.539551,64.3218882 283.539551,74.7060547 Z" id="10%" fill="#FCB74B"></path>
                    <path d="M57.6611328,134.678711 L58.9306641,134.678711 C60.1748109,134.678711 61.093096,134.471356 61.6855469,134.056641 C62.2779978,133.641925 62.5742188,132.990239 62.5742188,132.101562 C62.5742188,131.22135 62.2716502,130.595054 61.6665039,130.222656 C61.0613577,129.850259 60.1240298,129.664062 58.8544922,129.664062 L57.6611328,129.664062 L57.6611328,134.678711 Z M57.6611328,137.87793 L57.6611328,145 L53.7255859,145 L53.7255859,126.439453 L59.1337891,126.439453 C61.6559371,126.439453 63.5221294,126.898596 64.7324219,127.816895 C65.9427144,128.735193 66.5478516,130.129548 66.5478516,132 C66.5478516,133.091802 66.2473988,134.062984 65.6464844,134.913574 C65.0455699,135.764164 64.1949925,136.430662 63.0947266,136.913086 C65.8877093,141.085633 67.7073525,143.781244 68.5537109,145 L64.1865234,145 L59.7558594,137.87793 L57.6611328,137.87793 Z M76.4628906,133.294922 C75.641923,133.294922 74.9987002,133.555173 74.5332031,134.075684 C74.067706,134.596194 73.8011071,135.334631 73.7333984,136.291016 L79.1669922,136.291016 C79.150065,135.334631 78.900393,134.596194 78.4179688,134.075684 C77.9355445,133.555173 77.2838583,133.294922 76.4628906,133.294922 Z M77.0087891,145.253906 C74.7236214,145.253906 72.937832,144.623379 71.6513672,143.362305 C70.3649024,142.101231 69.7216797,140.315441 69.7216797,138.004883 C69.7216797,135.626616 70.3162375,133.78793 71.5053711,132.48877 C72.6945046,131.189609 74.3385312,130.540039 76.4375,130.540039 C78.4433694,130.540039 80.0048772,131.111322 81.1220703,132.253906 C82.2392634,133.39649 82.7978516,134.974925 82.7978516,136.989258 L82.7978516,138.868164 L73.6445312,138.868164 C73.6868492,139.96843 74.0126923,140.827471 74.6220703,141.445312 C75.2314484,142.063154 76.0862575,142.37207 77.1865234,142.37207 C78.0413454,142.37207 78.8496056,142.283204 79.6113281,142.105469 C80.3730507,141.927733 81.1686156,141.644208 81.9980469,141.254883 L81.9980469,144.250977 C81.3209602,144.58952 80.5973346,144.841308 79.8271484,145.006348 C79.0569623,145.171388 78.1175186,145.253906 77.0087891,145.253906 Z M93.7919922,133.713867 L90.4404297,133.713867 L90.4404297,145 L86.5683594,145 L86.5683594,133.713867 L84.4355469,133.713867 L84.4355469,131.847656 L86.5683594,130.806641 L86.5683594,129.765625 C86.5683594,128.14908 86.9661419,126.968428 87.7617188,126.223633 C88.5572956,125.478837 89.8310459,125.106445 91.5830078,125.106445 C92.9202541,125.106445 94.1093698,125.305337 95.1503906,125.703125 L94.1601562,128.546875 C93.3815065,128.301431 92.6621127,128.178711 92.0019531,128.178711 C91.4518202,128.178711 91.0540377,128.341632 90.8085938,128.66748 C90.5631498,128.993328 90.4404297,129.410154 90.4404297,129.917969 L90.4404297,130.806641 L93.7919922,130.806641 L93.7919922,133.713867 Z M101.891602,133.294922 C101.070634,133.294922 100.427411,133.555173 99.9619141,134.075684 C99.4964169,134.596194 99.229818,135.334631 99.1621094,136.291016 L104.595703,136.291016 C104.578776,135.334631 104.329104,134.596194 103.84668,134.075684 C103.364255,133.555173 102.712569,133.294922 101.891602,133.294922 Z M102.4375,145.253906 C100.152332,145.253906 98.3665429,144.623379 97.0800781,143.362305 C95.7936134,142.101231 95.1503906,140.315441 95.1503906,138.004883 C95.1503906,135.626616 95.7449485,133.78793 96.934082,132.48877 C98.1232156,131.189609 99.7672421,130.540039 101.866211,130.540039 C103.87208,130.540039 105.433588,131.111322 106.550781,132.253906 C107.667974,133.39649 108.226562,134.974925 108.226562,136.989258 L108.226562,138.868164 L99.0732422,138.868164 C99.1155601,139.96843 99.4414032,140.827471 100.050781,141.445312 C100.660159,142.063154 101.514968,142.37207 102.615234,142.37207 C103.470056,142.37207 104.278317,142.283204 105.040039,142.105469 C105.801762,141.927733 106.597327,141.644208 107.426758,141.254883 L107.426758,144.250977 C106.749671,144.58952 106.026046,144.841308 105.255859,145.006348 C104.485673,145.171388 103.54623,145.253906 102.4375,145.253906 Z M119.296875,130.540039 C119.821617,130.540039 120.257485,130.578125 120.604492,130.654297 L120.3125,134.285156 C119.999347,134.20052 119.618492,134.158203 119.169922,134.158203 C117.934239,134.158203 116.97152,134.475583 116.281738,135.110352 C115.591956,135.74512 115.24707,136.633783 115.24707,137.776367 L115.24707,145 L111.375,145 L111.375,130.806641 L114.307617,130.806641 L114.878906,133.193359 L115.069336,133.193359 C115.509442,132.397782 116.104,131.756676 116.853027,131.27002 C117.602055,130.783363 118.416662,130.540039 119.296875,130.540039 Z M131.103516,130.540039 C131.628258,130.540039 132.064126,130.578125 132.411133,130.654297 L132.119141,134.285156 C131.805988,134.20052 131.425132,134.158203 130.976562,134.158203 C129.740879,134.158203 128.778161,134.475583 128.088379,135.110352 C127.398597,135.74512 127.053711,136.633783 127.053711,137.776367 L127.053711,145 L123.181641,145 L123.181641,130.806641 L126.114258,130.806641 L126.685547,133.193359 L126.875977,133.193359 C127.316083,132.397782 127.910641,131.756676 128.659668,131.27002 C129.408695,130.783363 130.223303,130.540039 131.103516,130.540039 Z M144.001953,145 L143.25293,143.070312 L143.151367,143.070312 C142.499671,143.89128 141.828942,144.460448 141.13916,144.777832 C140.449378,145.095216 139.550136,145.253906 138.441406,145.253906 C137.078769,145.253906 136.006026,144.864587 135.223145,144.085938 C134.440263,143.307288 134.048828,142.198575 134.048828,140.759766 C134.048828,139.253248 134.575678,138.142419 135.629395,137.427246 C136.683111,136.712073 138.272125,136.316407 140.396484,136.240234 L142.859375,136.164062 L142.859375,135.541992 C142.859375,134.103183 142.123054,133.383789 140.650391,133.383789 C139.51627,133.383789 138.183276,133.726559 136.651367,134.412109 L135.369141,131.796875 C137.002612,130.942053 138.813792,130.514648 140.802734,130.514648 C142.707041,130.514648 144.166987,130.929358 145.182617,131.758789 C146.198247,132.58822 146.706055,133.849275 146.706055,135.541992 L146.706055,145 L144.001953,145 Z M142.859375,138.423828 L141.361328,138.474609 C140.235671,138.508464 139.397789,138.711587 138.847656,139.083984 C138.297523,139.456382 138.022461,140.023434 138.022461,140.785156 C138.022461,141.876959 138.648757,142.422852 139.901367,142.422852 C140.798507,142.422852 141.515785,142.164716 142.053223,141.648438 C142.59066,141.132159 142.859375,140.446619 142.859375,139.591797 L142.859375,138.423828 Z M154.564453,145 L150.692383,145 L150.692383,125.246094 L154.564453,125.246094 L154.564453,145 Z M173.277344,130.540039 C174.953133,130.540039 176.264969,131.193841 177.212891,132.501465 C178.160812,133.809089 178.634766,135.601226 178.634766,137.87793 C178.634766,140.222342 178.146001,142.037754 177.168457,143.324219 C176.190913,144.610684 174.860034,145.253906 173.175781,145.253906 C171.508455,145.253906 170.200851,144.648769 169.25293,143.438477 L168.986328,143.438477 L168.338867,145 L165.380859,145 L165.380859,125.246094 L169.25293,125.246094 L169.25293,129.841797 C169.25293,130.425784 169.202149,131.360996 169.100586,132.647461 L169.25293,132.647461 C170.158533,131.242506 171.499991,130.540039 173.277344,130.540039 Z M172.033203,133.637695 C171.076818,133.637695 170.378583,133.9318 169.938477,134.52002 C169.49837,135.108239 169.269857,136.07942 169.25293,137.433594 L169.25293,137.852539 C169.25293,139.375984 169.479327,140.46777 169.932129,141.12793 C170.384931,141.788089 171.102209,142.118164 172.083984,142.118164 C172.879561,142.118164 173.512205,141.75212 173.981934,141.02002 C174.451663,140.28792 174.686523,139.22364 174.686523,137.827148 C174.686523,136.430657 174.449547,135.383304 173.975586,134.685059 C173.501625,133.986813 172.854171,133.637695 172.033203,133.637695 Z M184.918945,137.87793 C184.918945,139.282885 185.149575,140.345048 185.61084,141.064453 C186.072105,141.783858 186.823237,142.143555 187.864258,142.143555 C188.896815,142.143555 189.639483,141.785974 190.092285,141.070801 C190.545087,140.355628 190.771484,139.291348 190.771484,137.87793 C190.771484,136.472975 190.542971,135.419274 190.085938,134.716797 C189.628904,134.014319 188.879888,133.663086 187.838867,133.663086 C186.80631,133.663086 186.061526,134.012204 185.604492,134.710449 C185.147459,135.408695 184.918945,136.464511 184.918945,137.87793 Z M194.732422,137.87793 C194.732422,140.188488 194.123053,141.995436 192.904297,143.298828 C191.685541,144.60222 189.988618,145.253906 187.813477,145.253906 C186.45084,145.253906 185.249029,144.955569 184.208008,144.358887 C183.166987,143.762204 182.36719,142.905279 181.808594,141.788086 C181.249997,140.670893 180.970703,139.36752 180.970703,137.87793 C180.970703,135.558908 181.57584,133.756191 182.786133,132.469727 C183.996425,131.183262 185.69758,130.540039 187.889648,130.540039 C189.252285,130.540039 190.454096,130.83626 191.495117,131.428711 C192.536138,132.021162 193.335935,132.871739 193.894531,133.980469 C194.453128,135.089198 194.732422,136.388339 194.732422,137.87793 Z M211.033203,145 L207.161133,145 L207.161133,136.709961 C207.161133,135.685867 206.979168,134.917809 206.615234,134.405762 C206.2513,133.893715 205.671553,133.637695 204.875977,133.637695 C203.792638,133.637695 203.009768,133.999508 202.527344,134.723145 C202.044919,135.446781 201.803711,136.646476 201.803711,138.322266 L201.803711,145 L197.931641,145 L197.931641,130.806641 L200.889648,130.806641 L201.410156,132.62207 L201.625977,132.62207 C202.057619,131.93652 202.652177,131.418133 203.409668,131.066895 C204.167159,130.715656 205.028315,130.540039 205.993164,130.540039 C207.643563,130.540039 208.896155,130.986486 209.750977,131.879395 C210.605799,132.772303 211.033203,134.060864 211.033203,135.745117 L211.033203,145 Z M225.074219,145 L224.553711,143.18457 L224.350586,143.18457 C223.93587,143.84473 223.34766,144.354653 222.585938,144.714355 C221.824215,145.074058 220.956711,145.253906 219.983398,145.253906 C218.316072,145.253906 217.059249,144.807459 216.212891,143.914551 C215.366532,143.021643 214.943359,141.737313 214.943359,140.061523 L214.943359,130.806641 L218.81543,130.806641 L218.81543,139.09668 C218.81543,140.120773 218.997394,140.888832 219.361328,141.400879 C219.725262,141.912926 220.305009,142.168945 221.100586,142.168945 C222.183925,142.168945 222.966794,141.807133 223.449219,141.083496 C223.931643,140.35986 224.172852,139.160165 224.172852,137.484375 L224.172852,130.806641 L228.044922,130.806641 L228.044922,145 L225.074219,145 Z M242.009766,140.785156 C242.009766,142.240893 241.504074,143.349606 240.492676,144.111328 C239.481277,144.873051 237.968435,145.253906 235.954102,145.253906 C234.921544,145.253906 234.041345,145.184083 233.313477,145.044434 C232.585608,144.904784 231.9043,144.699546 231.269531,144.428711 L231.269531,141.229492 C231.988936,141.568036 232.799312,141.851561 233.700684,142.080078 C234.602055,142.308595 235.395504,142.422852 236.081055,142.422852 C237.48601,142.422852 238.188477,142.016606 238.188477,141.204102 C238.188477,140.899413 238.095379,140.651856 237.90918,140.461426 C237.722981,140.270995 237.401369,140.055177 236.944336,139.813965 C236.487302,139.572753 235.877933,139.291343 235.116211,138.969727 C234.024409,138.512693 233.222496,138.08952 232.710449,137.700195 C232.198402,137.31087 231.82601,136.864423 231.593262,136.36084 C231.360513,135.857257 231.244141,135.237308 231.244141,134.500977 C231.244141,133.239903 231.732905,132.264489 232.710449,131.574707 C233.687993,130.884925 235.073884,130.540039 236.868164,130.540039 C238.577808,130.540039 240.240877,130.912431 241.857422,131.657227 L240.689453,134.450195 C239.978512,134.145506 239.314131,133.895834 238.696289,133.701172 C238.078447,133.506509 237.44792,133.40918 236.804688,133.40918 C235.662104,133.40918 235.09082,133.718096 235.09082,134.335938 C235.09082,134.682944 235.274901,134.983397 235.643066,135.237305 C236.011232,135.491212 236.817377,135.867836 238.061523,136.367188 C239.170253,136.815757 239.982745,137.234699 240.499023,137.624023 C241.015302,138.013348 241.396158,138.461912 241.641602,138.969727 C241.887045,139.477542 242.009766,140.082679 242.009766,140.785156 Z" id="Referral-bonus" fill="#173950"></path>
                </g>
            </g>
        </g>
    </g>
</svg>