<?xml version="1.0" encoding="UTF-8"?>
<svg width="455px" height="405px" viewBox="0 0 455 405" version="1.1" xmlns="http://www.w3.org/2000/svg" xmlns:xlink="http://www.w3.org/1999/xlink">
    <!-- Generator: Sketch 51.2 (57519) - http://www.bohemiancoding.com/sketch -->
    <title>start-pic</title>
    <desc>Created with Sketch.</desc>
    <defs>
        <linearGradient x1="50%" y1="100%" x2="50%" y2="3.061617e-15%" id="linearGradient-1">
            <stop stop-color="#FFFFFF" offset="0%"></stop>
            <stop stop-color="#D9E9FF" offset="100%"></stop>
        </linearGradient>
    </defs>
    <g id="Page-1" stroke="none" stroke-width="1" fill="none" fill-rule="evenodd">
        <g id="tokeny" transform="translate(-724.000000, -199.000000)">
            <g id="start-pic" transform="translate(724.000000, 199.000000)">
                <rect id="Rectangle-9" fill="url(#linearGradient-1)" fill-rule="nonzero" x="141" y="91" width="75" height="292"></rect>
                <rect id="Rectangle-9" fill="url(#linearGradient-1)" fill-rule="nonzero" x="63" y="241" width="75" height="120"></rect>
                <rect id="Rectangle-9" fill="url(#linearGradient-1)" fill-rule="nonzero" x="219" y="170" width="75" height="207"></rect>
                <rect id="Rectangle-5" fill="#92B9FF" fill-rule="nonzero" x="219" y="170" width="75" height="5"></rect>
                <rect id="Rectangle-5" fill="#92B9FF" fill-rule="nonzero" x="63" y="241" width="75" height="5"></rect>
                <rect id="Rectangle-9" fill="url(#linearGradient-1)" fill-rule="nonzero" x="297" y="203" width="75" height="174"></rect>
                <rect id="Rectangle-9" fill="url(#linearGradient-1)" fill-rule="nonzero" x="375" y="124" width="75" height="253"></rect>
                <rect id="Rectangle-5" fill="#92B9FF" fill-rule="nonzero" x="297" y="203" width="75" height="5"></rect>
                <rect id="Rectangle-5" fill="#92B9FF" fill-rule="nonzero" x="141" y="91" width="75" height="5"></rect>
                <rect id="Rectangle-5" fill="#92B9FF" fill-rule="nonzero" x="376" y="124" width="75" height="5"></rect>
                <ellipse id="Oval-3" fill="#207DD6" fill-rule="nonzero" cx="60.9284452" cy="367.974593" rx="29.5715548" ry="6.61077279"></ellipse>
                <ellipse id="Oval-3" fill="#207DD6" fill-rule="nonzero" cx="106.678445" cy="390.974593" rx="24.3215548" ry="6.61077279"></ellipse>
                <ellipse id="Oval-3" fill="#EDF3FE" fill-rule="nonzero" cx="174.5" cy="397.5" rx="24.5" ry="7.5"></ellipse>
                <ellipse id="Oval-3" fill="#EDF3FE" fill-rule="nonzero" cx="192.5" cy="379.5" rx="24.5" ry="7.5"></ellipse>
                <ellipse id="Oval-3" fill="#207DD6" fill-rule="nonzero" cx="144.678445" cy="379.974593" rx="24.3215548" ry="6.61077279"></ellipse>
                <path d="M101.500272,251.461475 L180.684096,101.334621 L257.628507,180.615341 L336.62703,213.50238 L414.533899,134.579254" id="Path-3" stroke="#FCB74B" stroke-width="2" stroke-dasharray="4,4" fill-rule="nonzero"></path>
                <circle id="Oval-6" fill="#FCB74B" fill-rule="nonzero" cx="101.5" cy="251.5" r="5.5"></circle>
                <circle id="Oval-6" fill="#FCB74B" fill-rule="nonzero" cx="180.5" cy="101.5" r="5.5"></circle>
                <circle id="Oval-6" fill="#FCB74B" fill-rule="nonzero" cx="257.5" cy="180.5" r="5.5"></circle>
                <circle id="Oval-6" fill="#FCB74B" fill-rule="nonzero" cx="336.5" cy="213.5" r="5.5"></circle>
                <circle id="Oval-6" fill="#FCB74B" fill-rule="nonzero" cx="414.5" cy="134.5" r="5.5"></circle>
                <g id="Group-Copy" transform="translate(34.000000, 300.000000)">
                    <g id="Group-3-Copy" transform="translate(3.978957, 51.103448)">
                        <path d="M0,7.86206897 L0,12.423561 C0,16.4176108 9.57525309,19.6551724 21.38659,19.6551724 C33.1988456,19.6551724 42.7737924,16.4176108 42.7737924,12.423561 L42.7737924,7.86206897 L0,7.86206897 Z" id="Fill-257" fill="#F0B237"></path>
                        <path d="M42.7737924,6.87945538 C42.7737924,10.6787178 33.1988456,13.7586207 21.38659,13.7586207 C9.57525309,13.7586207 0,10.6787178 0,6.87945538 C0,3.0799029 9.57525309,0 21.38659,0 C33.1988456,0 42.7737924,3.0799029 42.7737924,6.87945538 Z" id="Fill-258" fill="#FFCC65"></path>
                        <path d="M38.794835,6.87946306 C38.794835,10.1356925 31.0011452,12.7758621 21.3864368,12.7758621 C11.7726473,12.7758621 3.97895744,10.1356925 3.97895744,6.87946306 C3.97895744,3.62292816 11.7726473,0.982758621 21.3864368,0.982758621 C31.0011452,0.982758621 38.794835,3.62292816 38.794835,6.87946306 Z" id="Fill-259" fill="#F0B237"></path>
                    </g>
                    <g id="Group-3-Copy" transform="translate(0.000000, 41.275862)">
                        <path d="M0,7.86206897 L0,12.423561 C0,16.4176108 9.57525309,19.6551724 21.38659,19.6551724 C33.1988456,19.6551724 42.7737924,16.4176108 42.7737924,12.423561 L42.7737924,7.86206897 L0,7.86206897 Z" id="Fill-257" fill="#F0B237"></path>
                        <path d="M42.7737924,6.87945538 C42.7737924,10.6787178 33.1988456,13.7586207 21.38659,13.7586207 C9.57525309,13.7586207 0,10.6787178 0,6.87945538 C0,3.0799029 9.57525309,0 21.38659,0 C33.1988456,0 42.7737924,3.0799029 42.7737924,6.87945538 Z" id="Fill-258" fill="#FFCC65"></path>
                        <path d="M38.794835,6.87946306 C38.794835,10.1356925 31.0011452,12.7758621 21.3864368,12.7758621 C11.7726473,12.7758621 3.97895744,10.1356925 3.97895744,6.87946306 C3.97895744,3.62292816 11.7726473,0.982758621 21.3864368,0.982758621 C31.0011452,0.982758621 38.794835,3.62292816 38.794835,6.87946306 Z" id="Fill-259" fill="#F0B237"></path>
                    </g>
                    <g id="Group-3-Copy" transform="translate(2.984218, 29.482759)">
                        <path d="M0,7.86206897 L0,12.423561 C0,16.4176108 9.57525309,19.6551724 21.38659,19.6551724 C33.1988456,19.6551724 42.7737924,16.4176108 42.7737924,12.423561 L42.7737924,7.86206897 L0,7.86206897 Z" id="Fill-257" fill="#F0B237"></path>
                        <path d="M42.7737924,6.87945538 C42.7737924,10.6787178 33.1988456,13.7586207 21.38659,13.7586207 C9.57525309,13.7586207 0,10.6787178 0,6.87945538 C0,3.0799029 9.57525309,0 21.38659,0 C33.1988456,0 42.7737924,3.0799029 42.7737924,6.87945538 Z" id="Fill-258" fill="#FFCC65"></path>
                        <path d="M38.794835,6.87946306 C38.794835,10.1356925 31.0011452,12.7758621 21.3864368,12.7758621 C11.7726473,12.7758621 3.97895744,10.1356925 3.97895744,6.87946306 C3.97895744,3.62292816 11.7726473,0.982758621 21.3864368,0.982758621 C31.0011452,0.982758621 38.794835,3.62292816 38.794835,6.87946306 Z" id="Fill-259" fill="#F0B237"></path>
                    </g>
                    <g id="Group-3-Copy" transform="translate(7.957915, 21.620690)">
                        <path d="M0,7.86206897 L0,12.423561 C0,16.4176108 9.57525309,19.6551724 21.38659,19.6551724 C33.1988456,19.6551724 42.7737924,16.4176108 42.7737924,12.423561 L42.7737924,7.86206897 L0,7.86206897 Z" id="Fill-257" fill="#F0B237"></path>
                        <path d="M42.7737924,6.87945538 C42.7737924,10.6787178 33.1988456,13.7586207 21.38659,13.7586207 C9.57525309,13.7586207 0,10.6787178 0,6.87945538 C0,3.0799029 9.57525309,0 21.38659,0 C33.1988456,0 42.7737924,3.0799029 42.7737924,6.87945538 Z" id="Fill-258" fill="#FFCC65"></path>
                        <path d="M38.794835,6.87946306 C38.794835,10.1356925 31.0011452,12.7758621 21.3864368,12.7758621 C11.7726473,12.7758621 3.97895744,10.1356925 3.97895744,6.87946306 C3.97895744,3.62292816 11.7726473,0.982758621 21.3864368,0.982758621 C31.0011452,0.982758621 38.794835,3.62292816 38.794835,6.87946306 Z" id="Fill-259" fill="#F0B237"></path>
                    </g>
                    <g id="Group-3-Copy" transform="translate(3.978957, 11.793103)">
                        <path d="M0,7.86206897 L0,12.423561 C0,16.4176108 9.57525309,19.6551724 21.38659,19.6551724 C33.1988456,19.6551724 42.7737924,16.4176108 42.7737924,12.423561 L42.7737924,7.86206897 L0,7.86206897 Z" id="Fill-257" fill="#F0B237"></path>
                        <path d="M42.7737924,6.87945538 C42.7737924,10.6787178 33.1988456,13.7586207 21.38659,13.7586207 C9.57525309,13.7586207 0,10.6787178 0,6.87945538 C0,3.0799029 9.57525309,0 21.38659,0 C33.1988456,0 42.7737924,3.0799029 42.7737924,6.87945538 Z" id="Fill-258" fill="#FFCC65"></path>
                        <path d="M38.794835,6.87946306 C38.794835,10.1356925 31.0011452,12.7758621 21.3864368,12.7758621 C11.7726473,12.7758621 3.97895744,10.1356925 3.97895744,6.87946306 C3.97895744,3.62292816 11.7726473,0.982758621 21.3864368,0.982758621 C31.0011452,0.982758621 38.794835,3.62292816 38.794835,6.87946306 Z" id="Fill-259" fill="#F0B237"></path>
                    </g>
                    <g id="Group-3-Copy" transform="translate(6.963176, 0.000000)">
                        <path d="M0,7.86206897 L0,12.423561 C0,16.4176108 9.57525309,19.6551724 21.38659,19.6551724 C33.1988456,19.6551724 42.7737924,16.4176108 42.7737924,12.423561 L42.7737924,7.86206897 L0,7.86206897 Z" id="Fill-257" fill="#F0B237"></path>
                        <path d="M42.7737924,6.87945538 C42.7737924,10.6787178 33.1988456,13.7586207 21.38659,13.7586207 C9.57525309,13.7586207 0,10.6787178 0,6.87945538 C0,3.0799029 9.57525309,0 21.38659,0 C33.1988456,0 42.7737924,3.0799029 42.7737924,6.87945538 Z" id="Fill-258" fill="#FFCC65"></path>
                        <path d="M38.794835,6.87946306 C38.794835,10.1356925 31.0011452,12.7758621 21.3864368,12.7758621 C11.7726473,12.7758621 3.97895744,10.1356925 3.97895744,6.87946306 C3.97895744,3.62292816 11.7726473,0.982758621 21.3864368,0.982758621 C31.0011452,0.982758621 38.794835,3.62292816 38.794835,6.87946306 Z" id="Fill-259" fill="#F0B237"></path>
                    </g>
                </g>
                <g id="Group-10" transform="translate(0.000000, 302.585366)">
                    <ellipse id="Oval-3" fill="#207DD6" fill-rule="nonzero" cx="27.7809187" cy="72.3292683" rx="21.7809187" ry="3.32926829"></ellipse>
                    <path d="M12.383067,72.0364183 C17.3089735,73.7800935 23.1640211,73.2893522 26.8024628,69.4741312 C30.439863,65.6599748 31.3440048,59.404886 28.9399042,54.6773759 C27.7743112,52.3886692 25.8733217,50.2511235 25.9879019,47.6728687 C26.0483169,46.285806 26.7087154,44.9977431 27.4743194,43.8491317 C28.9596953,41.6189732 30.8877674,39.7156208 32.2721043,37.4183979 C33.657483,35.1222396 34.4522528,32.1980175 33.3949902,29.7262142 C31.3408799,24.9167364 23.9337916,24.707027 21.7067694,19.9795169 C20.6557566,17.748294 21.0838698,15.1295876 21.2953224,12.6641714 C21.549482,9.70375584 21.4244855,6.58366305 20.0234823,3.97985992 C18.6235207,1.37605679 15.6600604,-0.530489171 12.8257632,0.132703532 C9.4414811,0.924702522 7.72381992,4.6920203 6.48947881,8.00904833 C5.67283456,10.2062068 4.85410703,12.4033653 4.03746279,14.6015883 C1.76460851,20.7087096 -0.543661451,27.2831528 0.966713752,33.6329834 C2.18334702,38.7554285 5.70616698,42.9112941 8.66858565,47.2279015 C9.23211185,48.0486424 9.80084624,48.9673187 9.72376502,49.9658335 C9.60397664,51.5061864 8.0186035,52.4759594 6.54468562,52.8176686 C5.06972612,53.1604424 3.46977004,53.1647004 2.18230538,53.9737317 C0.622973189,54.9530852 -0.115548204,56.9628891 0.0146565549,58.827919 C0.145902952,60.6929489 1.01671238,62.4270435 2.07814157,63.9492996 C2.07814157,63.9492996 6.94050809,70.1096466 12.383067,72.0364183" id="Fill-1" fill="#A0CFEF"></path>
                    <path d="M16,46.4545455 C18.4031792,43.2135573 20.8073888,39.972569 23.210568,36.7315808 C23.8896825,35.8151415 24.5739497,34.8933926 25.4117647,34.1298701" id="Fill-2" fill="#A0CFEF"></path>
                    <path d="M9.41176471,56.8831169 C11.8324457,59.067098 14.0929265,61.415328 16.1689008,63.9044942 C16.5412283,64.3506155 16.9234992,64.844422 16.9411765,65.4155844" id="Fill-3" fill="#A0CFEF"></path>
                    <path d="M9.41176471,25.5974026 C11.4755103,28.3126446 13.8650536,32.9773178 16,36.025974" id="Fill-4" fill="#A0CFEF"></path>
                    <path d="M46.176767,69.3511959 C51.8909482,66.1253802 57.7432239,62.7883661 61.9299968,57.6975927 C62.8255184,56.6089064 63.6561775,55.4005493 63.9229509,54.0110976 C64.1907704,52.6195277 63.763933,51.010856 62.5869916,50.2451749 C61.6496232,49.6351717 60.4507122,49.6605885 59.3428181,49.7770822 C56.7817936,50.0450176 54.2605236,50.6889099 51.8804865,51.6822832 C55.1999844,48.217126 57.8687644,44.1165488 59.7058391,39.6622545 C60.2582169,38.3204592 60.621238,36.5063351 59.4704508,35.6379277 C59.059306,35.3286899 58.5351747,35.2227866 58.026736,35.1624217 C51.7256534,34.410508 46.1464281,39.1549775 42.0004559,44.0180587 C43.7276827,35.4271801 44.2434446,26.5874285 43.5278642,17.8514623 C43.4431245,16.8178457 43.1826281,15.5724225 42.2107361,15.2430631 C41.595588,15.0354926 40.9291777,15.2991919 40.3485532,15.5914851 C35.4482924,18.0622099 31.9739614,22.825742 29.9266064,27.96629 C27.8802977,33.1057789 27.1040394,38.6593499 26.3790435,44.1514969 C24.8056036,38.5290888 22.4506747,33.1322547 19.4052735,28.1675063 C19.2368401,27.8942757 19.0485294,27.6041006 18.7545556,27.4791346 C18.1812544,27.2344979 17.5744757,27.7227123 17.1664694,28.1982183 C13.1680072,32.855847 12.6281834,39.6537822 13.5864752,45.7474602 C14.679723,52.7042504 17.4834589,59.3793377 21.6754626,65.0028049 C23.2876108,67.165351 25.6174317,71.1038961 30.6484638,71.1038961 L46.176767,69.3511959 Z" id="Fill-5" fill="#1661A5"></path>
                    <path d="M37.6425484,28.4417677 C37.6781792,28.4564893 37.5010429,29.0379923 37.1701848,30.0853286 C36.8372906,31.1337164 36.3598369,32.648989 35.8080674,34.5333531 C34.6994382,38.2999781 33.348519,43.562948 32.3223498,49.4736681 C31.2921085,55.3843882 30.7851321,60.8050894 30.5560765,64.7347035 C30.4390036,66.6989848 30.3758861,68.2920716 30.3361831,69.391985 C30.2944441,70.4940015 30.2639033,71.1038961 30.2262364,71.1038961 C30.1916235,71.1038961 30.1519206,70.495053 30.129524,69.3909335 C30.1071275,68.2868139 30.1122176,66.6884694 30.1814433,64.7147242 C30.3148046,60.7682855 30.7657896,55.3160379 31.801121,49.3758746 C32.8313623,43.438866 34.2474351,38.1643291 35.4507406,34.4176834 C36.0503573,32.5406802 36.5827844,31.0411806 36.975742,30.0138237 C37.3676816,28.9875183 37.6099716,28.4291492 37.6425484,28.4417677" id="Fill-6" fill="#222742"></path>
                    <path d="M48.9391958,45.5077606 C48.9667935,45.5320968 48.7051263,45.9087792 48.2083674,46.5669152 C47.6349482,47.3054666 46.9184297,48.2260106 46.0700554,49.3190243 C44.1883,51.5759442 41.8373834,54.8973093 39.1512056,58.4916632 C36.6459462,62.2193374 34.2919632,65.5332957 32.7720445,68.0737855 C32.0197512,69.2419241 31.3850037,70.2238377 30.8770013,71.0131777 C30.4190837,71.7009405 30.1512836,72.0712743 30.1206195,72.0511704 C30.0899553,72.0300085 30.2974493,71.6215832 30.7011937,70.8989033 C31.171377,70.0852271 31.758084,69.0705125 32.4541597,67.8663986 C33.8882189,65.2782945 36.2054049,61.9114313 38.72293,58.1657695 C41.4172848,54.5597765 43.8223747,51.265922 45.7818126,49.0671973 C46.683338,48.0186237 47.4427863,47.1351131 48.0530025,46.4261884 C48.5978018,45.8103762 48.9115981,45.4834243 48.9391958,45.5077606" id="Fill-7" fill="#222742"></path>
                    <path d="M55.4078793,55.9353938 C55.4141131,55.928941 55.4941133,56.0171294 55.5211263,56.2279211 C55.5585289,56.4430146 55.4702171,56.7721078 55.2374895,57.0861444 C55.0141125,57.418464 54.6525534,57.7088403 54.2369683,58.0304052 C53.8037209,58.3713285 53.3330707,58.7412895 52.823979,59.1413635 C52.5590435,59.3435515 52.2899521,59.5672488 51.9938478,59.7758896 C51.6852758,59.9716247 51.3673532,60.1727372 51.04008,60.3803025 C50.3772217,60.7889803 49.6831946,61.2557334 48.9226739,61.6880715 C47.3881259,62.5258609 45.6914997,63.429254 43.8743539,64.2842509 C40.2546077,66.0232825 36.9642127,67.5558242 34.7138194,68.8926307 C34.1320002,69.1916108 33.6291422,69.5142512 33.1948558,69.8089294 C32.7792707,70.0756454 32.4031662,70.3176257 32.0613475,70.5370211 C31.4358919,70.9295669 31.0805666,71.1328303 31.0597874,71.1005663 C31.0390081,71.0672268 31.3548528,70.8048126 31.9449836,70.3563425 C32.270179,70.1132868 32.6286211,69.8454953 33.0255049,69.5497416 C33.4431679,69.2303277 33.9314804,68.8851025 34.5091437,68.5570848 C36.7491474,67.1084295 40.0301917,65.5135107 43.6457821,63.7755546 C45.46085,62.9227086 47.1502034,62.0408249 48.6857904,61.234224 C49.4463111,60.818018 50.1392993,60.3716988 50.8063133,59.9845304 C51.1367035,59.7877197 51.456704,59.5973619 51.7673539,59.4134569 C52.0655362,59.2166463 52.3377444,59.0047791 52.6068358,58.8165722 C53.1263172,58.4444604 53.6083959,58.1003106 54.050994,57.7841231 C54.4832025,57.487294 54.8509953,57.2281062 55.0733333,56.9506355 C55.5824251,56.3946186 55.3517754,55.9364693 55.4078793,55.9353938" id="Fill-8" fill="#222742"></path>
                    <path d="M30.1155152,70.1512783 C30.1083388,70.1695218 30.0232468,70.1330348 29.859214,70.0428903 C29.6767276,69.9742089 29.4891151,69.7638719 29.2686961,69.475195 C28.8688663,68.8570618 28.5449016,67.9019601 28.0558789,66.7451065 C27.114741,64.4195948 25.8475879,61.1926387 24.4789396,57.6169095 C23.1102913,54.039034 21.8995246,50.7895418 21.0475794,48.4264699 C20.6210943,47.244934 20.2848271,46.2855396 20.0633829,45.6180416 C19.8429639,44.9505435 19.7363426,44.5738686 19.7711995,44.5588445 C19.8050313,44.5448936 19.9762405,44.8936667 20.2571466,45.5364823 C20.5370275,46.179298 20.9266053,47.1161562 21.3981994,48.2794486 C22.3393374,50.6049604 23.6064904,53.8319165 24.9751387,57.4087188 C26.343787,60.9855211 27.5545538,64.2350133 28.4064989,66.5980852 C28.8463117,67.7678166 29.1323439,68.7701368 29.4440061,69.3592951 C29.774122,69.9505996 30.149347,70.0868894 30.1155152,70.1512783" id="Fill-9" fill="#222742"></path>
                </g>
                <g id="Group-8" transform="translate(119.000000, 272.000000)">
                    <g id="Group" transform="translate(35.000000, 29.000000)">
                        <g id="Group-3-Copy" transform="translate(3.672884, 46.844828)">
                            <path d="M0,7.20689655 L0,11.3882643 C0,15.0494765 8.83869516,18.0172414 19.7414676,18.0172414 C30.6450883,18.0172414 39.4835007,15.0494765 39.4835007,11.3882643 L39.4835007,7.20689655 L0,7.20689655 Z" id="Fill-257" fill="#F0B237"></path>
                            <path d="M39.4835007,6.30616743 C39.4835007,9.78882464 30.6450883,12.612069 19.7414676,12.612069 C8.83869516,12.612069 0,9.78882464 0,6.30616743 C0,2.82324433 8.83869516,0 19.7414676,0 C30.6450883,0 39.4835007,2.82324433 39.4835007,6.30616743 Z" id="Fill-258" fill="#FFCC65"></path>
                            <path d="M35.8106169,6.30617447 C35.8106169,9.29105148 28.6164417,11.7112069 19.7413263,11.7112069 C10.867059,11.7112069 3.67288379,9.29105148 3.67288379,6.30617447 C3.67288379,3.32101748 10.867059,0.900862069 19.7413263,0.900862069 C28.6164417,0.900862069 35.8106169,3.32101748 35.8106169,6.30617447 Z" id="Fill-259" fill="#F0B237"></path>
                        </g>
                        <g id="Group-3-Copy" transform="translate(0.000000, 37.836207)">
                            <path d="M0,7.20689655 L0,11.3882643 C0,15.0494765 8.83869516,18.0172414 19.7414676,18.0172414 C30.6450883,18.0172414 39.4835007,15.0494765 39.4835007,11.3882643 L39.4835007,7.20689655 L0,7.20689655 Z" id="Fill-257" fill="#F0B237"></path>
                            <path d="M39.4835007,6.30616743 C39.4835007,9.78882464 30.6450883,12.612069 19.7414676,12.612069 C8.83869516,12.612069 0,9.78882464 0,6.30616743 C0,2.82324433 8.83869516,0 19.7414676,0 C30.6450883,0 39.4835007,2.82324433 39.4835007,6.30616743 Z" id="Fill-258" fill="#FFCC65"></path>
                            <path d="M35.8106169,6.30617447 C35.8106169,9.29105148 28.6164417,11.7112069 19.7413263,11.7112069 C10.867059,11.7112069 3.67288379,9.29105148 3.67288379,6.30617447 C3.67288379,3.32101748 10.867059,0.900862069 19.7413263,0.900862069 C28.6164417,0.900862069 35.8106169,3.32101748 35.8106169,6.30617447 Z" id="Fill-259" fill="#F0B237"></path>
                        </g>
                        <g id="Group-3-Copy" transform="translate(2.754663, 27.025862)">
                            <path d="M0,7.20689655 L0,11.3882643 C0,15.0494765 8.83869516,18.0172414 19.7414676,18.0172414 C30.6450883,18.0172414 39.4835007,15.0494765 39.4835007,11.3882643 L39.4835007,7.20689655 L0,7.20689655 Z" id="Fill-257" fill="#F0B237"></path>
                            <path d="M39.4835007,6.30616743 C39.4835007,9.78882464 30.6450883,12.612069 19.7414676,12.612069 C8.83869516,12.612069 0,9.78882464 0,6.30616743 C0,2.82324433 8.83869516,0 19.7414676,0 C30.6450883,0 39.4835007,2.82324433 39.4835007,6.30616743 Z" id="Fill-258" fill="#FFCC65"></path>
                            <path d="M35.8106169,6.30617447 C35.8106169,9.29105148 28.6164417,11.7112069 19.7413263,11.7112069 C10.867059,11.7112069 3.67288379,9.29105148 3.67288379,6.30617447 C3.67288379,3.32101748 10.867059,0.900862069 19.7413263,0.900862069 C28.6164417,0.900862069 35.8106169,3.32101748 35.8106169,6.30617447 Z" id="Fill-259" fill="#F0B237"></path>
                        </g>
                        <g id="Group-3-Copy" transform="translate(7.345768, 19.818966)">
                            <path d="M0,7.20689655 L0,11.3882643 C0,15.0494765 8.83869516,18.0172414 19.7414676,18.0172414 C30.6450883,18.0172414 39.4835007,15.0494765 39.4835007,11.3882643 L39.4835007,7.20689655 L0,7.20689655 Z" id="Fill-257" fill="#F0B237"></path>
                            <path d="M39.4835007,6.30616743 C39.4835007,9.78882464 30.6450883,12.612069 19.7414676,12.612069 C8.83869516,12.612069 0,9.78882464 0,6.30616743 C0,2.82324433 8.83869516,0 19.7414676,0 C30.6450883,0 39.4835007,2.82324433 39.4835007,6.30616743 Z" id="Fill-258" fill="#FFCC65"></path>
                            <path d="M35.8106169,6.30617447 C35.8106169,9.29105148 28.6164417,11.7112069 19.7413263,11.7112069 C10.867059,11.7112069 3.67288379,9.29105148 3.67288379,6.30617447 C3.67288379,3.32101748 10.867059,0.900862069 19.7413263,0.900862069 C28.6164417,0.900862069 35.8106169,3.32101748 35.8106169,6.30617447 Z" id="Fill-259" fill="#F0B237"></path>
                        </g>
                        <g id="Group-3-Copy" transform="translate(3.672884, 10.810345)">
                            <path d="M0,7.20689655 L0,11.3882643 C0,15.0494765 8.83869516,18.0172414 19.7414676,18.0172414 C30.6450883,18.0172414 39.4835007,15.0494765 39.4835007,11.3882643 L39.4835007,7.20689655 L0,7.20689655 Z" id="Fill-257" fill="#F0B237"></path>
                            <path d="M39.4835007,6.30616743 C39.4835007,9.78882464 30.6450883,12.612069 19.7414676,12.612069 C8.83869516,12.612069 0,9.78882464 0,6.30616743 C0,2.82324433 8.83869516,0 19.7414676,0 C30.6450883,0 39.4835007,2.82324433 39.4835007,6.30616743 Z" id="Fill-258" fill="#FFCC65"></path>
                            <path d="M35.8106169,6.30617447 C35.8106169,9.29105148 28.6164417,11.7112069 19.7413263,11.7112069 C10.867059,11.7112069 3.67288379,9.29105148 3.67288379,6.30617447 C3.67288379,3.32101748 10.867059,0.900862069 19.7413263,0.900862069 C28.6164417,0.900862069 35.8106169,3.32101748 35.8106169,6.30617447 Z" id="Fill-259" fill="#F0B237"></path>
                        </g>
                        <g id="Group-3-Copy" transform="translate(6.427547, 0.000000)">
                            <path d="M0,7.20689655 L0,11.3882643 C0,15.0494765 8.83869516,18.0172414 19.7414676,18.0172414 C30.6450883,18.0172414 39.4835007,15.0494765 39.4835007,11.3882643 L39.4835007,7.20689655 L0,7.20689655 Z" id="Fill-257" fill="#F0B237"></path>
                            <path d="M39.4835007,6.30616743 C39.4835007,9.78882464 30.6450883,12.612069 19.7414676,12.612069 C8.83869516,12.612069 0,9.78882464 0,6.30616743 C0,2.82324433 8.83869516,0 19.7414676,0 C30.6450883,0 39.4835007,2.82324433 39.4835007,6.30616743 Z" id="Fill-258" fill="#FFCC65"></path>
                            <path d="M35.8106169,6.30617447 C35.8106169,9.29105148 28.6164417,11.7112069 19.7413263,11.7112069 C10.867059,11.7112069 3.67288379,9.29105148 3.67288379,6.30617447 C3.67288379,3.32101748 10.867059,0.900862069 19.7413263,0.900862069 C28.6164417,0.900862069 35.8106169,3.32101748 35.8106169,6.30617447 Z" id="Fill-259" fill="#F0B237"></path>
                        </g>
                    </g>
                    <g id="Group" transform="translate(41.000000, 0.000000)">
                        <g id="Group-3-Copy" transform="translate(3.814512, 20.353741)">
                            <path d="M0,7.40136054 L0,11.6955543 C0,15.4555572 9.17951896,18.5034014 20.5027069,18.5034014 C31.8267757,18.5034014 41.0060011,15.4555572 41.0060011,11.6955543 L41.0060011,7.40136054 L0,7.40136054 Z" id="Fill-257" fill="#F0B237"></path>
                            <path d="M41.0060011,6.47632701 C41.0060011,10.0529569 31.8267757,12.952381 20.5027069,12.952381 C9.17951896,12.952381 0,10.0529569 0,6.47632701 C0,2.89942405 9.17951896,0 20.5027069,0 C31.8267757,0 41.0060011,2.89942405 41.0060011,6.47632701 Z" id="Fill-258" fill="#FFCC65"></path>
                            <path d="M37.1914894,6.47633424 C37.1914894,9.54175232 29.7199037,12.0272109 20.5025601,12.0272109 C11.2860974,12.0272109 3.81451173,9.54175232 3.81451173,6.47633424 C3.81451173,3.41062864 11.2860974,0.925170068 20.5025601,0.925170068 C29.7199037,0.925170068 37.1914894,3.41062864 37.1914894,6.47633424 Z" id="Fill-259" fill="#F0B237"></path>
                        </g>
                        <g id="Group-3-Copy" transform="translate(0.000000, 11.102041)">
                            <path d="M0,7.40136054 L0,11.6955543 C0,15.4555572 9.17951896,18.5034014 20.5027069,18.5034014 C31.8267757,18.5034014 41.0060011,15.4555572 41.0060011,11.6955543 L41.0060011,7.40136054 L0,7.40136054 Z" id="Fill-257" fill="#F0B237"></path>
                            <path d="M41.0060011,6.47632701 C41.0060011,10.0529569 31.8267757,12.952381 20.5027069,12.952381 C9.17951896,12.952381 0,10.0529569 0,6.47632701 C0,2.89942405 9.17951896,0 20.5027069,0 C31.8267757,0 41.0060011,2.89942405 41.0060011,6.47632701 Z" id="Fill-258" fill="#FFCC65"></path>
                            <path d="M37.1914894,6.47633424 C37.1914894,9.54175232 29.7199037,12.0272109 20.5025601,12.0272109 C11.2860974,12.0272109 3.81451173,9.54175232 3.81451173,6.47633424 C3.81451173,3.41062864 11.2860974,0.925170068 20.5025601,0.925170068 C29.7199037,0.925170068 37.1914894,3.41062864 37.1914894,6.47633424 Z" id="Fill-259" fill="#F0B237"></path>
                        </g>
                        <g id="Group-3-Copy" transform="translate(2.860884, 0.000000)">
                            <path d="M0,7.40136054 L0,11.6955543 C0,15.4555572 9.17951896,18.5034014 20.5027069,18.5034014 C31.8267757,18.5034014 41.0060011,15.4555572 41.0060011,11.6955543 L41.0060011,7.40136054 L0,7.40136054 Z" id="Fill-257" fill="#F0B237"></path>
                            <path d="M41.0060011,6.47632701 C41.0060011,10.0529569 31.8267757,12.952381 20.5027069,12.952381 C9.17951896,12.952381 0,10.0529569 0,6.47632701 C0,2.89942405 9.17951896,0 20.5027069,0 C31.8267757,0 41.0060011,2.89942405 41.0060011,6.47632701 Z" id="Fill-258" fill="#FFCC65"></path>
                            <path d="M37.1914894,6.47633424 C37.1914894,9.54175232 29.7199037,12.0272109 20.5025601,12.0272109 C11.2860974,12.0272109 3.81451173,9.54175232 3.81451173,6.47633424 C3.81451173,3.41062864 11.2860974,0.925170068 20.5025601,0.925170068 C29.7199037,0.925170068 37.1914894,3.41062864 37.1914894,6.47633424 Z" id="Fill-259" fill="#F0B237"></path>
                        </g>
                    </g>
                    <g id="Group-2" transform="translate(0.000000, 44.000000)">
                        <g id="Group-3-Copy" transform="translate(0.955699, 47.568738)">
                            <path d="M0,7.31826742 L0,11.5642514 C0,15.2820417 9.19945823,18.2956685 20.5472418,18.2956685 C31.8959082,18.2956685 41.0950722,15.2820417 41.0950722,11.5642514 L41.0950722,7.31826742 L0,7.31826742 Z" id="Fill-257" fill="#F0B237"></path>
                            <path d="M41.0950722,6.40361899 C41.0950722,9.940095 31.8959082,12.806968 20.5472418,12.806968 C9.19945823,12.806968 0,9.940095 0,6.40361899 C0,2.86687298 9.19945823,0 20.5472418,0 C31.8959082,0 41.0950722,2.86687298 41.0950722,6.40361899 Z" id="Fill-258" fill="#FFCC65"></path>
                            <path d="M37.2722748,6.40362615 C37.2722748,9.43462958 29.7844597,11.8921846 20.5470947,11.8921846 C11.3106124,11.8921846 3.82279741,9.43462958 3.82279741,6.40362615 C3.82279741,3.37233841 11.3106124,0.914783427 20.5470947,0.914783427 C29.7844597,0.914783427 37.2722748,3.37233841 37.2722748,6.40362615 Z" id="Fill-259" fill="#F0B237"></path>
                        </g>
                        <g id="Group-3-Copy" transform="translate(4.778497, 38.420904)">
                            <path d="M0,7.31826742 L0,11.5642514 C0,15.2820417 9.19945823,18.2956685 20.5472418,18.2956685 C31.8959082,18.2956685 41.0950722,15.2820417 41.0950722,11.5642514 L41.0950722,7.31826742 L0,7.31826742 Z" id="Fill-257" fill="#F0B237"></path>
                            <path d="M41.0950722,6.40361899 C41.0950722,9.940095 31.8959082,12.806968 20.5472418,12.806968 C9.19945823,12.806968 0,9.940095 0,6.40361899 C0,2.86687298 9.19945823,0 20.5472418,0 C31.8959082,0 41.0950722,2.86687298 41.0950722,6.40361899 Z" id="Fill-258" fill="#FFCC65"></path>
                            <path d="M37.2722748,6.40362615 C37.2722748,9.43462958 29.7844597,11.8921846 20.5470947,11.8921846 C11.3106124,11.8921846 3.82279741,9.43462958 3.82279741,6.40362615 C3.82279741,3.37233841 11.3106124,0.914783427 20.5470947,0.914783427 C29.7844597,0.914783427 37.2722748,3.37233841 37.2722748,6.40362615 Z" id="Fill-259" fill="#F0B237"></path>
                        </g>
                        <g id="Group-3-Copy" transform="translate(0.000000, 28.358286)">
                            <path d="M0,7.31826742 L0,11.5642514 C0,15.2820417 9.19945823,18.2956685 20.5472418,18.2956685 C31.8959082,18.2956685 41.0950722,15.2820417 41.0950722,11.5642514 L41.0950722,7.31826742 L0,7.31826742 Z" id="Fill-257" fill="#F0B237"></path>
                            <path d="M41.0950722,6.40361899 C41.0950722,9.940095 31.8959082,12.806968 20.5472418,12.806968 C9.19945823,12.806968 0,9.940095 0,6.40361899 C0,2.86687298 9.19945823,0 20.5472418,0 C31.8959082,0 41.0950722,2.86687298 41.0950722,6.40361899 Z" id="Fill-258" fill="#FFCC65"></path>
                            <path d="M37.2722748,6.40362615 C37.2722748,9.43462958 29.7844597,11.8921846 20.5470947,11.8921846 C11.3106124,11.8921846 3.82279741,9.43462958 3.82279741,6.40362615 C3.82279741,3.37233841 11.3106124,0.914783427 20.5470947,0.914783427 C29.7844597,0.914783427 37.2722748,3.37233841 37.2722748,6.40362615 Z" id="Fill-259" fill="#F0B237"></path>
                        </g>
                        <g id="Group-3-Copy" transform="translate(5.734196, 20.125235)">
                            <path d="M0,7.31826742 L0,11.5642514 C0,15.2820417 9.19945823,18.2956685 20.5472418,18.2956685 C31.8959082,18.2956685 41.0950722,15.2820417 41.0950722,11.5642514 L41.0950722,7.31826742 L0,7.31826742 Z" id="Fill-257" fill="#F0B237"></path>
                            <path d="M41.0950722,6.40361899 C41.0950722,9.940095 31.8959082,12.806968 20.5472418,12.806968 C9.19945823,12.806968 0,9.940095 0,6.40361899 C0,2.86687298 9.19945823,0 20.5472418,0 C31.8959082,0 41.0950722,2.86687298 41.0950722,6.40361899 Z" id="Fill-258" fill="#FFCC65"></path>
                            <path d="M37.2722748,6.40362615 C37.2722748,9.43462958 29.7844597,11.8921846 20.5470947,11.8921846 C11.3106124,11.8921846 3.82279741,9.43462958 3.82279741,6.40362615 C3.82279741,3.37233841 11.3106124,0.914783427 20.5470947,0.914783427 C29.7844597,0.914783427 37.2722748,3.37233841 37.2722748,6.40362615 Z" id="Fill-259" fill="#F0B237"></path>
                        </g>
                        <g id="Group-3-Copy" transform="translate(1.911399, 10.977401)">
                            <path d="M0,7.31826742 L0,11.5642514 C0,15.2820417 9.19945823,18.2956685 20.5472418,18.2956685 C31.8959082,18.2956685 41.0950722,15.2820417 41.0950722,11.5642514 L41.0950722,7.31826742 L0,7.31826742 Z" id="Fill-257" fill="#F0B237"></path>
                            <path d="M41.0950722,6.40361899 C41.0950722,9.940095 31.8959082,12.806968 20.5472418,12.806968 C9.19945823,12.806968 0,9.940095 0,6.40361899 C0,2.86687298 9.19945823,0 20.5472418,0 C31.8959082,0 41.0950722,2.86687298 41.0950722,6.40361899 Z" id="Fill-258" fill="#FFCC65"></path>
                            <path d="M37.2722748,6.40362615 C37.2722748,9.43462958 29.7844597,11.8921846 20.5470947,11.8921846 C11.3106124,11.8921846 3.82279741,9.43462958 3.82279741,6.40362615 C3.82279741,3.37233841 11.3106124,0.914783427 20.5470947,0.914783427 C29.7844597,0.914783427 37.2722748,3.37233841 37.2722748,6.40362615 Z" id="Fill-259" fill="#F0B237"></path>
                        </g>
                        <g id="Group-3-Copy" transform="translate(4.778497, 0.000000)">
                            <path d="M0,7.31826742 L0,11.5642514 C0,15.2820417 9.19945823,18.2956685 20.5472418,18.2956685 C31.8959082,18.2956685 41.0950722,15.2820417 41.0950722,11.5642514 L41.0950722,7.31826742 L0,7.31826742 Z" id="Fill-257" fill="#F0B237"></path>
                            <path d="M41.0950722,6.40361899 C41.0950722,9.940095 31.8959082,12.806968 20.5472418,12.806968 C9.19945823,12.806968 0,9.940095 0,6.40361899 C0,2.86687298 9.19945823,0 20.5472418,0 C31.8959082,0 41.0950722,2.86687298 41.0950722,6.40361899 Z" id="Fill-258" fill="#FFCC65"></path>
                            <path d="M37.2722748,6.40362615 C37.2722748,9.43462958 29.7844597,11.8921846 20.5470947,11.8921846 C11.3106124,11.8921846 3.82279741,9.43462958 3.82279741,6.40362615 C3.82279741,3.37233841 11.3106124,0.914783427 20.5470947,0.914783427 C29.7844597,0.914783427 37.2722748,3.37233841 37.2722748,6.40362615 Z" id="Fill-259" fill="#F0B237"></path>
                        </g>
                    </g>
                    <g id="Group" transform="translate(49.000000, 44.000000)">
                        <g id="Group-3-Copy" transform="translate(3.906977, 48.292593)">
                            <path d="M0,7.42962963 L0,11.7402248 C0,15.5145888 9.40203351,18.5740741 20.9996993,18.5740741 C32.5982672,18.5740741 42,15.5145888 42,11.7402248 L42,7.42962963 L0,7.42962963 Z" id="Fill-257" fill="#F0B237"></path>
                            <path d="M42,6.50106298 C42,10.0913536 32.5982672,13.0018519 20.9996993,13.0018519 C9.40203351,13.0018519 0,10.0913536 0,6.50106298 C0,2.91049824 9.40203351,0 20.9996993,0 C32.5982672,0 42,2.91049824 42,6.50106298 Z" id="Fill-258" fill="#FFCC65"></path>
                            <path d="M38.0930233,6.50107024 C38.0930233,9.57819651 30.4403239,12.0731481 20.9995489,12.0731481 C11.5596761,12.0731481 3.90697674,9.57819651 3.90697674,6.50107024 C3.90697674,3.42365534 11.5596761,0.928703704 20.9995489,0.928703704 C30.4403239,0.928703704 38.0930233,3.42365534 38.0930233,6.50107024 Z" id="Fill-259" fill="#F0B237"></path>
                        </g>
                        <g id="Group-3-Copy" transform="translate(0.000000, 39.005556)">
                            <path d="M0,7.42962963 L0,11.7402248 C0,15.5145888 9.40203351,18.5740741 20.9996993,18.5740741 C32.5982672,18.5740741 42,15.5145888 42,11.7402248 L42,7.42962963 L0,7.42962963 Z" id="Fill-257" fill="#F0B237"></path>
                            <path d="M42,6.50106298 C42,10.0913536 32.5982672,13.0018519 20.9996993,13.0018519 C9.40203351,13.0018519 0,10.0913536 0,6.50106298 C0,2.91049824 9.40203351,0 20.9996993,0 C32.5982672,0 42,2.91049824 42,6.50106298 Z" id="Fill-258" fill="#FFCC65"></path>
                            <path d="M38.0930233,6.50107024 C38.0930233,9.57819651 30.4403239,12.0731481 20.9995489,12.0731481 C11.5596761,12.0731481 3.90697674,9.57819651 3.90697674,6.50107024 C3.90697674,3.42365534 11.5596761,0.928703704 20.9995489,0.928703704 C30.4403239,0.928703704 38.0930233,3.42365534 38.0930233,6.50107024 Z" id="Fill-259" fill="#F0B237"></path>
                        </g>
                        <g id="Group-3-Copy" transform="translate(2.930233, 27.861111)">
                            <path d="M0,7.42962963 L0,11.7402248 C0,15.5145888 9.40203351,18.5740741 20.9996993,18.5740741 C32.5982672,18.5740741 42,15.5145888 42,11.7402248 L42,7.42962963 L0,7.42962963 Z" id="Fill-257" fill="#F0B237"></path>
                            <path d="M42,6.50106298 C42,10.0913536 32.5982672,13.0018519 20.9996993,13.0018519 C9.40203351,13.0018519 0,10.0913536 0,6.50106298 C0,2.91049824 9.40203351,0 20.9996993,0 C32.5982672,0 42,2.91049824 42,6.50106298 Z" id="Fill-258" fill="#FFCC65"></path>
                            <path d="M38.0930233,6.50107024 C38.0930233,9.57819651 30.4403239,12.0731481 20.9995489,12.0731481 C11.5596761,12.0731481 3.90697674,9.57819651 3.90697674,6.50107024 C3.90697674,3.42365534 11.5596761,0.928703704 20.9995489,0.928703704 C30.4403239,0.928703704 38.0930233,3.42365534 38.0930233,6.50107024 Z" id="Fill-259" fill="#F0B237"></path>
                        </g>
                        <g id="Group-3-Copy" transform="translate(7.813953, 20.431481)">
                            <path d="M0,7.42962963 L0,11.7402248 C0,15.5145888 9.40203351,18.5740741 20.9996993,18.5740741 C32.5982672,18.5740741 42,15.5145888 42,11.7402248 L42,7.42962963 L0,7.42962963 Z" id="Fill-257" fill="#F0B237"></path>
                            <path d="M42,6.50106298 C42,10.0913536 32.5982672,13.0018519 20.9996993,13.0018519 C9.40203351,13.0018519 0,10.0913536 0,6.50106298 C0,2.91049824 9.40203351,0 20.9996993,0 C32.5982672,0 42,2.91049824 42,6.50106298 Z" id="Fill-258" fill="#FFCC65"></path>
                            <path d="M38.0930233,6.50107024 C38.0930233,9.57819651 30.4403239,12.0731481 20.9995489,12.0731481 C11.5596761,12.0731481 3.90697674,9.57819651 3.90697674,6.50107024 C3.90697674,3.42365534 11.5596761,0.928703704 20.9995489,0.928703704 C30.4403239,0.928703704 38.0930233,3.42365534 38.0930233,6.50107024 Z" id="Fill-259" fill="#F0B237"></path>
                        </g>
                        <g id="Group-3-Copy" transform="translate(3.906977, 11.144444)">
                            <path d="M0,7.42962963 L0,11.7402248 C0,15.5145888 9.40203351,18.5740741 20.9996993,18.5740741 C32.5982672,18.5740741 42,15.5145888 42,11.7402248 L42,7.42962963 L0,7.42962963 Z" id="Fill-257" fill="#F0B237"></path>
                            <path d="M42,6.50106298 C42,10.0913536 32.5982672,13.0018519 20.9996993,13.0018519 C9.40203351,13.0018519 0,10.0913536 0,6.50106298 C0,2.91049824 9.40203351,0 20.9996993,0 C32.5982672,0 42,2.91049824 42,6.50106298 Z" id="Fill-258" fill="#FFCC65"></path>
                            <path d="M38.0930233,6.50107024 C38.0930233,9.57819651 30.4403239,12.0731481 20.9995489,12.0731481 C11.5596761,12.0731481 3.90697674,9.57819651 3.90697674,6.50107024 C3.90697674,3.42365534 11.5596761,0.928703704 20.9995489,0.928703704 C30.4403239,0.928703704 38.0930233,3.42365534 38.0930233,6.50107024 Z" id="Fill-259" fill="#F0B237"></path>
                        </g>
                        <g id="Group-3-Copy" transform="translate(6.837209, 0.000000)">
                            <path d="M0,7.42962963 L0,11.7402248 C0,15.5145888 9.40203351,18.5740741 20.9996993,18.5740741 C32.5982672,18.5740741 42,15.5145888 42,11.7402248 L42,7.42962963 L0,7.42962963 Z" id="Fill-257" fill="#F0B237"></path>
                            <path d="M42,6.50106298 C42,10.0913536 32.5982672,13.0018519 20.9996993,13.0018519 C9.40203351,13.0018519 0,10.0913536 0,6.50106298 C0,2.91049824 9.40203351,0 20.9996993,0 C32.5982672,0 42,2.91049824 42,6.50106298 Z" id="Fill-258" fill="#FFCC65"></path>
                            <path d="M38.0930233,6.50107024 C38.0930233,9.57819651 30.4403239,12.0731481 20.9995489,12.0731481 C11.5596761,12.0731481 3.90697674,9.57819651 3.90697674,6.50107024 C3.90697674,3.42365534 11.5596761,0.928703704 20.9995489,0.928703704 C30.4403239,0.928703704 38.0930233,3.42365534 38.0930233,6.50107024 Z" id="Fill-259" fill="#F0B237"></path>
                        </g>
                    </g>
                    <g id="Group-4" transform="translate(27.000000, 72.000000)">
                        <g id="Group-3-Copy" transform="translate(5.857143, 36.924407)">
                            <path d="M0,7.57423729 L0,11.9687323 C0,15.8165592 9.39670356,18.9355932 20.9877947,18.9355932 C32.5797875,18.9355932 41.9761905,15.8165592 41.9761905,11.9687323 L41.9761905,7.57423729 L0,7.57423729 Z" id="Fill-257" fill="#F0B237"></path>
                            <path d="M41.9761905,6.62759735 C41.9761905,10.2877681 32.5797875,13.2549153 20.9877947,13.2549153 C9.39670356,13.2549153 0,10.2877681 0,6.62759735 C0,2.96714714 9.39670356,0 20.9877947,0 C32.5797875,0 41.9761905,2.96714714 41.9761905,6.62759735 Z" id="Fill-258" fill="#FFCC65"></path>
                            <path d="M38.0714286,6.62760475 C38.0714286,9.76462311 30.4230675,12.3081356 20.9876444,12.3081356 C11.553123,12.3081356 3.9047619,9.76462311 3.9047619,6.62760475 C3.9047619,3.49029215 11.553123,0.946779661 20.9876444,0.946779661 C30.4230675,0.946779661 38.0714286,3.49029215 38.0714286,6.62760475 Z" id="Fill-259" fill="#F0B237"></path>
                        </g>
                        <g id="Group-3-Copy" transform="translate(1.952381, 28.403390)">
                            <path d="M0,7.57423729 L0,11.9687323 C0,15.8165592 9.39670356,18.9355932 20.9877947,18.9355932 C32.5797875,18.9355932 41.9761905,15.8165592 41.9761905,11.9687323 L41.9761905,7.57423729 L0,7.57423729 Z" id="Fill-257" fill="#F0B237"></path>
                            <path d="M41.9761905,6.62759735 C41.9761905,10.2877681 32.5797875,13.2549153 20.9877947,13.2549153 C9.39670356,13.2549153 0,10.2877681 0,6.62759735 C0,2.96714714 9.39670356,0 20.9877947,0 C32.5797875,0 41.9761905,2.96714714 41.9761905,6.62759735 Z" id="Fill-258" fill="#FFCC65"></path>
                            <path d="M38.0714286,6.62760475 C38.0714286,9.76462311 30.4230675,12.3081356 20.9876444,12.3081356 C11.553123,12.3081356 3.9047619,9.76462311 3.9047619,6.62760475 C3.9047619,3.49029215 11.553123,0.946779661 20.9876444,0.946779661 C30.4230675,0.946779661 38.0714286,3.49029215 38.0714286,6.62760475 Z" id="Fill-259" fill="#F0B237"></path>
                        </g>
                        <g id="Group-3-Copy" transform="translate(4.880952, 17.988814)">
                            <path d="M0,7.57423729 L0,11.9687323 C0,15.8165592 9.39670356,18.9355932 20.9877947,18.9355932 C32.5797875,18.9355932 41.9761905,15.8165592 41.9761905,11.9687323 L41.9761905,7.57423729 L0,7.57423729 Z" id="Fill-257" fill="#F0B237"></path>
                            <path d="M41.9761905,6.62759735 C41.9761905,10.2877681 32.5797875,13.2549153 20.9877947,13.2549153 C9.39670356,13.2549153 0,10.2877681 0,6.62759735 C0,2.96714714 9.39670356,0 20.9877947,0 C32.5797875,0 41.9761905,2.96714714 41.9761905,6.62759735 Z" id="Fill-258" fill="#FFCC65"></path>
                            <path d="M38.0714286,6.62760475 C38.0714286,9.76462311 30.4230675,12.3081356 20.9876444,12.3081356 C11.553123,12.3081356 3.9047619,9.76462311 3.9047619,6.62760475 C3.9047619,3.49029215 11.553123,0.946779661 20.9876444,0.946779661 C30.4230675,0.946779661 38.0714286,3.49029215 38.0714286,6.62760475 Z" id="Fill-259" fill="#F0B237"></path>
                        </g>
                        <g id="Group-3-Copy" transform="translate(0.000000, 9.467797)">
                            <path d="M0,7.57423729 L0,11.9687323 C0,15.8165592 9.39670356,18.9355932 20.9877947,18.9355932 C32.5797875,18.9355932 41.9761905,15.8165592 41.9761905,11.9687323 L41.9761905,7.57423729 L0,7.57423729 Z" id="Fill-257" fill="#F0B237"></path>
                            <path d="M41.9761905,6.62759735 C41.9761905,10.2877681 32.5797875,13.2549153 20.9877947,13.2549153 C9.39670356,13.2549153 0,10.2877681 0,6.62759735 C0,2.96714714 9.39670356,0 20.9877947,0 C32.5797875,0 41.9761905,2.96714714 41.9761905,6.62759735 Z" id="Fill-258" fill="#FFCC65"></path>
                            <path d="M38.0714286,6.62760475 C38.0714286,9.76462311 30.4230675,12.3081356 20.9876444,12.3081356 C11.553123,12.3081356 3.9047619,9.76462311 3.9047619,6.62760475 C3.9047619,3.49029215 11.553123,0.946779661 20.9876444,0.946779661 C30.4230675,0.946779661 38.0714286,3.49029215 38.0714286,6.62760475 Z" id="Fill-259" fill="#F0B237"></path>
                        </g>
                        <g id="Group-3-Copy" transform="translate(2.928571, 0.000000)">
                            <path d="M0,7.57423729 L0,11.9687323 C0,15.8165592 9.39670356,18.9355932 20.9877947,18.9355932 C32.5797875,18.9355932 41.9761905,15.8165592 41.9761905,11.9687323 L41.9761905,7.57423729 L0,7.57423729 Z" id="Fill-257" fill="#F0B237"></path>
                            <path d="M41.9761905,6.62759735 C41.9761905,10.2877681 32.5797875,13.2549153 20.9877947,13.2549153 C9.39670356,13.2549153 0,10.2877681 0,6.62759735 C0,2.96714714 9.39670356,0 20.9877947,0 C32.5797875,0 41.9761905,2.96714714 41.9761905,6.62759735 Z" id="Fill-258" fill="#FFCC65"></path>
                            <path d="M38.0714286,6.62760475 C38.0714286,9.76462311 30.4230675,12.3081356 20.9876444,12.3081356 C11.553123,12.3081356 3.9047619,9.76462311 3.9047619,6.62760475 C3.9047619,3.49029215 11.553123,0.946779661 20.9876444,0.946779661 C30.4230675,0.946779661 38.0714286,3.49029215 38.0714286,6.62760475 Z" id="Fill-259" fill="#F0B237"></path>
                        </g>
                    </g>
                </g>
                <g id="Group-5" transform="translate(67.000000, 324.000000)">
                    <g id="Group-3-Copy" transform="translate(3.978957, 28.665000)">
                        <path d="M0,7.644 L0,12.0789707 C0,15.9622381 9.57525309,19.11 21.38659,19.11 C33.1988456,19.11 42.7737924,15.9622381 42.7737924,12.0789707 L42.7737924,7.644 L0,7.644 Z" id="Fill-257" fill="#F0B237"></path>
                        <path d="M42.7737924,6.68864101 C42.7737924,10.3825239 33.1988456,13.377 21.38659,13.377 C9.57525309,13.377 0,10.3825239 0,6.68864101 C0,2.99447612 9.57525309,0 21.38659,0 C33.1988456,0 42.7737924,2.99447612 42.7737924,6.68864101 Z" id="Fill-258" fill="#FFCC65"></path>
                        <path d="M38.794835,6.68864848 C38.794835,9.85456042 31.0011452,12.4215 21.3864368,12.4215 C11.7726473,12.4215 3.97895744,9.85456042 3.97895744,6.68864848 C3.97895744,3.52243958 11.7726473,0.9555 21.3864368,0.9555 C31.0011452,0.9555 38.794835,3.52243958 38.794835,6.68864848 Z" id="Fill-259" fill="#F0B237"></path>
                    </g>
                    <g id="Group-3-Copy" transform="translate(0.000000, 19.110000)">
                        <path d="M0,7.644 L0,12.0789707 C0,15.9622381 9.57525309,19.11 21.38659,19.11 C33.1988456,19.11 42.7737924,15.9622381 42.7737924,12.0789707 L42.7737924,7.644 L0,7.644 Z" id="Fill-257" fill="#F0B237"></path>
                        <path d="M42.7737924,6.68864101 C42.7737924,10.3825239 33.1988456,13.377 21.38659,13.377 C9.57525309,13.377 0,10.3825239 0,6.68864101 C0,2.99447612 9.57525309,0 21.38659,0 C33.1988456,0 42.7737924,2.99447612 42.7737924,6.68864101 Z" id="Fill-258" fill="#FFCC65"></path>
                        <path d="M38.794835,6.68864848 C38.794835,9.85456042 31.0011452,12.4215 21.3864368,12.4215 C11.7726473,12.4215 3.97895744,9.85456042 3.97895744,6.68864848 C3.97895744,3.52243958 11.7726473,0.9555 21.3864368,0.9555 C31.0011452,0.9555 38.794835,3.52243958 38.794835,6.68864848 Z" id="Fill-259" fill="#F0B237"></path>
                    </g>
                    <g id="Group-3-Copy" transform="translate(2.984218, 7.644000)">
                        <path d="M0,7.644 L0,12.0789707 C0,15.9622381 9.57525309,19.11 21.38659,19.11 C33.1988456,19.11 42.7737924,15.9622381 42.7737924,12.0789707 L42.7737924,7.644 L0,7.644 Z" id="Fill-257" fill="#F0B237"></path>
                        <path d="M42.7737924,6.68864101 C42.7737924,10.3825239 33.1988456,13.377 21.38659,13.377 C9.57525309,13.377 0,10.3825239 0,6.68864101 C0,2.99447612 9.57525309,0 21.38659,0 C33.1988456,0 42.7737924,2.99447612 42.7737924,6.68864101 Z" id="Fill-258" fill="#FFCC65"></path>
                        <path d="M38.794835,6.68864848 C38.794835,9.85456042 31.0011452,12.4215 21.3864368,12.4215 C11.7726473,12.4215 3.97895744,9.85456042 3.97895744,6.68864848 C3.97895744,3.52243958 11.7726473,0.9555 21.3864368,0.9555 C31.0011452,0.9555 38.794835,3.52243958 38.794835,6.68864848 Z" id="Fill-259" fill="#F0B237"></path>
                    </g>
                    <g id="Group-3-Copy" transform="translate(7.957915, 0.000000)">
                        <path d="M0,7.644 L0,12.0789707 C0,15.9622381 9.57525309,19.11 21.38659,19.11 C33.1988456,19.11 42.7737924,15.9622381 42.7737924,12.0789707 L42.7737924,7.644 L0,7.644 Z" id="Fill-257" fill="#F0B237"></path>
                        <path d="M42.7737924,6.68864101 C42.7737924,10.3825239 33.1988456,13.377 21.38659,13.377 C9.57525309,13.377 0,10.3825239 0,6.68864101 C0,2.99447612 9.57525309,0 21.38659,0 C33.1988456,0 42.7737924,2.99447612 42.7737924,6.68864101 Z" id="Fill-258" fill="#FFCC65"></path>
                        <path d="M38.794835,6.68864848 C38.794835,9.85456042 31.0011452,12.4215 21.3864368,12.4215 C11.7726473,12.4215 3.97895744,9.85456042 3.97895744,6.68864848 C3.97895744,3.52243958 11.7726473,0.9555 21.3864368,0.9555 C31.0011452,0.9555 38.794835,3.52243958 38.794835,6.68864848 Z" id="Fill-259" fill="#F0B237"></path>
                    </g>
                </g>
                <g id="Group" transform="translate(85.000000, 358.000000)">
                    <g id="Group-3-Copy" transform="translate(3.570934, 19.408602)">
                        <path d="M0,6.94623656 L0,10.976372 C0,14.5051651 8.59335638,17.3655914 19.1934968,17.3655914 C29.7944617,17.3655914 38.3875433,14.5051651 38.3875433,10.976372 L38.3875433,6.94623656 L0,6.94623656 Z" id="Fill-257" fill="#F0B237"></path>
                        <path d="M38.3875433,6.07808513 C38.3875433,9.43478113 29.7944617,12.155914 19.1934968,12.155914 C8.59335638,12.155914 0,9.43478113 0,6.07808513 C0,2.72113285 8.59335638,0 19.1934968,0 C29.7944617,0 38.3875433,2.72113285 38.3875433,6.07808513 Z" id="Fill-258" fill="#FFCC65"></path>
                        <path d="M34.816609,6.07809192 C34.816609,8.9550115 27.822125,11.2876344 19.1933593,11.2876344 C10.5654182,11.2876344 3.57093426,8.9550115 3.57093426,6.07809192 C3.57093426,3.20090248 10.5654182,0.86827957 19.1933593,0.86827957 C27.822125,0.86827957 34.816609,3.20090248 34.816609,6.07809192 Z" id="Fill-259" fill="#F0B237"></path>
                    </g>
                    <g id="Group-3-Copy" transform="translate(0.000000, 10.725806)">
                        <path d="M0,6.94623656 L0,10.976372 C0,14.5051651 8.59335638,17.3655914 19.1934968,17.3655914 C29.7944617,17.3655914 38.3875433,14.5051651 38.3875433,10.976372 L38.3875433,6.94623656 L0,6.94623656 Z" id="Fill-257" fill="#F0B237"></path>
                        <path d="M38.3875433,6.07808513 C38.3875433,9.43478113 29.7944617,12.155914 19.1934968,12.155914 C8.59335638,12.155914 0,9.43478113 0,6.07808513 C0,2.72113285 8.59335638,0 19.1934968,0 C29.7944617,0 38.3875433,2.72113285 38.3875433,6.07808513 Z" id="Fill-258" fill="#FFCC65"></path>
                        <path d="M34.816609,6.07809192 C34.816609,8.9550115 27.822125,11.2876344 19.1933593,11.2876344 C10.5654182,11.2876344 3.57093426,8.9550115 3.57093426,6.07809192 C3.57093426,3.20090248 10.5654182,0.86827957 19.1933593,0.86827957 C27.822125,0.86827957 34.816609,3.20090248 34.816609,6.07809192 Z" id="Fill-259" fill="#F0B237"></path>
                    </g>
                    <g id="Group-3-Copy" transform="translate(2.678201, 0.306452)">
                        <path d="M0,6.94623656 L0,10.976372 C0,14.5051651 8.59335638,17.3655914 19.1934968,17.3655914 C29.7944617,17.3655914 38.3875433,14.5051651 38.3875433,10.976372 L38.3875433,6.94623656 L0,6.94623656 Z" id="Fill-257" fill="#F0B237"></path>
                        <path d="M38.3875433,6.07808513 C38.3875433,9.43478113 29.7944617,12.155914 19.1934968,12.155914 C8.59335638,12.155914 0,9.43478113 0,6.07808513 C0,2.72113285 8.59335638,0 19.1934968,0 C29.7944617,0 38.3875433,2.72113285 38.3875433,6.07808513 Z" id="Fill-258" fill="#FFCC65"></path>
                        <path d="M34.816609,6.07809192 C34.816609,8.9550115 27.822125,11.2876344 19.1933593,11.2876344 C10.5654182,11.2876344 3.57093426,8.9550115 3.57093426,6.07809192 C3.57093426,3.20090248 10.5654182,0.86827957 19.1933593,0.86827957 C27.822125,0.86827957 34.816609,3.20090248 34.816609,6.07809192 Z" id="Fill-259" fill="#F0B237"></path>
                    </g>
                </g>
                <g id="Group-34" transform="translate(416.500000, 112.500000) rotate(2.000000) translate(-416.500000, -112.500000) translate(376.000000, 50.000000)">
                    <path d="M30.3284981,74.7997835 C30.3284981,74.7997835 54.6651169,74.8584624 64.0570051,74.9992919 C70.5581798,75.0931782 71.1501548,65.8219041 68.5841484,64.4253451 C60.802901,60.1781626 36.5190324,58 36.5190324,58 L20,73.1919802 C20,73.1919802 20.9284043,73.1567729 30.3284981,74.7997835 Z" id="Fill-1" fill="#1D416B"></path>
                    <path d="M54.9942058,23.1648611 C54.9942058,23.1648611 61.4730286,21.3330715 64.2930222,29.881423 C68.620735,42.9969875 68.2383424,55.0225514 67.6374398,57.5863212 C67.3582325,58.7658269 66.5266804,62.842601 59.2855003,62.9995414 C56.351396,63.0620724 57.5252805,56.7084354 57.5252805,56.7084354 C57.5252805,56.7084354 55.6424523,51.3136066 53.6382296,42.1840849 C51.632793,33.0496588 54.9942058,23.1648611 54.9942058,23.1648611 Z" id="Fill-2" fill="#FCB74B"></path>
                    <path d="M61,23.3525765 L43.6756614,17.8630477 L30.5605966,17 L16.1926211,21.2606779 C16.1926211,21.2606779 11.4910419,24.4326261 15.857246,34.6391568 C20.2247157,44.8469275 18.5440435,60.8356297 18.5440435,60.8356297 L55.6099526,62 C55.6099526,62 56.3110764,47.2178286 58.7662753,32.4319372 C59.3155311,29.1322678 59.3826061,25.2473133 61,23.3525765 Z" id="Fill-3" fill="#FCB74B"></path>
                    <path d="M34.1217787,63 L35.7690641,63 C37.4891211,48.4700904 37.4086313,33.47689 35.5143633,19 C35.018193,19.3383159 34.5231253,19.6753694 34.0258524,20.0149476 C34.4415329,34.8213169 33.731458,49.6314732 34.1217787,63 Z" id="Fill-4" fill="#FFD89B"></path>
                    <path d="M42.8962642,24.2905074 C42.6686498,26.2360884 41.2105656,27.9214403 39.680366,28 C38.226789,28 36.7732119,28 35.3196349,28 C33.7871817,27.9214403 32.3302243,26.2360884 32.1048635,24.2905074 C31.7465398,21.089198 31.389343,17.8866612 31.033273,14.6779869 C30.7943906,12.7581833 31.8423182,8.90139116 34.1601538,7.76227496 C36.2830523,6.74590835 38.7169486,6.74590835 40.8387203,7.76227496 C43.1576827,8.90016367 44.2056103,12.7581833 43.9667279,14.6779869 C43.6095311,17.8866612 43.2534611,21.089198 42.8962642,24.2905074 Z" id="Fill-5" fill="#FFB9A3"></path>
                    <polygon id="Fill-6" fill="#FFD89B" points="37 26.4723726 34.1762678 31 29 24.6748034 29.8125269 21.3470534 31.4938946 20 31.5157305 22.5042386"></polygon>
                    <polygon id="Fill-7" fill="#FFD89B" points="35 26.4829835 37.5882619 31 42 25.1211535 41.276298 21.5198696 40.1691497 20 39.7214447 22.9500713"></polygon>
                    <path d="M36.9885986,0 C35.7358926,0 34.6367441,0.628894602 33.9982681,1.58241645 L32.7721172,1.58241645 C31.2411603,1.58241645 30,2.79835476 30,4.29706941 L30,11 L31.9500649,11 L31.9500649,8.27403599 C31.9500649,7.22097686 32.8240727,6.36812339 33.8978208,6.36812339 L35.0385337,6.36812339 L33.2339443,6.36812339 L34.4254582,6.36812339 C36.4009237,6.36812339 38,4.7981491 38,2.86282776 L38,0 L36.9885986,0 Z" id="Fill-8" fill="#013E6A"></path>
                    <path d="M34,14.8233425 C34,16.0273247 33.1404311,17 32.0796865,17 L31.9203135,17 C30.8621816,17 30,16.0273247 30,14.8233425 L30,12.1781402 C30,10.9786062 30.8621816,10 31.9203135,10 L32.0796865,10 C32.8647943,10 33.5388635,10.5367507 33.8380144,11.2973946" id="Fill-9" fill="#FFB9A3"></path>
                    <path d="M34,3.02220183 L34,0 L40.2154561,0 C42.3088775,0 44,1.78146789 44,3.97651376 L44,7 L42.8089998,7 L39.6762045,7 L37.7845439,7 C35.6923453,7 34,5.21853211 34,3.02220183 Z" id="Fill-10" fill="#163F59"></path>
                    <path d="M44.9999284,18.4186712 C44.9939735,19.9023251 43.8732683,22.4164615 42.0153511,23.2095113 C39.4940623,24.2640988 36.5047212,24.2628935 33.9834323,23.2095113 C32.1231331,22.4164615 31.0107648,19.9047355 31.000046,18.4186712 C31.000046,14.2075528 31.000046,9.99643447 31.000046,5.78652136 C30.9905182,4.29322553 32.4613693,3.03977301 34.2787935,3 C36.7595893,3 39.2403851,3 41.7211809,3 C43.5374141,3.03495204 45.0118381,4.29081504 44.9999284,5.78652136 C44.9999284,9.99643447 44.9999284,14.2075528 44.9999284,18.4186712 Z" id="Fill-11" fill="#FFB9A3"></path>
                    <path d="M37.2867408,0 C38.6687529,0 39.8824757,0.628894602 40.5875058,1.58241645 L41.9427446,1.58241645 C43.6320121,1.58241645 45,2.79835476 45,4.29706941 L45,11 L42.8492119,11 L42.8492119,8.27403599 C42.8492119,7.22097686 41.8828234,6.36812339 40.6971488,6.36812339 L40.6754752,6.36812339 L41.4315021,6.36812339 L37.9471488,6.36812339 C35.7657626,6.36812339 34,4.7981491 34,2.86282776 L34,0 L37.2867408,0 Z" id="Fill-12" fill="#013E6A"></path>
                    <path d="M42,12.1766575 C42,10.9771235 42.8575163,10 43.9202614,10 L44.0797386,10 C45.1398693,10 46,10.9771235 46,12.1766575 L46,14.820377 C46,16.0213938 45.1398693,17 44.0797386,17 L43.9202614,17 C43.1346405,17 42.4601307,16.4662148 42.1620915,15.7040881" id="Fill-13" fill="#FFB9A3"></path>
                    <path d="M36.9206049,3.80568807 C36.9708885,3.55009174 37,3.28807339 37,3.02220183 L37,0 L35.7111531,0 L34.1007561,0 C31.8353497,0 30,1.78146789 30,3.97651376 L30,7 L32.9032136,7 C33.1903592,7 33.473535,6.96788991 33.7448015,6.91394495 C34.0650284,5.35724771 35.320794,4.12807339 36.9206049,3.80568807 Z" id="Fill-14" fill="#013E6A"></path>
                    <path d="M5.13090347,123.187036 C4.88143566,123.581621 5.06521288,124.640768 5.06521288,124.640768 C5.06521288,124.640768 9.43520069,125.284563 10.8405099,124.848444 C11.2057183,124.734222 11.8235226,124.31887 12.4045714,123.872367 C12.5031073,123.79968 12.6759361,123.353177 12.7713439,123.280491 C12.9480828,123.145501 13.0395804,123.373945 13.1889483,123.249339 C13.5783996,122.927441 13.8528924,122.667847 13.8575846,122.636695 C14.2407796,119.978443 13.7293315,118.898528 13.7293315,118.898528 C13.7293315,118.898528 10.0092113,117.257888 9.31242186,118.41049 C7.6701573,121.099893 5.67832499,122.304414 5.13090347,123.187036 Z" id="Fill-15" fill="#161711"></path>
                    <path d="M65.9651005,116.764239 L66.3033749,119.820219 L69.9877764,120.117127 C69.9877764,120.117127 70.242354,119.711594 70.5536014,119.733319 C70.8168975,119.755044 71.1054769,120.211268 71.4629319,120.240235 C72.2379988,120.30541 73.0976344,120.370585 73.4428835,120.399551 C74.1342537,120.457485 80.8360979,121.000609 80.8360979,121.000609 C80.8360979,121.000609 81.077598,120.385068 80.8997424,120.153335 C80.8090709,120.030227 80.2153469,119.78401 79.8151718,119.653661 C77.9633808,119.059844 72.6800224,117.227705 71.9101865,115.641781 C70.9755726,113.708258 65.9651005,116.764239 65.9651005,116.764239 Z" id="Fill-16" fill="#161711"></path>
                    <path d="M55.7035273,54.0051185 L39,60.2567471 C39,60.2567471 50.8462743,61.8113509 58.253702,60.4238858 C63.2617215,59.4864093 55.9290927,53.8058377 55.7035273,54.0051185 Z" id="Fill-17" fill="#FFB9A3"></path>
                    <path d="M18,66.3259084 C18,66.3259084 16.6471517,81.9852493 16.8390102,90.2649008 C16.9856097,96.5046382 17.001352,108.480134 15.7832966,118.679705 C15.7075371,119.303679 9.16663854,118.823699 9.16663854,118.823699 C9.16663854,118.823699 6.82104556,80.0173321 6.12346779,73.6216013 C5.4268739,67.2258705 7.45368662,62.6132646 18,66.3259084 Z" id="Fill-18" fill="#1D416B"></path>
                    <path d="M68.7782674,67.7259192 C68.7782674,67.7259192 66.5672278,71.766975 60.5000362,72.7234379 C58.3075856,73.0701557 64.0350144,118 64.0350144,118 L73,114.677487 L71.2681395,65 L68.7782674,67.7259192 Z" id="Fill-19" fill="#1D416B"></path>
                    <path d="M38.9889162,74.899532 C38.9889162,74.899532 25.8018267,76.9682913 16.9972626,77.9899008 C13.7710917,78.3602343 10.9760842,68.4250815 10.6030292,68.0036675 C8.246158,65.2836321 5.92182743,65.6284253 6.00201684,65.5390345 C7.9079679,63.2659533 17.7852106,61.1652686 28.1064005,58.5052528 C38.425266,55.8452369 40,57.5206766 40,57.5206766 L38.9889162,74.899532 Z" id="Fill-20" fill="#1D416B"></path>
                    <polygon id="Fill-22" fill="#1D416B" points="18 76.0160237 16.7132897 107.659347 15.4265793 115 15.2845975 107.659347 15.5700401 103.08546 12.572153 95.9816024 11 79.505638 13.2850201 80.2284866 12.9995774 73"></polygon>
                    <path d="M25,22.2125888 C25,22.2125888 19.2410685,17.7053982 13.6071389,26.07031 C5.34816694,38.3282541 1.763513,51.3680835 0.45036044,55.1413107 C-0.554706324,58.0355475 -0.00166707417,66.217599 3.37843811,69.5973614 C4.19031993,70.4044688 9.06413615,69.748694 9.06413615,69.748694 L12.2649455,67.5417596 L10.92654,64.9691047 L10.8533065,62.9349418 C10.8533065,62.9349418 14.9468071,53.0730979 19.9734035,43.7510071 C25,34.4289163 25,22.2125888 25,22.2125888 Z" id="Fill-24" fill="#FCB74B"></path>
                    <path d="M10.4200927,58.0007889 L29,58.8574278 C29,58.8574278 11.1050316,66.0968015 10.5154322,64.8572206 C7.16224252,57.7772216 10.4200927,58.0007889 10.4200927,58.0007889 Z" id="Fill-25" fill="#FFB9A3"></path>
                    <path d="M20.1311855,57.4926959 C21.0224606,57.0104582 20.9430299,57 20.9430299,57 C20.9430299,57 21.7590005,58.0934595 22.9422094,58.2968127 C23.5281403,58.3990704 25.424163,58.4246348 25.424163,58.4246348 L28.2372501,58.501328 L29.5421841,58.4211487 C29.5421841,58.4211487 30.278724,58.313081 30.474722,58.4536853 C31.0431162,58.8638778 30.5572475,59.1938911 30.5572475,59.1938911 L25.5139095,59.99917 L30.3602179,60.6766268 C30.3602179,60.6766268 30.9688433,60.8788181 30.9977272,61.250664 C31.0235164,61.5969456 30.821329,61.5853254 30.821329,61.5853254 L25.1920602,62.2627822 L27.6606034,62.9193227 C27.6606034,62.9193227 28.2496289,63.1401062 28.2950179,63.500332 C28.3455648,63.8954183 28.3682593,64 28.3682593,64 L23.1908174,63.4306109 C23.1908174,63.4306109 19.2388788,57.9760956 20.1311855,57.4926959 Z" id="Fill-26" fill="#FFFFFF"></path>
                    <path d="M27.7013151,63 L32.2097694,64.194831 C32.2097694,64.194831 33.2377245,64.2982107 33.6947459,64.777336 C34.2176442,65.3260437 33.9102184,66 33.9102184,66 L27,65.1550696 L27.7013151,63 Z" id="Fill-27" fill="#FFFFFF"></path>
                    <path d="M49.981366,64.3923445 L50,64.3349282 L49.981366,63 L16,63 L16,64.3349282 L16,64.3923445 L16.114133,64.6363636 C16.6952799,65.7990431 17.7329588,66 18.9208742,66 L47.0593273,66 C48.2472426,66 49.2849216,65.7990431 49.8649037,64.6363636 L49.981366,64.3923445 Z" id="Fill-28" fill="#FFFFFF"></path>
                    <polygon id="Fill-29" fill="#D2DBE0" points="22 65 46 65 46 64 22 64"></polygon>
                    <path d="M49.9080619,63 L49.9999979,39.1401058 C50.0011616,38.5089312 49.5286808,38 48.9409892,38 L17.1567633,38 C16.5690717,38 16.0930997,38.5089312 16.0907722,39.1401058 L16,63 L49.9080619,63 Z" id="Fill-30" fill="#FFFFFF"></path>
                    <path d="M36.9999666,51.4971719 C36.9943121,52.8800905 35.8719022,54 34.4893872,54 C33.1096995,54 31.9957712,52.8800905 32.0000121,51.4971719 C32.0070801,50.1199095 33.1294901,49 34.5105914,49 C35.8916928,49 37.0070347,50.1199095 36.9999666,51.4971719 Z" id="Fill-31" fill="#B9D2E0"></path>
                    <polygon id="Fill-32" fill="#FFD89B" points="8.31048461 67 7 59.1106383 9.17597199 57 14 57.7270517 13.013267 66.4650456"></polygon>
                    <polygon id="Fill-33" fill="#FFD89B" points="63.5209877 60.8968663 64 58.0575169 58.1580247 53 55 54.3780246 59.1308642 62"></polygon>
                </g>
                <g id="Group-30" transform="translate(112.000000, 7.000000)">
                    <path d="M69.0250411,36.9004688 C71.5227459,42.3373871 77.7870725,44.5521015 83.0191067,41.8453915 C88.2539084,39.1401501 90.4707079,32.5385976 87.9743869,27.0987421 C85.4766821,21.6632925 79.2137393,19.4471094 73.9789375,22.155288 C68.7455196,24.8590607 66.5301039,31.4620819 69.0250411,36.9004688 Z" id="Fill-1" fill="#013E6A"></path>
                    <path d="M63.2689759,47.0684093 C66.3615185,53.2465625 74.1166219,55.7632942 80.5975272,52.6887575 C87.0770756,49.6155427 89.8208759,42.1116112 86.7296903,35.933458 C83.6398617,29.7513393 75.8834014,27.2359295 69.403853,30.3131098 C62.9256616,33.3889683 60.1791473,40.8876125 63.2689759,47.0684093 Z" id="Fill-2" fill="#013E6A"></path>
                    <path d="M74.9972155,60.6857567 C74.9972155,60.6857567 75.3833468,62.2452611 67.061456,64.152155 C58.7409491,66.059049 46,67 46,67 L64.7446682,60.9781637 C64.7446682,60.9781637 72.0313396,58.9875464 74.9972155,60.6857567 Z" id="Fill-3" fill="#FFB9A3"></path>
                    <path d="M45,68 C45,68 42.5558252,69.4114114 42.1929612,69.8870871 C41.9393204,70.2162162 41,72 41,72 C41,72 41.9381068,71.5627628 42.3543689,70.8708709 C42.7718447,70.1813814 45,68 45,68 Z" id="Fill-5" fill="#DEE7EC"></path>
                    <path d="M69.4159327,58.2979154 C69.4159327,58.2979154 77.1404479,56.6523966 77.9203668,61.0959581 C78.3670224,63.6204085 76.8929205,64.9487188 74.5476327,65.408671 C70.1903202,66.2585253 65.1830753,67 65.1830753,67 L61,60.9148849 L69.4159327,58.2979154 Z" id="Fill-6" fill="#B0BFDE"></path>
                    <path d="M68.1224785,56.874846 L70.2478531,35.4823447 C70.2478531,35.4823447 70.093603,29.8841499 72.0579024,30.0018296 C74.8931003,30.1671417 75.433658,34.9990171 75.679366,36.7319918 C76.1803374,40.2679887 76.9065412,41.6563298 76.8505744,50.556563 C76.8164483,56.0442229 77.1972958,62.2404832 76.8587647,65.9431931 C76.6280721,68.4929215 74.2064828,65.6588003 71.6825151,65.416436 C66.978571,64.9611274 68.1224785,56.874846 68.1224785,56.874846 Z" id="Fill-7" fill="#B0BFDE"></path>
                    <polygon id="Fill-8" fill="#FFB9A3" points="25 114.24649 17.8762304 129.776755 7.99320505 130 3 128.975039 13.7465676 126.421061 19.5010478 112"></polygon>
                    <path d="M15.9597971,132 L14.6871379,131.71308 L13.9734719,130.221357 L6.23304495,130.545927 L0,129.441091 C0,129.441091 0.122110154,128.986693 0.416531302,128.843882 C1.51687946,128.273937 6.35786867,128 6.35786867,128 C6.35786867,128 5.85043314,129.285297 6.39857205,129.559234 C6.94806774,129.817592 12.9246814,129.480039 14.3601541,129.285297 C16.8254224,128.947744 18.1021519,128.350536 17.9936095,128.662123 C17.8321528,129.116521 15.9597971,132 15.9597971,132 Z" id="Fill-9" fill="#262524"></path>
                    <path d="M61.0709149,83.1653207 L38.6361836,82.5594419 L21.9207951,120 L15,117.204695 L31.3063835,72.1507188 C31.3063835,72.1507188 32.5979782,69.2989573 39.3761597,69.2989573 C45.9686745,69.2989573 72.5849438,68.5540017 75.6080827,69.4160021 C82.7804697,71.4580892 59.8385183,76.9550626 61.0709149,83.1653207 Z" id="Fill-10" fill="#153A64"></path>
                    <path d="M77.0253923,22.9026295 C79.5216695,28.3367695 85.7858859,30.5515487 91.0192119,27.8462282 C96.2539216,25.1409077 98.470682,18.539162 95.9744049,13.100616 C93.4781278,7.66206992 87.2111439,5.4472907 81.9792017,8.15554857 C76.7472595,10.8608691 74.5291152,17.4611461 77.0253923,22.9026295 Z" id="Fill-11" fill="#013E6A"></path>
                    <path d="M67.7664559,17.6970359 C69.6906256,21.4965466 74.4496832,23.0775601 78.3979795,21.223912 L78.529867,17.1183555 C82.4781633,15.2660439 84.1191219,10.684847 82.1935639,6.88653898 L80.891348,4.30452885 C78.96579,0.505018074 74.2053442,-1.07733182 70.2584362,0.774979796 L68.4717072,1.61172749 C64.5234109,3.466712 62.881064,8.04790896 64.8053725,11.8487562 L67.7664559,17.6970359 Z" id="Fill-12" fill="#013E6A"></path>
                    <path d="M65.6019374,6 C65.9374066,6.62676002 66.3280795,7.24818591 66.7782028,7.85494295 C69.7945945,11.9235489 74.3694317,13.9665199 77.692983,12.9517021 C78.821122,14.9039929 80.1757381,16.5028977 81.4765659,17.7964237 C82.9543289,19.2673094 86.0669734,20.1127687 86.0669734,20.1127687 C88.1873652,22.9491911 86.9870366,31.1197414 79.4071315,31.9612001 C74.852111,32.4652752 75.7849135,27.9419348 77.3759151,25.1228482 C78.1204585,23.7973175 78.8381078,22.2730904 78.6739119,21.5316467 C78.0992263,18.9245917 77.0871568,18.5712057 75.4678456,17.6830735 C72.7331347,16.5510382 70.224901,17.7390818 70.224901,17.7390818 C69.9814381,17.8484314 69.7124966,17.8510985 69.4789421,17.7657524 C69.096762,17.3790282 68.7641237,16.9364289 68.509337,16.4363544 L65.5807051,10.7727109 C64.7668031,9.20447729 64.8404082,7.45234965 65.6019374,6 Z" id="Fill-13" fill="#FFB9A3"></path>
                    <path d="M88,75.7970271 C88,75.7970271 84.6478771,76.4722076 83.7169604,76.8233015 C82.473453,77.2824243 78.8347887,76.701769 78.8347887,76.701769 C78.8347887,76.701769 78.3686449,59.0052876 77.4898265,52.8288713 C76.6137503,46.6548856 74.9877307,44.9804379 75.0000698,43.0480713 C75.019264,39.9624963 75.2770141,39.2414035 75.8281607,36.8459981 C76.3820493,34.4530233 74.7656269,31.2675216 75.3140314,31.8765344 C76.1997048,32.8595972 79.5216655,34.3841549 82.6202883,31.0055515 C83.1507326,30.4235459 88,75.7970271 88,75.7970271 Z" id="Fill-14" fill="#194866"></path>
                    <path d="M77.2888489,23 C77.2888489,23 72.825473,27.5811652 73.005291,29.0863465 C73.1837669,30.5942621 72.7328802,36.9157506 73.7567688,43.646003 C74.7793155,50.3762555 75.6019153,52.0468565 75.7709978,56.9629621 C75.9400804,61.8763335 74.8249409,62.9700166 75.2288603,69.0044132 C75.5455545,73.7304914 76.2715358,77.9001583 76.2715358,77.9001583 C76.2715358,77.9001583 78.3783576,78.501684 79.9685384,76.751791 C81.5573773,74.988227 80.9843755,58.5583724 80.3992963,54.5131119 C79.8142171,50.4692186 77.479268,39.8551607 77.6215121,37.0374228 C77.7610722,34.2198217 78.6547941,27.486835 79.1432547,26.6036859 C80.368432,24.3917118 77.6416409,23.2296735 77.2888489,23 Z" id="Fill-15" fill="#D1DBEA"></path>
                    <path d="M76.6906402,23 C76.6906402,23 76.9882467,23.3705848 77.3739713,23.5749788 C78.0988675,23.9595843 79,24.7146459 79,24.7146459 C79,24.7146459 77.8927044,24.303028 77.4687398,25.0426539 C76.9516693,25.9482133 76.632449,28 76.632449,28 C76.632449,28 74.5891061,25.3886702 75.0745871,24.5564302 C75.9541057,23.0553112 76.6906402,23 76.6906402,23 Z" id="Fill-16" fill="#B0BFDE"></path>
                    <path d="M83.4793688,36.3253096 C85.245296,42.1128249 91.3893377,45.3187166 97.2009695,43.482551 C103.013986,41.6435669 106.288223,35.4628895 104.520911,29.673965 C102.753599,23.8837723 96.608172,20.6791488 90.7993102,22.5195421 C84.9890634,24.3557077 81.7106715,30.5377943 83.4793688,36.3253096 Z" id="Fill-17" fill="#013E6A"></path>
                    <polygon id="Fill-18" fill="#FFB9A3" points="45 116.069502 44.6734783 126.975608 42.6002623 129.593073 37.0874221 133 33 132.210539 40.2070812 126.440857 40.735548 115"></polygon>
                    <path d="M43.4382465,129.528831 L41.6858033,130.788849 L41.1500245,130.352209 L36.3143727,133.446115 C36.3143727,133.446115 31.9090803,134.595102 31.0595236,133.583344 C30.7854331,133.271459 31.4923635,132.723788 32.4733844,131.998965 C33.2497676,131.41262 33.7272556,131.18931 33.7272556,131.18931 C33.7272556,131.18931 33.9269324,131.950311 35.6683376,132.235998 C36.2263165,132.323326 39.6741523,130.027848 40.8585707,129.44275 C42.9880435,128.369863 43.8338794,126.871565 43.9392989,127.008794 C44.2195906,127.370582 43.4382465,129.528831 43.4382465,129.528831 Z" id="Fill-19" fill="#262524"></path>
                    <path d="M90.8261349,60 L88.1047163,66.3940887 L83.4284321,66.9632594 L45.6810753,69.3543149 C45.6810753,69.3543149 42.3034808,68.3195813 40.1527499,73.6264596 C37.0916781,81.1750365 41.0955546,119 41.0955546,119 L46.6820444,118.917921 L49.7011836,83.2606504 C49.7011836,83.2606504 85.982256,89.5713145 96.4302092,86.3823436 C100.439496,85.1578863 103.503273,78.1071657 102.931098,70.9945494 C102.48472,65.4212507 98.7419068,60.2906404 98.7419068,60.2906404 L90.8261349,60 Z" id="Fill-20" fill="#1D416B"></path>
                    <path d="M85.8980416,76 C85.8980416,76 84.1567252,60.040453 83.165535,52.4810267 C82.1743449,44.9243299 82.3938612,32.2456749 82.1676112,30.4278096 C81.9386679,28.6085795 81,25.9909627 81,25.9909627 C81,25.9909627 82.8126929,21.870741 85.184277,22.0031231 C87.2730487,22.1218575 93.8518041,24.3573405 97.039504,25.6688785 C99.2414006,26.5791759 98.0872566,52.0265603 98.2838786,53.3681231 C98.9962965,58.2007515 101.338253,63.7403274 102.857359,67.5657602 C104.064026,70.6078185 105,75.1497522 105,75.1497522 C105,75.1497522 92.9683519,73.7112912 85.8980416,76 Z" id="Fill-21" fill="#D1DBEA"></path>
                    <path d="M84.8287819,20 L82.9458166,22.0226853 C82.9458166,22.0226853 80.3171225,25.4882132 81.1704084,25.0044414 C82.2545833,24.3840109 83.4993768,28 83.4993768,28 L87,21.1588657 L84.8287819,20 Z" id="Fill-22" fill="#B0BFDE"></path>
                    <path d="M99.6697336,58.4968005 C99.6697336,58.4968005 102.428994,60.4023378 91.9965565,61.4465039 C81.5641194,62.4893549 66,61.7384496 66,61.7384496 L89.8621878,57.3421686 C89.8621878,57.3421686 96.4424816,56.046824 99.6697336,58.4968005 Z" id="Fill-23" fill="#FFB9A3"></path>
                    <path d="M72.3717607,61.0461169 C67.5427288,61.6817941 65.7766986,64.1673186 63.9580083,65.1062059 C62.1379982,66.0477529 60.3615416,67.3483644 60.3707802,67.3284163 C61.1864193,65.3003667 62.7371893,65.0397124 63.4366856,64.3229132 C64.1322225,63.606114 63.9712063,63.9412409 62.2356637,64.0502902 C61.2497699,64.112794 59.7491524,65.9187556 58.6312781,66.9533934 C57.6625418,67.848395 57,68 57,68 C57,68 58.0307672,66.2419137 59.448237,64.7498011 C61.1626628,62.9464992 63.3614567,61.3346984 63.8946577,61.0567559 C64.8752723,60.5514058 68.0889958,60.0247778 70.427689,60.0008402 C73.064658,59.9742428 75.8507649,60.5846525 72.3717607,61.0461169 Z" id="Fill-24" fill="#FFB9A3"></path>
                    <path d="M65,61 C65,61 61.5473863,62.2474576 60.9774756,62.7442219 C60.5822354,63.0856703 59,65 59,65 C59,65 60.3068423,64.638829 60.9876753,63.9053929 C61.6710582,63.1731895 65,61 65,61 Z" id="Fill-25" fill="#FFB9A3"></path>
                    <path d="M93.5315266,54.4694472 L90.1021803,31.7126572 C90.1021803,31.7126572 90.9530193,27.0244021 92.4371999,25.4170004 C94.2004338,23.5122294 97.5559131,24.0788385 97.5559131,24.0788385 C97.5559131,24.0788385 101.483178,27.2320249 101.764967,45.2536773 C101.95921,57.5837881 103.113725,62.6551406 97.6872323,63.1909411 C92.6218675,63.6905752 86.8410867,64 86.8410867,64 L83,56.55773 L93.5315266,54.4694472 Z" id="Fill-26" fill="#B0BFDE"></path>
                    <polygon id="Fill-27" fill="#FFFFFF" points="31 69 63 69 63 68 31 68"></polygon>
                    <path d="M51,68.044231 C50.9985846,68.5697678 50.6093514,69 50.1281175,69 L32.4569281,69 C31.9756943,69 31.3217824,68.6637109 30.7358095,67.322639 L22,51.9772364 C22,51.3101041 22.5364342,50.9098248 23.0190834,51.0173828 L41.1502758,51.5442812 C41.632925,51.6504777 42.0235736,52.0058277 42.2953292,52.7029128 L51,68.044231 Z" id="Fill-28" fill="#FFFFFF"></path>
                    <path d="M46.9177344,69 L63,69 C62.4280584,69.462 61.4761283,69.768 60.3962295,69.768 L47.0822656,69.768 L46.9177344,69.768 L33.6024647,69.768 C32.5238717,69.768 31.56933,69.462 31,69 L46.9177344,69 Z" id="Fill-29" fill="#FFFFFF"></path>
                </g>
                <path d="M302.309225,59.2215456 C302.309225,59.2215456 300.788049,51.9267098 291.85043,53.2139784 C291.85043,53.2139784 289.567718,44.8481426 280.630099,46.1344709 C271.692479,47.4217396 270.931891,54.5021874 270.931891,54.5021874 C270.931891,54.5021874 265.797211,51.9267098 262.374092,54.286859 C258.950972,56.6470083 258,59.2215456 258,59.2215456 L302.309225,59.2215456 Z" id="Fill-1" fill="#4E8EFF"></path>
                <path d="M53,65.4740828 C53,65.4740828 54.0892606,60.2469634 60.4941127,61.1693962 C60.4941127,61.1693962 62.1298979,55.174053 68.5338028,56.0964858 C74.9386549,57.0189186 75.4842324,62.0918291 75.4842324,62.0918291 C75.4842324,62.0918291 79.1630915,60.2469634 81.6162958,61.9385604 C84.0685528,63.6292171 84.7495775,65.4740828 84.7495775,65.4740828 L53,65.4740828 Z" id="Fill-2" fill="#4E8EFF"></path>
                <path d="M369.471908,14.6216418 C368.340025,6.37428358 360.946313,0 351.969859,0 C343.645067,0 336.683271,5.48570149 334.812585,12.861403 L334.533165,12.8472985 L328.96657,12.7739552 C327.94456,6.20785075 322.014246,1.16408955 314.829863,1.16408955 C307.805553,1.16408955 301.975641,5.985 300.764194,12.3367164 C285.488972,9.44341791 284,22.5530597 284,22.5530597 L376.374979,22.5530597 C376.93287,16.1872388 370.001384,14.7241343 369.471908,14.6216418 Z" id="Fill-3" fill="#4E8EFF"></path>
            </g>
        </g>
    </g>
</svg>